/* XPM */
static char *xpm_[] = {
/* columns rows colors chars-per-pixel */
"64 64 121 2 ",
"   c #010101",
".  c #080807",
"X  c #0C0C0B",
"o  c #0F1010",
"O  c #151514",
"+  c #191817",
"@  c #1C1D1D",
"#  c #201F1F",
"$  c #1E1E20",
"%  c #1F2021",
"&  c #242424",
"*  c #282727",
"=  c #262827",
"-  c #2B2B2B",
";  c #30312F",
":  c #2F2F30",
">  c #333333",
",  c #3B3B3B",
"<  c #3F3F40",
"1  c #3F4040",
"2  c #424242",
"3  c #474846",
"4  c #4B4B4B",
"5  c #4F504F",
"6  c #545454",
"7  c #585758",
"8  c #5C5C5C",
"9  c #605E5F",
"0  c #5F605F",
"q  c #605F60",
"w  c #636363",
"e  c #676867",
"r  c #686867",
"t  c #686769",
"y  c #6A6A6A",
"u  c #6F706F",
"i  c #737373",
"p  c #777878",
"a  c #7C7C7C",
"s  c #80807F",
"d  c #7F8080",
"f  c #848484",
"g  c #878788",
"h  c #888789",
"j  c #8C8C8C",
"k  c #8E908F",
"l  c #91908F",
"z  c #908F90",
"x  c #8F9190",
"c  c #949494",
"v  c #979897",
"b  c #989897",
"n  c #979798",
"m  c #989799",
"M  c #9B9A9A",
"N  c #9D9D9E",
"B  c #A09F9F",
"V  c #9FA0A0",
"C  c #A3A3A3",
"Z  c #A7A7A8",
"A  c #ACACAC",
"S  c #AFAFB0",
"D  c #B3B3B3",
"F  c #B7B7B8",
"G  c #B7B8B8",
"H  c #BBBCBB",
"J  c #C0BFBE",
"K  c #BFC0BF",
"L  c #C0BFC0",
"P  c #BFC0C0",
"I  c #C4C4C4",
"U  c #C8C7C7",
"Y  c #C7C8C7",
"T  c #C8C8C7",
"R  c #C8C7C8",
"E  c #C7C8C8",
"W  c #CBCBCB",
"Q  c #CFD0CF",
"!  c #D0D0CF",
"~  c #D3D3D3",
"^  c #D8D7D8",
"/  c #DCDCDC",
"(  c #E0E1DF",
")  c #E0DFE0",
"_  c #E4E3E5",
"`  c #E4E4E4",
"'  c #E5E4E5",
"]  c #E7E7E7",
"[  c #E8E7E6",
"{  c #E8E9E7",
"}  c #E7E6E8",
"|  c #E7E8E8",
" . c #E9E9EA",
".. c #ECEBEB",
"X. c #EDECEB",
"o. c #ECECEC",
"O. c #F0EFEF",
"+. c #EFF0EF",
"@. c #F0F0EF",
"#. c #EFEFF0",
"$. c #F1EFF1",
"%. c #EFF0F0",
"&. c #F2F2F3",
"*. c #F4F4F3",
"=. c #F4F3F4",
"-. c #F5F5F5",
";. c #F7F7F7",
":. c #F8F7F7",
">. c #F7F8F7",
",. c #F8F8F7",
"<. c #F7F7F8",
"1. c #F8F7F9",
"2. c #F7F8F9",
"3. c #FAFAF9",
"4. c #FCFBFB",
"5. c #FBFCFB",
"6. c #FBFAFC",
"7. c gray99",
"8. c #FDFDFD",
"9. c #FDFEFE",
"0. c white",
/* pixels */
"0.0.0.0.0.0.0.0.0.0.0.0.0.0.0.0.0.0.0.0.0.0.0.0.0.0.0.0.0.0.0.0.0.0.0.0.0.0.0.0.0.0.0.0.0.0.3.0.0.0.0.0.0.0.0.0.0.0.0.0.0.0.0.0.",
"0.0.0.0.0.0.0.0.0.0.0.0.0.0.3.0.0.0.0.0.0.0.0.0.0.0.0.0.0.6.0.0.0.0.0.0.0.0.0.0.0.0.0.0.0.0.0.0.0.0.0.0.0.0.0.7.0.0.0.0.0.0.0.7.",
"0.0.0.0.0.0.0.0.0.0.0.0.0.0.0.0.0.0.0.0.0.0.0.0.0.0.0.0.0.0.0.0.0.0.0.0.0.0.0.0.0.0.0.7.0.0.0.0.0.0.0.0.0.0.0.0.0.0.0.0.0.0.0.0.",
"0.0.0.0.0.0.0.0.0.0.0.0.0.0.0.0.0.0.0.0.3.0.0.0.0.0.0.0.0.0.0.0.0.0.0.0.0.0.0.0.0.0.0.0.0.0.0.0.0.0.0.0.0.0.0.0.0.0.0.0.0.0.0.0.",
"0.0.0.0.0.0.0.0.0.0.0.0.0.0.0.0.0.0.0.0.0.0.0.0.0.0.0.0.0.0.0.0.0.0.0.0.5.0.0.0.0.0.0.0.0.0.0.0.0.0.0.0.0.0.0.0.0.0.0.0.0.0.0.0.",
"0.0.0.0.0.0.0.0.0.0.0.0.0.0.0.0.0.0.0.0.0.0.0.0.0.0.0.0.0.0.0.0.0.0.3.0.0.0.0.0.0.0.0.0.0.0.0.0.0.0.0.7.0.0.0.0.0.0.0.0.0.0.0.0.",
"0.0.0.0.0.0.0.7.0.0.0.0.0.0.0.0.0.0.0.0.0.0.0.0.0.0.0.0.0.0.0.0.0.0.0.0.0.0.0.0.0.0.0.0.0.0.0.0.0.0.0.0.0.0.0.0.0.0.5.0.0.0.0.0.",
"0.0.0.0.0.0.0.0.0.0.0.0.0.0.0.0.0.0.0.0.0.0.0.0.0.0.0.0.3.0.0.0.0.0.0.0.0.0.0.0.0.0.0.0.0.0.0.0.0.0.0.0.0.0.0.0.0.0.0.0.0.0.0.0.",
"0.0.0.0.0.0.0.0.0.0.0.0.0.0.0.0.0.0.0.0.0.0.0.0.0.0.0.0.3.0.3.0.-.0.&.0.-.0.3.0.0.0.0.0.0.0.0.0.0.0.0.0.0.0.0.0.0.0.0.0.0.0.0.0.",
"0.0.0.0.0.0.0.5.0.0.0.0.0.0.7.0.0.0.0.0.0.0.3.0.0.0.3.0.0.0.0.3.2.0.=.-.0.0.3.0.0.0.0.0.0.0.0.0.0.0.0.0.0.0.0.0.0.0.0.0.0.0.0.0.",
"0.0.0.0.0.0.0.0.7.0.0.0.0.0.0.0.0.0.0.0.0.0.0.0.3.0.3.0.0.<.0.-.&.0.0.&.0.o.&.0.0.0.0.0.0.3.0.0.0.0.0.0.0.0.0.0.0.0.0.0.0.0.0.0.",
"0.0.0.0.0.0.0.0.0.0.0.0.0.0.0.0.0.0.0.0.0.0.0.0.-.3.6.0.0.&.3.%.0.-.=.,.0.0.0.0.0.0.0.0.0.0.0.0.0.0.0.0.0.0.0.0.0.0.0.0.0.3.0.0.",
"0.0.0.0.0.0.0.0.0.0.0.0.0.0.0.0.0.0.0.0.0.0.0.0.6.0.5.-.-.>.-.0.3.3.3.0. .<.3.>.0.0.0.0.0.0.0.0.0.0.0.0.0.0.0.0.0.0.0.0.0.0.0.0.",
"0.0.0.0.0.0.0.0.0.0.0.0.0.0.0.0.0.0.0.0.0.0.0.0.' 5.' o.0.0. .&.3.0.0.3.0.3.-.0.0.0.0.0.0.0.0.0.0.7.0.0.0.0.0.0.0.0.0.0.0.0.0.0.",
"0.0.0.0.0.0.7.0.0.0.0.0.0.0.0.0.0.0.0.0.0.0.0.0.3.&., X X   + - @     - _ 0.-.&.0.0.0.0.0.0.0.0.0.0.0.0.0.3.0.0.0.0.0.0.0.0.0.0.",
"0.0.0.0.0.0.0.0.0.0.7.0.0.0.0.0.0.0.0.0.0.0.0.0.>.2.    - O - O @ > & . 0.0.%.0.0.0.0.0.0.0.0.0.0.0.0.0.0.0.0.0.0.0.0.0.0.0.0.0.",
"0.0.0.3.0.0.0.0.0.0.0.0.0.0.0.0.3.0.-. .0.3.> 4 @ @ 6 8 j h c j f j 0 r ; : - - ,.0.0.0.3.0.0.0.0.0.0.0.0.0.0.0.0.7.0.0.0.0.0.0.",
"0.0.0.0.0.0.0.0.0.0.0.0.0.0.0.0.0.-.>.0.3.0.3 < > ; 8 w h l c c c j 8 7 - > = - 0.o.0.3.0.0.0.&.0.0.0.0.0.0.0.0.0.0.0.0.0.0.0.0.",
"0.0.0.0.0.0.0.0.0.0.0.0.0.0.0.0.0.0.' *.X & i y f a h g l c l c g c k B h c w w O > 0.0.-.6.=.0.0.0.0.0.0.0.0.0.0.0.0.0.0.0.0.0.",
"0.0.0.0.0.0.0.0.0.0.0.0.0.0.0.0.-.-.0.5.: @ i y c j c l k m l b g j h c h c w w + & 0.3.0.0.3.-.0.0.0.7.0.0.0.0.0.0.0.0.0.0.0.0.",
"0.0.0.0.0.0.0.0.0.0.0.0.0.0.0.0.=.0.    y w k h j g l h j v c N B b c l j N g l w y     0.&.0.<.0.0.0.0.0.0.0.0.0.0.0.0.5.0.0.0.",
"0.0.0.3.0.0.0.0.0.0.0.0.0.0.0.0.0.X.    w i g h h g b k c c c c g f c b l b c c 0 i   . 0.' 0.o.7.0.0.0.0.0.0.7.0.0.0.0.0.0.0.0.",
"0.0.0.0.0.0.0.0.0.0.0.0.0.0.0.7.~ 0.    C j a k y r j f c l c v m k c j y y j h j p     0.-.&. .0.0.0.0.0.0.0.0.0.0.0.0.0.0.0.0.",
"0.0.0.0.0.0.0.0.0.7.0.0.0.0.0.0.=.-.    j m i i w w x f N j c c c j c l w 0 m k z h     3.o.3.@.0.0.0.0.0.0.0.0.0.0.0.0.0.0.0.0.",
"0.0.0.0.0.0.0.5.0.0.0.0.0.0.0.0.    8 w f v w y r w h l g l 8 7 f j s f y 8 y w h j w 6     =.0.0.0.0.0.0.0.0.0.0.0.0.3.0.0.0.0.",
"0.0.0.0.0.0.0.0.0.0.0.0.0.0.0.0.    6 8 c k 7 w 8 8 a c f k u y j j j s w 4 w 8 j g y w     1.&.0.0.0.0.0.0.0.0.0.0.0.0.0.0.0.0.",
"0.0.0.0.0.0.0.0.0.0.0.0.0.0.0.0.    w w 4 8 H F  .~ w 6 g c 8 w g p 5 7 ~ ) H D 6 8 8 e     3.3.0.0.0.0.0.0.0.0.0.0.0.0.0.0.0.0.",
"0.0.0.0.0.0.0.0.0.0.0.0.0.0.0.0.  . w w y 8 I H / / r 6 f g 7 p j f y 0 o.{ D D y 8 8 w   . 0.o.0.0.0.0.0.0.0.0.0.0.0.0.0.0.0.0.",
"0.7.0.0.0.0.0.0.0.0.0.0.3.0.0.0.    8 8 w 8 o. .X.' D S r 0 w 8 e w S A ' ` &.&.w w 8 w     3.-.0.0.0.0.0.0.0.0.0.0.0.0.0.0.0.0.",
"0.0.0.0.0.0.0.0.0.0.0.0.0.0.0.0.    q y y y ,. .' / G G 7 7 y 0 w 8 I I X.O.=.O.w i 6 6     =.0.0.7.0.0.0.0.7.0.0.0.0.0.0.0.0.0.",
"0.0.0.0.0.0.0.0.0.0.0.0.0.0.0.0.@ > w w Y H X. ./ >.' / u 0 8 y w i ` ~ 3.*./ @.I D 8 8 - = 0.&.0.0.0.0.0.0.0.0.0.0.0.0.0.0.0.0.",
"0.0.0.0.0.0.0.0.0.0.0.0.0.0.0.0.@ @ 8 y I I &. . .' ' ' 0 8 w w i y o.o.o.&. ...H H w 6 - & -.0.0.0.0.0.0.0.0.0.0.0.0.0.7.0.0.0.",
"0.0.0.0.0.0.0.0.>.' 3.-.5.0.- - C H X + F J I ) *.` o.` ^ ` y w ) o./ ^ ..o.~ ~ H V O + F H @ + 0.0.0.0.0.0.0.0.0.0.0.0.0.0.0.0.",
"0.0.0.0.0.0.0.0.o.-.' 0.0.0., , H S , + H K H T  .*.X.~ / ~ 6 i  .) o.' ^ +.T I S A = & D H : , 0.0.0.0.0.0.0.0.0.0.0.0.0.3.0.0.",
"0.0.0.0.0.0.0.0.0.&. .#.>.3.    G H @ , y r T H y e 8 y F K -. .D P y 8 y i Z K 7 8 $ + E H     0.0.0.0.0.0.0.0.0.0.0.0.0.0.0.0.",
"0.0.0.0.0.0.0.0.3.| 0.3.0.&.    Y Y . + w y G F w e r 6 G A ' *.T I i w r w Y G 8 8 & - ~ D     0.0.0.0.0.0.0.0.0.0.0.0.0.0.0.0.",
"0.0.0.0.0.0.0.0.3.0.| 3.0.6.2.0.    2 * 6 w A D ~ ^ - , u i ..' 8 w , , ` ` I P i w - >     -.3.0.0.0.0.0.0.0.0.0.0.0.0.0.0.0.0.",
"0.0.3.0.0.0.0.0.0.0.0.0.3.' 0.3.    & @ 6 t A H / ~ 2 > w i ~ / y w > > ^ ~ ~ Y i e @ -     0.2.0.0.0.0.0.0.0.0.0.0.0.0.0.0.0.0.",
"0.0.0.0.0.0.0.0.0.-.6.2.0.0.o.-.0.0.    A H Z I [ -.    3./ 3.~ | `     >.*.( W Q W     0.>. .' 0.0.0.0.0.0.0.0.0.0.3.0.0.0.0.0.",
"0.0.0.0.0.0.0.0.3.0.o.>.3.3.=.3.&.&.    G H G H X.3.    =.+. .' o.`     ( &.H I W W     3.&.o.0.0.0.0.0.0.0.0.0.0.0.0.0.0.0.0.0.",
"0.0.0.0.0.0.0.0.0.3.0.7.0.0.0.0.-.=.2.0.    ~ Y  .o./ &.&.+.3.&.o.o.} o.+.:.W I     -.&.-.-.0.0.0.0.0.0.0.0.0.0.0.0.0.0.0.0.0.0.",
"0.0.0.0.0.0.0.7.3.7.7.0.0.0.0.0.3.3.o.3.    ~ W X.&.} ' -.5./ -.o.&. .5.'  .W J     0.o.3.0.o.0.0.0.0.0.0.0.7.0.0.0.0.0.0.0.0.0.",
"0.0.0.0.0.0.0.0.6.0.0.3.0.0.0.0.o.' 0.0.    i i T I [ &. .-.I I o./ -. .Y ~ y w     &.3.3. .0.-.0.0.0.0.0.0.0.0.0.0.0.0.0.0.0.0.",
"0.0.0.0.0.0.0.0.0.0.3.0.0.0.0.0.0...0.-.    i i U W o. .=.' Y W ` &.o. .W I r i     0.-.3.-.0.0.0.0.0.0.0.0.0.0.0.0.0.0.0.3.0.0.",
"0.0.0.0.0.0.0.0.0.3.0.0.0.0.0.0.&.0.  3 a b H H w w # = K W H W D H @ , y a D D h a , & 3.0.o.0.0.0.0.0.0.0.0.0.0.0.0.0.0.0.0.0.",
"0.0.0.0.0.0.0.0.0.3.3.0.0.0.0.0.0.o.- - g b T D f y ; 2 G I T G H H - , y a H H v j & & -.0.o.4.0.0.0.0.0.0.0.0.0.0.0.0.0.0.0.0.",
"0.0.0.0.0.0.3.0.3.0.4.0.0.0.0.0.    4 q Z F H Y c j A M 2 # * @ X , n Z M C D H C n y p     0.-.0.0.0.0.0.0.0.0.0.0.0.0.0.0.0.0.",
"0.0.0.0.0.0.0.0.0.0.0.0.0.0.0.0.    4 4 c C H A C c D A 3 1 @ # 2 , A H x c D N M C 6 i     0.@.0.0.0.0.0.0.0.0.7.0.0.0.0.0.0.0.",
"0.0.0.0.0.0.0.0.-.o.-.3.-.0.    ~ ' 6 7 6 5 1 4 n c W Y S Z e 0 c C G H C j 2 - - 1 4 8  ./     0.0.0.0.0.0.0.0.0.0.0.0.0.0.0.0.",
"0.0.0.0.0.0.0.0.3.3...*.-.0.    ' ~ 0 4 6 7 3 2 C N T I I A y 8 C D D I B c , = 6 2 8 8 ' o.    0.0.0.0.0.0.0.0.0.0.0.0.0.0.0.0.",
"0.0.0.0.0.0.0.0.+.0.-.0.&.0.     .3. .o.- > , 4 c c n C S S a i Z D N D c j , = + @  .&.&.3.    0.0.0.0.0.5.0.0.0.0.0.0.0.0.3.0.",
"0.0.0.0.0.0.0.0.0.-.&.-.3.o.    5...o.#.> , 1 , c N h c A V i y Z A l c j f 3 , & & ..o.3.&.    0.0.0.7.0.0.0.0.0.0.0.0.0.0.0.0.",
"0.0.0.0.0.0.0.0.&.2.0.0.2.0. .0.        O , j n 7 8 = * > , % = ; > , , y i a a > =       . 0.0.0.0.0.0.0.0.0.0.0.0.0.0.0.0.0.0.",
"0.0.0.0.0.0.0.0.0.>.-.0.0.&.&.'         - - N f 7 8 @ @   @ o - - * , > w 8 h h * 4         5.3.7.0.0.0.0.0.0.0.0.0.0.0.0.0.0.0.",
"0.0.0.0.0.0.0.0.0.0.5.0.0.,.0.$.0.3.I H     W ~ d g a g w 7 @ . w w g f k h Y Y     ( ^ 0.0.0.3.0.0.0.0.0.0.0.0.0.0.0.0.0.0.0.0.",
"0.0.5.0.0.0.0.0.3.0.0.0.0.,.o.,.0.0.L W     W W f f f h 6 7 @ o 8 y l m j h T Q     ^ W 7.0.6.0.0.0.0.0.0.0.0.0.0.0.0.0.0.0.0.0.",
"0.0.0.3.0.0.0.0.0.0.0.0.0.0.0.0.' &.H T     - =   @                     > & O =     I H 3.3.-.3.0.0.0.0.0.0.0.0.0.0.0.0.0.0.0.0.",
"0.0.0.0.0.0.0.0.0.0.0.0.0.0.0.0.-.' E Q     > & = =             .       - - # X   . F Y 6.0.0.3.0.0.0.0.0.0.0.0.0.0.0.0.0.0.0.0.",
"0.0.0.0.0.0.0.0.0.0.0.0.0.0.0.0. .3.3.0.~ ~         Y Y Y H Y ~ I ! ! Y         Y S 0. .o.o.0.3.0.0.0.0.0.0.0.0.0.0.0.0.0.0.7.0.",
"0.0.0.0.0.0.0.0.0.0.0.0.0.0.0.0.0.o.6.o.^ /         I H H L H P K K I Y         Y Y 3.0.0.<.3.o.0.0.0.0.0.0.0.0.0.0.3.0.0.0.0.0.",
"0.0.0.0.0.0.0.0.0.0.0.0.0.0.0.0.2.&.&.0. .3.0.0.0.0.I ~ W ^ W E W Y I W >.0.0.2.0.3.3.2.#.&.0.0.0.0.0.0.0.0.0.0.0.0.0.0.0.0.0.0.",
"0.0.0.0.0.0.0.0.0.0.3.0.0.0.0.0.&.0.o.#.0.&.3.X.3.0.H ~ E W W T Y W T I 0.0.0.0.0.0.0.0.0.3.0.3.0.0.0.0.0.0.3.0.0.0.0.0.0.0.0.0.",
"0.6.0.0.0.0.0.0.0.0.0.0.0.0.0.0.0. .6.0.-.0.3.0.7.` 0.0.3.0.7.-.0.3.0.0.-.3.0.0.3.3.7.0.0.0.0.0.0.0.0.0.0.0.0.0.0.0.0.0.0.0.0.0.",
"0.0.0.0.0.0.0.0.0.0.0.0.0.0.0.0.0.0.0.0.0.3.0.&.0.0.0.0.0.0.0.0.0.0.0.0.0.0.0.0.0.-.0.<.0.0.7.0.0.0.0.0.0.0.0.0.0.0.0.0.0.0.0.0."
};
