/* XPM */
static char *xpm_[] = {
/* columns rows colors chars-per-pixel */
"64 64 119 2 ",
"   c #010101",
".  c #070708",
"X  c #0B0B0A",
"o  c #100F0F",
"O  c #131314",
"+  c #171718",
"@  c #1B1B1B",
"#  c #20201E",
"$  c #222222",
"%  c #282827",
"&  c #2B2B2B",
"*  c #302F2F",
"=  c #343434",
"-  c #383837",
";  c #383738",
":  c #3C3C3C",
">  c #3F403F",
",  c #41413F",
"<  c #434343",
"1  c #464748",
"2  c #4A4A4B",
"3  c #535353",
"4  c #585957",
"5  c #575658",
"6  c #575858",
"7  c #5C5C5C",
"8  c #605F5F",
"9  c #5F605E",
"0  c #60615F",
"q  c #5F5F60",
"w  c #5F6060",
"e  c #646464",
"r  c #686767",
"t  c #686967",
"y  c #676768",
"u  c #676868",
"i  c #6B6B6B",
"p  c #706F6F",
"a  c #70706F",
"s  c #6F6F70",
"d  c #706F70",
"f  c #6F7070",
"g  c #737373",
"h  c #787776",
"j  c #787977",
"k  c #7B7B7B",
"l  c #7F7F80",
"z  c #848484",
"x  c #898887",
"c  c #888788",
"v  c #878888",
"b  c #8C8C8C",
"n  c #91908F",
"m  c #8F8F90",
"M  c #908F90",
"N  c #8F9090",
"B  c #929292",
"V  c #949494",
"C  c #959596",
"Z  c #979797",
"A  c #979897",
"S  c #989897",
"D  c #999897",
"F  c #979899",
"G  c gray60",
"H  c #999A9A",
"J  c #9A9A9A",
"K  c #9D9D9D",
"L  c #A5A4A5",
"P  c #A7A8A7",
"I  c #ABABAB",
"U  c #B0AFAF",
"Y  c #AFB0AE",
"T  c #AFB1B0",
"R  c #B3B3B3",
"E  c #B7B8B8",
"W  c #BBBBBB",
"Q  c #C0C0BF",
"!  c #C1BFC0",
"~  c #C4C4C4",
"^  c #C7C8C7",
"/  c #C8C7C8",
"(  c #C7C8C8",
")  c #CBCBCB",
"_  c #CFCFD0",
"`  c #D3D3D3",
"'  c #D9D9DA",
"]  c gainsboro",
"[  c #E0DFDE",
"{  c #DFE0DF",
"}  c #DFDFE0",
"|  c #E3E3E3",
" . c #E8E8E7",
".. c #ECEBEB",
"X. c #EDEDEC",
"o. c #EEEDEC",
"O. c #EFEFEE",
"+. c #EFEFF0",
"@. c #F0EFF0",
"#. c #F0F1F1",
"$. c #F2F2F2",
"%. c #F4F4F3",
"&. c #F3F3F4",
"*. c #F3F5F4",
"=. c #F4F4F4",
"-. c gray97",
";. c #F8F7F7",
":. c #F7F8F7",
">. c #F8F8F7",
",. c #F7F7F8",
"<. c #F7F8F8",
"1. c #F9F9F9",
"2. c #FBFBFB",
"3. c #FBFCFB",
"4. c #FBFAFC",
"5. c #FBFDFD",
"6. c gray99",
"7. c #FDFDFC",
"8. c white",
/* pixels */
"8.8.8.8.8.8.8.8.8.8.8.8.8.8.8.8.8.8.8.8.8.8.8.8.8.8.8.8.8.8.8.8.8.8.8.8.8.8.8.8.8.8.8.8.8.8.8.8.8.5.8.8.8.8.8.8.8.8.8.8.8.8.8.8.",
"8.8.8.8.8.8.8.8.8.8.8.8.8.8.5.8.8.8.8.8.8.8.8.8.8.8.8.8.8.8.8.8.8.8.8.8.8.8.8.8.8.8.8.8.8.8.8.8.8.8.8.8.8.8.8.8.8.8.8.2.8.8.8.8.",
"8.8.8.8.8.8.8.8.3.8.8.8.8.8.8.8.8.8.8.8.8.8.8.8.8.8.8.8.8.8.8.8.8.8.8.8.8.8.8.8.5.8.8.8.8.8.8.8.8.8.8.8.8.8.8.8.8.8.8.8.8.8.8.8.",
"8.8.8.8.8.8.8.8.8.8.8.8.8.8.8.8.8.8.8.8.3.8.8.8.8.8.8.8.8.8.8.8.8.8.8.8.8.8.8.8.8.8.8.8.8.8.8.8.8.8.8.8.8.8.8.8.8.8.8.8.8.8.8.8.",
"8.8.8.8.8.8.8.8.8.8.8.5.8.8.8.8.8.8.8.8.8.8.8.8.8.8.8.8.8.8.8.8.8.8.8.8.2.8.8.8.8.8.8.8.8.8.8.8.8.8.8.8.8.8.8.8.8.8.8.8.8.8.8.8.",
"8.8.8.8.8.8.8.8.8.8.8.8.8.8.8.8.8.8.8.8.8.8.8.8.8.8.8.8.8.8.8.8.8.8.8.8.8.8.8.8.8.8.8.8.8.8.8.8.8.8.5.8.8.8.8.8.8.8.8.8.8.8.8.8.",
"8.8.8.8.8.8.8.3.8.8.8.8.8.8.8.8.8.8.8.8.8.8.8.8.8.2.8.8.8.8.8.8.8.8.8.8.3.8.8.8.8.8.8.8.4.8.8.8.8.8.8.8.8.8.8.8.8.8.8.8.8.8.8.8.",
"8.8.8.8.8.8.8.8.8.8.8.8.8.8.8.8.8.8.8.8.8.8.8.8.8.8.8.8.8.2.8.8.3.8.8.8.8.8.8.8.8.8.8.8.8.8.8.8.8.8.8.8.8.8.8.8.8.8.8.8.8.3.8.8.",
"8.8.8.8.8.8.8.8.8.8.8.8.8.8.8.8.$.8.$.8.-.8.8.2.2.8.3.&.8.2.8.8.2.8.8.2.2.8.8.-.8.8.8.8.8.8.8.8.8.8.8.8.8.8.8.8.8.8.8.8.8.8.8.8.",
"8.8.8.8.8.8.8.3.8.8.8.8.8.8.5.8.8.5.-.8.2.8.8.8.8.8.o.8.-.8.8.2.8.8.8.+.8.8.8.8.8.8.8.8.8.8.8.8.8.8.8.8.8.8.6.8.8.8.8.8.8.8.8.8.",
"8.8.8.8.8.8.8.8.8.8.8.8.8.8.8.8.8.#.8.8.8.8.-.-.2.-.3.8.#.2.2.8.8.8.8.8.O.8.8.2.8.8.8.8.8.8.8.3.8.8.8.8.8.8.8.8.8.8.8.8.8.8.8.8.",
"8.8.8.8.8.8.8.8.8.8.8.8.8.8.8.8.8.-.8.$.-.2.8.8.8.8.-.+.8.8.3.8.2.3.8.8.8.8.8.8.8.8.8.8.8.8.8.8.8.8.8.8.8.8.8.8.8.8.8.8.8.2.8.8.",
"8.8.8.8.8.8.8.8.8.8.3.8.8.8.8.8.o.5.8.8.8.$.#.-.:.-.  =   &     O @ #   8.-.-.-.8.8.8.8.8.8.8.8.8.8.8.8.8.8.8.8.8.8.8.8.8.8.3.8.",
"3.8.8.8.8.8.8.8.8.8.8.8.8.8.8.8.&.8.o.O.2.8...8.8.o.: $ @ &   @ = @ O $ -.8.8.2.8.8.8.8.8.8.8.8.8.8.8.8.8.8.8.8.8.8.8.8.8.8.8.8.",
"8.8.8.8.8.8.8.8.8.8.8.8.8.8.8.8.$.8.8.2.-.] & O   O 2 < b n k x k g e 6 X     @ 8.8.8.8.8.8.8.8.8.8.8.8.8.3.8.8.8.8.8.8.8.8.8.8.",
"8.8.8.8.8.8.8.8.8.8.8.8.8.8.8.8.8.+.8...8.2.X %   O 3 e k v x x V x 7 7 O &   & 8.8.3.8.8.8.8.8.8.8.8.8.8.8.8.8.8.8.8.8.8.8.8.8.",
"8.8.8.8.8.8.8.8.8.8.8.8.8.8.8.8.-.>.-.8.# > i s b x b b B C A D B b n n C b i e = = -.&.2.2.3.8.8.5.8.8.8.8.8.8.8.8.8.8.8.8.8.8.",
"8.8.8.8.8.8.8.8.8.8.8.8.8.8.8.8.8.-.2.o.; > e i b b x b B C C D C B V b B x i e <   8.2.-.8.8.8.8.8.8.8.8.8.8.8.8.8.8.8.8.8.8.8.",
"8.8.8.8.8.8.8.8.8.8.3.8.8.8.8.8.o.#.    e y P B b b b b n C C C n b V B H D b b j e     -.8.8.8.8.8.8.8.8.8.8.8.8.8.8.8.8.8.3.8.",
"8.8.8.8.8.8.3.8.8.8.8.8.8.8.8.8.-.8.    s i c b N b b N B B V C V C C b B C x B 3 4     8.8.2.8.8.8.8.8.8.8.8.8.8.8.8.8.8.8.8.8.",
"8.8.8.8.8.8.8.8.8.8.8.8.8.8.8.8...-.    K C B H n b b b n B V V C C D n B C x B H C     8.8.8.8.8.8.8.8.8.8.8.8.8.5.8.8.8.8.8.8.",
"8.8.8.3.8.8.8.8.8.8.8.8.8.3.8.8.8.8.    C C v x B n N N B V V V n b C n H K b B z z     8.8.| 8.8.8.8.6.8.8.8.8.8.8.8.8.8.8.8.8.",
"8.8.8.8.8.8.8.8.8.8.8.8.8.8.8.8.    t j D B e 8 B n B b B B C C A B B b B b i i k C 0 e     8.;.8.8.8.8.8.8.8.8.8.8.8.8.8.3.8.8.",
"8.8.8.8.8.8.8.8.8.8.8.8.8.8.8.8.    7 3 C n u 4 B n N n n B C C B b n B H C i e b k e e     *.$.8.8.8.8.8.8.8.8.8.8.8.8.8.8.8.8.",
"8.8.8.8.8.8.8.2.;.8.&.8.8.2.8.8.    e e e y e 7 B b H x V n e i B b A b D C u i e u 7 u     8.#.8.8.2.8.8.8.8.8.8.8.8.8.8.3.8.8.",
"8.8.8.8.8.8.8.8.8.2.-.8.8.8.8.8.    y 7 7 e i y B x H B C C i i B x C B H K g i 3 e i i     O.O.8.8.8.8.8.8.8.8.8.8.8.8.8.8.8.8.",
"8.8.8.8.8.8.8.8.8.+.8.8.2.8.2.-.    r 7 e e i y e i b z i y 6 y e i b z g i 7 u i 3 i e     8.$.8.8.8.8.8.8.8.8.8.8.8.8.8.8.8.8.",
"8.8.8.8.8.8.8.8.8.2.8.#.-.:.8.8.    y 7 i t i y e i V b i r i k e i B N i i a k g 3 i y     8...8.8.8.8.8.8.8.8.8.8.8.8.8.8.8.8.",
"8.8.8.8.8.8.8.8.#.2.8.8.8.#.+.-.; $ i 7 7 i p i e 4 y i 7 y e 7 e 6 i i e i i 7 6 g 3 6 & . 2.8.8.8.8.8.8.8.8.8.8.8.8.8.8.8.8.8.",
"8.8.8.8.8.8.8.8.-.8.o.+.2.8...8.& = 3 y i k i e i e e y y i i i y e e i i g p i h e 7 q   & 2.-.8.8.8.8.8.8.8.8.8.2.8.8.8.8.8.8.",
"8.8.8.8.8.8.8.8.$.8.8.2.:.] % O R R y e e i g k 7 i t y e e e i 7 i i u i e t p e g 2 3 E I : ; 8.8.8.8.8.8.8.8.8.8.8.8.8.8.8.8.",
"8.8.8.8.2.8.8.8.2.#.:.o.2.8.X $ E ~ 7 y y g i g i i 4 e i i e e e i 7 9 h i i e h e e 3 I W % = 8.8.8.8.8.8.8.8.8.8.8.8.8.8.8.8.",
"8.8.8.8.8.8.8.8.2...8.:...8.    W E @ @ 3 3 y 3 i r e e 0 e 8 e 8 y 7 i i k u i 3 4     T W     8.8.8.8.8.8.8.8.8.8.8.8.8.8.8.8.",
"8.8.8.8.8.8.8.8.8...-.#.8.$.    E R &   y 2 y e i e e 8 e e y e 4 e 7 i i k i h 8 7     W R     8.8.8.8.8.8.8.8.8.8.8.8.8.8.8.8.",
"8.8.8.8.8.8.8.8.#.8.-...8.8...3.    O X 3 4 7 e y y e e y t i i e y 7 t e y y y 2 3   +     8.8.8.8.8.8.8.8.8.8.8.8.8.8.8.8.8.8.",
"8.8.8.3.8.8.8.8.#.8.-.2.8.#.8.8.    @ & i g 8 g e e e e y i i i e e e p i g g i e 7 1 =     8.8.8.8.8.8.8.8.5.8.8.8.8.8.8.3.8.8.",
"8.8.8.8.8.2.8.8.-.2...-.8.4.8.&.-.:.    e 8 i y e 8 7 e e i i i t r y i t e i 4 4 g     8.8.<.-.8.8.8.8.8.8.8.8.8.8.8.8.8.8.8.8.",
"8.8.8.8.8.8.8.8.O.-.8.8.#.-.-.#.$.8.    h i y 4 7 7 7 7 e i d g i y 7 e 9 3 g q g i     o.-.<.8.8.8.8.8.8.8.8.8.8.8.8.8.8.8.8.8.",
"8.8.8.8.8.8.8.8.8.8.-.-.,.2.8.8.8...8.3.    _ ) e 7 4 7 8 e i i e 7 7 y i i U I     8.8.8.8.-.O.8.8.8.8.8.8.8.8.8.3.3.8.8.8.8.8.",
"8.8.8.8.8.8.8.8.8.2.8.-.8...8.$.-.;.-.8.    ` ~ y e 7 4 7 8 e e y e 7 7 4 e E ~     2.:.8.8.8.-.8.8.8.8.8.8.8.8.8.8.8.8.8.8.8.8.",
"8.8.8.8.8.8.8.8.2.8.2.8.8.-.o.8.2.8.        e i ~ W W I 4 7 e 7 7 7 E E / W e 7     8.$.8.&.8.8.8.8.8.8.8.8.8.8.8.8.8.8.8.8.8.8.",
"8.8.8.8.8.8.8.8.8.8.8.8.8.-.8.$.2.8.        i k ] ` ` E i 4 8 7 7 7 E ^ / ) k h     2.$.8.8.#.8.8.8.8.8.8.8.8.2.8.8.8.8.8.8.8.8.",
"8.8.8.8.8.8.8.8.8.8.-.8.8.$.-.}     e 3 k v W ~ K b 3 < ~ W ~ E I R ; 1 z B b b i 3 8.2.-.O.8.8.8.8.8.8.8.8.8.8.8.8.8.8.8.8.8.8.",
"2.8.8.8.8.8.8.8.$.$.8.8.2.8. .8.    4 2 k z R ~ H D 4 1 ~ U E E I W = < H H P L k e -.-.:.8.8.-.8.8.8.8.8.8.8.8.8.8.8.8.8.8.8.8.",
"8.8.8.8.3.8.8.8.8.2.#.-.2.o.    ' $.3 4 7 3 < 3 ~ ~ L I ; = & @ * ; K R W ) W ~ z H     8.2.o.2.8.8.8.8.8.8.8.8.8.8.8.8.8.8.8.8.",
"8.8.8.8.8.8.8.8.#.<.8.2.-.8.    &.] < e : h > - U I R E 2 2 : & : , U E E / W ^ z z     -.8.&.8.8.8.8.8.8.8.8.8.8.8.8.8.8.8.8.8.",
"8.8.8.8.8.8.8.8.#.2.O.2.$.8.    ] X.| `     ; < H L ~ R W E I / U W P E ) W W P 3 y     8.%.2.o.8.8.8.8.8.8.8.8.8.2.8.8.8.8.8.8.",
"8.8.8.8.8.8.8.8.2.#.-.2.<.4.    o.] { |     : ; x C ) E _ ) W ~ ^ Q W ^ P P P H 7 1     ;.8.8.$.8.8.8.8.8.8.8.8.8.8.8.8.8.8.8.8.",
"8.8.8.3.8.8.8.8.8.8.8.8.8.8.8.8.        8.8.    m P / ^ ) W / / W R L R = 2 e e < 1 ` |     2.$.8.8.8.8.8.8.8.8.8.8.8.8.8.8.8.8.",
"8.8.8.8.8.8.8.8.8.8.8.8.8.8.8.8.  .     o.2.    v L E / ) ~ ~ ~ R R E H 1 ; 5 i 2 = | ]   . -.-.8.8.8.8.8.8.8.8.8.8.8.8.8.8.8.8.",
"8.8.8.8.8.8.8.8.8.8.8.8.8.8.8.8.8.8.E ~     i 3 #.$.^ E H C F F R I { ..2 e     ......|     -.-.8.8.8.8.8.8.8.8.8.8.8.8.8.8.8.8.",
"8.8.8.8.8.8.3.8.8.8.8.8.8.8.8.2.8.2.] `     4 i ] ] R R B B C m L L ] ] k 9     ] ` | ..    8.8.8.8.8.8.8.8.8.8.8.3.8.8.8.8.8.8.",
"8.8.8.8.8.8.8.8.8.8.8.8.8.8.8.8.| -.E `     C v x B b F C C H B B C B x     ~ _         8.8.-.&.8.8.8.8.8.8.8.8.8.2.8.8.8.8.8.8.",
"8.8.8.3.8.8.8.8.8.8.3.8.8.8.8.8.-.8./ ~     b C k z x x x b x b b x l v     / W         -.-.#.8.8.8.8.8.8.8.8.8.8.8.8.8.8.8.8.8.",
"8.8.8.8.8.8.8.8.8.8.8.8.8.8.8.8...| ` )     i i x x x k 2 :           . ` / -.-.8.-.-.8.2...8.] 8.8.8.8.8.5.8.8.8.8.8.8.8.8.8.8.",
"8.8.8.8.8.8.8.8.8.8.8.8.8.8.8.8.2.-.) ^ .   h j b x v z < 2             ~ / 2.+.8.-.8.$.8.8.-.2.2.8.8.8.8.8.8.8.8.8.8.8.8.8.8.8.",
"8.8.8.8.8.8.8.8.8.8.8.8.8.8.8.8.-.o.#.O.W )         O @ : : W E / ^ ~ ~ 2.8.8.>.8.8.8.8.8.8.8.8.8.8.8.8.8.8.3.8.8.8.8.3.8.8.8.8.",
"8.8.8.8.8.8.8.8.8.8.5.8.8.8.8.8.$.+.#.2.~ _     @ @ +   2 $ ` ~ ~ ) ) ~ ;.3.2.8.8.8.8.8.8.8.8.8.8.8.8.8.8.8.8.8.8.8.8.8.8.8.8.8.",
"8.8.8.8.8.8.8.8.8.8.8.8.8.8.8.8.-.-.+.-.W ~     $ $ X $     ) E *.2.-.O.8.2.-.8.8.8.8.8.8.8.8.8.8.8.8.8.8.8.8.8.8.8.8.8.8.8.8.8.",
"8.8.8.3.8.8.8.2.8.8.8.8.8.8.8.8.$.4.8.8.~ L     & - : &     ~ ` 2.8.8.>.8.2.,.8.8.8.8.8.8.8.8.8.8.8.8.8.8.8.8.8.8.8.8.8.8.8.8.8.",
"8.3.8.8.8.8.8.8.8.8.8.8.8.8.8.8.2.2.8.2.3.8.~ ]         ) ~ 8. .O.-.+.-.-.2.-.8.8.8.8.8.8.8.8.8.8.8.8.8.8.8.8.8.8.8.8.8.8.8.8.8.",
"8.8.8.8.8.8.8.8.8.8.8.8.8.8.8.8.8.8.8.-.8...) ^         ^ ) 2.8.8.8.2.8.2.8.2.2.8.8.3.8.8.8.8.8.8.8.8.8.8.8.8.8.8.8.8.8.8.8.8.8.",
"8.8.8.8.8.8.8.8.8.8.8.8.8.8.8.8.8.8.8.2.8.8.8.8./ ^ / ` 8.2.8.+.2.-.-.8.&.8.8.8.8.8.8.8.8.8.5.8.8.8.8.8.8.8.8.8.8.8.8.8.8.8.8.8.",
"8.8.8.8.8.8.8.8.8.8.8.8.8.8.8.8.5.8.-.8.2.-.:.:.` / ) W 8.+.8.2.8.2.2.8.#.3.2.8.8.8.8.8.8.8.8.8.8.8.8.8.8.8.8.8.8.8.8.8.8.8.2.8."
};
