/* XPM */
static char *out[] = {
/* columns rows colors chars-per-pixel */
"23 32 196 2 ",
"   c #0D0500",
".  c #0D0C06",
"X  c #0D0D0D",
"o  c #120500",
"O  c #1C0500",
"+  c #140C02",
"@  c #1B0C01",
"#  c #120D0B",
"$  c #180E08",
"%  c #0C110E",
"&  c #121006",
"*  c #1D1101",
"=  c #13110C",
"-  c #1A130B",
";  c #0E0D12",
":  c #110D11",
">  c #0E1112",
",  c #141213",
"<  c #141617",
"1  c #1B1614",
"2  c #1B1719",
"3  c #161A1A",
"4  c #1B1D1C",
"5  c #210500",
"6  c #220D00",
"7  c #2C0C00",
"8  c #330E00",
"9  c #231301",
"0  c #2B1600",
"q  c #251901",
"w  c #2C1A01",
"e  c #251B0A",
"r  c #261B0B",
"t  c #331400",
"y  c #3B1700",
"u  c #341D00",
"i  c #3D1C00",
"p  c #221A14",
"a  c #211D1B",
"s  c #291D19",
"d  c #27230D",
"f  c #322301",
"g  c #3A2400",
"h  c #3D2904",
"j  c #3B2A09",
"k  c #242314",
"l  c #2E2515",
"z  c #2C251E",
"x  c #322616",
"c  c #332815",
"v  c #322C1E",
"b  c #3A321E",
"n  c #1D1E22",
"m  c #241D23",
"M  c #1F2426",
"N  c #232423",
"B  c #282823",
"V  c #2E2B2C",
"C  c #322B23",
"Z  c #2B302C",
"A  c #353125",
"S  c #33322C",
"D  c #3B332E",
"F  c #332E31",
"G  c #353434",
"H  c #373B37",
"J  c #3C3B34",
"K  c #36353B",
"L  c #3B363B",
"P  c #3D3B3C",
"I  c #411D00",
"U  c #432602",
"Y  c #4B2700",
"T  c #462D02",
"R  c #4C2A00",
"E  c #432B0C",
"W  c #552D00",
"Q  c #4B3305",
"!  c #4B3507",
"~  c #4B390C",
"^  c #553402",
"/  c #5A3600",
"(  c #56390A",
")  c #553E0B",
"_  c #4A3413",
"`  c #4F3E19",
"'  c #573F1A",
"]  c #633D00",
"[  c #41372D",
"{  c #453C34",
"}  c #493F36",
"|  c #423D3C",
" . c #3D403B",
".. c #59400D",
"X. c #544216",
"o. c #5B4515",
"O. c #664101",
"+. c #68440B",
"@. c #6D4D0C",
"#. c #714500",
"$. c #734A01",
"%. c #734C0B",
"&. c #784E0E",
"*. c #7C550A",
"=. c #634313",
"-. c #644A1B",
";. c #684D1D",
":. c #6C521E",
">. c #7A5712",
",. c #7E5A12",
"<. c #795819",
"1. c #44413C",
"2. c #6D582C",
"3. c #725625",
"4. c #7A5C25",
"5. c #72552B",
"6. c #755A2B",
"7. c #776029",
"8. c #3D3F41",
"9. c #433E41",
"0. c #835907",
"q. c #845B0B",
"w. c #835F19",
"e. c #8E6009",
"r. c #8B6A1C",
"t. c #926A1D",
"y. c #856526",
"u. c #8C6828",
"i. c #916621",
"p. c #916A22",
"a. c #99722B",
"s. c #866A38",
"d. c #8C733C",
"f. c #997737",
"g. c #967933",
"h. c #A87C26",
"j. c #A67D35",
"k. c #957647",
"l. c #A17E4C",
"z. c #AE852A",
"x. c #B4882F",
"c. c #A8833C",
"v. c #B08B3A",
"b. c #AC8543",
"n. c #A0864F",
"m. c #AB874B",
"M. c #B38D47",
"N. c #BB9543",
"B. c #B4924C",
"V. c #BA944A",
"C. c #A98A52",
"Z. c #B59352",
"A. c #BD9858",
"S. c #BFA05A",
"D. c #C89B42",
"F. c #C49E5B",
"G. c #C8A14A",
"H. c #CAA454",
"J. c #CAA65B",
"K. c #D4AC5C",
"L. c #DCB253",
"P. c #DDB85A",
"I. c #E2B24E",
"U. c #EDBC57",
"Y. c #F0BF59",
"T. c #CBA662",
"R. c #CEAE6B",
"E. c #D4AB60",
"W. c #D5B364",
"Q. c #DFB966",
"!. c #D9B168",
"~. c #DCB56B",
"^. c #DDBA6E",
"/. c #E3BE64",
"(. c #EABE64",
"). c #E1B669",
"_. c #E3BC6A",
"`. c #E2BB74",
"'. c #EABE72",
"]. c #ECC357",
"[. c #ECC25D",
"{. c #F1C455",
"}. c #F3C25A",
"|. c #F6C85B",
" X c #EDC365",
".X c #EEC76B",
"XX c #F2C564",
"oX c #F6CA63",
"OX c #F9CB64",
"+X c #F3C46A",
"@X c #F6C768",
"#X c #E4C174",
"$X c #E8C276",
"%X c #ECC579",
"&X c #F1C575",
"*X c #F5CD76",
/* pixels */
"# . . + @ 9 g 0 @ O I y O @ u i 9 + & % . % X ",
"X N Z - q d.R.c.i ;.T.F.( T B.T.3.@ k Z N X X ",
"4 H 8.C ! ^.[.[.&.V.oX@Xa.r.{.{.T.g A  .G , # ",
"< S 1.r i S..XL.] j.(.+X>.@.[.XXm.w b H V , # ",
"$ @ * * @ E 6.( 6 u 5.;.0 6 -.6.u 9 * 9 o @ # ",
"i 7.n.X.@ * w 9 @ + 9 9 + + 6 e @ @ :.C.5.6 - ",
"0.(.oXG.f C } D = N  .J p 1 | } l ~ P.[.~.! + ",
"e.(.|.H.f C J G < N H L a 2 D { l ~ P.|._.^ o ",
"I u.l.+.@ 1 z 2 X ; M 4 X . e e @ 6 >.M.4.6 + ",
"7 / &.I + # = X ; ; > < + * X.-.f 7 Y $.Y 6 $ ",
"#.I.OXv.w C { F : m L F 9 ;.P.oXj.W D.OXH.U @ ",
"t.+XY.K.h C | L : V P } w s.[.{.G.&.U.}._...o ",
"R Z.!.y.9 a G M # 1 Z C @ _ S.W.6.i j.~.l.u + ",
"7 U ] t @ + ; . + * f f @ * u g * @ I #.y 5 & ",
"^ N.L.p.9 s F s 6 3.W.H...@ c b q u z.I.c.i + ",
"t..XY.K.E [ | [ u A.[.oXd.q 1.[ x X./.Y.'...  ",
"+.!.&Xb.t C | C 6 k.%X`.2.@ D | p h J.&XT.h   ",
"8 / $.I 5 5 9 @ 6 w =.' 9 @ : # $ @ W $.R @ + ",
"y p.x.#.8 <.B.y.9 9 q 9 + # m m - 6 0.x.,.w + ",
"w.%X+XG.#.K.@X_.o.d } 8.m 2 8.1.z _ ).+X^.Q + ",
">.$X&XD.] K.+X~.X.k  . .3 < H | s _ ~..X~.Q + ",
"y q.h.] 7 @.c.<.* % k 3 % % 4 4 $ 7 $.h.%.0 + ",
"8 ] q.R 6 O 9 @ # : > < > % % < + @ ^ e./ 6 @ ",
"&.`.&XB.w C | F : m 8.K 4 3 G  .z j J.*XR.T + ",
"i.'.+XE.g S P P : V 9.9.n n 8.1.z ` /.[.#X) + ",
"Y Z.K.<.9 q c p + * x x + # l l q q g.W.f.w + ",
"O 9 f @ * w Q u @ 9 Y U @ 6 g R 9 @ 6 w * + . ",
", B S e w n.#XV.R 7.Q.!.' / J.$Xs.9 l G N > % ",
"a L P v ! ^.U.[.*.N.|.}.a.p.OX].J.g A 1.H < . ",
"= Z K a w B.@XD.^ p. X(.@.O.P..Xg.9 l J B > < ",
"% , < X + u o.E @ q ` _ 6 6 T X.q + & < X X , ",
", X ; ; = o o O # +     * @ o   . > > ; ; ; X "
};
