/* XPM */
static char *out[] = {
/* columns rows colors chars-per-pixel */
"23 32 165 2 ",
"   c #0A0B05",
".  c #0C0D0C",
"X  c #160400",
"o  c #1D0600",
"O  c #150C03",
"+  c #1B0B01",
"@  c #110D0B",
"#  c #0E1004",
"$  c #0E110D",
"%  c #161103",
"&  c #1C1306",
"*  c #11110D",
"=  c #1B130A",
"-  c #181808",
";  c #0D0D11",
":  c #110E12",
">  c #0F1113",
",  c #131313",
"<  c #1C1412",
"1  c #171B16",
"2  c #1B1916",
"3  c #141519",
"4  c #191619",
"5  c #17191C",
"6  c #1B1C1B",
"7  c #220D00",
"8  c #241300",
"9  c #2B1400",
"0  c #261B05",
"q  c #2C1A00",
"w  c #21160A",
"e  c #241A0B",
"r  c #321600",
"t  c #331D00",
"y  c #391C00",
"u  c #231C12",
"i  c #281915",
"p  c #2B1F14",
"a  c #211E1E",
"s  c #1E201C",
"d  c #2B2000",
"f  c #27210B",
"g  c #342203",
"h  c #3C2401",
"j  c #392805",
"k  c #3C2908",
"l  c #3F3001",
"z  c #2B2416",
"x  c #22211E",
"c  c #2B251B",
"v  c #312616",
"b  c #32271A",
"n  c #342B1C",
"m  c #1B1B20",
"M  c #211E25",
"N  c #1F2120",
"B  c #232324",
"V  c #292426",
"C  c #2E2B25",
"Z  c #262729",
"A  c #29262D",
"S  c #262A29",
"D  c #2B2B2B",
"F  c #332C2D",
"G  c #2E302C",
"H  c #33332E",
"J  c #3A342C",
"K  c #2C2E32",
"L  c #342E34",
"P  c #2F3233",
"I  c #333333",
"U  c #393634",
"Y  c #3A3A35",
"T  c #36353C",
"R  c #39373A",
"E  c #37393C",
"W  c #3B3B3B",
"Q  c #471C00",
"!  c #432500",
"~  c #4C2400",
"^  c #452A00",
"/  c #4D2C00",
"(  c #412C08",
")  c #542D00",
"_  c #473205",
"`  c #4A3203",
"'  c #503305",
"]  c #5C3600",
"[  c #5B3800",
"{  c #503A0F",
"}  c #4B3812",
"|  c #6C3F00",
" . c #443529",
".. c #40382B",
"X. c #423D37",
"o. c #403738",
"O. c #423B3C",
"+. c #3F413E",
"@. c #5D441B",
"#. c #644905",
"$. c #6F4B00",
"%. c #784D00",
"&. c #734F08",
"*. c #784F09",
"=. c #745104",
"-. c #674B18",
";. c #644D1B",
":. c #7B5512",
">. c #574322",
",. c #5D4020",
"<. c #464031",
"1. c #634E22",
"2. c #655020",
"3. c #7B5D2F",
"4. c #3D3C40",
"5. c #413E41",
"6. c #895B13",
"7. c #88600F",
"8. c #8F6F23",
"9. c #9F7B22",
"0. c #866C37",
"q. c #8A6F39",
"w. c #9D7632",
"e. c #9F7D3F",
"r. c #A27C23",
"t. c #A67F3A",
"y. c #987640",
"u. c #997C41",
"i. c #AD8A3D",
"p. c #BB8732",
"a. c #B78C36",
"s. c #AA8647",
"d. c #A18148",
"f. c #B79349",
"g. c #BDA055",
"h. c #B79860",
"j. c #C49D53",
"k. c #C3A148",
"l. c #D0A841",
"z. c #C9A55D",
"x. c #D9B157",
"c. c #DFB15B",
"v. c #E7B952",
"b. c #E9B956",
"n. c #EEBF5D",
"m. c #C7A367",
"M. c #CBAF66",
"N. c #D7AF61",
"B. c #D7B566",
"V. c #DCB266",
"C. c #D8B76A",
"Z. c #DAB670",
"A. c #DDB972",
"S. c #E2BA65",
"D. c #EFBF61",
"F. c #E7BA6D",
"G. c #EEC35C",
"H. c #F6C65E",
"J. c #E6C366",
"K. c #EDC765",
"L. c #ECC369",
"P. c #F3CB64",
"I. c #F2CB6B",
"U. c #FAC86C",
"Y. c #F3CB74",
/* pixels */
"> .     , ; ; . $   .   # % 9 y 9 + % ; . > > ",
"; 6 G s . 4 K N . $ S G - d d.M.q.q < P B > > ",
"3 U W I , D T 4.s s W Y f 2.L.K.A._ n W Y 6 @ ",
". D +.G   B 5.T , , J <.0 ` c.U.z.j z +.I , * ",
"% * * $ . . 3 @ @ O + 7 X 7 ] 6.^ % O 1 ,   @ ",
"  , x 1 : , M 2 O j y.u._ 9 :.t.-.8 = 6 2 * * ",
"3 I <.U @ D R J 8 0.K.H.i.$.b.H.V.h v 4.W 4 . ",
"3 I W H   C X...8 q.K.P.i.=.b.H.N./ v <.E 1 : ",
"; 3 Z 1   % w 0 O k u.s.{ 9 6.s.;.7 O B 1   $ ",
"; ; 3   O g >.@.+ + + 8 + 7 ) *.! + O , . , * ",
"@ V E C 9 e.I.S.-.8  . .e _ x.U.j.! z W I > ; ",
"1 I E J y z.G.I.0.q O.O.p 1.D.D.F.' n E W 5 . ",
"  B G c 8 3.B.g.} + A L i y t.V.y.9 u I Z ; ; ",
"*   .   O + h q + @ . . O 7 Q | r o O .   . > ",
". N P B @ w C b < : K U w y a.v.w.r e I D $ $ ",
"1 U E 4., D O.4.m m 4.W p 1.L.n.A.` n U Y 6 . ",
", D 4.A ; B U L 3 m T T u ( N.Y.h.t z W G , . ",
"  . , : .   , . ; ; ; < O + ~ %.! 7 O , > > 3 ",
"* 2 B 4 ; 3 M a . ; M V + r 6.p.&.9 = B m ; ; ",
", I W L : A 5.R 1 4 E 5.p ,.F.U.Z._ c 4.T 5 . ",
"3 P 4.I : A 5.R 4 6 E O.c >.F.L.M.l z W P m ; ",
"; 5 6 3 . : M a . . 1 a % 8 =.9.#.7 % B 5 ; $ ",
"$ $ 1 * . ; 3 : ; : , 4 O + [ 7./ 7 O 3 > . $ ",
"* C Y D ; Z W I 3 4 U o.u } B.Y.m.h p 4.P 3 $ ",
"* H R H > K W W 1 x R o.z @.J.H.A./ C 5.E 6   ",
"* x D M ; 5 K S . * V F & g r.l.8.r w K A 3 @ ",
"@ . ; . > . $   $ .   , O o ~ | y + O ; ; ; : ",
": B R B . 6 I S $ 3 L I w k f.F.d.q i I A : , ",
"< I Y I > K I E s s R X.v ;.G.v.C.` n <.W 5   ",
": Z Y B $ 6 E I * * H J & l k.I.f.g u W D , * ",
"; ; , $ $ . , . , . $ $ $ % k @.y + . > $     ",
"$ . . $ $ * . : : * $ $ $ $ X X o + > > # $ $ "
};
