/* XPM */
static char *out[] = {
/* columns rows colors chars-per-pixel */
"23 32 189 2 ",
"   c #0D0B04",
".  c #0D0C0C",
"X  c #160501",
"o  c #180500",
"O  c #140C02",
"+  c #1B0C00",
"@  c #130D0B",
"#  c #1A0E0A",
"$  c #0F100D",
"%  c #141102",
"&  c #1B1201",
"*  c #12110C",
"=  c #1A140C",
"-  c #18190E",
";  c #0D0E11",
":  c #110F13",
">  c #0F1213",
",  c #131313",
"<  c #181614",
"1  c #171917",
"2  c #1B1B15",
"3  c #151518",
"4  c #151819",
"5  c #1B1B1C",
"6  c #200700",
"7  c #230D00",
"8  c #290D00",
"9  c #241300",
"0  c #2B1300",
"q  c #251A03",
"w  c #2B1A00",
"e  c #251A0B",
"r  c #2B1D0B",
"t  c #341400",
"y  c #331B00",
"u  c #3B1B00",
"i  c #221B12",
"p  c #291C13",
"a  c #211D1A",
"s  c #2C1F18",
"d  c #1F261F",
"f  c #282208",
"g  c #342405",
"h  c #3B2302",
"j  c #3A2900",
"k  c #2B2313",
"l  c #22221C",
"z  c #2A2418",
"x  c #382A17",
"c  c #312B19",
"v  c #1C1B21",
"b  c #231E22",
"n  c #1E2223",
"m  c #232324",
"M  c #282527",
"N  c #262826",
"B  c #2C2E27",
"V  c #262B2A",
"C  c #2D2D2E",
"Z  c #332C25",
"A  c #352B2C",
"S  c #2F3028",
"D  c #373327",
"F  c #33312D",
"G  c #3D352C",
"H  c #3D3A2F",
"J  c #302E31",
"K  c #2E3233",
"L  c #343434",
"P  c #3B3632",
"I  c #373A32",
"U  c #3C3B34",
"Y  c #373539",
"T  c #3A3739",
"R  c #373A3A",
"E  c #3C3C3C",
"W  c #422400",
"Q  c #4D2600",
"!  c #432B01",
"~  c #4B2A00",
"^  c #432D0D",
"/  c #443104",
"(  c #4A3304",
")  c #4B3806",
"_  c #4A320D",
"`  c #4C3A0D",
"'  c #533501",
"]  c #563900",
"[  c #5B3A01",
"{  c #533C0C",
"}  c #523815",
"|  c #593E10",
" . c #653B00",
".. c #41352E",
"X. c #40392D",
"o. c #403731",
"O. c #423C34",
"+. c #413D3B",
"@. c #3D413C",
"#. c #5D4107",
"$. c #5D4418",
"%. c #6B4304",
"&. c #62450B",
"*. c #6D4B0C",
"=. c #724400",
"-. c #724902",
";. c #6A4E15",
":. c #6A501D",
">. c #76561A",
",. c #7B5818",
"<. c #484233",
"1. c #44403C",
"2. c #604F23",
"3. c #6B5524",
"4. c #735726",
"5. c #745B24",
"6. c #7A5B24",
"7. c #705731",
"8. c #775C31",
"9. c #3B3B40",
"0. c #403C40",
"q. c #3C4040",
"w. c #845C1A",
"e. c #886010",
"r. c #87641B",
"t. c #A5771E",
"y. c #8B6525",
"u. c #8B6A22",
"i. c #88662C",
"p. c #966F27",
"a. c #9C792D",
"s. c #977630",
"d. c #9C7B34",
"f. c #9B793B",
"g. c #A57823",
"h. c #A17F3E",
"j. c #977641",
"k. c #967B41",
"l. c #A17F46",
"z. c #B4862E",
"x. c #A98237",
"c. c #AB853B",
"v. c #AE893D",
"b. c #B9903D",
"n. c #9E834B",
"m. c #A78A4A",
"M. c #B18C43",
"N. c #B18F4F",
"B. c #BC9441",
"V. c #B6924A",
"C. c #AB8D52",
"Z. c #AC9454",
"A. c #B4955A",
"S. c #B99A5A",
"D. c #BB9C5D",
"F. c #B89B60",
"G. c #CA9F53",
"H. c #CBA746",
"J. c #DBAA4D",
"K. c #CCA655",
"L. c #D5AD5A",
"P. c #D8B15B",
"I. c #EFBF5C",
"U. c #C19E64",
"Y. c #C9A767",
"T. c #D2AB63",
"R. c #D9AF61",
"E. c #CFB068",
"W. c #DDB463",
"Q. c #DFB861",
"!. c #D9B76A",
"~. c #E0B863",
"^. c #E7BE6C",
"/. c #F1BF60",
"(. c #E6BD75",
"). c #ECC25B",
"_. c #F0C357",
"`. c #F2C45C",
"'. c #F1C95E",
"]. c #EEC965",
"[. c #EDC46C",
"{. c #EEC968",
"}. c #F4C565",
"|. c #F3C965",
" X c #F2C66A",
".X c #F3CA6B",
"XX c #EDC373",
"oX c #F5C974",
"OX c #F4C975",
/* pixels */
"* . @ * + 7 ' ] 0 6 Q  .u 8 u [ W + % * % . @ ",
"* 5 Y Z + 3.!.W.6.~ G.XXl.W c.(.D./ & F F < . ",
". S R O.w m.|._.v.r._._.T.=.P.I.{.>.f @.T m . ",
"$ l I c + >.P.].,.( H.{.h.Q h.}.K.( q D D 2   ",
"X + q 6 o 7 _ _ 9 + j ` w + t } g + 7 9 q X * ",
"7 7.Y.m.g + p s @ = i z - X 2 k p 7 | F.A.` O ",
"~ Y.}.{.5.q <.+.M * I I B * F 1.P y M.|.oXd.+ ",
"u V.|.).$.q H P 5 * I @.N * V U D q a.}. Xu.+ ",
"7 W y.*.7 + 2 < @ @ , 5 , @ , 2 * O h ,.,.y + ",
"7 ( p.>.9 X i < . , 4 5 , . : a * % W y.y.h O ",
"W S.|.).:.q o.R b : K E V ; J +.P 9 x.].}.u.& ",
"j Y.).].3.r O.U b 3 R q.K , F 0.P w v.{.|.a.O ",
"+ 2.A.k.g - l N 3 : 5 N 5 . = p e O { Z.m.) & ",
"% O 9 7 %   > $ ; : ; *   O h | ^ + + 9 + O % ",
"  a o.Z $ 1 L R v : J E k f M.oXT.' q G P i . ",
", L E T 1 d U 9.M : T U c j P.|.XX>.p U T m ; ",
". b L C > 4 F L 3 ; A P 2 w f.(.D.! = Y C 3 ; ",
". ; . ; ; .       X 8 g + + t ~ y O   . ; ; : ",
". 4 L m ; 4 V B + h v.P.i.9 w x k % * V V : > ",
"> K T R 3 n @.P r 4.|.'.E.j D U I 2 n R 9.b   ",
". m E L 3 4 Y O.e } !.OXA.w c E F < v R Y 5 @ ",
", . , $   O 9 7 X 9 #.5.! + . 4 , . > > < : . ",
"@ : 5 5 O j s.a./ + + r + O < v < . > n <   < ",
". C E G q k.[.].n.w X.+.F : S E R 3 n 9.+.l . ",
"; J +...0 j.}. Xm.0 P 1.F * S q.L < m E 9.b ; ",
"@ O e w 6 Q g.t.~ o 9 e & & & e & + O M i # . ",
"+ g ;.[ 8 t =.=.t 8 ] ;.j 8 W ;.) 9 8 0 w 6 O ",
"t C..XQ.&.6.oX Xi. .R.OXN.~ B.XX!.] %.Y.U.{ + ",
"Q T.}.).r.x.).`.M.w.}.I.L.-.J./.^.e.z.}.[.d.7 ",
"0 i.~.B.W #.K.P.*.~ b.~.s.u p.W.N.~ p.oX[.y.+ ",
"X 7 h y o + y u + & w g + + 7 h w + y 8.8.w O ",
"@ @ X + # # + O + O O O O @ O   O + + + X + % "
};
