/* XPM */
static char *out[] = {
/* columns rows colors chars-per-pixel */
"23 32 191 2 ",
"   c #0D0500",
".  c #0D0B06",
"X  c #0D0C0C",
"o  c #140500",
"O  c #1B0700",
"+  c #140C02",
"@  c #1B0C00",
"#  c #120C0C",
"$  c #0E110E",
"%  c #141003",
"&  c #1B1101",
"*  c #12110D",
"=  c #1A130B",
"-  c #0E0E11",
";  c #110E11",
":  c #0E1112",
">  c #131313",
",  c #1A1514",
"<  c #131814",
"1  c #1A1A15",
"2  c #1A171C",
"3  c #1B1B1C",
"4  c #230C00",
"5  c #280D00",
"6  c #231400",
"7  c #2A1500",
"8  c #251901",
"9  c #2D1B01",
"0  c #221608",
"q  c #271B0A",
"w  c #281C0A",
"e  c #311600",
"r  c #331C00",
"t  c #391A00",
"y  c #211D12",
"u  c #271C19",
"i  c #1F211C",
"p  c #352201",
"a  c #3A2401",
"s  c #3E2A04",
"d  c #352408",
"f  c #2D2414",
"g  c #24211B",
"h  c #2B251C",
"j  c #2A281A",
"k  c #312610",
"l  c #30261E",
"z  c #362D1C",
"x  c #3B2D18",
"c  c #1D1D21",
"v  c #241F22",
"b  c #1F2323",
"n  c #252323",
"m  c #2B2623",
"M  c #2C2B24",
"N  c #2B262A",
"B  c #272829",
"V  c #2D2E2C",
"C  c #322D22",
"Z  c #352A24",
"A  c #353124",
"S  c #32322D",
"D  c #3F362F",
"F  c #3A392F",
"G  c #2B2D30",
"H  c #312D31",
"J  c #2F3032",
"K  c #343433",
"L  c #3A3333",
"P  c #353A35",
"I  c #3C3B36",
"U  c #3B3739",
"Y  c #34383A",
"T  c #3C3B3B",
"R  c #431F00",
"E  c #452300",
"W  c #4B2600",
"Q  c #412B03",
"!  c #4B2B00",
"~  c #422F0B",
"^  c #4C3505",
"/  c #44320C",
"(  c #4C350B",
")  c #4F390A",
"_  c #543401",
"`  c #593600",
"'  c #5C3C00",
"]  c #523A0C",
"[  c #5B3C0A",
"{  c #493513",
"}  c #533D15",
"|  c #623D00",
" . c #403429",
".. c #443A38",
"X. c #413E3D",
"o. c #3E403D",
"O. c #5F4106",
"+. c #5E4915",
"@. c #6B4606",
"#. c #624709",
"$. c #724D05",
"%. c #72470A",
"&. c #6D510E",
"*. c #644311",
"=. c #6C4616",
"-. c #694C13",
";. c #654B1B",
":. c #6D4D1A",
">. c #6F511D",
",. c #795515",
"<. c #75591D",
"1. c #444034",
"2. c #44413A",
"3. c #6E5627",
"4. c #6F5A2A",
"5. c #755D28",
"6. c #6C5530",
"7. c #745E35",
"8. c #75612C",
"9. c #393C41",
"0. c #413E40",
"q. c #805607",
"w. c #81550D",
"e. c #805A12",
"r. c #8A5E13",
"t. c #90681A",
"y. c #835B27",
"u. c #85662A",
"i. c #936C26",
"p. c #987022",
"a. c #96742F",
"s. c #826A3B",
"d. c #8C723A",
"f. c #93743A",
"g. c #9D7D3C",
"h. c #A1772A",
"j. c #A2823E",
"k. c #B38934",
"l. c #B6923D",
"z. c #98814D",
"x. c #A68944",
"c. c #B3864B",
"v. c #B09146",
"b. c #B7944C",
"n. c #A68A53",
"m. c #AA905A",
"M. c #B49556",
"N. c #BC9955",
"B. c #B99961",
"V. c #C39B45",
"C. c #C4964C",
"Z. c #CBA248",
"A. c #CEA552",
"S. c #CCA955",
"D. c #C3A55D",
"F. c #CCAB5C",
"G. c #D4AB53",
"H. c #D1A85A",
"J. c #D7B65E",
"K. c #DBB25C",
"L. c #E4B75E",
"P. c #E4BB5B",
"I. c #ECBF5A",
"U. c #F2BF5D",
"Y. c #C09F60",
"T. c #C4A765",
"R. c #CAA964",
"E. c #CCAD69",
"W. c #DDB363",
"Q. c #DCB863",
"!. c #D8B76E",
"~. c #DFB86C",
"^. c #DCBA73",
"/. c #E3BD63",
"(. c #E2B76A",
"). c #E2BE74",
"_. c #EDC45C",
"`. c #F4C55C",
"'. c #F8C75F",
"]. c #DFC275",
"[. c #EEC363",
"{. c #EAC46D",
"}. c #EBC96E",
"|. c #F4C665",
" X c #F3C965",
".X c #F1C368",
"XX c #F4CB6E",
"oX c #E9C173",
"OX c #EECA75",
"+X c #F0C576",
"@X c #F2C875",
/* pixels */
"X X $ . @ 4 a e 4 4 r r 5 4 7 a 6 + . $ . * $ ",
"- 3 K u + 6.T.b.! ^ N.R.:.t j.E.d.7 1 S n # # ",
"< Y T S p Y.|.`.t.p.'.`.V.q.U.I.!.^ z I T 2 - ",
"* C I z 7 x.XXP.$.w..XXXh.` G.XXD.s k 2.H > ; ",
"& & @ @ + p 4.+.7 7 ;.3.p & ) 5./ & @ & & % > ",
"6 4.n.;.6 + 8 & + + = q + + & w & @ +.z.8.8 . ",
"| (. XK.Q j 2.I , v T I u * F 1.z a S.|.{.-.o ",
"@.~. XQ./ C o.T 2 2 9.Y n * S X.z s H.|.{.&.@ ",
"7 7.m.3.& * b c X - 3 b $ . 1 n , @ =.c.u.e @ ",
"% + & + % $ : - X X : : X X > < * @ E %._ 4 + ",
"* V F C . g o.S $ 1 P P c : K T h r l. XK.' @ ",
"< K T K $ V o.o.1 i P o.B > T X.Z ~ J._.{.<.+ ",
"* n L v # , M j % = l m , . u A y 6 u.!.M.s + ",
"# X # # o @ s 9 + & t a 4 O 9 Q 7 @ 8 s 8 + % ",
"- b J y & 8.Q.Z._ O.A.K.,.R k./.g.r w A j % $ ",
"> Y 9.S p T._.'.i.a. X`.C.w.U.U.!.^ z o.P < X ",
"- G T m 6 z.OX/.-.:.oX+Xf.` H.@XB.p j T V > * ",
"> - > # + 9 #.' 4 7 [ *.7 O _ -.Q O @ & @ + % ",
"X 2 N 2 # = e 7 + = 0 q + @ 6 w @ 6 &.v.d.7 @ ",
"> Y 0.H ; N ...., 3 0.X.n * P ..A s S. XoX>.+ ",
"# L X.H > N X.T < 2 T T n > U 2.l a F.XX).;.o ",
"@ & 6 & . * 2 2 # > 1 3 ; - > n = @ | h.e.7 @ ",
"7 ] 5.^ @ + i $ $ $ < * : # # 1 % @ W r.| 5 O ",
"` E.OXD.d j P S $ 1 P P 3 > S 2.h r N.+X^.} O ",
"$.).[.Q.{ l 2.I 1 v T o.B 1 P X.C s H.[.+X5.o ",
"t j.H.a.7 0 z f # = f f & o f f 8 6 u.F.x.a @ ",
"@ 4 9 4 @ 6 s a O 4 E W 4 4 t ^ 7 @ 6 9 6 + % ",
"# m L f 4 s.].F.| [ W.(.y.W b.^.n.9 w D m * - ",
", L U  .p T._.`.i.h.|.U.C.r.I._.~._ x T Y 3 ; ",
"X N U l 7 f.}.K.@.@.L..Xi.W Z.@XM.t f P S > X ",
"- ; , # + 7 } ( 4 4 ( } 7 4 Q } d + . $ $ X - ",
"- - # > . @ o o @ #     # O o   . * $ $ X * : "
};
