/* XPM */
static char *out[] = {
/* columns rows colors chars-per-pixel */
"23 32 184 2 ",
"   c #0F0400",
".  c #0E0B04",
"X  c #0D0D0C",
"o  c #150600",
"O  c #1A0600",
"+  c #130C02",
"@  c #1B0C00",
"#  c #120D0D",
"$  c #0D110C",
"%  c #141102",
"&  c #1B1202",
"*  c #13110D",
"=  c #1C160D",
"-  c #0D0D11",
";  c #110F12",
":  c #0E1212",
">  c #131313",
",  c #191314",
"<  c #151915",
"1  c #1A1915",
"2  c #14141A",
"3  c #1D161A",
"4  c #16191A",
"5  c #1C1C1B",
"6  c #230C00",
"7  c #2C0D00",
"8  c #360F00",
"9  c #231300",
"0  c #2A1400",
"q  c #251C04",
"w  c #2A1900",
"e  c #21190E",
"r  c #2A1D0C",
"t  c #341400",
"y  c #371E00",
"u  c #3A1B00",
"i  c #231D17",
"p  c #221E1A",
"a  c #29220E",
"s  c #352301",
"d  c #3C2400",
"f  c #3C2A02",
"g  c #272217",
"h  c #2B2417",
"j  c #2D261A",
"k  c #2B271D",
"l  c #38281B",
"z  c #39311F",
"x  c #1E1F20",
"c  c #1E2321",
"v  c #242424",
"b  c #2A2625",
"n  c #2C2A24",
"m  c #242528",
"M  c #292728",
"N  c #2D2C2B",
"B  c #342B22",
"V  c #312E2D",
"C  c #2D312D",
"Z  c #343227",
"A  c #393123",
"S  c #32312D",
"D  c #3A342A",
"F  c #3C382F",
"G  c #312F30",
"H  c #2F3233",
"J  c #343433",
"K  c #393633",
"L  c #343935",
"P  c #3B3936",
"I  c #323338",
"U  c #373A3B",
"Y  c #3C3C3B",
"T  c #432402",
"R  c #412C06",
"E  c #4B2B01",
"W  c #412D0C",
"Q  c #502600",
"!  c #542B00",
"~  c #4A3609",
"^  c #523300",
"/  c #593200",
"(  c #513807",
")  c #5A3D00",
"_  c #523A0C",
"`  c #583A0E",
"'  c #4C3817",
"]  c #5A3E10",
"[  c #523D19",
"{  c #623700",
"}  c #613B00",
"|  c #6B3F00",
" . c #423A2C",
".. c #423D34",
"X. c #423D3B",
"o. c #58410D",
"O. c #5D4312",
"+. c #58431C",
"@. c #6B4401",
"#. c #6F4900",
"$. c #6A4D0B",
"%. c #754700",
"&. c #784C04",
"*. c #74530D",
"=. c #78500E",
"-. c #664914",
";. c #644C1D",
":. c #68511E",
">. c #785714",
",. c #75551D",
"<. c #775929",
"1. c #7B632D",
"2. c #7E6533",
"3. c #393C43",
"4. c #423F40",
"5. c #424343",
"6. c #825607",
"7. c #8E5F0E",
"8. c #845E17",
"9. c #8B5D16",
"0. c #9D7119",
"q. c #A1761E",
"w. c #8B6828",
"e. c #916525",
"r. c #916F2F",
"t. c #977024",
"y. c #92732D",
"u. c #98792E",
"i. c #9C7531",
"p. c #977830",
"a. c #967A3E",
"s. c #9B7C3A",
"d. c #A87E3B",
"f. c #987943",
"g. c #AD872B",
"h. c #A7833E",
"j. c #BF9039",
"k. c #C89F3E",
"l. c #988043",
"z. c #9F8249",
"x. c #A98746",
"c. c #AC8A47",
"v. c #A08849",
"b. c #B79045",
"n. c #B7934D",
"m. c #A28250",
"M. c #BE9953",
"N. c #B79458",
"B. c #C59E47",
"V. c #CD9E47",
"C. c #C39E54",
"Z. c #C49D58",
"A. c #C6A35B",
"S. c #D8AA52",
"D. c #D6AC5E",
"F. c #E5B458",
"G. c #E7BC5D",
"H. c #ECBB5B",
"J. c #C7AA66",
"K. c #CDA966",
"L. c #D4A963",
"P. c #D1AC69",
"I. c #D8AF68",
"U. c #D6B269",
"Y. c #DAB46D",
"T. c #E2BB66",
"R. c #ECBE6E",
"E. c #F2BF62",
"W. c #E1BB71",
"Q. c #EFBF74",
"!. c #EEC25D",
"~. c #F3C35C",
"^. c #ECC564",
"/. c #EBC966",
"(. c #EFC46B",
"). c #F2C465",
"_. c #F4CA66",
"`. c #F9C965",
"'. c #F2C56A",
"]. c #F4CB6C",
"[. c #F9CA6A",
"{. c #EBC476",
"}. c #F3C575",
"|. c #F3CA70",
/* pixels */
"# X $ $ X : : X X X X # + O y T 6 @ # X X : X ",
"; M H 5 X 4 C c X 1 V b = W n.U.2.6 p H c $ : ",
"1 L U H ; G Y Y , m Y X.a 2.^.~.P.d D Y L < X ",
"* N 3.m ; M P G , p F  .9 O.G.`.c.w k U C $ X ",
"- $ 2 - - - 2 ; + o 9 9 O 7 { #.y @ $ < X X $ ",
"- 5 v > - 2 x i & ~ z.f.T t e.d.] @ = M 2 X : ",
"< P Y C - H 3.K w v./.[.t.9.`.`.A.y A 5.H : : ",
"> J Y N - G 4.D w v./.[.e.6.~.~.C.d B Y L $ : ",
"X < c > # + r 6 O W l.a.T t e.d._ @ * v 2 - - ",
"X $ 4 . O W <.` 0 o 9 & o 0 { =.d O + 1 X - - ",
"> J Y k y M.].F.( w .. .w -.H.~.c.t k 3.C : - ",
"< P X.l E I.E.^.:.a X.P w 1.`.E.D.d B I 3.x - ",
"* k n 9 0 f.U.x.s % C N & R n.D.<.9 p I c - 2 ",
"o w f w O o s w @ # X X + 6 Q | t @ . > - - - ",
"/ M.T.u.9 a A j + 1 H Z % ( V.F.r.w g J c 2 : ",
"9.R.~.U.f S Y Y > b P Y a 1.^.).J.f A Y L < : ",
") P.{.c.w g K N # 5 K  .9 +.I.Q.m.w h Y n * > ",
"7 E %.u 6 O w % + O 6 6 @ 6 ! | t 6 @ & & + X ",
"u t.j.&.8 ,.C.0.y ^ b.d.E T q.k.@.t 8.M.w.w + ",
"8.}.E.S.@.L.!.!.>.h.[.[.i.8.).'.Z.@.F.).W.O.  ",
"=.W.|.B.) A.[.T.$.s.'.].r.=.(.].M.} S.].Y._ + ",
"7 ,.s.) 9 o.p.*.9 d y.w.u 8 6.0.^ 7 @.a.;.& o ",
"& & & + + + w w % + 9 9 @ 0 %.7.E O o w & . # ",
"* K X.n # M P K * 5 P ..& ;.R.|.N.w B X.C > * ",
"< K X.V # V Y D , b X...9 2.'._.J.s A X.P 1 X ",
"X v V , + g N g # , b B & d g.k.>.6 e V p # X ",
"# > # X $ . $ X # # X # + @ Q | t + + ; X # $ ",
"# M P v X v P M ; 3 I S = ' L.Q.f.9 i P b X X ",
"p X.P V > K P P * n 5.Y q 2.'.H.K.f z P P < X ",
"# M P v X b X.n * 1 K D & _ D.(.a.9 h K v * ; ",
"# X > - > X X X . * # * % & f [ w O # 2 X $ X ",
"X > - - ; - $ $ . * ; # % + o   + ; ; ; X * # "
};
