/* XPM */
static char *out[] = {
/* columns rows colors chars-per-pixel */
"23 32 187 2 ",
"   c #0E0200",
".  c #0E0C04",
"X  c #0D0D0C",
"o  c #120500",
"O  c #1A0500",
"+  c #150B02",
"@  c #1B0B00",
"#  c #120D0B",
"$  c #190E0B",
"%  c #0D1003",
"&  c #0D100D",
"*  c #161102",
"=  c #1C1202",
"-  c #13110C",
";  c #1A120A",
":  c #1C1B0C",
">  c #0E0E11",
",  c #120E11",
"<  c #0D1111",
"1  c #141313",
"2  c #1A1617",
"3  c #161816",
"4  c #1C1B16",
"5  c #161719",
"6  c #19181A",
"7  c #1C1B1A",
"8  c #220700",
"9  c #220D00",
"0  c #290C00",
"q  c #241200",
"w  c #2B1400",
"e  c #231A02",
"r  c #2C1A00",
"t  c #23140C",
"y  c #251A0B",
"u  c #281D0E",
"i  c #331500",
"p  c #331D01",
"a  c #3C1C00",
"s  c #281D14",
"d  c #211D1A",
"f  c #1C201B",
"g  c #2D2300",
"h  c #29230B",
"j  c #342101",
"k  c #3A2300",
"l  c #3F2D08",
"z  c #3E320A",
"x  c #2C2313",
"c  c #22221C",
"v  c #2C251B",
"b  c #312414",
"n  c #31271C",
"m  c #1E1E21",
"M  c #242323",
"N  c #292426",
"B  c #272824",
"V  c #2D2A23",
"C  c #272C2A",
"Z  c #2C2D2C",
"A  c #312A24",
"S  c #322B28",
"D  c #34322D",
"F  c #38352A",
"G  c #3B332C",
"H  c #2D2E30",
"J  c #372F34",
"K  c #2E3432",
"L  c #343434",
"P  c #393635",
"I  c #353935",
"U  c #3C3935",
"Y  c #373738",
"T  c #3A363A",
"R  c #373939",
"E  c #3D3C3B",
"W  c #441F00",
"Q  c #442500",
"!  c #442C01",
"~  c #4B2B00",
"^  c #482A06",
"/  c #532D00",
"(  c #582E00",
")  c #453003",
"_  c #4C3304",
"`  c #523301",
"'  c #5C3200",
"]  c #543903",
"[  c #5C3C03",
"{  c #533C0B",
"}  c #463711",
"|  c #533B1A",
" . c #433524",
".. c #453C37",
"X. c #413C3C",
"o. c #3D4037",
"O. c #57400F",
"+. c #5C410B",
"@. c #554315",
"#. c #5C4419",
"$. c #634203",
"%. c #6A4703",
"&. c #654708",
"*. c #774E00",
"=. c #784E0C",
"-. c #70500F",
";. c #7C540A",
":. c #674A11",
">. c #624A1C",
",. c #6C4C19",
"<. c #725315",
"1. c #7B5614",
"2. c #785A1A",
"3. c #424137",
"4. c #44403C",
"5. c #6A4E26",
"6. c #6E5A29",
"7. c #715423",
"8. c #7E632A",
"9. c #3E3D40",
"0. c #433D41",
"q. c #414045",
"w. c #82540A",
"e. c #94761E",
"r. c #825D20",
"t. c #866625",
"y. c #8F6B24",
"u. c #82642A",
"i. c #926D26",
"p. c #977225",
"a. c #96732A",
"s. c #826637",
"d. c #8A6A32",
"f. c #9A793A",
"g. c #A57732",
"h. c #8F7343",
"j. c #907641",
"k. c #957842",
"l. c #A4823D",
"z. c #B48933",
"x. c #D1A23F",
"c. c #9B8041",
"v. c #AF8741",
"b. c #A58948",
"n. c #AB8C49",
"m. c #B7974B",
"M. c #AA9056",
"N. c #B89856",
"B. c #C39847",
"V. c #C39C53",
"C. c #C09C5E",
"Z. c #CDA346",
"A. c #DFAB4B",
"S. c #C3A352",
"D. c #CAA65E",
"F. c #D1AB54",
"G. c #D2AC5A",
"H. c #DCB254",
"J. c #E4BF5D",
"K. c #EDBD5B",
"L. c #F1BF59",
"P. c #C9A66C",
"I. c #D5AC62",
"U. c #D7AF69",
"Y. c #D4B163",
"T. c #DBB465",
"R. c #D5B36B",
"E. c #DEBA6D",
"W. c #D8B572",
"Q. c #E2BB64",
"!. c #E5BD6B",
"~. c #E1BA72",
"^. c #E3C15F",
"/. c #EEC15D",
"(. c #F4C65D",
"). c #F3C95B",
"_. c #ECC465",
"`. c #EBC66C",
"'. c #F2C561",
"]. c #F8C764",
"[. c #F3C96B",
"{. c #FFCE68",
"}. c #E5C174",
"|. c #EBC975",
" X c #E6C679",
".X c #F2C875",
"XX c #F1CB7C",
/* pixels */
"@ q l i @ q Q a 8 8 a W 8 8 w Q w 8 0 W p @ + ",
"w k.W.g.a 7.Y.V.` ` V.I.7.k l.R.k.a r.W.N.! o ",
"[ ~.L.K.w.B.(.(.a.i.'.).V.;.K.).Q.*.x.K..Xt.O ",
"~ V.].A.' g.{.Q.-.-.^.[.f.' Z.[.S.' g.[.~.:.O ",
"8 ^ =.( 0 i 5.#.q q @.>.r @ ^ 6.z @ k 5.| 9 + ",
"0 ,.v.1.0 @ t t + + ; y ; + = e : + = y t $ X ",
"' I.).J.| b ....4 4 U U c - ..U D * V 4.X.2 X ",
"( T.).J.@.s X.X.7 4 o.U B 1 L E D & V o.T 6 X ",
"0 >.l.<.= ; c 4 . . 4 c 3 X 5 M 6 # % f m < > ",
"0 ! 1./ @ + ; - . & & : . , < 5 , , - 3 & > < ",
"Q V.{.H.! x o.I 5 7 Y E M X H 9.H # M Y K 5 > ",
"] E.L.K.>.x 3.o.d 7 X.X.B - Y E P , H R R m > ",
"p j.U.b.p = x v ; 1 v A ; + c v d . 7 K M < < ",
"+ = a w @ = l j 8 O k ^ q o w ! e * . X X > > ",
"# v F x 0 8.Q.F.$.[ F.Q.t.Q z.Q.b.r : L H > , ",
"1 L 9.G j C./._.a.i.'.(.V.;.K.K.~.| b E E m > ",
"< C E A q h. XE.:.:.E..Xk.~ S.XXP.k s T J 1 # ",
"X X & . @ r O.] 9 q ` { w @ ! +.j 9 9 0 + * # ",
"X 3 C f - ; y y @ + y h = . = h e @ &.N.c.k + ",
"# L R Y - N 0.0.d 7 q.o.Z - I U F g S._.|.8.+ ",
"; D E R 1 B I P 2 2 R 9.N X J E S g m.`. X6.o ",
"+ + y + % & 4 2 - - 5 m , # , 7 - = ] e.2.r + ",
"9 { u.{ * % 7 > X X 3 3 , , 1 1 - @ Q ;.*.q = ",
"^ P..XY.} 4 9.R 3 - I E M > H E A w n.XX X7.+ ",
"' ~.(._.#.n o.q.f 4 E X.N 5 Y 0.G p D._.|.t.O ",
"i d.G.a.q = v s - : h x 2 + y b t 9 <.D.n.k O ",
"@ @ w 8 @ q ] ! q q ! _ w O a { r @ O w q @ # ",
"# M ..x w s.E.T.+.+.G.}.d.~ m.!.M.j y G S 1 # ",
"< Y .. .a N.].'.a.p.).).B.;.L.L.E.{ h X.X.7 1 ",
"< f P v q d.!.Q.%.$.H.'.y./ B.`.N.j u U V 1 X ",
"& < 3 # + q } ^ 8 @ ) _ w @ k | p + ; X < & X ",
"1 > < - & # o o $ $ o o @ $ o   # # > < & X > "
};
