/* XPM */
static char *out[] = {
/* columns rows colors chars-per-pixel */
"23 32 195 2 ",
"   c #0F0700",
".  c #0D0D0D",
"X  c #130400",
"o  c #1C0600",
"O  c #140C01",
"+  c #1B0C00",
"@  c #120D0C",
"#  c #190B09",
"$  c #0F110D",
"%  c #141104",
"&  c #1C1301",
"*  c #13110C",
"=  c #18110F",
"-  c #1D1809",
";  c #0F0E11",
":  c #120E12",
">  c #0E1211",
",  c #131313",
"<  c #1A1513",
"1  c #1C1B15",
"2  c #16171A",
"3  c #19171B",
"4  c #171B1A",
"5  c #1C1C1B",
"6  c #220200",
"7  c #220D00",
"8  c #2B0B00",
"9  c #370D00",
"0  c #241300",
"q  c #2A1500",
"w  c #251800",
"e  c #2C1A00",
"r  c #231609",
"t  c #231D0D",
"y  c #2A1C0C",
"u  c #351500",
"i  c #311900",
"p  c #3B1C00",
"a  c #221D18",
"s  c #1F201F",
"d  c #2A2108",
"f  c #2B230C",
"g  c #362300",
"h  c #3B2401",
"j  c #3D2907",
"k  c #37280A",
"l  c #3D2A0A",
"z  c #252410",
"x  c #2B2212",
"c  c #2F2815",
"v  c #22231C",
"b  c #2A241C",
"n  c #2E281F",
"m  c #312513",
"M  c #312A19",
"N  c #1C1F21",
"B  c #221F20",
"V  c #1D2020",
"C  c #232323",
"Z  c #2C2524",
"A  c #2B2A26",
"S  c #2C262A",
"D  c #2C2D2A",
"F  c #332627",
"G  c #332D24",
"H  c #342C29",
"J  c #3B3326",
"K  c #34312D",
"L  c #3B332B",
"P  c #312F32",
"I  c #2E3632",
"U  c #343334",
"Y  c #3A3635",
"T  c #353A37",
"R  c #3B3B36",
"E  c #373539",
"W  c #393939",
"Q  c #3C3C3B",
"!  c #481E00",
"~  c #432200",
"^  c #482400",
"/  c #452B02",
"(  c #4A2B00",
")  c #402D0A",
"_  c #522B00",
"`  c #4C3405",
"'  c #443408",
"]  c #4C3509",
"[  c #4B3B0D",
"{  c #523401",
"}  c #5A3500",
"|  c #543906",
" . c #5C3C02",
".. c #543709",
"X. c #553C0A",
"o. c #583C0C",
"O. c #563C15",
"+. c #623C00",
"@. c #423736",
"#. c #423B34",
"$. c #423D3C",
"%. c #5B4209",
"&. c #4F401B",
"*. c #544017",
"=. c #5B4113",
"-. c #6A4301",
";. c #684609",
":. c #754B03",
">. c #795309",
",. c #684917",
"<. c #664B1D",
"1. c #734D13",
"2. c #7B5514",
"3. c #7D5A17",
"4. c #42413B",
"5. c #674E22",
"6. c #6F5023",
"7. c #6F522D",
"8. c #725629",
"9. c #7C6026",
"0. c #413A40",
"q. c #845D09",
"w. c #825710",
"e. c #855B12",
"r. c #8C6618",
"t. c #906513",
"y. c #976D18",
"u. c #98741C",
"i. c #836224",
"p. c #836129",
"a. c #946D23",
"s. c #996E23",
"d. c #96722C",
"f. c #9C722B",
"g. c #876A36",
"h. c #8A733A",
"j. c #977531",
"k. c #917038",
"l. c #A27522",
"z. c #A67F3C",
"x. c #8D7441",
"c. c #937D43",
"v. c #AD843B",
"b. c #B68F3B",
"n. c #BC933B",
"m. c #A78542",
"M. c #AD8C4B",
"N. c #B68C4C",
"B. c #BE934C",
"V. c #AA8A56",
"C. c #B28F5E",
"Z. c #BB9953",
"A. c #BEA258",
"S. c #C1944A",
"D. c #C29E50",
"F. c #CBA24C",
"G. c #D6AA4E",
"H. c #CAA353",
"J. c #C6A35A",
"K. c #CEA758",
"L. c #CFA85E",
"P. c #D2AC5C",
"I. c #DAAD59",
"U. c #DBB759",
"Y. c #E2B95D",
"T. c #F0BC57",
"R. c #F2BF5B",
"E. c #C5A760",
"W. c #C4A963",
"Q. c #D5AD63",
"!. c #D1AB6B",
"~. c #DCB763",
"^. c #D6B36C",
"/. c #DBB56B",
"(. c #DFBC71",
"). c #E0AE60",
"_. c #E2B764",
"`. c #E3BB65",
"'. c #ECBF64",
"]. c #E2BA69",
"[. c #E5BC72",
"{. c #E5BD78",
"}. c #ECC15A",
"|. c #F3C55C",
" X c #EDC365",
".X c #EBC66A",
"XX c #EBC36C",
"oX c #F3C463",
"OX c #F5C963",
"+X c #F3C269",
"@X c #F2C96C",
"#X c #E5C275",
"$X c #EDC573",
"%X c #EEC978",
"&X c #F5C874",
/* pixels */
": @ . O O 0 ~ u 6 7 ~ p 7 7 p h 0 O @ $ . * : ",
": Z K - e x.^.M.p 6.Q.D.o.` B.^.8.& C U v . . ",
"3 W $.c ] (.|.|.w.S.|.|.f.a.|.}.E.g G Q U , @ ",
"< L #.f g Z.@XG.+.f.OX'.2.:.'.@Xm.q J #.G @ @ ",
"+ O w + o l 5.] 7 i <.=.q 8 o.5.i o 7 7 + O * ",
"i g.V.=.+ & y # + + y r # # r e + 7 6.C.7.7 @ ",
">.@XoXH.h M #.R : Z 4.W B 3 4.4.c ] ~.+X[...X ",
"q. XOXF.g H $.E : S Q Q 5 2 T R z [ ].+X/...O ",
"p 9.v.X.7 < B N . : N 2 . $ N V $ & 8.C.7.0 @ ",
"8  .2.h o = : : ; . > > $ . 2 , . O o 0 o X @ ",
":.U.OXb.i F 0.P ; s Q T 3 3 U Q v $ G #.H = . ",
"t. X|.P.j F $.W > A 4.Q 5 a Y 4.A , Y Q U , : ",
"` M.Q.e.r a A t . < Z b * @ b G 1 = 5 K C . . ",
"8 ^ +.! 6 0 ' q + + / g + + h h + # @ . . : . ",
"} D.Y.y.^ z.'.n.~ 3._.I.+.} F.`.g.0 b K C * ; ",
"y.[.oXG.:.).T.T.e.S.R.|.f.s.|.|.W.g J Q U @ , ",
"+.!.%Xv._ N.&XK.} g.$X#X1.;.U.%Xc.w n @.S @ @ ",
"8 } -.u 6 h ;./ 7 q %.{ 7 7 | %.w + o 0 + + * ",
"^ s.n.:.0 & z & O % z a * % - d & 0 i.Z.9.0 O ",
"e.$X@XJ.k K T T > C Q Q s 4 Q Q b &.~..X(.X.  ",
">.{.$XA.d A 4.I > C Q Q 2 , Q R v l /.@X!.] O ",
"! >.u.{ + < s $ . $ 1 4 ; ; 2 5 * & -.l.-.0 % ",
"9 -.r./ o = 3 , $ $ 4 2 > , $ 1 - 0 } t.} 8 O ",
"1.{.%XB.e A $.U $ s R R 2 2 T 4.z ) Q.$X!.` O ",
"r.#XoXK.k J $.Y * A 4.Q C 3 R 4.M *.].'.{.o.X ",
"~ M.H.3.7 r m t O & m x O % x x w q j.L.k.e O ",
"+ + 0 6 7 q | g 7 q { / + 7 / ] w O 7 q o + @ ",
", H #.y i V.#XD.( p.#XQ.,.| Q.#Xh.0 m #.F : ; ",
"5 Q Y c ` /.}.R.e.B.oXoXd.a.OXY.W.g J 4.E 2 . ",
", D T z e M.XXF._ i. XU.;. .G. Xh.0 b T S : : ",
". , > @ O e *.p 7 0 [ ' w 7 / O.e O . , . . , ",
": : @ $ $ O X + O % O   O + o X + @ $ > ; > $ "
};
