/* XPM */
static char *out[] = {
/* columns rows colors chars-per-pixel */
"23 32 177 2 ",
"   c #0D0B05",
".  c #0D0D0D",
"X  c #150500",
"o  c #1B0400",
"O  c #140B01",
"+  c #1B0C00",
"@  c #120D0D",
"#  c #0C110D",
"$  c #141005",
"%  c #1C1202",
"&  c #1D1800",
"*  c #12110E",
"=  c #1B140C",
"-  c #17190B",
";  c #0E0E11",
":  c #120D12",
">  c #0D1112",
",  c #121212",
"<  c #1A1413",
"1  c #1B1814",
"2  c #171719",
"3  c #161A18",
"4  c #1B1B1B",
"5  c #230E00",
"6  c #2C0C00",
"7  c #360E00",
"8  c #221300",
"9  c #2B1400",
"0  c #251A04",
"q  c #2D1A01",
"w  c #231709",
"e  c #261B0C",
"r  c #291C0E",
"t  c #321600",
"y  c #3C1700",
"u  c #331D00",
"i  c #3C1D00",
"p  c #251E15",
"a  c #221E1D",
"s  c #1C201A",
"d  c #352302",
"f  c #392200",
"g  c #3C2B04",
"h  c #30220E",
"j  c #3F2B09",
"k  c #252117",
"l  c #26221B",
"z  c #2D271C",
"x  c #302210",
"c  c #342A1A",
"v  c #1F1E20",
"b  c #221D20",
"n  c #1E2122",
"m  c #242424",
"M  c #292623",
"N  c #262826",
"B  c #2B2A26",
"V  c #29262A",
"C  c #272928",
"Z  c #2B2B2B",
"A  c #392E27",
"S  c #332E2B",
"D  c #2F3122",
"F  c #2E312C",
"G  c #373026",
"H  c #37332B",
"J  c #3B342C",
"K  c #322F30",
"L  c #343334",
"P  c #3A3635",
"I  c #363937",
"U  c #3B3739",
"Y  c #353838",
"T  c #3C3B3B",
"R  c #451D00",
"E  c #422500",
"W  c #442C00",
"Q  c #422F09",
"!  c #532F00",
"~  c #4C3303",
"^  c #433008",
"/  c #4D3508",
"(  c #4B380B",
")  c #5B3500",
"_  c #573A06",
"`  c #563F13",
"'  c #603700",
"]  c #653C00",
"[  c #403730",
"{  c #443C36",
"}  c #423D3B",
"|  c #39403A",
" . c #5B4214",
".. c #644700",
"X. c #6C4200",
"o. c #65450C",
"O. c #724A02",
"+. c #784F00",
"@. c #714D08",
"#. c #795300",
"$. c #7B540E",
"%. c #684611",
"&. c #614817",
"*. c #6F521F",
"=. c #725715",
"-. c #474036",
";. c #45403E",
":. c #664D24",
">. c #675023",
",. c #6B5425",
"<. c #6A5028",
"1. c #775924",
"2. c #745F2F",
"3. c #7F6834",
"4. c #3D3D41",
"5. c #414141",
"6. c #835B09",
"7. c #88630E",
"8. c #92681D",
"9. c #967119",
"0. c #806025",
"q. c #886421",
"w. c #84662E",
"e. c #997125",
"r. c #987128",
"t. c #806737",
"y. c #877138",
"u. c #8C713B",
"i. c #92723E",
"p. c #8C7642",
"a. c #937542",
"s. c #987B43",
"d. c #977F48",
"f. c #B98E25",
"g. c #A88437",
"h. c #A5853B",
"j. c #BB9238",
"k. c #C3963B",
"l. c #9E824A",
"z. c #A88441",
"x. c #A58852",
"c. c #B3945B",
"v. c #B79D58",
"b. c #BC9B5C",
"n. c #C09747",
"m. c #C69D4E",
"M. c #C09853",
"N. c #C9A443",
"B. c #D7AB41",
"V. c #C3A456",
"C. c #CAA353",
"Z. c #C0A05B",
"A. c #CAAA5F",
"S. c #D5AF56",
"D. c #D1AD5A",
"F. c #EBBE57",
"G. c #E6BD5A",
"H. c #D1AF69",
"J. c #D9AE69",
"K. c #DBB260",
"L. c #DDBA64",
"P. c #D5B06A",
"I. c #DAB76D",
"U. c #E3B863",
"Y. c #E5BC6D",
"T. c #EDC256",
"R. c #F5C75B",
"E. c #F1C45C",
"W. c #EDC362",
"Q. c #E9C46B",
"!. c #F2C662",
"~. c #F5CB64",
"^. c #F3C769",
"/. c #F3CA6B",
"(. c #EFC572",
"). c #EEC970",
"_. c #F1C770",
/* pixels */
"+ 8 E 7 7 6 R R 5 + i f 9 + t E 9 o 7 f q O + ",
"u d.I.i.y 1.J.M.~ _ Z.A.*.i h.I.i.y q.H.c.g O ",
"..L.T.T.+.m.F.R.8.e.R.T.n.6.F.E.G.O.B.E./.0.X ",
"~ V./.N.! g.!.G.@.$.!./.r.) S./.M.! f.~.U.%.X ",
"o Q <.W 5 u >.` 8 9  . .q 5 / ,.Q 5 i @.) 6 O ",
"O = r + O = e w O O w w $ O % h O 5 o.z.w.u O ",
"= H { P @ Z T P 1 p { { M , T ;.A f C.!./.=.O ",
"@ K 5.K : V 4.T 2 1 } T m 3 L ;.A f C.^.Q.=.X ",
": b b < , < v 4 : , a a *   % 0 + + ` x.3.q O ",
": : 2 : . @ , , . . * ,   % ( ,.j O 5 9 + O $ ",
"@ Z T Z   b T U > < P { e ~ S.^.Z.d x ;.H * @ ",
", P T P @ S U 4.n m } -.h &.W.F.I./ c T T 4 . ",
"< a K b * 1 L Z > # k z % d l.P.a.q 1 L m   # ",
"@ @ @ @ @   :     $ d g 8 O 9 f + O   @   @ , ",
"@ V K V ; 4 L S %  .D.L.1.% c G l   a L V , . ",
": L T L > Z 5.{ q a.!.!.v.d G | L , S T T 4 . ",
"; V P Z @ 4 } P 5 <.Y._.u.% z T N > n T L , # ",
", ; @   . @ : @ + 5 ' X.u + $ > . . . # ; ; @ ",
"; 3 C s   , m l % W e.k._ + k N 4 . < N 4 , # ",
"> Y T K * Z ;.[ & y.Q.^.c.u J 5.L ; C T Y < . ",
"; L T F # m } [ 0 t./.).x.0 G 4.Z . Z T T 2 : ",
"; ; n , . , a < O t 7.9.W O = b , . . m < . , ",
". : 2 * : ; , 1 O 9 #.6.f % - 3 > , ; 4 2 > # ",
"* K T S . m 4.L & 2.(./.l.0 G | C . m T Y , . ",
", Y T L , M T T 0 p.^.^.c.u J I L # K T T 4 . ",
"# 4 Z 1 . 1 Z M O ~ j.k.%.+ k Z 4 > 4 C m , ; ",
"#   , . . . , . O 5 ) ] t o   . . ; . . # : . ",
". l I N # 4 L S O :.K.Y.t.+ B P m . m L Z , * ",
"< U T L * D 4.} q s.!.E.b.f [ T L , Z 5.T v . ",
"; V T C # 3 T A 8 &.K.Q.w.8 z P m : 4 I Z . > ",
"; ; # # , @ @ @ @ % ^ ( &   # , . . * ; , . ; ",
"; ; # # ; @ @ @ . O O   # # # . > : # . : . # "
};
