/* XPM */
static char *out[] = {
/* columns rows colors chars-per-pixel */
"23 32 198 2 ",
"   c #0F0400",
".  c #0E0C06",
"X  c #0D0D0C",
"o  c #150600",
"O  c #1A0600",
"+  c #140C01",
"@  c #1B0C00",
"#  c #120D0D",
"$  c #190C0A",
"%  c #0D110D",
"&  c #161105",
"*  c #1C1201",
"=  c #1F1806",
"-  c #14120D",
";  c #1B150B",
":  c #1E190D",
">  c #0D0E12",
",  c #120E12",
"<  c #0E1013",
"1  c #131313",
"2  c #1B1716",
"3  c #191916",
"4  c #15171A",
"5  c #191618",
"6  c #171819",
"7  c #1B1B1B",
"8  c #240600",
"9  c #220D00",
"0  c #2D0E00",
"q  c #241300",
"w  c #2C1400",
"e  c #251A03",
"r  c #2B1B01",
"t  c #211409",
"y  c #261B0C",
"u  c #2B1B0D",
"i  c #301500",
"p  c #331B00",
"a  c #3B1B00",
"s  c #231B12",
"d  c #261C18",
"f  c #2C2002",
"g  c #2B220E",
"h  c #372300",
"j  c #3B2301",
"k  c #372803",
"l  c #3D2A03",
"z  c #2D2213",
"x  c #21201F",
"c  c #29211B",
"v  c #2D291C",
"b  c #332517",
"n  c #35281A",
"m  c #35291D",
"M  c #38301B",
"N  c #201E21",
"B  c #1F2024",
"V  c #242223",
"C  c #2A2624",
"Z  c #242429",
"A  c #282829",
"S  c #2D2B2C",
"D  c #332C23",
"F  c #332E2A",
"G  c #3A2F28",
"H  c #3C3124",
"J  c #34332E",
"K  c #3F342E",
"L  c #2F2F32",
"P  c #332E31",
"I  c #2D3031",
"U  c #343435",
"Y  c #3B3432",
"T  c #3D3B33",
"R  c #393739",
"E  c #3D3B3B",
"W  c #431E00",
"Q  c #422400",
"!  c #482500",
"~  c #452B00",
"^  c #4A2A00",
"/  c #462F0B",
"(  c #522F00",
")  c #463005",
"_  c #4A3200",
"`  c #4A3409",
"'  c #543400",
"]  c #553A03",
"[  c #52370B",
"{  c #523B0C",
"}  c #583D0B",
"|  c #4F3913",
" . c #623A00",
".. c #433534",
"X. c #433D34",
"o. c #483A30",
"O. c #423C3C",
"+. c #3E413F",
"@. c #5E4108",
"#. c #5E4212",
"$. c #5B451D",
"%. c #6E4600",
"&. c #6C4A0B",
"*. c #704700",
"=. c #704900",
"-. c #714D0F",
";. c #7E5509",
":. c #624511",
">. c #634D1A",
",. c #6E5617",
"<. c #6D521E",
"1. c #7B5110",
"2. c #7E5817",
"3. c #74541D",
"4. c #5C4C23",
"5. c #41403F",
"6. c #665025",
"7. c #6B5524",
"8. c #675128",
"9. c #745623",
"0. c #745B2B",
"q. c #715E33",
"w. c #7D6027",
"e. c #7A6331",
"r. c #3D3D41",
"t. c #433E42",
"y. c #424142",
"u. c #895F13",
"i. c #8C600C",
"p. c #84641A",
"a. c #8C621B",
"s. c #92681E",
"d. c #825B20",
"f. c #896525",
"g. c #937229",
"h. c #9B742F",
"j. c #8B6C37",
"k. c #926D35",
"l. c #9A7632",
"z. c #9A7536",
"x. c #9C7B35",
"c. c #967738",
"v. c #A17725",
"b. c #A67E3A",
"n. c #977F49",
"m. c #9D7A4A",
"M. c #9A803E",
"N. c #B0882E",
"B. c #AB853C",
"V. c #B1883D",
"C. c #B99336",
"Z. c #A88D46",
"A. c #A2864B",
"S. c #AD8F49",
"D. c #B68B42",
"F. c #B28E4E",
"G. c #B49348",
"H. c #AA8C52",
"J. c #BD9A53",
"K. c #B79858",
"L. c #BBA05F",
"P. c #C19645",
"I. c #C29F55",
"U. c #D2A64F",
"Y. c #C1A35C",
"T. c #CBA559",
"R. c #DDAF51",
"E. c #D3A75E",
"W. c #D8B55A",
"Q. c #E1B551",
"!. c #E7BB58",
"~. c #F1BF5E",
"^. c #C5A464",
"/. c #CAAA66",
"(. c #CCA96A",
"). c #D6AE62",
"_. c #D4AD69",
"`. c #DAB266",
"'. c #D8B76E",
"]. c #E4BB62",
"[. c #E7BD6B",
"{. c #E4BF71",
"}. c #ECC35D",
"|. c #F5C457",
" X c #F4C45D",
".X c #EEC463",
"XX c #EBC46D",
"oX c #E9C46E",
"OX c #F3C464",
"+X c #F2C56C",
"@X c #F7C868",
"#X c #F2CA6C",
"$X c #FBCA69",
"%X c #EDC373",
"&X c #E8C276",
"*X c #EFC975",
"=X c #F2CB76",
"-X c #F1C67B",
/* pixels */
"> X > # + @ Q a 9 9 a Q 0 8 0 j w @ + . # # , ",
"> 7 L C + $.Y.E.:.~ D.).j.a g.'.H.h ; A S 5 > ",
", Y O.X.e A. X XV.i.|.|.E.*.Q. X.X3.g O.r.Z > ",
"# N X.M q w.#XOXf. .Q.OXF.( C.$X`.] e T Y 2 > ",
"+ + * * @ r $.>.p 9 { >.k @ j 8./ 9 @ * * + # ",
"@ $.H.j.r @ t y + + * g + + ; y t 9 / n.n.l + ",
"j Y..XXX9.e O...V 1 Y X.F - F O...w B.OX+Xl.9 ",
"j Y.@X.X7.e O.t.x 1 R O.S # P t.Y e B.$X$Xh.9 ",
"q } b.d.r + s x % X 4 B 5 X 4 V 5 + ^ z.k.Q @ ",
"@ Q 1. .9 + & ; . % < 6 X 1 > 4 # o p &.&.w @ ",
"p S.$X!.#.= o.R N 1 U E C - A 5.F e g.}.OXp.@ ",
"j /.OX+Xw.w o.X.V 1 R O.J - J +.X.r G..X@Xx.@ ",
"w e._.F.l * n v ; - c D ; + 2 v z * >./.^.} t ",
"+ q a w @ @ k l * + p ~ q @ q l e * @ p p 8 + ",
". s H b @ >.W.W.-.^ P.[.z.a v.oXJ.Q q G D $ X ",
"1 S O.T e A..X|.V.a.OX X).=.R..X*X<.u E X.N X ",
"X V Y G 9 0.{.oXw.' ).-XH.^ D.-X(.` t E Y 2 > ",
"@ + 9 9 O i ] } q @ ~ #.a 9 j :.l 9 @ @ @ + . ",
"q <.I.h.a 9 u y + + = y ; + * e e @ ] Z.Z._ @ ",
"h ^.+X[.0.u t.t.Z < r.y.I % U E T f Z.oX*Xx.* ",
"h K.=X%X6.e E r.B 4 R r.S > P E J = M.*X-Xk.9 ",
"@ ' v.;.e & 3 7 1 < 6 7 1 > 1 7 3 + j s.a.W O ",
"9 ! i.%.q & 1 1 X % 1 7 > , , 2 - 9 j u.;.a @ ",
"p K.+X[.4.: T E 7 3 U E A X A O.J q c.=X%Xf.@ ",
"a _.~.[.q.g X.r.c 1 E y.S % U O...p F.XX*Xx.@ ",
"0 9.).b.Q $ b d ; + u b : & t b u 9 @.Y.K.] * ",
"& o w w + q _ ~ w 8 W [ w O p [ j @ O q q + . ",
"> d Y m @ 7.'.{.3.( ^.&Xm.Q b.&XL.) e K J 3 > ",
"< I T o.p A.OX XD.a.~. X`.*.Q.!.XX,.e +.E x X ",
"< B U D * 3.].].2.' U.+Xb.! N.#XT._ = U J 3 < ",
"% % , # + q / ` q @ j | r @ w { j @ & < 1 % > ",
"% < # , # $ +   . + + o + $ O o o $ X 1 + # , "
};
