/* XPM */
static char *out[] = {
/* columns rows colors chars-per-pixel */
"23 32 197 2 ",
"   c #0D0400",
".  c #0D0B02",
"X  c #0C0D0C",
"o  c #140400",
"O  c #150C01",
"+  c #1B0C00",
"@  c #120E0C",
"#  c #0F1003",
"$  c #0E110D",
"%  c #151204",
"&  c #1C1201",
"*  c #1E1800",
"=  c #13120C",
"-  c #1C130D",
";  c #1C1B0E",
":  c #0E0D11",
">  c #120D14",
",  c #0D1212",
"<  c #141413",
"1  c #1A1414",
"2  c #141915",
"3  c #1C1A17",
"4  c #16161A",
"5  c #151A19",
"6  c #1C1C1B",
"7  c #230600",
"8  c #230D00",
"9  c #280E00",
"0  c #231300",
"q  c #2B1400",
"w  c #241A04",
"e  c #2D1B00",
"r  c #24190C",
"t  c #251C0C",
"y  c #311400",
"u  c #3B1500",
"i  c #331D00",
"p  c #3A1D00",
"a  c #251C13",
"s  c #2C1D12",
"d  c #211D1D",
"f  c #2A1F18",
"g  c #1E221D",
"h  c #2F2502",
"j  c #2B210C",
"k  c #352201",
"l  c #3B2401",
"z  c #3C2904",
"x  c #3D2B0B",
"c  c #262216",
"v  c #2D2617",
"b  c #24241B",
"n  c #2C241E",
"m  c #2C2A1C",
"M  c #322613",
"N  c #322A13",
"B  c #322C1C",
"V  c #39301F",
"C  c #1F1F20",
"Z  c #231D22",
"A  c #242523",
"S  c #2A2720",
"D  c #2D2924",
"F  c #2B262B",
"G  c #2B2C2B",
"H  c #322C23",
"J  c #372C24",
"K  c #302F2D",
"L  c #2F342F",
"P  c #353222",
"I  c #3B3225",
"U  c #35322C",
"Y  c #353533",
"T  c #363A35",
"R  c #3C3B35",
"E  c #333738",
"W  c #3C363B",
"Q  c #363A39",
"!  c #3C3C3B",
"~  c #451D00",
"^  c #442400",
"/  c #482600",
"(  c #442C03",
")  c #4B2C00",
"_  c #552F00",
"`  c #4F3100",
"'  c #4F3A06",
"]  c #45310B",
"[  c #4C360D",
"{  c #4D3B0B",
"}  c #533401",
"|  c #593301",
" . c #543A04",
".. c #5B3B02",
"X. c #4A3311",
"o. c #4B3A13",
"O. c #673C00",
"+. c #423D35",
"@. c #423D3B",
"#. c #3D403E",
"$. c #5E4105",
"%. c #5C430E",
"&. c #5A4714",
"*. c #644102",
"=. c #6E4101",
"-. c #6B4905",
";. c #63420C",
":. c #744B03",
">. c #775209",
",. c #614916",
"<. c #6B4E11",
"1. c #6C4B19",
"2. c #6E5211",
"3. c #745316",
"4. c #7E5915",
"5. c #74561E",
"6. c #7F5C1C",
"7. c #434037",
"8. c #42413B",
"9. c #655220",
"0. c #6C5524",
"q. c #785924",
"w. c #7D5E24",
"e. c #785B31",
"r. c #3B3D40",
"t. c #433C43",
"y. c #414344",
"u. c #87580F",
"i. c #865D17",
"p. c #8B620E",
"a. c #8D641B",
"s. c #8D6A1B",
"d. c #A3751A",
"f. c #84642B",
"g. c #8C672A",
"h. c #936C22",
"j. c #916D29",
"k. c #9A762C",
"l. c #816638",
"z. c #8B7033",
"x. c #96793E",
"c. c #A37E37",
"v. c #A37D3B",
"b. c #8C7042",
"n. c #967944",
"m. c #B08639",
"M. c #BE933D",
"N. c #A68549",
"B. c #A8894A",
"V. c #B48A43",
"C. c #BB8E44",
"Z. c #BC9647",
"A. c #A08451",
"S. c #A78C52",
"D. c #B08D53",
"F. c #BB9A54",
"G. c #C39F47",
"H. c #C39F53",
"J. c #CDA44D",
"K. c #DEAC4A",
"L. c #CDAA51",
"P. c #C7A459",
"I. c #CEA85D",
"U. c #D8AF56",
"Y. c #D4AA5C",
"T. c #DDB252",
"R. c #DBB35D",
"E. c #E3BA5E",
"W. c #ECBD5B",
"Q. c #CBA962",
"!. c #CEAD6C",
"~. c #D2A964",
"^. c #D4AE66",
"/. c #D6B365",
"(. c #DCB562",
"). c #D9B46C",
"_. c #D6B570",
"`. c #E3B466",
"'. c #E1B56B",
"]. c #E5BB6E",
"[. c #E9BF69",
"{. c #E3BD75",
"}. c #EDC45C",
"|. c #F3C35D",
" X c #F6CA59",
".X c #EFC463",
"XX c #E5C26C",
"oX c #ECC36C",
"OX c #F4C562",
"+X c #F9C764",
"@X c #F4C963",
"#X c #F3C56A",
"$X c #F5CC6D",
"%X c #EDC573",
"&X c #E9C376",
"*X c #F2C976",
"=X c #F2C97B",
/* pixels */
", X 1 @ + 0 / u 7 8 l p 9 7 u ^ 9 + # $ X $ X ",
", C G c 8 e.).F.) $.P.Q.1.~ V.).b.0 ; L G , : ",
", Q y.I ^ ~.W.W.s.k. X XC.u.|.W.).( P Q E 4 X ",
"# H R N i N.$XW.*.6.}.@Xh.O.T.$XF.i M +.U 5 , ",
"O O 0 O + k 9.{ 0 w &.,.i 9 [ 0.z + + 0 & o . ",
"q e.S.5.0 O t * @ % t w O @ & 0 + 0 ,.S.l.h O ",
"O.'.#X/.] B 7.R 1 a R 7.S > R +.B z L.}.oX<.O ",
"=.`.+XR.x D ! Q 4 d +.W A < E @.B k L.|.XX2.O ",
"y 5.c.<.& = g 5 X < 6 d # X 4 Z 1 + ;.v.w.e + ",
"9 _ u.) + @ 2 2 : X = = . $ < 1 @ + ^ 4...0 + ",
"| Y.@XJ.p n W Y > 6 ! E g $ U +.v i C.+X`.$.+ ",
">.].}.'.[ H @.@.6 b 8.#.A < +.+.V z R.OX%Xw.o ",
"p N._.x.e r B f - - n H = . f J r 8 g.~.D.z o ",
"+ & k 0 O * z k + + l z & O u ] 8 9 ~ O.) 8 O ",
"@ c P j 8 z.XXJ._ -.R.(.3./ G.[.c.~ d.W.Z.( O ",
"2 E #.P z Q.}.}.a.k.|.|.V.i.W.W.^.:.K.W.%Xw.O ",
"$ G Q m 0 A.&X(.$.3.[.%Xf.| ~.=XB.) m.=X!.{ . ",
"$ X < = + h %.) 8 0  . .e 8 ) ;.p 7 ~ =.} + O ",
": 6 F 6 @ - s r O O t j @ O * j * 8 >.M.h.i + ",
"< E @.Y < F t.W 6 A #.y.A = W @.H x I.OX%X5.+ ",
"1 U ! K @ F @.W 1 6 ! r.b X Y ! S k P.#X].1.O ",
"O % w & . = d 1 > X g 6 @ < < g 1 + ..d.>.y + ",
"0 %.w. .% % 6 , , X 2 5 X = $ 2 # O } p.*.9 + ",
"} !.*XI.x c 7.T , 5 Q Q d @ L #.b h F.oX{.,.O ",
"-.].W.].o.m +.! 3 g ! t.F < T R H x ^..X&Xq.o ",
"p z.Y.j.0 * N t + - s s - O j N w 0 6.I.N.~ + ",
"+ & q 9 O 0  .^ 8 8 ) ` 9 7 z ' q + 0 q 8 + @ ",
"= m U s 0 n.].Y.| 1.'.].q._ H.&XS.e j U D > > ",
"< R ! I l !.|.OXs.k.+X@XC.i.OXW.).( B #.Q 6 > ",
"< F T s q n.%XU...>.E.oXi.} J.XXN.0 c E G > @ ",
"X $ < @ % 0 o.l + 0 ] X.8 + k &.w . = , : : < ",
"$ $ = @ # @ o o + % o   O @ .   # = X @ > > : "
};
