/* XPM */
static char *_802e2f84c494162b19cff1bfd8a411aWAyetMdoIIlP5eRt[] = {
/* columns rows colors chars-per-pixel */
"64 64 69 1 ",
"  c white",
". c #020E08",
"X c #02100A",
"o c #03140C",
"O c #03180E",
"+ c #041D11",
"@ c #052113",
"# c #052214",
"$ c #052616",
"% c #072E1B",
"& c #07321E",
"* c #083720",
"= c #0A4227",
"- c #0B4328",
"; c #13462E",
": c #0C502F",
"> c #1E4B35",
", c #0C5532",
"< c #224D38",
"1 c #0E6239",
"2 c #3D584B",
"3 c #117646",
"4 c #127D4A",
"5 c #216947",
"6 c #495D53",
"7 c #54615B",
"8 c #42775E",
"9 c #666968",
"0 c gray42",
"q c #0F834B",
"w c #13854E",
"e c #148A51",
"r c #158E53",
"t c #1E8A56",
"y c #159256",
"u c #169457",
"i c #119857",
"p c #169658",
"a c #179B5B",
"s c #139C5A",
"d c #139F5C",
"f c #179E5D",
"g c #17A15F",
"h c #18A25F",
"j c #23A366",
"k c #24A567",
"l c #28A569",
"z c #35A770",
"x c #36AB73",
"c c #37AE74",
"v c #68BD94",
"b c #6BC198",
"n c #6DC49A",
"m c #8D9692",
"M c #9D9D9D",
"N c #AFC6BB",
"B c #B1C7BC",
"V c #D9D8D9",
"C c #DEDADC",
"Z c #CCEADB",
"A c #CEECDD",
"S c #D3ECE0",
"D c #D4EEE2",
"F c #E1EFE8",
"G c #E4F4EC",
"H c #E8F8F0",
"J c gray98",
"K c #FDFBFC",
"L c white",
/* pixels */
"                                                                ",
"                                                                ",
"                                                                ",
"                                                                ",
"                                                                ",
"                                                                ",
"                                                                ",
"                                                                ",
"                                                                ",
"                                                                ",
"                                                                ",
"                                                                ",
"                                                                ",
"                                                                ",
"                                                                ",
"                                                                ",
"                                                                ",
"                                                                ",
"                                                                ",
"                                                                ",
"                                                                ",
"                                                                ",
"                                                                ",
"                                                                ",
"                                                                ",
"                                                                ",
"                                                                ",
"                                                                ",
"                                                                ",
"                                                                ",
"                                                                ",
"                                                                ",
"                                                                ",
"                                                                ",
"                                                                ",
"                                                                ",
"                                                                ",
"                                                                ",
"                                                                ",
"             X:11115mMMM8111111111111111111111111,o             ",
"             +rhgggcHLLLndgggggggggggggggggggggggu$             ",
"             +effffxGLLLbsfffffffffffffffffffffffy$             ",
"             +effffxGLLLbsfffffffffffffffffffffffy$             ",
"             +effffxGLLLbsfffffffffffffffffffffffy$             ",
"             +effffxGLLLbsfffffffffffffffffffffffy$             ",
"             +effffxGLLLbsfffffffffffffffffffffffy$             ",
"             +effffxGLLLbsfffffffffffffffffffffffy$             ",
"             +effffxGLLLbsfffffffffffffffffffffffy$             ",
"             +wfaaazFKJJviaaaaaaaaaaaaaaaaaaaaaafr$             ",
"              &*===;67902<>-====================*&.             ",
"               O3wwwqtBVVCNtwwwwwwwwwwwwwwwwwww4#               ",
"               @rgffflDLLLAkffgggfffffgggfffffgp%               ",
"               @rfffflSLLLZjfffffffffffffffffffu%               ",
"               @rfffflSLLLZjfffffffffffffffffffu%               ",
"               @rfffflSLLLZjfffffffffffffffffffu%               ",
"               @rfffflSLLLZjfffffffffffffffffffu%               ",
"               @rfffflSLLLZjfffffffffffffffffffu%               ",
"               @rfffflSLLLZjfffffffffffffffffffu%               ",
"               @rfffflSLLLZjfffffffffffffffffffu%               ",
"               @rfffflSLLLZjfffffffffffffffffffu%               ",
"               @rfffflSLLLZjfffffffffffffffffffu%               ",
"                                                                ",
"                                                                ",
"                                                                "
};
