/* XPM */
static char *xpm_[] = {
/* columns rows colors chars-per-pixel */
"64 64 119 2 ",
"   c #00CE00",
".  c #00CE02",
"X  c #00CF07",
"o  c #00CF1B",
"O  c #00D035",
"+  c #00D036",
"@  c #00D037",
"#  c #00D03A",
"$  c #19D140",
"%  c #1CD141",
"&  c #1DD141",
"*  c #1DD142",
"=  c #1ED142",
"-  c #24D144",
";  c #27D245",
":  c #26D246",
">  c #27D246",
",  c #28D246",
"<  c #29D246",
"1  c #2AD247",
"2  c #2BD248",
"3  c #2DD249",
"4  c #2ED249",
"5  c #30D24B",
"6  c #33D24C",
"7  c #34D24D",
"8  c #35D34E",
"9  c #3BD251",
"0  c #3BD352",
"q  c #3DD353",
"w  c #3FD354",
"e  c #41D355",
"r  c #42D356",
"t  c #41D455",
"y  c #40D456",
"u  c #43D457",
"i  c #47D359",
"p  c #46D35A",
"a  c #47D35A",
"s  c #44D458",
"d  c #45D458",
"f  c #46D459",
"g  c #46D45A",
"h  c #47D45A",
"j  c #47D55A",
"k  c #47D55B",
"l  c #47D65B",
"z  c #48D45B",
"x  c #49D45B",
"c  c #48D65B",
"v  c #48D75B",
"b  c #49D45C",
"n  c #4AD45C",
"m  c #4BD45D",
"M  c #4AD55D",
"N  c #4CD45E",
"B  c #4DD45E",
"V  c #4CD55E",
"C  c #4DD55E",
"Z  c #4ED55F",
"A  c #49D95C",
"S  c #4ADE5E",
"D  c #4BDF5E",
"F  c #4FD560",
"G  c #4FD561",
"H  c #53D563",
"J  c #5AD669",
"K  c #61D76E",
"L  c #66D873",
"P  c #4CE160",
"I  c #4CE260",
"U  c #4CE360",
"Y  c #4CE561",
"T  c #51F267",
"R  c #7ADB84",
"E  c #82DC8B",
"W  c #85DD8D",
"Q  c #89DE91",
"!  c #8CDF94",
"~  c #8DDF95",
"^  c #94E09B",
"/  c #95E19D",
"(  c #A2E3A8",
")  c #A6E4AB",
"_  c #ADE6B2",
"`  c #AFE7B4",
"'  c #B0E7B5",
"]  c #B4E8B8",
"[  c #B5E8B9",
"{  c #B8E9BC",
"}  c #BEEBC2",
"|  c #C0EBC2",
" . c #C2ECC5",
".. c #C6ECC9",
"X. c #CAEECC",
"o. c #CEEFD0",
"O. c #CFF0D2",
"+. c #D6F1D8",
"@. c #D5F2D8",
"#. c #D6F2D9",
"$. c #DDF4DF",
"%. c #E1F5E2",
"&. c #E6F7E8",
"*. c #E7F7E8",
"=. c #EEFAF0",
"-. c #F1FAF2",
";. c #F2FBF3",
":. c #F3FBF3",
">. c #F4FBF5",
",. c #F4FCF6",
"<. c #F8FDF8",
"1. c #F9FDF9",
"2. c #F9FDFA",
"3. c #FAFEFB",
"4. c #FBFEFB",
"5. c #FCFFFD",
"6. c #FDFFFD",
"7. c white",
"8. c None",
/* pixels */
"8.8.8.8.8.8.8.8.8.8.8.8.8.8.8.8.8.8.8.8.8.8.8.8.8.8.8.8.8.8.8.8.8.8.8.8.8.8.8.8.8.8.8.8.8.8.8.8.8.8.8.8.8.8.8.8.8.8.8.8.8.8.8.8.",
"k T S I U U I I I I U U I I I I U U I I I I U U I I I I U U I I I I U U I I I I U U I I I I U U I I I I U U I I I I U U I I Y A ",
"z D p p i i i i i p i i i i p i i i i i p i i i i i p i i i i i p i i i i i p i i i i i p i i i i i p i i i i i p i i i i k k z ",
"z U p z d z z d z z z k z p k z i k i k z k p z z p k z i k i k z k p z z p k z i k i k z k p z z p k z i k i k z k p z k v z k ",
"v U i z z d z z k i k i k i k i k i k i k i k i k i k i k i k i k i k i k i k i k i k i k i k i k i k i k i k i z d d z d z z k ",
"z U i d z z d z i k i k i k i k i k i k i k i k i k i k i k i k i k i k i k i k i k i k i k i k i k i k i k i k z z z z z p z v ",
"v U k z d d z z k i k i k i k i k i k i k i k i k i k i k i k i k i k i k i k i k i k i k i k i k i k i k i k i d z z d z p v v ",
"z U d z z z z d i k i k i k i k i k i k i k i k i k i k i k i k i k i k i k i k i k i k i k i k i k i k i k i k d z z d k d v k ",
"z U i i k i k i k i k i k i k i k i k i k i k i k i k i k i k i k i k i k i k i k i k i k i k i z d d z d z z z z z d z z i z z ",
"z U i k i k i k i k i k i k i k i k i k i k i k i k i k i k i k i k i k i k i k i k i k i k i k z z z z z z d d z d z z d i v v ",
"v U i i k i k i k i k i k i k i k i k i k i k i k i k i k i k i k i k i k i k i k i k i k i k i d z z d z d z z z z d d k p z v ",
"v U i k i k i k i k i k i k i k i k i k i k i k i k i k i k i k i k i k i k i k i k i k i k i k d z z d z z d z d z z z k k k v ",
"z U d z k i k i k i k i k i k i k i k i k i k i k i k i k i k i k i k i k i k i k i k i k i k i z z z d z d z z z d d z p p z z ",
"v U d z i k i k i k i k i k i k i k i k i k i k i k i k i k i k i k i k i k i k i k i k i k i k z d z z z d z d z z z z z i v v ",
"z U i z k i k i k i k i k i k i k i k i k i k i k i k i k i k i k i k i k i k i k i k i k i k i d z d z z z d z d z z d k i z v ",
"v U i i i k i k i k i k i k i k i k i k i k i k i k i k i k i k i k i k i k i k i k i k i k i k z z d z d z z z d z p k d k k v ",
"v U i z d d z z z d z z z d z z d z z d z z z d k i k i k i k i z z z d z d d z z d d z d z z z z z d z d z z z d z z d z p z z ",
"z U i z z z z d z d z d z z d z d z z d z d z z i k i k i k i k d d z z z z z z z z z z z z d d d z d z z z d z d z z d z i v v ",
"v U i d z z z d z z d z d d z z z z z z d z d z k i k i k i k i z z d z d z z d d z z d z d z z z d z z z d z d z z z z k i z v ",
"v U i z d d z z d z z z z z z d z d d z z z d z i k i k i k i k z d z z d z z d d z z d z z d z z z z d z d z z z d d z d k k v ",
"z U d z z z z d z z d d d z z z z d d z z z d z k i k i k i k i z z d z d z z z z z z d z d z z d z z d z z d z z z z d z p z z ",
"v U i i z d z z d z z z z z d d z z z z d z d z i k i k i k i k d z d z z z d z z d z z z d z d d z z d z d z z d d z z k i k v ",
"z U i z d z d z d z z z z d z z d z z d z d z z k i k i k i k i z d z z z d z d d z d z z z d z z z z z z z d d z z d z k i v k ",
"v U d z z z d z z z d d z z d z d z z d z z z d i k i k i k i k z z z d z d z z z z d z d z z z z d d z d z z z z d z z d k k v ",
"v U i z z z d d z z z d z d z z z z z d z d z z z z d z k k i p d z z k p z z d d z z z d z z d z z z d z d d z z d z z d i z z ",
"z U i i d z z z z d z z z d z d z d z z z d z d d z d z k z Z C C Z z z z d z z z z d z d z z d d d z z z z z z z z d z z i v v ",
"v U i z d z z z d z d z z z d z d z d z z z d z z d z z z d O ; < O d z d z d z z d z d z z z z z z d z d z z d d d z z k p k v ",
"v U i d z z d d z z d z d z z z z z d z d z z z z z i z d z | *.*.| F e z z d z z d z z z d d z z d z z d z z d z z z d p k v k ",
"v U i z z d z z z d z z d z z d z d z z d z z d d z z C # +.6.[ ' 6.@.- Z z z k z d z z z d d z z z d z d z z z z z z d z i z z ",
"z U i d z z d z z z d z d z z d z z d z d z z d d z z t F 1.]     ) 3.J w i z p z d z d z z z z d z d z z z d z d d z z d i v v ",
"v U i z d d z z d d z z z z z z d d z z z z z z z z z z 9 =.o.o   ..:.t d z d z z z d z d z z d z d z z z d z d z z d z k p z v ",
"v U i z z z z d z z z d z d d z z z z d z d d z z d z C < Q 1.%.$.3.! < Z z d z d z z z d z z d z z z d z d z z z d z p k k k v ",
"z U i i k i k i k i k i k i k i k i k i k i k i p k p m 5 [ <.+.@.:.{ 7 m p z k d z z z d z z d z z z d z d z z z d z z d i z z ",
"z U i k i k i k i k i k i k i k i k i k i k i k z p Z 4 E 6.(   X ^ 6.! > B z p z z d z d z z d z d z z z d z d z z d z z i v v ",
"v U i i k i k i k i k i k i k i k i k i k i k i k p Z @ ) 6.H 9 p t 3.` O Z k p z d z d z z z z d z d z z z d z d d z z k k z v ",
"z U i k i k i k i k i k i k i k i k i k i k i k d z Z 7 R 6.X.Z i } 6.W 4 Z d z z d z z z d d z z z d z d z z z z z z d i k k v ",
"v U d z k i k i k i k i k i k i k i k i k i k i z z z C < _ 6.:.<.6.[ 2 m k p z z d z z z d d z z d z z d z z d z d d z k p z k ",
"v U d z i k i k i k i k i k i k i k i k i k i k z d z d x = K ^ / L # i p z i k z d z d z z z z z z d z d z z d z z z z i p v k ",
"z U i z k i k i k i k i k i k i k i k i k i k i k i k i x C i # - 9 Z k k i k i z z d z d z z d d d z z z z z z d z z d z d z v ",
"v U i i i k i k i k i k i k i k i k i k i k i k i k i k x x F Z Z i i k i k i k d z z z d z z d z z z d z d d z d z z d k k k v ",
"z U i z d d z z k i k i k i k i k i k i k i k i z z d d z z d z z i z d z d z z z z d z d z z z z d d z d z z z z z d z z i z z ",
"v U i z z z z d i k i k i k i k i k i k i k i k d z z z z d z z z z z z z d z d d z d z z z d z z z z z z z d d z d z z d i z v ",
"v U i d z z z d k i k i k i k i k i k i k i k i d z z z z z d d d z d z z z d z z d z z z d z d d z z d z d z z z z d d k p v v ",
"z U i z d d z z i k i k i k i k i k i k i k i k z z d d d z z z z z d z d z z z z z z d z d z z d z z d z z d z d z z z k k v k ",
"v U d z z z z d k i k i k i k i k i k i k i k i d z z z z z z d z d z z d z z d d z z d z z d z z z z d z d z z z d d z p p z z ",
"z U i i z d z z i k i k i k i k i k i k i k i k z z d z d d z z z z d z d z z d d z z d z d z z z d z z z d z d z z z z z i z v ",
"v U i z d z d z k i k i k i k i k i k i k i k i z d z d z z d z d d z z z z z z z z z z z z d d d z d z z z d z d z z d k i v v ",
"v U d z z z d z i k i k i k i k i k i k i k i k z d z z z d z z z z z d z d d z z d d z d z z z z z d z d z z z d z p k d k v k ",
"z U i z z z d d z z d z z z d z z d z z z d z z d d z z z z d d z d d z d z z z d z z z z z z d z z d z d z z z d z z d z p z z ",
"v U i i d z z z z d z z d z d z z d z d z z d z z z z d d z z z z z z z z z d d z z d d d d z z d z d z z z d z d z z d z i z v ",
"v U i z d z z z z z d d z d z z z z d z d d z z z z z d d z z z d z z d z d z z z d z z z z d z z d z z z d z d z z z z k i v v ",
"v U i d z z d d d z z z z z z d d z z z z z z d d d z z z z d d d z z d z z d z z z d z z d z z z z z d z d z z z d d z d k v k ",
"z U i z z d z z z z z d d d z z z z d d d z z z z z d z z d z z z z z d z d z z d d z z z z d d d z z d z z d z i k i k k i z z ",
"v U i d z z d z d d z z z z z d d z z z z z d d z d z z z z d z z d z z z d z d z z z d d z z z d z z d z d z z k i k i p i z v ",
"v U i z d d z z z z d z z z z d d z z z z d z z z z d d d d z z d z d z z z d z z z z d d z z z z z z z z z d d i k i k k p v v ",
"z U i z z z z d z d z z d d z z z z d d z z d z d z z z z z z d z z d z d z z z d d z z z z d d z d d z d z z z k i k i k k v k ",
"v U d z z z z d z d z z d d z z z z d d z z d z d z z z z z z d z d z z d d z z z d z z z d z z z d d z d z z z i k i k i p z k ",
"z U i i d d z z z z d z z z z d d z z z z d z z z z d d d d z z z z d z z z z d z d z d z z d z z z z z z z d d k i k i k i z k ",
"v U i z z z d z d d z z z z z d d z z z z z d d z d z z z z d z d d z z z z z d z z d z d d z z d z z d z d z z i k i k k i v v ",
"v U d z z d z z z z z d d d z z z z d d d z z z z z d z z d z z z z z d d d z z d z z z z z z d d z z d z z d z k i k i d k v k ",
"z U i z z z d d d z z z z z z d d z z z z z z d d d z z z z d d d z z z z z z d z z d d d z z z z z z d z d z z z d d z z p z z ",
"v U i i d z z z z z d d z d z z z z d z d d z z z z z d d z z z z z d d z d z z d z z z z z d d z d z z z d z d z z z z k i v k ",
"v U i z d z z z z d z z d z d z z d z d z z d z z z z d d z z z z d z z d z d z d z z z z d z z d z d z z z d z d z z d z d z v ",
"v U i d z z d d z z d z z z d z z d z z z d z z d d z z z z d d z z d z z z d z z z d d z z d z z z d z d z z z d z z d k k k v "
};
