/* XPM */
static char *xpm_[] = {
/* columns rows colors chars-per-pixel */
"64 64 97 2 ",
"   c #00CE18",
".  c #08D13B",
"X  c #0CD13C",
"o  c #10D13D",
"O  c #11D13D",
"+  c #12D13D",
"@  c #15D13E",
"#  c #19D13F",
"$  c #1DD242",
"%  c #21D143",
"&  c #25D245",
"*  c #2AD247",
"=  c #34D34D",
"-  c #37D24D",
";  c #35D34E",
":  c #36D34E",
">  c #37D34F",
",  c #3BD351",
"<  c #3FD355",
"1  c #40D355",
"2  c #41D356",
"3  c #42D357",
"4  c #43D457",
"5  c #46D259",
"6  c #47D259",
"7  c #46D359",
"8  c #46D35A",
"9  c #47D35A",
"0  c #45D459",
"q  c #46D459",
"w  c #47D459",
"e  c #46D45A",
"r  c #47D45A",
"t  c #48D45A",
"y  c #48D45B",
"u  c #48D75B",
"i  c #49D45C",
"p  c #4AD45C",
"a  c #4AD45D",
"s  c #4BD45D",
"d  c #4CD45D",
"f  c #4CD45E",
"g  c #4ED55F",
"h  c #49D85B",
"j  c #48D95B",
"k  c #48DA5B",
"l  c #48D85C",
"z  c #49D85C",
"x  c #49DA5C",
"c  c #49DA5D",
"v  c #49DB5D",
"b  c #4ADB5D",
"n  c #4ADB5E",
"m  c #49DC5D",
"M  c #4ADD5D",
"N  c #49DC5E",
"B  c #49DD5E",
"V  c #49DC5F",
"C  c #4ADC5E",
"Z  c #4ADD5E",
"A  c #4ADE5E",
"S  c #4BDE5F",
"D  c #4ADF5F",
"F  c #4BDF5F",
"G  c #4BE05F",
"H  c #58D667",
"J  c #65D872",
"K  c #66D874",
"L  c #6DDA7A",
"P  c #6EDA7A",
"I  c #6FDA7B",
"U  c #70DA7C",
"Y  c #71DA7C",
"T  c #4CE160",
"R  c #4CE260",
"E  c #4DE762",
"W  c #4EEA63",
"Q  c #50EE65",
"!  c #8ADE91",
"~  c #91DF98",
"^  c #9BE2A1",
"/  c #9DE3A3",
"(  c #9FE3A5",
")  c #A0E3A5",
"_  c #A0E3A6",
"`  c #A2E4A8",
"'  c #BFEBC2",
"]  c #C7EECA",
"[  c #D6F1D8",
"{  c #E2F5E4",
"}  c #EEF9EF",
"|  c #FAFEFB",
" . c #FCFFFC",
".. c #FDFFFD",
"X. c #FDFFFE",
"o. c white",
"O. c None",
/* pixels */
"F F h v v V F v v V v V F v v V v V v V v V v V F v v V v V v V v V v V F v v V v V F V F v v V v V v V v V F V F v v V v V V V ",
"F E u v v v v v v v v v v v v v v v v v v v v v v v v v v v v v v v v v v v v v v v v y v v v v v v v v v v v y v v v v v y T T ",
"v F 5 5 w w w w 5 5 w w w 5 5 5 0 0 0 0 5 w w w w 5 5 5 0 0 0 0 5 w w w w 5 5 5 0 0 0 0 5 w w 0 5 5 5 5 0 0 w 0 5 w w 0 5 5 F v ",
"F T 5 w y w w 5 5 y w y w u 5 y y w y w y 5 w y w u 5 y y w y w y 5 w y w u 5 y y w y w w y w y w u 5 u y w y 0 w y w y w w v N ",
"v F 5 y 5 u 5 y w y w y w y w y 0 y w y 0 y 0 y w y 0 y w y 0 y 0 y 0 y w y w y 0 y w y 0 y 0 y w y w y 0 y w y y 0 y 0 y w v V ",
"F F u 5 y 5 u 5 y 0 y 0 y w y w y w y 0 y w y w y w y w y 0 y w y w y w y w y w y w y 0 y w y w y w y w y w y 0 w y w y w y v V ",
"v G 5 y 5 u 5 u 0 y w y w y w y 0 y 0 y w y 0 y w y w y w y w y w y 0 y 0 y w y 0 y 0 y w y 0 y w y w y 0 y 0 y y 0 y w y w v V ",
"v F u 5 u 5 y 5 y w y 0 y 0 y w y w y w y 0 y w y w y w y 0 y 0 y 0 y w y w y w y w y w y 0 y w y w y w y w y w w y 0 y w y v V ",
"F V 5 y w y w y 0 y w y 0 y 0 y 0 y w y w y 0 y 0 y 0 y 0 y 0 y w y w y 0 y w y w y w y 0 y w y y 0 y 0 y 0 y 0 y 0 y w y w v V ",
"N T y w y 0 y 0 y w y 0 y w y w y w y 0 y 0 y w y w y w y w y w y 0 y 0 y w y 0 y 0 y 0 y w y 0 w y w y w y w y w y 0 y 0 y v V ",
"F F 8 y 0 y w y 0 y 0 y w y 0 y 0 y 0 y w y w y w y 0 y w y 0 y 0 y w y 0 y 0 y 0 y w y 0 y 0 y y 0 y w y 0 y w y w y w y 0 v V ",
"v F 8 0 y w y 0 y w y w y 0 y w y w y w y 0 y 0 y 0 y w y 0 y w y w y 0 y w y w y w y 0 y w y w w y 0 y w y 0 y 0 y 0 y w y v V ",
"F F 5 w w y 0 y w y w y 0 y 0 y 0 y w y 0 y 0 y w y w y 0 y w y w y 0 y w y 0 y w y 0 y w y 0 y y w y 0 y w y w y 0 y 0 y w v V ",
"v F y w y 0 y w y 0 y 0 y w y w y w y 0 y w y w y 0 y 0 y w y 0 y 0 y w y 0 y w y 0 y w y 0 y w 0 y w y 0 y 0 y w y w y 0 y v V ",
"F V 5 y w y w y 0 y w y w y 0 y 0 y 0 y w y 0 y 0 y w y 0 y 0 y w y w y w y w y w y w y w y w y y 0 y 0 y w y 0 y 0 y w y 0 v V ",
"N T y w y 0 y 0 y w y 0 y 0 y w y w y w y 0 y w y w y 0 y w y w y 0 y 0 y 0 y 0 y 0 y 0 y 0 y 0 w y w y 0 y w y w y 0 y w y v V ",
"F F 8 y w y w y w y 0 y 0 y w y 0 y w y 0 y 0 y 0 y w y w y 0 y y 0 y 0 y 0 y 0 y 0 y 0 y 0 y 0 y w y 0 y w y w y 0 y w y w v V ",
"v F 8 w y w y w y 0 y w y w y 0 y w y 0 y w y w y w y 0 y 0 y w w y w y w y w y w y w y w y w y 0 y w y 0 y 0 y w y 0 y 0 y v V ",
"F F 5 y w y 0 y w y w y 0 y 0 y 0 y 0 y w y 0 y 0 y 0 y w y w y y 0 y w y 0 y w y 0 y w y 0 y w y 0 y 0 y w y 0 y w y w y 0 v V ",
"v F w w y 0 y w y 0 y 0 y w y w y w y w y 0 y w y w y w y 0 y 0 w y 0 y w y 0 y w y 0 y w y 0 y w y w y 0 y w y 0 y 0 y w y v V ",
"F V 5 y 0 y 0 y w y 0 y w y w y w y w y 0 y 0 y 0 y w y 0 y w y y w y 0 y w y w y w y 0 y w y w y 0 y w y 0 y w y 0 y 0 y w v V ",
"N T y w y w y w y 0 y w y 0 y 0 y 0 y 0 y w y w y w y 0 y w y w 0 y w y 0 y 0 y 0 y w y 0 y 0 y w y 0 y w y 0 y w y w y 0 y v V ",
"F F 8 y w y 0 y w y w y 0 y w y 0 y w y w y 0 y 0 y 0 y w y w y y 0 y 0 y w y 0 y 0 y 0 y w y 0 y w y w y w y w y 0 y w y 0 v V ",
"v F 8 0 y 0 y w y 0 y 0 y w y 0 y w y 0 y 0 y w y w y w y 0 y w w y w y 0 y w y w y w y 0 y w y 0 y 0 y 0 y 0 y w y 0 y w y v V ",
"F F 5 w w y 0 y 0 y 0 y w y 0 y 0 y 0 y w y 0 y 0 y 0 y y w y y y y y w y w y w y w y w y 0 y w y 0 y 0 y 0 y 0 y 0 y w y w v V ",
"v F y w y 0 y w y w y w y 0 y w y w y w y 0 y w y w y w w w y a > 3 y w w y w y 0 y 0 y w y 0 y w y w y w y w y w y 0 y 0 y v V ",
"F V 5 y w y w y w y 0 y w y w y w y 0 y w y w y 0 y 0 y w g w * I H 0 w y 0 y 0 y w y 0 y w y w y 0 y w y 0 y w y w y w y 0 v V ",
"N T y w y 0 y 0 y 0 y w y 0 y 0 y 0 y w y 0 y 0 y w y 0 a % X ' X.^ $ a w y w y 0 y w y 0 y 0 y w y 0 y w y 0 y 0 y 0 y w y v V ",
"F F 8 y w y w y 0 y w y 0 y w y 0 y w y 0 y w y w y w a = / } X.X.( $ f y w y 0 y w y w y 0 y 0 y w y 0 y w y w y 0 y 0 y w v V ",
"v F 8 w y w y 0 y w y 0 y w y 0 y w y 0 y w y 0 y 0 y a $ ] [ ! | ( X f 0 y w y 0 y 0 y w y w y 0 y w y 0 y 0 y w y w y 0 y v V ",
"F F 5 y w y 0 y 0 y 0 y 0 y 0 y 0 y 0 y 0 y 0 y w y w y y <   J | ( . f y 0 y 0 y w y 0 y 0 y w y 0 y 0 y w y 0 y 0 y w y 0 v V ",
"v F w w y w y w y w y w y w y w y w y w y w y w y 0 y 0 y a < U X.` $ f w y w y 0 y w y w y 0 y w y w y 0 y w y w y 0 y w y v V ",
"v T 0 y w y w y w y w y w y w y w y w y w y w y w y w y w a ; L X.( X g u y 5 u 5 u 5 y 5 u 5 u 5 u 5 u 5 u 5 u 5 u 5 y 5 u v v ",
"N T 8 w y 0 y 0 y 0 y 0 y 0 y 0 y 0 y 0 y 0 y 0 y 0 y w w a ; I X.( + g y 5 u 5 y 5 u 5 u 5 u 5 y 5 y 5 u 5 y 5 y 5 u 5 u 5 v V ",
"F V 5 y 0 y w y 0 y w y 0 y w y 0 y w y 0 y w y 0 y w y y a ; L X.( + g 5 u 5 y 5 u 5 u 5 u 5 y 5 y 5 u 5 y 5 y 5 u 5 u 5 u v V ",
"F T y 0 y w y 0 y w y 0 y w y 0 y w y 0 y w y 0 y w y w w a = I X.` . g y 5 u 5 u 5 y 5 y 5 u 5 u 5 u 5 u 5 u 5 u 5 y 5 y 5 v V ",
"v T w w w y 0 y 0 y 0 y w y 0 y 0 y 0 y w y 0 y 0 y 0 y y y , K { ~ & g 5 u 5 y 5 u 5 u 5 u 5 y 5 u 5 y 5 u 5 u 5 y 5 u 5 u v V ",
"v V 8 w y 0 y w y w y w y 0 y w y w y w y 0 y w y w y w w y y 0 - 2 u 5 u 5 u 5 u 5 y 5 y 5 u 5 y 5 u 5 u 5 u 5 u 5 u 5 u 5 v V ",
"v T 8 y w y w y w y 0 y w y w y w y 0 y w y w y w y 0 y y 0 y w y y 5 y 5 y 5 u 5 y 5 y 5 u 5 u 5 u 5 u 5 u 5 y 5 u 5 y 5 y v V ",
"F T 8 w y 0 y 0 y 0 y w y 0 y 0 y 0 y w y 0 y 0 y 0 y w w y 0 y y y u 5 u 5 u 5 u 5 u 5 u 5 u 5 u 5 y 5 y 5 u 5 y 5 u 5 u 5 v V ",
"v V y 5 u 5 y 5 w y 0 y 0 y w y 0 y w y 0 y 0 y y 0 y 0 y w y 0 5 u 5 u 5 u 5 u 5 y 5 u 5 u 5 y 5 y 5 u 5 u 5 u 5 u 5 u 5 u v V ",
"F T 5 y 5 u 5 u y 0 y w y w y 0 y w y 0 y w y w w y w y 0 y w y y 5 y 5 u 5 y 5 u 5 u 5 y 5 u 5 u 5 u 5 u 5 y 5 u 5 u 5 y 5 v V ",
"v V u 5 u 5 u 5 w y w y 0 y 0 y 0 y 0 y w y 0 y y 0 y w y 0 y 0 5 y 5 u 5 y 5 y 5 u 5 y 5 u 5 u 5 u 5 y 5 y 5 u 5 u 5 y 5 u v V ",
"v T 5 u 5 u 5 y y 0 y 0 y w y w y w y w y 0 y w w y 0 y w y w y u 5 u 5 u 5 u 5 y 5 u 5 u 5 y 5 y 5 u 5 u 5 y 5 y 5 u 5 y 5 v V ",
"F G y 5 y 5 u 5 w y 0 y w y w y w y w y 0 y 0 y y 0 y 0 y w y w 5 u 5 y 5 u 5 u 5 u 5 u 5 y 5 u 5 u 5 y 5 y 5 u 5 y 5 u 5 u v V ",
"v T 5 y 5 u 5 y y 0 y w y 0 y 0 y 0 y 0 y w y w w y w y 0 y 0 y y 5 u 5 u 5 u 5 u 5 u 5 u 5 y 5 u 5 u 5 u 5 u 5 u 5 u 5 u 5 v V ",
"v F y 5 u 5 u 5 w y w y 0 y w y 0 y w y w y 0 y y 0 y w y w y 0 5 u 5 u 5 u 5 y 5 u 5 y 5 y 5 u 5 u 5 u 5 u 5 u 5 u 5 y 5 y v V ",
"v T 5 u 5 y 5 u y 0 y 0 y w y 0 y w y 0 y 0 y w w y 0 y 0 y w y u 5 y 5 y 5 u 5 y 5 u 5 u 5 u 5 u 5 y 5 y 5 u 5 y 5 u 5 u 5 v V ",
"F F y 5 u 5 y 5 u 5 y 5 u 5 y 5 y 0 y 0 y w y 0 y 0 y w y 0 y 0 0 y 0 y 0 y 0 y 0 y 0 y 0 y 0 y 5 u 5 u 5 u 5 u 5 u 5 y 5 u v V ",
"v F 5 u 5 u 5 u 5 y 5 u 5 u 5 u w y w y 0 y w y w y 0 y w y w y y w y w y w y w y w y w y w y w y 5 y 5 u 5 y 5 y 5 u 5 u 5 v V ",
"F F y 5 y 5 u 5 u 5 y 5 u 5 u 5 y 0 y w y 0 y 0 y w y w y 0 y w w y 0 y w y 0 y w y 0 y w y 0 y 5 y 5 u 5 y 5 y 5 u 5 u 5 y v V ",
"v F 5 u 5 u 5 y 5 u 5 u 5 u 5 y w y 0 y w y w y 0 y 0 y w y 0 y y 0 y w y 0 y w y 0 y w y 0 y w u 5 u 5 u 5 u 5 u 5 y 5 u 5 v V ",
"v F y 5 u 5 u 5 u 5 u 5 y 5 u 5 y 0 y 0 y w y w y w y 0 y w y 0 w y w y 0 y w y w y w y 0 y w y 5 u 5 y 5 u 5 u 5 u 5 u 5 y v V ",
"v T 5 y 5 u 5 u 5 y 5 u 5 u 5 y w y w y 0 y 0 y 0 y w y 0 y w y y 0 y 0 y w y 0 y 0 y 0 y w y 0 y 5 u 5 u 5 u 5 u 5 y 5 u 5 v V ",
"C F y 5 y 5 u 5 u 5 y 5 u 5 u 5 y 0 y w y w y 0 y 0 y 0 y 0 y 0 0 y w y 0 y 0 y 0 y w y 0 y 0 y 5 u 5 u 5 u 5 y 5 y 5 u 5 u v V ",
"C T 5 u 5 u 5 y 5 y 5 u 5 y 5 u w y 0 y 0 y w y w y w y w y w y y w y 0 y w y w y w y 0 y w y w u 5 y 5 y 5 u 5 u 5 y 5 u 5 v V ",
"v T 5 y y w y w u 5 u 5 y 5 u 5 y 0 y 0 y w y 0 y 0 y 0 y 0 y 0 w y 0 y w y w y 0 y w y w y 0 y y 0 y 0 y 0 y 0 5 u 5 y 5 u v V ",
"N T y w 0 y 0 y 5 u 5 u 5 u 5 y w y w y 0 y w y w y w y w y w y y 0 y w y 0 y 0 y w y 0 y 0 y w w y w y w y w y y 5 u 5 u 5 v V ",
"N T 8 y y w y 0 y 5 u 5 u 5 u 5 y 0 y w y 0 y 0 y 0 y w y 0 y w w y w y 0 y w y 0 y 0 y w y w y y 0 y w y 0 y w 5 u 5 u 5 y v V ",
"N F 5 y 0 y w y 5 u 5 y 5 y 5 u w y 0 y w y w y w y 0 y w y w y y 0 y 0 y w y 0 y w y w y 0 y 0 w y 0 y w y 0 y u 5 y 5 u 5 v V ",
"N F 5 w w w y w y w w w u 5 u 5 y w y 0 0 y w w y w y 0 y w y w 0 y w w w y w y w y w y y w y w y w y 0 w w y w y w w w 5 5 v V ",
"F v w w w 5 w y w y w 5 5 y 5 u w w w y y w y w 0 y w y 8 3 w y y w y 0 y 0 y 0 w w y 0 w y w 3 0 y w y w 5 w y w y w w u 5 v V ",
"v W V T T T T T T T T T T T T T V T T T T T V T T T T T T T T T T T T T T T T T V T T T T T T T T T T T T T T T T T T T G G W F ",
"O.v k v k k v w v v k k h h u v k k k k k v k k v w v v k k v w k v v w k k k v k k v w v v k k v w v v k k v w v v k k h a v O."
};
