/* XPM */
static char *_c7809d135994567dea72dae36fbd905n8ecnPZQkDvRsMcA[] = {
/* columns rows colors chars-per-pixel */
"64 64 138 2 ",
"   c None",
".  c #00CE01",
"X  c #00CF29",
"o  c #00D032",
"O  c #00D033",
"+  c #00D038",
"@  c #06D039",
"#  c #07D13B",
"$  c #1BD140",
"%  c #1CD141",
"&  c #1ED142",
"*  c #2BD245",
"=  c #2DD246",
"-  c #2ED247",
";  c #2FD247",
":  c #2BD248",
">  c #2CD248",
",  c #2CD249",
"<  c #2DD249",
"1  c #2ED24A",
"2  c #30D24A",
"3  c #31D24A",
"4  c #30D24B",
"5  c #32D24A",
"6  c #32D24C",
"7  c #34D24D",
"8  c #38D24D",
"9  c #3BD351",
"0  c #3BD352",
"q  c #3CD352",
"w  c #42D356",
"e  c #43D357",
"r  c #44D358",
"t  c #46D359",
"y  c #46D35A",
"u  c #47D35A",
"i  c #44D458",
"p  c #44D459",
"a  c #45D459",
"s  c #46D459",
"d  c #47D459",
"f  c #46D45A",
"g  c #47D45A",
"h  c #46D55A",
"j  c #47D55A",
"k  c #46D55B",
"l  c #47D55B",
"z  c #48D45B",
"x  c #49D45B",
"c  c #48D75B",
"v  c #49D45C",
"b  c #4AD45C",
"n  c #4BD45C",
"m  c #4BD45D",
"M  c #4AD55D",
"N  c #4BD45E",
"B  c #4BD55E",
"V  c #4CD45D",
"C  c #4CD45E",
"Z  c #4CD55E",
"A  c #4DD55E",
"S  c #4DD55F",
"D  c #4ED55F",
"F  c #48D95B",
"G  c #48DA5B",
"H  c #49D85C",
"J  c #48D95C",
"K  c #49D95C",
"L  c #4AD95C",
"P  c #49DA5D",
"I  c #49DB5D",
"U  c #4ADB5C",
"Y  c #4ADA5D",
"T  c #4ADB5E",
"R  c #4ADC5D",
"E  c #4ADD5D",
"W  c #49DC5E",
"Q  c #4ADC5E",
"!  c #4ADD5E",
"~  c #4ADE5E",
"^  c #4BDE5E",
"/  c #4BDF5F",
"(  c #4BE05F",
")  c #4FD560",
"_  c #50D561",
"`  c #51D562",
"'  c #52D563",
"]  c #56D666",
"[  c #59D667",
"{  c #5BD668",
"}  c #65D772",
"|  c #6DD977",
" . c #6FD979",
".. c #6ED97A",
"X. c #4CE160",
"o. c #4CE260",
"O. c #4DE762",
"+. c #4EE862",
"@. c #50F066",
"#. c #79DB82",
"$. c #7CDB85",
"%. c #7CDC85",
"&. c #7FDC88",
"*. c #81DC8A",
"=. c #82DD8A",
"-. c #84DD8D",
";. c #85DD8E",
":. c #89DE91",
">. c #8FDF97",
",. c #92E099",
"<. c #A0E3A6",
"1. c #A4E4AA",
"2. c #ADE7B3",
"3. c #B0E7B5",
"4. c #B5E8BA",
"5. c #B7E9BB",
"6. c #BAEABF",
"7. c #CEEFD1",
"8. c #CFF0D2",
"9. c #DEF4DF",
"0. c #E5F6E6",
"q. c #E5F7E6",
"w. c #E6F6E7",
"e. c #E7F7E8",
"r. c #E8F7E9",
"t. c #E9F7E9",
"y. c #E8F8EA",
"u. c #EDF9EE",
"i. c #F0FAF1",
"p. c #F2FBF3",
"a. c #F3FBF3",
"s. c #F4FCF5",
"d. c #F6FCF6",
"f. c #F8FDF8",
"g. c #FAFEFA",
"h. c #FBFEFB",
"j. c #FEFFFE",
"k. c white",
/* pixels */
"T E E E T E E E E E E E E E E E E E E T E E E T E E E E T T E E E E E E T T E E E T T E T T E E E E T E E E E E E E E E T E E E ",
"l +.c T T T T T T T T T T T T T T T T T T T T T T T T T T T T T T T T T T T T T T T T T T T T T T T T T T T T T T T T T T F E E ",
"l ( y l y l l l l l y l y l l l l l y l l l l l l l l l l l l l l l l l l l l l l l l l l l l l l l l l l l l l y y l l l y c T ",
"l o.l l l l l l l l y l l l l l l l l l l l l l l l l l l l l l l l l l l l l l l l l l l l l l l l l l y l l l l l l l l l T T ",
"l o.l l l l l l l l l l l l l l l l l l l l l l l l y l l l y y l l l y l l l l l l l l l l l l l l l l y l l l l l l l l l F T ",
"l ( l l l l l l l l l l l l l l l l l l l l l y l l y l l l l l l l l l l l l l l l l l l l l l l l l l l l l l l l l l l l F T ",
"l o.l y l l l l l l l y l l l l l l l l l l l y l l l l l l l l l l l l l y l l l l l l l y l l l l y l l l l l l l l l l l F T ",
"l o.l l l l l l l l l y l l l l l l y y l l l l l l l l l l l l l l l l l y l l y y l l l l l l l l y l l l l l l l l l l l F T ",
"l o.l l l l l l l l l l l l l y l l l l l l l l l l l l l l l l y l l l l l l l l l l l l l l l l y y l l l l l l l l l l l T T ",
"l o.l l l y l l l l l l l l l y l l l l l l l l l l l l l l l l y l l l l l l y l l l l l l l l l l l l y y l l l l l l l l T T ",
"l o.l l l y l l l l l y l l l l l l l l l l l l l l y l l l l y l l l l l l l y l l y y l l l l l l l l l l l l l l l l l l T T ",
"l ( l l l l l l l l l y l l l l l l y y l l l l l l l l l l l y l l l l l l l l l l l l l l y l l l l l l l l l l l y y l l T T ",
"l o.l l l l l l l l l l l l l l l y l l l l l y l l l l l l l l l l l l l l y l l l y y l l l l l l l l l l l l l l l l l l F T ",
"l o.l l l l l l l l l y l l y l l y l l l l l l l l l l l l l l l y l l l l y l l l l l l l l l l l l l l l l l l l l y l l F T ",
"l o.l l l l l l l l l y l l l l l l l l l l l l l y l l l l l l l l l l l l l l l l l l l l l l l l l l l y l l l l l l l l F T ",
"l ( l l l l l l l l l l l l l l l l l l l l l l l y l l l y y l l l l l l l l l l l l l l l l y y l l l l y l l l l l l l l F T ",
"l ( l l l l l l l l l l l l l l l l y y y l l l l l l l l l l l l l l l l l l l l l l l l l l y l l l l y l l l l l l l l l F T ",
"l o.l l l y y l l l l l l l l l l l l l y l l l l l l y l l l l l l l l l l l l l l l l l l l l l l l l y l l l l l l l l l F T ",
"l ( l l l l l l l l y y l l l l l l l l l l l l l l l y l y l l y y l l l l y l l l l l l l l l y l l l l l l l l l l l l l F T ",
"l ( l l l l l l l l l l l l y y l l l l l l l l l l l l l l l l l l l l l l y l l l l y l l l l l l l l l l l l l l l l l l F T ",
"l o.l l l l l l l l y y l l l l l l l l l l l l l l l l l l l l l l l l l l l l l l l l l l y l l l l l l l l l l l l l l l T T ",
"l o.l l l l l l l l l l l l l l l l l l l l l l l l l l l l l l l l l l l l l l l l l y l l y l l l l l y y l l l l y y l l T T ",
"l o.l l y l l l l l l l l l l l l l l l l y y l l l l l y l l l l l y l l l l l l l l y l l l l y y l l l l l l l l l l l l T T ",
"l o.l l l l l l l l l l l l l l l y l l l l l l l l l l y l l l y l l l l l l l l l l l l l l l l l l l l l l l l l l l l l T T ",
"l o.l l l l l l l l l l l l l y l l y y l l l l y y l l l l c n C c l l l l l l l y l l l l y l l l l y y l l l l l l l l l F T ",
"l o.l l l l l l l l y y l l l l l l y l l l l l l l l l l C l 1 1 l C l l l l l l y l l l l y l l l l l l l l l l l l l l l F T ",
"l ( l l l l l l l l l l l l l l l l l l l l l l l l l l n 1 l &.=.n : n l l l l l l l l l l l l l l l l l l l l y y l l l l F T ",
"l ( l l l l l l l l l l l l l l l l l l l l l l l l l C 1 :.i.g.g.i.>.1 C l l l l l l l l l l l l l l l l l l l l l l l l l F T ",
"y o.l l l l l l l y y l y y l l l l l l l l l l l l c l n d.q.| ..q.d.n y c l l l l l l l l l l l l l l l l l l l l l l l l F T ",
"l o.l l l l l l l l l l l l l l l l l l l l l l l l n 6 #.i.=.@ O ,.k.$.3 n l l l l l l l l l l l l l l y y l l l l l l l l F T ",
"l ( l l l l y y l l l l l l l l l l y l y l l l l l l l n _ c ] O 3.k.} 0 b l l l l l l l l l l l l l y l l l l l l l l l l F T ",
"l ( l l l l l l l l l l l l l l l l l l y l l l l l l l l w _ 3 { g.8.@ C l l l l l l y y y l l l l l l l l l l l l l l l l F T ",
"l o.l l l l l l l l l l l l l l l l l l l l l l l l l y l _ 1 [ i.y.l w n l l l l l l l l l l l l l l l l l l l l l y y l l T T ",
"l o.l l y y l l l l l l l l l l l l l l y l l l l l l y ) % ..g.t.C l ) l l l l l l l l l l l y l l l l y l l l l l l l l l T T ",
"l o.l l l l l l l l l y l y l l l l y y y l l l l l l C $ %.d.7.. X + 6 n l y l l l l l l l l l l l y y l l l l l l l l l l T T ",
"l o.l l l l l l l l l y l y l l l l l l l l l l l l C 3 ;.k.g.2.5.5.6.;.7 n y l l l l l l l l l l l l l l l l l l l l l l l T T ",
"l o.l l l l l l l l l l l l l l l l l l l l l l l l C % <.t.9.e.e.q.u.1.$ C l l y l l l l l l l l l l l l l l l l l l l l l F T ",
"l o.l l l l l l l l l l l l l l l l l l l l l l l l l c q 3 8 ; ; ; * 0 c l l l l l l l l l y l l l l l l l l l l l l l l l F T ",
"l ( l l l l l l l l l l y l l l l l l l l l l l l l l l c n n n n n n c l l l l l l l l l l y y l l l l l l l l l y l l l l F T ",
"l ( l l l l l l y l l l l l l l l l l y l l l l l l l l l l l l l l l l l l l l l l l l l l l l l l l y y l l l l y l l l l F T ",
"y o.l l l y l l y l l l l l l l l l y l l l y y l l y y l l l l l l l y l l l l l l l l l l l l l l y l l l y l l l l l l l F T ",
"l o.l l l y l l l l l l y y l l l l y l l l l l l l l l l l l y l l l y l l l l l l l y l l l l l l l l l l y l l l l l l l F T ",
"l ( l l l l l l l l l l l l l l l l l l l l l l l l l l l l l y l l l l l l y y l l l y y y l l l l l l l l l l l l l l l l F T ",
"l ( l l l l l l l l l l l l l l l l l l l l l l l l l l l l l l l l l l l l l l l l l l l l l l l l l l l l l l l l l l l l F T ",
"l o.l l l l l l l l l y l y y l y y l l l y l l l l l l l l l l l l l l l l l l l l l l l l l l y y l l l y l l l l l l l l T T ",
"l o.l l l l l l l l l l l l l l l l l l l l l l l l y l l l l l l l y y l l l l l l l l l l l l l l l l l y l l l l y y l l T T ",
"l o.l l y y l l l l l l l l l l l l l l l l l l l l y l l l y l l l l l l l l y l l l l l l l l l l l l l l l l l l l l l l T T ",
"l o.l l l l l l l l l l l l l l l l l l l l l l l l l l l l l l l l l l l l l l l l l y y l l l l l l l l l l l l l l l l l T T ",
"l o.l l l l l l l l l l y y l l l l l l l y y l l l l l y y l l l l l l l l l l l l l l y y l l l l l l l y y l l l l l l l F T ",
"l o.l l l l l l l l l l l l l l l y l l l l l l l l l l l l l l l l l l l l l l l l l l l l l l l y l l l l l l l l l l l l F T ",
"l ( l l l l l l l l l l l l l l l l l l l l l l l l l l l l l l l l y l l l l y l l l l l l l l l l l l l l l l y l l l l y F T ",
"l ( l l l l l l l l l l l l l l l l l l l l l l l l l l l l l l l l l l l l l y l l l l l l l l l l l l l l l l y l l l l l F T ",
"y o.l l l l l l l l l y l l l l l l l l l l l y l l l y l l l l l l l l l l l l l l l y l l l l l l l l l l l y l l l l l l F T ",
"l o.l l l l l l l l l y l l l l l y y l l l l y l l l y l l l l l l l l l l l l l l l y l l l l l y y l l l l y l l l l l l F T ",
"l ( l l l l y y l l l l y y l l l l l l l l l l l l l l y y l l l y l l l l l l l l l l y y l l l l l l l l l l l l l l l l F T ",
"l ( l l l l l l l l l l l l l l l l l l l l l l l l l l l l l l l y l l l y y l l l l l l l l l l l l l l l l l l l l l l l F T ",
"l o.l l l l l l l l l l l y l l l l l l l y l l l l l l l y l l l l l l l l l l l l l l l y l l l l l l l y l l l l l l l l T T ",
"l o.l l l l l l l l y l l l l l l l l l l l l l l l l l l l l l l l l l l l l l l l l y l l l l l l l l l l l l l l l l l l T T ",
"l o.l l l l l l l l l y l l l l l l l y l l l l l y l l l l l l l l l l l l l l l l l y l l l l l l l y l l l l l y l l l l T T ",
"l o.l l l l l l l l l l l l l l l l l l l l l l l y l l l l l l y l l l l l l l l l l l l l l l l l l l l l l l l y l l l l T T ",
"l o.l l l l l l l l l l l l l l l l l l l l l l l l l l l l l l l l l l l l l l l l l l l l l l l l l l l l l l l l l l l l T T ",
"l E l l l l l l l l l l l l l l l l l l l l l l l l l l l l l l l l l l l l l l l l l l l l l l l l l l l l l l l l l l l y l T ",
"l @.E o.o.o.o.o.o.o.o.o.o.o.o.o.o.o.o.o.o.o.o.o.o.o.o.o.o.o.o.o.( o.o.o.o.o.o.o.o.o.o.o.o.o.o.o.o.o.o.o.o.o.o.o.o.o.o.o.o.( O.T ",
"  T T F F F F F F F F F F F F F F F F F F F F F F F F F F F F F F F F F F F F F F F F F F F F F F F F F F F F F F F F F F T F E "
};
