/* XPM */
static char *aa839b9d6d044b0080e0fdcccbc2c70aLMsZ2Cq9EFaP0OgH[] = {
/* columns rows colors chars-per-pixel */
"64 64 137 2 ",
"   c None",
".  c #00CE0C",
"X  c #00CF20",
"o  c #00D037",
"O  c #00D038",
"+  c #02D13A",
"@  c #05D039",
"#  c #06D039",
"$  c #13D13D",
"%  c #20D142",
"&  c #21D143",
"*  c #27D246",
"=  c #2AD247",
"-  c #2AD248",
";  c #2BD248",
":  c #2DD249",
">  c #2FD24A",
",  c #30D24B",
"<  c #31D24B",
"1  c #34D24D",
"2  c #37D34D",
"3  c #34D24E",
"4  c #39D351",
"5  c #3BD352",
"6  c #3CD352",
"7  c #3CD353",
"8  c #3DD353",
"9  c #3ED354",
"0  c #3FD455",
"q  c #40D355",
"w  c #41D356",
"e  c #40D456",
"r  c #43D456",
"t  c #43D457",
"y  c #44D457",
"u  c #44D358",
"i  c #46D359",
"p  c #47D359",
"a  c #46D35A",
"s  c #47D35A",
"d  c #44D458",
"f  c #45D459",
"g  c #46D459",
"h  c #46D45A",
"j  c #47D45A",
"k  c #47D55B",
"l  c #47D65B",
"z  c #48D45A",
"x  c #48D45B",
"c  c #49D45B",
"v  c #48D55B",
"b  c #49D65A",
"n  c #48D65B",
"m  c #48D75B",
"M  c #49D45C",
"N  c #4AD45C",
"B  c #4BD45D",
"V  c #48D75C",
"C  c #4CD45D",
"Z  c #4CD45E",
"A  c #4DD55E",
"S  c #4ED55F",
"D  c #49D85B",
"F  c #48D95B",
"G  c #48DA5B",
"H  c #48D85C",
"J  c #48D95C",
"K  c #49D95C",
"L  c #49DA5D",
"P  c #4ADB5C",
"I  c #4ADB5E",
"U  c #49DC5D",
"Y  c #49DC5E",
"T  c #49DD5E",
"R  c #4ADC5E",
"E  c #4ADD5E",
"W  c #4BDF5F",
"Q  c #4BE15F",
"!  c #4ED560",
"~  c #4FD560",
"^  c #52D563",
"/  c #56D565",
"(  c #54D664",
")  c #57D666",
"_  c #59D669",
"`  c #5FD76B",
"'  c #63D770",
"]  c #62D870",
"[  c #64D871",
"{  c #66D873",
"}  c #68D875",
"|  c #69D875",
" . c #6CD978",
".. c #6DD978",
"X. c #73DA7F",
"o. c #74DA7E",
"O. c #4CE160",
"+. c #4CE260",
"@. c #4CE360",
"#. c #4CE361",
"$. c #4EEA63",
"%. c #51F166",
"&. c #78DA80",
"*. c #7EDB87",
"=. c #7EDC87",
"-. c #80DC89",
";. c #83DD8C",
":. c #88DE91",
">. c #8BDF93",
",. c #96E19D",
"<. c #98E19F",
"1. c #9EE2A4",
"2. c #A0E2A6",
"3. c #A8E5AD",
"4. c #ADE6B2",
"5. c #AFE7B3",
"6. c #D2F1D4",
"7. c #D5F1D7",
"8. c #DAF3DC",
"9. c #DBF3DC",
"0. c #DBF3DD",
"q. c #DCF3DE",
"w. c #DDF4DF",
"e. c #E3F6E4",
"r. c #E9F8EA",
"t. c #EDF9EE",
"y. c #EEF9EF",
"u. c #F0FAF1",
"i. c #F4FCF5",
"p. c #F5FCF5",
"a. c #F8FDF8",
"s. c #F9FDFA",
"d. c #FAFEFA",
"f. c #FCFEFC",
"g. c #FEFFFE",
"h. c #FEFFFF",
"j. c white",
/* pixels */
"  U L U L U U U U U U U U U U U U U U U U U U U U U U U U U U U U U U U U U U U U U U U U U U U U U U U U U U U U U U U U U U L ",
"v $.v L L L L L L L L L L L L L L L L L L L L L L L L L L L L L L L L L L L L L L L L L L L L L L L L L L L L L L L L L L L U B ",
"v Q a j a j j j j j j j j j j j j j j j j j j j j j j j j j j j j j j j j j j j j j j j j j j j j j j j j j j j j j j j a j j v ",
"v +.a j j j j j j j j j j j j j j j j j j j j j j j j j j j j j j j j j j j j j j j j j j j j j j j j j j j j j j j j j j j v j ",
"v +.a j j j j j j j j j j j j j j j j j j j j j j j j j j j j j j j j j j j j j j j j j j j j j j j j j j j j j j j j j j a v j ",
"v +.a j j j j j j j j j j j j j j j j j j j j j j j j j j j j j j j j j j j j j j j j j j j j j j j j j j j j j j j j j j a v j ",
"v +.a j j j j j j j j j j j j j j j j j j j j j j j j j j j j j j j j j j j j j j j j j j j j j j j j j j j j j j j j j j j v j ",
"v +.a j j j j j j j j j j j j j j j j j j j j j j j j j j j j j j j j j j j j j j j j j j j j j j j j j j j j j j j j j j j v j ",
"v +.a j j j j j j j j j j j j j j j j j j j j j j j j j j j j j j j j j j j j j j j j j j j j j j j j j j j j j j j j j j j v j ",
"v +.a j j j j j j j j j j j j j j j j j j j j j j j j j j j j j j j j j j j j j j j j j j j j j j j j j j j j j j j j j j j v j ",
"v +.a j j j j j j j j j j j j j j j j j j j j j j j j j j j j j j j j j j j j j j j j j j j j j j j j j j j j j j j j j j a v j ",
"v +.a j j j j j j j j j j j j j j j j j j j j j j j j j j j j j j j j j j j j j j j j j j j j j j j j j j j j j j j j j j a v j ",
"v +.a j j j j j j j j j j j j j j j j j j j j j j j j j j j j j j j j j j j j j j j j j j j j j j j j j j j j j j j j j j a v j ",
"v +.a j j j j j j j j j j j j j j j j j j j j j j j j j j j j j j j j j j j j j j j j j j j j j j j j j j j j j j j j j j a v j ",
"v +.a j j j j j j j j j j j j j j j j j j j j j j j j j j j j j j j j j j j j j j j j j j j j j j j j j j j j j j j j j j a v j ",
"v +.a j j j j j j j j j j j j j j j j j j j j j j j j j j j j j j j j j j j j j j j j j j j j j j j j j j j j j j j j j j a v j ",
"v +.a j j j j j j j j j j j j j j j j j j j j j j j j j j j j j j j j j j j j j j j j j j j j j j j j j j j j j j j j j j a v j ",
"v +.a j j j j j j j j j j j j j j j j j j j j j j j j j j j j j j j j j j j j j j j j j j j j j j j j j j j j j j j j j j a v j ",
"v +.a j j j j j j j j j j j j j j j j j j j j j j j j j j j j j j j j j j j j j j j j j j j j j j j j j j j j j j j j j j j v j ",
"v +.a j j j j j j j j j j j j j j j j j j j j j j j j j j j j j j j j j j j j j j j j j j j j j j j j j j j j j j j j j j j v j ",
"v +.a j j j j j j j j j j j j j j j j j j j j j j j j j j j j j j j j j j j j j j j j j j j j j j j j j j j j j j j j j j j v j ",
"v +.a j j j j j j j j j j j j j j j j j j j j j j j j j j j j j j j j j j j j j j j j j j j j j j j j j j j j j j j j j j j v j ",
"v +.a j j j j j j j j j j j j j j j j j j j j j j j j j j j j j j j j j j j j j j j j j j j j j j j j j j j j j j j j j j a v j ",
"v +.a j j j j j j j j j j j j j j j j j j j j j j j j j j j j j j j j j j j j j j j j j j j j j j j j j j j j j j j j j j a v j ",
"v +.a j j j j j j j j j j j j j j j j j j j j j j j j j j j v B Z v j j j j j j j j j j j j j j j j j j j j j j j j j j j a v j ",
"v +.a j j j j j j j j j j j j j j j j j j j j j j j j j j Z j : - a Z j j j j j j j j j j j j j j j j j j j j j j j j j j a v j ",
"v +.a j j j j j j j j j j j j j j j j j j j j j j j j j B , e -.;.Z * B j j j j j j j j j j j j j j j j j j j j j j j j j a v j ",
"v +.a j j j j j j j j j j j j j j j j j j j j j j j j Z : =.t.d.d.p.<.- Z j j j j j j j j j j j j j j j j j j j j j j j j a v j ",
"v +.a j j j j j j j j j j j j j j j j j j j j j j j v j j p.r...] 0.d./ w v j j j j j j j j j j j j j j j j j j j j j j j a v j ",
"v +.a j j j j j j j j j j j j j j j j j j j j j j j B 6 { 0.-.@ . >.j.o.2 B j j j j j j j j j j j j j j j j j j j j j j j a v j ",
"v +.a j j j j j j j j j j j j j j j j j j j j j j j j v j % w _ ' q.e.6 v v j j j j j j j j j j j j j j j j j j j j j j j j v j ",
"v +.a j j j j j j j j j j j j j j j j j j j j j j j j j B / 2 6.j.j.X.% Z j j j j j j j j j j j j j j j j j j j j j j j j j v j ",
"v +.a j j j j j j j j j j j j j j j j j j j j j j j j v 6 = y *.,.0.t.{ 6 B j j j j j j j j j j j j j j j j j j j j j j j j v j ",
"v +.a j j j j j j j j j j j j j j j j j j j j j j j v 9 | >.B w @ / j.5.o ! j j j j j j j j j j j j j j j j j j j j j j j j v j ",
"v +.a j j j j j j j j j j j j j j j j j j j j j j j Z $ 1.j.&.X o ` j.5.+ ! j j j j j j j j j j j j j j j j j j j j j j j a v j ",
"v +.a j j j j j j j j j j j j j j j j j j j j j j j v e ^ u.p.3.2.r.d.| 4 B j j j j j j j j j j j j j j j j j j j j j j j a v j ",
"v +.a j j j j j j j j j j j j j j j j j j j j j j j j B 2 ..7.t.t.w.-.: Z j j j j j j j j j j j j j j j j j j j j j j j j a v j ",
"v +.a j j j j j j j j j j j j j j j j j j j j j j j j j B 4 o 0 e + , B j j j j j j j j j j j j j j j j j j j j j j j j j a v j ",
"v +.a j j j j j j j j j j j j j j j j j j j j j j j j j j B ! j j Z Z j j j j j j j j j j j j j j j j j j j j j j j j j j a v j ",
"v +.a j j j j j j j j j j j j j j j j j j j j j j j j j j j j v v j j j j j j j j j j j j j j j j j j j j j j j j j j j j a v j ",
"v +.a j j j j j j j j j j j j j j j j j j j j j j j j j j j j j j j j j j j j j j j j j j j j j j j j j j j j j j j j j j a v j ",
"v +.a j j j j j j j j j j j j j j j j j j j j j j j j j j j j j j j j j j j j j j j j j j j j j j j j j j j j j j j j j j a v j ",
"v +.a j j j j j j j j j j j j j j j j j j j j j j j j j j j j j j j j j j j j j j j j j j j j j j j j j j j j j j j j j j j v j ",
"v +.a j j j j j j j j j j j j j j j j j j j j j j j j j j j j j j j j j j j j j j j j j j j j j j j j j j j j j j j j j j j v j ",
"v +.a j j j j j j j j j j j j j j j j j j j j j j j j j j j j j j j j j j j j j j j j j j j j j j j j j j j j j j j j j j j v j ",
"v +.a j j j j j j j j j j j j j j j j j j j j j j j j j j j j j j j j j j j j j j j j j j j j j j j j j j j j j j j j j j j v j ",
"v +.a j j j j j j j j j j j j j j j j j j j j j j j j j j j j j j j j j j j j j j j j j j j j j j j j j j j j j j j j j j a v j ",
"v +.a j j j j j j j j j j j j j j j j j j j j j j j j j j j j j j j j j j j j j j j j j j j j j j j j j j j j j j j j j j a v j ",
"v +.a j j j j j j j j j j j j j j j j j j j j j j j j j j j j j j j j j j j j j j j j j j j j j j j j j j j j j j j j j j a v j ",
"v +.a j j j j j j j j j j j j j j j j j j j j j j j j j j j j j j j j j j j j j j j j j j j j j j j j j j j j j j j j j j a v j ",
"v +.a j j j j j j j j j j j j j j j j j j j j j j j j j j j j j j j j j j j j j j j j j j j j j j j j j j j j j j j j j j a v j ",
"v +.a j j j j j j j j j j j j j j j j j j j j j j j j j j j j j j j j j j j j j j j j j j j j j j j j j j j j j j j j j j a v j ",
"v +.a j j j j j j j j j j j j j j j j j j j j j j j j j j j j j j j j j j j j j j j j j j j j j j j j j j j j j j j j j j a v j ",
"v +.a j j j j j j j j j j j j j j j j j j j j j j j j j j j j j j j j j j j j j j j j j j j j j j j j j j j j j j j j j j a v j ",
"v +.a j j j j j j j j j j j j j j j j j j j j j j j j j j j j j j j j j j j j j j j j j j j j j j j j j j j j j j j j j j j v j ",
"v +.a j j j j j j j j j j j j j j j j j j j j j j j j j j j j j j j j j j j j j j j j j j j j j j j j j j j j j j j j j j j v j ",
"v +.a j j j j j j j j j j j j j j j j j j j j j j j j j j j j j j j j j j j j j j j j j j j j j j j j j j j j j j j j j j a v j ",
"v +.a j j j j j j j j j j j j j j j j j j j j j j j j j j j j j j j j j j j j j j j j j j j j j j j j j j j j j j j j j j a v j ",
"v +.a j j j j j j j j j j j j j j j j j j j j j j j j j j j j j j j j j j j j j j j j j j j j j j j j j j j j j j j j j j a v j ",
"v +.a j j j j j j j j j j j j j j j j j j j j j j j j j j j j j j j j j j j j j j j j j j j j j j j j j j j j j j j j j j j v j ",
"v +.a j j j j j j j j j j j j j j j j j j j j j j j j j j j j j j j j j j j j j j j j j j j j j j j j j j j j j j j j j j a v j ",
"j U j j j j j j j j j j j j j j j j j j j j j j j j j j j j j j j j j j j j j j j j j j j j j j j j j j j j j j j j j j j a v v ",
"j %.U +.+.+.+.+.+.+.+.+.+.+.+.+.+.+.+.+.+.+.+.+.+.+.+.+.+.+.+.+.+.+.+.+.+.+.+.+.+.+.+.+.+.+.+.+.+.+.+.+.+.+.+.+.+.+.+.+.+.Q +.L ",
"  L L F F F F F F F F F F F F F F F F F F F F F F F F F F F F F F F F F F F F F F F F F F F F F F F F F F F F F F F F F F F L F "
};
