/* XPM */
static char *_1ff334644e14fdec2ae884e4afb99fayhBJgF9bKxRPMzLK[] = {
/* columns rows colors chars-per-pixel */
"64 64 103 2 ",
"   c None",
".  c #00CC00",
"X  c #00CD00",
"o  c #00CE00",
"O  c #00CF07",
"+  c #00CF0E",
"@  c #00D02F",
"#  c #00D030",
"$  c #00D031",
"%  c #00D035",
"&  c #00D036",
"*  c #00D039",
"=  c #01D13A",
"-  c #14D13E",
";  c #14D13F",
":  c #1BD141",
">  c #1DD141",
",  c #32D34D",
"<  c #33D34D",
"1  c #36D24E",
"2  c #36D34E",
"3  c #37D24F",
"4  c #39D350",
"5  c #3AD350",
"6  c #3AD352",
"7  c #3DD352",
"8  c #3DD353",
"9  c #41D356",
"0  c #47D359",
"q  c #47D35A",
"w  c #46D459",
"e  c #46D45A",
"r  c #47D45A",
"t  c #47D45B",
"y  c #48D45B",
"u  c #49D45B",
"i  c #49D45C",
"p  c #4AD45C",
"a  c #4AD45D",
"s  c #4BD45D",
"d  c #4CD45E",
"f  c #4DD55F",
"g  c #4ED55F",
"h  c #48D95B",
"j  c #49D95C",
"k  c #49D85D",
"l  c #49DA5D",
"z  c #49DB5D",
"x  c #4BDE5D",
"c  c #49DC5E",
"v  c #4ADC5E",
"b  c #4ADD5E",
"n  c #4BDD5E",
"m  c #4BDE5E",
"M  c #4BDF5F",
"N  c #4FD560",
"B  c #50D561",
"V  c #54D564",
"C  c #5CD669",
"Z  c #67D873",
"A  c #67D874",
"S  c #72DA7D",
"D  c #4CE160",
"F  c #4FEB64",
"G  c #4FED65",
"H  c #8DDF95",
"J  c #9CE2A2",
"K  c #A6E4AB",
"L  c #ADE6B1",
"P  c #ADE6B2",
"I  c #AEE6B2",
"U  c #B0E7B4",
"Y  c #B0E7B5",
"T  c #B7E8BB",
"R  c #BAE9BD",
"E  c #C4ECC7",
"W  c #C5ECC8",
"Q  c #C7EDCA",
"!  c #CCEFCF",
"~  c #CDEFCF",
"^  c #CDEFD0",
"/  c #D0F0D2",
"(  c #D6F2D8",
")  c #D8F2DA",
"_  c #DFF5E1",
"`  c #E0F5E2",
"'  c #E2F6E4",
"]  c #E3F6E4",
"[  c #E3F6E5",
"{  c #E4F6E5",
"}  c #E5F7E6",
"|  c #E5F7E7",
" . c #E7F7E8",
".. c #E8F7E9",
"X. c #E9F8EB",
"o. c #ECF9ED",
"O. c #EFFAF0",
"+. c #F0FAF1",
"@. c #F7FCF7",
"#. c #F9FDFA",
"$. c #FCFFFD",
"%. c #FDFFFD",
"&. c white",
/* pixels */
"  b b b b b b b b b b b b b b b b b b b b b b b b b b b b b b b b b b b b b b b b b b b b b b b b b b b b b b b b b b b b b b b ",
"l F l b b b b b b b b b b b b b b b b b b b b b b b b b b b b b b b b b b b b b b b b b b b b b b b b b b b b b b b b b b b b b ",
"l b q r r r r r r r r r r r r r r r r r r r r r r r r r r r r r r r r r r r r r r r r r r r r r r r r r r r r r r r r r r r r r ",
"h D r r r r r r r r r r r r r r r r r r r r r r r r r r r r r r r r r r r r r r r r r r r r r r r r r r r r r r r r r r r r r r ",
"h D r r r r r r r r r r r r r r r r r r r r r r r r r r r r r r r r r r r r r r r r r r r r r r r r r r r r r r r r r r r r r r ",
"h D r r r r r r r r r r r r r r r r r r r r r r r r r r r r r r r r r r r r r r r r r r r r r r r r r r r r r r r r r r r r r r ",
"h D r r r r r r r r r r r r r r r r r r r r r r r r r r r r r r r r r r r r r r r r r r r r r r r r r r r r r r r r r r r r r r ",
"h D r r r r r r r r r r r r r r r r r r r r r r r r r r r r r r r r r r r r r r r r r r r r r r r r r r r r r r r r r r r r r r ",
"h D r r r r r r r r r r r r r r r r r r r r r r r r r r r r r r r r r r r r r r r r r r r r r r r r r r r r r r r r r r r r r r ",
"h D r r r r r r r r r r r r r r r r r r r r r r r r r r r r r r r r r r r r r r r r r r r r r r r r r r r r r r r r r r r r r r ",
"h D r r r r r r r r r r r r r r r r r r r r r r r r r r r r r r r r r r r r r r r r r r r r r r r r r r r r r r r r r r r r r r ",
"h D r r r r r r r r r r r r r r r r r r r r r r r r r r r r r r r r r r r r r r r r r r r r r r r r r r r r r r r r r r r r r r ",
"h D r r r r r r r r r r r r r r r r r r r r r r r r r r r r r r r r r r r r r r r r r r r r r r r r r r r r r r r r r r r r r r ",
"h D r r r r r r r r r r r r r r r r r r r r r r r r r r r r r r r r r r r r r r r r r r r r r r r r r r r r r r r r r r r r r r ",
"h D r r r r r r r r r r r r r r r r r r r r r r r r r r r r r r r r r r r r r r r r r r r r r r r r r r r r r r r r r r r r r r ",
"h D r r r r r r r r r r r r r r r r r r r r r r r r r r r r r r r r r r r r r r r r r r r r r r r r r r r r r r r r r r r r r r ",
"h D r r r r r r r r r r r r r r r r r r r r r r r r r r r r r r r r r r r r r r r r r r r r r r r r r r r r r r r r r r r r r r ",
"h D r r r r r r r r r r r r r r r r r r r r r r r r r r r r r r r r r r r r r r r r r r r r r r r r r r r r r r r r r r r r r r ",
"h D r r r r r r r r r r r r r r r r r r r r r r r r r r r r r r r r r r r r r r r r r r r r r r r r r r r r r r r r r r r r r r ",
"h D r r r r r r r r r r r r r r r r r r r r r r r r r r r r r r r r r r r r r r r r r r r r r r r r r r r r r r r r r r r r r r ",
"h D r r r r r r r r r r r r r r r r r r r r r r r r r r r r r r r r r r r r r r r r r r r r r r r r r r r r r r r r r r r r r r ",
"h D r r r r r r r r r r r r r r r r r r r r r r r r r r r r r r r r r r r r r r r r r r r r r r r r r r r r r r r r r r r r r r ",
"h D r r r r r r r r r r r r r r r r r r r r r r r r r r r r r r r r r r r r r r r r r r r r r r r r r r r r r r r r r r r r r r ",
"h D r r r r r r r r r r r r r r r r r r r r r r r r r r r r r r r r r r r r r r r r r r r r r r r r r r r r r r r r r r r r r r ",
"h D r r r r r r r r r r r r r r r r r r r r r r r r r r r r r r r a a r r r r r r r r r r r r r r r r r r r r r r r r r r r r r ",
"h D r r r r r r r r r r r r r r r r r r r r r r r r r r r r r r a 1 7 u r r r r r r r r r r r r r r r r r r r r r r r r r r r r ",
"h D r r r r r r r r r r r r r r r r r r r r r r r r r r r r r a 6 S Z 9 u r r r r r r r r r r r r r r r r r r r r r r r r r r r ",
"h D r r r r r r r r r r r r r r r r r r r r r r r r r r r r N > H $.E & N r r r r r r r r r r r r r r r r r r r r r r r r r r r ",
"h D r r r r r r r r r r r r r r r r r r r r r r r r r r r a 9 V O.$.Q & N r r r r r r r r r r r r r r r r r r r r r r r r r r r ",
"h D r r r r r r r r r r r r r r r r r r r r r r r r r r r N $ ) _ [ ~ $ N r r r r r r r r r r r r r r r r r r r r r r r r r r r ",
"h D r r r r r r r r r r r r r r r r r r r r r r r r r r B & K $.C [ ~ @ N r r r r r r r r r r r r r r r r r r r r r r r r r r r ",
"h D r r r r r r r r r r r r r r r r r r r r r r r r r a 1 A $.P + X.~ = N r r r r r r r r r r r r r r r r r r r r r r r r r r r ",
"h D r r r r r r r r r r r r r r r r r r r r r r r r r a : ` / X O } Q X B r r r r r r r r r r r r r r r r r r r r r r r r r r r ",
"h D r r r r r r r r r r r r r r r r r r r r r r r r N = Y $.R P P +.} J g r r r r r r r r r r r r r r r r r r r r r r r r r r r ",
"h D r r r r r r r r r r r r r r r r r r r r r r r r g - Y ..[  .} #.@.( a r u r r r r r r r r r r r r r r r r r r r r r r r r r ",
"h D r r r r r r r r r r r r r r r r r r r r r r r r r u 6 1 , , $ o.^ X N r r r r r r r r r r r r r r r r r r r r r r r r r r r ",
"h D r r r r r r r r r r r r r r r r r r r r r r r r r r u a a g , / T - g r r r r r r r r r r r r r r r r r r r r r r r r r r r ",
"h D r r r r r r r r r r r r r r r r r r r r r r r r r r r r r r r 6 7 u r r r r r r r r r r r r r r r r r r r r r r r r r r r r ",
"h D r r r r r r r r r r r r r r r r r r r r r r r r r r r r r r r a a r r r r r r r r r r r r r r r r r r r r r r r r r r r r r ",
"h D r r r r r r r r r r r r r r r r r r r r r r r r r r r r r r r r r r r r r r r r r r r r r r r r r r r r r r r r r r r r r r ",
"h D r r r r r r r r r r r r r r r r r r r r r r r r r r r r r r r r r r r r r r r r r r r r r r r r r r r r r r r r r r r r r r ",
"h D r r r r r r r r r r r r r r r r r r r r r r r r r r r r r r r r r r r r r r r r r r r r r r r r r r r r r r r r r r r r r r ",
"h D r r r r r r r r r r r r r r r r r r r r r r r r r r r r r r r r r r r r r r r r r r r r r r r r r r r r r r r r r r r r r r ",
"h D r r r r r r r r r r r r r r r r r r r r r r r r r r r r r r r r r r r r r r r r r r r r r r r r r r r r r r r r r r r r r r ",
"h D r r r r r r r r r r r r r r r r r r r r r r r r r r r r r r r r r r r r r r r r r r r r r r r r r r r r r r r r r r r r r r ",
"h D r r r r r r r r r r r r r r r r r r r r r r r r r r r r r r r r r r r r r r r r r r r r r r r r r r r r r r r r r r r r r r ",
"h D r r r r r r r r r r r r r r r r r r r r r r r r r r r r r r r r r r r r r r r r r r r r r r r r r r r r r r r r r r r r r r ",
"h D r r r r r r r r r r r r r r r r r r r r r r r r r r r r r r r r r r r r r r r r r r r r r r r r r r r r r r r r r r r r r r ",
"h D r r r r r r r r r r r r r r r r r r r r r r r r r r r r r r r r r r r r r r r r r r r r r r r r r r r r r r r r r r r r r r ",
"h D r r r r r r r r r r r r r r r r r r r r r r r r r r r r r r r r r r r r r r r r r r r r r r r r r r r r r r r r r r r r r r ",
"h D r r r r r r r r r r r r r r r r r r r r r r r r r r r r r r r r r r r r r r r r r r r r r r r r r r r r r r r r r r r r r r ",
"h D r r r r r r r r r r r r r r r r r r r r r r r r r r r r r r r r r r r r r r r r r r r r r r r r r r r r r r r r r r r r r r ",
"h D r r r r r r r r r r r r r r r r r r r r r r r r r r r r r r r r r r r r r r r r r r r r r r r r r r r r r r r r r r r r r r ",
"h D r r r r r r r r r r r r r r r r r r r r r r r r r r r r r r r r r r r r r r r r r r r r r r r r r r r r r r r r r r r r r r ",
"h D r r r r r r r r r r r r r r r r r r r r r r r r r r r r r r r r r r r r r r r r r r r r r r r r r r r r r r r r r r r r r r ",
"h D r r r r r r r r r r r r r r r r r r r r r r r r r r r r r r r r r r r r r r r r r r r r r r r r r r r r r r r r r r r r r r ",
"h D r r r r r r r r r r r r r r r r r r r r r r r r r r r r r r r r r r r r r r r r r r r r r r r r r r r r r r r r r r r r r r ",
"h D r r r r r r r r r r r r r r r r r r r r r r r r r r r r r r r r r r r r r r r r r r r r r r r r r r r r r r r r r r r r r r ",
"h D r r r r r r r r r r r r r r r r r r r r r r r r r r r r r r r r r r r r r r r r r r r r r r r r r r r r r r r r r r r r r r ",
"h D r r r r r r r r r r r r r r r r r r r r r r r r r r r r r r r r r r r r r r r r r r r r r r r r r r r r r r r r r r r r r r ",
"h D r r r r r r r r r r r r r r r r r r r r r r r r r r r r r r r r r r r r r r r r r r r r r r r r r r r r r r r r r r r r r r ",
"l b q q q q q q q q q q q q q q q q q q q q q q q q q q q q q q q q q q q q q q q q q q q q q q q q q q q q q q q q q q q q q q ",
"l G l b b b b b b b b b b b b b b b b b b b b b b b b b b b b b b b b b b b b b b b b b b b b b b b b b b b b b b b b b b b b b ",
"  b b b b b b b b b b b b b b b b b b b b b b b b b b b b b b b b b b b b b b b b b b b b b b b b b b b b b b b b b b b b b b b "
};
