/* XPM */
static char *_4c93ee82ac04d3c87c22360986aa7404Bifx7Cq9O7PSzfS[] = {
/* columns rows colors chars-per-pixel */
"64 64 148 2 ",
"   c None",
".  c #00C900",
"X  c #00CE00",
"o  c #00CE06",
"O  c #00CF13",
"+  c #00CF2E",
"@  c #00D02A",
"#  c #00D02D",
"$  c #00D031",
"%  c #00D033",
"&  c #00D034",
"*  c #00D036",
"=  c #00D037",
"-  c #00D139",
";  c #03D13A",
":  c #08D13B",
">  c #1CD142",
",  c #20D142",
"<  c #2CD248",
"1  c #2ED249",
"2  c #31D24B",
"3  c #32D24A",
"4  c #32D24C",
"5  c #36D24E",
"6  c #39D350",
"7  c #38D351",
"8  c #3AD351",
"9  c #3BD352",
"0  c #3CD352",
"q  c #3CD353",
"w  c #3ED353",
"e  c #3ED453",
"r  c #3FD354",
"t  c #40D355",
"y  c #41D356",
"u  c #43D357",
"i  c #46D359",
"p  c #47D359",
"a  c #47D25A",
"s  c #46D35A",
"d  c #47D35B",
"f  c #44D458",
"g  c #45D459",
"h  c #46D459",
"j  c #46D45A",
"k  c #47D45A",
"l  c #48D35A",
"z  c #48D45B",
"x  c #49D45B",
"c  c #48D55B",
"v  c #49D65A",
"b  c #48D65B",
"n  c #48D75B",
"m  c #49D45C",
"M  c #4AD45C",
"N  c #4AD45D",
"B  c #4BD45D",
"V  c #48D75C",
"C  c #4CD45D",
"Z  c #4CD45E",
"A  c #4CD55E",
"S  c #4DD55F",
"D  c #48D85B",
"F  c #48D95B",
"G  c #48DA5B",
"H  c #48D85C",
"J  c #49D85C",
"K  c #49D95C",
"L  c #4AD95C",
"P  c #49DA5C",
"I  c #49DB5C",
"U  c #49DA5D",
"Y  c #4ADB5E",
"T  c #4ADD5D",
"R  c #49DC5E",
"E  c #4ADC5E",
"W  c #4ADD5E",
"Q  c #4ADE5E",
"!  c #4ADF5F",
"~  c #4BE05F",
"^  c #4BE15F",
"/  c #4FD560",
"(  c #50D560",
")  c #50D561",
"_  c #56D565",
"`  c #56D666",
"'  c #58D667",
"]  c #59D668",
"[  c #5BD669",
"{  c #62D76F",
"}  c #64D871",
"|  c #67D872",
" . c #67D874",
".. c #69D976",
"X. c #6AD976",
"o. c #6BD977",
"O. c #6CD978",
"+. c #75DA7F",
"@. c #4CE160",
"#. c #4CE360",
"$. c #4DE561",
"%. c #4EE963",
"&. c #50F066",
"*. c #7ADB82",
"=. c #7ADB84",
"-. c #7DDC86",
";. c #81DC89",
":. c #85DD8E",
">. c #85DE8E",
",. c #88DD90",
"<. c #89DE91",
"1. c #93E09A",
"2. c #9EE2A3",
"3. c #AEE6B3",
"4. c #AEE7B4",
"5. c #BDEAC0",
"6. c #BDEAC1",
"7. c #C0EBC3",
"8. c #C4ECC7",
"9. c #C8EDCB",
"0. c #CAEECD",
"q. c #CCEECF",
"w. c #CFF0D2",
"e. c #D3F1D6",
"r. c #D4F1D6",
"t. c #D6F1D9",
"y. c #D7F2D9",
"u. c #D9F3DB",
"i. c #DDF4DF",
"p. c #DFF5E1",
"a. c #E2F5E4",
"s. c #E3F6E5",
"d. c #E5F6E6",
"f. c #E6F7E7",
"g. c #E7F7E8",
"h. c #ECF9ED",
"j. c #EDF9EE",
"k. c #F1FBF2",
"l. c #F4FCF5",
"z. c #F6FCF7",
"x. c #F8FDF8",
"c. c #F8FDF9",
"v. c #F9FDF9",
"b. c #FCFEFC",
"n. c #FCFEFD",
"m. c #FDFFFD",
"M. c #FEFFFE",
"N. c white",
/* pixels */
"  E U E U E E E E E E E E E E E E E E E E E E E E E E E E E E E E E E E E E E E E E E E E E E E E E E E E E E E E E E E U E E U ",
"v %.v U U U U U U U U U U U U U U U U U U U U U U U U U U U U U U U U U U U U U U U U U U U U U U U U U U U U U U U U U U U E F ",
"d ^ d k d k k k k k k k k k k k k k k k k k k k k k k k k k k k k k k k k k k k k k k k k k k k k k k k k k k k k k k k d k v U ",
"d #.d k k k k k k k k k k k k k k k k k k k k k k k k k k k k k k k k k k k k k k k k k k k k k k k k k k k k k k k k k k k v U ",
"k #.d k k k k k k k k k k k k k k k k k k k k k k k k k k k k k k k k k k k k k k k k k k k k k k k k k k k k k k k k k k k v U ",
"k #.d k k k k k k k k k k k k k k k k k k k k k k k k k k k k k k k k k k k k k k k k k k k k k k k k k k k k k k k k k k k v U ",
"k #.d k k k k k k k k k k k k k k k k k k k k k k k k k k k k k k k k k k k k k k k k k k k k k k k k k k k k k k k k k k k v U ",
"k #.d k k k k k k k k k k k k k k k k k k k k k k k k k k k k k k k k k k k k k k k k k k k k k k k k k k k k k k k k k k k v U ",
"k #.d k k k k k k k k k k k k k k k k k k k k k k k k k k k k k k k k k k k k k k k k k k k k k k k k k k k k k k k k k k k v U ",
"k #.d k k k k k k k k k k k k k k k k k k k k k k k k k k k k k k k k k k k k k k k k k k k k k k k k k k k k k k k k k k k v U ",
"k #.d k k k k k k k k k k k k k k k k k k k k k k k k k k k k k k k k k k k k k k k k k k k k k k k k k k k k k k k k k k k v U ",
"k #.d k k k k k k k k k k k k k k k k k k k k k k k k k k k k k k k k k k k k k k k k k k k k k k k k k k k k k k k k k k k v U ",
"k #.d k k k k k k k k k k k k k k k k k k k k k k k k k k k k k k k k k k k k k k k k k k k k k k k k k k k k k k k k k k k v U ",
"k #.d k k k k k k k k k k k k k k k k k k k k k k k k k k k k k k k k k k k k k k k k k k k k k k k k k k k k k k k k k k k v U ",
"k #.d k k k k k k k k k k k k k k k k k k k k k k k k k k k k k k k k k k k k k k k k k k k k k k k k k k k k k k k k k k k v U ",
"k #.d k k k k k k k k k k k k k k k k k k k k k k k k k k k k k k k k k k k k k k k k k k k k k k k k k k k k k k k k k k k v U ",
"k #.d k k k k k k k k k k k k k k k k k k k k k k k k k k k k k k k k k k k k k k k k k k k k k k k k k k k k k k k k k k k v U ",
"k #.d k k k k k k k k k k k k k k k k k k k k k k k k k k k k k k k k k k k k k k k k k k k k k k k k k k k k k k k k k k k v U ",
"k #.d k k k k k k k k k k k k k k k k k k k k k k k k k k k k k k k k k k k k k k k k k k k k k k k k k k k k k k k k k k k v U ",
"k #.d k k k k k k k k k k k k k k k k k k k k k k k k k k k k k k k k k k k k k k k k k k k k k k k k k k k k k k k k k k k v U ",
"k #.d k k k k k k k k k k k k k k k k k k k k k k k k k k k k k k k k k k k k k k k k k k k k k k k k k k k k k k k k k k k v U ",
"k #.d k k k k k k k k k k k k k k k k k k k k k k k k k k k k k k k k k k k k k k k k k k k k k k k k k k k k k k k k k k k v U ",
"k #.d k k k k k k k k k k k k k k k k k k k k k k k k k k k k k k k k k k k k k k k k k k k k k k k k k k k k k k k k k k k v U ",
"k #.d k k k k k k k k k k k k k k k k k k k k k k k k k k k k k k k k k k k k k k k k k k k k k k k k k k k k k k k k k k k v U ",
"k #.d k k k k k k k k k k k k k k k k k k k k k k k k k k v M M M M M k k k k k k k k k k k k k k k k k k k k k k k k k k k v U ",
"k #.d k k k k k k k k k k k k k k k k k k k k k k k k k v u 8 8 8 8 q k k k k k k k k k k k k k k k k k k k k k k k k k k k v U ",
"k #.d k k k k k k k k k k k k k k k k k k k k k k k k v k ` O....... .v k k k k k k k k k k k k k k k k k k k k k k k k k k v U ",
"k #.d k k k k k k k k k k k k k k k k k k k k k k k k / ; 4.M.l.l.v.h.[ u v k k k k k k k k k k k k k k k k k k k k k k k k v U ",
"k #.d k k k k k k k k k k k k k k k k k k k k k k k k / + 9.f.*.<.<.;.M k k k k k k k k k k k k k k k k k k k k k k k k k k v U ",
"k #.d k k k k k k k k k k k k k k k k k k k k k k k k / @ t.w.. O X , M k k k k k k k k k k k k k k k k k k k k k k k k k k v U ",
"k #.d k k k k k k k k k k k k k k k k k k k k k k k k S ; u.t.6.i.7.| 5 M k k k k k k k k k k k k k k k k k k k k k k k k k v U ",
"k #.d k k k k k k k k k k k k k k k k k k k k k k k k M 3 a.M.r.q.v.k.{ q M k k k k k k k k k k k k k k k k k k k k k k k k v U ",
"k #.d k k k k k k k k k k k k k k k k k k k k k k k k v r >.-.# o | M.6.* ) k k k k k k k k k k k k k k k k k k k k k k k k v U ",
"k #.d k k k k k k k k k k k k k k k k k k k k k k k k k / S 4 ` [ > g.e.$ / k k k k k k k k k k k k k k k k k k k k k k k k v U ",
"k #.d k k k k k k k k k k k k k k k k k k k k k k k M 3 =.M.1.X * e v.8.$ ) k k k k k k k k k k k k k k k k k k k k k k k k v U ",
"k #.d k k k k k k k k k k k k k k k k k k k k k k k v v q f.M.3.2.a.M.+.5 M k k k k k k k k k k k k k k k k k k k k k k k k v U ",
"k #.d k k k k k k k k k k k k k k k k k k k k k k k k M 8 ' 0.h.h.p.>.1 S k k k k k k k k k k k k k k k k k k k k k k k k k v U ",
"k #.d k k k k k k k k k k k k k k k k k k k k k k k k k M u * 8 k : 1 S k k k k k k k k k k k k k k k k k k k k k k k k k k v U ",
"k #.d k k k k k k k k k k k k k k k k k k k k k k k k k k M / v k S S k k k k k k k k k k k k k k k k k k k k k k k k k k k v U ",
"k #.d k k k k k k k k k k k k k k k k k k k k k k k k k k k k k v k k k k k k k k k k k k k k k k k k k k k k k k k k k k k v U ",
"k #.d k k k k k k k k k k k k k k k k k k k k k k k k k k k k k k k k k k k k k k k k k k k k k k k k k k k k k k k k k k k v U ",
"k #.d k k k k k k k k k k k k k k k k k k k k k k k k k k k k k k k k k k k k k k k k k k k k k k k k k k k k k k k k k k k v U ",
"k #.d k k k k k k k k k k k k k k k k k k k k k k k k k k k k k k k k k k k k k k k k k k k k k k k k k k k k k k k k k k k v U ",
"k #.d k k k k k k k k k k k k k k k k k k k k k k k k k k k k k k k k k k k k k k k k k k k k k k k k k k k k k k k k k k k v U ",
"k #.d k k k k k k k k k k k k k k k k k k k k k k k k k k k k k k k k k k k k k k k k k k k k k k k k k k k k k k k k k k k v U ",
"k #.d k k k k k k k k k k k k k k k k k k k k k k k k k k k k k k k k k k k k k k k k k k k k k k k k k k k k k k k k k k k v U ",
"k #.d k k k k k k k k k k k k k k k k k k k k k k k k k k k k k k k k k k k k k k k k k k k k k k k k k k k k k k k k k k k v U ",
"k #.d k k k k k k k k k k k k k k k k k k k k k k k k k k k k k k k k k k k k k k k k k k k k k k k k k k k k k k k k k k k v U ",
"k #.d k k k k k k k k k k k k k k k k k k k k k k k k k k k k k k k k k k k k k k k k k k k k k k k k k k k k k k k k k k k v U ",
"k #.d k k k k k k k k k k k k k k k k k k k k k k k k k k k k k k k k k k k k k k k k k k k k k k k k k k k k k k k k k k k v U ",
"k #.d k k k k k k k k k k k k k k k k k k k k k k k k k k k k k k k k k k k k k k k k k k k k k k k k k k k k k k k k k k k v U ",
"k #.d k k k k k k k k k k k k k k k k k k k k k k k k k k k k k k k k k k k k k k k k k k k k k k k k k k k k k k k k k k k v U ",
"k #.d k k k k k k k k k k k k k k k k k k k k k k k k k k k k k k k k k k k k k k k k k k k k k k k k k k k k k k k k k k k v U ",
"k #.d k k k k k k k k k k k k k k k k k k k k k k k k k k k k k k k k k k k k k k k k k k k k k k k k k k k k k k k k k k k v U ",
"k #.d k k k k k k k k k k k k k k k k k k k k k k k k k k k k k k k k k k k k k k k k k k k k k k k k k k k k k k k k k k k v U ",
"k #.d k k k k k k k k k k k k k k k k k k k k k k k k k k k k k k k k k k k k k k k k k k k k k k k k k k k k k k k k k k k v U ",
"k #.d k k k k k k k k k k k k k k k k k k k k k k k k k k k k k k k k k k k k k k k k k k k k k k k k k k k k k k k k k k k v U ",
"k #.d k k k k k k k k k k k k k k k k k k k k k k k k k k k k k k k k k k k k k k k k k k k k k k k k k k k k k k k k k k k v U ",
"k #.d k k k k k k k k k k k k k k k k k k k k k k k k k k k k k k k k k k k k k k k k k k k k k k k k k k k k k k k k k k k v U ",
"k #.d k k k k k k k k k k k k k k k k k k k k k k k k k k k k k k k k k k k k k k k k k k k k k k k k k k k k k k k k k k k v U ",
"k #.d k k k k k k k k k k k k k k k k k k k k k k k k k k k k k k k k k k k k k k k k k k k k k k k k k k k k k k k k k k k v U ",
"l E k k k k k k k k k k k k k k k k k k k k k k k k k k k k k k k k k k k k k k k k k k k k k k k k k k k k k k k k k k k d k U ",
"v &.E #.#.#.#.#.#.#.#.#.#.#.#.#.#.#.#.#.#.#.#.#.#.#.#.#.#.#.#.#.#.#.#.#.#.#.#.#.#.#.#.#.#.#.#.#.#.#.#.#.#.#.#.#.#.#.#.#.#.^ $.M ",
"  U U F F F F F F F F F F F F F F F F F F F F F F F F F F F F F F F F F F F F F F F F F F F F F F F F F F F F F F F F F F U U U "
};
