/* XPM */
static char *xpm_[] = {
/* columns rows colors chars-per-pixel */
"64 64 124 2 ",
"   c #00CE00",
".  c #00CF1A",
"X  c #00CF2A",
"o  c #00D030",
"O  c #00D031",
"+  c #00D034",
"@  c #00D038",
"#  c #06D13A",
"$  c #07D03B",
"%  c #0DD13C",
"&  c #11D13D",
"*  c #11D13E",
"=  c #1AD140",
"-  c #1BD141",
";  c #20D143",
":  c #22D144",
">  c #23D144",
",  c #25D246",
"<  c #28D246",
"1  c #28D247",
"2  c #29D247",
"3  c #2AD248",
"4  c #2BD248",
"5  c #2DD249",
"6  c #2FD249",
"7  c #30D24B",
"8  c #33D24D",
"9  c #36D34F",
"0  c #38D34F",
"q  c #38D350",
"w  c #3AD351",
"e  c #39D352",
"r  c #3AD352",
"t  c #3CD352",
"y  c #3DD455",
"u  c #42D356",
"i  c #47D359",
"p  c #46D25A",
"a  c #47D35A",
"s  c #46D459",
"d  c #46D45A",
"f  c #47D45A",
"g  c #48D45B",
"h  c #49D45B",
"j  c #4AD45C",
"k  c #4BD45D",
"l  c #4CD45D",
"z  c #4CD45E",
"x  c #4DD55E",
"c  c #4DD45F",
"v  c #4DD55F",
"b  c #4ED55F",
"n  c #48D85C",
"m  c #49DB5D",
"M  c #49DC5D",
"N  c #4ADC5D",
"B  c #49DD5E",
"V  c #49DC5F",
"C  c #4ADC5E",
"Z  c #4ADD5E",
"A  c #49DE5F",
"S  c #4BDF5E",
"D  c #4BDF5F",
"F  c #4BE05F",
"G  c #4FD560",
"H  c #50D561",
"J  c #57D666",
"K  c #66D873",
"L  c #6AD873",
"P  c #6AD874",
"I  c #6AD875",
"U  c #6CD977",
"Y  c #6BD978",
"T  c #6ED97A",
"R  c #70D97A",
"E  c #4CE260",
"W  c #4FEB64",
"Q  c #50EF66",
"!  c #7BDB85",
"~  c #82DC8A",
"^  c #85DD8E",
"/  c #87DD8F",
"(  c #8ADE91",
")  c #8BDE93",
"_  c #90DF97",
"`  c #92E099",
"'  c #97E19E",
"]  c #9FE3A5",
"[  c #A0E3A5",
"{  c #A5E4AB",
"}  c #A5E5AC",
"|  c #A7E4AC",
" . c #AAE5AF",
".. c #ABE6B0",
"X. c #ACE6B1",
"o. c #B6E8B8",
"O. c #BAE9BE",
"+. c #BBEABF",
"@. c #C1EBC4",
"#. c #C2EBC5",
"$. c #CBEECD",
"%. c #CFF0D1",
"&. c #D1F0D4",
"*. c #D2F0D5",
"=. c #E0F5E2",
"-. c #E3F6E4",
";. c #E4F6E6",
":. c #E8F7EA",
">. c #E8F8EA",
",. c #E9F8EA",
"<. c #EAF8EB",
"1. c #EFFAF0",
"2. c #F1FBF2",
"3. c #F3FBF4",
"4. c #F4FBF4",
"5. c #F4FCF5",
"6. c #F5FCF5",
"7. c #F8FDF8",
"8. c #F8FDF9",
"9. c #F9FDF9",
"0. c #FAFEFB",
"q. c #FDFFFE",
"w. c white",
"e. c None",
/* pixels */
"e.e.e.e.e.e.e.e.e.e.e.e.e.e.e.e.e.e.e.e.e.e.e.e.e.e.e.e.e.e.e.e.e.e.e.e.e.e.e.e.e.e.e.e.e.e.e.e.e.e.e.e.e.e.e.e.e.e.e.e.e.e.e.e.",
"Z Q Z E E E E E E E E E E E E E F F E E E E F F E E E E F F E E E E F F E E E E F F E E E E F F E E E E F F E E E E F F E F Q F ",
"N Z g s i i i i i i i i a a i i i i g s g s i i i s g g i i i s g s i s i s g g i i i s g s i s i s g g i i i s g s i s i i n Z ",
"N F i g g s g s s g s g g s g s s g s g g g g s i g s g s g i g n g i g i g s g s g i g n g i g i g s g s g i g n g i g s s Z Z ",
"N G i g s g s g s g s g s g s g g s g s g s g s g s g s g s g s g s g s g s g s g s g s g s g s g s g s g s g s s g s g s g N Z ",
"F F g s g s g s g s g s g s g s s g s g s g s g s g s g s g s g s g s g s g s g s g s g s g s g s g s g s g s g g s g s g s m N ",
"A F s s s g s g s g s g s g s g g s g s g s g s g s g s g s g s g s g s g s g s g s g s g s g s g s g s g s g s s g s g d n m G ",
"Z F s s g s g s g s g s g s g s s g s g s g s g s g s g s g s g s g s g s g s g s g s g s g s g s g s g s g s g g s g s d y F G ",
"F G i g s g s g s g s g s g s g g s g s g s g s g s g s g s g s g s g s g s g s g s g s g s g s g s g s g s g s s g s g s g A A ",
"A E i s g s g s g s g s g s g s s g s g s g s g s g s g s g s g s g s g s g s g s g s g s g s g s g s g s g s g g s g s g s m m ",
"A F a g s g s g s g s g s g s g g s g s g s g s g s g s g s g s g s g s g s g s g s g s g s g s g s g s g s g s s g s g d n m G ",
"Z F a s g s g s g s g s g s g s s g s g s g s g s g s g s g s g s g s g s g s g s g s g s g s g s g s g s g s g g s g s d y F G ",
"Z F s s s g s g s g s g s g s g g s g s g s g s g s g s g s g s g s g s g s g s g s g s g s g s g s g s g s g s g s g s d s A A ",
"N Z s s g s g s g s g s g s g s s g s g s g s g s g s g s g s g s g s g s g s g s g s g s g s g s g s g s g s g s g s g d d m A ",
"F G g i s g s g s g s g s g s g g s g s g s g s g s g s g s g s g s g s g s g s g s g s g s g s g s g s g s g s g s s s d d m m ",
"A E i g g s g s g s g s g s g s s g s g s g s g s g s g s g s g s g s g s g s g s g s g s g s g s g s g s g s g s g s d d d B G ",
"A F i g i g s g g s g s g s g s g s g s g s g s g s g s g s g s s g s g s g s g s g s g s g s g g s g s g s g s g s g s g s A G ",
"A F g s g s g s s g s g s g s g s g s g s g s g s g s g s g s g g s g s g s g s g s g s g s g s s g s g s g s g s g s g s g B F ",
"N F s g s g s g g s g s g s g s g s g s g s g s g s g s g s g s s g s g s g s g s g s g s g s g g s g s g s g s g s g s d d B B ",
"N Z s s g s g s s g s g s g s g s g s g s g s g s g s g s g s g g s g s g s g s g s g s g s g s s g s g s g s g s g s g d d A n ",
"F E i g s g s g g s g s g s g s g s g s g s g s g s g s g s g s s g s g s g s g s g s g s g s g g s g s g s g s g s g s s g m G ",
"A G g i g s g s s g s g s g s g s g s g s g s g s g s g s g s g g s g s g s g s g s g s g s g s s g s g s g s g s g s g s s F G ",
"A F i g s g s g g s g s g s g s g s g s g s g s g s g s g s g s s g s g s g s g s g s g s g s g g s g s g s g s g s g s d d B B ",
"A F g s g s g s s g s g s g s g s g s g s g s g s g s g s g s g g s g s g s g s g s g s g s g s s g s g s g s g s g s d g y B B ",
"m F s i g s g s g s g s g s g s g s g s g s g s g s g s s g s g s g g g g s g s s g s g s g s g s g s g s g s g g s g s g s A A ",
"m F i s s g s g s g s g s g s g s g s g s g s g s g s g g g c c g G g g s g s g g s g s g s g s g s g s g s g s s g s g s g m m ",
"F E i g g s g s g s g s g s g s g s g s g s g s g s g s a c - # 5 + e g s s g s s g s g s g s g s g s g s g s g g s g s d n m G ",
"A G g s s g s g s g s g s g s g s g s g s g s g s g s g g 1 ] =.>.*.K 8 c g s g g s g s g s g s g s g s g s g s s g s g d y F G ",
"A F i g i g g s g s g s g s g s g s g s g s g s g s i G % X.w.%...3.4.J u g s g s g s g s g s g s g s g s g s g s g s g d g A A ",
"A F g s s d s g s g s g s g s g s g s g s g s g s g g s H 9.$.    L ;.( 3 c g s g s g s g s g s g s g s g s g s g s g s d s m m ",
"m F s s g s g s g s g s g s g s g s g s g s g s g s G - _ w.I : Y e . s s g s g s g s g s g s g s g s g s g s g s g d s d n m G ",
"m F i i s g s g s g s g s g s g s g s g s g s g s g G # | 9.+.<.5.3. .3 c s g s g s g s g s g s g s g s g s g s g s d d d y F G ",
"Z F i g s g s g s g s g s g s g s g s g s g s g s g c % } w.,.} ~ *.w.^ 5 c s g g s g s g s g s g s g s g s g s g s g s g s N Z ",
"Z F i s g s g s g s g s g s g s g s g s g s g s g g c & [ w.P X : y 7.@.o H g s s g s g s g s g s g s g s g s g s g s g s g N Z ",
"N Z s g s g s g s g s g s g s g s g s g s g s g s g c 7 ! w.` @ c e 4.#.o G s g g s g s g s g s g s g s g s g s g s g s s i N m ",
"Z E g s g s g s g s g s g s g s g s g s g s g s g s g g , -.5.R 9 o.w.( 1 c g s s g s g s g s g s g s g s g s g s g s g g i m A ",
"N E s s s g s g s g s g s g s g s g s g s g s g s g s c e Y ,.9.<.w.O.4 c g s g g s g s g s g s g s g s g s g s g s g s s g m G ",
"N G g s g s g s g s g s g s g s g s g s g s g s g s s s g e e ( ' Y : g s s g s s g s g s g s g s g s g s g s g s g s g g s n E ",
"Z E s g s g s g s g s g s g s g s g s g s g s g s g s g s g g 3 - e c s s g s g g s g s g s g s g s g s g s g s g s d s d d B B ",
"N E g s g s g s g s g s g s g s g s g s g s g s g s g s g g g g c l g s g s g s s g s g s g s g s g s g s g s g s g g d g y B G ",
"N G g i g g s g s g s g s g s g s g s g s g s g s g s g s g s g g s g s g s g s g s g s g s g s s g s g s g s g g s g s g s A G ",
"F E i s d s g s g s g s g s g s g s g s g s g s g s g s g s g s s g s g s g s g s g s g s g s g g s g s g s g s s g s g s g B F ",
"A F s i s g s g s g s g s g s g s g s g s g s g s g s g s g s g g s g s g s g s g s g s g s g s s g s g s g s g g s g s d d B B ",
"A F s i g s g s g s g s g s g s g s g s g s g s g s g s g s g s s g s g s g s g s g s g s g s g g s g s g s g s s g s g d d n B ",
"A E s g s g s g s g s g s g s g s g s g s g s g s g s g s g s g g s g s g s g s g s g s g s g s s g s g s g s g s g s g d s A G ",
"A G g s g s g s g s g s g s g s g s g s g s g s g s g s g s g s s g s g s g s g s g s g s g s g g s g s g s g s g s g s d s B F ",
"A F i g s g s g s g s g s g s g s g s g s g s g s g s g s g s g g s g s g s g s g s g s g s g s s g s g s g s g s g s g d d n B ",
"A F g s g s g s g s g s g s g s g s g s g s g s g s g s g s g s s g s g s g s g s g s g s g s g g s g s g s g s g s d g d y F G ",
"m F i s s g s g s g s g s g s g s g s g s g s g s g s g s g s g s g s g s g s g s g s g s g s g s g s g s g s g s g s g s g A A ",
"m F i s g s g s g s g s g s g s g s g s g s g s g s g s g s g s g s g s g s g s g s g s g s g s g s g s g s g s g s g s g s m A ",
"F E i g s g s g s g s g s g s g s g s g s g s g s g s g s g s g s g s g s g s g s g s g s g s g s g s g s g s g s g s g d d m m ",
"A G g s g s g s g s g s g s g s g s g s g s g s g s g s g s g s g s g s g s g s g s g s g s g s g s g s g s g s g s g s d d B G ",
"A F i g i g s g s g s g s g s g s g s g s g s g s g s g s g s g s g s g s g s g s g s g s g s g s g s g s g s g g s g s d s A A ",
"A F g s g s g s g s g s g s g s g s g s g s g s g s g s g s g s g s g s g s g s g s g s g s g s g s g s g s g s s g s g d s m m ",
"m F i s s g s g s g s g s g s g s g s g s g s g s g s g s g s g s g s g s g s g s g s g s g s g s g s g s g s g g s s s d d m G ",
"m F i s g s g s g s g s g s g s g s g s g s g s g s g s g s g s g s g s g s g s g s g s g s g s g s g s g s g s s g d d d d n E ",
"A E s g s g s g s g s g s g s g s g s g s g s g s g s g s g s g s g s g s g s g s g s g s g s g s g s g s g s g g s g s g s A G ",
"A G g s g s g s g s g s g s g s g s g s g s g s g s g s g s g s g s g s g s g s g s g s g s g s g s g s g s g s s g s g s g B F ",
"A F i g s g s g s g s g s g s g s g s g s g s g s g s g s g s g s g s g s g s g s g s g s g s g s g s g s g s g g s g s d d B B ",
"A F g s g s g s g s g s g s g s g s g s g s g s g s g s g s g s g s g s g s g s g s g s g s g s g s g s g s g s s g s g d d B n ",
"m F i s s g s g s g s g s g s g s g s g s g s g s g s g s g s g s g s g s g s g s g s g s g s g s g s g s g s g s g s g d g m G ",
"m F i s g s g s g s g s g s g s g s g s g s g s g s g s g s g s g s g s g s g s g s g s g s g s g s g s g s g s g s g s s s B E ",
"F E i g s g s g s g s g s g s g s g s g s g s g s g s g s g s g s g s g s g s g s g s g s g s g s g s g s g s g s g s g d d n B ",
"A G g s g s g s g s g s g s g s g s g s g s g s g s g s g s g s g s g s g s g s g s g s g s g s g s g s g s g s g s d g d y A G "
};
