/* XPM */
static char *xpm_[] = {
/* columns rows colors chars-per-pixel */
"64 64 103 2 ",
"   c #00CB00",
".  c #00D027",
"X  c #00D02C",
"o  c #00D02E",
"O  c #00D031",
"+  c #00D032",
"@  c #00D033",
"#  c #00D034",
"$  c #00D134",
"%  c #00D035",
"&  c #00D135",
"*  c #00D137",
"=  c #00D038",
"-  c #00D139",
";  c #11D13E",
":  c #26D145",
">  c #28D147",
",  c #28D247",
"<  c #2DD249",
"1  c #33D24D",
"2  c #36D34F",
"3  c #38D350",
"4  c #3CD352",
"5  c #40D355",
"6  c #41D355",
"7  c #42D357",
"8  c #43D357",
"9  c #43D457",
"0  c #44D457",
"q  c #44D358",
"w  c #47D359",
"e  c #46D35A",
"r  c #45D458",
"t  c #45D459",
"y  c #46D459",
"u  c #47D459",
"i  c #46D45A",
"p  c #47D45A",
"a  c #47D55A",
"s  c #48D55A",
"d  c #48D45B",
"f  c #49D45B",
"g  c #49D45C",
"h  c #4AD45C",
"j  c #4AD45D",
"k  c #49D75C",
"l  c #4CD45E",
"z  c #4DD45E",
"x  c #4DD55E",
"c  c #4ED55F",
"v  c #4FD55F",
"b  c #49D95C",
"n  c #4ADA5D",
"m  c #4ADB5E",
"M  c #4ADC5D",
"N  c #4ADE5E",
"B  c #4BDE5F",
"V  c #4FD560",
"C  c #50D560",
"Z  c #50D561",
"A  c #51D562",
"S  c #53D563",
"D  c #56D565",
"F  c #54D664",
"G  c #56D666",
"H  c #59D668",
"J  c #62D86F",
"K  c #6BD877",
"L  c #4BE160",
"P  c #4CE260",
"I  c #4DE862",
"U  c #50F166",
"Y  c #86DD8E",
"T  c #8CDF94",
"R  c #95E19D",
"E  c #98E29F",
"W  c #AAE5AE",
"Q  c #AEE6B3",
"!  c #B0E7B5",
"~  c #B2E8B7",
"^  c #B5E8B9",
"/  c #BEEBC1",
"(  c #C3ECC6",
")  c #C8EECB",
"_  c #CCEFCF",
"`  c #CDEFCF",
"'  c #CEEFD1",
"]  c #D2F1D4",
"[  c #D3F1D5",
"{  c #D8F3DB",
"}  c #DAF3DC",
"|  c #DBF4DD",
" . c #DCF4DE",
".. c #E1F6E3",
"X. c #F4FCF5",
"o. c #F5FCF5",
"O. c #F5FCF6",
"+. c #F6FCF7",
"@. c #F9FDF9",
"#. c #FBFEFB",
"$. c #FDFFFD",
"%. c white",
"&. c None",
/* pixels */
"&.&.&.&.&.&.&.&.&.&.&.&.&.&.&.&.&.&.&.&.&.&.&.&.&.&.&.&.&.&.&.&.&.&.&.&.&.&.&.&.&.&.&.&.&.&.&.&.&.&.&.&.&.&.&.&.&.&.&.&.&.&.&.&.",
"k U B P P P P P P P P P P P P P P P P P P P P P P P P P P P P P P P P P P P P P P P P P P P P P P P P P P P P P P P P P P L I B ",
"p B p w w w 0 p w w w w w w w w w w w p w w w w w w w w w w w w w w w w w w w w w w w w w w w w w w w w w w w w w w w w w p p b ",
"p P p p s w s p p p p p p p p p p p p p p p p p p p p p p p p p p p p p p p p p p p p p p p p p p p p p p p p p p p p p p s b b ",
"p P p p p p p p p p p p p p p p p p p p p p p p p p p p p p p p p p p p p p p p p p p p p p p p p p p p p p p p p p p p p p b b ",
"p P p p p p p p p p p p p p p p p p p p p p p p p p p p p p p p p p p p p p p p p p p p p p p p p p p p p p p p p p p p p p b B ",
"0 P p p p p p p p p p p p p p p p p p p p p p p p p p p p p p p p p p p p p p p p p p p p p p p p p p p p p p p p p p p p w b b ",
"p P p p p p p p p p p p p p p p p p p p p p p p p p p p p p p p p p p p p p p p p p p p p p p p p p p p p p p p p p p p p w b B ",
"p P p p p p p p p p p p p p p p p p p p p p p p p p p p p p p p p p p p p p p p p p p p p p p p p p p p p p p p p p p p p p b b ",
"p P p p p p p p p p p p p p p p p p p p p p p p p p p p p p p p p p p p p p p p p p p p p p p p p p p p p p p p p p p p p p b B ",
"p P p p p p p p p p p p p p p p p p p p p p p p p p p p p p p p p p p p p p p p p p p p p p p p p p p p p p p p p p p p p w b b ",
"0 P p p p p p p p p p p p p p p p p p p p p p p p p p p p p p p p p p p p p p p p p p p p p p p p p p p p p p p p p p p p w b B ",
"p P p p p p p p p p p p p p p p p p p p p p p p p p p p p p p p p p p p p p p p p p p p p p p p p p p p p p p p p p p p p p b b ",
"p P p p p p p p p p p p p p p p p p p p p p p p p p p p p p p p p p p p p p p p p p p p p p p p p p p p p p p p p p p p p p b B ",
"0 P p p p p p p p p p p p p p p p p p p p p p p p p p p p p p p p p p p p p p p p p p p p p p p p p p p p p p p p p p p p w b b ",
"p P p p p p p p p p p p p p p p p p p p p p p p p p p p p p p p p p p p p p p p p p p p p p p p p p p p p p p p p p p p p w b B ",
"p P p p p p p p p p p p p p p p p p p p p p p p p p p p p p p p p p p p p p p p p p p p p p p p p p p p p p p p p p p p p p b b ",
"0 P p p p p p p p p p p p p p p p p p p p p p p p p p p p p p p p p p p p p p p p p p p p p p p p p p p p p p p p p p p p p b B ",
"p P p p p p p p p p p p p p p p p p p p p p p p p p p p p p p p p p p p p p p p p p p p p p p p p p p p p p p p p p p p p w b b ",
"p P p p p p p p p p p p p p p p p p p p p p p p p p p p p p p p p p p p p p p p p p p p p p p p p p p p p p p p p p p p p w b B ",
"0 P p p p p p p p p p p p p p p p p p p p p p p p p p p p p p p p p p p p p p p p p p p p p p p p p p p p p p p p p p p p p b b ",
"p P p p p p p p p p p p p p p p p p p p p p p p p p p p p p p p p p p p p p p p p p p p p p p p p p p p p p p p p p p p p p b B ",
"p P p p p p p p p p p p p p p p p p p p p p p p p p p p p p p p p p p p p p p p p p p p p p p p p p p p p p p p p p p p p w b b ",
"0 P p p p p p p p p p p p p p p p p p p p p p p p p p p p p p p p p p p p p p p p p p p p p p p p p p p p p p p p p p p p w b B ",
"p P p p p p p p p p p p p p p p p p p p p p p p p p p p w p p s p p w e e p p p p p p p p p p p p p p p p p p p p p p p p p b b ",
"p P p p p p p p p p p p p p p p p p p p p p p p p p p p l V l l l V V k d p p p p p p p p p p p p p p p p p p p p p p p p p b B ",
"0 P p p p p p p p p p p p p p p p p p p p p p p p p p p 2 $ $ $ $ $ ; 2 k p p p p p p p p p p p p p p p p p p p p p p p p w b b ",
"p P p p p p p p p p p p p p p p p p p p p p p p p p l : R ..|  . .| } E > l p p p p p p p p p p p p p p p p p p p p p p p w b B ",
"p P p p p p p p p p p p p p p p p p p p p p p p p p k < T [ ' ' ` ] %.Q = V w w p p p p p p p p p p p p p p p p p p p p p p b b ",
"0 P p p p p p p p p p p p p p p p p p p p p p p p p w s 1 . X -   W O.S 6 l p w p p p p p p p p p p p p p p p p p p p p p p b B ",
"p P p p p p p p p p p p p p p p p p p p p p p p p p p p l A A l F @./ O V p p p p p p p p p p p p p p p p p p p p p p p p w b b ",
"p P p p p p p p p p p p p p p p p p p p p p p p p p p p w e V % ^ #.H 4 k p p p p p p p p p p p p p p p p p p p p p p p p w b B ",
"p P p p p p p p p p p p p p p p p p p p p p p p p p p p w w 7 k O.( O A w p p p p p p p p p p p p p p p p p p p p p p p p p b b ",
"p P p p p p p p p p p p p p p p p p p p p p p p p p p p d A % ~ %.J 3 l p p p p p p p p p p p p p p p p p p p p p p p p p p b B ",
"p P p p p p p p p p p p p p p p p p p p p p p p p p d p k w p O.) O Z w p p p p p p p p p p p p p p p p p p p p p p p p p p b b ",
"p P p p p p p p p p p p p p p p p p p p p p p p p p w w V O Q %.K 3 l w p p p p p p p p p p p p p p p p p p p p p p p p p p k B ",
"p P p p p p p p p p p p p p p p p p p p p p p p p p p k p V X.' $ V p p p p p p p p p p p p p p p p p p p p p p p p p p p 0 b b ",
"9 P p p p p p p p p p p p p p p p p p p p p p p p p w e 7 F Y F 7 p p p p p p p p p p p p p p p p p p p p p p p p p p p p p b B ",
"p P p p p p p p p p p p p p p p p p p p p p p p p p e d w 7 > 6 l w p p p p p p p p p p p p p p p p p p p p p p p p p p p w b b ",
"p P p p p p p p p p p p p p p p p p p p p p p p p p p p w l l k p p p p p p p p p p p p p p p p p p p p p p p p p p p p p w b B ",
"0 P p p p p p p p p p p p p p p p p p p p p p p p p p p p p p p p p p p p p p p p p p p p p p p p p p p p p p p p p p p p p b b ",
"p P p p p p p p p p p p p p p p p p p p p p p p p p p p p p p p p p p p p p p p p p p p p p p p p p p p p p p p p p p p p p b B ",
"p P p p p p p p p p p p p p p p p p p p p p p p p p p p p p p p p p p p p p p p p p p p p p p p p p p p p p p p p p p p p w b b ",
"0 P p p p p p p p p p p p p p p p p p p p p p p p p p p p p p p p p p p p p p p p p p p p p p p p p p p p p p p p p p p p w b B ",
"p P p p p p p p p p p p p p p p p p p p p p p p p p p p p p p p p p p p p p p p p p p p p p p p p p p p p p p p p p p p p p b b ",
"p P p p p p p p p p p p p p p p p p p p p p p p p p p p p p p p p p p p p p p p p p p p p p p p p p p p p p p p p p p p p p b B ",
"0 P p p p p p p p p p p p p p p p p p p p p p p p p p p p p p p p p p p p p p p p p p p p p p p p p p p p p p p p p p p p w b b ",
"p P p p p p p p p p p p p p p p p p p p p p p p p p p p p p p p p p p p p p p p p p p p p p p p p p p p p p p p p p p p p w b B ",
"p P p p p p p p p p p p p p p p p p p p p p p p p p p p p p p p p p p p p p p p p p p p p p p p p p p p p p p p p p p p p p b b ",
"0 P p p p p p p p p p p p p p p p p p p p p p p p p p p p p p p p p p p p p p p p p p p p p p p p p p p p p p p p p p p p p b B ",
"p P p p p p p p p p p p p p p p p p p p p p p p p p p p p p p p p p p p p p p p p p p p p p p p p p p p p p p p p p p p p w b b ",
"p P p p p p p p p p p p p p p p p p p p p p p p p p p p p p p p p p p p p p p p p p p p p p p p p p p p p p p p p p p p p w b B ",
"0 P p p p p p p p p p p p p p p p p p p p p p p p p p p p p p p p p p p p p p p p p p p p p p p p p p p p p p p p p p p p p b b ",
"p P p p p p p p p p p p p p p p p p p p p p p p p p p p p p p p p p p p p p p p p p p p p p p p p p p p p p p p p p p p p p b B ",
"p P p p p p p p p p p p p p p p p p p p p p p p p p p p p p p p p p p p p p p p p p p p p p p p p p p p p p p p p p p p p w b b ",
"0 P p p p p p p p p p p p p p p p p p p p p p p p p p p p p p p p p p p p p p p p p p p p p p p p p p p p p p p p p p p p w b B ",
"p P p p p p p p p p p p p p p p p p p p p p p p p p p p p p p p p p p p p p p p p p p p p p p p p p p p p p p p p p p p p p b b ",
"p P p p p p p p p p p p p p p p p p p p p p p p p p p p p p p p p p p p p p p p p p p p p p p p p p p p p p p p p p p p p p b B ",
"0 P p p p p p p p p p p p p p p p p p p p p p p p p p p p p p p p p p p p p p p p p p p p p p p p p p p p p p p p p p p p w b b ",
"p P p p p p p p p p p p p p p p p p p p p p p p p p p p p p p p p p p p p p p p p p p p p p p p p p p p p p p p p p p p p w b B ",
"p P p p p p p p p p p p p p p p p p p p p p p p p p p p p p p p p p p p p p p p p p p p p p p p p p p p p p p p p p p p p p b b ",
"0 P p p p p p p p p p p p p p p p p p p p p p p p p p p p p p p p p p p p p p p p p p p p p p p p p p p p p p p p p p p p p b B ",
"p P p p p p p p p p p p p p p p p p p p p p p p p p p p p p p p p p p p p p p p p p p p p p p p p p p p p p p p p p p p p w b b ",
"p P p p p p p p p p p p p p p p p p p p p p p p p p p p p p p p p p p p p p p p p p p p p p p p p p p p p p p p p p p p p w b B "
};
