/* XPM */
static char *result[] = {
/* columns rows colors chars-per-pixel */
"64 64 243 2 ",
"   c #030201",
".  c #0C0001",
"X  c #01030B",
"o  c #0B0908",
"O  c #140101",
"+  c #1B0201",
"@  c #120B03",
"#  c #13030C",
"$  c #1B0809",
"%  c #0F1000",
"&  c #151309",
"*  c #020614",
"=  c #02021B",
"-  c #160913",
";  c #230102",
":  c #220A04",
">  c #241308",
",  c #250B14",
"<  c #3D271A",
"1  c #383516",
"2  c #322D23",
"3  c #3B2928",
"4  c #382836",
"5  c #3C3333",
"6  c #3A3C39",
"7  c #511C1A",
"8  c #452B11",
"9  c #58261B",
"0  c #483C17",
"q  c #62261F",
"w  c #462624",
"e  c #442B2D",
"r  c #4C2B2B",
"t  c #582926",
"y  c #532C2C",
"u  c #4A3224",
"i  c #4B3C27",
"p  c #4B342E",
"a  c #51332B",
"s  c #59372D",
"d  c #472B38",
"f  c #522D31",
"g  c #453335",
"h  c #4B3232",
"j  c #47393A",
"k  c #523334",
"l  c #573738",
"z  c #652826",
"x  c #68382B",
"c  c #643836",
"v  c #3C433C",
"b  c #4C4717",
"n  c #4C462E",
"m  c #54463D",
"M  c #77482B",
"N  c #66463B",
"B  c #79483B",
"V  c #745331",
"C  c #3B384A",
"Z  c #473844",
"A  c #51364A",
"S  c #6D3C40",
"D  c #4D4547",
"F  c #59444A",
"G  c #55564C",
"H  c #464456",
"J  c #5B4853",
"K  c #585657",
"L  c #69484A",
"P  c #784A46",
"I  c #6C534A",
"U  c #785546",
"Y  c #73544C",
"T  c #644E57",
"R  c #704654",
"E  c #635353",
"W  c #6A5656",
"Q  c #64545A",
"!  c #785757",
"~  c #535D6E",
"^  c #6B5964",
"/  c #785A67",
"(  c #755C74",
")  c #5A6566",
"_  c #546373",
"`  c #75656E",
"'  c #87552D",
"]  c #8F502F",
"[  c #884B35",
"{  c #98453A",
"}  c #855439",
"|  c #986232",
" . c #874D4B",
".. c #944B48",
"X. c #88544A",
"o. c #965349",
"O. c #894D56",
"+. c #964C54",
"@. c #895857",
"#. c #965657",
"$. c #A34C46",
"%. c #B24B45",
"&. c #BC4B4C",
"*. c #AB544C",
"=. c #BA544A",
"-. c #AC4A52",
";. c #B34F59",
":. c #A55656",
">. c #B55854",
",. c #886157",
"<. c #91635D",
"1. c #AB625C",
"2. c #9F4D60",
"3. c #885B65",
"4. c #975867",
"5. c #A75B61",
"6. c #B95564",
"7. c #986368",
"8. c #896677",
"9. c #8B6A74",
"0. c #B06969",
"q. c #BA7B79",
"w. c #DA675B",
"e. c #DC6B5B",
"r. c #DE725D",
"t. c #E46C5D",
"y. c #E4725E",
"u. c #D96C66",
"i. c #CC746A",
"p. c #CA766C",
"a. c #D97667",
"s. c #DC746C",
"d. c #CA7873",
"f. c #C27C79",
"g. c #D47474",
"h. c #D77A75",
"j. c #E46D63",
"k. c #EA6E64",
"l. c #E37364",
"z. c #E3736A",
"x. c #EA736B",
"c. c #E37A6C",
"v. c #E97869",
"b. c #F17468",
"n. c #E47373",
"m. c #E97971",
"M. c #9B8241",
"N. c #AE915C",
"B. c #BA9059",
"V. c #B48866",
"C. c #BA9368",
"Z. c #B08A72",
"A. c #BBA06D",
"S. c #B8A77A",
"D. c #C8817D",
"F. c #D28178",
"G. c #C5997B",
"H. c #C9A376",
"J. c #956F85",
"K. c #AC9788",
"L. c #B0918E",
"P. c #B8998A",
"I. c #BA9B95",
"U. c #BAAD87",
"Y. c #BAA697",
"T. c #BDA39D",
"R. c #B9A2A4",
"E. c #BAA7B9",
"W. c #CA8883",
"Q. c #D98884",
"!. c #C89A89",
"~. c #C29C98",
"^. c #D79D99",
"/. c #C9A58A",
"(. c #D2A38A",
"). c #C7A899",
"_. c #D4A79A",
"`. c #CFB495",
"'. c #E4A796",
"]. c #D49CAE",
"[. c #C6A8A6",
"{. c #D7A8A7",
"}. c #CAB4A5",
"|. c #C6A8BF",
" X c #D3ABB5",
".X c #DAB4BA",
"XX c #EAB1B0",
"oX c #E5C99C",
"OX c #DDCBBB",
"+X c #FFCBA7",
"@X c #EAD2AB",
"#X c #FCD3AB",
"$X c #E8CAB7",
"%X c #F6CAB6",
"&X c #ECD2B4",
"*X c #FBD3B5",
"=X c #F8D4BA",
"-X c #ECE2BF",
";X c #FFE1BC",
":X c #BCAECA",
">X c #BBB2D8",
",X c #C7ABC6",
"<X c #CCACC3",
"1X c #D6ACC2",
"2X c #CBB2C9",
"3X c #D4B4C7",
"4X c #C9B8D6",
"5X c #D6BBD3",
"6X c #EBB3C6",
"7X c #C3B9E1",
"8X c #C8C1DC",
"9X c #EDCFC7",
"0X c #FBCCC5",
"qX c #EBD6C9",
"wX c #F8D5C6",
"eX c #FBCDD3",
"rX c #E0D8DB",
"tX c #FFD3D5",
"yX c #F9DAD7",
"uX c #FBE4C3",
"iX c #E3E0DD",
"pX c #FFE2D2",
"aX c #F3DCEC",
"sX c #EBE5E8",
"dX c #EDEDEC",
"fX c #F9E6E8",
"gX c #F4EDEC",
"hX c #FDECEE",
"jX c #EAF6ED",
"kX c #F3F3EE",
"lX c #F9F7EB",
"zX c #EBE8F9",
"xX c #F9E9F7",
"cX c #FDEDFB",
"vX c #ECF6F6",
"bX c #F4F4F5",
"nX c #FDF4F4",
"mX c #F5FCF4",
"MX c #FDFCF5",
"NX c #F4F4FB",
"BX c #FDF5FC",
"VX c #F6FDFB",
"CX c #FEFEFE",
/* pixels */
"CXCXCXCXCXCXCXCXCXCXCXCXCXCXCXCXCXCXBXCXBXCXCXCXCXBXCXCXCXCXCXCXBXVXVXVXVXVXCXCXCXCXCXCXCXCXCXCXCXCXCXCXCXCXCXCXCXCXCXCXCXCXCXCX",
"CXCXCXCXCXCXCXCXCXCXCXCXCXCXCXCXCXCXCXCXCXCXCXCXCXCXCXCXCXCXCXCXVXVXVXBXCXCXCXVXCXCXCXCXCXCXMXCXCXCXCXCXCXCXCXCXCXCXCXCXCXCXCXCX",
"CXCXCXCXCXCXCXCXCXCXCXCXCXCXCXCXVXCXCXCXCXCXVXCXCXCXMXCXCXCXCXCXCXCXCXCXCXCXCXCXCXCXCXCXCXCXCXCXCXCXCXCXCXCXCXCXCXCXCXCXCXCXCXCX",
"CXCXCXCXCXCXCXCXCXCXCXCXCXCXCXCXVXVXVXVXVXVXVXVXmXVXVXCXMXVXMXCXCXCXVXMXVXCXCXCXCXCXCXCXCXCXVXCXCXCXCXCXCXCXCXCXCXCXCXCXCXCXCXCX",
"CXCXCXCXCXCXCXCXCXCXCXCXCXCXCXCXVXmXVXVXVXVXVXVXVXVXVXVXCXMXMXCXMXMXMXMXCXMXCXCXCXCXCXCXCXCXCXCXCXCXCXCXCXCXCXCXCXCXCXCXCXCXCXCX",
"CXCXCXCXCXCXCXCXCXCXCXCXCXCXCXCXVXVXVXVXVXVXCXBXMXCXCXCXCXCXCXCXMXMXMXMXMXCXCXMXCXCXCXCXCXCXCXCXCXCXCXCXCXCXCXCXCXCXCXCXCXCXCXCX",
"CXCXCXCXCXCXCXCXCXCXCXCXCXCXCXCXCXCXCXCXCXCXCXCXCXCXCXMXCXCXBXMXMXMXMXMXCXCXCXCXCXCXCXCXCXCXCXCXCXCXCXCXCXCXCXCXCXCXCXCXCXCXCXCX",
"CXCXCXCXCXCXCXCXCXCXCXCXCXCXCXCXCXCXCXCXCXCXCXCXCXMXBXCXMXCXCXCXCXCXCXCXVXCXCXVXCXVXCXCXCXCXCXCXCXCXCXCXCXCXCXCXCXCXCXCXCXCXCXCX",
"CXCXCXCXCXCXCXCXCXCXCXCXCXCXCXCXCXBXBXcXBXBXBXCXBXCXCXCXCXCXCXCXbXCXVXVXVXVXvXVXCXVXCXVXCXMXMXMXCXCXCXCXCXCXCXCXCXCXCXCXCXCXCXCX",
"CXCXCXCXCXCXCXCXCXCXCXCXCXCXCXCXCXBXCXCXcXBXCXNXBXCXBXBXNXVXVXBXCXbXVXNXCXNXVXzXCXVXCXVXCXMXMXCXCXCXCXCXCXCXCXCXCXCXCXCXCXCXCXCX",
"CXCXCXCXCXCXCXCXCXCXCXCXCXCXCXCXCXNXzXCXNXCXCXVXCXCXCXCXCXCXCXCXCXBXCXNXNXCXNXCXNXCXBXCXCXMXMXMXCXCXCXCXCXCXCXCXCXCXCXCXCXCXCXCX",
"CXCXCXCXCXCXCXCXCXCXCXCXCXCXCXCXVXCXCXCXNXCXNXCXMXVXMXMXMXMXMXMXcXcXBXcXNXBXcXcXCXCXNXVXMXMXMXCXCXCXCXCXCXCXCXCXCXCXCXCXCXCXCXCX",
"CXCXCXCXCXCXCXCXCXCXCXCXCXCXCXCXVXCXvXVXCXCXnXBXj g p p p y a a s t y r k 3 BXxXBXcXBXCXCXCXMXbXCXCXCXCXCXCXCXCXCXCXCXCXCXCXCXCX",
"CXCXCXCXCXCXCXCXCXCXCXCXCXCXCXCXCXCXBXCXnXCXMXMXr r a t t t q q q z q t 7 w hXcXCXsXCXCXbXnXVXCXCXCXCXCXCXCXCXCXCXCXCXCXCXCXCXCX",
"CXCXCXCXCXCXCXCXCXCXCXCXCXCXCXCXnXCXMXgXj w t y J.Z.f.f.d.g.d.g.i.h.F.D.W.L.t r d Z sXCXCXCXVXVXCXCXCXCXCXCXCXCXCXCXCXCXCXCXCXCX",
"CXCXCXCXCXCXCXCXCXCXCXCXCXCXCXCXCXnXnXnXw k x z F.d.d.s.g.s.s.s.s.u.a.p.d.D.z z y k BXCXbXVXVXCXCXCXCXCXCXCXCXCXCXCXCXCXCXCXCXCX",
"CXCXCXCXCXCXCXCXCXCXCXCXCXCXCXCXbXCXe r 4.+.Q.d.g.z.z.e.b.x.x.z.e.a.r.l.c.c.n.g.:.4.l D bXMXVXCXCXCXCXCXCXCXCXCXCXCXCXCXCXCXCXCX",
"CXCXCXMXCXCXCXCXCXCXCXCXCXCXCXCXCXMXe f 4.#.g.u.x.k.b.k.j.t.j.j.l.l.r.y.t.k.k.m.-.O.f g CXVXCXkXCXCXCXCXCXCXCXCXCXCXCXCXCXCXCXCX",
"MXMXCXCXCXCXCXCXCXCXCXCXCXVXCXCXMXnXr t 4.5.g.n.j.j.y.b.t.x.x.m.m.b.v.l.y.t.l.z.-.+.l d CXCXCXnXCXCXCXCXCXCXCXCXCXCXCXCXCXCXCXCX",
"CXCXCXCXCXCXCXCXCXCXCXCXCXCXCXCXgXnXa x f.g.i.n.b.t.w.k.w.z.u.u.u.j.e.r.y.y.y.l.g.q.c g MXnXnXnXCXCXCXCXCXCXCXCXCXCXCXCXCXCXCXCX",
"CXCXCXCXMXCXCXCXCXCXCXCXCXCXCXCXMXnX7 7 h.h.s.x.y.y.t.v.a.m.g.g.n.x.j.u.y.y.y.F.d.f.t k fXnXnXBXCXCXCXCXCXCXCXCXCXCXCXCXCXCXCXCX",
"CXCXCXCXCXCXCXCXCXCXCXCXCXCXCXCXnXfXy q F.h.z.j.t.b.y.a.a.i.i.h.n.n.c.s.F.r.r.r.h.q.t Y hXBXBXaXCXCXCXCXCXCXCXCXCXCXCXCXCXCXCXCX",
"CXCXCXCXCXCXCXCXCXCXCXCXCXCXCXCXh f 7 x 0.s.m.v.y.F.a.a.Q.F.d.h.h.n.i.i.a.a.l.a.h.p.x w k j aXBXCXCXCXCXCXCXCXCXCXCXCXCXCXCXCXCX",
"CXCXCXCXCXCXCXCXCXCXCXCXCXCXCXCXd w 7.:.%.=.e.l.r.s.h.F.0XtX0XeXtXXX'.h.i.a.l.l.=.*.o.X.A 3 CXBXCXCXCXCXCXCXCXCXCXCXCXCXCXCXCXCX",
"CXCXCXCXCXCXCXCXCXCXCXVXCXVXCXMX3 A #.o.>.%.e.a.F.i.p.f.eXtXtXeXeXtXJ.Q.p.a.z.u.&.=.o.<.3 j BXCXCXCXCXCXCXCXCXCXCXCXCXCXCXCXCXCX",
"CXCXCXCXCXCXCXCXCXCXVXCXnXCXCXCXO ; #.#.1.%.%.=.$.*.XX{.aXeX@.3.aXyX{.^.1.:.&.&.&.=... .O @ vXCXCXCXCXCXCXCXCXCXCXCXCXCXCXCXCXCX",
"CXCXCXCXCXCXCXCXBXCXnXCXCXCXCXbX- + 7. .*.*.*.>.5.#.XX6XeXaX3.8.aXyX3X[.4.5.;.-.&.;.#.,.+ @ VXCXCXCXCXCXCXCXCXCXCXCXCXCXCXCXCXCX",
"CXCXCXCXCXCXCXCXCXCXMXCXbXnXCXCX. O 7.o.1.:.:.:.O.O..X<X8.8.! 3.3.8.|.9X8.4.6.6.-.-.o.X.O   MXNXCXCXCXCXCXCXCXCXCXCXCXCXCXCXCXCX",
"CXCXVXCXCXCXCXCXVXMXCXMXCXMXkXMX$ + 3. .5. .5.+.8.J.,X4X( ( 8.8.` 8.E.,X8.3.4.2.5.5.o.@.O . nXCXCXCXCXCXCXCXCXCXCXCXCXCXCXCXCXCX",
"VXCXCXCXCXCXCXCXCXCXCXsXCXCXsXCX  . f z #.5.XX1X1X,X,X4X:X4X|.1X5XE.8X4XE.3X6X6X4.#.t y O > sXMXCXCXCXCXCXCXCXCXCXCXCXCXCXCXCXCX",
"CXCXVXCXCXCXCXCXVXCXCXCXMXiXj 5 # $ r s @.7.{. X,X4X7X7X7X4X|.5X3X2X4X4X:X,X,X1X4.@.t m + . D 3 CXCXCXCXCXCXCXCXCXCXCXCXCXCXCXCX",
"CXCXCXCXCXCXCXCXCXCXbXMXCXCX6 5 . + w f @.9. X1X2X7X>X7X7X:X5X<X3X2X:X:X7X7X,X1X3.@.w u + + h e CXCXCXCXCXCXCXCXCXCXCXCXCXCXCXCX",
"CXCXCXCXCXCXCXCXCXVXCXCXnXCXo @ _.Z.! L Z Z A Z ,X4XxXzXzXzXsXsXsXBXsXzX:X4X4 A d f Y N ).Y.. $ CXCXCXCXCXCXCXCXCXCXCXCXCXCXCXCX",
"CXCXCXCXCXCXCXCXCXCXnXNXVXCX  O G.(.Y E Z 4 4 d 5X,XaXcXzXNXvXiXgXrXsXxX:X:XA 4 r k P I ).[.O . CXCXCXCXCXCXCXCXCXCXCXCXCXCXCXCX",
"CXCXCXCXCXCXCXCXbXCXCXCXVXCX  & ).!.a g T ^ E I R / ^ J Z C e m 5 j K ^ Q ^ A / I Y s u K.L.. $ CXCXCXCXCXCXCXCXCXCXCXCXCXCXCXCX",
"CXCXCXCXCXCXCXCXCXCXbXBXCXkXo . ~.).a e W A Y Y N P J Q 4 3 A e d g Q ^ T Q ! R I Y u u R.Y.    CXCXCXCXCXCXCXCXCXCXCXCXCXCXCXCX",
"CXCXCXCXCXCXCXCXbXMXCXCXVXCXdXCX+ + e j R.T.B M (./.u j R.[.[.~.R.R.j h R.I.! Y Y.}.< i . . CXBXCXCXCXCXCXCXCXCXCXCXCXCXCXCXCXCX",
"CXCXCXCXCXCXCXCXCXVXBXCXCXbXCXgXO + h e ).).V ' H.S.8 u T.I._.^.I. Xh k R.L.I I ).K.n < . # BXCXCXCXCXCXCXCXCXCXCXCXCXCXCXCXCXCX",
"CXCXCXCXCXCXCXCXCXCXCXCXCXbXCXCXCXhX. O T.P.'.G.;X;X> @ wXwX%X*X9X9X+ + pXpXP.}.Y.}.. . CXnXnXbXCXCXCXCXCXCXCXCXCXCXCXCXCXCXCXCX",
"CXCXCXCXCXCXCXCXCXCXMXVXCXCXnXCXbXCX  . ).}.H.(.;X;X: O yX%X+X*X*X$X: ; pXyX/.I.Y.Y.@   MXnXCXCXCXCXCXCXCXCXCXCXCXCXCXCXCXCXCXCX",
"CXCXCXCXCXCXCXCXCXCXCXCXCXCXCXCXmXMXnXCXO + !.(.=X$XqXqX&X=X#X+X#X&X*X$XwX0X_.I.O # gXMXMXmXMXlXCXCXCXCXCXCXCXCXCXCXCXCXCXCXCXCX",
"CXCXCXCXCXCXCXCXCXCXCXCXCXCXCXCXmXCXjXCX@ + _.(.=X$XqXqX&XwX+X+XoXuX@X%X0X%X~.{.+ O CXCXlXMXkXMXCXCXCXCXCXCXCXCXCXCXCXCXCXCXCXCX",
"CXCXCXCXCXCXCXCXCXCXCXCXCXCXCXCXmXmXmXkX. + B B ~.{.OX9XqX&XH.H.#X@X#X*X(.'.P P + . gXCXmXMXMXkXCXCXCXCXCXCXCXCXCXCXCXCXCXCXCXCX",
"CXCXCXCXCXCXCXCXCXCXCXCXCXCXCXCXMXMXmXlX% @ U V _._.9XyXqX&X`.H.=X&X*X*X!.!.U Y + . CXCXMXMXMXlXCXCXCXCXCXCXCXCXCXCXCXCXCXCXCXCX",
"CXCXCXCXCXCXCXCXCXCXCXCXCXCXCXCXbXCX  % 1 0 V.V.[ x 9 r P.}.U./.P.).8 9 ] } Z.Z.n < %   jXnXCXMXCXCXCXCXCXCXCXCXCXCXCXCXCXCXCXCX",
"CXCXCXCXCXCXCXCXCXCXCXCXCXCXCXCXBXgX  % 1 b A.N.' M x l I.[.U.`.}.Y.n q M M C.N.8 i &   CXBXxXCXCXCXCXCXCXCXCXCXCXCXCXCXCXCXCXCX",
"CXCXCXCXCXCXCXCXCXCXCXCXCXCXCXCXJ / 5 n b b M.B.| ' _.{.w < N < e d ~._.' ' C.N.b 8 1 v D K CXxXCXCXCXCXCXCXCXCXCXCXCXCXCXCXCXCX",
"CXCXCXCXCXCXCXCXCXCXCXCXCXCXCXNXL L j n 1 b N.B.] { ^.XXf w h 3 Z A ].'.' ] C.C.0 b n n D E xXcXCXCXCXCXCXCXCXCXCXCXCXCXCXCXCXCX",
"CXCXCXCXVXCXCXVXCXCXBXBXMXnXT L =X$X).U.n i X.} { { { o.{.[.A j ].1X .o.] [ X.U n 1 U.S.@XwXL S BXCXCXCXCXCXCXCXCXCXCXCXCXCXCXCX",
"CXCXCXCXCXCXVXCXCXCXCXCXhXBXF I =X=XY.K.p p L B ..$.$..._.R.6 H 1X X#.M o.X. .3.p 1 S.S.oX%X .R CXCXCXCXCXCXCXCXCXCXCXCXCXCXCXCX",
"CXCXCXCXCXVXVXCXCXVXMXMXgXCXF I =XwX$XyX@ @ + ; c B .. ..X3XC C 4X,X! } B B ; ; $ @ -X-X@X=Xc R BXCXCXCXCXCXCXCXCXCXCXCXCXCXCXCX",
"CXBXCXCXCXCXCXVXvXbXCXCXBXhXQ m XX=X9XyXO . + + B N P ! R.E.Z C :X|.! @.N N + O O . OXuX=X$XO.A CXCXCXCXCXCXCXCXCXCXCXCXCXCXCXCX",
"BXCXCXCXCXBXCXVXCXCXVXbXMXCXgXMXP P c j $ , D E O . o . o - * = = =   . + : / 8.# - m N n N hXcXBXCXCXCXCXCXCXCXCXCXCXCXCXCXCXCX",
"CXCXCXCXCXCXVXCXvXCXCXCXCXgXCXnXI P L L . # K )     % %   X = = = = * $ . . ^ ^ # . n G I Y cXxXCXCXCXCXCXCXCXCXCXCXCXCXCXCXCXCX",
"BXCXCXCXCXCXVXVXCXVXmXVXCXVXCXgXfXfXnXBX# # A Z 6 v K ) ) ~ H C ~ _ K ) j g A Z o $ MXMXlXfXBXBXCXCXCXCXCXCXCXCXCXCXCXCXCXCXCXCX",
"CXCXCXCXCXVXCXVXVXCXVXCXbXBXCXCXCXnXCXcXO # Z g j v ) ) ) _ C H _ _ ) G D j Z Z # . MXlXlXCXBXCXBXCXCXCXCXCXCXCXCXCXCXCXCXCXCXCX",
"CXCXCXCXCXCXCXCXCXVXCXVXCXCXCXVXVXjXVXnX# , T W W K & o X X X * * *   o K ! ^ ` #   MXkXMXMXNXVXCXCXCXCXCXCXCXCXCXCXCXCXCXCXCXCX",
"CXCXCXCXCXCXVXVXCXCXVXCXCXVXCXCXvXvXCXCX. O L W W K   o o   * X   X o   E F Q Q # 2 dXMXmXmXVXVXCXCXCXCXCXCXCXCXCXCXCXCXCXCXCXCX",
"CXCXCXCXVXCXCXCXVXCXCXCXCXVXVXVXVXjXmXnXhXMXO + @ O CXnXbXCXdXCXCXbXMXCX. O $ O BXfXMXMXmXMXVXvXCXCXCXCXCXCXCXCXCXCXCXCXCXCXCXCX",
"CXCXCXCXCXCXCXCXCXCXCXVXCXCXCXCXvXVXVXlXnXhXO : + O nXnXnXbXCXnXCXnXCXhXO   # . nXCXkXCXMXVXVXjXCXCXCXCXCXCXCXCXCXCXCXCXCXCXCXCX",
"CXCXCXMXCXCXCXCXCXCXCXCXCXCXCXCXvXVXdXCXnXMXMXnXMXnXCXCXCXBXCXCXCXMXCXCXCXbXCXBXMXCXCXBXNXjXVXCXCXCXCXCXCXCXCXCXCXCXCXCXCXCXCXCX",
"VXCXCXCXCXCXCXCXCXCXCXCXCXCXCXCXCXCXCXnXMXMXlXCXnXbXCXcXbXBXkXnXnXgXbXCXdXCXCXbXBXBXBXBXCXCXVXmXCXCXCXCXCXCXCXCXCXCXCXCXCXCXCXCX",
"VXMXCXMXCXCXCXCXCXCXCXCXCXCXCXCXcXcXbXnXCXmXVXmXCXjXCXBXCXbXCXmXCXCXCXVXVXVXCXVXCXCXCXBXBXCXNXCXCXCXCXCXCXCXCXCXCXCXCXCXCXCXCXCX",
"CXCXCXCXCXCXCXCXCXCXCXCXCXCXCXCXcXBXCXCXVXmXvXVXVXCXBXBXNXCXgXCXCXbXVXCXNXCXCXVXBXCXBXCXcXCXBXCXCXCXCXCXCXCXCXCXCXCXCXCXCXCXCXCX"
};
