/* XPM */
static char *result[] = {
/* columns rows colors chars-per-pixel */
"64 64 236 2 ",
"   c #020202",
".  c #0B0101",
"X  c #03030B",
"o  c #090909",
"O  c #130101",
"+  c #1B0201",
"@  c #160709",
"#  c #040614",
"$  c #111111",
"%  c #220400",
"&  c #2A0401",
"*  c #220A00",
"=  c #240B0C",
"-  c #29100C",
";  c #2F251C",
":  c #051526",
">  c #361C36",
",  c #242226",
"<  c #382727",
"1  c #3B3229",
"2  c #3A2A36",
"3  c #393737",
"4  c #481B1B",
"5  c #631A13",
"6  c #49241D",
"7  c #51261A",
"8  c #4B321C",
"9  c #563218",
"0  c #441E22",
"q  c #472926",
"w  c #4C2B2A",
"e  c #582926",
"r  c #5D2529",
"t  c #49362B",
"y  c #5D3527",
"u  c #482936",
"i  c #552E35",
"p  c #5C2D33",
"a  c #4B3232",
"s  c #493A35",
"d  c #453B3B",
"f  c #4D3A3C",
"g  c #523333",
"h  c #563B33",
"j  c #583539",
"k  c #672727",
"l  c #6E302B",
"z  c #673837",
"x  c #39423A",
"c  c #4B423B",
"v  c #5A423A",
"b  c #644427",
"n  c #6E4C32",
"m  c #744A38",
"M  c #7C543A",
"N  c #2E394D",
"B  c #472D43",
"V  c #493947",
"C  c #4F3952",
"Z  c #3E4A5F",
"A  c #4B4A4A",
"S  c #594647",
"D  c #594A54",
"F  c #555857",
"G  c #624542",
"H  c #654B45",
"J  c #684848",
"K  c #6B4D4D",
"L  c #764B4A",
"P  c #68524D",
"I  c #785447",
"U  c #74534D",
"Y  c #674B54",
"T  c #734E52",
"R  c #6A5657",
"E  c #745453",
"W  c #7A5A5B",
"Q  c #50596C",
"!  c #465D78",
"~  c #6B5965",
"^  c #795D6A",
"/  c #58667B",
"(  c #6F6A71",
")  c #883E2B",
"_  c #854A34",
"`  c #8A4A34",
"'  c #825536",
"]  c #96563D",
"[  c #AE4837",
"{  c #884A45",
"}  c #9A4D4B",
"|  c #8B544B",
" . c #995549",
".. c #804C50",
"X. c #865755",
"o. c #8D5B5B",
"O. c #985756",
"+. c #AA4C44",
"@. c #A3534C",
"#. c #AC5349",
"$. c #B65347",
"%. c #A35652",
"&. c #A85A58",
"*. c #B75B53",
"=. c #84625D",
"-. c #8A5A67",
";. c #9A5C64",
":. c #855D72",
">. c #A55D60",
",. c #8D6267",
"<. c #976367",
"1. c #866273",
"2. c #956978",
"3. c #B7716C",
"4. c #BB7A78",
"5. c #C35545",
"6. c #C86056",
"7. c #DC6759",
"8. c #E0675B",
"9. c #E36B5D",
"0. c #EB6D5D",
"q. c #EB715F",
"w. c #F1705D",
"e. c #C86C66",
"r. c #D76D67",
"t. c #C3706F",
"y. c #CD756C",
"u. c #DE7264",
"i. c #D7746A",
"p. c #D4756C",
"a. c #DC756C",
"s. c #C57A76",
"d. c #C87A76",
"f. c #D87B77",
"g. c #E46E63",
"h. c #EB6E62",
"j. c #E47263",
"k. c #EB7164",
"l. c #E3736B",
"z. c #E7776C",
"x. c #EB7A6E",
"c. c #F37467",
"v. c #E27871",
"b. c #F07E72",
"n. c #AC8869",
"m. c #B7896B",
"M. c #B18F73",
"N. c #CD837C",
"B. c #D1817D",
"V. c #C7937B",
"C. c #E88276",
"Z. c #CFA07B",
"A. c #D6A47D",
"S. c #536885",
"D. c #636E86",
"F. c #8B6D82",
"G. c #B37C82",
"H. c #AE938B",
"J. c #B99B86",
"K. c #BA9D96",
"L. c #B7A491",
"P. c #BAA497",
"I. c #BDA29B",
"U. c #A99CA3",
"Y. c #BBA7A5",
"T. c #BCA9B1",
"R. c #C28287",
"E. c #CC8484",
"W. c #C89C87",
"Q. c #D1948F",
"!. c #E28985",
"~. c #CBA789",
"^. c #D3A489",
"/. c #C3A394",
"(. c #C8A79A",
"). c #D6A995",
"_. c #D6B39D",
"`. c #D79EA5",
"'. c #C3ABA5",
"]. c #C9A8A6",
"[. c #CAB3A6",
"{. c #C8AAB8",
"}. c #D7A8B7",
"|. c #D3B3B1",
" X c #E5A9A7",
".X c #E2ACB7",
"XX c #F9CAA8",
"oX c #F6D1AD",
"OX c #E9C7B7",
"+X c #F6CAB9",
"@X c #FAD5B7",
"#X c #F4D4BC",
"$X c #FED4BC",
"%X c #BCACCA",
"&X c #BDB5CC",
"*X c #C8ACC6",
"=X c #D6AFC6",
"-X c #C4B4CD",
";X c #CBB5C9",
":X c #DAB4C9",
">X c #C6B9D5",
",X c #D7BBD5",
"<X c #E5B8C5",
"1X c #D2C3DC",
"2X c #E9CDC4",
"3X c #FBCAC5",
"4X c #F5CCC8",
"5X c #FFCDCC",
"6X c #FAD6C9",
"7X c #FECCD2",
"8X c #FDD7D5",
"9X c #FFE7D7",
"0X c #D8CFE9",
"qX c #E9DAEA",
"wX c #FEDAE6",
"eX c #E8DDF6",
"rX c #E2E2E0",
"tX c #EBEBEC",
"yX c #F8E9E5",
"uX c #F4EDEC",
"iX c #FCEDED",
"pX c #F2F3EE",
"aX c #FEF4EC",
"sX c #ECE4F7",
"dX c #FDEFF3",
"fX c #F2E7FF",
"gX c #F5EBFE",
"hX c #EDF6F7",
"jX c #F4F5F5",
"kX c #FEF4F4",
"lX c #F4FAF6",
"zX c #FEFBF4",
"xX c #F5F5FA",
"cX c #FDF5FA",
"vX c #F5FCFC",
"bX c #FEFEFF",
/* pixels */
"bXbXbXbXbXbXbXbXbXbXbXbXbXbXbXbXxXbXbXbXbXbXbXbXbXbXbXbXbXbXzXbXbXbXbXbXbXbXbXbXbXbXbXbXbXcXbXbXbXbXbXbXbXbXbXbXbXbXbXbXbXbXbXbX",
"bXbXbXbXbXbXbXbXbXbXbXbXbXbXbXbXbXbXvXbXbXbXcXbXcXbXcXbXbXzXbXbXbXbXbXbXbXbXbXbXbXbXbXbXbXbXbXbXbXbXbXbXbXbXbXbXbXbXbXbXbXbXbXbX",
"bXbXbXbXbXbXbXbXbXbXbXbXbXbXbXbXbXbXcXbXbXbXbXbXbXbXbXbXbXbXbXbXcXbXbXbXbXbXbXbXbXbXbXbXbXvXbXbXbXbXbXbXbXbXbXbXbXbXbXbXbXbXbXbX",
"bXbXbXbXbXbXbXbXbXbXbXbXbXbXbXbXbXzXbXbXbXbXbXbXbXbXbXbXbXbXcXbXbXcXcXbXbXcXbXbXbXbXvXzXbXbXbXbXbXbXbXbXbXbXbXbXbXbXbXbXbXbXbXbX",
"bXbXbXbXbXbXbXbXbXbXbXbXbXbXbXbXbXkXbXbXbXbXbXbXbXbXbXbXbXbXcXbXcXbXbXcXcXbXbXbXzXbXvXbXvXbXzXvXbXbXbXbXbXbXbXbXbXbXbXbXbXbXbXbX",
"bXbXbXbXbXbXbXbXbXbXbXbXbXbXbXbXbXkXzXbXzXvXbXbXvXbXvXbXbXbXbXbXbXcXbXbXbXbXbXbXbXbXbXzXzXzXvXzXbXbXbXbXbXbXbXbXbXbXbXbXbXbXbXbX",
"bXbXbXbXbXbXbXbXbXbXbXbXbXbXbXbXcXbXbXbXbXvXbXvXbXvXbXbXvXbXbXbXbXbXbXbXbXbXbXbXbXbXzXbXbXbXbXbXbXbXbXbXbXbXbXbXbXbXbXbXbXbXbXbX",
"bXbXbXbXbXbXbXbXbXbXbXbXbXbXbXbXbXbXbXbXbXbXvXbXvXbXvXbXbXbXcXcXbXbXbXbXbXbXbXbXbXbXbXzXbXbXbXbXbXbXbXbXbXbXbXbXbXbXbXbXbXbXbXbX",
"bXbXbXbXbXbXbXbXbXbXbXbXbXbXbXbXbXbXbXbXbXxXbXjXbXbXbXbXcXcXcXbXcXxXbXxXhXbXvXbXbXxXbXbXcXxXbXcXbXbXbXbXbXbXbXbXbXbXbXbXbXbXbXbX",
"bXbXbXbXbXbXbXbXbXbXbXbXbXbXbXbXxXbXxXxXbXxXbXbXkXcXcXcXcXcXcXcXcXbXbXbXbXbXkXbXbXcXbXcXbXbXtXbXbXbXbXbXbXbXbXbXbXbXbXbXbXbXbXbX",
"bXbXbXbXbXbXbXbXbXbXbXbXbXbXbXbXbXxXbXcXbXuXbXiXa a i i i i p i g t w < u < kXkXcXbXcXcXcXgXcXbXbXbXbXbXbXbXbXbXbXbXbXbXbXbXbXbX",
"bXbXbXbXbXbXbXbXbXbXbXbXbXbXbXbXhXbXcXcXkXcX8XkXe e e r r k r e e q e e z w kXdXdXcXcXcXcXbXbXbXbXbXbXbXbXbXbXbXbXbXbXbXbXbXbXbX",
"bXbXbXbXbXbXbXbXbXbXbXbXbXbXbXbXbXxXbXcXq j 4 y 4.s.s.s.N.s.s.s.N.s.s.4.4.3.r 6 j g dXcXcXgXbXcXbXbXbXbXbXbXbXbXbXbXbXbXbXbXbXbX",
"bXbXbXbXbXbXbXbXbXbXbXbXbXbXbXbXbXjXbXkXj e l 5 d.p.p.p.p.p.y.i.i.y.p.y.s.E.k 9 p w yXkXbXcXbXxXbXbXbXbXbXbXbXbXbXbXbXbXbXbXbXbX",
"bXbXbXbXbXbXbXbXbXbXbXbXbXbXbXbXbXkXV - I | 3.C.i.u.u.u.u.u.u.u.g.h.x.z.p.e.N.4.X.,.g f bXxXxXbXbXbXbXbXbXbXbXbXbXbXbXbXbXbXbXbX",
"bXbXbXbXbXbXbXbXbXbXbXbXbXbXbXbXpXzX< G o.&.d.i.l.j.q.k.q.q.9.j.h.c.h.8.j.a.y.N.O.X.w f kXbXxXbXbXbXbXbXbXbXbXbXbXbXbXbXbXbXbXbX",
"bXbXbXbXbXbXbXbXbXbXbXbXbXbXbXbXkXzXq g ;.} f.r.9.0.w.0.0.8.x.l.l.k.h.h.9.h.g.f.&.O.p u dXbXuXbXbXbXbXbXbXbXbXbXbXbXbXbXbXbXbXbX",
"bXbXbXbXbXbXbXbXbXbXbXbXbXbXbXbXzXiXi i 4.E.p.v.b.q.w.0.q.x.l.i.l.l.l.c.w.c.g.r.e.4.p z kXiXbXzXbXbXbXbXbXbXbXbXbXbXbXbXbXbXbXbX",
"bXbXbXbXbXbXbXbXbXbXbXbXbXbXbXbXbXcX0 k R.!.r.r.9.7.9.j.j.C.7.p.f.l.l.h.h.h.k.l.f.E.4 B kXiXbXrXbXbXbXbXbXbXbXbXbXbXbXbXbXbXbXbX",
"bXbXbXbXbXbXbXbXbXbXbXbXbXbXbXbXdXiXp k t.r.v.l.z.x.x.i.y.y.y.B.f.f.l.g.9.8.g.u.f.s.k w dXbXuXbXbXbXbXbXbXbXbXbXbXbXbXbXbXbXbXbX",
"bXbXbXbXbXbXbXbXbXbXbXbXbXbXbXbX@ & 4 k e.l.8.l.r.a.p.d.!.t.N.t.d.f.r.l.z.x.b.z.f.B.r 0 % . bXbXbXbXbXbXbXbXbXbXbXbXbXbXbXbXbXbX",
"bXbXbXbXbXbXbXbXbXbXbXbXbXbXbXbXV B ;.} 6.5.g.g.l.f.E.E.6X+X8X5X7X<XE.f.i.u.r.6.+.%.O.;.C A dXxXbXbXbXbXbXbXbXbXbXbXbXbXbXbXbXbX",
"bXbXbXbXbXbXbXbXbXbXbXbXbXbXbXbX2 u -.%.$.[ g.g.f.3.R.G.7X8X7X7X8X7XR.!.e.a.a.a.6.} O.X.0 f bXbXbXbXbXbXbXbXbXbXbXbXbXbXbXbXbXbX",
"bXbXbXbXbXbXbXbXbXbXbXbXbXbXbXbX# @ O.} $.5.[ $.&.>..X}.wX8X;.o.7XwX`.`.&.&.*.*.#.@.;.;.+ O cXcXbXbXbXbXbXbXbXbXbXbXbXbXbXbXbXbX",
"bXbXbXbXbXbXbXbXbXbXvXbXxXbXbXbXX @ ,.O.] [ $.$.} ;.}.:XwXwX2.;.wXwX<X.X;.>.%.%.@.@.| o.% = cXbXbXbXbXbXbXbXbXbXbXbXbXbXbXbXbXbX",
"bXbXbXbXbXbXbXbXbXbXkXjXkXjXvXjX. O W O.@.#.*.%.;.-.:X{.:.:...:.1.F.{.<X..} } %.%.%.O.o.& O cXbXbXbXbXbXbXbXbXbXbXbXbXbXbXbXbXbX",
"bXbXbXbXbXbXbXbXjXjXbXbXbXbXbXbXo @ I | &.O.&.O.-.:.,X,XF.^ 2.-.( ( {.:X2.2.;.>.O.O.| J % . bXjXbXbXbXbXbXbXbXbXbXbXbXbXbXbXbXbX",
"bXbXbXbXbXbXbXbXbXbXbXjXvXbXrXlX. . t 6 o.;.`..X=X=X;X=X*X=X:X,X,X%X-X*X=X=X}.=X;.| l e % + kXbXbXbXbXbXbXbXbXbXbXbXbXbXbXbXbXbX",
"bXbXbXbXbXbXbXbXbXbXbXbXbXuXF 3 O % w 4 <.,.{.=X=X,X*X*X,X,X*X;X%X>X-X-X,X*X=X=X;...e e * . A , bXbXbXbXbXbXbXbXbXbXbXbXbXbXbXbX",
"bXbXbXbXbXbXbXbXbXbXjXbXbXbX3 1 O & q u 2.1.{.*X*X%X>X;X%X-X>X>X1X&X>X>X%X*X=X*X:.-.z 4 O O ; c bXbXbXbXbXbXbXbXbXbXbXbXbXbXbXbX",
"bXbXbXbXbXbXbXbXjXbXbXbXxXtXo O /.H...J B > C C >X-XeXgXeXfXfXsXsX0XeXgX>X%XC > u i z X.K.P.@   bXbXbXbXbXbXbXbXbXbXbXbXbXbXbXbX",
"bXbXbXbXbXbXbXbXbXvXbXjXbXjXo O /.W.I W B N B B ;X*XqXqXqXfXeXsXsXsXeXeX>X0X> B j j K U I.'..   bXbXbXbXbXbXbXbXbXbXbXbXbXbXbXbX",
"bXvXbXbXbXbXbXbXbXjXbXbXjXbX  O J.~.q V D ~ P K L U J R V < V u V 2 ~ ~ D ~ ~ Y E L e e P.'.. . bXbXbXbXbXbXbXbXbXbXbXbXbXbXbXbX",
"bXzXbXzXbXbXbXbXbXcXjXbXbXtX, . J.(.c < ~ Y v X.I M I v q a < j 6 C S ~ R R W K G o.6 q L.H.. o bXbXbXbXbXbXbXbXbXbXbXbXbXbXbXbX",
"bXzXbXbXvXbXbXbXuXbXcXxXbXcXtXxX+ O < d U.T.=.L W.).6 h K.'.].].(.K.j a H.Y.P E (.K.6 h O = zXpXbXbXbXbXbXbXbXbXbXbXbXbXbXbXbXbX",
"bXbXbXbXbXbXbXbXjXbXbXbXbXhXbXzX. O 1 V T.Y.E m W.J.q q '.I.(./.].(.g q Y.I.P H ]./.v v . . zXvXbXbXbXbXbXbXbXbXbXbXbXbXbXbXbXbX",
"bXbXbXzXbXbXvXbXbXvXpXxXbXxXbXbXbXzX$ . Y.K./.).6X6X- + 2X2XoX$XOX6XO O yX2X'.(.H.|.O @ bXkXbXbXbXbXbXbXbXbXbXbXbXbXbXbXbXbXbXbX",
"bXbXbXbXbXbXbXbXxXvXbXbXlXvXlXbXpXbX  @ Y.[.W.W.6X9X+ * OX#XXX@X$X6X* o 9X6XP.[.[.'.- O kXlXhXbXbXbXbXbXbXbXbXbXbXbXbXbXbXbXbXbX",
"bXbXbXbXvXbXvXbXbXlXvXvXbXvXvXbXbXxXbXbXO + ^.Z.6X+X6X8XOX$XXXXX@XOX#XoX#X6X/.L.O O aXbXvXvXvXvXbXbXbXbXbXbXbXbXbXbXbXbXbXbXbXbX",
"bXbXbXbXbXbXbXbXvXlXbXhXvXjXbXbXbXcXjXkXO + ).^.@X#X2X2X#X@XXXoX@X@X#X#XoX#XM._.+ O kXkXvXbXvXvXbXbXbXbXbXbXbXbXbXbXbXbXbXbXbXbX",
"bXbXbXbXbXvXbXvXbXbXvXbXhXvXbXbXbXbX$ . O O ' ' ^.W.8X2X4X+XA.A.@X+X@XoXZ.~.n M o o zXzXbXhXvXhXbXbXbXbXbXbXbXbXbXbXbXbXbXbXbXbX",
"bXbXbXbXbXbXbXvXvXvXhXbXbXlXbXuXbXcX    O * M ' V.).OX6X6X+XA.Z.oXOXoX@XA.A.M P $ o zXpXhXbXhXvXbXbXbXbXbXbXbXbXbXbXbXbXbXbXbXbX",
"bXbXbXbXbXvXbXvXjXbXvXbXbXuXbXkXS Y c s c 8 3.m.M ] 7 q (./.W.~.).(.8 9 n ' n.M.O O zXbXbXvXlXvXbXbXbXbXbXbXbXbXbXbXbXbXbXbXbXbX",
"cXbXbXbXbXbXbXvXbXbXlXkXzXbXuXbXH h s c 1 n M.m. .` e y ].(./.J.P.W.9 9 n M n.M.* . bXvXtXbXzXlXbXbXbXbXbXbXbXbXbXbXbXbXbXbXbXbX",
"bXbXbXbXbXbXvXbXjXjXbXbXvXdXR v L._.; c c ; n.m.) ` Q. Xq u t t t q (._.m.m.b 9 t t c 3 vXzXbXzXbXbXbXbXbXbXbXbXbXbXbXbXbXbXbXbX",
"bXbXbXvXbXvXbXvXbXjXvXbXiXbXS K ^.Z.9 c 8 c Z.m.] ]  X Xw f < s a g (._.m.M.9 9 v t d d bXzXzXpXbXbXbXbXbXbXbXbXbXbXbXbXbXbXbXbX",
"cXbXbXbXbXbXvXbXbXbXbXbXiXkXS U W.^.(.[.. o O & ] ` { X.].{.D 3 T.{.=.| M M 9 b L.Y.S F bXyXzXzXbXbXbXbXbXbXbXbXbXbXbXbXbXbXbXbX",
"bXbXbXbXbXbXvXbXbXbXcXkXbXcXY J ^.^.P.L.. O O & _ %._ X.{.*XN V {.|.U I M M 9 9 L.|.v P kXzX9XzXbXbXbXbXbXbXbXbXbXbXbXbXbXbXbXbX",
"bXbXbXbXbXbXbXbXbXbXbXbXbXbXbXbXS P S c aXaXO * m n X.T {.;X2 C =X{.-.W h b % + 3X5X4X7XJ E aXzXbXbXbXbXbXbXbXbXbXbXbXbXbXbXbXbX",
"bXbXbXbXbXbXbXbXbXbXbXbXbXbXbXbXD R S F 9XaX  . H G E ^ T.T.D u |.}.P P P S % & 3X3X5X3XL h zXzXzXbXbXbXbXbXbXbXbXbXbXbXbXbXbXbX",
"bXbXbXbXbXbXbXbXbXbXbXbXbXbXbXbXbXkXiXcX$   A 3 X @ @ o o     o O @ O @ < c O * 4X6X+X7XL H zXzXbXbXbXbXbXbXbXbXbXbXbXbXbXbXbXbX",
"bXbXbXbXbXbXbXbXbXbXbXbXbXbXbXbXaXkXaXbX  o Z 3 # # X X X o     @ @ @ . 3 1 . . 8X4X8X4Xs v aXzXbXbXbXbXbXbXbXbXbXbXbXbXbXbXbXbX",
"bXbXbXbXbXbXbXbXbXbXbXbXbXbXbXbXzXaXaXbX# : ! ! ! S./ / F F x x 2 2 3 3   o zXzXs v H P kXzXzXbXbXbXbXbXbXbXbXbXbXbXbXbXbXbXbXbX",
"bXbXbXbXbXbXbXbXbXbXbXbXbXbXbXbXaXzXiXbX# # ! ! S.! Q Q Q ( x x A 3 A 3     zXzXR S P R yXzXjXpXbXbXbXbXbXbXbXbXbXbXbXbXbXbXbXbX",
"bXbXbXbXbXbXbXbXbXbXbXbXbXbXbXbXzXyXbXxX# : N N S.S.D./ : o o o o   # $ lXlXzXpXaXzXzXkXkXbXtXbXbXbXbXbXbXbXbXbXbXbXbXbXbXbXbXbX",
"bXbXbXbXbXbXbXbXbXbXbXbXbXbXbXbXzXzXjXvX# # Q N D.Q Q Q   o o o o   o   vXlXvXbXbXkXzXkXbXvXbXjXbXbXbXbXbXbXbXbXbXbXbXbXbXbXbXbX",
"bXbXbXbXbXbXbXbXbXbXbXbXbXbXbXbXvXvXbXvXvXvX# # V C 2 V V A bXxXvXvXvXvXvXvXbXvXbXcXbXcXbXbXbXbXbXbXbXbXbXbXbXbXbXbXbXbXbXbXbXbX",
"bXbXbXbXbXbXbXbXbXbXbXbXbXbXbXbXvXvXvXvXxXbX. @ V C D u D 3 tXbXbXvXbXvXbXbXbXbXbXbXbXbXcXbXbXbXbXbXbXbXbXbXbXbXbXbXbXbXbXbXbXbX",
"bXbXbXbXbXbXbXbXbXbXbXbXbXbXbXbXhXvXbXbXlXzX. - E J T T @ @ bXxXvXbXbXbXbXbXbXbXbXcXbXbXbXbXbXbXbXbXbXbXbXbXbXbXbXbXbXbXbXbXbXbX",
"bXbXbXbXbXbXbXbXbXbXbXbXbXbXbXbXbXvXhXlXzXiX+ O I U W J @ X gXbXbXbXbXbXbXbXcXbXbXbXbXbXbXbXcXbXbXbXbXbXbXbXbXbXbXbXbXbXbXbXbXbX",
"bXbXbXbXbXbXbXbXbXbXbXbXbXbXbXbXjXbXbXbXzXzXyXzX% O = O cXbXcXbXbXbXbXbXbXbXbXbXbXbXbXbXbXbXbXbXbXbXbXbXbXbXbXbXbXbXbXbXbXbXbXbX",
"bXbXbXbXbXbXbXbXbXbXbXbXbXbXbXbXbXcXxXbXzXpXzXtXO O . . kXbXtXzXbXbXbXcXcXbXcXbXbXbXvXvXbXbXbXbXbXbXbXbXbXbXbXbXbXbXbXbXbXbXbXbX",
"bXbXbXbXbXbXbXbXbXbXbXbXbXbXbXbXcXbXbXbXbXlXbXbXlXvXjXbXlXpXzXbXbXbXbXbXbXcXbXbXbXvXvXvXxXbXbXbXbXbXbXbXbXbXbXbXbXbXbXbXbXbXbXbX",
"bXbXbXbXbXbXbXbXbXbXbXbXbXbXbXbXkXcXkXvXbXvXhXvXbXbXbXjXbXbXjXkXbXbXbXbXbXbXbXbXvXbXbXbXvXbXbXbXbXbXbXbXbXbXbXbXbXbXbXbXbXbXbXbX"
};
