/* XPM */
static char *result[] = {
/* columns rows colors chars-per-pixel */
"64 64 245 2 ",
"   c #030201",
".  c #0C0001",
"X  c #01030B",
"o  c #0B0908",
"O  c #140101",
"+  c #1B0201",
"@  c #120B03",
"#  c #13030C",
"$  c #1B0809",
"%  c #0F1000",
"&  c #151309",
"*  c #020614",
"=  c #02021B",
"-  c #160913",
";  c #230102",
":  c #240905",
">  c #241308",
",  c #250B14",
"<  c #3D271A",
"1  c #383516",
"2  c #322D23",
"3  c #3A2928",
"4  c #382836",
"5  c #3C3434",
"6  c #3A3C39",
"7  c #551C19",
"8  c #452B11",
"9  c #5B241A",
"0  c #483C17",
"q  c #62261F",
"w  c #442524",
"e  c #482724",
"r  c #442B2C",
"t  c #4C2A2B",
"y  c #582926",
"u  c #532C2C",
"i  c #4A3224",
"p  c #4B3C27",
"a  c #4C342E",
"s  c #52322B",
"d  c #59392D",
"f  c #472B36",
"g  c #542E33",
"h  c #443335",
"j  c #4C3332",
"k  c #45383A",
"l  c #4E3A3C",
"z  c #533234",
"x  c #573636",
"c  c #632928",
"v  c #653829",
"b  c #73302D",
"n  c #643936",
"m  c #3C433C",
"M  c #4C4717",
"N  c #4C462E",
"B  c #54463D",
"V  c #77482B",
"C  c #66463B",
"Z  c #79483B",
"A  c #745331",
"S  c #3B384A",
"D  c #473744",
"F  c #51364A",
"G  c #6D3C40",
"H  c #4D4547",
"J  c #59444A",
"K  c #464456",
"L  c #5B4853",
"P  c #585657",
"I  c #69484A",
"U  c #774946",
"Y  c #6C534A",
"T  c #785546",
"R  c #73544C",
"E  c #644E57",
"W  c #704654",
"Q  c #635353",
"!  c #6A5656",
"~  c #64545A",
"^  c #785858",
"/  c #535D6E",
"(  c #6B5964",
")  c #785A67",
"_  c #755C74",
"`  c #5A6566",
"'  c #546373",
"]  c #75656E",
"[  c #87552D",
"{  c #8F502F",
"}  c #884B35",
"|  c #98453A",
" . c #855439",
".. c #A55639",
"X. c #874D4B",
"o. c #944B48",
"O. c #88544A",
"+. c #975449",
"@. c #8A4D57",
"#. c #8A5859",
"$. c #965657",
"%. c #A24A48",
"&. c #B24B44",
"*. c #BC4B4C",
"=. c #AB544B",
"-. c #AC4B52",
";. c #A55557",
":. c #B55252",
">. c #B55853",
",. c #886157",
"<. c #91635D",
"1. c #AB625C",
"2. c #9F4D60",
"3. c #885B65",
"4. c #975868",
"5. c #A75B61",
"6. c #B95564",
"7. c #986466",
"8. c #896677",
"9. c #B07271",
"0. c #BC7C79",
"q. c #DA675A",
"w. c #DC6B5B",
"e. c #DE725D",
"r. c #E46C5D",
"t. c #E4725E",
"y. c #DB6C65",
"u. c #CA746A",
"i. c #CC746A",
"p. c #D77566",
"a. c #DD746D",
"s. c #DC7A6C",
"d. c #CC7773",
"f. c #C67A76",
"g. c #D47373",
"h. c #D77975",
"j. c #E46D63",
"k. c #EA6E64",
"l. c #E37464",
"z. c #E3736B",
"x. c #EA736B",
"c. c #E47A6C",
"v. c #E87868",
"b. c #F17468",
"n. c #E37373",
"m. c #E97971",
"M. c #9B8241",
"N. c #AE915C",
"B. c #BA9059",
"V. c #B48866",
"C. c #BA9368",
"Z. c #B08A72",
"A. c #BBA06D",
"S. c #B8A77A",
"D. c #C8837D",
"F. c #D28178",
"G. c #C5997B",
"H. c #F88476",
"J. c #C9A376",
"K. c #956F85",
"L. c #AC9788",
"P. c #B0918E",
"I. c #B8998A",
"U. c #BA9B95",
"Y. c #BAAD87",
"T. c #BAA697",
"R. c #BDA39D",
"E. c #B9A2A4",
"W. c #BAA7B9",
"Q. c #CC8782",
"!. c #D88C87",
"~. c #C89A89",
"^. c #C29C98",
"/. c #D79D99",
"(. c #C9A58A",
"). c #D2A38A",
"_. c #C7A899",
"`. c #D4A79A",
"'. c #CFB495",
"]. c #E4A796",
"[. c #D49CAE",
"{. c #C6A8A6",
"}. c #D7A8A7",
"|. c #CAB4A5",
" X c #C6A8BF",
".X c #D3ABB5",
"XX c #DAB4BA",
"oX c #EAB1B0",
"OX c #E5C99C",
"+X c #DDCBBB",
"@X c #FFCBA7",
"#X c #EAD2AB",
"$X c #FCD3AB",
"%X c #E8CAB7",
"&X c #F6CAB6",
"*X c #ECD2B4",
"=X c #FBD3B5",
"-X c #F8D4BA",
";X c #ECE2BF",
":X c #FFE1BC",
">X c #BCAECA",
",X c #BBB2D8",
"<X c #C7ABC6",
"1X c #CCACC3",
"2X c #D6ACC2",
"3X c #CBB2C9",
"4X c #D4B4C7",
"5X c #C9B8D6",
"6X c #D6BBD3",
"7X c #EBB3C6",
"8X c #C3B9E1",
"9X c #C8C1DC",
"0X c #FBCCC5",
"qX c #EBD6C9",
"wX c #E8D2CE",
"eX c #F8D5C6",
"rX c #FBCDD3",
"tX c #FFD3D5",
"yX c #F9DAD7",
"uX c #FBE4C3",
"iX c #E3E0DD",
"pX c #FFE2D2",
"aX c #F3DCEC",
"sX c #EBE5E8",
"dX c #EDEDEC",
"fX c #F9E7E7",
"gX c #F4EDEC",
"hX c #FDECEE",
"jX c #EAF6ED",
"kX c #F3F3EE",
"lX c #F9F7EB",
"zX c #EBE8F9",
"xX c #FBEDF4",
"cX c #FAE7F8",
"vX c #FDEDFB",
"bX c #ECF4F3",
"nX c #EEFAFB",
"mX c #F4F4F5",
"MX c #FCF4F4",
"NX c #F4FCF4",
"BX c #FDFBF6",
"VX c #F4F4FB",
"CX c #FDF5FC",
"ZX c #F6FDFC",
"AX c #FEFEFE",
/* pixels */
"AXAXAXAXAXAXAXAXAXAXAXAXAXAXAXAXAXAXCXAXCXAXAXAXAXCXAXAXAXAXAXAXCXZXZXZXZXZXAXAXAXAXAXAXAXAXAXBXAXAXAXAXAXAXAXAXAXAXAXAXAXAXAXAX",
"AXAXAXAXAXAXAXAXAXAXAXAXAXAXAXAXAXAXAXAXAXAXAXAXAXAXAXAXAXAXAXAXZXZXZXCXAXAXAXZXAXAXAXAXBXAXAXAXAXAXAXAXAXAXAXAXAXAXAXAXAXAXAXAX",
"AXAXAXAXAXAXAXAXAXAXAXAXAXAXAXAXAXZXZXAXAXAXZXAXAXAXBXAXAXAXAXAXAXAXAXAXAXAXAXAXAXAXAXAXAXAXAXAXAXAXAXAXAXAXAXAXAXAXAXAXAXAXAXAX",
"AXAXAXAXAXAXAXAXAXAXAXAXAXAXAXAXZXZXZXZXZXZXZXZXZXAXZXZXBXAXNXAXAXAXZXBXZXAXAXAXAXAXAXAXAXAXAXAXAXAXAXAXAXAXAXAXAXAXAXAXAXAXAXAX",
"AXAXAXAXAXAXAXAXAXAXAXAXAXAXAXAXZXZXZXNXZXZXZXZXNXNXZXNXAXBXBXAXBXBXBXBXBXAXAXAXAXAXAXAXAXAXAXAXAXAXAXAXAXAXAXAXAXAXAXAXAXAXAXAX",
"AXAXAXAXAXAXAXAXAXAXAXAXAXAXAXAXAXZXZXZXZXZXAXCXAXAXAXAXAXAXAXBXBXBXBXBXAXBXAXBXAXAXAXAXAXAXAXAXAXAXAXAXAXAXAXAXAXAXAXAXAXAXAXAX",
"AXAXAXAXAXAXAXAXAXAXAXAXAXAXAXAXAXAXAXAXAXAXAXAXAXAXBXAXAXCXBXAXBXBXBXAXBXAXAXAXAXAXAXAXAXAXAXAXAXAXAXAXAXAXAXAXAXAXAXAXAXAXAXAX",
"AXAXAXAXAXAXAXAXAXAXAXAXAXAXAXAXAXAXAXAXBXAXAXAXBXAXAXCXAXAXAXAXAXAXZXAXAXAXAXZXAXZXAXAXAXAXAXAXAXAXAXAXAXAXAXAXAXAXAXAXAXAXAXAX",
"AXAXAXAXAXAXAXAXAXAXAXAXAXAXAXAXAXCXCXvXCXCXCXAXCXAXAXAXAXAXAXAXkXAXZXZXZXZXbXZXAXZXAXVXAXBXBXBXAXAXAXAXAXAXAXAXAXAXAXAXAXAXAXAX",
"AXAXAXAXAXAXAXAXAXAXAXAXAXAXAXAXAXCXAXAXvXCXAXCXCXAXCXCXZXCXZXZXAXVXVXZXCXnXZXzXAXAXAXZXAXBXBXAXAXAXAXAXAXAXAXAXAXAXAXAXAXAXAXAX",
"AXAXAXAXAXAXAXAXAXAXAXAXAXAXAXAXAXVXzXAXVXAXAXZXAXAXAXAXAXAXAXAXAXCXAXVXCXAXVXAXZXAXAXAXAXBXBXBXAXAXAXAXAXAXAXAXAXAXAXAXAXAXAXAX",
"AXAXAXAXAXAXAXAXAXAXAXAXAXAXAXAXZXAXAXAXVXAXVXAXBXZXBXBXMXBXBXBXCXvXCXvXCXCXvXVXAXAXVXVXBXBXBXAXAXAXAXAXAXAXAXAXAXAXAXAXAXAXAXAX",
"AXAXAXAXAXAXAXAXAXAXAXAXAXAXAXAXAXAXbXZXAXAXMXMXk j j p u u s u u y t u g 3 CXcXCXxXAXAXAXAXBXNXAXAXAXAXAXAXAXAXAXAXAXAXAXAXAXAX",
"AXAXAXAXAXAXAXAXAXAXAXAXAXAXAXAXZXAXCXAXMXAXBXBXt t y u y y y q 9 c 9 y 7 e hXCXAXsXAXAXdXBXZXAXAXAXAXAXAXAXAXAXAXAXAXAXAXAXAXAX",
"AXAXAXAXAXAXAXAXAXAXAXAXAXAXAXAXMXAXAXfXl w w u K.Z.0.f.f.d.d.d.p.h.F.Q.Q.K.n u f D sXCXAXAXAXVXAXAXAXAXAXAXAXAXAXAXAXAXAXAXAXAX",
"AXAXAXAXAXAXAXAXAXAXAXAXAXAXAXAXAXMXMXBXw z b b F.f.d.h.a.a.a.a.z.p.s.u.f.D.c c u z CXAXmXZXZXAXAXAXAXAXAXAXAXAXAXAXAXAXAXAXAXAX",
"AXAXBXAXAXAXAXAXAXAXAXAXAXAXAXAXZXAXr g #.4.f.d.a.a.z.q.b.x.x.z.w.p.p.l.c.c.n.g.5.4.t 5 ZXbXZXBXAXAXAXAXAXAXAXAXAXAXAXAXAXAXAXAX",
"AXAXAXAXAXAXAXAXAXAXAXAXAXAXAXAXMXBXt x $.;.h.h.z.x.b.k.j.r.j.z.z.t.t.w.r.r.x.x.-.5.g f AXNXkXmXAXAXAXAXAXAXAXAXAXAXAXAXAXAXAXAX",
"AXAXAXAXAXAXAXAXAXAXAXAXAXZXAXAXMXBXw g 2.5.g.y.j.r.k.b.j.x.x.x.x.b.v.v.t.t.t.z.%.@.g 3 MXAXgXBXAXAXAXAXAXAXAXAXAXAXAXAXAXAXAXAX",
"AXBXAXBXAXAXAXAXAXAXAXAXAXAXAXAXMXBXe c 0.g.h.n.b.r.w.t.q.z.y.y.y.j.w.t.t.t.t.t.F.!.e h AXxXAXxXAXAXAXAXAXAXAXAXAXAXAXAXAXAXAXAX",
"AXAXAXAXAXAXAXAXAXAXAXAXAXAXAXAXMXxXt 7 f.h.y.q.t.t.w.v.p.m.h.g.n.x.z.w.t.t.t.F.h.0.y r xXCXxXvXAXAXAXAXAXAXAXAXAXAXAXAXAXAXAXAX",
"AXAXAXAXAXAXAXAXAXAXAXAXAXAXAXCXCXfXI 9 d.h.z.H.q.l.y.s.p.i.u.h.n.n.a.s.F.t.e.e.d.Q.y t BXCXhXCXAXAXAXAXAXAXAXAXAXAXAXAXAXAXAXAX",
"AXAXAXAXAXAXAXAXAXAXAXAXAXAXAXAXO : 7 b i.p.l.q.t.H.p.p.!.F.d.h.h.h.i.p.p.F.t.t.F.9.9 s O . CXaXAXAXAXAXAXAXAXAXAXAXAXAXAXAXAXAX",
"AXAXAXAXAXAXAXAXAXAXAXAXAXAXAXAXD u $.$.=.&.v.l.y.s.s.F.0XtX0XrXrXoX].h.p.p.l.t.&.>.;.#.z h vXAXAXAXAXAXAXAXAXAXAXAXAXAXAXAXAXAX",
"AXAXAXAXAXAXAXAXAXAXAXZXZXBXAXAXw x 4.$.>.&.e.c.F.i.d.D.rXtXtXrXrXrXQ.Q.0.i.z.j.*.:.+.<.e k CXAXAXAXAXAXAXAXAXAXAXAXAXAXAXAXAXAX",
"AXAXAXAXAXAXAXAXAXAXZXAXBXAXAXAX. ; #.+.>.&.&.=.| =.oX}.aXrX#.3.tXfX}.`.;.;.*.*.*.:.o.X.O @ bXAXAXAXAXAXAXAXAXAXAXAXAXAXAXAXAXAX",
"AXAXAXAXAXAXAXAXCXAXMXAXAXAXAXmX$ + 7.o.=.=.:.>.5.$.oXXXrXaX3.8.cXyX4X}.4.5.-.*.*.:.$.,.+ @ ZXAXAXAXAXAXAXAXAXAXAXAXAXAXAXAXAXAX",
"AXAXAXAXAXAXAXAXAXAXBXAXmXMXAXAX. O 7.@.1.;.;.;.@.3.2X2X8.8.^ 3.) 8. X4X8.4.2.6.-.-.+.#.O   BXVXAXAXAXAXAXAXAXAXAXAXAXAXAXAXAXAX",
"AXAXAXAXAXAXAXAXZXBXAXBXAXBXkXBX$ + 3.O.1.o.5.@.4.K.<X5X_ _ 8.8.] ] W.<X8.3.2.2.2.6.$.O.O . MXAXAXAXAXAXAXAXAXAXAXAXAXAXAXAXAXAX",
"AXAXAXAXAXAXAXAXAXAXAXsXAXAXsXAX  . g c $.4.oX2X1X<X<X5X>X5X X2XwXW.9X5XW.6X7X7X4.$.y i O > sXBXAXAXAXAXAXAXAXAXAXAXAXAXAXAXAXAX",
"AXAXAXAXZXAXAXAXZXAXAXAXBXiXk 5 # $ t u O.7.{..X<X5X8X8X8X5X X6X3X3X5X5X,X<X<X2X3.#.s d + . H 3 AXAXAXAXAXAXAXAXAXAXAXAXAXAXAXAX",
"ZXAXAXZXAXAXAXAXAXAXmXBXAXAX6 5 . + w z 3.9.[.3X5X5X,X8X8X>X6X1X3X3X>X>X5X8X<X2X3.<.e i + + j r AXAXAXAXAXAXAXAXAXAXAXAXAXAXAXAX",
"AXAXAXAXAXAXAXAXAXBXAXAXMXAXo @ `.Z.^ Q D D F D <X5XcXzXzXzXsXdXcXcXaXzX>X5X4 F g g R C T._.. $ AXAXAXAXAXAXAXAXAXAXAXAXAXAXAXAX",
"AXAXAXAXAXAXAXAXAXAXZXmXZXAX  @ G.).R I S 4 4 f 4X<XaXVXzXVXmXiXfXiXsXvX>X>XF 4 f s I T _.{.O . AXAXAXAXAXAXAXAXAXAXAXAXAXAXAXAX",
"AXAXAXAXAXAXAXAXmXAXAXAXZXAX  $ _.~.s h E ) ! R W 3.( L S 4 4 l 5 k ( P ~ ( F ) Y R s i L.L.o $ AXAXAXAXAXAXAXAXAXAXAXAXAXAXAXAX",
"AXAXAXAXAXAXAXAXAXAXmXCXAXkXo   ^.^.z r ! l R T I Y I ~ h 4 l t h 4 ~ ( E E ^ R Y R i i E.U.    AXAXAXAXAXAXAXAXAXAXAXAXAXAXAXAX",
"AXAXAXAXAXAXAXAXmXBXAXAXCXAXdXAX+ + r l R.R.Z V ).(.0 l E.|.{.^.E.E.l j E.E.R R T.'.< p . . AXCXAXAXAXAXAXAXAXAXAXAXAXAXAXAXAXAX",
"AXAXAXAXAXAXAXAXAXZXCXAXAXmXAXgXO + h r _._.A A G.S.8 i U.U.}./.E.{.j s E.P.Y R _.L.N 3 . # CXAXAXAXAXAXAXAXAXAXAXAXAXAXAXAXAXAX",
"AXAXAXAXAXAXAXAXAXAXAXAXAXNXAXAXBXMX. + {.I.].G.:X:X: @ yX-X&X&X0XqX+ + pXpXU._.T.|.. . AXMXMXmXAXAXAXAXAXAXAXAXAXAXAXAXAXAXAXAX",
"AXAXAXAXAXAXAXAXAXAXBXZXAXAXMXAXMXAX  . E.'.J.).:X:X: . yX&X@X=X&X%X: ; pXyX^.T.R.T.@   BXBXAXAXAXAXAXAXAXAXAXAXAXAXAXAXAXAXAXAX",
"AXAXAXAXAXAXAXAXAXAXAXAXAXAXAXAXNXAXBXBXO + (.).=X%XqXqX*XeX$X$X$X#X-X%XeX0X}.U.O O gXAXBXNXBXNXAXAXAXAXAXAXAXAXAXAXAXAXAXAXAXAX",
"AXAXAXAXAXAXAXAXAXAXAXAXAXAXAXAXNXNXjXAXO + `.).-X%XqXqX*X-X@X@XOXuX#X&X-X&X^.}.+ O AXAXlXBXlXlXAXAXAXAXAXAXAXAXAXAXAXAXAXAXAXAX",
"AXAXAXAXAXAXAXAXAXAXAXAXAXAXAXAXNXNXZXkX@ O Z Z ~.}.+XwXqX*XJ.J.$X#X=X=X).`.U W + . gXAXNXBXBXkXAXAXAXAXAXAXAXAXAXAXAXAXAXAXAXAX",
"AXAXAXAXAXAXAXAXAXAXAXAXAXAXAXAXBXBXNXlX@ @ T Z `.`.wXyXqX*X'.J.-X*X=X=XG.~.X.R + . BXAXBXBXBXlXAXAXAXAXAXAXAXAXAXAXAXAXAXAXAXAX",
"AXAXAXAXAXAXAXAXAXAXAXAXAXAXAXAXMXAX  % 1 0 N.V.} v y t U.|.Y.(.I._.8 9  . .Z.Z.N < %   jXBXBXAXAXAXAXAXAXAXAXAXAXAXAXAXAXAXAXAX",
"AXAXAXAXAXAXAXAXAXAXAXAXAXAXAXAXCXhX  % 1 M C.V.[ V v x P.|.Y._.|.T.v q V V A.N.8 p &   AXCXvXAXAXAXAXAXAXAXAXAXAXAXAXAXAXAXAXAX",
"AXAXAXAXAXAXAXAXAXAXAXAXAXAXAXAXL ( 6 m M M M.B.{ [ `.}.t < C 8 r f ^.`.[ [ C.N.M 8 1 m H P AXcXAXAXAXAXAXAXAXAXAXAXAXAXAXAXAXAX",
"AXAXAXAXAXAXAXAXAXAXAXAXAXAXAXCXI I p m 0 M N.B.{ ../.oXu w a 3 f F }.}.[ [ B.C.0 M N N H Q aXCXAXAXAXAXAXAXAXAXAXAXAXAXAXAXAXAX",
"AXAXAXAXAXAXAXZXAXAXCXMXAXMXI I 0X%X_.T.N p Z  .| | | %.}.{.F k 2X.XX.+.{ } O.T N 1 Y.S.#XeXG I CXAXAXAXAXAXAXAXAXAXAXAXAXAXAXAX",
"AXAXAXAXAXZXZXAXAXAXAXAXhXCXJ ! =X#XY.L.p i I Z +.=.%.o.`.E.6 K <X[.$.} +.O.X.3.j 1 S.S.OX&XX.W AXAXAXAXAXAXAXAXAXAXAXAXAXAXAXAX",
"AXAXAXAXAXAXZXAXAXZXBXAXgXBXJ I -XpX%XyX$ O + ; b X.X.X.XX4XS S 3X2X^ Z Z Z ; ; $ @ uX;X#X-Xn W CXAXAXAXAXAXAXAXAXAXAXAXAXAXAXAX",
"AXCXAXAXAXZXAXZXbXmXAXAXCXMX! B oX&XwXyXO . $ + I n T ^ E.W.D S >X>X^ ,.C C ; + O . +XuX*X%X@.F AXAXAXAXAXAXAXAXAXAXAXAXAXAXAXAX",
"CXAXAXAXAXAXAXZXZXAXZXmXBXAXgXBXU U n z , - H L . . @ . o - = = = =   . + : ) _ # - B B N C hXvXCXAXAXAXAXAXAXAXAXAXAXAXAXAXAXAX",
"AXAXAXAXAXAXAXZXmXAXAXAXAXgXAXMXY U Y L O # P `     % % X X = = = = o & . . ( ( # . N Y Y ! vXcXAXAXAXAXAXAXAXAXAXAXAXAXAXAXAXAX",
"AXAXAXAXAXZXAXZXZXAXbXAXAXBXAXxXfXfXMXCX# # F B m 6 P ` ` / K S ' ' K ` k h F D o - BXlXlXfXCXAXAXAXAXAXAXAXAXAXAXAXAXAXAXAXAXAX",
"CXAXAXAXZXAXZXAXAXZXZXAXmXZXAXAXAXBXCXxX# O D h 6 m ` ` ` ` S K ' ` ` P B k F D # . BXlXlXBXVXAXCXAXAXAXAXAXAXAXAXAXAXAXAXAXAXAX",
"AXAXAXAXAXAXAXAXZXAXZXAXAXAXAXZXZXjXAXMX+ , E ! ! P & o X X X * * X   . P ( ( ] #   BXkXBXBXbXCXAXAXAXAXAXAXAXAXAXAXAXAXAXAXAXAX",
"AXAXAXAXAXAXZXZXZXAXAXZXZXAXAXZXjXnXZXAX. O J ^ ! ~     o   * X X X o   ! J Q ! # 2 dXBXNXNXZXAXAXAXAXAXAXAXAXAXAXAXAXAXAXAXAXAX",
"AXAXAXAXZXAXAXAXAXZXAXAXAXAXAXZXnXjXNXMXhXMXO + @ @ AXMXmXAXdXAXAXmXBXAX. O $ # CXfXBXAXlXZXZXbXAXAXAXAXAXAXAXAXAXAXAXAXAXAXAXAX",
"AXAXAXAXAXAXAXAXAXAXAXAXAXAXAXZXnXZXZXNXBXhXO : + . CXMXMXmXAXMXAXMXAXhX@   O . MXAXgXAXAXZXZXjXAXAXAXAXAXAXAXAXAXAXAXAXAXAXAXAX",
"AXAXAXAXAXAXAXAXAXAXAXAXAXAXAXZXbXCXdXAXBXBXBXlXBXMXAXAXAXCXAXZXAXBXAXAXAXmXAXCXCXAXAXBXmXbXZXAXAXAXAXAXAXAXAXAXAXAXAXAXAXAXAXAX",
"ZXAXAXBXAXAXAXAXAXAXAXAXAXAXAXAXAXAXAXNXBXBXkXAXMXMXAXvXmXCXkXBXMXgXmXAXdXCXAXMXAXBXCXVXAXAXZXZXAXAXAXAXAXAXAXAXAXAXAXAXAXAXAXAX",
"NXAXAXAXAXAXAXAXAXAXAXAXAXAXAXAXvXvXxXBXAXNXZXZXAXbXAXCXAXmXAXNXAXAXAXZXAXZXAXZXCXAXAXCXCXAXmXAXAXAXAXAXAXAXAXAXAXAXAXAXAXAXAXAX",
"AXAXAXBXAXAXAXAXAXAXAXAXAXAXAXAXvXCXAXAXZXNXjXZXZXAXCXCXCXAXgXZXAXMXZXAXnXZXAXZXCXAXCXAXvXAXCXAXAXAXAXAXAXAXAXAXAXAXAXAXAXAXAXAX"
};
