/* XPM */
static char *result[] = {
/* columns rows colors chars-per-pixel */
"64 64 249 2 ",
"   c #030102",
".  c #0C0101",
"X  c #03030C",
"o  c #0B0409",
"O  c #090A0B",
"+  c #140101",
"@  c #1A0201",
"#  c #160A07",
"$  c #14010C",
"%  c #1C120B",
"&  c #040815",
"*  c #100F14",
"=  c #141317",
"-  c #230200",
";  c #240806",
":  c #2D100A",
">  c #392B0F",
",  c #29211C",
"<  c #3C261B",
"1  c #080E23",
"2  c #361C38",
"3  c #292C2F",
"4  c #392625",
"5  c #3B362D",
"6  c #382A32",
"7  c #393338",
"8  c #3A3B3C",
"9  c #481B1B",
"0  c #631A13",
"q  c #48281C",
"w  c #55281C",
"e  c #4B3418",
"r  c #563518",
"t  c #451E22",
"y  c #472928",
"u  c #582A27",
"i  c #5E2528",
"p  c #483629",
"a  c #583828",
"s  c #462B36",
"d  c #552E36",
"f  c #5B2D34",
"g  c #4C3232",
"h  c #483739",
"j  c #4C3C3B",
"k  c #523333",
"l  c #593637",
"z  c #523933",
"x  c #682726",
"c  c #6B3929",
"v  c #673A3B",
"b  c #723E36",
"n  c #4E442C",
"m  c #564529",
"M  c #484439",
"N  c #58453A",
"B  c #6B462A",
"V  c #694839",
"C  c #794D32",
"Z  c #744D39",
"A  c #3F2D44",
"S  c #363A42",
"D  c #473A44",
"F  c #4B3349",
"G  c #543D61",
"H  c #374145",
"J  c #3B4753",
"K  c #4A474B",
"L  c #564647",
"P  c #59544A",
"I  c #5B5354",
"U  c #684746",
"Y  c #644D4C",
"T  c #6A4C4C",
"R  c #754A48",
"E  c #6A534B",
"W  c #73524B",
"Q  c #79534A",
"!  c #6D4E57",
"~  c #704F51",
"^  c #6D5354",
"/  c #6A5755",
"(  c #775857",
")  c #4C5C6F",
"_  c #775C66",
"`  c #55616D",
"'  c #4C6375",
"]  c #546476",
"[  c #77626D",
"{  c #844A3D",
"}  c #85563E",
"|  c #AD4937",
" . c #874C46",
".. c #9A4D4B",
"X. c #875546",
"o. c #95524D",
"O. c #844D51",
"+. c #8B5453",
"@. c #875759",
"#. c #8D5C5B",
"$. c #985757",
"%. c #A74E46",
"&. c #A7544A",
"*. c #B65549",
"=. c #A65855",
"-. c #B75A52",
";. c #8C6153",
":. c #AF6A5A",
">. c #885A66",
",. c #985C67",
"<. c #875D71",
"1. c #A55D60",
"2. c #8B6468",
"3. c #986366",
"4. c #886474",
"5. c #956E7C",
"6. c #B7716C",
"7. c #BB7A78",
"8. c #C35545",
"9. c #C86054",
"0. c #DC6659",
"q. c #E0675B",
"w. c #E46B5D",
"e. c #EB6D5D",
"r. c #EC715F",
"t. c #F1705D",
"y. c #C86C66",
"u. c #D76D66",
"i. c #C4706F",
"p. c #CD756C",
"a. c #DE7264",
"s. c #D7746A",
"d. c #D4756C",
"f. c #DB766C",
"g. c #C57A76",
"h. c #C97A76",
"j. c #D97A75",
"k. c #E46E62",
"l. c #EB6E62",
"z. c #E47263",
"x. c #EC7263",
"c. c #E3736B",
"v. c #E97469",
"b. c #E37A6E",
"n. c #EB7A6E",
"m. c #F37466",
"M. c #E87A71",
"N. c #AA8869",
"B. c #B48A6C",
"V. c #B49076",
"C. c #B69677",
"Z. c #CD837B",
"A. c #D1817C",
"S. c #C49C7B",
"D. c #E88276",
"F. c #576A83",
"G. c #896A83",
"H. c #B37C82",
"J. c #B89888",
"K. c #A99691",
"L. c #B99C94",
"P. c #ADAB91",
"I. c #BDA393",
"U. c #B9A397",
"Y. c #BCA1A2",
"T. c #BAB0AA",
"R. c #C28287",
"E. c #CC8483",
"W. c #D68D8D",
"Q. c #C79B89",
"!. c #C29D94",
"~. c #E28985",
"^. c #C9A689",
"/. c #D9AA8F",
"(. c #C2A395",
"). c #C9A697",
"_. c #C5A59A",
"`. c #C4AB9D",
"'. c #CBAA9B",
"]. c #D5A799",
"[. c #CCB29E",
"{. c #E2A99E",
"}. c #D79FA5",
"|. c #C8A8A6",
" X c #D6A9A4",
".X c #C8B3A7",
"XX c #C8A8B7",
"oX c #D9A9B8",
"OX c #D1B5B4",
"+X c #EAACB3",
"@X c #DCC5B7",
"#X c #E7C9A8",
"$X c #F5CAAE",
"%X c #EAD3AD",
"&X c #F4D2AE",
"*X c #EDCBB6",
"=X c #FBC9B6",
"-X c #ECD7B3",
";X c #F3D3B3",
":X c #F9D7BA",
">X c #FAE3BF",
",X c #BCADC8",
"<X c #BBB0CD",
"1X c #C7ACC6",
"2X c #D6AEC9",
"3X c #C3B5CD",
"4X c #C8B5CA",
"5X c #D9B5C9",
"6X c #C5BAD6",
"7X c #D5BCD6",
"8X c #E5B8C4",
"9X c #CDC4D7",
"0X c #DBC4D7",
"qX c #E8CDC2",
"wX c #F2CDC3",
"eX c #FECCCA",
"rX c #E7D4C9",
"tX c #F8D6C7",
"yX c #FECCD2",
"uX c #EEDAD0",
"iX c #FED7D9",
"pX c #FCE0CA",
"aX c #FEE6D5",
"sX c #D9CFE7",
"dX c #E8DAEA",
"fX c #FFDBE6",
"gX c #E6DDF4",
"hX c #E6E3E1",
"jX c #ECEBEB",
"kX c #FCE3E7",
"lX c #F3ECEB",
"zX c #FFEDEC",
"xX c #E8F0EA",
"cX c #F5F2EE",
"vX c #FDF6EB",
"bX c #FEF2ED",
"nX c #EAE2F3",
"mX c #EBE6F9",
"MX c #FDEEF3",
"NX c #F3ECFA",
"BX c #EFF9F7",
"VX c #F4F4F4",
"CX c #FDF4F4",
"ZX c #F6F8F7",
"AX c #FEFBF5",
"SX c #F5F5FA",
"DX c #FDF5FA",
"FX c #F6FEFD",
"GX c #FFFEFF",
/* pixels */
"GXGXGXGXGXGXGXGXGXGXGXGXGXGXGXGXGXGXFXGXGXGXGXGXGXGXGXGXGXGXAXGXGXGXGXGXGXGXGXGXGXGXGXGXGXDXGXGXGXGXGXGXGXGXGXGXGXGXGXGXGXGXGXGX",
"GXGXGXGXGXGXGXGXGXGXGXGXGXGXGXGXGXZXGXGXGXFXDXGXDXGXGXDXGXGXGXAXGXGXGXGXGXGXGXGXGXGXGXGXGXGXGXGXGXGXGXGXGXGXGXGXGXGXGXGXGXGXGXGX",
"GXGXGXGXGXGXGXGXGXGXGXGXGXGXGXGXGXGXGXDXGXGXGXGXGXGXGXGXGXAXGXDXDXGXGXGXGXGXGXGXGXGXGXFXGXFXGXGXGXGXGXGXGXGXGXGXGXGXGXGXGXGXGXGX",
"GXGXGXGXGXGXGXGXGXGXGXGXGXGXGXGXGXDXGXGXGXGXGXGXGXGXGXGXGXGXGXGXGXDXGXDXGXDXGXGXGXGXAXGXGXGXGXAXGXGXGXGXGXGXGXGXGXGXGXGXGXGXGXGX",
"GXGXGXGXGXGXGXGXGXGXGXGXGXGXGXGXDXGXAXAXAXGXFXGXGXFXGXFXGXGXGXGXGXDXGXDXDXGXGXGXGXAXFXGXAXGXAXFXGXGXGXGXGXGXGXGXGXGXGXGXGXGXGXGX",
"GXGXGXGXGXGXGXGXGXGXGXGXGXGXGXGXAXGXGXGXGXGXFXGXGXGXGXFXGXGXDXGXGXGXDXGXGXGXGXGXGXAXGXAXFXAXFXAXGXGXGXGXGXGXGXGXGXGXGXGXGXGXGXGX",
"GXGXGXGXGXGXGXGXGXGXGXGXGXGXGXGXGXDXGXAXGXFXGXFXFXFXFXGXGXGXDXGXGXGXGXGXGXGXGXGXGXGXGXAXGXAXAXGXGXGXGXGXGXGXGXGXGXGXGXGXGXGXGXGX",
"GXGXGXGXGXGXGXGXGXGXGXGXGXGXGXGXGXGXGXGXGXGXFXGXGXGXGXGXFXGXGXDXDXGXGXGXGXGXGXGXGXGXGXGXGXGXGXGXGXGXGXGXGXGXGXGXGXGXGXGXGXGXGXGX",
"GXGXGXGXGXGXGXGXGXGXGXGXGXGXGXGXFXDXGXGXGXZXGXVXGXGXGXGXDXDXGXDXGXSXGXSXVXGXGXGXGXSXDXGXDXSXGXGXGXGXGXGXGXGXGXGXGXGXGXGXGXGXGXGX",
"GXGXGXGXGXGXGXGXGXGXGXGXGXGXGXGXFXGXSXSXGXZXAXGXDXCXDXDXDXDXDXDXDXGXGXGXFXGXCXGXGXZXGXGXDXGXnXGXGXGXGXGXGXGXGXGXGXGXGXGXGXGXGXGX",
"GXGXGXGXGXGXGXGXGXGXGXGXGXGXGXGXGXSXGXSXGXlXDXzXg k g d d f d d g g y 4 s 4 CXCXDXGXMXGXDXDXDXGXGXGXGXGXGXGXGXGXGXGXGXGXGXGXGXGX",
"GXGXGXGXGXGXGXGXGXGXGXGXGXGXGXGXSXGXDXDXCXDXkXCXu u i i i i i u w y u u v y DXzXMXDXMXDXDXGXGXGXGXGXGXGXGXGXGXGXGXGXGXGXGXGXGXGX",
"GXGXGXGXGXGXGXGXGXGXGXGXGXGXGXGXGXSXGXDXy l 9 x 7.g.g.g.Z.g.g.g.Z.Z.g.7.7.6.u w l d CXGXMXNXFXDXGXGXGXGXGXGXGXGXGXGXGXGXGXGXGXGX",
"GXGXGXGXGXGXGXGXGXGXGXGXGXGXGXGXGXZXGXCXl u c 0 h.d.d.d.d.d.d.d.d.u.p.p.g.E.x w l y kXDXGXDXGXSXGXGXGXGXGXGXGXGXGXGXGXGXGXGXGXGX",
"GXGXGXGXGXGXGXGXGXGXGXGXGXGXGXGXGXVXD : Q o.6.D.s.a.a.a.a.z.a.a.z.k.n.M.f.y.Z.7.+.2.g j GXSXSXGXGXGXGXGXGXGXGXGXGXGXGXGXGXGXGXGX",
"GXGXGXGXGXGXGXGXGXGXGXGXGXGXGXGXcXGX4 V #.$.h.s.c.z.k.r.r.w.w.z.l.m.l.q.z.f.p.A.$.+.u j CXGXZXGXGXGXGXGXGXGXGXGXGXGXGXGXGXGXGXGX",
"GXGXGXGXGXGXGXGXGXGXGXGXGXGXGXGXCXAXs k ,...j.u.l.e.t.e.e.0.n.c.c.v.l.l.w.t.a.f.=.$.f s MXGXjXGXGXGXGXGXGXGXGXGXGXGXGXGXGXGXGXGX",
"GXGXGXGXGXGXGXGXGXGXGXGXGXGXGXGXAXzXk f 7.W.d.c.n.t.t.t.x.n.c.a.c.c.v.m.t.m.w.u.y.7.f d MXMXGXGXGXGXGXGXGXGXGXGXGXGXGXGXGXGXGXGX",
"GXGXGXGXGXGXGXGXGXGXGXGXGXGXGXGXDXDXt x R.~.u.u.0.0.w.v.a.D.y.s.j.f.c.l.t.e.x.c.j.E.9 l DXzXGXdXGXGXGXGXGXGXGXGXGXGXGXGXGXGXGXGX",
"GXGXGXGXGXGXGXGXGXGXGXGXGXGXGXGXMXzXf x i.u.c.c.n.n.b.s.d.p.d.A.j.j.j.k.w.0.k.a.j.h.i d MXDXVXDXGXGXGXGXGXGXGXGXGXGXGXGXGXGXGXGX",
"GXGXGXGXGXGXGXGXGXGXGXGXGXGXGXGX$ ; 9 x y.c.u.v.u.f.j.g.W.i.Z.i.R.j.u.c.n.v.n.b.j.h.x y @ . GXGXGXGXGXGXGXGXGXGXGXGXGXGXGXGXGXGX",
"GXGXGXGXGXGXGXGXGXGXGXGXGXGXGXGXF d ,...8.8.k.c.b.j.Z.E.eX=XtXeXyX8XE.j.u.a.a.9.%.&.o.,.L F CXSXGXGXGXGXGXGXGXGXGXGXGXGXGXGXGXGX",
"GXGXGXGXGXGXGXGXGXGXGXGXGXGXGXGX6 s #.=.8.| l.u.j.6.R.H.yXaXeXiXyXyXR.~.y.s.D.f.-.%.o.#.y h DXGXGXGXGXGXGXGXGXGXGXGXGXGXGXGXGXGX",
"GXGXGXGXGXGXGXGXGXGXGXGXGXGXGXGX& $ @...*.8.| *.=.1.oXoXfXyX,.+.iXfX}.}.:.=.*.-.&.o.1.3.@ + DXGXGXGXGXGXGXGXGXGXGXGXGXGXGXGXGXGX",
"GXGXGXGXGXGXGXGXGXGXZXGXZXGXGXFXo $ 2.$.| | -.| $.3.oX5XfXfX5.>.fXfX8X+X$.1.=.=.&.=.o.#.@ ; MXGXGXGXGXGXGXGXGXGXGXGXGXGXGXGXGXGX",
"GXGXGXGXGXGXGXGXGXGXZXVXVXVXGXlX  o ( o.&.&.:.o.3.2.2XXX<.<.@.<.<.G.XX8XR $...=...=.$.+.; + DXGXGXGXGXGXGXGXGXGXGXGXGXGXGXGXGXGX",
"GXGXGXGXGXGXGXGXVXVXGXGXGXGXGXGXO % Q X.$.=.=.$.@.4.7X7XG._ 4.4.[ [ XX5X<.H.,.,.$.$.+.R - . GXVXGXGXGXGXGXGXGXGXGXGXGXGXGXGXGXGX",
"GXGXGXGXGXGXGXGXGXGXGXVXZXGXhXZX  . p y #.3.}.oX2X1X2X1X,X2X5X5X6X3X3X1X1X2XoXoX,.O.c f - @ AXGXGXGXGXGXGXGXGXGXGXGXGXGXGXGXGXGX",
"GXGXGXGXGXGXGXGXGXGXGXGXGXjXP 8 + @ y 9 2.2.XX2X2X7X1X1X7X7X4X4X3X3X3X1X7X1X2X2X,.O.i u ; . K , GXGXGXGXGXGXGXGXGXGXGXGXGXGXGXGX",
"GXGXGXGXGXGXGXGXGXGXVXGXGXGX8 5 + ; y g 5.4.,X<X1XT.3X6X<X<X6X<X9X<X6X6X,X1X2X2X<.>.f 9 + + , M GXGXGXGXGXGXGXGXGXGXGXGXGXGXGXGX",
"GXGXGXGXGXGXGXGXVXGXGXGXZXjXO . (.J.Q Y D 2 F F 6X6XgXNXgXNXNXmXgXsXmXNX6X<XG 2 f f V @.L.U.%   GXGXGXGXGXGXGXGXGXGXGXGXGXGXGXGX",
"GXGXGXGXGXGXGXGXGXZXGXVXGXVXO + (.J.W ( s A F A 6X3XdXdXdXmXmXmXnXnXgXgX6X7X2 F F F U W I.T..   GXGXGXGXGXGXGXGXGXGXGXGXGXGXGXGX",
"GXGXGXGXGXGXGXGXGXVXGXGXBXGX  . U.I.q z Y ( Y ^ ! ( T ~ j 4 j s h s / / P _ ! ! ! ~ u q U.T.. . GXGXGXGXGXGXGXGXGXGXGXGXGXGXGXGX",
"GXGXGXGXGXGXGXGXGXZXVXGXGXjX,   K..Xp < ( E V ( W Q R U y z < z y L N ( ^ ^ ( ! Y ;.q p P.K.. O GXGXGXGXGXGXGXGXGXGXGXGXGXGXGXGX",
"GXGXGXGXGXGXGXGXVXGXZXZXGXZXjXGX# . < z U.U.;.U !.|.q a !.|.'.`._.J.j g K.Y.^ W `.L.< j + # CXvXGXGXGXGXGXGXGXGXGXGXGXGXGXGXGXGX",
"GXGXGXGXGXGXGXGXVXGXFXGXGXlXGXAX  . 4 z |._.Q V (.J.q q ).!.).(.[.L.z g Y.U./ V [.U.l L .   GXAXGXGXGXGXGXGXGXGXGXGXGXGXGXGXGXGX",
"GXGXGXGXGXGXGXGXGXGXVXZXGXGXGXGXGXAX% + L.!.!. XpXpX: @ *X$X*XeX#XtX+ @ kXrX|.(.K..X. $ GXDXGXGXGXGXGXGXGXGXGXGXGXGXGXGXGXGXGXGX",
"GXGXGXGXGXGXGXGXVXZXGXGXGXZXVXZXxXAX  @ U. X!.Q.tXaX+ ; #X:X=X:XtXtX- + aXtX`.[.`..X% # NXFXCXZXGXGXGXGXGXGXGXGXGXGXGXGXGXGXGXGX",
"GXGXGXGXGXGXGXGXGXVXGXVXGXGXZXFXFXBXGXAX@ - ).(.>X-X-X>X#X:X$X$X*X@X-X*X:X:XI.(.. . AXAXGXGXGXFXGXGXGXGXGXGXGXGXGXGXGXGXGXGXGXGX",
"GXGXGXGXGXGXGXGXGXZXGXVXGXZXGXFXFXBXcXbX@ @ ].^.;X%X-X%X&X:X=XtXtXtX;X&X&X:XJ..X; . vXAXAXAXGXDXGXGXGXGXGXGXGXGXGXGXGXGXGXGXGXGX",
"GXGXGXGXGXGXGXGXGXGXGXGXGXGXGXGXBXFXGXbX@ @ Z Z S.P.&X&X&X&X/.Q.tXwXtX;XS.S.C E #       AXGXGXDXGXGXGXGXGXGXGXGXGXGXGXGXGXGXGXGX",
"GXGXGXGXGXGXGXGXGXGXGXGXGXGXGXGXFXFXGXAX+ @ ;.C /.^.%X>X>X&X/.Q.eX*X:X&XS.S.} Z # # # # cXVXlXGXGXGXGXGXGXGXGXGXGXGXGXGXGXGXGXGX",
"GXGXGXGXGXGXGXGXGXGXGXGXGXGXGXGXBXZXVXAX. + V.N.B B r e S.^.^.'.).).u w } } B.B.e p 4 5 I L AXzXGXGXGXGXGXGXGXGXGXGXGXGXGXGXGXGX",
"GXGXGXGXGXGXGXGXGXGXGXGXGXGXGXGXGXGXGXAX. + P.N.} C c w ^.`.I.L.|.!.a w } C C.N.m > P K L / aXzXAXGXGXGXGXGXGXGXGXGXGXGXGXGXGXGX",
"GXGXGXGXGXGXGXGXGXGXGXGXGXGXGXGXFXcX5 5 n n e a 6.V.Q.].u u 5 g k f oX X .} B.S.e m p 6 .XL.B V CXGXGXGXGXGXGXGXGXGXGXGXGXGXGXGX",
"GXGXGXGXGXGXGXGXGXGXGXGXGXGXGXGXGXAXP 5 M n > m B.Q.{.{.k k , h 4 d  X].} o.6.S.r N n h .X|.B V AXGXGXGXGXGXGXGXGXGXGXGXGXGXGXGX",
"GXGXGXGXGXGXGXGXGXGXGXGXGXGXGXGXAXMXM P T.P.m e X.{  .+.|.|.K D 2XoX@.+.} { 9 - ; + .XI.I.].b V AXGXGXGXGXGXGXGXGXGXGXGXGXGXGXGX",
"GXGXGXGXGXGXGXGXGXGXGXGXGXGXGXGXMXAXN N T.P.e m Z  .+.O.OXXXh D T.XX~  .} } - - @ ; `.I.`.J.Z E AXGXGXGXGXGXGXGXGXGXGXGXGXGXGXGX",
"GXGXGXGXGXGXGXGXGXGXGXGXGXGXGXGXU  .*XwXqXrX@ @ v v >.2.XXXXK D |.oXW E V E . % AXzXY E N Y bXAXGXGXGXGXGXGXGXGXGXGXGXGXGXGXGXGX",
"GXGXGXGXGXGXGXGXGXGXGXGXGXGXGXAXV b eXwX*XuX+ + ~ ( T T 0XT.K 6 OX|.[ _ I M #   DXzXL Y E L GXvXGXGXGXGXGXGXGXGXGXGXGXGXGXGXGXGX",
"GXGXGXGXGXGXGXGXGXGXGXGXGXGXGXAXU R wXtXuXuX% @ g y ; $ . o   O $ $ O     O 8 H   # MXzXGXAXhXAXGXGXGXGXGXGXGXGXGXGXGXGXGXGXGXGX",
"GXGXGXGXGXGXGXGXGXGXGXGXGXGXGXDXE l aXrX@XrX  . h s $ $   = O = & & 1 1 & & H H   o DXAXGXvXAXFXGXGXGXGXGXGXGXGXGXGXGXGXGXGXGXGX",
"GXGXGXGXGXGXGXGXGXGXGXGXGXGXGXGXzXAXn Y I P AXGX# . 5 6 D 7 8 3 F.) F.) ' ) ] ` &   VXVXvXAXAXvXGXGXGXGXGXGXGXGXGXGXGXGXGXGXGXGX",
"GXGXGXGXGXGXGXGXGXGXGXGXGXGXGXGXvXAXM I P M AXcX  o 8 I 5 3 J H ` ) F.) ] ] ) ` & O GXGXlXAXAXAXGXGXGXGXGXGXGXGXGXGXGXGXGXGXGXGX",
"GXGXGXGXGXGXGXGXGXGXGXGXGXGXGXAXGXcXGXAXAXZXCXGXGXhXo     =   * & 1 F.' ] ' J J X   GXZXGXGXVXcXGXGXGXGXGXGXGXGXGXGXGXGXGXGXGXGX",
"GXGXGXGXGXGXGXGXGXGXGXGXGXGXGXGXGXAXVXGXFXVXGXVXGXGX    O       1 & F.] ` ` J S X X GXSXGXcXGXSXGXGXGXGXGXGXGXGXGXGXGXGXGXGXGXGX",
"GXGXGXGXGXGXGXGXGXGXGXGXGXGXGXGXGXGXGXGXDXGXGXGXGXGXGXZXGXGXGXGXA 7 D S D S X X GXGXGXGXGXGXGXGXGXGXGXGXGXGXGXGXGXGXGXGXGXGXGXGX",
"GXGXGXGXGXGXGXGXGXGXGXGXGXGXGXGXFXGXFXGXDXGXGXDXGXGXGXGXGXGXDXGXD D L h D h + * GXGXGXFXGXDXGXGXGXGXGXGXGXGXGXGXGXGXGXGXGXGXGXGX",
"GXGXGXGXGXGXGXGXGXGXGXGXGXGXGXGXGXGXGXGXGXGXDXGXGXGXGXGXGXGXGXDX  @ Y ^ _ ! + . DXGXGXGXGXGXFXGXGXGXGXGXGXGXGXGXGXGXGXGXGXGXGXGX",
"GXGXGXGXGXGXGXGXGXGXGXGXGXGXGXGXGXFXGXGXGXDXGXGXGXGXGXFXGXGXGXDX. @ E ^ ( T + + GXFXGXGXGXFXGXGXGXGXGXGXGXGXGXGXGXGXGXGXGXGXGXGX",
"GXGXGXGXGXGXGXGXGXGXGXGXGXGXGXGXFXGXGXGXGXDXFXGXFXFXFXFXGXGXGXGXAXbX@ + @ @ zXGXAXGXGXGXGXFXGXGXGXGXGXGXGXGXGXGXGXGXGXGXGXGXGXGX",
"GXGXGXGXGXGXGXGXGXGXGXGXGXGXGXGXGXFXGXGXGXGXGXGXGXFXFXFXFXGXGXFXcXAX. + @ + DXGXGXAXFXFXFXGXFXGXGXGXGXGXGXGXGXGXGXGXGXGXGXGXGXGX",
"GXGXGXGXGXGXGXGXGXGXGXGXGXGXGXGXFXAXAXGXGXDXGXGXFXFXFXFXFXGXGXGXGXcXGXDXMXDXkXAXGXGXAXZXAXFXGXGXGXGXGXGXGXGXGXGXGXGXGXGXGXGXGXGX",
"GXGXGXGXGXGXGXGXGXGXGXGXGXGXGXGXGXFXGXGXGXGXGXFXFXFXFXFXFXFXGXGXGXxXZXDXDXGXDXDXGXFXFXGXFXGXGXGXGXGXGXGXGXGXGXGXGXGXGXGXGXGXGXGX"
};
