/* XPM */
static char *result[] = {
/* columns rows colors chars-per-pixel */
"64 64 247 2 ",
"   c #020201",
".  c #0C0100",
"X  c #070909",
"o  c #130101",
"O  c #160606",
"+  c #1B0102",
"@  c #1C0A01",
"#  c #1A0109",
"$  c #030A14",
"%  c #081319",
"&  c #181111",
"*  c #220101",
"=  c #2B0306",
"-  c #24040A",
";  c #310509",
":  c #241200",
">  c #311500",
",  c #250D16",
"<  c #3B300F",
"1  c #0E1B2D",
"2  c #331C32",
"3  c #2C2326",
"4  c #3B2A2A",
"5  c #363328",
"6  c #3C332C",
"7  c #2D2738",
"8  c #362C37",
"9  c #3A3739",
"0  c #511710",
"q  c #572904",
"w  c #5E3908",
"e  c #4B2E11",
"r  c #482818",
"t  c #552817",
"y  c #5A3319",
"u  c #682F0F",
"i  c #663612",
"p  c #471E28",
"a  c #591D2F",
"s  c #462827",
"d  c #4D2B2B",
"f  c #572527",
"g  c #5B2C23",
"h  c #532C2C",
"j  c #5C2B2C",
"k  c #483428",
"l  c #543222",
"z  c #54322C",
"x  c #573929",
"c  c #482C34",
"v  c #532C36",
"b  c #582935",
"n  c #423532",
"m  c #493837",
"M  c #583638",
"N  c #642624",
"B  c #642B2B",
"V  c #663129",
"C  c #632D36",
"Z  c #712E36",
"A  c #683537",
"S  c #783235",
"D  c #3D413D",
"F  c #4F4405",
"G  c #7B5407",
"H  c #7A4918",
"J  c #795517",
"K  c #56432D",
"L  c #4C4136",
"P  c #44413C",
"I  c #694526",
"U  c #754B2A",
"Y  c #785328",
"T  c #6A4539",
"R  c #744C35",
"E  c #6F5337",
"W  c #775536",
"Q  c #7F612E",
"!  c #3E3442",
"~  c #552A44",
"^  c #463A44",
"/  c #4D334D",
"(  c #573A42",
")  c #693845",
"_  c #743848",
"`  c #4A4545",
"'  c #574F53",
"]  c #6C4A44",
"[  c #684749",
"{  c #764948",
"}  c #695249",
"|  c #785648",
" . c #674353",
".. c #784752",
"X. c #6D5F54",
"o. c #795558",
"O. c #4D5D6B",
"+. c #4C5D70",
"@. c #675A65",
"#. c #795D6B",
"$. c #5F686D",
"%. c #586773",
"&. c #677176",
"*. c #A4382E",
"=. c #835B14",
"-. c #80601E",
";. c #84562A",
":. c #805134",
">. c #AD423A",
",. c #BA4A3F",
"<. c #896434",
"1. c #984949",
"2. c #885749",
"3. c #98554F",
"4. c #854A58",
"5. c #944E52",
"6. c #875659",
"7. c #9B5759",
"8. c #A74944",
"9. c #AC4D45",
"0. c #A44E4B",
"q. c #B34D45",
"w. c #BB4D44",
"e. c #B74E49",
"r. c #A7544B",
"t. c #AB524C",
"y. c #B3524B",
"u. c #B85249",
"i. c #A94F51",
"p. c #A25452",
"a. c #A85957",
"s. c #B45854",
"d. c #8A4F61",
"f. c #855B65",
"g. c #985765",
"h. c #9C5D63",
"j. c #AA5F61",
"k. c #85626D",
"l. c #846876",
"z. c #AB6567",
"x. c #BD797B",
"c. c #C15E56",
"v. c #CD695F",
"b. c #DB685D",
"n. c #E36A5D",
"m. c #E6715F",
"M. c #E8705F",
"N. c #C76967",
"B. c #D66C65",
"V. c #CC726C",
"C. c #DF7266",
"Z. c #D5726A",
"A. c #DC746C",
"S. c #C87975",
"D. c #D47672",
"F. c #D57A76",
"G. c #E36D63",
"H. c #EA6E62",
"J. c #E57163",
"K. c #E97164",
"L. c #E3746B",
"P. c #EC7269",
"I. c #E9796E",
"U. c #F4786B",
"Y. c #E67C73",
"T. c #B18D1F",
"R. c #B79234",
"E. c #C59318",
"W. c #C59626",
"Q. c #C29232",
"!. c #9E8847",
"~. c #AE9446",
"^. c #AA9A58",
"/. c #AC936F",
"(. c #B39766",
"). c #B5827E",
"_. c #B4A173",
"`. c #C29849",
"'. c #C79877",
"]. c #D39976",
"[. c #EE827B",
"{. c #C7A477",
"}. c #D8A47C",
"|. c #E1A67B",
" X c #BB968A",
".X c #AD8C91",
"XX c #B697A8",
"oX c #B5ADA8",
"OX c #B9ABB6",
"+X c #D68584",
"@X c #C59B88",
"#X c #CD9890",
"$X c #E58C87",
"%X c #CDA98A",
"&X c #D6A586",
"*X c #C6A598",
"=X c #DAA995",
"-X c #E1A688",
";X c #CB9DAD",
":X c #CCABA7",
">X c #D2AAA9",
",X c #CAAABA",
"<X c #D6A9B9",
"1X c #C3B6B1",
"2X c #D7B7B6",
"3X c #EDCAB6",
"4X c #F9C7BB",
"5X c #BCB2C4",
"6X c #CCAEC8",
"7X c #CABCD1",
"8X c #E3B7D0",
"9X c #D8CCC9",
"0X c #ECCDC4",
"qX c #E2C8CA",
"wX c #EECECE",
"eX c #FCCAC9",
"rX c #F5D7CA",
"tX c #E5D7D4",
"yX c #FAD6D6",
"uX c #FEF3D9",
"iX c #E9D9EC",
"pX c #F4DEF5",
"aX c #EBE8E8",
"sX c #FCE8E5",
"dX c #F2ECEC",
"fX c #FEEDEC",
"gX c #E5F1E8",
"hX c #EBF3EE",
"jX c #F8F7E7",
"kX c #FEF4EC",
"lX c #FDFAED",
"zX c #EBEAF4",
"xX c #F4EEF3",
"cX c #FDEDF4",
"vX c #F7E6F9",
"bX c #F3ECFA",
"nX c #EDF4F4",
"mX c #ECFDF6",
"MX c #EEF8FD",
"NX c #F4F5F4",
"BX c #FCF4F4",
"VX c #F4FCF6",
"CX c #FFFCF5",
"ZX c #F5F4FA",
"AX c #FDF5FC",
"SX c #F5FDFB",
"DX c #FFFFFF",
/* pixels */
"DXDXDXDXDXDXDXDXDXDXDXDXDXDXDXDXDXCXAXDXDXSXSXSXSXSXDXDXDXDXDXDXDXAXDXDXDXDXDXAXDXDXDXDXDXAXDXDXDXDXDXDXDXDXDXDXDXDXDXDXDXDXDXDX",
"DXDXDXDXDXDXDXDXDXDXDXDXDXDXDXDXAXAXDXDXDXDXDXSXDXSXSXDXDXDXDXDXDXDXDXDXDXCXDXDXDXDXDXDXDXDXDXDXDXDXDXDXDXDXDXDXDXDXDXDXDXDXDXDX",
"DXDXDXDXDXDXDXDXDXDXDXDXDXDXDXDXDXDXDXDXDXSXDXDXCXDXDXDXDXAXDXDXSXDXCXSXSXSXSXDXDXSXDXDXDXSXDXDXDXDXDXDXDXDXDXDXDXDXDXDXDXDXDXDX",
"DXDXDXDXDXDXDXDXDXDXDXDXDXDXDXDXDXSXDXDXDXCXDXDXDXDXCXDXCXCXCXCXCXSXSXSXSXSXCXVXSXSXSXSXSXSXSXSXDXDXDXDXDXDXDXDXDXDXDXDXDXDXDXDX",
"DXDXDXDXDXDXDXDXDXDXDXDXDXDXDXDXDXSXDXDXDXDXDXDXCXCXCXCXCXCXlXCXCXSXDXSXDXVXSXSXSXSXCXVXSXSXSXSXDXDXDXDXDXDXDXDXDXDXDXDXDXDXDXDX",
"DXDXDXDXDXDXDXDXDXDXDXDXDXDXDXDXSXDXSXDXDXDXDXDXDXCXCXCXCXlXCXCXDXCXDXDXCXDXCXDXDXSXSXDXDXSXSXDXDXDXDXDXDXDXDXDXDXDXDXDXDXDXDXDX",
"DXDXDXDXDXDXDXDXDXDXDXDXDXDXDXDXSXSXSXSXDXDXAXDXDXAXCXCXCXCXCXCXDXDXAXDXAXDXDXDXDXDXDXDXDXDXDXDXDXDXDXDXDXDXDXDXDXDXDXDXDXDXDXDX",
"DXDXDXDXDXDXDXDXDXDXDXDXDXDXDXDXDXSXDXDXDXDXDXDXDXDXDXDXSXDXSXSXDXAXDXDXDXAXDXDXDXDXAXDXDXAXAXDXDXDXDXDXDXDXDXDXDXDXDXDXDXDXDXDX",
"DXDXDXDXDXDXDXDXDXDXDXDXDXDXDXDXSXCXDXCXDXDXDXDXDXzXSXZXSXSXSXSXDXDXDXDXDXAXDXDXAXDXAXAXAXAXAXDXDXDXDXDXDXDXDXDXDXDXDXDXDXDXDXDX",
"DXDXDXDXDXDXDXDXDXDXDXDXDXDXDXDXCXCXDXDXDXDXAXDXZXDXzXZXDXSXSXSXSXAXSXAXDXAXAXAXAXAXAXcXDXDXAXAXDXDXDXDXDXDXDXDXDXDXDXDXDXDXDXDX",
"DXDXDXDXDXDXDXDXDXDXDXDXDXDXDXDXCXCXCXDXDXDXDXDXAXbXDXDXSXbXDXZXDXDXDXDXDXDXDXDXSXDXDXZXDXbXZXDXDXDXDXDXDXDXDXDXDXDXDXDXDXDXDXDX",
"DXDXDXDXDXDXDXDXDXDXDXDXDXDXDXDXCXCXDXCXDXDXAXDXDXAXAXAXAXDXAXAXCXCXBXBXCXCXDXAXDXZXZXZXDXSXDXSXDXDXDXDXDXDXDXDXDXDXDXDXDXDXDXDX",
"DXDXDXDXDXDXDXDXDXDXDXDXDXDXDXDXCXDXDXDXDXDXDXDXcXAX4 c v d d f h z h z k m m n AXCXDXDXZXnXDXSXDXDXDXDXDXDXDXDXDXDXDXDXDXDXDXDX",
"DXDXDXDXDXDXDXDXDXDXDXDXDXDXDXDXAXDXDXDXDXDXAXDXDXcX( b C B N Z N N g g f f d s BXCXCXBXDXVXSXSXDXDXDXDXDXDXDXDXDXDXDXDXDXDXDXDX",
"DXDXDXDXDXDXDXDXDXDXDXDXDXDXDXDXDXDXDXDXDXDXDXAX` s 6.2.S.S.V.].V.S.S.S.S.x.).x.h s s m dXDXDXVXDXDXDXDXDXDXDXDXDXDXDXDXDXDXDXDX",
"DXDXDXDXDXDXDXDXDXDXDXDXDXDXDXDXDXDXDXDXDXAXAXBXb j 7.p.D.V.v.A.A.A.A.A.F.S.S.'.N V g 4 CXBXNXDXDXDXDXDXDXDXDXDXDXDXDXDXDXDXDXDX",
"DXDXDXDXDXDXDXDXDXDXDXDXDXDXDXDXVXSXSXDXAXcXb b g.i.F.A.B.L.L.I.J.C.J.C.C.L.J.L.Y.Z.r.5.b M DXAXDXDXDXDXDXDXDXDXDXDXDXDXDXDXDXDX",
"DXDXDXDXDXDXDXDXDXDXDXDXDXDXDXDXSXgXDXSXAXAXp N g.i.B.L.B.P.m.J.m.m.m.J.J.G.H.H.b.I.s.p.A d AXDXDXDXDXDXDXDXDXDXDXDXDXDXDXDXDXDX",
"DXDXDXDXDXDXDXDXDXDXDXDXDXDXDXDXSXSXSXxXAXvXv C +X+X[.I.G.H.M.n.m.m.m.J.J.M.H.H.K.G.B.V.V h AXcXDXDXDXDXDXDXDXDXDXDXDXDXDXDXDXDX",
"DXDXDXDXDXDXDXDXDXDXDXDXDXDXDXDXnXVXDXAXAXAXp C x.N.B.B.b.K.K.U.m.m.m.m.J.K.H.H.K.G.F.[.f C cXAXDXDXDXDXDXDXDXDXDXDXDXDXDXDXDXDX",
"DXDXDXDXDXDXDXDXDXDXDXDXDXDXDXDXDXDXDXDX^ / ;X>Xx.+XF.Y.I.G.n.b.m.m.m.m.G.H.H.H.H.P.b.D.7.6.M c DXDXDXDXDXDXDXDXDXDXDXDXDXDXDXDX",
"DXDXDXDXDXDXDXDXDXDXDXDXDXDXDXDXxXxXDXAX3 8 <X<Xx.+XV.B.L.G.H.M.m.m.m.J.H.H.H.H.H.H.G.D.5.h.p m DXDXDXDXDXDXDXDXDXDXDXDXDXDXDXDX",
"DXDXDXDXDXDXDXDXDXDXDXDXDXDXDXDXDXDX3 ! @.@.k.f.yX4X$XA.L.G.K.K.M.M.J.J.G.H.H.H.U.b.L.D.i.h.b c DXDXDXDXDXDXDXDXDXDXDXDXDXDXDXDX",
"DXDXDXDXDXDXDXDXDXDXDXDXDXDXDXDXAXcX! ' ' @.l.f.yXeX+XV.L.J.J.m.J.m.J.J.H.H.H.H.n.H.P.N.j.5.j M DXDXDXDXDXDXDXDXDXDXDXDXDXDXDXDX",
"DXDXDXDXDXDXDXDXDXDXDXDXDXDXDXDX9 ^ pXiXvXpX#.f.yXyXi.y.[.b.C.n.K.m.J.C.J.J.J.P.P.H.w.e.i.5.A p AXDXDXDXDXDXDXDXDXDXDXDXDXDXDXDX",
"DXDXDXDXDXDXDXDXDXDXDXDXDXDXDXDX^ 8 bXbXiXpXl.f.yXeXs.i.v.B.[.[.J.J.C.C.A.C.L.J.P.G.c.>.i.5.C d AXDXDXDXDXDXDXDXDXDXDXDXDXDXDXDX",
"DXDXDXDXDXDXDXDXDXDXDXDXDXDXDXDX8 ^ iXiXvXvX;X6X6.z.1.y.c.s.>.>.,.,.,.,.q.u.w.w.w.w.e.i.j.h.j c DXDXDXDXDXDXDXDXDXDXDXDXDXDXDXDX",
"DXDXDXDXDXDXDXDXDXDXDXDXDXDXDXDX^ ! zXvXpXpX,X<Xg.7.i.0.>.9.,.s.q.w.u.y.q.q.u.w.w.e.e.8.7.g.a d CXDXDXDXDXDXDXDXDXDXDXDXDXDXDXDX",
"DXDXDXDXDXDXDXDXDXDXDXDXDXDXDXDX7 8 5X5XAXvX .) g.5.j.s.8.e.,.>.>.,.q.9.9.t.y.9.u.u.s.0.7.7.h k AXDXDXDXDXDXDXDXDXDXDXDXDXDXDXDX",
"DXDXDXDXDXDXDXDXDXDXDXDXDXDXDXDX` 7 7X5XiXpX~ _ g.1.a.0.8.9.t.9.y.u.y.y.t.t.s.y.>.8.t.a.5.6.h c DXDXDXDXDXDXDXDXDXDXDXDXDXDXDXDX",
"DXDXDXDXDXDXDXDXDXDXDXDXDXDXDXDXSXDX7 / 7X6X8X;X_ *.5.i.0.t.t.r.t.q.t.t.r.i.t.t.s.s.r.1.V j s c AXDXDXDXDXDXDXDXDXDXDXDXDXDXDXDX",
"DXDXDXDXDXDXDXDXDXDXDXDXDXDXDXDXSXDX8 ! OX,X,X<X_ _ d.i.a.7.a.r.r.r.p.a.7.p.3.p.1.7.a.7.B f z k CXDXDXDXDXDXDXDXDXDXDXDXDXDXDXDX",
"DXDXDXDXDXDXDXDXDXDXDXDXDXDXDXDXDXAXAXDX3 ^ c c ~ ~ ~ ~ v v k t t S f j j f r j B j a _ A o.x k CXDXDXDXDXDXDXDXDXDXDXDXDXDXDXDX",
"DXDXDXDXDXDXDXDXDXDXDXDXDXDXDXDXAXAXDXkX6 6 n ^ ~ / 2 ! c s k l x l h h d k x x j j ~ b ..] < F CXDXDXDXDXDXDXDXDXDXDXDXDXDXDXDX",
"DXDXDXDXDXDXDXDXDXDXDXDXDXDXDXDXAXDXSXBXX.} }  ., # .X.X( } y r W W y t | W R U :.3.{ { x < uXuXCXDXDXDXDXDXDXDXDXDXDXDXDXDXDXDX",
"DXDXDXDXDXDXDXDXDXDXDXDXDXDXDXDXDXDXCXjX} T } [ # # XX.X[ | r e W W y l R W W ;.U :.R T x 5 jXjXCXDXDXDXDXDXDXDXDXDXDXDXDXDXDXDX",
"DXDXDXDXDXDXDXDXDXDXDXDXDXDXDXDXAXBXCXlXK }  X:X# o yXwX*X_.I i %X'.@X@Xy y ;.H ;.Y I l @ o jXCXDXDXDXDXDXDXDXDXDXDXDXDXDXDXDXDX",
"DXDXDXDXDXDXDXDXDXDXDXDXDXDXDXDXDXCXlXkXT 6.*X>X+ # sXsX%X].u q }.{.%X=Xt q ;.;.-.;.q r @   SXSXDXDXDXDXDXDXDXDXDXDXDXDXDXDXDXDX",
"DXDXDXDXDXDXDXDXDXDXDXDXDXDXDXDXSXCXkXkX X@X3X3XuXyXrX3X4X3X&X].{.&X@X@XB y V ;.Y I l M BXDXDXAXDXDXDXDXDXDXDXDXDXDXDXDXDXDXDXDX",
"DXDXDXDXDXDXDXDXDXDXDXDXDXDXDXDXVXDXkXsX<X*XwX0X0XrX3XrX3X4X-X-X}.{.=X#XB t 2.R E | s 4 AXbXAXDXDXDXDXDXDXDXDXDXDXDXDXDXDXDXDXDX",
"DXDXDXDXDXDXDXDXDXDXDXDXDXDXDXDXDXSXAXCXfXcX{ ] 0X0XtXrX@X=X'.-X|.}.q V { 2.= o + o kXDXAXvXAXbXDXDXDXDXDXDXDXDXDXDXDXDXDXDXDXDX",
"DXDXDXDXDXDXDXDXDXDXDXDXDXDXDXDXVXAXDXAXfXyX} M yX0XrX3X@X@X=X&X].|.u q 3.R + : : . CXAXAXDXAXDXDXDXDXDXDXDXDXDXDXDXDXDXDXDXDXDX",
"DXDXDXDXDXDXDXDXDXDXDXDXDXDXDXDXDXDXBXBXBXAXfXAXM } ] T { T @X%Xu q u u q F (.(.< < lXCXDXcXBXlXDXDXDXDXDXDXDXDXDXDXDXDXDXDXDXDX",
"DXDXDXDXDXDXDXDXDXDXDXDXDXDXDXDXDXDXDXDXDXAXfXsX} o.A ] ] A :X%Xq q q q q w ~.^.F e jXlXjXDXlXCXDXDXDXDXDXDXDXDXDXDXDXDXDXDXDXDX",
"DXDXDXDXDXDXDXDXDXDXDXDXDXDXDXDXDXDXSXSXVXNXDXAXBXsX] ] >X1X2X*X(.(.<.J `.R.R.R.R.^.F D VXCXjXlXCXDXDXDXDXDXDXDXDXDXDXDXDXDXDXDX",
"DXDXDXDXDXDXDXDXDXDXDXDXDXDXDXDXBXAXSXSXSXVXDXBXBXfX{ _ 2X2XoX1X.X/.Q J `.Q.W.T.~.!.K 5 lXCXjXlXDXDXDXDXDXDXDXDXDXDXDXDXDXDXDXDX",
"DXDXDXDXDXDXDXDXDXDXDXDXDXDXDXDXCXCXVXSXmXmXVXCXL M | 6.@ . ` 9 9 L o + R.W.E.W.G J @ @ ZXnXSXSXDXDXDXDXDXDXDXDXDXDXDXDXDXDXDXDX",
"DXDXDXDXDXDXDXDXDXDXDXDXDXDXDXDXCXCXVXSXmXmXmXCXn M o.o.+ . P P P P @ + ~.Q.W.W.G J : X DXSXnXSXDXDXDXDXDXDXDXDXDXDXDXDXDXDXDXDX",
"DXDXDXDXDXDXDXDXDXDXDXDXDXDXDXDXDXAXDXSXVXSXmXVX9 D   @ 6 6 L n P L . O <.J =.G !.{.. . CXDXbXAXDXDXDXDXDXDXDXDXDXDXDXDXDXDXDXDX",
"DXDXDXDXDXDXDXDXDXDXDXDXDXDXDXDXBXDXxXZXSXSXnXAXD 5 X X 5 L L m ` P o o E W U W (._.o . kXxXSXbXDXDXDXDXDXDXDXDXDXDXDXDXDXDXDXDX",
"DXDXDXDXDXDXDXDXDXDXDXDXDXDXDXDXSXDXDXAXAXdX' ` . @ 9XtXtXtX5 9     X o @ o _./.Q K > o BXDXcXDXDXDXDXDXDXDXDXDXDXDXDXDXDXDXDXDX",
"DXDXDXDXDXDXDXDXDXDXDXDXDXDXDXDXSXDXZXDXDXAXc 4 # + tXtXtXaX6 D % % X   . . /._.W I > * kXfXDXDXDXDXDXDXDXDXDXDXDXDXDXDXDXDXDXDX",
"DXDXDXDXDXDXDXDXDXDXDXDXDXDXDXDXSXSXSXAXo #  .) ; = yXqXoXoXX   O.+.%.&.D ` . * = = r T fXfXDXNXDXDXDXDXDXDXDXDXDXDXDXDXDXDXDXDX",
"DXDXDXDXDXDXDXDXDXDXDXDXDXDXDXDXVXSXSXDX# o ) b - = wXwXOXoXX % %.+.%.%.D ' . O * 0 N { sXCXfXDXDXDXDXDXDXDXDXDXDXDXDXDXDXDXDXDX",
"DXDXDXDXDXDXDXDXDXDXDXDXDXDXDXDXSXnXDXBX# , ) ) ) b - + .   X   $ 1 $   $.' m M C Z 4._ ; # DXNXDXDXDXDXDXDXDXDXDXDXDXDXDXDXDXDX",
"DXDXDXDXDXDXDXDXDXDXDXDXDXDXDXDXSXDXSXAX# o  .( ( b + # O   &   $ $ $ $ ' @.^ v _ _ g.S * O lXVXDXDXDXDXDXDXDXDXDXDXDXDXDXDXDXDX",
"DXDXDXDXDXDXDXDXDXDXDXDXDXDXDXDXSXNXDXDXcXAXo # # . AXfXDXDXBXAXDXAXSXDX  , ' o.d.g.4.4.- # DXVXDXDXDXDXDXDXDXDXDXDXDXDXDXDXDXDX",
"DXDXDXDXDXDXDXDXDXDXDXDXDXDXDXDXDXCXcXDXDXaX3 X . 3 dXDXAXBXCXDXcXDXAXDX  . [ o.6._ d._ # & NXSXDXDXDXDXDXDXDXDXDXDXDXDXDXDXDXDX",
"DXDXDXDXDXDXDXDXDXDXDXDXDXDXDXDXBXDXAXAXDXDXaXSXSXaXSXDXBXAXDXBXAXsXDXjXBXCX. - * * * + AXcXSXmXDXDXDXDXDXDXDXDXDXDXDXDXDXDXDXDX",
"DXDXDXDXDXDXDXDXDXDXDXDXDXDXDXDXxXDXAXDXDXhXZXVXSXSXhXDXDXAXDXfXCXCXCXsXDXsXo + - + - # AXDXDXZXSXDXDXDXDXDXDXDXDXDXDXDXDXDXDXDX",
"DXDXDXDXDXDXDXDXDXDXDXDXDXDXDXDXDXDXdXSXAXDXDXSXSXSXDXSXZXxXDXDXBXBXdXAXkXBXBXkXkXkXBXBXSXAXSXDXDXDXDXDXDXDXDXDXDXDXDXDXDXDXDXDX",
"DXDXDXDXDXDXDXDXDXDXDXDXDXDXDXDXSXBXDXDXVXSXVXDXDXZXAXSXDXDXZXSXSXDXDXDXDXDXdXCXCXDXdXNXAXDXAXDXDXDXDXDXDXDXDXDXDXDXDXDXDXDXDXDX",
"DXDXDXDXDXDXDXDXDXDXDXDXDXDXDXDXDXNXSXAXDXDXCXAXCXDXDXDXAXSXZXSXMXZXnXSXDXCXDXCXjXgXCXDXDXdXAXcXDXDXDXDXDXDXDXDXDXDXDXDXDXDXDXDX",
"DXDXDXDXDXDXDXDXDXDXDXDXDXDXDXDXDXNXDXAXDXBXAXAXAXAXAXDXSXDXZXSXSXSXZXAXDXSXNXSXSXhXSXhXSXDXdXDXDXDXDXDXDXDXDXDXDXDXDXDXDXDXDXDX"
};
