/* XPM */
static char *result[] = {
/* columns rows colors chars-per-pixel */
"64 64 236 2 ",
"   c #050201",
".  c #0C0201",
"X  c #0D0A01",
"o  c #140101",
"O  c #1B0201",
"+  c #1D0B03",
"@  c #150508",
"#  c #1E1000",
"$  c #180210",
"%  c #240301",
"&  c #2A0A05",
"*  c #23040A",
"=  c #261401",
"-  c #2B1415",
";  c #3A320E",
":  c #392A1C",
">  c #321D2F",
",  c #2D2226",
"<  c #3A2728",
"1  c #3B332B",
"2  c #2D2738",
"3  c #362B37",
"4  c #3B3639",
"5  c #5E1D1F",
"6  c #592906",
"7  c #48281D",
"8  c #542A17",
"9  c #563213",
"0  c #5A3216",
"q  c #622B06",
"w  c #623604",
"e  c #67251F",
"r  c #63331B",
"t  c #471E28",
"y  c #571D23",
"u  c #452829",
"i  c #4D2A2D",
"p  c #582625",
"a  c #542C2C",
"s  c #5C2B2C",
"d  c #483729",
"f  c #573324",
"g  c #54332D",
"h  c #462B32",
"j  c #4B2D31",
"k  c #472B3A",
"l  c #562B36",
"z  c #4B3333",
"x  c #463638",
"c  c #4C3D3C",
"v  c #573538",
"b  c #652A28",
"n  c #663625",
"m  c #652D35",
"M  c #653738",
"N  c #783234",
"B  c #4E4209",
"V  c #7A4C09",
"C  c #7B5206",
"Z  c #794D1D",
"A  c #795518",
"S  c #534526",
"D  c #48443D",
"F  c #594339",
"G  c #6B412B",
"H  c #754929",
"J  c #78522A",
"K  c #6A4637",
"L  c #734A3A",
"P  c #795336",
"I  c #3D3441",
"U  c #582D43",
"Y  c #453B44",
"T  c #533C44",
"R  c #593A46",
"E  c #503C51",
"W  c #693A45",
"Q  c #753846",
"!  c #494445",
"~  c #5A464A",
"^  c #554A57",
"/  c #6D4D45",
"(  c #644C4D",
")  c #684B48",
"_  c #734F45",
"`  c #76474D",
"'  c #68564C",
"]  c #78564B",
"[  c #674754",
"{  c #774C55",
"}  c #77555C",
"|  c #6B5A65",
" . c #795664",
".. c #746564",
"X. c #A4382E",
"o. c #87570F",
"O. c #845828",
"+. c #825636",
"@. c #AD423A",
"#. c #BA4A3F",
"$. c #87612A",
"%. c #984948",
"&. c #895749",
"*. c #98554F",
"=. c #864C57",
"-. c #934E52",
";. c #9B4F50",
":. c #85535B",
">. c #88565B",
",. c #9B5557",
"<. c #9B5B5B",
"1. c #A74944",
"2. c #AC4D45",
"3. c #B34D45",
"4. c #BB4D44",
"5. c #B74E49",
"6. c #A6534B",
"7. c #AB524C",
"8. c #B3524B",
"9. c #B85249",
"0. c #A94F51",
"q. c #A25553",
"w. c #A85957",
"e. c #B45854",
"r. c #845B64",
"t. c #885D66",
"y. c #975864",
"u. c #9C5D63",
"i. c #B35F60",
"p. c #84636B",
"a. c #846876",
"s. c #AB6567",
"d. c #BC7B7B",
"f. c #C15E56",
"g. c #CB6A5F",
"h. c #DB685D",
"j. c #E2655B",
"k. c #E46D5F",
"l. c #E6715F",
"z. c #E8705F",
"x. c #C76967",
"c. c #D36B64",
"v. c #D76D66",
"b. c #CA726E",
"n. c #DF7266",
"m. c #D27269",
"M. c #DD736C",
"N. c #C87975",
"B. c #D27572",
"V. c #D57A75",
"C. c #E36D63",
"Z. c #EA6E62",
"A. c #E47163",
"S. c #E97164",
"D. c #E3746B",
"F. c #EC7269",
"G. c #E9796E",
"H. c #F4786B",
"J. c #E67C73",
"K. c #B88E34",
"L. c #C59330",
"P. c #9C8448",
"I. c #BC9647",
"U. c #AE8B53",
"Y. c #B79853",
"T. c #A99566",
"R. c #B69568",
"E. c #AA8978",
"W. c #B4A17B",
"Q. c #C69B7C",
"!. c #D89B7A",
"~. c #EE827B",
"^. c #BC9587",
"/. c #B19092",
"(. c #B4A794",
"). c #B697A8",
"_. c #B9ACAE",
"`. c #D68584",
"'. c #C99C86",
"]. c #D69C84",
"[. c #E58C87",
"{. c #DCA186",
"}. c #D4A48B",
"|. c #D5B08D",
" X c #C9A69B",
".X c #D8AC96",
"XX c #E2A68D",
"oX c #CB9DAD",
"OX c #C9A6A4",
"+X c #CEAEAC",
"@X c #C8ABB8",
"#X c #D6A9B8",
"$X c #DCB4B6",
"%X c #CFC8B7",
"&X c #E6C5B7",
"*X c #EFCCB9",
"=X c #FCC6B7",
"-X c #BCB2C4",
";X c #CCAEC8",
":X c #E3B7D0",
">X c #DCC9C3",
",X c #FACAC7",
"<X c #E9D4C5",
"1X c #F6D6C7",
"2X c #EDD9D9",
"3X c #FAD7D6",
"4X c #E5E8DF",
"5X c #F9E3D8",
"6X c #E9D9EC",
"7X c #F5DEEE",
"8X c #EBE8E9",
"9X c #F9E7E4",
"0X c #FFECE6",
"qX c #F3EDEB",
"wX c #FDEDEC",
"eX c #EBF1EB",
"rX c #FBF7E5",
"tX c #F5F3EE",
"yX c #FCF4ED",
"uX c #FEFCED",
"iX c #EBE9F4",
"pX c #F4EDF6",
"aX c #FDECF4",
"sX c #F7E8F9",
"dX c #EDF4F4",
"fX c #ECFBF5",
"gX c #ECF5FF",
"hX c #ECFFFB",
"jX c #F3F4F5",
"kX c #FDF5F4",
"lX c #F5FBF4",
"zX c #FEFCF5",
"xX c #F4F4FB",
"cX c #FDF5FC",
"vX c #F5FDFC",
"bX c #FFFFFF",
/* pixels */
"bXbXbXbXbXbXbXbXbXbXbXbXbXbXbXbXbXzXbXzXbXbXvXbXvXvXvXvXzXvXbXcXbXbXbXbXcXbXcXbXbXbXbXbXbXcXcXbXbXbXbXbXbXbXbXbXbXbXbXbXbXbXbXbX",
"bXbXbXbXbXbXbXbXbXbXbXbXbXbXbXbXcXbXbXbXzXbXbXzXvXbXvXbXbXbXbXbXbXbXbXbXzXbXbXbXbXbXcXbXbXbXbXbXbXbXbXbXbXbXbXbXbXbXbXbXbXbXbXbX",
"bXbXbXbXbXbXbXbXbXbXbXbXbXbXbXbXbXbXbXbXcXbXbXbXbXzXbXbXbXbXbXbXzXvXbXbXzXbXzXbXbXzXbXbXbXbXbXbXbXbXbXbXbXbXbXbXbXbXbXbXbXbXbXbX",
"bXbXbXbXbXbXbXbXbXbXbXbXbXbXbXbXcXvXbXbXbXbXbXbXzXbXzXbXzXzXzXzXzXvXvXzXvXvXvXlXvXvXvXvXvXvXvXzXbXbXbXbXbXbXbXbXbXbXbXbXbXbXbXbX",
"bXbXbXbXbXbXbXbXbXbXbXbXbXbXbXbXbXvXbXbXbXbXbXbXzXbXzXzXzXzXuXzXzXzXvXzXzXzXvXvXvXvXvXlXvXlXlXvXbXbXbXbXbXbXbXbXbXbXbXbXbXbXbXbX",
"bXbXbXbXbXbXbXbXbXbXbXbXbXbXbXbXvXvXvXbXbXbXbXbXbXzXzXzXzXuXzXzXzXbXbXbXbXvXzXbXzXbXzXbXvXbXvXbXbXbXbXbXbXbXbXbXbXbXbXbXbXbXbXbX",
"bXbXbXbXbXbXbXbXbXbXbXbXbXbXbXbXvXvXvXvXbXbXbXbXbXbXzXzXzXzXzXzXbXbXbXbXbXbXbXbXbXbXbXbXbXbXbXbXbXbXbXbXbXbXbXbXbXbXbXbXbXbXbXbX",
"bXbXbXbXbXbXbXbXbXbXbXbXbXbXbXbXvXvXbXvXbXbXbXbXcXbXbXbXbXbXzXbXbXbXbXcXbXbXcXbXbXbXbXbXcXbXbXbXbXbXbXbXbXbXbXbXbXbXbXbXbXbXbXbX",
"bXbXbXbXbXbXbXbXbXbXbXbXbXbXbXbXvXzXvXbXbXbXbXcXbXiXcXxXbXvXbXvXbXbXbXbXcXbXbXbXcXbXcXcXcXcXcXcXbXbXbXbXbXbXbXbXbXbXbXbXbXbXbXbX",
"bXbXbXbXbXbXbXbXbXbXbXbXbXbXbXbXzXzXzXbXbXbXbXbXxXbXiXvXvXbXvXbXvXxXvXcXvXcXcXcXcXbXcXxXbXcXcXbXbXbXbXbXbXbXbXbXbXbXbXbXbXbXbXbX",
"bXbXbXbXbXbXbXbXbXbXbXbXbXbXbXbXzXzXzXbXbXbXcXcXcXxXbXbXcXxXcXxXbXbXbXbXbXbXbXzXcXbXbXxXbXdXxXbXbXbXbXbXbXbXbXbXbXbXbXbXbXbXbXbX",
"bXbXbXbXbXbXbXbXbXbXbXbXbXbXbXbXzXzXbXzXbXbXbXbXcXcXcXcXcXcXcXcXzXkXzXzXzXbXzXcXbXjXvXgXbXvXbXvXbXbXbXbXbXbXbXbXbXbXbXbXbXbXbXbX",
"bXbXbXbXbXbXbXbXbXbXbXbXbXbXbXbXzXbXbXbXcXbXcXcXxXcX< k z a u p g g a g z z z x zXkXbXbXjXdXvXvXbXbXbXbXbXbXbXbXbXbXbXbXbXbXbXbX",
"bXbXbXbXbXbXbXbXbXbXbXbXbXbXbXbXbXbXbXbXbXbXbXbXcXkX) a m p 5 N 5 b b p p f a u kXbXbXkXbXvXbXbXbXbXbXbXbXbXbXbXbXbXbXbXbXbXbXbX",
"bXbXbXbXbXbXbXbXbXbXbXbXbXbXbXbXbXcXbXbXbXbXbXcXc u } &.d.N.b.N.B.B.N.N.N.d.E.^.a u u c qXbXbXlXbXbXbXbXbXbXbXbXbXbXbXbXbXbXbXbX",
"bXbXbXbXbXbXbXbXbXbXbXbXbXbXbXbXbXbXbXbXbXcXcXkXl s <.q.!.m.g.J.n.M.M.M.B.B.B.N.e b f 7 kXkXkXbXbXbXbXbXbXbXbXbXbXbXbXbXbXbXbXbX",
"bXbXbXbXbXbXbXbXbXbXbXbXbXbXbXbXlXvXbXbXxXaXl l u.0.V.V.v.F.D.G.A.n.A.n.n.n.D.C.J.m.q.*.v v cXbXbXbXbXbXbXbXbXbXbXbXbXbXbXbXbXbX",
"bXbXbXbXbXbXbXbXbXbXbXbXbXbXbXbXvXeXbXcXcXcXt b y.0.v.M.v.F.k.k.l.l.A.l.A.Z.Z.Z.h.H.e.q.N i cXcXbXbXbXbXbXbXbXbXbXbXbXbXbXbXbXbX",
"bXbXbXbXbXbXbXbXbXbXbXbXbXbXbXbXvXvXvXjXaXsXl m `.V.~.D.C.Z.C.k.l.l.l.A.A.A.Z.Z.S.k.c.b.b i cXxXbXbXbXbXbXbXbXbXbXbXbXbXbXbXbXbX",
"bXbXbXbXbXbXbXbXbXbXbXbXbXbXbXbXeXvXbXxXcXcXt m d.b.x.v.h.Z.S.H.l.l.l.l.A.Z.Z.Z.Z.Z.J.`.5 M aXcXbXbXbXbXbXbXbXbXbXbXbXbXbXbXbXbX",
"bXbXbXbXbXbXbXbXbXbXbXbXbXbXbXbXbXbXbXbXY R ).#Xd.`.V.J.G.C.k.h.l.l.l.l.F.Z.Z.Z.z.Z.c.B.,.:.v k bXbXbXbXbXbXbXbXbXbXbXbXbXbXbXbX",
"bXbXbXbXbXbXbXbXbXbXbXbXbXbXbXbXjXpXbXcX, 3 #X$Xd.`.B.v.D.C.Z.Z.l.l.l.A.C.Z.Z.Z.z.F.C.B.;.u.t x cXbXbXbXbXbXbXbXbXbXbXbXbXbXbXbX",
"bXbXbXbXbXbXbXbXbXbXbXbXbXbXbXbXbXcX, I | | t.t.3X=X[.M.D.C.S.Z.S.l.S.l.Z.Z.Z.Z.H.j.D.B.0.y.l h bXbXbXbXbXbXbXbXbXbXbXbXbXbXbXbX",
"bXbXbXbXbXbXbXbXbXbXbXbXbXbXbXbXcXxXI ^ ^ | a. .3X,X`.m.M.A.A.k.l.l.A.A.C.Z.Z.Z.j.Z.F.x.i.-.s v bXbXbXbXbXbXbXbXbXbXbXbXbXbXbXbX",
"bXbXbXbXbXbXbXbXbXbXbXbXbXbXbXbXx Y iX6X7X7X .t.3X3X1.0.~.h.l.k.A.A.A.A.D.A.D.S.F.C.f.5.0.-.m i bXbXbXbXbXbXbXbXbXbXbXbXbXbXbXbX",
"bXbXbXbXbXbXbXbXbXbXbXbXbXbXbXbXY 3 sXsX6X7Xa.a.3X3X0.5.g.m.~.~.A.A.n.n.n.n.A.A.Z.j.#.@.0.-.m i cXbXbXbXbXbXbXbXbXbXbXbXbXbXbXbX",
"bXbXbXbXbXbXbXbXbXbXbXbXbXbXbXbX2 Y 6X6XsXsXoX;X=.s.%.e.f.e.@.@.#.#.#.3.3.3.4.4.4.f.5.7.i.u.s j bXbXbXbXbXbXbXbXbXbXbXbXbXbXbXbX",
"bXbXbXbXbXbXbXbXbXbXbXbXbXbXbXbX! I sXiX6X7X;X#Xy.,.0.0.@.2.#.e.4.4.9.3.9.8.9.4.4.5.3.1.,.y.y k kXbXbXbXbXbXbXbXbXbXbXbXbXbXbXbX",
"bXbXbXbXbXbXbXbXbXbXbXbXbXbXbXbX2 3 -X-XcXsX[ W y.;.i.e.0.0.#.@.#.3.2.2.2.2.2.2.e.8.e.6.,.<.a z bXbXbXbXbXbXbXbXbXbXbXbXbXbXbXbX",
"bXbXbXbXbXbXbXbXbXbXbXbXbXbXbXbX! 2 -X-X6XsXU Q y.-.0.0.1.1.7.8.8.9.8.8.7.e.8.8.@.@.7.w.*.:.a h kXbXbXbXbXbXbXbXbXbXbXbXbXbXbXbX",
"bXbXbXbXbXbXbXbXbXbXbXbXbXbXbXbXvXcX2 ! ;X;X:XoXQ X.-.0.2.7.7.2.2.2.8.7.7.7.0.7.e.e.7.%.b s i u bXbXbXbXbXbXbXbXbXbXbXbXbXbXbXbX",
"bXbXbXbXbXbXbXbXbXbXbXbXbXbXbXbXbXbX3 I _.;X@X#XQ Q =.0.w.;.w.*.6.7.q.q.<.<.<.q.%.q.q.<.b i g u bXbXbXbXbXbXbXbXbXbXbXbXbXbXbXbX",
"bXbXbXbXbXbXbXbXbXbXbXbXbXbXbXbXcXxXbXzX1 1 x h U U U U a a d 8 8 N p s l l i s b p 5 Q M { g d bXbXbXbXbXbXbXbXbXbXbXbXbXbXbXbX",
"bXbXbXbXbXbXbXbXbXbXbXbXbXbXbXbXcXbXbXyX1 1 1 c k E > 2 k u d 7 f 0 a l l h v a f b s a { / : S bXbXbXbXbXbXbXbXbXbXbXbXbXbXbXbX",
"bXbXbXbXbXbXbXbXbXbXbXbXbXbXbXbXcXbXzXzX' ' ~ ' $ @ /./.v ] d 9 P P f 7 ] _ H H +.&.L _ g : rXrXbXbXbXbXbXbXbXbXbXbXbXbXbXbXbXbX",
"bXbXbXbXbXbXbXbXbXbXbXbXbXbXbXbXbXbXzXzXF F ) ) * O )./.( / 8 8 P P 0 f P P J +.H O.H K g : rXrXzXbXbXbXbXbXbXbXbXbXbXbXbXbXbXbX",
"bXbXbXbXbXbXbXbXbXbXbXbXbXbXbXbXvXxXbXzXF ] /.OXO o 2X3X X^.G r |.W.'.'.9 w J V A O.n f + X uXuXbXbXbXbXbXbXbXbXbXbXbXbXbXbXbXbX",
"bXbXbXbXbXbXbXbXbXbXbXbXbXbXbXbXbXvXbXyX' ]  X+X% @ 0X3X X'.r 6 }.Q.}..X6 9 O.O.O.+.9 7 o   zXlXbXbXbXbXbXbXbXbXbXbXbXbXbXbXbXbX",
"bXbXbXbXbXbXbXbXbXbXbXbXbXbXbXbXbXcXkX0X/.^.,X&X3X5X3X<X*X=X].].Q.}.'.'.r r Z H H K g T aXcXbXjXbXbXbXbXbXbXbXbXbXbXbXbXbXbXbXbX",
"bXbXbXbXbXbXbXbXbXbXbXbXbXbXbXbXfXbXkXwX$X X,X1X*X<X&X1X*X=XXXXX!.Q.{.'.r 9 P H P ] h 3 cXcXbXbXbXbXbXbXbXbXbXbXbXbXbXbXbXbXbXbX",
"bXbXbXbXbXbXbXbXbXbXbXbXbXbXbXbXbXvXzXkX0XyX_ L *X1X<X*X'.|.].].!.{.q n H P % O O o aXcXcXsXcXkXbXbXbXbXbXbXbXbXbXbXbXbXbXbXbXbX",
"bXbXbXbXbXbXbXbXbXbXbXbXbXbXbXbXlXvXbXzXwX3X_ v 1X1X1X&X.X}.].XX!.!.q q +.P & + # X cXcXcXbXcXbXbXbXbXbXbXbXbXbXbXbXbXbXbXbXbXbX",
"bXbXbXbXbXbXbXbXbXbXbXbXbXbXbXbXbXbXlXyXyXzX0XuX_ M _ L g L '.}.q w q q w w P.T.; d zXbXcXcXyXuXbXbXbXbXbXbXbXbXbXbXbXbXbXbXbXbX",
"bXbXbXbXbXbXbXbXbXbXbXbXbXbXbXbXbXbXcXbXbXkX0X5XF / K L ] L OX}.q 6 w q 6 B Y.Y.B ; rXkXqXzXzXuXbXbXbXbXbXbXbXbXbXbXbXbXbXbXbXbX",
"bXbXbXbXbXbXbXbXbXbXbXbXbXbXbXbXbXbXvXbXlXtXzXzX0X0XM M +XOX+X XR.T.Z A I.I.K.K.P.T.S D uXzXyXuXzXbXbXbXbXbXbXbXbXbXbXbXbXbXbXbX",
"bXbXbXbXbXbXbXbXbXbXbXbXbXbXbXbXkXbXvXvXvXlXbXyXkX9XM M OX+X_._.E.W.J J I.K.L.L.I.P.S : lXbXlXlXbXbXbXbXbXbXbXbXbXbXbXbXbXbXbXbX",
"bXbXbXbXbXbXbXbXbXbXbXbXbXbXbXbXcXbXvXvXhXhXvXzX: v { >.W x ! Y D d o = V o.L.L.C A = X cXiXvXhXbXbXbXbXbXbXbXbXbXbXbXbXbXbXbXbX",
"bXbXbXbXbXbXbXbXbXbXbXbXbXbXbXcXkXbXlXvXhXhXlXbX~ a >.{ l T I I 4 D o O O.o.L.L.C C = X bXbXgXvXbXbXbXbXbXbXbXbXbXbXbXbXbXbXbXbX",
"bXbXbXbXbXbXbXbXbXbXbXbXbXbXbXbXcXcXcXbXfXfXlXtXD j r.{ R R $ $ ~ u d S o % C o.I.R.o X vXxXbXcXbXbXbXbXbXbXbXbXbXbXbXbXbXbXbXbX",
"bXbXbXbXbXbXbXbXbXbXbXbXbXbXbXbXcXcXbXlXlXvXbXzXc z  .} [ E $ $ k d D S = @ $.J U.R.+ X zXbXxXcXbXbXbXbXbXbXbXbXbXbXbXbXbXbXbXbX",
"bXbXbXbXbXbXbXbXbXbXbXbXbXbXbXbXxXcXbXvXbXlXyXkX{ [  .:. .[     2X2X>X<X. & R.T.J ] . X zXbXpXcXbXbXbXbXbXbXbXbXbXbXbXbXbXbXbXbX",
"bXbXbXbXbXbXbXbXbXbXbXbXbXbXbXbXbXbXbXfXlXbX2XwX` { W Q  .|     >X<X5X<Xo O s.'.G K = X 4XlXlXbXbXbXbXbXbXbXbXbXbXbXbXbXbXbXbXbX",
"bXbXbXbXbXbXbXbXbXbXbXbXbXbXbXbXvXvXvXbXbXkX[ W :.=.Q W  .|     +X(.(.(.. O & % % & 1 ! zXzXzX8XbXbXbXbXbXbXbXbXbXbXbXbXbXbXbXbX",
"bXbXbXbXbXbXbXbXbXbXbXbXbXbXbXbXhXvXfXvXkXcXj y =.=.m m ( ~     (.(.(.%X. + O * * * 3 x 8XlXzXzXbXbXbXbXbXbXbXbXbXbXbXbXbXbXbXbX",
"bXbXbXbXbXbXbXbXbXbXbXbXbXbXbXbXfXvXvXbXzX9X* & =.>.=.{ p...4 D X o     x h l [ v k ! ! vXlXbXyXbXbXbXbXbXbXbXbXbXbXbXbXbXbXbXbX",
"bXbXbXbXbXbXbXbXbXbXbXbXbXbXbXbXvXvXbXjXbXaXO % { >.r.{ ..( 1 D . # X X ! Y ~ R [ ^ 4 3 zXcXzXbXbXbXbXbXbXbXbXbXbXbXbXbXbXbXbXbX",
"bXbXbXbXbXbXbXbXbXbXbXbXbXbXbXbXbXbXbXbXbXkXkXkXO * % O * o zXbXkXkXbXbXqXbX. O O . cXdXbXbXxXcXbXbXbXbXbXbXbXbXbXbXbXbXbXbXbXbX",
"bXbXbXbXbXbXbXbXbXbXbXbXbXbXbXbXbXbXbXbXbXzXzXzXo @ O o o - 2XkXcXcXjXvXbXqX, o o , 8XbXbXjXcXbXbXbXbXbXbXbXbXbXbXbXbXbXbXbXbXbX",
"bXbXbXbXbXbXbXbXbXbXbXbXbXbXbXbXbXcXbXbXbXbXlXbXbXqXkXbXwXwXcXcXcXcXcXvXbXzX5XzXzX9XlXbXvXcXbXpXbXbXbXbXbXbXbXbXbXbXbXbXbXbXbXbX",
"bXbXbXbXbXbXbXbXbXbXbXbXbXbXbXbXcXkXbXbXbXzXbXzXzXlXbXbXwXcXaXcXsXcXvXbXzXeXbXkXzXzXeXbXvXvXbXsXbXbXbXbXbXbXbXbXbXbXbXbXbXbXbXbX",
"bXbXbXbXbXbXbXbXbXbXbXbXbXbXbXbXbXcXbXbXzXbXbXvXfXhXbXbXbXcXkXkXbXcXgXlXvXzXbXzXbXbXzXvXlXeXbXcXbXbXbXbXbXbXbXbXbXbXbXbXbXbXbXbX",
"bXbXbXbXbXbXbXbXbXbXbXbXbXbXbXbXzXbXzXbXbXbXbXvXvXbXdXdXbXbXbXcXkXlXbXvXhXbXcXcXbXjXlXlXbXbXkXkXbXbXbXbXbXbXbXbXbXbXbXbXbXbXbXbX",
"bXbXbXbXbXbXbXbXbXbXbXbXbXbXbXbXvXzXbXbXbXbXbXbXdXbXvXbXvXiXjXbXbXyXvXfXhXbXbXcXcXbXvXvXlXlXrXzXbXbXbXbXbXbXbXbXbXbXbXbXbXbXbXbX",
"bXbXbXbXbXbXbXbXbXbXbXbXbXbXbXbXbXvXbXbXbXbXbXbXbXbXgXvXvXbXbXbXbXlXbXdXvXhXbXbXcXbXlXzXlXzXrXzXbXbXbXbXbXbXbXbXbXbXbXbXbXbXbXbX"
};
