/* XPM */
static char *result[] = {
/* columns rows colors chars-per-pixel */
"64 64 240 2 ",
"   c #050300",
".  c #0C0201",
"X  c #0B0109",
"o  c #130200",
"O  c #1B0001",
"+  c #140C01",
"@  c #1D070A",
"#  c #191208",
"$  c #110311",
"%  c #220200",
"&  c #280703",
"*  c #240D00",
"=  c #231207",
"-  c #3D2B10",
";  c #311827",
":  c #312C2B",
">  c #392828",
",  c #372936",
"<  c #3B2D33",
"1  c #2F333A",
"2  c #3A3133",
"3  c #37363A",
"4  c #3B333C",
"5  c #4B1E17",
"6  c #581B16",
"7  c #611F1B",
"8  c #472401",
"9  c #552A07",
"0  c #5B2E00",
"q  c #5A3703",
"w  c #5B2719",
"e  c #483312",
"r  c #5D331C",
"t  c #623603",
"y  c #65291B",
"u  c #643719",
"i  c #441B20",
"p  c #651E25",
"a  c #41292D",
"s  c #4A2828",
"d  c #4C2C2E",
"f  c #572728",
"g  c #532B2D",
"h  c #483527",
"j  c #593628",
"k  c #412F34",
"l  c #4B2B33",
"z  c #562B35",
"x  c #473637",
"c  c #553837",
"v  c #51333C",
"b  c #632B29",
"n  c #69362B",
"m  c #652B34",
"M  c #693736",
"N  c #763A3C",
"B  c #6F4E05",
"V  c #744F16",
"C  c #765614",
"Z  c #45403B",
"A  c #594B37",
"S  c #6E4425",
"D  c #784928",
"F  c #7B532D",
"G  c #6A4735",
"H  c #744939",
"J  c #6D5639",
"K  c #7C543A",
"L  c #796230",
"P  c #383944",
"I  c #572F42",
"U  c #483947",
"Y  c #5A3A43",
"T  c #673645",
"R  c #793D4E",
"E  c #4C4743",
"W  c #59474A",
"Q  c #524B57",
"!  c #6A4947",
"~  c #7A4947",
"^  c #67524C",
"/  c #795548",
"(  c #6A5459",
")  c #785756",
"_  c #726447",
"`  c #575260",
"'  c #685B66",
"]  c #775D61",
"[  c #79646A",
"{  c #6D6573",
"}  c #706271",
"|  c #85580F",
" . c #856019",
".. c #81542C",
"X. c #854F33",
"o. c #865737",
"O. c #A94F3E",
"+. c #B64E3F",
"@. c #AD523F",
"#. c #B3513F",
"$. c #C0473B",
"%. c #844A4C",
"&. c #8D4E4E",
"*. c #9B4C48",
"=. c #9A534D",
"-. c #8C5555",
";. c #985456",
":. c #9C5B5B",
">. c #A64B46",
",. c #AC4E4C",
"<. c #B64C45",
"1. c #BB4A4C",
"2. c #AC5444",
"3. c #A7554B",
"4. c #AE514C",
"5. c #B85549",
"6. c #A54E58",
"7. c #B44B57",
"8. c #BB4952",
"9. c #A85857",
"0. c #B45955",
"q. c #896452",
"w. c #AE6259",
"e. c #885C62",
"r. c #9B5962",
"t. c #A35C63",
"y. c #A75A67",
"u. c #83676C",
"i. c #976265",
"p. c #A46163",
"a. c #B56261",
"s. c #BF7676",
"d. c #CA544D",
"f. c #D2655C",
"g. c #DE6C5D",
"h. c #E46B5C",
"j. c #E8695A",
"k. c #F16F5F",
"l. c #E4725D",
"z. c #E9705E",
"x. c #C96D6A",
"c. c #D86B64",
"v. c #C67A6C",
"b. c #DD7364",
"n. c #DC736C",
"m. c #D6786B",
"M. c #CA7874",
"N. c #D67773",
"B. c #E06461",
"V. c #E56E64",
"C. c #EB6E62",
"Z. c #F26B63",
"A. c #E47264",
"S. c #EB7564",
"D. c #E4716A",
"F. c #EA786B",
"G. c #F37A69",
"H. c #E67574",
"J. c #B38825",
"K. c #BC942A",
"L. c #BB9837",
"P. c #C1972B",
"I. c #C2973A",
"U. c #B39746",
"Y. c #AC8553",
"T. c #9B8E76",
"R. c #AB946E",
"E. c #B78777",
"W. c #BEA37F",
"Q. c #C39058",
"!. c #C49869",
"~. c #C89E79",
"^. c #D79077",
"/. c #CBA26B",
"(. c #CAA476",
"). c #D5A777",
"_. c #8E7581",
"`. c #CB7E86",
"'. c #D27E88",
"]. c #B28A8D",
"[. c #B89C93",
"{. c #BFAB85",
"}. c #A995A1",
"|. c #BCA3A4",
" X c #B2A7B9",
".X c #D78E83",
"XX c #C69C84",
"oX c #C39E94",
"OX c #E68B82",
"+X c #CBA481",
"@X c #D5A885",
"#X c #C9A696",
"$X c #D6B19A",
"%X c #E2AA98",
"&X c #CA98A8",
"*X c #C7A8A7",
"=X c #D6A6AD",
"-X c #D3B5A8",
";X c #C8A8B4",
":X c #CEB1B1",
">X c #E9A7B4",
",X c #FBBDB6",
"<X c #DFC8BA",
"1X c #E9C7B4",
"2X c #FCD4B9",
"3X c #B8B4C4",
"4X c #C4B8CE",
"5X c #D5B6C9",
"6X c #DFCAC0",
"7X c #E6CBC9",
"8X c #F7CAC4",
"9X c #F9D3C8",
"0X c #ECDBD1",
"qX c #FED5D3",
"wX c #F9D9D4",
"eX c #FFF3C5",
"rX c #FDE9D4",
"tX c #FFF5DD",
"yX c #E9DAE5",
"uX c #F7DDF2",
"iX c #EBE8ED",
"pX c #FCEAE7",
"aX c #F3ECEE",
"sX c #E9F1EB",
"dX c #FFF4E5",
"fX c #F5F3EE",
"gX c #FDF3EC",
"hX c #FFFCEC",
"jX c #EBE6F2",
"kX c #FEEDF3",
"lX c #F7EAF9",
"zX c #EDF9F6",
"xX c #F4F4F3",
"cX c #FCF4F4",
"vX c #F4F9F4",
"bX c #FEFCF5",
"nX c #F5F4FB",
"mX c #FDF5FA",
"MX c #F5FDFD",
"NX c #FFFFFF",
/* pixels */
"NXNXNXNXNXNXNXNXNXNXNXNXNXNXNXNXNXNXNXNXNXMXMXNXNXNXNXNXNXNXNXNXNXNXNXNXNXNXNXNXNXNXNXNXNXNXNXNXNXNXNXNXNXNXNXNXNXNXNXNXNXNXNXNX",
"NXNXNXNXNXNXNXNXNXNXNXNXNXNXNXNXNXMXNXMXNXNXNXNXNXNXNXNXNXNXNXbXNXNXmXNXNXNXbXNXNXNXNXNXNXNXNXmXNXNXNXNXNXNXNXNXNXNXNXNXNXNXNXNX",
"NXNXNXNXNXNXNXNXNXNXNXNXNXNXNXNXNXNXNXNXNXNXNXNXNXNXNXNXNXNXMXNXNXNXMXNXNXNXNXNXNXNXNXNXNXNXNXNXNXNXNXNXNXNXNXNXNXNXNXNXNXNXNXNX",
"NXNXNXNXNXNXNXNXNXNXNXNXNXNXNXNXNXNXNXNXNXNXNXMXNXNXMXNXNXNXNXNXNXNXNXNXNXNXNXNXNXNXNXNXNXNXNXNXNXNXNXNXNXNXNXNXNXNXNXNXNXNXNXNX",
"NXNXNXNXNXNXNXNXNXNXNXNXNXNXNXNXNXNXNXNXNXNXNXNXNXNXNXNXNXNXNXNXNXNXNXNXmXNXMXNXNXNXNXNXNXNXNXNXNXNXNXNXNXNXNXNXNXNXNXNXNXNXNXNX",
"NXNXNXNXNXNXNXNXNXNXNXNXNXNXNXNXNXNXNXNXNXNXNXNXNXNXNXNXNXMXMXNXNXNXMXNXNXNXNXNXNXNXNXMXMXNXNXNXNXNXNXNXNXNXNXNXNXNXNXNXNXNXNXNX",
"NXNXNXNXNXNXNXNXNXNXNXNXNXNXNXNXNXNXNXNXNXNXNXNXNXNXNXMXNXNXNXNXNXNXNXNXNXNXNXNXNXNXNXNXNXNXNXNXNXNXNXNXNXNXNXNXNXNXNXNXNXNXNXNX",
"NXNXNXNXNXNXNXNXNXNXNXNXNXNXNXNXNXNXNXNXNXNXNXNXNXNXNXNXNXNXMXNXbXNXNXbXNXNXMXNXNXNXNXNXMXNXMXNXNXNXNXNXNXNXNXNXNXNXNXNXNXNXNXNX",
"NXNXNXNXNXNXNXNXNXNXNXNXNXNXNXNXNXNXNXNXNXNXNXNXNXNXNXNXNXnXNXNXNXNXNXNXNXNXNXNXbXMXNXNXNXMXNXNXNXNXNXNXNXNXNXNXNXNXNXNXNXNXNXNX",
"NXNXNXNXNXNXNXNXNXNXNXNXNXNXNXNXNXNXNXNXNXNXNXNXmXNXbXNXbXNXNXbXNXNXNXNXNXNXNXNXNXNXNXNXNXMXNXNXNXNXNXNXNXNXNXNXNXNXNXNXNXNXNXNX",
"NXNXNXNXNXNXNXNXNXNXNXNXNXNXNXNXNXNXNXNXNXNXNXNXNXNXxXNXaXNXmXNXNXNXmXNXNXNXNXNXNXbXNXNXNXNXNXNXNXNXNXNXNXNXNXNXNXNXNXNXNXNXNXNX",
"NXNXNXNXNXNXNXNXNXNXNXNXNXNXNXNXNXNXNXNXNXNXNXNXbXnXNXNXNXNXmXmXNXmXNXNXNXNXNXNXNXMXNXNXNXNXNXNXNXNXNXNXNXNXNXNXNXNXNXNXNXNXNXNX",
"NXNXNXNXNXNXNXNXNXNXNXNXNXNXNXNXMXNXNXNXNXNXNXNXmXNXmXxXmXaXmXNXmXmXmXmXmXmXmXmXmXNXNXNXNXNXNXNXNXNXNXNXNXNXNXNXNXNXNXNXNXNXNXNX",
"NXNXNXNXNXNXNXNXNXNXNXNXNXNXNXNXNXNXMXNXNXNXNXNXxXNXaXmXNXcXNXmXNXmXNXNXNXNXNXNXmXNXmXNXNXNXNXNXNXNXNXNXNXNXNXNXNXNXNXNXNXNXNXNX",
"NXNXNXNXNXNXNXNXNXNXNXNXNXNXNXNXNXMXNXMXNXNXNXNXbXfXE < < > < 4 < < 2 < < 2 < 2 NXNXNXNXmXNXNXNXNXNXNXNXNXNXNXNXNXNXNXNXNXNXNXNX",
"NXNXNXNXNXNXNXNXNXNXNXNXNXNXNXNXNXMXNXNXNXMXNXNXNXmX> l g c g g g g g g g g d d mXmXmXNXNXNXNXNXNXNXNXNXNXNXNXNXNXNXNXNXNXNXNXNX",
"NXNXNXNXNXNXNXNXNXNXNXNXNXNXNXNXbXbXNXMXMXNXMXmXk s -.p.v.^.x.m.!.v.m.n.n.N.M.^.z c a > NXkXNXxXNXNXNXNXNXNXNXNXNXNXNXNXNXNXNXNX",
"NXNXNXNXNXNXNXNXNXNXNXNXNXNXNXNXNXvXsXNXsXMXNXpXs w =.2.c.A.V.S.c.b.A.Z.Z.V.n.M.y f g v kXmXmXNXNXNXNXNXNXNXNXNXNXNXNXNXNXNXNXNX",
"NXNXNXNXNXNXNXNXNXNXNXNXNXNXNXNXbXMXNXNXNXmX, l i.;.M.n.n.b.g.l.m.b.C.C.Z.V.b.v.M.].-.) z > NXmXNXNXNXNXNXNXNXNXNXNXNXNXNXNXNXNX",
"NXNXNXNXNXNXNXNXNXNXNXNXNXNXNXNXNXMXxXvXmXmXv m ;.6.x.c.b.A.A.F.b.b.V.Z.Z.V.b.m.x.v.p.i.z l mXNXNXNXNXNXNXNXNXNXNXNXNXNXNXNXNXNX",
"NXNXNXNXNXNXNXNXNXNXNXNXNXNXNXNXzXNXNXNXmXlXz p '.x.'.H.S.g.l.h.b.b.C.k.k.C.A.b.m.m.M.s.p l kXnXNXNXNXNXNXNXNXNXNXNXNXNXNXNXNXNX",
"NXNXNXNXNXNXNXNXNXNXNXNXNXNXNXNXvXzXnXlXmXmXT m '.x.D.B.A.g.S.l.b.A.V.C.C.z.l.b.b.m.N.'.p f mXmXNXNXNXNXNXNXNXNXNXNXNXNXNXNXNXNX",
"NXNXNXNXNXNXNXNXNXNXNXNXNXNXNXNXMXNXNXmXU I &X>X.XN.n.A.F.A.G.A.A.D.V.C.z.z.l.l.C.c.F.n.y.e.< : NXNXNXNXNXNXNXNXNXNXNXNXNXNXNXNX",
"NXNXNXNXNXNXNXNXNXNXNXNXNXNXNXNXNXnXmXlXP I &X=X`.M.N.D.F.h.S.h.C.V.A.C.z.l.l.l.j.C.Z.H.>.r.l x NXNXNXNXNXNXNXNXNXNXNXNXNXNXNXNX",
"NXNXNXNXNXNXNXNXNXNXNXNXNXNXNXNXNXnX4 , ' ' u.e.qX,XOXD.b.j.G.h.A.A.V.C.D.A.l.z.j.k.j.B.7.:.l 4 NXNXNXNXNXNXNXNXNXNXNXNXNXNXNXNX",
"NXNXNXNXNXNXNXNXNXNXNXNXNXNXNXNXnXmX4 P } Q [ ] qXqXa.c.b.V.j.B.A.D.D.D.D.A.A.l.k.k.j.j.0.t.g < NXNXNXNXNXNXNXNXNXNXNXNXNXNXNXNX",
"NXNXNXNXNXNXNXNXNXNXNXNXNXNXNXNX4 , jXjXjXnX' u.qXrX*.0.f.F.V.F.A.D.A.D.D.D.A.l.k.z.d.d.7.r.g k mXNXNXNXNXNXNXNXNXNXNXNXNXNXNXNX",
"NXNXNXNXNXNXNXNXNXNXNXNXNXNXNXNX, U lXlXlXuX[ u.qXqXw.0.f.c.f.b.D.b.D.D.H.n.n.b.z.d.$.+.>.9.g k mXNXNXNXNXNXNXNXNXNXNXNXNXNXNXNX",
"NXNXNXNXNXNXNXNXNXNXNXNXNXNXNXNXP U jXjXjXlX|.;Xi.9.*.O.>.d.<.d.#.<.<.1.8.8.1.<.5.d.+.5.9.t.f a bXNXNXNXNXNXNXNXNXNXNXNXNXNXNXNX",
"NXNXNXNXNXNXNXNXNXNXNXNXNXNXNXNX4 P jXmXuXlX5X&Xr.;.a.0.,.,.>.>.#.#.<.8.8.7.7.4.O.5.@.5.,.9.f l NXNXNXNXNXNXNXNXNXNXNXNXNXNXNXNX",
"NXNXNXNXNXNXNXNXNXNXNXNXNXNXNXNX3 P 3X XuXuXT R r.6.0.,.4.>.0.0.@.@.1.1.7.7.,.6.2.2.O.2.*.;.f c mXNXNXNXNXNXNXNXNXNXNXNXNXNXNXNX",
"NXNXNXNXNXNXNXNXNXNXNXNXNXNXNXNX1 1 3X3XuXlXT T r.y.*.6.9.3.9.=.3.2.4.7.7.7.7.6.9.9.3.w.=.;.f d mXNXNXNXNXNXNXNXNXNXNXNXNXNXNXNX",
"NXNXNXNXNXNXNXNXNXNXNXNXNXNXNXNXMXnXP P 4X4X5X=Xm T ;.=.9.=.:.9.:.3.;.9.6.y.6.r.;.y.t.;.n b 5 j bXNXNXNXNXNXNXNXNXNXNXNXNXNXNXNX",
"NXNXNXNXNXNXNXNXNXNXNXNXNXNXNXNXzXnXP P  X4X X5XT ~ &.-.p.;.&.&.;.-.r.t.;.y.y.y.y.;.%.%.f M f s NXNXNXNXNXNXNXNXNXNXNXNXNXNXNXNX",
"NXNXNXNXNXNXNXNXNXNXNXNXNXNXNXNXNXMXnXmX; , Y , v z f f f m f b n w 7 7 7 7 p 6 6 n j M H ~ f h bXNXNXNXNXNXNXNXNXNXNXNXNXNXNXNX",
"NXNXNXNXNXNXNXNXNXNXNXNXNXNXNXNXxXNXNXmXk I k v v l A T i z f M w j y w y y y n u y 6 r / ! A h NXNXNXNXNXNXNXNXNXNXNXNXNXNXNXNX",
"NXNXNXNXNXNXNXNXNXNXNXNXNXNXNXNXNXNXmXgXc ! c ! @ @ _.}.! ! f 5 K %.w w X.X...D o.S q.H 5 j pXbXNXNXNXNXNXNXNXNXNXNXNXNXNXNXNXNX",
"NXNXNXNXNXNXNXNXNXNXNXNXNXNXNXNXnXNXbXgX) / / ! @ X }.}.W ) f j K ~ 9 r D X.X...F S K J h h hXdXNXNXNXNXNXNXNXNXNXNXNXNXNXNXNXNX",
"NXNXNXNXNXNXNXNXNXNXNXNXNXNXNXNXNXNXbXdXj S oXoXO @ yXyX*X[.r y XX$X~.~.u 9 D o.F q.r h # + pXMXNXNXNXNXNXNXNXNXNXNXNXNXNXNXNXNX",
"NXNXNXNXNXNXNXNXNXNXNXNXNXNXNXNXNXmXgXgXn H -XoXO % yX7X=X#X8 t ).+X(.$X9 9 o.H H _ - h . . hXMXbXNXNXNXNXNXNXNXNXNXNXNXNXNXNXNX",
"NXNXNXNXNXNXNXNXNXNXNXNXNXNXNXNXNXbXgX0X-X@X1X2XqX6X7XwX,X2X)./.).(.#X(.r w H / ) ! x > bXbXMXNXNXNXNXNXNXNXNXNXNXNXNXNXNXNXNXNX",
"NXNXNXNXNXNXNXNXNXNXNXNXNXNXNXNXNXNXgXdX1X#X2X9X7XqX8X8X9X2X^.).(.).(.(.9 u K q.! G A x bXvXbXbXNXNXNXNXNXNXNXNXNXNXNXNXNXNXNXNX",
"NXNXNXNXNXNXNXNXNXNXNXNXNXNXNXNXnXNXaXdXgXdX_ G qX8X9X2XXX.X).).).!.q r D F & O % o pXgXbXNXMXzXNXNXNXNXNXNXNXNXNXNXNXNXNXNXNXNX",
"NXNXNXNXNXNXNXNXNXNXNXNXNXNXNXNXNXNXNXfXhXgXc A 8X8X8X,X%X~.@X/.)./.0 0 ....& # & & dXbXbXxXNXnXNXNXNXNXNXNXNXNXNXNXNXNXNXNXNXNX",
"NXNXNXNXNXNXNXNXNXNXNXNXNXNXNXNXNXNXsXbXfXbXbXgX! R %.N H S #X@X0 q 0 t 9 t Y.!.8 8 tXhXfXsXNXMXNXNXNXNXNXNXNXNXNXNXNXNXNXNXNXNX",
"NXNXNXNXNXNXNXNXNXNXNXNXNXNXNXNXmXbXxXMXvXvXNXgX! M M N ~ G -X{.t q 0 0 t t L.L.q q eXeXhXbXNXMXNXNXNXNXNXNXNXNXNXNXNXNXNXNXNXNX",
"NXNXNXNXNXNXNXNXNXNXNXNXNXNXNXNXgXbXNXzXMXMXjXNXkXpXR N =X&X:X*XY.Q. .| I.@.P.P.L.U.q e dXvXNXMXNXNXNXNXNXNXNXNXNXNXNXNXNXNXNXNX",
"NXNXNXNXNXNXNXNXNXNXNXNXNXNXNXNXbXbXzXMXzXMXMXmXkXkXM ! =X:X|.*XE.R.| | I.P.P.P.L.U.e - hXbXnXNXNXNXNXNXNXNXNXNXNXNXNXNXNXNXNXNX",
"NXNXNXNXNXNXNXNXNXNXNXNXNXNXNXNXbXMXNXMXNXNXNXmX< v ) ( O o h c - A * % I.P.J.L.C V & o bXcXNXMXNXNXNXNXNXNXNXNXNXNXNXNXNXNXNXNX",
"NXNXNXNXNXNXNXNXNXNXNXNXNXNXNXNXNXMXMXNXNXNXNXNXW 4 W ^ o # A > 3 E . = U.J.P.K.C F * o cXmXiXNXNXNXNXNXNXNXNXNXNXNXNXNXNXNXNXNX",
"NXNXNXNXNXNXNXNXNXNXNXNXNXNXNXNXbXMXMXNXNXNXNXmX2 < # o 6X<X7X0X3 3 + + C C C  .Y.{.o = bXxXbXmXNXNXNXNXNXNXNXNXNXNXNXNXNXNXNXNX",
"NXNXNXNXNXNXNXNXNXNXNXNXNXNXNXNXMXNXNXNXNXNXNXNXE E o . wXrX1X7X3 P + + L L B L Y.W.. o gXcXcXbXNXNXNXNXNXNXNXNXNXNXNXNXNXNXNXNX",
"NXNXNXNXNXNXNXNXNXNXNXNXNXNXNXNXNXNXNXNXNXNXNXNXU 2 o o [.#X-X#XE P 1 Z + o +XT.J _ + # hXbXcXNXNXNXNXNXNXNXNXNXNXNXNXNXNXNXNXNX",
"NXNXNXNXNXNXNXNXNXNXNXNXNXNXNXNXNXNXmXNXNXMXNXNX: Z o # -X[.oX[.Q Q P 1 # + ].T.A A     bXbXcXbXNXNXNXNXNXNXNXNXNXNXNXNXNXNXNXNX",
"NXNXNXNXNXNXNXNXNXNXNXNXNXNXNXNXNXmXNXNXMXNXNXMXbXbXZ > O % O & ( ` { ' X . .   #   hXhXfXbXbXmXNXNXNXNXNXNXNXNXNXNXNXNXNXNXNXNX",
"NXNXNXNXNXNXNXNXNXNXNXNXNXNXNXNXmXNXNXNXNXMXNXMXsXbXx h O O & & ( ' ` { X X X       hXhXhXbXnXNXNXNXNXNXNXNXNXNXNXNXNXNXNXNXNXNX",
"NXNXNXNXNXNXNXNXNXNXNXNXNXNXNXNXNXmXNXNXNXNXMXNXvXbX. O ^ / -.) ) [ x U ; X NXiXbXbXbXhXbXbXNXNXNXNXNXNXNXNXNXNXNXNXNXNXNXNXNXNX",
"NXNXNXNXNXNXNXNXNXNXNXNXNXNXNXNXmXNXNXNXNXMXMXMXNXvX# . W ] ^ ) ) ^ Y x X $ lXNXNXbXbXbXbXNXMXNXNXNXNXNXNXNXNXNXNXNXNXNXNXNXNXNX",
"NXNXNXNXNXNXNXNXNXNXNXNXNXNXNXNXmXNXNXmXNXNXMXNXvXbXxXcXo o O O O & o & mXmXNXnXbXbXbXbXNXbXMXNXNXNXNXNXNXNXNXNXNXNXNXNXNXNXNXNX",
"NXNXNXNXNXNXNXNXNXNXNXNXNXNXNXNXNXmXNXNXNXMXNXNXvXNXNXbXo @ o & % o O . aXnXxXcXmXNXNXNXNXNXNXMXNXNXNXNXNXNXNXNXNXNXNXNXNXNXNXNX",
"NXNXNXNXNXNXNXNXNXNXNXNXNXNXNXNXmXNXNXNXNXNXNXNXNXNXvXnXmXmXmXkXcXcXmXcXNXMXNXNXNXmXNXNXNXNXMXNXNXNXNXNXNXNXNXNXNXNXNXNXNXNXNXNX",
"NXNXNXNXNXNXNXNXNXNXNXNXNXNXNXNXMXNXNXNXNXNXNXNXNXnXNXmXnXjXNXNXmXNXxXvXmXbXvXxXmXNXmXmXNXNXNXNXNXNXNXNXNXNXNXNXNXNXNXNXNXNXNXNX",
"NXNXNXNXNXNXNXNXNXNXNXNXNXNXNXNXMXNXNXMXNXNXNXNXnXnXaXNXNXNXjXnXNXnXNXMXvXsXNXvXmXmXmXmXNXmXbXbXNXNXNXNXNXNXNXNXNXNXNXNXNXNXNXNX",
"NXNXNXNXNXNXNXNXNXNXNXNXNXNXNXNXNXNXNXNXNXNXNXNXNXaXNXNXnXNXnXNXmXnXMXMXzXMXMXMXNXNXmXNXNXbXbXbXNXNXNXNXNXNXNXNXNXNXNXNXNXNXNXNX"
};
