/* XPM */
static char *xpm_[] = {
/* columns rows colors chars-per-pixel */
"26 32 78 1 ",
"  c black",
". c #010101",
"X c #020202",
"o c gray1",
"O c #040404",
"+ c gray2",
"@ c #060606",
"# c #7B7B7B",
"$ c #7E7E7E",
"% c gray50",
"& c #808080",
"* c #818181",
"= c gray51",
"- c #848484",
"; c gray52",
": c #898989",
"> c #8B8B8B",
", c gray55",
"< c #8D8D8D",
"1 c #8E8E8E",
"2 c gray56",
"3 c #909090",
"4 c gray57",
"5 c #939393",
"6 c #959595",
"7 c gray59",
"8 c #989898",
"9 c gray60",
"0 c #9A9A9A",
"q c gray62",
"w c #A0A0A0",
"e c gray63",
"r c #A2A2A2",
"t c gray64",
"y c #A7A7A7",
"u c #AAAAAA",
"i c gray68",
"p c #AFAFAF",
"a c gray70",
"s c #B9B9B9",
"d c #C1C1C1",
"f c #C6C6C6",
"g c gray78",
"h c #C8C8C8",
"j c gray79",
"k c #CBCBCB",
"l c gray80",
"z c #CDCDCD",
"x c #CECECE",
"c c gray81",
"v c #D0D0D0",
"b c gray82",
"n c #D2D2D2",
"m c LightGray",
"M c gray83",
"N c #D5D5D5",
"B c gray84",
"V c #D7D7D7",
"C c #D8D8D8",
"Z c gray85",
"A c #DADADA",
"S c gainsboro",
"D c #DDDDDD",
"F c gray87",
"G c #DFDFDF",
"H c gray91",
"J c gray92",
"K c gray93",
"L c #F6F6F6",
"P c gray97",
"I c #F8F8F8",
"U c #F9F9F9",
"Y c gray98",
"T c #FBFBFB",
"R c gray99",
"E c #FDFDFD",
"W c #FEFEFE",
"Q c white",
/* pixels */
"RRRRYRRRRRRRRRRRRRYRRRRRRR",
"RRRRRRRRRRRRRRRRRRRRRYRRRR",
"RRRRRHkmccmcmmmccMmgAYRRRR",
"RYRYRk..............=RRRRR",
"RRRYRc..............;RRRRR",
"RRHkmd8eetee0eet0et7pckARR",
"YRg..0RRRRRRRRRRRRRRMO.=RR",
"RRc..tRRRRRRRRRRRRRRA.O3RR",
"RRm..0RRRRRRRRRRRRRRA..2RR",
"RRc..eRRRRYRRRRRRRRRM..2RR",
"RRc..eRRRRRRRRRYRRRRA..2RR",
"RRc..eRRRRRKcmSYRRRRA..2RR",
"RRc..0RRRYRm..2RRRRRA..2RR",
"RRc..eRRRRRcO.>RRRRRA..2RR",
"RRm..eRRRRRS22sRRRRRA..3RR",
"RRm..eRRRRYRRRRYRRRRA..3RR",
"RRc..eRRRRRRRRRRRRRRA..2RR",
"RRc..eRRRRRRRRRRRRRRA..2RR",
"RRc..eRRRRRRRYRRRRRRM..2RR",
"RRc..eRRRRRRRRRYRRRRA..2RR",
"RRm..0RRRRYKmmSRRRRRS..2RR",
"RRc..eRRRRRcO.2RRRRRA..2RR",
"RRc..eRRRRRA..7RRRRRA..2RR",
"RRc..eRRRRRm..8RRRRRA..2RR",
"YRc..eYRYRRm..7RYRYRA..2RR",
"RRg.O2RRRRRM..2RRRRRM..$RR",
"RRM;=uASASMg;=uASSSMk>=aRR",
"RYRRRm.....7RRm.....2YRRRR",
"RRRYRk....O2RRM.....=RRRRR",
"RRRRRA#323#aYRA=322$aYRRRR",
"RRRRRRRRRRRRYYRRRRRRRRRRRR",
"RRRRRRRRRRRRRRRRRRRRRRRRRR"
};
