/* XPM */
static char *out[] = {
/* columns rows colors chars-per-pixel */
"26 32 82 1 ",
"  c black",
". c #010101",
"X c #020202",
"o c gray1",
"O c #040404",
"+ c gray2",
"@ c gray12",
"# c gray14",
"$ c #252525",
"% c #272727",
"& c #323232",
"* c gray20",
"= c #373737",
"- c #393939",
"; c gray36",
": c #5F5F5F",
"> c gray47",
", c #7E7E7E",
"< c #808080",
"1 c #818181",
"2 c gray51",
"3 c #838383",
"4 c gray52",
"5 c #888888",
"6 c gray54",
"7 c #8B8B8B",
"8 c #8D8D8D",
"9 c #8E8E8E",
"0 c gray56",
"q c #909090",
"w c gray57",
"e c #929292",
"r c #939393",
"t c gray58",
"y c #959595",
"u c gray59",
"i c #989898",
"p c #9B9B9B",
"a c gray61",
"s c #9D9D9D",
"d c gray62",
"f c #A0A0A0",
"g c gray66",
"h c #AFAFAF",
"j c gray70",
"k c #B7B7B7",
"l c #BCBCBC",
"z c gray77",
"x c #C5C5C5",
"c c gray78",
"v c #CACACA",
"b c gray80",
"n c #CECECE",
"m c gray81",
"M c #D0D0D0",
"N c gray82",
"B c #D2D2D2",
"V c LightGray",
"C c gray83",
"Z c #D5D5D5",
"A c gray84",
"S c #D7D7D7",
"D c #D8D8D8",
"F c #DADADA",
"G c gray86",
"H c gainsboro",
"J c #DDDDDD",
"K c gray87",
"L c gray88",
"P c #E1E1E1",
"I c #E6E6E6",
"U c #E7E7E7",
"Y c #F6F6F6",
"T c gray97",
"R c #F8F8F8",
"E c #F9F9F9",
"W c gray98",
"Q c #FBFBFB",
"! c gray99",
"~ c #FDFDFD",
"^ c #FEFEFE",
"/ c white",
/* pixels */
"Q//!!E~~Q~/~^^~^W/QE~~/~//",
"//~~W!!//^^^///////^WR////",
"^/~QQj3w60wq9qw09901D//W//",
"/~/!^< .OX  .   .  oM!////",
"//^Q/q.- O X.   X@=OB/~^//",
"/!/^!y XkGJFAFHSD4. n/W///",
"~//!/6. L/^//////d. A~~^//",
"/^/W/e .D^W!~!W!/p .B/~///",
"^//^^q  F/~////~/a .B/~///",
"^//^^q  G/~////~/s .B/~///",
"^//^^q  F/!^^^^!/s .V/~///",
"///^^q  G/~////~/s .V/~///",
"///^^q  F/~//^/~/s .V/~///",
"///^^q  F/!//^^!/a  B/~///",
"///^^q  G/^////~/a  B/!///",
"///^^q  S!E!!QQE^a  B/!///",
"W/!~Q1X.N/~ET!T/!u +z/~^//",
"/~/WYKvNhwqP!!l8exNbU^/~//",
"/^/Q^///5 Ob/W7.oZ^//Q////",
"//^//QW~uX F//a  V/R!//~//",
"~///^~//0 X>is; XC/!/~////",
"^/~~//!~y % X  #.V^^//!///",
"/^//!///9X#XX .$ Z^^~^////",
"////~/!/rX.gCV, .Z/Q/^////",
"~/////~^w. H/!pX Z/^/^^^//",
"^/////^/t  M/^i +V/W~/////",
"///^/^^/wXX3sf:. A///Q/~//",
"///^/^~^r &. XX* V/R^//^//",
"^////^!!2o. X  .ov/!/!/^//",
"^////^QQFcMMbMmbxIQ/Q/////",
"//////~~/~/^/^//^/^///^///",
"//^^//^/!^~!^R^!!~//~//^//"
};
