/* XPM */
static char *out[] = {
/* columns rows colors chars-per-pixel */
"26 32 95 2 ",
"   c black",
".  c #010101",
"X  c #020202",
"o  c gray1",
"O  c #040404",
"+  c gray2",
"@  c #060606",
"#  c #161616",
"$  c gray12",
"%  c #222222",
"&  c #252525",
"*  c #282828",
"=  c #2C2C2C",
"-  c #2D2D2D",
";  c gray18",
":  c #313131",
">  c #323232",
",  c gray20",
"<  c #373737",
"1  c #3C3C3C",
"2  c #555555",
"3  c #585858",
"4  c #5B5B5B",
"5  c #5F5F5F",
"6  c #7B7B7B",
"7  c gray49",
"8  c #7E7E7E",
"9  c gray50",
"0  c #818181",
"q  c gray51",
"w  c #838383",
"e  c gray52",
"r  c gray53",
"t  c #888888",
"y  c gray54",
"u  c #8B8B8B",
"i  c gray55",
"p  c #8D8D8D",
"a  c #8E8E8E",
"s  c gray56",
"d  c #909090",
"f  c gray57",
"g  c #929292",
"h  c #939393",
"j  c gray58",
"k  c gray59",
"l  c #979797",
"z  c #989898",
"x  c gray60",
"c  c #9A9A9A",
"v  c #9B9B9B",
"b  c gray61",
"n  c #9D9D9D",
"m  c gray62",
"M  c #9F9F9F",
"N  c #A0A0A0",
"B  c gray63",
"V  c gray66",
"C  c #ACACAC",
"Z  c #AEAEAE",
"A  c gray70",
"S  c gray72",
"D  c #C5C5C5",
"F  c gray78",
"G  c #C8C8C8",
"H  c #CACACA",
"J  c #CBCBCB",
"K  c gray80",
"L  c #CECECE",
"P  c gray81",
"I  c #D0D0D0",
"U  c #D2D2D2",
"Y  c LightGray",
"T  c gray83",
"R  c #D5D5D5",
"E  c gray84",
"W  c #D7D7D7",
"Q  c #D8D8D8",
"!  c gray85",
"~  c #DADADA",
"^  c gray86",
"/  c gainsboro",
"(  c #DFDFDF",
")  c #E6E6E6",
"_  c #E7E7E7",
"`  c gray96",
"'  c gray97",
"]  c #F8F8F8",
"[  c #F9F9F9",
"{  c gray98",
"}  c #FBFBFB",
"|  c gray99",
" . c #FDFDFD",
".. c #FEFEFE",
"X. c white",
/* pixels */
"[ X.{  .X.X.[ X. ......... ...X.{ X.} [  . .X. .X.X.",
" .} { X.[ X.X. ...X.X.X.X.X.X.X.X.X.X...{ ] X.X.X.X.",
"' } C t f i a d s s s s s s s s a a s 0 Q X.X.{ X.X.",
"} X.8   X   .         . . . .   .     o I | X.X.X.X.",
" . .d . < X .                   X $ < O U X. ...X.X.",
" .X.p   . A / / / ^ ^ ^ / / ^ ~ Q e .   L X.{ X.X.X.",
"X.X.r   . ( X. .X.X...X.X.X.X. .X.m .   E  . ...X.X.",
" . .a     / .. .} { [ [ } } [ ' X.v   . U X. .X.X.X.",
"} X.u   o ^ X.| }  .{ S e t / ....b     U X. .X.X.X.",
"X...p .   ~ X...X.....t . + Y  ...b     U X. .X.X.X.",
" .X.u .   / .. .X.} X.x .   ! X.X.b   . U X. .X.X.X.",
"X. .i X   ^ X. ... . .l     T X.X.b   . U X. .X.X.X.",
".. .a     ^ X. . ... .g   . ! X.X.b   . U X. .X.X.X.",
"| X.i     Q  .X...} X.k .   E | X.b   . U X. .X.X.X.",
"X.X.y . O 6 c k v f x 2 X   ! ....b     U X. .X.X.X.",
"[ X.a   - X .         . : X I X...b     U X. .X.X.X.",
"` X.7 @   o     # ; = X     P X.} B   o U X. .X.X.X.",
"..[ ~ I E I U Q 9   + C Q I Z p n 4 o   Y X.[ X.X.X.",
"| {  .X.X.X.X.| h   . ~ X.X.y     X , . P | X.X.X.X.",
"X.X...} | | { X.f X   T X. .M   1     . G X.[ X.X.X.",
"} X.X...X.X.....h   X 8 x v 3 . . V Q J _  .X.| X.X.",
"X.X...X.X. .X.X.f . &     X . *   Q ..X.X.[ X.X.X.X.",
" .X.X...X...|  .h   & X o     %   W { } X.X.X.X.X.X.",
"X. .X.X.X.X. .X.d o   Z P R 0 X   T X. ...X...X.X.X.",
" .X.X.X.X.X. ...f .   / X.| v X   R X...X.......X.X.",
"..X.X.X.X.X...X.j     I X...z   + Y X.{  .X.X.X.X.X.",
"X.X.X...X.....X.f X X w n N 5 .   E X.X.X.} X. .X.X.",
"X.X.X...X... ...h   > .   X X ,   Y X.] ..X.X...X.X.",
"..X.X.X.X...| | q o .   X     . o H X.| X.| X...X.X.",
"..X.X.X.X...} } ~ F I I K I P K D ) } X.} X.X.X.X.X.",
"X.X.X.X.X.X. . .X. .X...X...X.X...X...X.X.X...X.X.X.",
"X.X.....X.X...X.| .. .| ..] ..| |  .X.X. .X.X...X.X."
};
