/* XPM */
static char *xpm_[] = {
/* columns rows colors chars-per-pixel */
"26 32 82 1 ",
"  c black",
". c #010101",
"X c #020202",
"o c gray1",
"O c #040404",
"+ c gray2",
"@ c #070707",
"# c #7B7B7B",
"$ c #7C7C7C",
"% c gray49",
"& c #808080",
"* c #818181",
"= c gray51",
"- c #838383",
"; c #848484",
": c gray52",
"> c #888888",
", c #898989",
"< c gray54",
"1 c #8B8B8B",
"2 c gray55",
"3 c #8D8D8D",
"4 c #8E8E8E",
"5 c gray56",
"6 c gray57",
"7 c #929292",
"8 c #939393",
"9 c #959595",
"0 c #989898",
"q c #9A9A9A",
"w c gray62",
"e c #A0A0A0",
"r c gray63",
"t c #A2A2A2",
"y c gray64",
"u c gray66",
"i c #AAAAAA",
"p c gray68",
"a c #AEAEAE",
"s c gray69",
"d c #B2B2B2",
"f c #B9B9B9",
"g c #C1C1C1",
"h c #C5C5C5",
"j c #C6C6C6",
"k c gray78",
"l c #C8C8C8",
"z c gray79",
"x c #CACACA",
"c c #CBCBCB",
"v c gray80",
"b c #CDCDCD",
"n c #CECECE",
"m c gray81",
"M c #D0D0D0",
"N c gray82",
"B c #D2D2D2",
"V c LightGray",
"C c gray83",
"Z c gray84",
"A c #D7D7D7",
"S c #D8D8D8",
"D c gray85",
"F c #DADADA",
"G c gray86",
"H c gainsboro",
"J c #DDDDDD",
"K c gray87",
"L c gray91",
"P c gray92",
"I c gray93",
"U c #EEEEEE",
"Y c #F6F6F6",
"T c gray97",
"R c #F8F8F8",
"E c #F9F9F9",
"W c gray98",
"Q c #FBFBFB",
"! c gray99",
"~ c #FDFDFD",
"^ c #FEFEFE",
"/ c white",
/* pixels */
"!!!!W!!!!!!!!!!!!!W!!!!!!!",
"!!!!!!!!!!!!!!!!!!!!!W!!!!",
"!!!!!LcVmmVmCVVmmCVkS!!!!!",
"!W!W!c..............*!!!!!",
"!!!W!m..............:!!!!!",
"!!LcVg0rryrrrrrrqry9ammS!!",
"W!k..q!!!!!!!!!!!!!!C@.*!!",
"!!m..y!!!!!!!!!W!!!!H..8!!",
"!!V..q!!!!WUcmS!!!!!S..3!!",
"!!m..r!!!!!m..3!!!!!S.O3!!",
"!!m..r!!!W!V..3!!!!!S..3!!",
"!!m..r!!!W!H38f!!!!!H..8!!",
"!!m..q!!!!!!!!!!!!W!S..3!!",
"!!m..r!!!!!!!!!!!!!!S..%!!",
"!!V..r!!!!!!!!!!!LVVk93d!!",
"!!V..r!!!!!!!!!!!V..3!!!!!",
"!!m..r!!!!!!!!!W!C.O*!!!!!",
"!!m..r!!!!!!!!!!!H8,uVCH!!",
"!!m..r!!!!!!!!!!!!!WH..*!!",
"!!m..r!!!!W!!!!!!!W!S..8!!",
"!!V..q!!!!!YVVHW!!!!H..,!!",
"!!m..r!!!!!cO.3!!!!!S..3!!",
"!!m..r!!!!Wm..3!!!!!S..8!!",
"!!m..r!!!!!S::d!!!!!HO.3!!",
"W!m..r!!!!W!!!!W!!W!S..3!!",
"!!k.O3!!!!!!!!!!!!!!CO.%!!",
"!!C:*uSHHHHSHHHHHHHSc,*d!!",
"!W!!!V............O.3!!!!!",
"!!!W!cO.............*!!!!!",
"!!!!!S#833333333383#d!!!!!",
"!!!!!!!!!!!!!!!!!!!!!!!!!!",
"!!!!!!!!!!!!!!!!!!!!!!!!!!"
};
