/* XPM */
static char *xpm_[] = {
/* columns rows colors chars-per-pixel */
"26 32 77 1 ",
"  c black",
". c #010101",
"X c #020202",
"o c gray1",
"O c #040404",
"+ c gray2",
"@ c #060606",
"# c #7B7B7B",
"$ c #7C7C7C",
"% c gray49",
"& c #808080",
"* c #818181",
"= c gray51",
"- c #848484",
"; c gray52",
": c #898989",
"> c gray54",
", c #8B8B8B",
"< c gray55",
"1 c #8D8D8D",
"2 c #8E8E8E",
"3 c gray56",
"4 c gray57",
"5 c #929292",
"6 c #939393",
"7 c gray59",
"8 c #979797",
"9 c #989898",
"0 c gray60",
"q c #9A9A9A",
"w c gray62",
"e c #A0A0A0",
"r c gray63",
"t c #A2A2A2",
"y c gray64",
"u c #A4A4A4",
"i c #AAAAAA",
"p c gray68",
"a c #AEAEAE",
"s c gray69",
"d c gray71",
"f c #C1C1C1",
"g c #C6C6C6",
"h c gray78",
"j c #C8C8C8",
"k c gray79",
"l c #CBCBCB",
"z c gray80",
"x c #CDCDCD",
"c c #CECECE",
"v c gray81",
"b c #D0D0D0",
"n c #D2D2D2",
"m c LightGray",
"M c gray83",
"N c #D5D5D5",
"B c gray84",
"V c #D7D7D7",
"C c #D8D8D8",
"Z c gray85",
"A c #DADADA",
"S c gray86",
"D c gainsboro",
"F c #DDDDDD",
"G c gray87",
"H c gray91",
"J c gray93",
"K c #F6F6F6",
"L c gray97",
"P c #F8F8F8",
"I c #F9F9F9",
"U c gray98",
"Y c #FBFBFB",
"T c gray99",
"R c #FDFDFD",
"E c #FEFEFE",
"W c white",
/* pixels */
"TTTTUTTTTTTTTTTTTTUTTTTTTT",
"TTTTTTTTTTTTTTTTTTTTTUTTTT",
"TTTTTHlmvvmvmmmvvBmgAUTTTT",
"TUTUTl..............=TTTTT",
"UTTUTv..............;TTTTT",
"TTHlmf9rrurrwrruwru7avlATT",
"UTg..9TTTTTTTTTTTTTTB@.=TT",
"TTm..uTTTTTTTTTTTTTTA..3TT",
"TTm..wTTTTTTTTTTTTTTA..3TT",
"TTv..rTTTTTTTTTTTTTTA..3TT",
"TTv..rTTTTTTTTTTTTTTA..3TT",
"TTv..rTTTTTTTTTTTTTTA..3TT",
"TTv..wTTTTTTTTTTTTTTB..4TT",
"TTv..rTTTTUTTTTTTTTTB..#TT",
"TTm..rTTTTTJmBBBBABmg93dTT",
"TTm..wTTTUTm........3TTTTT",
"TTv..rTTTTTv........;TTTTT",
"TTv..rTTTTTF3999949:rBmFTT",
"TTv..rTTTTTUTTTTTTTTF..%TT",
"TTv..rTTTTTTTTTTTTUTA..3TT",
"TTm..wTTTTTTTTTTTTTTF..3TT",
"TTv..rTTTTTTTTTTTTTTA..3TT",
"TTv..rTTTTTTTTTTTTTTA.@3TT",
"TTv..rTTTTTTTTTTTTTTA..3TT",
"UTv..rUUTTTTTTTTTTUTA..4TT",
"TTg.@3TTTTTTTTTTTTTTB..%TT",
"TTB;%iAFFFFFHFFFFAAAg:=sTT",
"TUTTTm............@.3TTTTT",
"TTTUTl..............=TTTTT",
"TTTTTA#4333::333343#sTTTTT",
"TTTTTTTTTTTTTTTTTTTTTTTTTT",
"TTTTTTTTTTTTTTTTTTTTTTTTTT"
};
