/* XPM */
static char *xpm_[] = {
/* columns rows colors chars-per-pixel */
"23 32 193 2 ",
"   c #0C0B05",
".  c #0D0D0C",
"X  c #140300",
"o  c #1A0600",
"O  c #140B02",
"+  c #1B0C00",
"@  c #110D0C",
"#  c #0D110D",
"$  c #141206",
"%  c #1D1301",
"&  c #12110C",
"*  c #1B140B",
"=  c #1A1A0E",
"-  c #0F0E11",
";  c #110E12",
":  c #0E1011",
">  c #131313",
",  c #1A1316",
"<  c #161A14",
"1  c #1B1A15",
"2  c #131218",
"3  c #1A1618",
"4  c #1B1A1C",
"5  c #151E19",
"6  c #2E0600",
"7  c #240B00",
"8  c #2B0B00",
"9  c #360D00",
"0  c #241401",
"q  c #291500",
"w  c #241802",
"e  c #2C1900",
"r  c #231B08",
"t  c #331400",
"y  c #3A1200",
"u  c #331D00",
"i  c #3F1800",
"p  c #231B14",
"a  c #221D1E",
"s  c #271B14",
"d  c #1C211E",
"f  c #332201",
"g  c #3B2401",
"h  c #3B2902",
"j  c #362808",
"k  c #2B2211",
"l  c #25241D",
"z  c #2B251B",
"x  c #262510",
"c  c #332A16",
"v  c #322C1D",
"b  c #382F1E",
"n  c #312519",
"m  c #3B331E",
"M  c #1E1E20",
"N  c #1E2222",
"B  c #232423",
"V  c #292523",
"C  c #272A27",
"Z  c #2A262C",
"A  c #2C2B2B",
"S  c #2B2B26",
"D  c #312B24",
"F  c #382D27",
"G  c #352E2A",
"H  c #2F3129",
"J  c #393220",
"K  c #363128",
"L  c #3B342C",
"P  c #3D382E",
"I  c #353221",
"U  c #2F2F31",
"Y  c #353434",
"T  c #3A3637",
"R  c #353934",
"E  c #3B3A34",
"W  c #373938",
"Q  c #3C3C3B",
"!  c #38363B",
"~  c #411C00",
"^  c #452600",
"/  c #452D04",
"(  c #4B2D00",
")  c #432F0A",
"_  c #512A00",
"`  c #48340F",
"'  c #463108",
"]  c #5E3500",
"[  c #5D3A00",
"{  c #583B09",
"}  c #54380D",
"|  c #583F14",
" . c #633801",
".. c #6A3E00",
"X. c #443D35",
"o. c #423C3B",
"O. c #3D403D",
"+. c #5A410B",
"@. c #59441A",
"#. c #594215",
"$. c #6C4500",
"%. c #6A4507",
"&. c #774D04",
"*. c #734E0A",
"=. c #755009",
"-. c #7D5A0C",
";. c #795109",
":. c #654A1C",
">. c #6B4D19",
",. c #6E531E",
"<. c #7E5610",
"1. c #78501C",
"2. c #42423D",
"3. c #494238",
"4. c #664921",
"5. c #6E582C",
"6. c #705327",
"7. c #715B2A",
"8. c #7A5F32",
"9. c #7F612B",
"0. c #3D3D41",
"q. c #413C41",
"w. c #805F0E",
"e. c #885F0D",
"r. c #875F19",
"t. c #825B16",
"y. c #866216",
"u. c #8B6516",
"i. c #8F681D",
"p. c #826519",
"a. c #97691C",
"s. c #8A6A25",
"d. c #976E23",
"f. c #9C782E",
"g. c #846838",
"h. c #876A37",
"j. c #8B723E",
"k. c #967937",
"l. c #91743B",
"z. c #A57D26",
"x. c #977E46",
"c. c #997942",
"v. c #A17F40",
"b. c #A98028",
"n. c #A8833C",
"m. c #B38A35",
"M. c #A38748",
"N. c #AD8A49",
"B. c #A18442",
"V. c #B38D44",
"C. c #BA9344",
"Z. c #B5954E",
"A. c #B49553",
"S. c #BC9C5E",
"D. c #BE9C54",
"F. c #BFA159",
"G. c #C59759",
"H. c #C29C59",
"J. c #CDA543",
"K. c #D5A74F",
"L. c #C6A457",
"P. c #C5A35B",
"I. c #D2AE5C",
"U. c #D7AC54",
"Y. c #D4B155",
"T. c #ECBF5C",
"R. c #E6BB57",
"E. c #C7A865",
"W. c #CBAC65",
"Q. c #CCA363",
"!. c #D3AD64",
"~. c #DEB964",
"^. c #DEB76E",
"/. c #D2B369",
"(. c #DAB171",
"). c #E3BC6D",
"_. c #E8BC6A",
"`. c #E6BF72",
"'. c #EDC15C",
"]. c #F2C55C",
"[. c #F1C256",
"{. c #EDC161",
"}. c #EFC966",
"|. c #ECC46E",
" X c #F1C362",
".X c #F4C863",
"XX c #F3C96D",
"oX c #F8C961",
"OX c #E7C174",
"+X c #EAC473",
"@X c #F5CB72",
"#X c #F8CB70",
"$X c #F3C776",
/* pixels */
": . @ O + + 8 8 7 o 0 7 o + 7 7 o + O . - - # ",
"# M C * % 7.S.s.t } A.B./ g B.D.@.w * A < # # ",
"< R Q z ' /. XT.;.V.oX Xs.p.].].S.u b E K > # ",
"= R X.c g W.}.R.$.n..X}.p.-.]..XZ.r ` 3.K & . ",
"o q 0 + 0 @.B.,.0 / l.g.f e s.c.` + + 0 % O & ",
"t 4.h.( o + w + + X 0 0 O O o 0 + o #.h.#.+ O ",
"=.`.XXC.f c X.K * z X.E < * P X.k h !.XX!.( O ",
"u.+X XU.h I o.W , Z q.o.M 1 R R z #.~.'.).{ X ",
"^ c.G.1.0 < A N . > A B > # B S * w j.W.j.q O ",
"8 ( ..y + O # . . . . . - . . @   O 7 e o O * ",
"..K.].z.e p T C - 4 Y U : : A Y d   z P z $ & ",
"a. X[.U.h D 2.! 3 Z 0.Q N 4 Q Q H & Y Q W & . ",
" .Q.).k.% C W C . a Y Y > # Y Y d # Z Y Z - . ",
"6 _ $.t O   . . @ . @ . . @ . & . # . 2 . : . ",
"_ m.J.w.% p A M @ > A C > - B A <   M Z 4 - . ",
"i.|. XI.h F o.! > B O.Q B 4 ! Q C - Y 0.Y :   ",
"*.^.@XZ.t D o.T : l Q Q 4 3 Y R B # A Q A ; @ ",
"9 $.e.^ o @ p ; # # < & - - > 3 .   2 4 ; ; . ",
"i y.b.[ + & 4 ; - # 4 > - - , 3 > : > 4 - . # ",
"t.`.@XP.f D q.! > N Q W < 3 0.0.B # U O.Y > . ",
"r.`.XXL.f I o.Y > C O.W N 4 ! 0.Z : Y Q T @   ",
"~ d.m.$.+ p V 1   # B B . - B Z 3 @ * k * $ # ",
"9 [ &.i + @ @ @ . > # # : - . ; O o ^ +.h + O ",
"*.(.$XN.q l Q Z > 1 R R 3 > Y ! p j H.OXS.h O ",
"s._.'.I.h H O.E , Z q.0.M 5 O.O.D | _. X`.#.O ",
"_ Z.~.s.% x m n o p F F & & v v w u V._.N.g O ",
"+ w f + $ % f 0 o + f e o o e f + o e ) e O $ ",
"# V l r 0 j./.n.^ >.P.H.{ ( Z.W.5.% r z p @ & ",
"3 E 2.b ( ^.'.T.<.C.'.].d.a.].'.E.f J 2.Y > @ ",
"> Y Q s ^ H.#XU.[ f.XX Xt.;.{.@XM.q v Q U 2 @ ",
"; > 1 & % ) 8.} 7 u 6.:.q q @.5.j O * , 2 - - ",
". ; . . O X X o 7 o o X O + X X O @ @ @ ; - . "
};
