/* XPM */
static char *xpm_[] = {
/* columns rows colors chars-per-pixel */
"23 32 203 2 ",
"   c #0D0D0B",
".  c #0D0804",
"X  c #130500",
"o  c #1B0600",
"O  c #140B01",
"+  c #1C0B00",
"@  c #110D0E",
"#  c #1A0A0A",
"$  c #0E120C",
"%  c #141206",
"&  c #1C1202",
"*  c #13110D",
"=  c #1A150A",
"-  c #0E0D11",
";  c #120E11",
":  c #0E1014",
">  c #131313",
",  c #1C1613",
"<  c #161815",
"1  c #1B1A15",
"2  c #16141A",
"3  c #1A1619",
"4  c #17181A",
"5  c #1B1B1C",
"6  c #230B00",
"7  c #2B0D00",
"8  c #220600",
"9  c #241301",
"0  c #2C1400",
"q  c #2B1A00",
"w  c #231C0D",
"e  c #291A0A",
"r  c #341500",
"t  c #351B00",
"y  c #391D02",
"u  c #3D1500",
"i  c #291C14",
"p  c #281F18",
"a  c #231417",
"s  c #2A240F",
"d  c #342301",
"f  c #3C2501",
"g  c #3D2902",
"h  c #3B2B0A",
"j  c #2A2316",
"k  c #23211D",
"l  c #2E281A",
"z  c #2A221F",
"x  c #342A16",
"c  c #32231A",
"v  c #322A1C",
"b  c #3C311F",
"n  c #1E1E22",
"m  c #201E23",
"M  c #1E2224",
"N  c #252424",
"B  c #2B2B25",
"V  c #2C262B",
"C  c #272929",
"Z  c #2C2A2B",
"A  c #292522",
"S  c #342C23",
"D  c #3B2E2C",
"F  c #393027",
"G  c #35312B",
"H  c #3E352C",
"J  c #2F3034",
"K  c #343333",
"L  c #393532",
"P  c #3A3B36",
"I  c #363639",
"U  c #363B3A",
"Y  c #3C3C3B",
"T  c #461F00",
"R  c #452400",
"E  c #422A00",
"W  c #4C2D03",
"Q  c #472B0A",
"!  c #532C00",
"~  c #463001",
"^  c #4B3200",
"/  c #4C340C",
"(  c #4F3B09",
")  c #573200",
"_  c #5C3500",
"`  c #5B3A02",
"'  c #51390D",
"]  c #573D07",
"[  c #4A3414",
"{  c #553C14",
"}  c #5C3F17",
"|  c #623B00",
" . c #683F00",
".. c #4C3C2F",
"X. c #423E3B",
"o. c #453D36",
"O. c #5F4101",
"+. c #5C4416",
"@. c #5D461A",
"#. c #644602",
"$. c #6B4400",
"%. c #6F4900",
"&. c #744C02",
"*. c #7D4D03",
"=. c #7B5104",
"-. c #644613",
";. c #644A14",
":. c #644818",
">. c #604319",
",. c #6C541C",
"<. c #7A5413",
"1. c #74561A",
"2. c #41403E",
"3. c #654E25",
"4. c #6E5922",
"5. c #7D5F29",
"6. c #745626",
"7. c #735C30",
"8. c #7F6027",
"9. c #7F6029",
"0. c #7A6132",
"q. c #3E3940",
"w. c #423E41",
"e. c #855C0B",
"r. c #855C13",
"t. c #8F691E",
"y. c #836125",
"u. c #896829",
"i. c #936B25",
"p. c #9A6F20",
"a. c #947228",
"s. c #8E6F38",
"d. c #856B36",
"f. c #9D7633",
"g. c #9E7E33",
"h. c #A77826",
"j. c #A97E25",
"k. c #A47B2C",
"l. c #A37A36",
"z. c #937643",
"x. c #987741",
"c. c #977D44",
"v. c #AE862E",
"b. c #A68037",
"n. c #AD873E",
"m. c #B2883B",
"M. c #B68934",
"N. c #BD943A",
"B. c #A28242",
"V. c #A98848",
"C. c #B58F48",
"Z. c #BF9647",
"A. c #BB964B",
"S. c #BD9C4B",
"D. c #AF8F54",
"F. c #AE9155",
"G. c #B59353",
"H. c #BE9857",
"J. c #B99A59",
"K. c #C19849",
"L. c #C79E56",
"P. c #D2A449",
"I. c #D6A94C",
"U. c #CAA35A",
"Y. c #CCAA5A",
"T. c #D6A757",
"R. c #D0AC5C",
"E. c #D9AF5E",
"W. c #D6AD51",
"Q. c #DFB455",
"!. c #E1B24A",
"~. c #E3B753",
"^. c #EDBC54",
"/. c #ECBF58",
"(. c #E4B857",
"). c #F2BF5B",
"_. c #C6A362",
"`. c #C8AC62",
"'. c #D2A964",
"]. c #D5B263",
"[. c #D5B26B",
"{. c #DDBA6B",
"}. c #DEB565",
"|. c #DBB874",
" X c #E7BC62",
".X c #E2B768",
"XX c #E4BC6C",
"oX c #E6BB68",
"OX c #E2BB78",
"+X c #EEC35B",
"@X c #F3C55E",
"#X c #F5C65B",
"$X c #EFC462",
"%X c #EAC06C",
"&X c #F5C565",
"*X c #F4CA63",
"=X c #F2C56C",
"-X c #F5CA6B",
";X c #ECC474",
":X c #E6C574",
">X c #F6C776",
",X c #F6C972",
"<X c #F2CA79",
/* pixels */
"+ + 7 7 o o 7 6 + + 6 6 8 + + 6 + + O - @   $ ",
"r 0.L.y.7 { G.B.g f B.D.@.0 u.J.0.9 = Z 5 @   ",
"` {.@X~.%.A.$X*Xt.t.@X*XK.&.~.$X[.( v Y I 5   ",
"` ].#X!.` n.*X-Xr.r.*X*Xm.| ~.-X].^ j X.K , @ ",
"7 -.l. .7 W x.5.t 0 y.s./ 7 ,.c.@.9 & e & % % ",
"6 ) i.| 7 + 9 9 + + 6 9 X O + 6 + + ~ 0.3.9 O ",
") E.*XW.Q e ..H * 5 L o.k * L o.l d S.-X%X;.O ",
"$.oX#X X{ c o.X.n n Y Y C > w.w.G d Y.+X=X8.X ",
"r d.L.i.q > Z N $ $ N B * $ N V 5 + 1.A.b.g O ",
"8 f $.T X . * - $     $ $ $ ; ; @ + r $.W 8 % ",
"R A.*XN.g w L Z > < G K 1 $ Z L p 0 k.&XT.] + ",
"#.{.^. X+.x X.Y 4 M Y U C < U P F g E.).>Xu.X ",
"f F.XXC.y w P J > > K K 3 . C P z 9 f.XX_.{ X ",
"+ y &.R + O $ $ : - ; ;   >   ; @ + r $.! 8 + ",
"y a.T.p.q = B N : - C Z   ; m Z , 6 r.P.m.R + ",
"#.{.&XoX{ j X.Y 4 m q.Y N > Y q.G f '.=X%X5.X ",
"^ _.,XR.h j Y I 2 3 P Y k $ K P z q G.<X|.:.X ",
"7 | e.) + + > 2 -   4 <   * < 1 = + R r.$.6 & ",
"7 &.j.=.6 % 5 4 - - 1 < : : : 5 % & | h.t.0 & ",
"` [.=X.X[ p Y U 3 4 P Y M - K Y S t L.=X:X,.X ",
"] |.,X.X[ j 2.U 4 5 Y Y N : Y q.D y U.=X:X,.O ",
"r 1.M.e.0 & N M - > k B > - n V a 8 $.v.a.t O ",
"8 W =.! 6 X   : ; @ $ : ; - @ ; @ o R =.` 6 + ",
"W _.>XL.Q i I J > 3 K K m - V Y z q C.<X|.+.X ",
"$.[.+X X} c X.Y 1 N X.P C > U 2.G h R.*X<X5.X ",
"y g.~.j.t 0 F v @ = c H 1 % c S j & u.].G.E O ",
"o r _ u + & d 0 + X 9 r o o 9 f 6 + 6 t q + @ ",
"y x.'.l.y ,.`.G./ / H.'.6.r l.[.z.0 9 D A @ ; ",
" ..X+X^.&.K.#X*Xi.i.#X@XK.=.+X+X%X( x Y P 4 ; ",
"! U.*XP.) l.*X*X<.<.&X*Xl._ I.-XY.g s X.J > @ ",
"6 / 0.' 8 t 6.:.0 9 ;.4.f o ' 7.[ + * > *     ",
"& O X X # # X o + + O X O + X X O @       $   "
};
