/* XPM */
static char *xpm_[] = {
/* columns rows colors chars-per-pixel */
"26 32 72 1 ",
"  c black",
". c #010101",
"X c #020202",
"o c gray1",
"O c #040404",
"+ c gray2",
"@ c #2C2C2C",
"# c gray48",
"$ c gray49",
"% c #7E7E7E",
"& c #808080",
"* c gray51",
"= c #888888",
"- c #898989",
"; c gray54",
": c #8B8B8B",
"> c gray55",
", c #8D8D8D",
"< c #8E8E8E",
"1 c gray56",
"2 c #909090",
"3 c #939393",
"4 c gray58",
"5 c gray59",
"6 c #989898",
"7 c gray61",
"8 c #9D9D9D",
"9 c gray62",
"0 c #9F9F9F",
"q c gray63",
"w c #A2A2A2",
"e c #A5A5A5",
"r c gray68",
"t c #AFAFAF",
"y c #B6B6B6",
"u c gray73",
"i c #BCBCBC",
"p c #C5C5C5",
"a c gray78",
"s c #C8C8C8",
"d c gray79",
"f c #CBCBCB",
"g c gray80",
"h c #CDCDCD",
"j c #CECECE",
"k c gray81",
"l c #D0D0D0",
"z c gray82",
"x c #D2D2D2",
"c c LightGray",
"v c gray83",
"b c #D5D5D5",
"n c gray84",
"m c #D8D8D8",
"M c gray85",
"N c #DADADA",
"B c gainsboro",
"V c #DDDDDD",
"C c gray87",
"Z c #DFDFDF",
"A c #E6E6E6",
"S c #EAEAEA",
"D c #F6F6F6",
"F c gray97",
"G c #F8F8F8",
"H c #F9F9F9",
"J c gray98",
"K c #FBFBFB",
"L c gray99",
"P c #FDFDFD",
"I c #FEFEFE",
"U c white",
/* pixels */
"PPPPPPPPPPPPPPPPPPPJPPPPPP",
"PFPPPPPPPPPPPPPPPPPPJPPPPP",
"JPnhhxxxhxxhxxxhxhxdAPPPPP",
"JP#.+...............hPPPPP",
"JP2.@...............dPPPPP",
"PP;..*e9wwwwwwww9w95uxdAPP",
"PP;.+NPPPPPPPPPPPPPP6..dPP",
"PP,..ZPPPPPPPPPPJJPPw..xPP",
"PP,..NPPPPPPPPPPPPPP9..hPP",
"PP,..ZPPPPPPPPPPPPPP9..xPP",
"PP;..NPPPPPPPPPPPPPP9..xPP",
"PP;..ZPPPPPPPPPPPPPPw..hPP",
"PP;..ZPPPPJJPPPPPPPP9..xPP",
"PP;..NPPPPPPPPPPPPPPw..xPP",
"PP,..ZPPPPPNhxSPPPPP9..xPP",
"PP,..NPPPJP;+.hPPPPP9..xPP",
"PP;..ZPPPJP,..hPPPPP9..xPP",
"PP;..ZPPPJJi;;ZPPPPP9..xPP",
"PP;..NPPPJPPPPPPPPPP9..hPP",
"PP;..ZPPPPPPPPPPPPPP9..xPP",
"PP,..NPPPPPPPPPPPPPPw..xPP",
"PP,..ZPPPPPPPPPPPPPP9..hPP",
"PP;..NPPPPPPPPPPPPPP9..xPP",
"PP;..ZPPPPPPPPPPPPPP9..xPP",
"PP;+.NPJPPPPPPPPPPJP9..xPP",
"PP=..NPPPPPPPPPPPPPP5..pPP",
"PP,..yANZNNZZZZZZZnnt=*nPP",
"PP2+@..............+xPPPPP",
"FP%.................dPPPPP",
"JPt*2,;,,,,,,,,,;,;%nPPPPP",
"JJPPPPPPPPPPPPPPPPPPPPPPPP",
"PPPPPPPPPPPPPPPPPPPPPPPPPP"
};
