/* XPM */
static char *xpm_[] = {
/* columns rows colors chars-per-pixel */
"26 32 82 1 ",
"  c black",
". c #010101",
"X c #020202",
"o c gray1",
"O c #040404",
"+ c gray2",
"@ c gray3",
"# c #222222",
"$ c gray14",
"% c #252525",
"& c #272727",
"* c gray36",
"= c #606060",
"- c #7B7B7B",
"; c #7E7E7E",
": c #808080",
"> c gray51",
", c #838383",
"< c #848484",
"1 c gray52",
"2 c gray53",
"3 c #888888",
"4 c #898989",
"5 c #8B8B8B",
"6 c gray55",
"7 c #8D8D8D",
"8 c #8E8E8E",
"9 c #909090",
"0 c gray57",
"q c #929292",
"w c gray58",
"e c gray59",
"r c #989898",
"t c gray60",
"y c #9B9B9B",
"u c gray61",
"i c gray62",
"p c #9F9F9F",
"a c #A0A0A0",
"s c gray63",
"d c #AEAEAE",
"f c #AFAFAF",
"g c gray69",
"h c #B4B4B4",
"j c gray72",
"k c gray73",
"l c gray",
"z c gray76",
"x c #C5C5C5",
"c c gray78",
"v c #C8C8C8",
"b c gray79",
"n c #CACACA",
"m c #CBCBCB",
"M c gray80",
"N c #CDCDCD",
"B c gray81",
"V c #D0D0D0",
"C c gray82",
"Z c #D2D2D2",
"A c LightGray",
"S c gray83",
"D c #D5D5D5",
"F c gray84",
"G c #D7D7D7",
"H c #D8D8D8",
"J c gray85",
"K c #DADADA",
"L c gainsboro",
"P c #DDDDDD",
"I c gray87",
"U c #DFDFDF",
"Y c gray90",
"T c gray97",
"R c #F8F8F8",
"E c #F9F9F9",
"W c gray98",
"Q c #FBFBFB",
"! c gray99",
"~ c #FDFDFD",
"^ c #FEFEFE",
"/ c white",
/* pixels */
"!!!!!!!!!!!!!!!!!!!!!!!!!!",
"!!!!!!!!!!!!!!!!!!!!!!!!!!",
"!!!!QHNANAANAANNANAnY!!!!!",
"!!!QQ<XXXXXXXXXXXXXXN!!Q!!",
"Q!!!!<XXXXXXXXXXXXXXN!Q!!!",
"QQLcNdypssssssssyppekAnY!!",
"Q!-X+F!!!!!!!!!!!!!!yXXc!!",
"!!0XXY!!!!!!!!!!!!!!pXXA!!",
"!!8XXH!!!!!!!!!!!!!!pXXA!!",
"!!5XXL!!!!!!!!!!!!!!yXXA!!",
"!!5XXL!!!!!!!Q!!!!!!pXXN!!",
"!!5XXL!!!!!!!!LNHFAF>XXA!!",
"!!5XXH!!!!!!!!8XXXXXX#XN!!",
"!!5XXL!!!!!!!!8XXXXXX&XA!!",
"!!8XXL!!!!!!!Ql8yp0y*XXA!!",
"!!8XXH!!!!!!!QQ!!!!!pXXF!!",
"!!5XXL!!!!!!QQ!!!!!!pXXA!!",
"!!5XXL!!!!!!QQYAHHFL<XXN!!",
"!!5XXL!!!!!!QQ8XXXXXX#XA!!",
"!!5XXL!!!!!!!!8XXXXXX#XN!!",
"!!8XXH!!!!!!!Qk50e0y*XXA!!",
"!!5XXL!!!!!!!!Q!!!!!s+XN!!",
"!!5XXL!!!!!!!!!!!!!!pXXF!!",
"!!5XXL!!!!!!!!!!!!!!pXXN!!",
"!!0XXH!!!!!!!!!!!!Q!pXXA!!",
"!!-XXA!!!!!!!!!!!!!!eXXc!!",
"QQh><zYLLLLHYHLLLYFFd<<F!!",
"!Q!!Q5XXXXXXXXXXXXX+A!!!!!",
"!!!Q!<XXXXXXXXXXXXXXn!!!!!",
"!!!Q!g>888585888555-H!!!!!",
"!!!!!!!!!!!!!!!!!!!!!!!!!!",
"!!!!!!!!!!!!!!!!!!!!!!!!!!"
};
