/* XPM */
static char *xpm_[] = {
/* columns rows colors chars-per-pixel */
"26 32 80 1 ",
"  c black",
". c #010101",
"X c #020202",
"o c gray1",
"O c #070707",
"+ c gray3",
"@ c gray14",
"# c #272727",
"$ c #313131",
"% c #606060",
"& c #727272",
"* c #7B7B7B",
"= c gray49",
"- c #7E7E7E",
"; c #808080",
": c gray51",
"> c #848484",
", c gray52",
"< c gray53",
"1 c #898989",
"2 c #8B8B8B",
"3 c gray55",
"4 c #8D8D8D",
"5 c #8E8E8E",
"6 c gray56",
"7 c #909090",
"8 c #929292",
"9 c gray58",
"0 c gray59",
"q c #979797",
"w c #989898",
"e c gray60",
"r c #9A9A9A",
"t c #9B9B9B",
"y c gray61",
"u c #9F9F9F",
"i c gray63",
"p c gray64",
"a c gray68",
"s c #AEAEAE",
"d c #AFAFAF",
"f c gray69",
"g c #B4B4B4",
"h c gray73",
"j c gray",
"k c gray76",
"l c #C6C6C6",
"z c #C8C8C8",
"x c gray79",
"c c #CACACA",
"v c #CBCBCB",
"b c gray80",
"n c #CDCDCD",
"m c gray81",
"M c #D0D0D0",
"N c gray82",
"B c #D2D2D2",
"V c LightGray",
"C c gray83",
"Z c #D5D5D5",
"A c gray84",
"S c #D7D7D7",
"D c #D8D8D8",
"F c gray85",
"G c #DADADA",
"H c gray86",
"J c gainsboro",
"K c #DDDDDD",
"L c gray87",
"P c #E2E2E2",
"I c gray90",
"U c gray97",
"Y c #F8F8F8",
"T c #F9F9F9",
"R c gray98",
"E c #FBFBFB",
"W c gray99",
"Q c #FDFDFD",
"! c #FEFEFE",
"~ c white",
/* pixels */
"WWWWWWWWWWWWWWWWWWWWWWWWWW",
"WWWWWWWWWWWWWWWWWWWWWWWWWW",
"WWWWEDnVnVVnVVnnVnVcIWWWWW",
"WWWEE>XXXXXXXXXXXXXXnWWEWW",
"EWWWW>XXXXXXXXXXXXXXcWWWWW",
"WEJlnstuipiiuiiptuuqhVcIWW",
"EW*X+DWWWWWWWWWWWWWWtXXlWW",
"WW7XXPWWWWWWWWWWWWWWiXXVWW",
"WW5XXDWWWWWWWWWWWWWWuXXVWW",
"WW2XXJWWWWWWWWWWWWWWtXXVWW",
"WW2XXJWWWWWWWEWWWWWWuXXnWW",
"WW2XXJWWWWWWWWJnAAVA:XXVWW",
"WW2XXDWWWWWWWW5XXXXXX@XnWW",
"WW2XXJWWWWWWWW5XXXXXX#XVWW",
"WW5XXJWWWWWWWEj5ti7q%XXVWW",
"WW5XXDWWWWWWWEEWWWWWiXXAWW",
"WW2XXJWWWWWWWWEWWWWWqXXlWW",
"WW2XXJWWWWWWEWPnDDAAf5>AWW",
"WW2XXJWWWWWWWE5XXXXXAWWWWW",
"WW2XXJWWWWWWWWtX$XXXcWWWWW",
"WW5XXDWWWWWWWWuXX&t>AWWWWW",
"WW2XXJWWWWWWWWqXXAWWWWWWWW",
"WW2XXJWWWWWWWWqXXAWEWWWWWW",
"WW2XXJWWWWWWWEtXXnWWWWWWWW",
"WW5XXDWWWWWWWWtXXDWWWWWWWW",
"WW-XXVWWWWWWWW5OOcWWWWWWWW",
"EEg:>kPJDJDJJDs>-AWWWWWWWW",
"WEWWE5XXXXOXXXDWWWWWWWWWWW",
"WWWEW>XXXXXXXXnWWWWWWWWWWW",
"WWWEWf:577522:DWWWWWWWWWWW",
"WWWWWWWWWWWWWWWWWWWWWWWWWW",
"WWWWWWWWWWWWWWWWWWWWWWWWWW"
};
