/* XPM */
static char *xpm_[] = {
/* columns rows colors chars-per-pixel */
"26 32 81 1 ",
"  c black",
". c #010101",
"X c #020202",
"o c gray1",
"O c #040404",
"+ c gray2",
"@ c #060606",
"# c gray3",
"$ c gray19",
"% c gray47",
"& c #7B7B7B",
"* c #7E7E7E",
"= c #808080",
"- c gray51",
"; c #848484",
": c gray52",
"> c #868686",
", c gray53",
"< c #888888",
"1 c #898989",
"2 c #8B8B8B",
"3 c gray55",
"4 c #8D8D8D",
"5 c #8E8E8E",
"6 c gray57",
"7 c #929292",
"8 c #939393",
"9 c gray58",
"0 c #959595",
"q c gray59",
"w c #979797",
"e c #989898",
"r c #9A9A9A",
"t c #9B9B9B",
"y c gray61",
"u c #9D9D9D",
"i c gray62",
"p c #9F9F9F",
"a c #A0A0A0",
"s c gray63",
"d c #A2A2A2",
"f c #AEAEAE",
"g c #AFAFAF",
"h c gray69",
"j c #B4B4B4",
"k c gray73",
"l c gray76",
"z c #C5C5C5",
"x c gray78",
"c c #C8C8C8",
"v c gray79",
"b c #CACACA",
"n c #CBCBCB",
"m c gray80",
"M c #CDCDCD",
"N c #CECECE",
"B c gray81",
"V c #D0D0D0",
"C c gray82",
"Z c #D2D2D2",
"A c gray83",
"S c #D5D5D5",
"D c gray84",
"F c #D7D7D7",
"G c #D8D8D8",
"H c #DADADA",
"J c gainsboro",
"K c #DDDDDD",
"L c gray87",
"P c #DFDFDF",
"I c gray90",
"U c #E6E6E6",
"Y c gray97",
"T c #F8F8F8",
"R c #F9F9F9",
"E c gray98",
"W c #FBFBFB",
"Q c gray99",
"! c #FDFDFD",
"~ c #FEFEFE",
"^ c white",
/* pixels */
"QQQQQQQQQQQQQQQQQQQQQQQQQQ",
"QQQQQQQQQQQQQQQQQQQQQQQQQQ",
"QQQQWGMZMZZMZZZMMMZnUQQQQQ",
"QQQWW:XXXXXXXXXXXXXXMQQQQQ",
"WQQQQ:XXXXXXXXXXXXXXnQQQQQ",
"WWJxMftisdsssssdiiiwkZnIQQ",
"WQ&X@DQQQQQQQQQQQQQQtXXxQQ",
"QQ6XXIQQQQQQQQQQQQQQsXXZQQ",
"QQ5XXGQQQQQQQQQQQQQQiXXMQQ",
"QQ2XXJQQQQQQQQQQQQQQsXXZQQ",
"QQ2XXJQQQQQQQQQQQQQQtXXZQQ",
"QQ2XXJQQQQQQQQQQQQQWsXXMQQ",
"QQ2XXGQQQQQQQQQQQQQQiXXZQQ",
"QQ2XXJQQQQWQQQQQQQQQwXXlQQ",
"QQ5XXJQQQQQIZGDDDDDDh65JQQ",
"QQ5XXGQQQQQ:@XXXXXXXDQQQQQ",
"QQ2XXJQQQQWwX$XXXXXXxQQQQQ",
"QQ2XXJQQQQQ6XX&twww:lZDIQQ",
"QQ2XXJQQQQQtXXGQQQQQtXXnQQ",
"QQ2XXJQQQQQ2XXMQQQQQiXXMQQ",
"QQ5XXGQQQQQk2:GQQQQQdXXDQQ",
"QQ2XXJQQQQWQQQQWQQQQiXXMQQ",
"QQ2XXJQQQQQQQQQQQQQQi@XMQQ",
"QQ2XXJQQQQQQQQQQQQQQsXXZQQ",
"QQ5XXGQQQQQQQQQQQQWQiXXMQQ",
"QQ=XXZQQQQQQQQQQQQQQwXXxQQ",
"WWj=:lIJJJJGIGJJJIDDf::DQQ",
"QWQQW2XXXXXXXXXXXXX@ZQQQQQ",
"QQQWQ:XXXXXXXXXXXXXXnQQQQQ",
"QQQWQh=555252555222&GQQQQQ",
"QQQQQQQQQQQQQQQQQQQQQQQQQQ",
"QQQQQQQQQQQQQQQQQQQQQQQQQQ"
};
