/* XPM */
static char *xpm_[] = {
/* columns rows colors chars-per-pixel */
"26 32 78 1 ",
"  c black",
". c #010101",
"X c #020202",
"o c gray1",
"O c #040404",
"+ c #070707",
"@ c gray3",
"# c #7B7B7B",
"$ c #7E7E7E",
"% c gray50",
"& c #808080",
"* c #818181",
"= c #848484",
"- c #8B8B8B",
"; c gray55",
": c #8D8D8D",
"> c #8E8E8E",
", c gray56",
"< c #909090",
"1 c gray57",
"2 c #929292",
"3 c #939393",
"4 c gray58",
"5 c #959595",
"6 c gray59",
"7 c #979797",
"8 c #989898",
"9 c gray60",
"0 c #9A9A9A",
"q c gray61",
"w c #A0A0A0",
"e c gray63",
"r c #A2A2A2",
"t c #A7A7A7",
"y c #AAAAAA",
"u c #AEAEAE",
"i c #AFAFAF",
"p c gray69",
"a c gray70",
"s c #B9B9B9",
"d c #C1C1C1",
"f c #C3C3C3",
"g c #C6C6C6",
"h c gray78",
"j c #C8C8C8",
"k c gray79",
"l c #CACACA",
"z c #CBCBCB",
"x c #CDCDCD",
"c c #CECECE",
"v c gray81",
"b c #D0D0D0",
"n c gray82",
"m c #D2D2D2",
"M c LightGray",
"N c gray83",
"B c #D5D5D5",
"V c gray84",
"C c #D7D7D7",
"Z c #D8D8D8",
"A c gray85",
"S c #DADADA",
"D c gray86",
"F c gainsboro",
"G c #DDDDDD",
"H c gray87",
"J c gray91",
"K c #EFEFEF",
"L c #F6F6F6",
"P c gray97",
"I c #F8F8F8",
"U c #F9F9F9",
"Y c gray98",
"T c #FBFBFB",
"R c gray99",
"E c #FDFDFD",
"W c #FEFEFE",
"Q c white",
/* pixels */
"RRRRYRRRYRYRRRYRYRRRRRRRRR",
"RRRRRRRRRRRRYRRRRRRRRYRRRR",
"RRRRRJzMvvzAYYLgvBMgARRRRR",
"RYRYRz.....2YRz....O&RRRRR",
"RRRYRv.....:RRB.....=RRRRR",
"RRJzMd8eer7pMzgqeee7ivvBRR",
"YRg..qRRRRRM..2RRRRRB@.&RR",
"RRv..rRRRRRB..8RRRRRA..2RR",
"RRM..qRRRRRB..7RRRRRA..2RR",
"RRv..eRRRRRA..8RRRRRA..:RR",
"RRv..eRRRRRz@.=RRRYRA..:RR",
"RRv..eRRRRRH:2sRRRRRA..2RR",
"RRv..qRRRRRRRRRRRRRRA..:RR",
"RRv..eRRRRRRRRRRRRRRA..:RR",
"RRM..eRRRRRRRRRRRRRRA..2RR",
"RRM..qRRRRRRRRRRRRRRA..2RR",
"RRv..eRRRRRRRRRRRRRRA..:RR",
"RRv..eRRRRRRRRRRRRRRA..:RR",
"RRv..eRRRRRRRRRRRRRRA..2RR",
"RRv..eRRRRYRRRRRRRRRA..:RR",
"RRM..qRRRRYLBMHYRRRRH..:RR",
"RRv..eRRRRRz..:RRRRRA..2RR",
"RRv..eRRRRRA..8RRRRRA..:RR",
"RRv..eRRRYRB..8RRRRRA..:RR",
"YRM..eYYYRRM..7RYRYRA..2RR",
"RRg..2RRRRRB..:RRRRRB..&RR",
"RRB=%yAHAHMz=&yAHHHBz-&pRR",
"RYRRRM.....8RRB.....:YRRRR",
"RRRYRz....O:RRB.....&RRRRR",
"RRRRRA#2:2#pRRA&:::&pYRRRR",
"RRRRRRRRRRRRYYRRRRRRRRRRRR",
"RRRRRRRRRRRRRRRRRRRRRRRRRR"
};
