/* XPM */
static char *xpm_[] = {
/* columns rows colors chars-per-pixel */
"23 32 197 2 ",
"   c #0C0A05",
".  c #0C0C0B",
"X  c #060805",
"o  c #140500",
"O  c #1A0600",
"+  c #140B02",
"@  c #1B0C00",
"#  c #110D0B",
"$  c #0E110D",
"%  c #161105",
"&  c #1C1102",
"*  c #12120D",
"=  c #1C130B",
"-  c #0D0D11",
";  c #100C11",
":  c #0E1212",
">  c #131313",
",  c #181713",
"<  c #161A16",
"1  c #1B1915",
"2  c #161419",
"3  c #1A161C",
"4  c #16181A",
"5  c #1B1C1B",
"6  c #230700",
"7  c #230B00",
"8  c #2C0D00",
"9  c #251201",
"0  c #2B1300",
"q  c #251A01",
"w  c #2C1B01",
"e  c #251C0B",
"r  c #341500",
"t  c #3B1700",
"y  c #331E00",
"u  c #3C1E00",
"i  c #241C13",
"p  c #291E18",
"a  c #241C19",
"s  c #2F2003",
"d  c #352302",
"f  c #3A2302",
"g  c #2C2313",
"h  c #23211D",
"j  c #2B241C",
"k  c #322117",
"l  c #1C1E21",
"z  c #221E21",
"x  c #1E2222",
"c  c #232423",
"v  c #262827",
"b  c #2B2A24",
"n  c #272A2A",
"m  c #2C2C2B",
"M  c #2E2728",
"N  c #332E25",
"B  c #322F28",
"V  c #382E2C",
"C  c #2E302F",
"Z  c #313127",
"A  c #34312B",
"S  c #3A322A",
"D  c #2E2D32",
"F  c #2F3331",
"G  c #343434",
"H  c #353937",
"J  c #393A35",
"K  c #363739",
"L  c #3A373A",
"P  c #3C3C3B",
"I  c #383937",
"U  c #411C00",
"Y  c #442200",
"T  c #4A2400",
"R  c #452901",
"E  c #4D2C00",
"W  c #542A00",
"Q  c #4C3302",
"!  c #40300F",
"~  c #49350A",
"^  c #4F3B09",
"/  c #543400",
"(  c #5B3300",
")  c #573900",
"_  c #5C3800",
"`  c #593B09",
"'  c #503A0B",
"]  c #453011",
"[  c #523E13",
"{  c #623D00",
"}  c #433E3C",
"|  c #413936",
" . c #3C413D",
".. c #5E4409",
"X. c #5B4618",
"o. c #574315",
"O. c #644302",
"+. c #694302",
"@. c #6A4C0F",
"#. c #69470A",
"$. c #734902",
"%. c #784F00",
"&. c #734D0E",
"*. c #7C5403",
"=. c #78540B",
"-. c #62481D",
";. c #6F551C",
":. c #745215",
">. c #775815",
",. c #73561A",
"<. c #7A541A",
"1. c #7B5917",
"2. c #5D4722",
"3. c #43413D",
"4. c #674F21",
"5. c #694C20",
"6. c #685127",
"7. c #675225",
"8. c #7B5D21",
"9. c #7E6135",
"0. c #3E3E40",
"q. c #423D42",
"w. c #855807",
"e. c #845B09",
"r. c #8D681C",
"t. c #AD7C1D",
"y. c #826424",
"u. c #8C6C2A",
"i. c #85682B",
"p. c #926925",
"a. c #956E29",
"s. c #937129",
"d. c #876C33",
"f. c #9A7938",
"g. c #A77F28",
"h. c #A67F30",
"j. c #A27A3C",
"k. c #9A7A43",
"l. c #957F45",
"z. c #AC8429",
"x. c #A4812F",
"c. c #B3852D",
"v. c #AC853C",
"b. c #AE8430",
"n. c #AC8A4B",
"m. c #A88543",
"M. c #B48E45",
"N. c #BA9543",
"B. c #BC954C",
"V. c #B79241",
"C. c #BC9754",
"Z. c #BE9A53",
"A. c #BCA062",
"S. c #CC9F44",
"D. c #C69D4C",
"F. c #C89951",
"G. c #D6AA4A",
"H. c #DBAD4D",
"J. c #C4A25D",
"K. c #CEA95C",
"L. c #C8A651",
"P. c #D2A655",
"I. c #D3AB5C",
"U. c #DAAD58",
"Y. c #D9B359",
"T. c #E4BC5C",
"R. c #EFBD5A",
"E. c #C39F61",
"W. c #C4A264",
"Q. c #D5AE65",
"!. c #D1AE6A",
"~. c #DEB867",
"^. c #DEB66A",
"/. c #DBB167",
"(. c #DCB672",
"). c #DCBD7C",
"_. c #E1BD65",
"`. c #E1B668",
"'. c #E8BC67",
"]. c #E1BB73",
"[. c #E1BB7A",
"{. c #EFC25B",
"}. c #F2C35C",
"|. c #ECC463",
" X c #E7C26B",
".X c #EEC56A",
"XX c #E8C665",
"oX c #F3C462",
"OX c #F5C963",
"+X c #F2C66C",
"@X c #F2CA6C",
"#X c #F8C763",
"$X c #EDC972",
"%X c #EBC773",
"&X c #F5C772",
"*X c #F0C778",
"=X c #F3CA79",
/* pixels */
"7 @ q 7 + #     $ . - ;   # > X . @ @ 9 + + % ",
"r 9.A.d.q = c c : > z M , . 3 m 1 7 4.A.m.d % ",
"( /.}.{.X.g 3.P 5 5 0.P v : K P S d D.XX.Xy.o ",
"W K.}.Y.~ e P P 3 2 L P c : G P b w N.OXXX=.O ",
"7 ` s.+.9 + 3 3 - - 2 1 . . : 5 * @ E a.<.r @ ",
"0 ` a.O.9 # 2 2 ; # , 1 $ : > 3 * + E a.<.r @ ",
"E I.OXY.^ e 3.I 1 1 J P c $ V } S q V.OXXX>.+ ",
"/ ^.}.{.o.g J P 5 5 H P v > G P B d L.}.@Xy.o ",
"0 i.C.u.0 % m x . * x n >   3 B a @ @.C.k.f + ",
"7 U $.T O # $ : $ . - : . . - ; + @ r +./ 7 @ ",
"U D.#XD.R i L D $ * F H 5 . m J j 0 x.OXY.O.@ ",
"{ `.R.+X-.k } } h h J P b * G 3.S d I.}.@Xu.+ ",
"U n.`.M.f = S b * * B V 5 * j S j 7 u.].W.' o ",
"6 t $.T 7 O d s % + y y @ O & f 9 O t +.Q 7 & ",
"u s.G.t.U <.I.D.) / D.U.>.U x.Y.f.U w.G.N.Q + ",
") ].oXR.e.B.{.OXa.p.oXR.F.=.T.oX~.*.S.oX$Xi.o ",
"T E.&XP.) f.%X X,.;.'.&Xj._ K.$XJ.( v.=X).4.o ",
"8 E *.{ 8 y ,.#.7 8 #.,.u 7 Q ;.E 7 t =.O.q O ",
"8 &.c.*.q O q & # o 9 9 % + @ q % & O.z.r.f @ ",
"/ (.+X~.[ g | 0.5 2 L q.n $ G 3.Z s F.&X$X1.o ",
"/ !.oX_.[ e } L 5 5 P 0.v $ G P A s Z..X$X8.O ",
"8 #.z.*.0 & h c . * l c >   < b 1 @ _ z.r.f O ",
"6 E w.( @   * : X . . - . $ . * % + f =.O.8 o ",
"E W.=XI.] i J F > > F P 5 . M P j s n.$X[.5.+ ",
"/ ].R.'.5.j P  .5 h H  .n : I L G d K..X*Xd.o ",
"r a.H.g.0 , A m $ $ Z F < . c I M 7 e.P.N.R O ",
"6 r ( t @   # . $ X . . $ * .   # o r / Y 7 @ ",
"r k.Q.m.d = A n $ $ v m < X h G h @ y.!.C.Q   ",
"{ ~.}.XXX.g } P l x P P n : I } V u P.oX@Xy.+ ",
"R J.@XL.~ e J G 4 > K K l - m J N w m..X X@.O ",
"@ ! 7.~ @   4 > : . > > : : * < * + y 6.o.& + ",
"% o o o * - - - - . . . - : $ . . # + o o + > "
};
