/* XPM */
static char *xpm_[] = {
/* columns rows colors chars-per-pixel */
"26 32 66 1 ",
"  c black",
". c #010101",
"X c #020202",
"o c gray1",
"O c #040404",
"+ c gray2",
"@ c #060606",
"# c #7C7C7C",
"$ c gray49",
"% c #808080",
"& c #818181",
"* c #838383",
"= c #868686",
"- c gray53",
"; c #898989",
": c #8B8B8B",
"> c gray55",
", c #8D8D8D",
"< c #8E8E8E",
"1 c gray56",
"2 c #909090",
"3 c #929292",
"4 c gray58",
"5 c #989898",
"6 c gray60",
"7 c #9D9D9D",
"8 c #9F9F9F",
"9 c #A0A0A0",
"0 c gray63",
"q c #A2A2A2",
"w c #AAAAAA",
"e c gray67",
"r c #AFAFAF",
"t c #B1B1B1",
"y c gray75",
"u c #C5C5C5",
"i c gray78",
"p c #C8C8C8",
"a c gray79",
"s c #CDCDCD",
"d c #CECECE",
"f c gray81",
"g c #D0D0D0",
"h c gray82",
"j c #D2D2D2",
"k c LightGray",
"l c #D5D5D5",
"z c gray84",
"x c #D7D7D7",
"c c #D8D8D8",
"v c gray85",
"b c #DADADA",
"n c gray86",
"m c gainsboro",
"M c #DDDDDD",
"N c gray87",
"B c #DFDFDF",
"V c #EAEAEA",
"C c gray97",
"Z c #F9F9F9",
"A c gray98",
"S c #FBFBFB",
"D c gray99",
"F c #FDFDFD",
"G c #FEFEFE",
"H c white",
/* pixels */
"DDDDDDDDADDDDDDDDDDDDDDDDD",
"DDDDDDDDDDDDDDDDDDDDDDDDDD",
"DDDDDDDDVuhslhhhunADDDDDDD",
"DDDDDDADs  @     =DDDDDDDD",
"DDDDDDDDs     @  :DDDDDDDD",
"DDDDDVplu69999994esumADDDD",
"DDDDDu@ 6DDDDDDDDn @&DDDDD",
"DDDDDh  9DDDDDDDDm  4DDDDD",
"DDDDDl  7DDDDDDDDn  4DDDDD",
"DDDDDh  7DDDDDDDDn  4DDDDD",
"DDDDDh  9DDDDDDDDn  3DDDDD",
"DDDDDh  7DDDDDDDDn  4DDDDD",
"DDDDDl  7DDDDDDDDn  3DDDDD",
"DDDDDh  9DDDDDDDDn  4DDDDD",
"DDDDDh  7DDDDDDDDl  4DDDDD",
"DDDDDl  7DDDDDDDDn  4DDDDD",
"DDDDDh  9DDDDDDDDn  3DDDDD",
"DDDDDh  7DDDDDDDDn  4DDDDD",
"DDDDDl  7DDDDDDDDl  4DDDDD",
"DDDDDh  9DDDDDDDDn  4DDDDD",
"DDDDDh  7DDDDDDDDn  3DDDDD",
"DDDDDh  7DDDDDDDDn  4DDDDD",
"DDDDDl  9DDDDDDDDn  3DDDDD",
"DDDDDh  7DDDDDDDDn  3DDDDD",
"DDDDDh  6DDDDDDDDn  3DDDDD",
"DDDDDs@ 3DDDDDDDDh@ &DDDDD",
"DDDDDn&&wnVmVnmnlp:$tDDDDD",
"DDDDDDDDs       @1DDADDDDD",
"DDDDDDDDs        =DDDDDDDD",
"DDDDDDDDn$111113$tADDDDDDD",
"DDDDDDDDDDDDADDDDDDDDDDDDD",
"DDDDDDDDDDDDDDDDDDDDDDDDDD"
};
