/* XPM */
static char *xpm_[] = {
/* columns rows colors chars-per-pixel */
"23 32 185 2 ",
"   c #0F0304",
".  c #0C0B06",
"X  c #0A070C",
"o  c #0C0C0C",
"O  c #130501",
"+  c #1A0500",
"@  c #140C01",
"#  c #1B0B00",
"$  c #110D0C",
"%  c #180C0C",
"&  c #0D100D",
"*  c #0B1107",
"=  c #121006",
"-  c #1B1101",
";  c #1E1900",
":  c #12120E",
">  c #18130C",
",  c #0E0D11",
"<  c #110E12",
"1  c #120F18",
"2  c #0F1112",
"3  c #131313",
"4  c #1A1511",
"5  c #161814",
"6  c #1C1D16",
"7  c #161619",
"8  c #1A1719",
"9  c #16191B",
"0  c #1A1A1B",
"q  c #200600",
"w  c #220B00",
"e  c #290C00",
"r  c #231301",
"t  c #2B1500",
"y  c #251A00",
"u  c #2C1C02",
"i  c #20170E",
"p  c #341C00",
"a  c #331400",
"s  c #231D1C",
"d  c #1E201B",
"f  c #292500",
"g  c #2A2309",
"h  c #332300",
"j  c #3D2500",
"k  c #3E2800",
"l  c #2A2116",
"z  c #23221D",
"x  c #2B2219",
"c  c #212115",
"v  c #322711",
"b  c #32291C",
"n  c #392D1F",
"m  c #3F3011",
"M  c #3A321F",
"N  c #1D1D21",
"B  c #221F28",
"V  c #242425",
"C  c #292524",
"Z  c #252821",
"A  c #2B2A24",
"S  c #2B272A",
"D  c #2B2B2C",
"F  c #24272A",
"G  c #392F2C",
"H  c #362C22",
"J  c #2E312C",
"K  c #343022",
"L  c #34332D",
"P  c #3C352C",
"I  c #3B382F",
"U  c #393222",
"Y  c #2F2D31",
"T  c #322F33",
"R  c #343434",
"E  c #3A3735",
"W  c #3A3A34",
"Q  c #353539",
"!  c #393438",
"~  c #373938",
"^  c #3C3B3C",
"/  c #412100",
"(  c #492E01",
")  c #452F08",
"_  c #4D2500",
"`  c #562E00",
"'  c #4B3302",
"]  c #42300A",
"[  c #523300",
"{  c #5E3500",
"}  c #573D06",
"|  c #5C3E14",
" . c #613400",
".. c #6B3E00",
"X. c #443C2F",
"o. c #423C3B",
"O. c #58421A",
"+. c #6B4100",
"@. c #6C4B04",
"#. c #7A4D00",
"$. c #7D5204",
"%. c #78540A",
"&. c #6F4F12",
"*. c #654D18",
"=. c #60431B",
"-. c #6F5113",
";. c #7A5518",
":. c #654D24",
">. c #684F26",
",. c #695322",
"<. c #745A2C",
"1. c #765C32",
"2. c #6F622D",
"3. c #7F6528",
"4. c #7E6733",
"5. c #3E3E41",
"6. c #413F42",
"7. c #3F4140",
"8. c #835E1A",
"9. c #87560A",
"0. c #8A6417",
"q. c #936E1F",
"w. c #986E18",
"e. c #9E751B",
"r. c #8E6923",
"t. c #9D7528",
"y. c #8F6F32",
"u. c #836E3A",
"i. c #906E31",
"p. c #8D763C",
"a. c #A87A24",
"s. c #AA7F30",
"d. c #8B7644",
"f. c #967B45",
"g. c #987A44",
"h. c #AB8024",
"j. c #C99E3F",
"k. c #988948",
"l. c #A98C44",
"z. c #A9874A",
"x. c #A98342",
"c. c #B98E40",
"v. c #B98E4A",
"b. c #B0944B",
"n. c #AE8D58",
"m. c #AC8F55",
"M. c #AA9252",
"N. c #BB9B53",
"B. c #BA9759",
"V. c #BA9A5B",
"C. c #BBA05D",
"Z. c #BAA961",
"A. c #C99842",
"S. c #C59E51",
"D. c #D7A649",
"F. c #D4A748",
"G. c #DFB84F",
"H. c #CFA559",
"J. c #D7A85A",
"K. c #E7BC5D",
"L. c #EABF59",
"P. c #CBAE60",
"I. c #C0A264",
"U. c #DCB363",
"Y. c #D8B86B",
"T. c #D0B46A",
"R. c #D2B772",
"E. c #EFC65A",
"W. c #EEC95F",
"Q. c #ECC256",
"!. c #F3C654",
"~. c #F2C45D",
"^. c #F6CB5A",
"/. c #EFC361",
"(. c #EDC860",
"). c #ECC36A",
"_. c #EDCA6E",
"`. c #F3C665",
"'. c #F5C462",
"]. c #F4C964",
"[. c #F1C76A",
"{. c #F5C96E",
"}. c #EEC072",
"|. c #F5C772",
" X c #F8D071",
/* pixels */
"$ o o . # q e e q q e e + w e e q @ $ X X , & ",
"o V A > r 2.I.y.a | B.z.( j g.V.:.- s D N , * ",
"5 W 5.b ' Y.E.Q.%.c.^.^.q.0.'.`.V.h U o.Q 1 o ",
"5 R 5.x k P.(.G.+.s.^.^.0.$.`.{.M.p H o.T , , ",
": 3 0 . # | d.O.w / 0.;.p u <.u.] @ > 8 1 , & ",
"$ 3 8 : . # y = # k r.0.p # # r @ $ 3 7 3 & & ",
"3 ! 5.F * L o.U u l.'./.r.# X.o.F , Y 7.J * & ",
"0 ^ ~ Y 3 R ^ P h b.].].p.y W ^ A 3 Q ~ L 5 . ",
"< N F 9 . 8 D s + | v.x.) @ z A 8 X N D 0 o < ",
", o 2 * o & 3 $ # e +. .r @ = . o $ X < o o o ",
": J ~ d * Z ^ H e i.'.K.*.- I R 6 & A ~ A , 3 ",
"d ~ ~ J : R ^ P p S.L.'.f.u E 6.D 3 R ^ Q 3 o ",
"& J ! s o V ! A # 4.U.J.=.# L R 0 o Z R D < , ",
"2 o $ o o o < @ # e ..{ e + O o o 3 . $ X , , ",
"2 V Y 8 X N T s q -.F.j.} = b A 7 o s D N , o ",
"9 ~ ~ Y 3 Q 5.G p V.'.].p.; W ^ D , R ^ Q 3 o ",
"8 Q ^ F 2 D 5.U y g.|.).<.- I ^ V , D ~ D $ < ",
"X 3 8 < * & 3 > # p #.+.t # > 8 2 3 < 5 : & < ",
"& 8 0 3 o 2 0 > # ' h.e.k @ 3 0 3 , 3 z & . & ",
"5 ~ ^ D 2 J ^ L u m.[.).4.; W 7.F 5 D ^ R 3 & ",
"0 ~ 5.D & R 5.G u n.{.[.u.; I 7.F : R 5.Q , o ",
"2 N F 5 o 8 V s q [ a.w.j @ d Z : . 0 F N X 2 ",
", o o . o : 7 @ # p $.+.t O $ 3 . o o , , , & ",
"3 R W c X A ! H r f.|.}.<.# I ~ d o D ^ F 2 o ",
"N Q ~ L 3 L ~ I h V.~.'.g.u W ^ Y < ! ^ ~ 3 o ",
"2 F R 0 * c K g w &.D.A.[ w v K s % B ! V , 2 ",
", X , $ @ - h u + e ` _ e e p p q # @ $ , , , ",
"< D ! > y d.R.l./ ,.H.S.} ( N.T.2.= s T F , & ",
"8 R ^ b ' Y.Q.E.9.A.!.!.t.r.~.(.C.f U o.R 3 & ",
"5 L ^ l j N. XF.{ a.`.(.%.@.K.{.k.; b o.D 3 : ",
". 5 7 : @ ) >.) # u >.O.y y O.>.u # > 8 5 o o ",
": & o $ > @ @ @ = =   O @ @ + O @ % . $ o & & "
};
