/* XPM */
static char *xpm_[] = {
/* columns rows colors chars-per-pixel */
"26 32 81 1 ",
"  c black",
". c #010101",
"X c #020202",
"o c gray1",
"O c #040404",
"+ c gray2",
"@ c #060606",
"# c #3A3A3A",
"$ c #7B7B7B",
"% c #7C7C7C",
"& c gray49",
"* c #808080",
"= c #818181",
"- c gray51",
"; c #848484",
": c gray52",
"> c #888888",
", c #898989",
"< c #8B8B8B",
"1 c gray55",
"2 c #8E8E8E",
"3 c gray56",
"4 c gray57",
"5 c #939393",
"6 c gray59",
"7 c #979797",
"8 c #989898",
"9 c gray60",
"0 c #9B9B9B",
"q c gray61",
"w c #9D9D9D",
"e c gray62",
"r c #9F9F9F",
"t c #A0A0A0",
"y c gray63",
"u c #A2A2A2",
"i c gray64",
"p c #AAAAAA",
"a c gray67",
"s c gray68",
"d c #AEAEAE",
"f c gray69",
"g c #BBBBBB",
"h c #BCBCBC",
"j c #C1C1C1",
"k c gray77",
"l c #C6C6C6",
"z c gray78",
"x c #C8C8C8",
"c c #CACACA",
"v c #CBCBCB",
"b c gray80",
"n c #CDCDCD",
"m c #CECECE",
"M c gray81",
"N c #D0D0D0",
"B c gray82",
"V c #D2D2D2",
"C c LightGray",
"Z c gray83",
"A c #D5D5D5",
"S c gray84",
"D c #D7D7D7",
"F c #D8D8D8",
"G c gray85",
"H c #DADADA",
"J c gainsboro",
"K c #DDDDDD",
"L c #EAEAEA",
"P c #ECECEC",
"I c gray93",
"U c #F6F6F6",
"Y c gray97",
"T c #F8F8F8",
"R c #F9F9F9",
"E c gray98",
"W c #FBFBFB",
"Q c gray99",
"! c #FDFDFD",
"~ c #FEFEFE",
"^ c white",
/* pixels */
"~~~~~~~~~~W~W~~~W~W~W~~~~~",
"~~~~~~~~~WWW~~~~~~~~~WW~~~",
"~~~~~~~~W~~LcNNNMZMlZW~~~~",
"~~~~~~~~~W~N        -~WW~~",
"~~~~~~~~~~~N   +    :~~~W~",
"~~~~~~~WLcMgquuqquu7sMMFW~",
"~~~~~~~~M  7~~~~~~~~Z@ -~~",
"~~~~~~~~N  q~~~W~~W~F +4~~",
"~~~~~~~~M  q~~~~~~~~F  2~~",
"~~~~~~~~Z  0~~~~~~W~F  2~~",
"~~~~~~~~N  q~~~~~~~~F  4~~",
"~~~~~~W~Z  0~~~~~~~~J  2~~",
"~~~~~~W~M+ 0~~~~~~~~F  4~~",
"~~~~~W~~Z  qW~~~~~~~F  4~~",
"~~~WWPcFs  0~~~~~~~~F  2~~",
"~~~Y~l+ +# q~~~~~~~~F  2~~",
"W~~~~M+    ,~~~~~~~~J  2~~",
"~WPNNj2007,hW~~~~~~~F  4~~",
"W~l +q~~W~~WW~~~~~~~F  2~~",
"W~N  u~W~~~~~~~~~~~~F  2~~",
"W~M  u~~~~~~~~~~~~W~F  4~~",
"W~M  q~~~~~~~~~~~~~~F  2~~",
"~~c +q~~~~~~~~~~~~~~F  4~~",
"~~N  u~~~~~~~~~~~~~~F  4~~",
"Y~N  uW~~~W~~~~~W~W~F  2~~",
"~~l +2~~~~~~~~~~~~~~Z+ %~~",
"W~N:-sZJLFJJJJJJJFJFc,-s~~",
"~Y~W~N            + 2~~~~~",
"~~~W~c+             -~~~~~",
"~W~W~Z$4222,2,22242%fW~~~~",
"~~~~W~~~~~~~~~~~~~~~~W~~~~",
"~~~~W~~~~~~~~~~~~~~~~~~~~~"
};
