/* XPM */
static char *xpm_[] = {
/* columns rows colors chars-per-pixel */
"23 32 182 2 ",
"   c #0D0D04",
".  c #070C0A",
"X  c #0C0D0C",
"o  c #140500",
"O  c #1C0600",
"+  c #130B01",
"@  c #1B0B00",
"#  c #120E0C",
"$  c #180F08",
"%  c #0E100C",
"&  c #141205",
"*  c #1A1202",
"=  c #12120D",
"-  c #1C110B",
";  c #0E0E10",
":  c #120D12",
">  c #0E1211",
",  c #121313",
"<  c #181415",
"1  c #161A14",
"2  c #191916",
"3  c #151618",
"4  c #191619",
"5  c #161B1A",
"6  c #1A1B1C",
"7  c #230C00",
"8  c #290E00",
"9  c #241400",
"0  c #2B1500",
"q  c #241B07",
"w  c #2D1B02",
"e  c #231A0C",
"r  c #291D0D",
"t  c #301500",
"y  c #341B00",
"u  c #261710",
"i  c #251E12",
"p  c #1D221B",
"a  c #362402",
"s  c #392401",
"d  c #3C2903",
"f  c #372308",
"g  c #3E2A09",
"h  c #262113",
"j  c #2B2413",
"k  c #22221D",
"l  c #2F271A",
"z  c #2B291B",
"x  c #302513",
"c  c #302718",
"v  c #332A1B",
"b  c #382B1A",
"n  c #322A15",
"m  c #1E1E21",
"M  c #1F2122",
"N  c #232423",
"B  c #2B2524",
"V  c #252826",
"C  c #2B2A26",
"Z  c #272729",
"A  c #28262B",
"S  c #262A2A",
"D  c #2B2C2B",
"F  c #382D27",
"G  c #2B312D",
"H  c #3F3124",
"J  c #33322E",
"K  c #39352A",
"L  c #332E32",
"P  c #2F3332",
"I  c #343534",
"U  c #3B3734",
"Y  c #353A35",
"T  c #3B3B35",
"R  c #343438",
"E  c #38373C",
"W  c #363A3A",
"Q  c #3B3C3B",
"!  c #441B00",
"~  c #452400",
"^  c #462E05",
"/  c #4A2E04",
"(  c #552D00",
")  c #42330E",
"_  c #483B0F",
"`  c #453207",
"'  c #553400",
"]  c #5F3E01",
"[  c #52370A",
"{  c #543B09",
"}  c #5C3E09",
"|  c #463211",
" . c #4D3A12",
".. c #533E14",
"X. c #613500",
"o. c #673B00",
"O. c #443D2E",
"+. c #403732",
"@. c #423D3A",
"#. c #453E36",
"$. c #3C403A",
"%. c #5D440E",
"&. c #5E4212",
"*. c #61420C",
"=. c #6C4703",
"-. c #744800",
";. c #754E09",
":. c #784C03",
">. c #795308",
",. c #684D1E",
"<. c #64491E",
"1. c #795113",
"2. c #6B5429",
"3. c #735928",
"4. c #78582F",
"5. c #765A25",
"6. c #7C6334",
"7. c #3B3C41",
"8. c #403E41",
"9. c #414343",
"0. c #815308",
"q. c #835406",
"w. c #896823",
"e. c #87672D",
"r. c #926F2D",
"t. c #9D7726",
"y. c #9F772F",
"u. c #94712D",
"i. c #856735",
"p. c #896B37",
"a. c #8B6E3B",
"s. c #9C7E36",
"d. c #987B43",
"f. c #B1832B",
"g. c #B78931",
"h. c #B18234",
"j. c #C5973F",
"k. c #A28346",
"l. c #AF894B",
"z. c #B58C46",
"x. c #BF9A41",
"c. c #A48451",
"v. c #B99A57",
"b. c #B99756",
"n. c #B89962",
"m. c #C49B4C",
"M. c #C79852",
"N. c #D9AC4F",
"B. c #DAAD46",
"V. c #CDA850",
"C. c #C6A35C",
"Z. c #D6AE56",
"A. c #DCB75E",
"S. c #E3B74E",
"D. c #C4A660",
"F. c #CDA560",
"G. c #CDA768",
"H. c #CEA869",
"J. c #DEB364",
"K. c #DEB96C",
"L. c #D6B36B",
"P. c #E2BD65",
"I. c #EBBF60",
"U. c #E2B768",
"Y. c #E2BC6B",
"T. c #EBBE6C",
"R. c #E4BC74",
"E. c #EDC259",
"W. c #F0C157",
"Q. c #F2C55E",
"!. c #E7C063",
"~. c #EEC664",
"^. c #EBC16F",
"/. c #F3C464",
"(. c #F5C962",
"). c #F3C76C",
"_. c #F3C96C",
"`. c #F9C965",
"'. c #ECC474",
"]. c #F3C773",
"[. c #F5C877",
"{. c #F7C87A",
/* pixels */
"; # %   & * 7 9 @ @ 7 8 7 7 7 7 8 O & X X X X ",
", ; S h + a k.v.<.t w.C.p.y *.n.c.s & N D , X ",
". S Q T q i._./.M.:.S.Q.U.:.j./.[.e.9 @.8.N   ",
". N Q T q 3.T.`.z.X.B.Q.J.o.g.).'.5.0 U 7.N   ",
"; X 6 6 o 9 3.a./ 8 o.r.*.8 / a.4.t + , 2 : : ",
"X = 2 2   + 9 9 + 7 %.r.} 7 @ 9 @ @ % 1 2 X : ",
"# k T Y 1 & U O.j ` Z.`.J.' y #.U 5 5 Y T k # ",
"X B T $.k 1 T #.c  .P.Q.Y.} j Q Q 6 p Y Y D X ",
"# : N B #   B C $ 0 e.b.e.w & D N X % N V , ; ",
"X X X X X X # # o 7 ~ =.~ 7 + % # X X # > X : ",
"X 6 E R 3 4 D U r s m.Q.m.~ q E L 4 : J Y 2 X ",
": Z 7.7.m 6 Q T c ..!.W.^.*.x T Q 6 N @.T D X ",
"X 6 R J , , D U u s z.T.l.y e R D 1 , G I 2 ; ",
": X . X   X X & @ O ! -.! 7 & ; > . X ; > . , ",
"X , D V > % N D u q t.N.y.y * D S > , Z D > X ",
"X B Q Q 6 , W Q h &.K.~.R.&.j Q 7.m 6 E Q G . ",
". p $.I 3 , P $.i g F.{.H.^ i 9.E 3 3 R Q N X ",
". % > , , ; % 1 $ @ ( 0.' 7 + , > , > 3 1 > > ",
", , 6 3 ; ; 1 h + * >.f.>.0 & m 3 > ; 3 6 > X ",
": A 7.Q 6 5 Y T j ) K.).Y.{ j 7.E 3 6 E Q N % ",
"X A E @.p 5 W $.z ) L.].R.[ j 8.7.5 m 7.9.N X ",
"#   r e   % 5 V & * ;.h.1.8 & N m , ; M N , X ",
"+ @ } { 9 + = = & @ ( 0.' 7   % ; ; . ; > X X ",
"7 d.'.Y.2.* J U i g C.[.G.^ e T I > 3 R Y M X ",
"y b.E.Q.d.w U @.z %.K.E.R.%.n T E m m E Q D X ",
"@ 5.A.V.&.@ b b * 9 k.J.k.w - J D > > D I 2 X ",
"+ * a s @ + 0 s @ @ 9 y @ @ # . X ; ; X X . , ",
"> , z c @ | v.L.6.9 e F B . 6 R S > : A G 4 X ",
"X D T O.w i.~.E.D.s H @.T , A 7.7.m m E Q D # ",
"X p T F 9 ,.J._.k.y v Q D X N 7.R 3 5 R Q m . ",
"# # , 1 + @ &.2.f + $ 2 , X ; , , X X > , , > ",
"# X X % % & + o o $ # X , % X ; ; > ; ; X X , "
};
