/* XPM */
static char *xpm_[] = {
/* columns rows colors chars-per-pixel */
"26 32 92 1 ",
"  c black",
". c #010101",
"X c #020202",
"o c gray1",
"O c #040404",
"+ c gray2",
"@ c gray3",
"# c #202020",
"$ c #222222",
"% c #232323",
"& c #252525",
"* c gray37",
"= c #5F5F5F",
"- c #7B7B7B",
"; c #7C7C7C",
": c #7E7E7E",
"> c gray50",
", c #808080",
"< c #818181",
"1 c gray51",
"2 c #838383",
"3 c gray52",
"4 c gray53",
"5 c #888888",
"6 c #898989",
"7 c gray54",
"8 c #8B8B8B",
"9 c gray55",
"0 c #8D8D8D",
"q c #8E8E8E",
"w c gray56",
"e c #929292",
"r c gray58",
"t c #959595",
"y c gray59",
"u c #979797",
"i c #989898",
"p c gray60",
"a c #9B9B9B",
"s c gray61",
"d c #9D9D9D",
"f c gray62",
"g c #9F9F9F",
"h c #A0A0A0",
"j c gray63",
"k c #A4A4A4",
"l c #AEAEAE",
"z c #AFAFAF",
"x c gray69",
"c c gray70",
"v c gray73",
"b c #BBBBBB",
"n c gray75",
"m c gray76",
"M c gray78",
"N c #C8C8C8",
"B c gray79",
"V c #CACACA",
"C c gray80",
"Z c #CDCDCD",
"A c #CECECE",
"S c gray81",
"D c #D0D0D0",
"F c gray82",
"G c #D2D2D2",
"H c LightGray",
"J c gray83",
"K c #D5D5D5",
"L c gray84",
"P c #D7D7D7",
"I c #D8D8D8",
"U c gray85",
"Y c #DADADA",
"T c gray86",
"R c gainsboro",
"E c #DDDDDD",
"W c gray87",
"Q c #DFDFDF",
"! c gray88",
"~ c #E1E1E1",
"^ c #E6E6E6",
"/ c gray92",
"( c #F6F6F6",
") c gray97",
"_ c #F8F8F8",
"` c #F9F9F9",
"' c gray98",
"] c #FBFBFB",
"[ c gray99",
"{ c #FDFDFD",
"} c #FEFEFE",
"| c white",
/* pixels */
"[[[[[[[[[[[[[[[[[[[][[[[[[",
"[[[[[[[[[[[[[[[[[[[[[[[[[[",
"[[[[]PZHZZZHPHZZZZHV/[[[[[",
"[[[]]3XXXXXXX+XXXXXXZ[[[[[",
"][[[[3XXXXXX$$+XXXXXZ[][[[",
"]]RMZlafkfk*XX-kfffyvHV^[[",
"][-X@U[[[[[fXXU[[[[[yXXV[[",
"[[eXX![[[[[eXXP[][[[kXXZ[[",
"[[qXXU[[[[[aXXH[[[[[fXXZ[[",
"[[8XXR[[[[[yXXP][[[[fXXH[[",
"[[8XXR[[[][q+XV[[[[[fXXH[[",
"[[8XXR[[[]]n8eR[[[[[fXXZ[[",
"[[8XXU[[[[[[[[[][[[[aXXH[[",
"[[8XXR[[[[[[[[[[[[[[kXXZ[[",
"[[qXXR[[[[[[[[[][RHU<XXZ[[",
"[[qXXU[[[[[[[[[[[qXXX$XP[[",
"[[8XXR[[[[[[[[[][yXXX$XZ[[",
"[[8XXR[[[[[[[[[[[n3a*XXH[[",
"[[8XXR[[[[[[][[[[[[[fXXZ[[",
"[[8XXR[[[[[[[[[[[[[[fXXH[[",
"[[qXXU[[[[]!HH/[[[[[kXXZ[[",
"[[8XXR[[[[[8XXZ[[[[[kXXH[[",
"[[8XXR[[[[[aXXU[[[[[aXXZ[[",
"[[8XXR[[[[[yXXU[[[[[fXXH[[",
"[[qXXU[[][[yXXP[][][fXXH[[",
"[[:XXH[[[[[aXXU[[[[[eXXM[[",
"]]c<3m!RUPU:XXlRRRUPl83P[[",
"[][[]qXXXXXX&$XX+XX+Z[[[[[",
"[[[][<XXXXXXXXXXXXXXV[[[[[",
"[[[][c<qqqq888qqq83-U[[[[[",
"[[[[[[[[[[[[[[[[[[[[[[[[[[",
"[[[[[[[[[[[[[[[[[[[[[[[[[["
};
