/* XPM */
static char *xpm_[] = {
/* columns rows colors chars-per-pixel */
"23 32 192 2 ",
"   c #0E0600",
".  c #0C0C05",
"X  c #0D0C0C",
"o  c #060A09",
"O  c #150600",
"+  c #1A0700",
"@  c #130C01",
"#  c #1C0C00",
"$  c #110D0C",
"%  c #0F1003",
"&  c #0E100E",
"*  c #141103",
"=  c #1C1202",
"-  c #12130D",
";  c #1C160A",
":  c #1D190E",
">  c #0E0E11",
",  c #110E12",
"<  c #0D1111",
"1  c #131314",
"2  c #1A1A16",
"3  c #161519",
"4  c #1A1B1A",
"5  c #1B161A",
"6  c #230C00",
"7  c #2A0D00",
"8  c #231401",
"9  c #2A1400",
"0  c #231B03",
"q  c #2C1B00",
"w  c #261D0B",
"e  c #2B1D0D",
"r  c #301400",
"t  c #341B00",
"y  c #3C1C00",
"u  c #241C15",
"i  c #281C10",
"p  c #211E1C",
"a  c #27200E",
"s  c #2C220A",
"d  c #342202",
"f  c #3C2401",
"g  c #3F2901",
"h  c #3E2C0A",
"j  c #2F2816",
"k  c #22231C",
"l  c #2D231A",
"z  c #2A2112",
"x  c #332B1D",
"c  c #322A17",
"v  c #1F1A20",
"b  c #221D23",
"n  c #1F2120",
"m  c #242424",
"M  c #2A2524",
"N  c #262825",
"B  c #2D2B24",
"V  c #272729",
"C  c #292728",
"Z  c #2B2B2C",
"A  c #352A23",
"S  c #342D2A",
"D  c #2D312D",
"F  c #34332E",
"G  c #3B342D",
"H  c #3B3628",
"J  c #322D31",
"K  c #333333",
"L  c #3B3633",
"P  c #3C3B35",
"I  c #393738",
"U  c #3D3C3C",
"Y  c #353A34",
"T  c #422300",
"R  c #492300",
"E  c #422C02",
"W  c #4E2F00",
"Q  c #442D0B",
"!  c #552E00",
"~  c #4C360C",
"^  c #4E3A0C",
"/  c #49350A",
"(  c #503100",
")  c #5F3F04",
"_  c #5C3400",
"`  c #543D13",
"'  c #623700",
"]  c #653A00",
"[  c #413B2D",
"{  c #423C36",
"}  c #423D3A",
"|  c #3F4133",
" . c #56400F",
".. c #564017",
"X. c #5A441A",
"o. c #57481D",
"O. c #5D4519",
"+. c #644304",
"@. c #61460F",
"#. c #6A4C0E",
"$. c #704600",
"%. c #73500E",
"&. c #684A16",
"*. c #644F18",
"=. c #654A16",
"-. c #6E5117",
";. c #6A511C",
":. c #7B5B1E",
">. c #5F4C21",
",. c #644F22",
"<. c #6B5120",
"1. c #6C542C",
"2. c #735A2D",
"3. c #765C26",
"4. c #7D6120",
"5. c #77612F",
"6. c #7B6432",
"7. c #3F3E40",
"8. c #835604",
"9. c #805F1C",
"0. c #8B631B",
"q. c #916712",
"w. c #856627",
"e. c #936F28",
"r. c #916924",
"t. c #8F722C",
"y. c #9C782E",
"u. c #866939",
"i. c #8F713F",
"p. c #9B7A34",
"a. c #9E7D3A",
"s. c #AA7C24",
"d. c #A27E35",
"f. c #8A7341",
"g. c #927748",
"h. c #997A46",
"j. c #AC8125",
"k. c #BD8B2C",
"l. c #B78D39",
"z. c #A98B4D",
"x. c #B18D43",
"c. c #B69346",
"v. c #BA954E",
"b. c #B0934D",
"n. c #AB8E54",
"m. c #AF9059",
"M. c #B29356",
"N. c #BD9A54",
"B. c #BEA261",
"V. c #C49E53",
"C. c #C8A04B",
"Z. c #C7A251",
"A. c #CEA857",
"S. c #C8A559",
"D. c #D7AF5A",
"F. c #D9AB53",
"G. c #D9B359",
"H. c #DAA849",
"J. c #EBBF5C",
"K. c #EDBD57",
"L. c #F0BE5B",
"P. c #C19F62",
"I. c #C3A364",
"U. c #C8A669",
"Y. c #CEAC6A",
"T. c #CDAB63",
"R. c #D4AD66",
"E. c #DEB865",
"W. c #D5B069",
"Q. c #DFB96E",
"!. c #DDB762",
"~. c #D4B670",
"^. c #E7B963",
"/. c #E4B668",
"(. c #E4BC6B",
"). c #EFC35A",
"_. c #F4C45D",
"`. c #F4C85D",
"'. c #E7C065",
"]. c #EDC362",
"[. c #EDC46C",
"{. c #F3C561",
"}. c #F8C862",
"|. c #F2C66A",
" X c #F3C96C",
".X c #F4C961",
"XX c #EBC473",
"oX c #EEC972",
"OX c #EFCA79",
"+X c #E4C278",
"@X c #F4C672",
"#X c #F6CD71",
/* pixels */
"# + 7 6 @ % X o > > > o > > $ . . * + 9 6 # @ ",
"6 1.I.h.d * N V > > v V < > 1 M p @ ` m.b./ # ",
"T S.{.'.3.0 { U b 3 7.o.D < K 7.L q x.[.oXa.8 ",
"y v.}.J.*.0 { 7.b > K Y D X J } G 9 y. X#Xw.O ",
"6 W r.%.0 . - 2 $ $ 2 2 % . @ 8 = + f 6.5.d O ",
"6 W e.%.= @ 2 2 X $ X 2 - * ^ f.,.6 # 0 = @ - ",
"y N._.].,.8 { L v 1 7.o.x d Z.|.Q.=.8 G G 2 $ ",
"y T.}.L.2.e { } n < K { A g D.{.XX&.e U P k $ ",
"6 <.v.a.d O B k - @ w z ; = 3.P.h.q - V N 1 X ",
"6 y +.( = @ @ & @ # g ..q @ 8 8 = O - > . X , ",
"e j..XF.^ = L L = ~ A.oXz.q d H x @ 4 K K 2 X ",
"T W.)..X6.w } } e 2.[.J.~.E j { Y 4 n U I m $ ",
"9 f./.V./ ; A S ; Q N.+Xg.8 l L C $ 2 F K 5 X ",
"6 r $.! + + t 9 O # d E 8 # . $ $ , o X > X , ",
"7 9.H.k.R +.C.A.=.= q x : o 2 K m X 1 Z m 1 1 ",
"T Y.L._.0.d._.{.z.q [ | K 1 Z U 7.1 M } U m X ",
"t m.@X^.+.w.[.oXu.8 A Y Z > Z 7.J < v | Y 4 < ",
"7 T 8.' 7 9 #.-.t O # = @ . , 3 > > < 1 1 X 1 ",
"6 ] s.q.t + 0 = * q :.z...= ; 2 5 & X 2 5 > , ",
"d I.|.[.1.i | | w *.(. XI.f x } K & n U I b , ",
"d B.|.[.1.w P | w 1.^.].Y.f x } Y - n 7.7.b X ",
"6 +.j.q.t * k k . q t.c.-.6 6 e ; * 1 m m 1 X ",
"6 T 8.' 8 * & . $ . = = * = f @.E = @ 3 1 o > ",
"t n.@X/.o.= F Y 2 1 D | k q M.OXY./ ; I K v > ",
"y U.^.|.2.s P 7.m 1 I } B h G.J.XX;.z | | N X ",
"7 w.F.l.E 6 K K v 1 V K u 9 y.E.M.g = x B ; . ",
"6 7 _ R 6 * . o & &   & @ O 8 Q 0 6 6 t t # @ ",
"6 u.R.v.f * F Z 1 & N K p $ u A l # &.Y.I.O.O ",
"R W.K.|.6.w { I N 1 L I J $ S { P q c.{.[.p.= ",
"t n.@X!.X.= G Y 4 - K U Z 1 m } F 8 e.[.oX4.# ",
"# d *.` # $ 3 5 < < 1 5 1 X o 4 3 @ q >.o.0 @ ",
"$ O   O $ , > < < < > > > X < X , $ @     % 1 "
};
