/* XPM */
static char *xpm_[] = {
/* columns rows colors chars-per-pixel */
"23 32 180 2 ",
"   c #0E0400",
".  c #0C0B04",
"X  c #070B09",
"o  c #0D0D0C",
"O  c #130500",
"+  c #1B0700",
"@  c #130B02",
"#  c #1C0B00",
"$  c #150F0B",
"%  c #0E110D",
"&  c #131003",
"*  c #1B1102",
"=  c #12120D",
"-  c #1B140B",
";  c #0E0D11",
":  c #110F13",
">  c #131313",
",  c #181515",
"<  c #171916",
"1  c #1B1A15",
"2  c #161519",
"3  c #19171A",
"4  c #1B1B1C",
"5  c #161A1D",
"6  c #250600",
"7  c #290700",
"8  c #210B00",
"9  c #2B0E00",
"0  c #380F00",
"q  c #241300",
"w  c #2C1400",
"e  c #261800",
"r  c #22180F",
"t  c #281808",
"y  c #301300",
"u  c #3A1300",
"i  c #331D00",
"p  c #3A1C00",
"a  c #281F10",
"s  c #271D16",
"d  c #1E211C",
"f  c #342201",
"g  c #3B2300",
"h  c #3C2A04",
"j  c #382409",
"k  c #222116",
"l  c #21221E",
"z  c #2E261D",
"x  c #33271C",
"c  c #322A1C",
"v  c #3B2A1A",
"b  c #1B1C20",
"n  c #211F23",
"m  c #232323",
"M  c #272824",
"N  c #292926",
"B  c #29272A",
"V  c #262929",
"C  c #2B2B2C",
"Z  c #282529",
"A  c #342D28",
"S  c #2D322E",
"D  c #383023",
"F  c #33342F",
"G  c #2F2F31",
"H  c #312F30",
"J  c #343434",
"K  c #383635",
"L  c #373934",
"P  c #3A3A36",
"I  c #363639",
"U  c #39373A",
"Y  c #3C3C3B",
"T  c #431E00",
"R  c #432300",
"E  c #482500",
"W  c #442A01",
"Q  c #4E2B00",
"!  c #432D08",
"~  c #542F00",
"^  c #4E3100",
"/  c #42310E",
"(  c #4B350C",
")  c #543301",
"_  c #5A3300",
"`  c #5D3803",
"'  c #5C3E0B",
"]  c #463410",
"[  c #4A3511",
"{  c #573F11",
"}  c #643700",
"|  c #613B00",
" . c #403738",
".. c #413C3A",
"X. c #403B35",
"o. c #3F413E",
"O. c #584206",
"+. c #584316",
"@. c #53411B",
"#. c #6B4401",
"$. c #6D4900",
"%. c #664309",
"&. c #714700",
"*. c #734C04",
"=. c #745200",
"-. c #77500B",
";. c #7F5908",
":. c #7B5510",
">. c #775A18",
",. c #6B4919",
"<. c #634E21",
"1. c #675321",
"2. c #6A5429",
"3. c #7C6227",
"4. c #3E3D41",
"5. c gray25",
"6. c #815703",
"7. c #8B5C14",
"8. c #8D671C",
"9. c #825E24",
"0. c #88672C",
"q. c #926927",
"w. c #966D2D",
"e. c #9E782D",
"r. c #9B7621",
"t. c #8C6F3D",
"y. c #8D6A34",
"u. c #997030",
"i. c #A17631",
"p. c #A67F34",
"a. c #A77F4B",
"s. c #B3872C",
"d. c #A78033",
"f. c #A88B3B",
"g. c #BD923B",
"h. c #AB8845",
"j. c #B88941",
"k. c #BE984D",
"l. c #BA9344",
"z. c #A89054",
"x. c #B09158",
"c. c #C69C47",
"v. c #C09551",
"b. c #CAA84F",
"n. c #DAAC4B",
"m. c #CAA35D",
"M. c #C6A358",
"N. c #D3AA55",
"B. c #DCB251",
"V. c #D6B15D",
"C. c #DAB05C",
"Z. c #E7B751",
"A. c #E6BD57",
"S. c #F0BF56",
"D. c #F2BF5A",
"F. c #C49E60",
"G. c #CEA660",
"H. c #CEAC69",
"J. c #DCAD69",
"K. c #D6B363",
"L. c #DEB964",
"P. c #DBB56A",
"I. c #D6B572",
"U. c #E4BB64",
"Y. c #E4BC69",
"T. c #EBBD6F",
"R. c #E0B570",
"E. c #E3BE70",
"W. c #EDC35C",
"Q. c #F2C25D",
"!. c #F4C55E",
"~. c #E5C06F",
"^. c #EAC76D",
"/. c #F3C564",
"(. c #F9CA65",
"). c #F1C668",
"_. c #F3CB69",
"`. c #E9C071",
"'. c #F3CD72",
"]. c #F7CA73",
/* pixels */
"# 8 9 8 + : X X % o X . . = o o X : o X X o : ",
"y t.F.0.# > N l : o l M % % 4 Z 4 ; , B n o o ",
"$.L./.L.( c X.L 2 s Y U m 2 U 4.G > J Y I < o ",
"| L.(.N.W t K L < b U U n ; I 4.C o C Y J < o ",
"9 | w.` 8 - 4 < ; : 4 b : % > 4 > X o 4 > o o ",
"w ' u.` # @ 4 > o : 2 2 o o = < o : > 4 < o ; ",
"| P.(.N.h x Y P < < P o.4 o L P Z o C U K 2 X ",
"*.Y.Q.U.( x Y Y 5 d Y Y M > F o.J = C 5.K < o ",
"p y.v.9.q - C d o : m V : X 4 C , o 4 C 4 ; o ",
"6 E &.T # @ $ o o ; : ; ; ; ; % o o X > X o $ ",
"_ c./.g.i r U S > > S I b : C U m o m U G > : ",
"-.Y.Q.Y.( x Y U 5 m o.Y B 2 U Y K > C Y Y 3 X ",
"E x.E.h.e k L S X - J J 4 X C U 4 o m U C > X ",
"6 R &.u # . X o % X > ; ; : o $ o o o o o ; o ",
"R p.B.r.w - F N % o V C 2 ; m C < o 4 C Z o $ ",
"*.E.D.Y.( c X.U < l Y 5.n > U P J : J Y U 4 X ",
") H._.M.h z P J > < U Y n > K Y C o M Y J > X ",
"9 ) 6.^ @ & - = X o 5 > ; ; > > ; : % < > o ; ",
"w :.s.=.q & 1 1 . % < d > ; < d < o > d < ; > ",
"%.I.(.V.v z X.U < 4 P o.4 : P Y V % C Y U < o ",
"%.J.).V./ z Y U < 4 Y P n > I Y S > C ..U > o ",
"u 7.s.*.w , n n > > M l 2 X 4 B 3 X , B 4 = % ",
"9 ) 6.Q + @ : o : o % % ; ; ; = : ; o : $ X o ",
") H.'.G.j s  .K : < F L b > C Y M ; B Y G > o ",
"$.`.W.L.[ z ..Y < m P o.V 5 I Y S % J U U 3 o ",
"R d.B.e.e t v v & = c c 1 o z D d & s D x , o ",
"7 u } u + 8 R w + + i p # 8 w g * # 8 g w O = ",
"T a.J.u.p 3.K.k.W ' m.G.,.R h.P.t.p 0.I.z.h . ",
"*.T.D.Z.=.b.A.!.8.e.!.!.j.7.W.W.C.&.n.W.^.>.O ",
"_ m.].c.Q f._.A.#.>._.).q.} n.(.l.) g.].K.O.@ ",
"8 ] 2.! + f 1.+.q q +.1.f 8 ( 1.h + g 2.@.* . ",
"* O O @ $ @ O O # @   O @ * &   . & + O O @ ; "
};
