/* XPM */
static char *xpm_[] = {
/* columns rows colors chars-per-pixel */
"26 32 80 1 ",
"  c black",
". c #010101",
"X c #020202",
"o c gray1",
"O c gray2",
"+ c #060606",
"@ c gray3",
"# c #353535",
"$ c #7B7B7B",
"% c #7E7E7E",
"& c #808080",
"* c gray51",
"= c #848484",
"- c gray52",
"; c gray53",
": c #888888",
"> c #898989",
", c gray54",
"< c #8B8B8B",
"1 c gray55",
"2 c #8D8D8D",
"3 c #8E8E8E",
"4 c #909090",
"5 c #929292",
"6 c #959595",
"7 c gray59",
"8 c #979797",
"9 c gray60",
"0 c #9B9B9B",
"q c gray61",
"w c #9D9D9D",
"e c gray62",
"r c #9F9F9F",
"t c #A0A0A0",
"y c gray63",
"u c #A2A2A2",
"i c gray64",
"p c #AAAAAA",
"a c #AEAEAE",
"s c #AFAFAF",
"d c gray69",
"f c #B4B4B4",
"g c gray74",
"h c gray76",
"j c #C3C3C3",
"k c #C5C5C5",
"l c gray78",
"z c #C8C8C8",
"x c #CACACA",
"c c #CBCBCB",
"v c gray80",
"b c #CDCDCD",
"n c #CECECE",
"m c gray81",
"M c #D0D0D0",
"N c gray82",
"B c #D2D2D2",
"V c LightGray",
"C c gray83",
"Z c #D5D5D5",
"A c gray84",
"S c #D7D7D7",
"D c #D8D8D8",
"F c gray85",
"G c #DADADA",
"H c gainsboro",
"J c #DDDDDD",
"K c gray87",
"L c gray90",
"P c #E9E9E9",
"I c gray92",
"U c gray97",
"Y c #F8F8F8",
"T c #F9F9F9",
"R c gray98",
"E c #FBFBFB",
"W c gray99",
"Q c #FDFDFD",
"! c #FEFEFE",
"~ c white",
/* pixels */
"WWWWWWWWEWEWWWWWWWWWWWWWWW",
"WWWWWWWWWWWWWWWWWWWWWWWWWW",
"WWWWEDbVbbbbVlPWWWWWWWWWWW",
"WWWEE=XXXXXXXXbWWWWWWWWWWW",
"EWWWW=XXXXXXXXbWWWWWWWWWWW",
"EEHlba0rirrir8gVxIEWWWWWWW",
"EW$X+AWWWWWWWE3X+bWEWWWWWW",
"WW4XXLWWWWWWWW0XXVWWWWWWWW",
"WW3XXDWWWWWWWWrXXAWWWWWWWW",
"WW<XXHWWWWWWWW0XXAWWWWWWWW",
"WW<XXHWWWWWWWW8XXAWWWWWWWW",
"WW<XXHWWWWWWWW0XXAWWWWWWWW",
"WW<XXDWWWWWWWW0XXVWEWWWWWW",
"WW<XXHWWWWWWWW8XXAEWEWWWWW",
"WW3XXHWWWWWWWWrXXpDbIEWWWW",
"WW3XXDWWWWWWWW0X#XXXbWWWWW",
"WW<XXHWWWWWWWW3XXXXXlWWWWW",
"WW<XXHWWWWWWWUg<884<hVALWW",
"WW<XXHWWWWWWEWWWWWWW0XXxWW",
"WW<XXHWWWWWWWWWWWWWWrXXbWW",
"WW3XXDWWWWWWWWWWWWWWiXXVWW",
"WW<XXHWWWWWWWWWWWWWWrXXVWW",
"WW<XXHWWWWWWWWWWWWWWrXXVWW",
"WW<XXHWWWWWWWWWWWWWWrXXbWW",
"WW3XXDWWWWWWWWWWWWEWrXXVWW",
"WW&XXVWWWWWWWWWWWWWW8XXlWW",
"EEf&=hLHHHHDLDHHHLAAa==AWW",
"WEWWE<XXXXXXXXXXXXX+VWWWWW",
"WWWEW=XXXXXXXXXXXXXXxWWWWW",
"WWWEWd&333<3<333<<<$DWWWWW",
"WWWWWWWWWWWWWWWWWWWWWWWWWW",
"WWWWWWWWWWWWWWWWWWWWWWWWWW"
};
