/* XPM */
static char *xpm_[] = {
/* columns rows colors chars-per-pixel */
"26 32 90 1 ",
"  c black",
". c #010101",
"X c #020202",
"o c gray1",
"O c #040404",
"+ c #060606",
"@ c gray3",
"# c #222222",
"$ c #232323",
"% c gray14",
"& c gray37",
"* c #7B7B7B",
"= c #7C7C7C",
"- c #7E7E7E",
"; c #818181",
": c gray51",
"> c #838383",
", c gray52",
"< c #868686",
"1 c gray53",
"2 c #898989",
"3 c gray54",
"4 c #8B8B8B",
"5 c gray55",
"6 c #8D8D8D",
"7 c #8E8E8E",
"8 c gray56",
"9 c #929292",
"0 c #939393",
"q c gray58",
"w c #959595",
"e c gray59",
"r c #979797",
"t c #989898",
"y c gray60",
"u c #9A9A9A",
"i c #9B9B9B",
"p c gray61",
"a c #9D9D9D",
"s c gray62",
"d c #9F9F9F",
"f c #A0A0A0",
"g c gray63",
"h c gray68",
"j c #AEAEAE",
"k c #AFAFAF",
"l c gray69",
"z c #B1B1B1",
"x c gray73",
"c c gray",
"v c #C3C3C3",
"b c #C5C5C5",
"n c gray78",
"m c #C8C8C8",
"M c #CACACA",
"N c #CBCBCB",
"B c gray80",
"V c #CDCDCD",
"C c #CECECE",
"Z c gray81",
"A c #D0D0D0",
"S c gray82",
"D c #D2D2D2",
"F c LightGray",
"G c gray83",
"H c #D5D5D5",
"J c gray84",
"K c #D8D8D8",
"L c gray85",
"P c #DADADA",
"I c gray86",
"U c gainsboro",
"Y c #DDDDDD",
"T c gray87",
"R c #DFDFDF",
"E c #E2E2E2",
"W c #E6E6E6",
"Q c gray92",
"! c #EEEEEE",
"~ c #F4F4F4",
"^ c #F6F6F6",
"/ c gray97",
"( c #F8F8F8",
") c #F9F9F9",
"_ c gray98",
"` c #FBFBFB",
"' c gray99",
"] c #FDFDFD",
"[ c #FEFEFE",
"{ c white",
/* pixels */
"''''''''''''''''`''`''''''",
"''''''''''''''''''''''''''",
"''''`JVFVVVFJFVFVVFMQ'''''",
"'''`',XXXXXXXOXXXXXXV'''''",
"`'''',XXXXXX$$OXXXXXM'`'''",
"'`KnVjisgsg&XO=gsssrxFMW''",
"`'*X@K'''''sXXK'''''iXXM''",
"''9XXE'''''9XXJ'`'''gXXV''",
"''7XXK'''''iXXF'''''sXXF''",
"''4XXU'''''rXXJ`''''sXXF''",
"''4XXU'''''7XOM'''''sXXV''",
"''4XXU'''``c77U'''''sXXF''",
"''4XXK'''`''''''''''sXXF''",
"''4XXU''''''''''''''sXXV''",
"''7XXU''''''''''''''sXXF''",
"''7XXK''''''''''''''sXXJ''",
"''4XXU''''''''''''''sXXF`'",
"''4XXU''''''''''''''sXXF''",
"''4XXK''''''''''`'''sXXV''",
"''4XXU''''''''''''''sXXF''",
"''7XXK''EFV!'^EFJQ`'sXXV''",
"''4XXU''4XXF''4XOM''sXXF''",
"''4XXU''9XXJ''iXXJ''sXXV''",
"''4XXU''9XXK''rXXF''gXXF''",
"''7XXK''7XXJ''rXXK''iXXF''",
"'';XXF''9XXJ''iXXF''rXXn''",
"`'l,;vJU*XXjUU;XXjKJh,,J''",
"'`'''7XOX$$OOXX$%XXXF'''''",
"'''`';OXXXXXXXXOXXXXM'''''",
"''''`l;797747777777*K'''''",
"''''''''''''''''''`'''''''",
"''''''''''''''''''''''''''"
};
