/* XPM */
static char *xpm_[] = {
/* columns rows colors chars-per-pixel */
"26 32 87 1 ",
"  c black",
". c #010101",
"X c #020202",
"o c gray1",
"O c #040404",
"+ c gray2",
"@ c #070707",
"# c gray3",
"$ c gray13",
"% c gray14",
"& c #252525",
"* c gray15",
"= c gray37",
"- c #7B7B7B",
"; c #7C7C7C",
": c gray49",
"> c #7E7E7E",
", c #818181",
"< c gray51",
"1 c #838383",
"2 c gray52",
"3 c #868686",
"4 c #888888",
"5 c #898989",
"6 c #8B8B8B",
"7 c gray55",
"8 c #8D8D8D",
"9 c #8E8E8E",
"0 c #909090",
"q c #929292",
"w c #939393",
"e c gray58",
"r c #959595",
"t c gray59",
"y c #989898",
"u c gray60",
"i c #9A9A9A",
"p c #9B9B9B",
"a c #9D9D9D",
"s c gray62",
"d c #9F9F9F",
"f c #A0A0A0",
"g c gray63",
"h c #AEAEAE",
"j c #AFAFAF",
"k c gray69",
"l c #B1B1B1",
"z c #B2B2B2",
"x c gray",
"c c #C3C3C3",
"v c #C5C5C5",
"b c gray78",
"n c #C8C8C8",
"m c gray79",
"M c #CACACA",
"N c #CBCBCB",
"B c gray80",
"V c #CDCDCD",
"C c #CECECE",
"Z c gray81",
"A c #D0D0D0",
"S c gray82",
"D c #D2D2D2",
"F c LightGray",
"G c gray83",
"H c #D5D5D5",
"J c gray84",
"K c #D8D8D8",
"L c gray85",
"P c #DADADA",
"I c gray86",
"U c gainsboro",
"Y c #DDDDDD",
"T c gray87",
"R c #DFDFDF",
"E c #E6E6E6",
"W c #E7E7E7",
"Q c #EEEEEE",
"! c gray97",
"~ c #F8F8F8",
"^ c #F9F9F9",
"/ c gray98",
"( c #FBFBFB",
") c gray99",
"_ c #FDFDFD",
"` c #FEFEFE",
"' c white",
/* pixels */
"))))))))()))))))())())))))",
"))))))))))))))))))))))))))",
"))))(JVFMFFVFVVJFFVMW)))))",
")))()2XXXXXXXXXXXXXXV)))))",
"())))2XXXXXXXXX%%XXXM))())",
"((UbVhpsffffss=XX-spxFVE))",
"()-X@J))))))()sXXP))pXXV))",
"))0XXE))))))))tXXV))sXXV))",
"))9XXP))))))))pXXJ))sXXF))",
"))6XXU))))))))sXXJ))sXXV))",
"))6XXU))))))()6@@b))sXXF))",
"))6XXU)))))))(x09P))pXXF))",
"))6XXP))))))))))))()sXXV))",
"))6XXP))))))))))()))sXXF))",
"))9XXP))))))))))))))sX@V))",
"))9XXP))))))))))))))pXXJ))",
"))6XXU))))))))))))))sXXF))",
"))6XXU))))))))))))))sXXV))",
"))6XXP))))))))))))))sXXF))",
"))6XXU))))))))))))))sXXF))",
"))9XXP))EFVQ))))))))fXXV))",
"))6XXU))2X@F))))))))sXXF))",
"))6XXU))0XXP))))))))fXXF))",
"))6XXU))tXXP))))))))sXXV))",
"))9XXP))9XXJ))))))()sXXV))",
"))1XXF))0XXJ))))))))tXXb))",
"()l11cJU-XXlEUPPUEJJh22J))",
")()))9XXX%%XXXXXXXX@F)))))",
")))()1XXXXXXXXXXXXXXM)))))",
"))))(l1999966999666;P)))))",
"))))))))))))))))))))))))))",
"))))))))))))))))))))))))))"
};
