/* XPM */
static char *xpm_[] = {
/* columns rows colors chars-per-pixel */
"26 32 72 1 ",
"  c black",
". c #010101",
"X c #020202",
"o c gray1",
"O c #040404",
"+ c gray47",
"@ c #7C7C7C",
"# c gray49",
"$ c #7E7E7E",
"% c #838383",
"& c gray52",
"* c #868686",
"= c gray53",
"- c #898989",
"; c gray54",
": c #8B8B8B",
"> c #8D8D8D",
", c #8E8E8E",
"< c gray56",
"1 c #909090",
"2 c gray57",
"3 c #939393",
"4 c gray59",
"5 c #979797",
"6 c #9B9B9B",
"7 c #A0A0A0",
"8 c gray63",
"9 c #A2A2A2",
"0 c #A4A4A4",
"q c #AFAFAF",
"w c #B1B1B1",
"e c #B4B4B4",
"r c gray71",
"t c gray",
"y c #C0C0C0",
"u c gray77",
"i c #C5C5C5",
"p c #C6C6C6",
"a c #C8C8C8",
"s c gray79",
"d c #CACACA",
"f c #CBCBCB",
"g c gray80",
"h c #CDCDCD",
"j c #CECECE",
"k c gray81",
"l c #D0D0D0",
"z c gray82",
"x c #D2D2D2",
"c c #D5D5D5",
"v c gray84",
"b c #D7D7D7",
"n c gray85",
"m c #DADADA",
"M c gray86",
"N c gainsboro",
"B c #DDDDDD",
"V c gray87",
"C c #DFDFDF",
"Z c #E2E2E2",
"A c #E7E7E7",
"S c #EFEFEF",
"D c #F6F6F6",
"F c gray97",
"G c #F8F8F8",
"H c #F9F9F9",
"J c gray98",
"K c #FBFBFB",
"L c gray99",
"P c #FDFDFD",
"I c #FEFEFE",
"U c white",
/* pixels */
"KUKUFKKKUKUUUKUUKUKKKUUUUU",
"UUUUKKUUUUUUUUUUUKUKKFKUUU",
"UUUKUn@2<<<<<<<<<22@eUUUUU",
"UFKFUp              @UKKKU",
"UFUKUfO             :KUKKU",
"KKn&&qbBnnnBnBnnBBbby<&wKK",
"FUp O6UUUUUUUUUUUUUUnO &UU",
"UUb  6UKUKUKKUKKUKKUB  2UU",
"KUj  7UUUUKUUUUUUUKUn  <KU",
"KUj  7UUUUUUUUUUUUKUn  <UU",
"UUj  7UUUUUUUKUUUUKUn  <KU",
"KUl  6UKUUKUUUKUUUUUn  <UU",
"KUl  7UUUKKKKKKKUUKUn  <UU",
"UUj  7UKUUKKUUKKUUKUn  <UK",
"KUj  7UUUUKB::yKUUKUn  <KU",
"KUj  7UUKFUj  :UUUKUn  <UU",
"UUl  7UUKKUj  &UKKKUn  2UU",
"KUj  6UKUUFSjfBKUUKUn  2UU",
"KUj  7UUUKKUUUUKUUKUn  <KU",
"UUl  7UKUUUUFUKKUUKUn  <UU",
"KUj  7UUUUKKUUKUUUKUn  <UU",
"KUj  7UUUUUUUUUUUUUUn  <UK",
"UUj  7UKUUUUKUUUUUKUn  <KU",
"KUl  6UKUUUUUUUUKUKUn  2UU",
"FUj  6UUUUKUKUUUKUFUb  <KU",
"UUf O2UUUUUUUUUUUKUUb  +UU",
"KKZplt47777760706776ejpbKK",
"UKUUUlO O        O  &UUUKU",
"UKUFUp              @UFUUU",
"UUUKUAfljjjjjjjjllffbFUUUU",
"UUUKKUUUUUUUUUUUUUUUUUFUUU",
"UKUUUUKKKUKKKUKKKKUUKUUUUU"
};
