/* XPM */
static char *xpm_[] = {
/* columns rows colors chars-per-pixel */
"23 32 198 2 ",
"   c #0E0201",
".  c #0E0C03",
"X  c #0D0D0D",
"o  c #140500",
"O  c #1E0700",
"+  c #150C02",
"@  c #1B0C01",
"#  c #110D0B",
"$  c #0D100C",
"%  c #131205",
"&  c #1C1201",
"*  c #13120D",
"=  c #1A140A",
"-  c #0E0E11",
";  c #120D12",
":  c #141213",
">  c #1A1413",
",  c #161814",
"<  c #1A1B16",
"1  c #161418",
"2  c #1B151C",
"3  c #1C1C1D",
"4  c #200600",
"5  c #210C00",
"6  c #2A0B00",
"7  c #360D00",
"8  c #231300",
"9  c #2B1400",
"0  c #261800",
"q  c #2C1B00",
"w  c #241B0D",
"e  c #311100",
"r  c #321C00",
"t  c #3B1A00",
"y  c #3E1600",
"u  c #201511",
"i  c #261E14",
"p  c #2A1E14",
"a  c #281E1F",
"s  c #261C1A",
"d  c #1E201C",
"f  c #332300",
"g  c #3B2500",
"h  c #372905",
"j  c #3D2909",
"k  c #2B2213",
"l  c #24221D",
"z  c #2A251A",
"x  c #2A2819",
"c  c #32261A",
"v  c #342B1C",
"b  c #322111",
"n  c #35301D",
"m  c #1D1D22",
"M  c #221E22",
"N  c #1F2023",
"B  c #252425",
"V  c #292524",
"C  c #2C2A23",
"Z  c #272629",
"A  c #2C2C2B",
"S  c #28262B",
"D  c #302720",
"F  c #342C25",
"G  c #322D2D",
"H  c #2F312E",
"J  c #36322D",
"K  c #393526",
"L  c #2E2F33",
"P  c #312F32",
"I  c #333434",
"U  c #3B3433",
"Y  c #3B3A36",
"T  c #363539",
"R  c #3B353A",
"E  c #3B3B3A",
"W  c #353A39",
"Q  c #431A00",
"!  c #432400",
"~  c #442A06",
"^  c #412B0A",
"/  c #4C2800",
"(  c #522E00",
")  c #473205",
"_  c #4E3A0B",
"`  c #4D3306",
"'  c #553504",
"]  c #5A3300",
"[  c #583807",
"{  c #51360A",
"}  c #5B3B0C",
"|  c #563F0D",
" . c #483610",
".. c #4B3911",
"X. c #533E12",
"o. c #5C3F13",
"O. c #603400",
"+. c #693D00",
"@. c #623D00",
"#. c #433C36",
"$. c #423C3C",
"%. c #564016",
"&. c #5C4314",
"*. c #5F4B19",
"=. c #6C4501",
"-. c #6B4902",
";. c #6A4109",
":. c #724603",
">. c #764D00",
",. c #734C09",
"<. c #79540A",
"1. c #7B5404",
"2. c #61491D",
"3. c #674514",
"4. c #774E10",
"5. c #785518",
"6. c #7E611B",
"7. c #5B4722",
"8. c #43403C",
"9. c #644F24",
"0. c #695427",
"q. c #725822",
"w. c #7D6736",
"e. c #3C3C41",
"r. c #423C40",
"t. c #81550B",
"y. c #8A5A0E",
"u. c #825B16",
"i. c #876110",
"p. c #886018",
"a. c #8C6C19",
"s. c #936B1C",
"d. c #92661D",
"f. c #8F6420",
"g. c #83652E",
"h. c #896728",
"j. c #956C23",
"k. c #956F28",
"l. c #9B762B",
"z. c #836936",
"x. c #99783A",
"c. c #AA7D28",
"v. c #A87B37",
"b. c #947C49",
"n. c #AC8128",
"m. c #A78035",
"M. c #B28932",
"N. c #B88F3D",
"B. c #B3882A",
"V. c #AD8B44",
"C. c #AE8C4D",
"Z. c #B38B48",
"A. c #BB8D4A",
"S. c #BA974B",
"D. c #A78650",
"F. c #BD9B5A",
"G. c #C09747",
"H. c #C49F57",
"J. c #D9AF4D",
"K. c #CEAB56",
"L. c #CBA95A",
"P. c #C3A356",
"I. c #D5AD53",
"U. c #D1AC5C",
"Y. c #D8AC53",
"T. c #D6B25F",
"R. c #DEB759",
"E. c #C8A348",
"W. c #E1B14F",
"Q. c #EDBE5A",
"!. c #EABD59",
"~. c #C6A462",
"^. c #CAA467",
"/. c #D3A864",
"(. c #DBB56B",
"). c #D7BA6C",
"_. c #D6B362",
"`. c #D2AB70",
"'. c #D9B070",
"]. c #DEB972",
"[. c #E4BD64",
"{. c #E2B76A",
"}. c #F0BF60",
"|. c #E2BA72",
" X c #EDC25C",
".X c #F4C55D",
"XX c #EEC364",
"oX c #EEC569",
"OX c #F4C561",
"+X c #F9C664",
"@X c #F4C963",
"#X c #F3CA6B",
"$X c #F0C569",
"%X c #E7C172",
"&X c #EBC373",
"*X c #F3CB71",
"=X c #F3C87A",
"-X c #F6C577",
/* pixels */
"- - $ % + & e 6 4 4 9 9 o @ 9 9 @ @ + # X * X ",
"- m A = & w.^.x.r 3.F.Z.` ! V.F.9.+ i H < $ # ",
"< W r.c ) )..XQ.t.A.+X+Xk.f..X.XH.f F E I , # ",
"= K #.b g P.@XR.+.v.+X Xu.<. XOXC.r n E A , # ",
"& & & & @ _ z.3.5 t g.q.0 8 q.z.^ @ @ & % + * ",
"0 0.b.%.@ & 0 & + + 0 8 . + @ 0 @ 5 *.b.7.& + ",
"<.%XoXS.f n 8.J * l Y Y < < E 8.k ) _.$X(.' o ",
"i.#X@XK.f n E W * V e.e.d , e.$.k X.[.OX{.[ o ",
"! x.Z.3.@ , A 3 # ; V V * - N Z = 9 h.S.g.9 + ",
"6 ] :.Q @ X $ X # ; # # $ - - $ # @ ! -.! o # ",
"=.Y.+XM.9 D E L - 3 U J 1 1 G U w f E.@XH.! + ",
"s.$X!.I.^ F #.R 1 S W W M 2 E #.x X.[.Q.%Xo.# ",
"] F.(.k.8 s R V - 2 L L : : S U u r C.{.D.r + ",
"6 / =.e o . ; X ; X - X - X # # o 4 Q :.! 4 @ ",
"( N.J.a.5 i G B ; 1 L S : ; S G = r c.J.m.t @ ",
"d.&X+XK.j J E R : Z e.e.B 2 e.R c o.[.}.|.o.o ",
"+.'.=XV.9 D $.P # B E R 2 1 U #.s ^ ^.-X^.^ @ ",
"7 ] >.! @ # ; ; - X : : ; ; * > + @ / 1.( 4 + ",
"Q j.M.-.& = M 2 - - 3 M ; ; 3 d + 8 1.B.u.9 + ",
"u.%XXXL.h C $.R - B R R m m T E z _ [.@X(.` + ",
"u.&X*XP.r F r.R - N e.W 3 < R E z  ._.@X(.| @ ",
"Q u.c.@.5 u M s - - l d $ $ l B = 5 >.n.-.9 @ ",
"7 +.y./ @ + > X $ $ , $ X X ; > o 5 O.y.] 5 @ ",
"4.|.-XZ.q x Y L X d W I , * U #.i ^ /.-X`.~ o ",
"f.|. XU.h C $.E > Z E W d < E $.v %.[. X|.| + ",
"/ A.U.6.8 k v p + i D F % = k n 8 0 l.T.x.q + ",
"@ & q @ & 0 g r O 4 g r 5 @ r g @ @ 5 0 + + % ",
": V Y w 8 b.).V.! 5._.L.} ' H.(.w.8 k J l * X ",
"3 R W v { |.OX!.t.G..X.Xl.j.+X X~.g K Y I * X ",
", A E k r F.*XI.] k.XXXX,.=.!.oXx.0 x 8.A X * ",
"# * , . + h 9.) 5 r *.&.8 5 X.2.f + $ , ; # ; ",
"# # X % % .   o + + o o @ & o o + * : ; : # $ "
};
