/* XPM */
static char *xpm_[] = {
/* columns rows colors chars-per-pixel */
"26 32 87 1 ",
"  c black",
". c #010101",
"X c #020202",
"o c gray1",
"O c #040404",
"+ c gray2",
"@ c #060606",
"# c gray6",
"$ c #353535",
"% c #747474",
"& c gray48",
"* c #7C7C7C",
"= c gray49",
"- c #7E7E7E",
"; c #808080",
": c gray51",
"> c #838383",
", c gray52",
"< c #868686",
"1 c gray53",
"2 c #888888",
"3 c gray54",
"4 c #8B8B8B",
"5 c #8D8D8D",
"6 c #8E8E8E",
"7 c gray56",
"8 c #909090",
"9 c gray57",
"0 c #929292",
"q c #939393",
"w c #959595",
"e c gray59",
"r c #979797",
"t c #989898",
"y c gray60",
"u c #9B9B9B",
"i c gray61",
"p c #9F9F9F",
"a c #A0A0A0",
"s c gray63",
"d c #A2A2A2",
"f c gray64",
"g c #A4A4A4",
"h c #ACACAC",
"j c #AFAFAF",
"k c #B1B1B1",
"l c gray70",
"z c gray71",
"x c #B9B9B9",
"c c gray",
"v c gray77",
"b c #C5C5C5",
"n c #C6C6C6",
"m c #C8C8C8",
"M c gray79",
"N c #CACACA",
"B c gray80",
"V c #CDCDCD",
"C c #CECECE",
"Z c gray81",
"A c #D0D0D0",
"S c gray82",
"D c #D2D2D2",
"F c LightGray",
"G c gray83",
"H c gray84",
"J c #D7D7D7",
"K c #D8D8D8",
"L c gray85",
"P c #DADADA",
"I c gray86",
"U c gainsboro",
"Y c #DDDDDD",
"T c gray87",
"R c #E1E1E1",
"E c #E2E2E2",
"W c #E7E7E7",
"Q c #E9E9E9",
"! c #F6F6F6",
"~ c #F8F8F8",
"^ c #F9F9F9",
"/ c gray98",
"( c #FBFBFB",
") c gray99",
"_ c #FDFDFD",
"` c #FEFEFE",
"' c white",
/* pixels */
"('('('(('''(''''('((((''''",
"''''(!'''''''''''(''((('''",
"'''('L&005555505505=z'''''",
"'!(!'n              ='!(('",
"'!'('N+          +  4''(('",
"'(L,,jJYLLLYLYLLYYJJv5,k((",
"!'n  u''''''''''''''L+ ,''",
"('J  p'('('(('(('(!'L  0''",
"('V  a''('''''''''('L  0('",
"''V  a'''(!'((((''('L  5''",
"''A  a''''(((''(''('L  0('",
"('V  p'('('Y54x(''('L  5''",
"('A  a''(('V  4'''('L  5''",
"''A  a'('('N+ ,'('('L  0'(",
"('V  a'''((WVAY('(('L  5('",
"('V  a'''''''''(('('L  4''",
"''V  p''(''(((('('''A  &''",
"('A  p'('(''((Y4uuu0hJAY('",
"('A  a''''''('V++   ,'('('",
"''V  a'(''('('J $#  ;('(''",
"('V  a''('''((J  %AVL(''('",
"('V  a''''''''J  u'''(''''",
"''A  a'(''''('J  0'(('''''",
"('A  p'(''('''L  r'''''(''",
"!'N  u''('((''A  r''''''''",
"''N +0''''''('V+ =('('('''",
"((RNVvraaaaaaukVnL((''''''",
"'('''A  +     5'''(('(''''",
"'''!'n        ,'('''''''''",
"'''('WNAVAVJVnJ('(''('('''",
"'''(('''''(''''(''''''''''",
"'(''''((((('('('''(''(''''"
};
