/* XPM */
static char *xpm_[] = {
/* columns rows colors chars-per-pixel */
"23 32 197 2 ",
"   c #070707",
".  c #0D0500",
"X  c #0B0B05",
"o  c #0B070B",
"O  c #0C0D0D",
"+  c #070906",
"@  c #140400",
"#  c #1A0500",
"$  c #140C01",
"%  c #1C0C00",
"&  c #130E0E",
"*  c #1C0F08",
"=  c #0D110D",
"-  c #131007",
";  c #1C1101",
":  c #11110D",
">  c #1B150C",
",  c #0E0E11",
"<  c #110E13",
"1  c #0F1212",
"2  c #121313",
"3  c #1B1414",
"4  c #151915",
"5  c #191916",
"6  c #151519",
"7  c #17181A",
"8  c #1B1B1C",
"9  c #220C00",
"0  c #2A0C00",
"q  c #270500",
"w  c #231400",
"e  c #2B1500",
"r  c #241800",
"t  c #2C1A01",
"y  c #241B0B",
"u  c #261B0C",
"i  c #311400",
"p  c #391200",
"a  c #321B01",
"s  c #3C1C00",
"d  c #201710",
"f  c #211D12",
"g  c #281E19",
"h  c #1F201B",
"j  c #2D2000",
"k  c #332200",
"l  c #3B2301",
"z  c #3D2A06",
"x  c #362803",
"c  c #23221C",
"v  c #2B2517",
"b  c #322614",
"n  c #32231B",
"m  c #322A1B",
"M  c #1D1C24",
"N  c #1E2122",
"B  c #232323",
"V  c #2A2A25",
"C  c #272629",
"Z  c #28272C",
"A  c #272A2A",
"S  c #2C2C2B",
"D  c #292726",
"F  c #342F2B",
"G  c #382F27",
"H  c #273129",
"J  c #32322D",
"K  c #3A342B",
"L  c #2E2E31",
"P  c #322E33",
"I  c #343434",
"U  c #363836",
"Y  c #3C3B36",
"T  c #363539",
"R  c #373C3A",
"E  c #3B3B3B",
"W  c #3C3736",
"Q  c #401A00",
"!  c #432300",
"~  c #422A01",
"^  c #4F2A00",
"/  c #422F0F",
"(  c #4B2500",
")  c #532D00",
"_  c #473100",
"`  c #4B3304",
"'  c #443109",
"]  c #4F380B",
"[  c #553401",
"{  c #5A3500",
"}  c #523800",
"|  c #5C3C00",
" . c #4F3510",
".. c #523D13",
"X. c #513510",
"o. c #603700",
"O. c #653D00",
"+. c #463F34",
"@. c #40373A",
"#. c #413D3C",
"$. c #5E4301",
"%. c #634403",
"&. c #694204",
"*. c #6A490D",
"=. c #724B01",
"-. c #7A4F00",
";. c #764F0A",
":. c #6E5105",
">. c #7A5205",
",. c #624513",
"<. c #6E4E13",
"1. c #604915",
"2. c #704C12",
"3. c #6E541B",
"4. c #765516",
"5. c #7F5815",
"6. c #7C591C",
"7. c #79571A",
"8. c #44403D",
"9. c #664C24",
"0. c #7E5F29",
"q. c #755C28",
"w. c #7E642A",
"e. c #7E6336",
"r. c gray25",
"t. c #835909",
"y. c #825C17",
"u. c #8A6316",
"i. c #926A1D",
"p. c #82652D",
"a. c #926723",
"s. c #9D7226",
"d. c #9D752D",
"f. c #98782F",
"g. c #866D37",
"h. c #947435",
"j. c #9B7537",
"k. c #A47C37",
"l. c #957C46",
"z. c #AC8124",
"x. c #AC8332",
"c. c #B58A39",
"v. c #A58545",
"b. c #AB8A45",
"n. c #A8854A",
"m. c #B78F47",
"M. c #BA8F46",
"N. c #AE934E",
"B. c #BA9048",
"V. c #BD9444",
"C. c #BA9D59",
"Z. c #B99B65",
"A. c #BAA168",
"S. c #C39B4B",
"D. c #C89F43",
"F. c #C49E57",
"G. c #CDA54E",
"H. c #D9AA4A",
"J. c #CFA85D",
"K. c #C9A257",
"L. c #D3AB5A",
"P. c #D8AF5D",
"I. c #DDB155",
"U. c #D9B45B",
"Y. c #EABF57",
"T. c #EDBD5B",
"R. c #E3B858",
"E. c #F1BF5E",
"W. c #C79F61",
"Q. c #C3A363",
"!. c #D3AE60",
"~. c #DCB664",
"^. c #D7B669",
"/. c #DBB46E",
"(. c #DCBA6A",
"). c #DEBA66",
"_. c #E3BB65",
"`. c #E9BF64",
"'. c #E1BB6A",
"]. c #E8BE6A",
"[. c #EFC35A",
"{. c #F4C45E",
"}. c #F6CA5F",
"|. c #EFC362",
" X c #EFC968",
".X c #E9C16C",
"XX c #F2C364",
"oX c #F9C562",
"OX c #F5C964",
"+X c #F9CA63",
"@X c #F2C46B",
"#X c #F3C86C",
"$X c #EFC976",
"%X c #EBC771",
"&X c #F5C877",
"*X c #F8CA74",
"=X c #DEBE81",
/* pixels */
"% % r 9 % 9 e 0 % ; w w 9 9 q i % % $ X o = O ",
"r g.K.h.i 9.W.b.~ _ N.C.,.p j.W.e.e > H B , O ",
"%.(.[.I.>.B.[.OXu.i.OXOXm.t.T.XX/.` b r.E M o ",
"[ L.+XH.O.c.OX[.;.u.|.XXk.O.I.@XJ.~ b Y I 6 , ",
"0 { a.O.0 ~ p.3.e t q.w.z 9 1.g.X.9 $ w $ - < ",
"e ,.d.&.9 % e w % $ w w $ $ ; r ; % ] l.q.r * ",
"[ ~.+XI.` v +.E 5 5 K Y c - K +.m k S.OX.X<.@ ",
"O.~.OXR...n E E 8 M E E V = I +.K k G.}.#X6.# ",
"e w.B.y.e > V B O & B B 2 O 8 D 3 9 2.m.h.k $ ",
"q ! =.( % $ : , < & & & o 1 O < $ 9 s =.[ % % ",
"^ S.+XD.l u Y L 2 3 P U 8 O L @.n e x.XXU.$.$ ",
"O.'.[.`...m #.E 8 8 E E H 2 I #.G z !.T.%Xw.. ",
"! v._.b.k y G F : 4 V K 4 = V K f ; g.=XZ.' $ ",
"q ! >.Q # % a w $ % t a X X ; j * . w z t $ : ",
"Q d.I.s.Q 6.L.V.) [ S.L.:.l x.P.h.t r m v $ : ",
"&.'.[.Y.;.F.E.oXi.s.{.E.m.5.E.T./.` m E R 5 O ",
") W.&XG.} v.%X.X<.6.E.].h.| P.$XA.x v @.T 6 , ",
"q ) -.) 0 l 4.%.e p 2.4.l $ } 0./ $ $ > 1 , , ",
"p y.c.>.e $ t r $ $ w u $ $ % y % $ > g M , = ",
"o./.OX~.X.n #.E 7 M E #.B 2 U E K & Z R U 6 = ",
"$.^. X).X.g +.T 6 8 W #.B 2 U Y P < L r.R 2 = ",
"0 :.z.=.0 d c M O < M C = X 4 A M < 6 B h 1 + ",
"0 | t.{ 9 $ 2 & < , < < = : : 2 o < , 2 = = 1 ",
"_ Q.*XJ./ f Y U 6 6 T E 8 : S E Z < B E J 1 = ",
"%.(.XX]...n Y E 8 8 E r.A 2 U E I : S Y R 4 O ",
"a f.H.s.t f H S < 4 S S 5 1 B U h X 5 J V 1 , ",
"w t { p # X X O , o O + O < o O X : O O   O 2 ",
"s n./.n.a y L A 2 4 H J 3 o Z T B X 8 J Z 2 , ",
"&.'.T._...m +.E 8 N R R C 6 T E L 7 I E E 5 O ",
"^ K.#XK.z u E L 2 6 U R M , L E A o B U L 2 , ",
"% ' 9.z $ O 6 2 , O 2 6 , , : 2 1 o = 2 1 = 1 ",
"- @ @ $ : = < < < , , , , , : o 2 , 2 O + 1 , "
};
