/* XPM */
static char *xpm_[] = {
/* columns rows colors chars-per-pixel */
"26 32 89 1 ",
"  c black",
". c #010101",
"X c #020202",
"o c gray1",
"O c #040404",
"+ c gray2",
"@ c #060606",
"# c gray3",
"$ c #0B0B0B",
"% c #0E0E0E",
"& c #131313",
"* c #161616",
"= c #232323",
"- c #2A2A2A",
"; c #2C2C2C",
": c #2D2D2D",
"> c #343434",
", c #7C7C7C",
"< c gray49",
"1 c #7E7E7E",
"2 c gray50",
"3 c #838383",
"4 c gray52",
"5 c #868686",
"6 c #888888",
"7 c #898989",
"8 c gray54",
"9 c #8B8B8B",
"0 c #8D8D8D",
"q c #8E8E8E",
"w c gray56",
"e c #909090",
"r c gray57",
"t c #939393",
"y c gray59",
"u c #979797",
"i c #9B9B9B",
"p c gray62",
"a c #A0A0A0",
"s c gray63",
"d c #A4A4A4",
"f c #A5A5A5",
"g c #AFAFAF",
"h c #B1B1B1",
"j c gray71",
"k c gray73",
"l c gray",
"z c gray75",
"x c #C0C0C0",
"c c gray77",
"v c #C5C5C5",
"b c #C6C6C6",
"n c #C8C8C8",
"m c gray79",
"M c #CACACA",
"N c #CBCBCB",
"B c gray80",
"V c #CDCDCD",
"C c #CECECE",
"Z c gray81",
"A c #D0D0D0",
"S c gray82",
"D c #D2D2D2",
"F c LightGray",
"G c gray84",
"H c #D7D7D7",
"J c #D8D8D8",
"K c gray85",
"L c #DADADA",
"P c gray86",
"I c gainsboro",
"U c #DDDDDD",
"Y c gray87",
"T c #DFDFDF",
"R c #E2E2E2",
"E c #E7E7E7",
"W c gray93",
"Q c #EFEFEF",
"! c gray96",
"~ c #F6F6F6",
"^ c gray97",
"/ c #F8F8F8",
"( c #F9F9F9",
") c gray98",
"_ c #FBFBFB",
"` c gray99",
"' c #FDFDFD",
"] c #FEFEFE",
"[ c white",
/* pixels */
"_[_[^___[[[[_[[[_[____[[[[",
"[[[[__[[[[[[[[[[[_[[___[[[",
"[[[_[K,rr00000r00r0<j[[[[[",
"[^_^[b              <[^__[",
"[^_[[NO          O  0[[__[",
"__K44gHUKKKUKUKKUUHHx04h__",
"_[b  i[[[[[[[[[[[[[[KO 4[[",
"_[H  p[_[_[__[__[_^[U  r[[",
"_[Z  a[[[[[[[[[[[[_[K  r_[",
"_[Z  a[[[_[[[[[[[[[[K  0[[",
"[[Z  a[[_[[[[_[[[[_[K  r_[",
"_[Z  p[_[[_[[[_[[[[[K  0[[",
"_[Z  a[[[[______[[_[K  r[[",
"_[Z  a[__[__[[___[_[K  0[_",
"[[Z  a[[[[_U09x_[[_[K  0_[",
"_[Z  a[[[^[N  9[[[_[K  0[[",
"[[Z  p[[__[Z  4[_[__K  r[[",
"_[Z  p[_[[^WSNU_[_[[U  0[[",
"_[Z  a[[[__[[[[_[[[[K O0[[",
"[[Z  a[_[[[[^[__[[^[KO r[[",
"_[Z  a[[[[__[[_[[[_[H  r[[",
"_[Z  a[[[[[[[[[[[__[K  0__",
"[[Z  a[_[[[[_[[[[[^[S  <_[",
"_[Z  p[_[[[[[[[[_[[_WNSzii",
"^[Z  i[[[_[_[_[[^[__[[[U O",
"_[N Or[[[[[[[[[[[_^[[^[KO;",
"[_RbSztfaaaaaaaatk[__[[U &",
"[_[[[S           3[_[_[HO*",
"[[[^[N           9[[[[[U *",
"[[___ENSZZZZZZZZNzpaaaf9 $",
"[[[__[[_[[[[[[[[[HO O   %O",
"[_[[[[_[[___[____H >-;;= $"
};
