/* XPM */
static char *xpm_[] = {
/* columns rows colors chars-per-pixel */
"23 32 206 2 ",
"   c #0E0A05",
".  c #09060C",
"X  c #0D0D0C",
"o  c #130500",
"O  c #1C0600",
"+  c #150C01",
"@  c #1C0C00",
"#  c #120D0C",
"$  c #1A0E09",
"%  c #0D100F",
"&  c #0E1003",
"*  c #141003",
"=  c #1C1101",
"-  c #12120C",
";  c #18110B",
":  c #0D0D11",
">  c #110D12",
",  c #0E1112",
"<  c #131313",
"1  c #191413",
"2  c #171814",
"3  c #1C1A15",
"4  c #161619",
"5  c #1C1B1C",
"6  c #18161B",
"7  c #240600",
"8  c #230C00",
"9  c #2B0D00",
"0  c #241300",
"q  c #2A1500",
"w  c #261901",
"e  c #291A02",
"r  c #21190F",
"t  c #331400",
"y  c #331C00",
"u  c #3C1E00",
"i  c #3C1700",
"p  c #231B18",
"a  c #291E15",
"s  c #2E2000",
"d  c #372601",
"f  c #3C2402",
"g  c #3F2A03",
"h  c #3F2A0D",
"j  c #2B2215",
"k  c #24231D",
"l  c #28251C",
"z  c #332714",
"x  c #332B1D",
"c  c #1D1D21",
"v  c #1F2120",
"b  c #232324",
"n  c #25252A",
"m  c #2B2A2D",
"M  c #2E2A27",
"N  c #302720",
"B  c #322A23",
"V  c #332C2A",
"C  c #3A2E22",
"Z  c #2D302E",
"A  c #34302C",
"S  c #3A352C",
"D  c #312F30",
"F  c #2E3732",
"G  c #343333",
"H  c #3B3634",
"J  c #3D3C35",
"K  c #353539",
"L  c #3A3739",
"P  c #373C3A",
"I  c #3C3B3A",
"U  c #333834",
"Y  c #421C00",
"T  c #452200",
"R  c #4A2700",
"E  c #412C02",
"W  c #4F2C00",
"Q  c #442E0A",
"!  c #542D00",
"~  c #4A330E",
"^  c #4D390E",
"/  c #493507",
"(  c #563400",
")  c #593400",
"_  c #563A02",
"`  c #5D3D02",
"'  c #573809",
"]  c #5B3B08",
"[  c #442F10",
"{  c #4B3311",
"}  c #643E01",
"|  c #6A3F00",
" . c #623600",
".. c #453C36",
"X. c #423E3B",
"o. c #3D4039",
"O. c #5D4413",
"+. c #6B4402",
"@. c #6F4C03",
"#. c #6B4A0B",
"$. c #614308",
"%. c #734B01",
"&. c #724F0B",
"*. c #7B4F04",
"=. c #785102",
"-. c #6A4912",
";. c #664D1A",
":. c #6A4818",
">. c #704F1A",
",. c #724F17",
"<. c #6E511A",
"1. c #7F5815",
"2. c #755A1C",
"3. c #7A5B1C",
"4. c #725013",
"5. c #454135",
"6. c #49403B",
"7. c #634C22",
"8. c #735625",
"9. c #7D5B22",
"0. c #775D22",
"q. c #7B5F38",
"w. c #6A572C",
"e. c #403E41",
"r. c #8B5F0C",
"t. c #82580C",
"y. c #845B16",
"u. c #815B1D",
"i. c #8A641B",
"p. c #A27412",
"a. c #8F6928",
"s. c #846528",
"d. c #997021",
"f. c #977629",
"g. c #9C742C",
"h. c #856B33",
"j. c #826231",
"k. c #906C30",
"l. c #8E7636",
"z. c #907134",
"x. c #9D7532",
"c. c #997738",
"v. c #A67F34",
"b. c #AA7A25",
"n. c #8D7142",
"m. c #907B46",
"M. c #A47D42",
"N. c #AF832C",
"B. c #AB873A",
"V. c #B38A39",
"C. c #AA8749",
"Z. c #AC8B4D",
"A. c #B38B45",
"S. c #B68E49",
"D. c #B79144",
"F. c #BC9047",
"G. c #B69B5D",
"H. c #BF9958",
"J. c #B39355",
"K. c #C39A47",
"L. c #C29C53",
"P. c #C2A14C",
"I. c #D2A847",
"U. c #C7A051",
"Y. c #C9A352",
"T. c #CAA359",
"R. c #C1A158",
"E. c #D8AD52",
"W. c #D3AC5D",
"Q. c #D2AA52",
"!. c #DFB851",
"~. c #DAB35C",
"^. c #D3B05C",
"/. c #E3B452",
"(. c #EEBF57",
"). c #E4BD5E",
"_. c #EFBE5F",
"`. c #E4B857",
"'. c #C4A364",
"]. c #C8A263",
"[. c #D7B061",
"{. c #DCB464",
"}. c #DEB867",
"|. c #D9B56C",
" X c #D1B06D",
".X c #DCBB73",
"XX c #E7BB66",
"oX c #E2BD6C",
"OX c #E8BF6F",
"+X c #E1B469",
"@X c #E3BC73",
"#X c #EFC054",
"$X c #EDC15B",
"%X c #F3C35E",
"&X c #F6C85E",
"*X c #EBC36F",
"=X c #E4C062",
"-X c #F2C463",
";X c #F3CA65",
":X c #F3C56C",
">X c #F5CA6A",
",X c #F8C968",
"<X c #EFCA74",
"1X c #E9C274",
"2X c #F3C671",
"3X c #F3C875",
/* pixels */
"7 8 w 8 @ @ 9 q = @ 9 9 @ 8 9 q 7 @ # X   % < ",
"y n.'.s.t 8.L.C.g / J.H.] u c.'.q.0 3 D b X X ",
"@.oX-X!.%.Y.-X-Xi.f.,X-XA.t.$X$X|.g z I K 5 > ",
"` [.;XI.) D.,X$X@.i.;X,Xg.+.`.>XL.f z 5.V 1 # ",
"8 ' a.) 8 Q h.<.w q 8.j.d 0 ;.h.^ @ @ = =   > ",
"9 :.x.} 8 @ 0 0 * @ 0 8 + * = w + = / m.w.w + ",
"| +X&XE.Q a ..S - 5 ....k * S 5.z d Y.;X*X:.O ",
"| XX&X~.~ x L P 4 v L I b - L I B g Q.&X*X:.@ ",
"t s.F.u.8 1 m 5 - X n n : < c n 6 @ >.S.z.y + ",
"8 R %.Y O # < > X X : < : > . > # @ u @.W 8 $ ",
"! Y.,XK.f a H m - 2 U U 3 # V H a y V.>X[._ + ",
"&.OX#X).^ x 5.I 2 3 P J k # X...C E ^.XX<X0.+ ",
"T C.{.B.q r S M - 1 M S - & B H a w l..XG.E + ",
"7 T %.Y 8 @ y e @ @ s w = * w y @ o w E e +   ",
"Y v./.p.i 3.W.A.R ) K.Y.#.Y V.^.h.w w x l $ # ",
"&.@X_./.%.T.%X-Xi.v.-X-XA.y.%X(.|.g C 6.I 5 X ",
"( ].3XK.! Z.3XoX-.9.2X:Xk.$.~.3XG.y j 6.K < > ",
"7 ) *.! 8 f 3.$.8 y -.,.y 8 ] 0.E @ @ 0 @ + X ",
"t y.V.=.q @ e q + + 0 w + + @ e = 8 #.A.z.y @ ",
"-.@X:X}./ j X.L 4 5 I e.p < I ..B d W.,X1X<.o ",
"} .X:X[.Q B L J 5 5 I I n > K X.A f T.:X@X:.+ ",
"9 &.N.@.8 - k 5 : < c b > : c n - 8 | b.y.t + ",
"9 ( r.! 8 o , , : : : < X < > <   * ! r.} 8 * ",
"_  X2XT.f j o.F < c L L 5 , A J l s L.2X@XO.+ ",
"#..X_.+X~ x I P 5 v L e.n < L X.V Q +X_.*X2.+ ",
"u v.E.d.e r Z n : 6 m m c < n G p 8 i.Q.B.f @ ",
"8 t  .t o   X : : X X . . # . : o @ t ) f O = ",
"u Z.+XM.w 5 K n : 1 D G 4 . m D p 0 k.}.J.E + ",
"&.=X#X{.^ j J I 3 k I I n 4 K o.B g ~.#X3X9.o ",
"( T.>XP.d j X.G < 6 K K 5 , Z J l s B.>X[.] @ ",
"8 [ 7.g + * 2 - X X < < , , , < -   d 7.{ 8 $ ",
"$ o o + - % % % # X > : , % , & % % + o o @ X "
};
