/* XPM */
static char *xpm_[] = {
/* columns rows colors chars-per-pixel */
"26 32 91 1 ",
"  c black",
". c #010101",
"X c #020202",
"o c gray1",
"O c #040404",
"+ c gray2",
"@ c #060606",
"# c #252525",
"$ c gray15",
"% c gray36",
"& c #5D5D5D",
"* c #7C7C7C",
"= c gray49",
"- c #7E7E7E",
"; c gray50",
": c #808080",
"> c #838383",
", c #848484",
"< c gray52",
"1 c gray53",
"2 c #888888",
"3 c #898989",
"4 c gray54",
"5 c #8B8B8B",
"6 c #8D8D8D",
"7 c #8E8E8E",
"8 c gray56",
"9 c #909090",
"0 c gray57",
"q c #929292",
"w c #939393",
"e c gray58",
"r c #959595",
"t c gray59",
"y c #989898",
"u c #9A9A9A",
"i c #9B9B9B",
"p c gray61",
"a c #9D9D9D",
"s c gray62",
"d c #9F9F9F",
"f c #A0A0A0",
"g c gray63",
"h c #A4A4A4",
"j c #A5A5A5",
"k c gray67",
"l c gray68",
"z c #B2B2B2",
"x c #B4B4B4",
"c c gray72",
"v c gray73",
"b c #BBBBBB",
"n c #C0C0C0",
"m c gray76",
"M c #C6C6C6",
"N c gray78",
"B c gray79",
"V c #CACACA",
"C c #CBCBCB",
"Z c gray80",
"A c #CDCDCD",
"S c #CECECE",
"D c gray81",
"F c #D0D0D0",
"G c gray82",
"H c #D2D2D2",
"J c LightGray",
"K c gray83",
"L c #D5D5D5",
"P c gray84",
"I c #D7D7D7",
"U c #D8D8D8",
"Y c #DADADA",
"T c gray86",
"R c gainsboro",
"E c #DDDDDD",
"W c gray87",
"Q c #DFDFDF",
"! c gray89",
"~ c gray90",
"^ c gray93",
"/ c #F6F6F6",
"( c gray97",
") c #F8F8F8",
"_ c #F9F9F9",
"` c gray98",
"' c #FBFBFB",
"] c gray99",
"[ c #FDFDFD",
"{ c #FEFEFE",
"} c white",
/* pixels */
"`}}````}`}`}}}}}`}````}}}}",
"}}}}(}}}}}}}}}}}}}}}(}}}}}",
"}}}}}x=977777777272,U}}}}}",
"``(`}=XXXXXXXXXXXXXXm}``}}",
"```}}2XXXXXXXXXXXXXXC}}`}}",
"`}z>>MRUUUUUUUUURRUFl2,I}`",
"}`=XX!}}}}}}}}}}}`}}tXXC}`",
"}}7XXU}`}``}`}}`}`}}gXXF}}",
"}}2XXU}}`}}}}}}}}}`}aXXF}}",
"}}2XXR}}}```}``}}}}}aXXF}`",
"}}2XXU}``}``}```}}}}aXXF}`",
"}}2XXU}}}}`v29U}`}}}aXXF}}",
"}}2XXR}}}(}2XXZ}}`}}aXXF}}",
"}}2XXR}`}`}9OXC}}}`}aXXZ}}",
"}}2XXR}}}``UCF^}}}}}aXXF`}",
"}}2XXU}}}``}}}}``}`}iXXZ}}",
"}}2XXR}``}`}(}`}(}}}aXXF}}",
"}}2XXU}}}}}}}}}(}x2a%XXZ}}",
"`}7XXU}}}}`}`(``}9XXX$OZ}}",
"}}2XXU}`}```}}`(}7XXX$XF}}",
"}}2XXU}}}}`v99R}`RCI>XXF}}",
"`}2XXR}}}(}2XXF}`}}}gXXZ}`",
"}}7XXR}}}}}tXXU}`}(`iXXI}`",
"`}2XXU}`}}}tXXI}}}}}gXXZ}}",
"(}2OXF}}``}7XXI}(}`}iXXZ`}",
"}`=XOI}}}}}iXXF}}}}}tXXm}}",
"``IZClaaaaa%XX*gagatbFC!}`",
"``}`},XXXXXX$#OXXXXOF}}}}}",
"}}```>XXXXXXOXXXXXXXC`}(}}",
"}}}``ICZFFCFFZZZZZCC!`}}}}",
"}}}`}}}}}`}}}}}}}}}}}}}}}}",
"}}}}`}`}}}`}`}````}(}`}}}}"
};
