/* XPM */
static char *xpm_[] = {
/* columns rows colors chars-per-pixel */
"26 32 84 1 ",
"  c black",
". c #010101",
"X c #020202",
"o c gray1",
"O c #040404",
"+ c gray2",
"@ c #060606",
"# c #232323",
"$ c #252525",
"% c gray15",
"& c #5F5F5F",
"* c gray49",
"= c #7E7E7E",
"- c gray50",
"; c #808080",
": c #848484",
"> c gray52",
", c gray53",
"< c #888888",
"1 c #898989",
"2 c gray54",
"3 c #8B8B8B",
"4 c gray55",
"5 c #8D8D8D",
"6 c #8E8E8E",
"7 c gray56",
"8 c #909090",
"9 c gray57",
"0 c gray59",
"q c #979797",
"w c #989898",
"e c gray60",
"r c gray61",
"t c #9D9D9D",
"y c gray62",
"u c #9F9F9F",
"i c #A0A0A0",
"p c gray63",
"a c gray64",
"s c #ACACAC",
"d c gray68",
"f c #AFAFAF",
"g c #B2B2B2",
"h c #B4B4B4",
"j c gray74",
"k c #C0C0C0",
"l c #C3C3C3",
"z c #C6C6C6",
"x c gray78",
"c c #C8C8C8",
"v c #CACACA",
"b c #CBCBCB",
"n c gray80",
"m c #CDCDCD",
"M c #CECECE",
"N c gray81",
"B c #D0D0D0",
"V c gray82",
"C c #D2D2D2",
"Z c LightGray",
"A c gray83",
"S c #D5D5D5",
"D c gray84",
"F c #D7D7D7",
"G c #D8D8D8",
"H c gray85",
"J c #DADADA",
"K c gray86",
"L c gainsboro",
"P c #DDDDDD",
"I c gray87",
"U c #DFDFDF",
"Y c gray88",
"T c #E4E4E4",
"R c #EEEEEE",
"E c gray97",
"W c #F8F8F8",
"Q c #F9F9F9",
"! c gray98",
"~ c #FBFBFB",
"^ c gray99",
"/ c #FDFDFD",
"( c #FEFEFE",
") c white",
/* pixels */
"!))!!!!))!)))!))E)!!!)))))",
"))))E)))))))))))))))E))!))",
")))))h*872777777272,A)))))",
"!!E!)*XXXXXXXXXXXXXXz)!!))",
")!!)),XXXXXXXXXXXXXXv)!!)!",
"!!g::zHHHHHHHHHHLLHAs22A))",
"!)*XOL)))))))))))!))qXXv))",
"!)7XXL)!)!)!!)!!!))!iXXV)!",
"))2XXH))!)))))))!)!)tXXV))",
"))2XXH))))!)!)!)))E)tXXV!)",
"))2XXH)!!)))!!E)))))tXXV))",
"))2XXL)))))))Ej2qq7q&XXV))",
"))2XXH)!))))E)2XXXXXX%Xn))",
"!)2XXL))))))!)7OXXXXX%XV)!",
"))2XXH)!))!)!!TnAHVV,OXV)!",
"))2XXH)))!!))E))))))iXXn))",
"!)2XXH))!)))E))!)!!)tXXV))",
"))2XX*eetq7L))))))!)tXXn))",
"))2X#XXXXXOn))!)))))tXXV)!",
"))7X#XXXXXOv)!))))))tXXV))",
"!)2XOgAVnVvR!)))))!)tXXV))",
"))2XXL)))))))))!))))tXXV))",
"))7XXH)E!!)))!))))!)tXXV!)",
"))2XXH))))))))))))))iXXn))",
"E)2OXA)!))!))!)!!)!)eXXV!)",
"!!*XOV))))))))))))))qXXl))",
"!!AnvstttiiiiiiititqjVvT!)",
"!!)!),XOXXXXXXXXXXXXV)))))",
"))!!!,XXXXXXXXXXXXXXz))!))",
")))!!AnnnnnnnnnnnnvvT!)!))",
")))!))))))))))))))))))))))",
"))))!)!))!)!!))!!!)!)!))))"
};
