/* XPM */
static char *xpm_[] = {
/* columns rows colors chars-per-pixel */
"23 32 185 2 ",
"   c #0E0200",
".  c #0D0C05",
"X  c #060B09",
"o  c #0D0D0C",
"O  c #130600",
"+  c #140C01",
"@  c #1B0C00",
"#  c #110E0D",
"$  c #190F0E",
"%  c #0F1106",
"&  c #0D110D",
"*  c #141002",
"=  c #1C1101",
"-  c #13110D",
";  c #1E170F",
":  c #0E0E11",
">  c #120E13",
",  c #0E1112",
"<  c #131313",
"1  c #1A1512",
"2  c #1C1915",
"3  c #161518",
"4  c #191619",
"5  c #17181A",
"6  c #1C1C1C",
"7  c #131814",
"8  c #230D00",
"9  c #2A0D00",
"0  c #300F00",
"q  c #231301",
"w  c #2B1300",
"e  c #241A02",
"r  c #2B1B01",
"t  c #231709",
"y  c #2A1B08",
"u  c #331400",
"i  c #391600",
"p  c #341A00",
"a  c #391E00",
"s  c #231C12",
"d  c #231E18",
"f  c #332100",
"g  c #3B2300",
"h  c #3A2804",
"j  c #242216",
"k  c #2A231C",
"l  c #2F291D",
"z  c #23221E",
"x  c #32251D",
"c  c #1E1E21",
"v  c #211F20",
"b  c #242324",
"n  c #232821",
"m  c #2C2A22",
"M  c #242429",
"N  c #292729",
"B  c #272A2B",
"V  c #2C2C2C",
"C  c #2C2724",
"Z  c #332D23",
"A  c #332D2C",
"S  c #3C2E25",
"D  c #2E332F",
"F  c #3B3325",
"G  c #35322B",
"H  c #3A342C",
"J  c #3E3A2F",
"K  c #2C2B30",
"L  c #312D31",
"P  c #333334",
"I  c #3B3634",
"U  c #363837",
"Y  c #3D3A34",
"T  c #353539",
"R  c #3C3B3C",
"E  c #462C00",
"W  c #4A2F00",
"Q  c #512C00",
"!  c #4D3904",
"~  c #553700",
"^  c #5C3500",
"/  c #523800",
"(  c #5D3C00",
")  c #503808",
"_  c #593B09",
"`  c #4C3610",
"'  c #4C3911",
"]  c #533D15",
"[  c #613700",
"{  c #643D00",
"}  c #683E00",
"|  c #413B35",
" . c #483E34",
".. c #423C3C",
"X. c #3E403F",
"o. c #5A441D",
"O. c #6B4000",
"+. c #6F4803",
"@. c #744C00",
"#. c #794F00",
"$. c #724D09",
"%. c #7C5205",
"&. c #7C560F",
"*. c #64491A",
"=. c #694D1B",
"-. c #67501C",
";. c #675314",
":. c #775113",
">. c #7D5710",
",. c #765A1B",
"<. c #5D4C21",
"1. c #6A5124",
"2. c #6A5128",
"3. c #785C26",
"4. c #7F6624",
"5. c #7A642D",
"6. c #776034",
"7. c #3E3E41",
"8. c #414143",
"9. c #825C15",
"0. c #84611D",
"q. c #926C1C",
"w. c #946C17",
"e. c #926C23",
"r. c #9A752E",
"t. c #816233",
"y. c #866B3B",
"u. c #876C35",
"i. c #837036",
"p. c #8F713D",
"a. c #9B7A36",
"s. c #957739",
"d. c #9E7839",
"f. c #967333",
"g. c #A57D25",
"h. c #A87E32",
"j. c #8C7040",
"k. c #B4882F",
"l. c #AC8236",
"z. c #BE9837",
"x. c #9B8148",
"c. c #AD8841",
"v. c #AF9149",
"b. c #AE8E53",
"n. c #B59352",
"m. c #B79953",
"M. c #B19458",
"N. c #BA9551",
"B. c #BEA361",
"V. c #C09840",
"C. c #C0964A",
"Z. c #C09244",
"A. c #C49E5A",
"S. c #D1A041",
"D. c #D5AE49",
"F. c #D7A94D",
"G. c #CEA456",
"H. c #C7A75C",
"J. c #C8A35F",
"K. c #DDB05F",
"L. c #DBB052",
"P. c #E6B75B",
"I. c #EABD58",
"U. c #EAB855",
"Y. c #CCA665",
"T. c #CCA967",
"R. c #DCB56A",
"E. c #E7BE6E",
"W. c #E3B863",
"Q. c #E3BE70",
"!. c #EEC55E",
"~. c #F5C45D",
"^. c #F3C95D",
"/. c #F4C456",
"(. c #DFC06D",
"). c #EFC462",
"_. c #EFC66C",
"`. c #EFC96E",
"'. c #F4C461",
"]. c #F7C669",
"[. c #F2CA6D",
"{. c #F9C869",
"}. c #F6C963",
"|. c #EECA73",
" X c #F4CA76",
/* pixels */
"8 9 p w @ 8 i u @ 8 0 i 8 8 9 i 8 @ 9 i w 8 @ ",
"0 y.T.a.a *.Y.N.Q E n.A.1.u h.T.j.p :.Y.b.h @ ",
"( R.).I.9.N./.~.q.e.}.}.C.%.U.~.P.9.S.I.|.4.O ",
"E H.[.L.[ h.~.!.9.9.I.}.l.[ F.{.A.[ k. X_.;.O ",
"8 ` 6.) 8 a 3.=.w 9 $.9.E 9 _ t.) 8 g 6.<.= + ",
"@ @ y @ O O t q @ p 0.r.E @ = e = + = t = + - ",
"> H ..H < M I  .q 3.}.^.v.r F | G % C ..Y 2 & ",
"> L R T 3 M 8.Y e u.}.^.m.w G X.D o N ..I 2 o ",
"> 4 N 6 & & z j * h a.l.] @ 2 K 6 o < C 6 : : ",
"> > > X . o & % % q ( +.u @ - o o o o < o o : ",
": N R V # d T H = *.P.'.f.w l R V : b R P < : ",
"3 P R R > K 7.| y j.].'.A.f F U L 3 L 7.R 6 : ",
"# v P M & 2 L Z + ] A.R.t.@ l I b o c L B , , ",
"# o X X o o o . + @ W O.w @ O o . < o : o & , ",
"# v P M < 4 L Z * ! z.F.3.q s P b o 3 V N < o ",
"< P R R < N ..| e i.`.).J.f F R T , Z X.I 6 o ",
"> K R V : b R I = 2.Q.|.x.q S ..B > b R P 3 o ",
"> o < o o > > $ @ q { @.f @ O 4 : < o < < o o ",
": 3 b 5 o < 6 d + g w.g./ @ 1 M 3 o < c 6 < o ",
"< L 7.P - n R Y e 5.`.[.M.r H 7.P & N R P 6 o ",
"& D R I < M R Y e 5.`.[.M.r G 7.P o N R P 6 < ",
"X 7 z 7 o 3 d d + g w.g.~ @ ; M < X < z 6 & o ",
"& o < & o : < - O q } @.g @ - < > o o 3 , o # ",
"o V X.V : v R | q 2.E. Xx.= l R N X b ..P 3 & ",
", P 7.T : K 7.| y y.`.!.B.f F R P o V R R 6 # ",
"& c T v > 5 V C @ ! z.D.,.@ j L c o 3 V B o < ",
"& . X . X X o + + 8 ^ O.w @ + : o & X o X # & ",
". z I n . 6 P V O ] G.K.5.8 z P b o 6 P V < , ",
"< P R T < B R R e u.'.~.A.a S R U , V X.R 6 X ",
"> b 7.V , 6 R H = -.W.[.s.q x ..V o c U V , < ",
": < < : o . < # * * ` o.e + o 5 , o & 7 < o # ",
": o . # > # # o % %     . & , o & < < & & < o "
};
