/* XPM */
static char *xpm_[] = {
/* columns rows colors chars-per-pixel */
"26 32 90 1 ",
"  c black",
". c #010101",
"X c #020202",
"o c gray1",
"O c #040404",
"+ c #111111",
"@ c gray18",
"# c #313131",
"$ c #353535",
"% c gray24",
"& c gray34",
"* c #747474",
"= c gray48",
"- c #7C7C7C",
"; c gray49",
": c gray50",
"> c #808080",
", c gray51",
"< c #838383",
"1 c #848484",
"2 c gray52",
"3 c #868686",
"4 c gray53",
"5 c #888888",
"6 c #898989",
"7 c gray54",
"8 c #8B8B8B",
"9 c gray55",
"0 c #8D8D8D",
"q c #8E8E8E",
"w c gray56",
"e c #909090",
"r c gray57",
"t c #929292",
"y c #959595",
"u c gray59",
"i c #989898",
"p c #9A9A9A",
"a c #9B9B9B",
"s c gray61",
"d c #9D9D9D",
"f c gray62",
"g c #9F9F9F",
"h c #A0A0A0",
"j c gray63",
"k c #A2A2A2",
"l c #A7A7A7",
"z c gray68",
"x c #B2B2B2",
"c c #B4B4B4",
"v c gray75",
"b c gray77",
"n c #C5C5C5",
"m c #C6C6C6",
"M c gray78",
"N c gray79",
"B c #CACACA",
"V c #CBCBCB",
"C c gray80",
"Z c #CDCDCD",
"A c #CECECE",
"S c gray81",
"D c #D0D0D0",
"F c gray82",
"G c #D2D2D2",
"H c LightGray",
"J c gray83",
"K c #D5D5D5",
"L c #D7D7D7",
"P c #D8D8D8",
"I c gray85",
"U c #DADADA",
"Y c gray86",
"T c gainsboro",
"R c #DDDDDD",
"E c gray87",
"W c #DFDFDF",
"Q c gray89",
"! c #E6E6E6",
"~ c gray91",
"^ c #F3F3F3",
"/ c gray97",
"( c #F8F8F8",
") c #F9F9F9",
"_ c gray98",
"` c #FBFBFB",
"' c gray99",
"] c #FDFDFD",
"[ c #FEFEFE",
"{ c white",
/* pixels */
"_{{____{{{_{{{{__{____{{{{",
"{{{{/{{{{{{{{{{{{{{{/{{{{{",
"{{{{{c;ew5wwwwww5w53K{{{{{",
"__/_{;XXXXXXXXXXXXXXm{__{{",
"___{{5XXXXXXXXXXXXXXV{{/{{",
"_{x<<mIIIIIIIIIITTKGz53K{_",
"{_;XOT{{{{{{{{{{{_{{iXXV{_",
"{{wXXT{_{_{__{{_{_{{hXXG{{",
"/{5XXI{{{{_{{{{{_{_{iXXG{{",
"{{5XXI{{{{{{{{{_{{{{fXXC{_",
"_{5XXT{{{_{{{{{{{{{_fXXG{_",
"{{wXXI{_{{{{{{{{{{{{fXXG{{",
"{_wXXI{_{{{{{{{{__{_fXXG{{",
"_{5XXI_{^{{{{{{____{fXXC{{",
"{{5XX=uwQ{{_{{{__v3f&OXG_{",
"_{wX@XXXK_{{{_{_{wXXX@XC{{",
"/{=XX+$XI{_{{{{{/hX%XOXm{_",
"__TVK*XXI{{{{{{{{iXXhKC~{{",
"{_{{{uXXT{{{{{{_{iXXI{_{{{",
"_{_{{eXXI{_{{{{{_fXXG{_{{{",
"{{{_{wXXT{{{{{{_{iXXG{{{{{",
"{_{{{wXXT{{{{{{{{fXXG{_{{{",
"_{{{{wXXI{_{{{{{{iXXG{{{{{",
"{{{{{wXXI{{{{{{_{fXXG{_{{{",
"_{{_{wXXG{__{{__{fXXC{{{{{",
"{{_{_<XXK{{{_{{{{eXXV{__{{",
"{{{_/ImClfhhfhffemCmQ_{{{{",
"{{{_{{{{wXXXXXXXXG{{_{{{{{",
"_{{{{_/{<XXXXXXXXV{/{{{_{{",
"{{{{_{__KVCGGCCVmQ{{{{_{{{",
"{{{_{{_{{{{{{{{{{{{_{{_{{{",
"{{{{_{{{{_{____{_{_{{{{{{{"
};
