/* XPM */
static char *_350a129f7ca4b5ef9086f894fd93dc8QLcHZkHfLxk1Ajlw[] = {
/* columns rows colors chars-per-pixel */
"26 32 77 1 ",
"  c black",
". c #010101",
"X c #020202",
"o c gray1",
"O c #040404",
"+ c gray2",
"@ c gray10",
"# c #2A2A2A",
"$ c #323232",
"% c gray49",
"& c #7E7E7E",
"* c gray50",
"= c #808080",
"- c #848484",
"; c gray52",
": c gray53",
"> c #888888",
", c #898989",
"< c gray54",
"1 c #8B8B8B",
"2 c gray55",
"3 c #8D8D8D",
"4 c #8E8E8E",
"5 c #909090",
"6 c gray57",
"7 c #939393",
"8 c #959595",
"9 c gray59",
"0 c #979797",
"q c #989898",
"w c gray60",
"e c gray61",
"r c #9D9D9D",
"t c gray62",
"y c #9F9F9F",
"u c #A0A0A0",
"i c gray63",
"p c #ACACAC",
"a c gray68",
"s c gray69",
"d c #B2B2B2",
"f c #B4B4B4",
"g c #C0C0C0",
"h c #C3C3C3",
"j c #C6C6C6",
"k c gray78",
"l c #C8C8C8",
"z c #CACACA",
"x c gray80",
"c c #CDCDCD",
"v c #CECECE",
"b c gray81",
"n c #D0D0D0",
"m c gray82",
"M c LightGray",
"N c gray83",
"B c #D5D5D5",
"V c gray84",
"C c #D7D7D7",
"Z c #D8D8D8",
"A c #DADADA",
"S c gray86",
"D c gainsboro",
"F c #DDDDDD",
"G c gray87",
"H c #DFDFDF",
"J c #E4E4E4",
"K c #EAEAEA",
"L c gray97",
"P c #F8F8F8",
"I c #F9F9F9",
"U c gray98",
"Y c #FBFBFB",
"T c gray99",
"R c #FDFDFD",
"E c #FEFEFE",
"W c white",
/* pixels */
"UWWWWUUWUWWWWWWWUWUUUUWWWW",
"WWWWLWWWWWWUWWWWWWWWLWWWWW",
"WWWWWf%66446444644>;AWWWWW",
"UWUWW%              kWUWWW",
"WUWWW>   O @$#      zWWUWW",
"UUd=;kDAAND= OdDADANp>;NWW",
"WW%O DWWWWWw  AWWWWWw  zWW",
"UW4  DWUWUW8  NWWWWWi  NWW",
"WW>  DWWUWW8  NWWWWWt  MWW",
"WW>  DWWWUW8  MWWWWWt  MWW",
"WW>  DWWWUU>  zWWWWWt  MWW",
"WW>  AWWWUWDbMKWWWWWt  MWW",
"WW>  DWWWWWWWWWWWWWWt  MWW",
"WW>  DWWWWWWUWWWWWWWt  MWW",
"WW>  DWWWWWWWUWWWWWWt  MWW",
"WW>  AWWWWWWWWWWWWWWt  MWW",
"WW>  DWWWWWWWWWWWWWWt  MWW",
"WW>  DWWWWWWWWWWWWWWt  MWW",
"WW>  DWWWWWWWWWWWWWWt  MWW",
"WW>  DWWWWWWWWWWWWWWt  MWW",
"WW>  DWWWWWWWWWWWWWWt  MWW",
"WW>  DWWWWWWWWWWWWWWt  MWW",
"WW>  DWWWWWWWWWWWWWWt  MWW",
"WW>  DWWWWWWWWWWWWWWt  MWW",
"LW>  MWUWWWWWWWWUWUWt  MWW",
"UU% OMWWWWWWWWWWWWWW8  gWW",
"WUNbzpttiiiiiiiitit8gMzJWW",
"UUWUW; O            MWWWWW",
"WWUUU;              zWWUWW",
"WWWUUNbMbbbbbbbbbbbzJWWWWW",
"WWWWWWWWWWWWWWWWWWWWWWWWWW",
"WWWWWWWWWWWWUWWWUUWUWUWWWW"
};
