/* XPM */
static char *out[] = {
/* columns rows colors chars-per-pixel */
"23 32 183 2 ",
"   c #070906",
".  c #0D0B04",
"X  c #0C0C0C",
"o  c #130600",
"O  c #140B01",
"+  c #1B0C00",
"@  c #120D0D",
"#  c #0D1005",
"$  c #0E110D",
"%  c #151205",
"&  c #1D1201",
"*  c #12110D",
"=  c #1A140C",
"-  c #0E0E11",
";  c #110E11",
":  c #0E1011",
">  c #131213",
",  c #191617",
"<  c #1A1A16",
"1  c #151419",
"2  c #16191C",
"3  c #1C1C1B",
"4  c #260700",
"5  c #220A00",
"6  c #2A0D00",
"7  c #251400",
"8  c #2B1300",
"9  c #2C1B01",
"0  c #231909",
"q  c #2A1E08",
"w  c #321200",
"e  c #331B00",
"r  c #3C1900",
"t  c #231C13",
"y  c #2C1F15",
"u  c #231D1D",
"i  c #2F2000",
"p  c #342301",
"a  c #392301",
"s  c #30230B",
"d  c #3D2E0B",
"f  c #232117",
"g  c #2C2114",
"h  c #24231C",
"j  c #2E2619",
"k  c #2F2A1C",
"l  c #332813",
"z  c #31261A",
"x  c #342A1D",
"c  c #1E1F21",
"v  c #1F2224",
"b  c #242324",
"n  c #252627",
"m  c #282727",
"M  c #2C2A24",
"N  c #26282B",
"B  c #2B2B2B",
"V  c #332D23",
"C  c #332E2C",
"Z  c #2F302C",
"A  c #353126",
"S  c #34332D",
"D  c #3B332C",
"F  c #2F2F34",
"G  c #343434",
"H  c #393735",
"J  c #363834",
"K  c #3C3B36",
"L  c #373539",
"P  c #393739",
"I  c #36393C",
"U  c #3C3B3B",
"Y  c #421D00",
"T  c #412200",
"R  c #492600",
"E  c #442C02",
"W  c #4D2C00",
"Q  c #512B00",
"!  c #413005",
"~  c #4C3303",
"^  c #4A340B",
"/  c #533401",
"(  c #583600",
")  c #5B3A00",
"_  c #4A3812",
"`  c #543C11",
"'  c #643C00",
"]  c #683F00",
"[  c #413D34",
"{  c #423C3A",
"}  c #5D4006",
"|  c #514115",
" . c #5B4314",
".. c #564019",
"X. c #5D471E",
"o. c #644400",
"O. c #6B4301",
"+. c #664208",
"@. c #6B4708",
"#. c #67490C",
"$. c #734C07",
"%. c #795206",
"&. c #674614",
"*. c #694811",
"=. c #6E5314",
"-. c #6E561F",
";. c #735416",
":. c #7B5611",
">. c #72531D",
",. c #77591D",
"<. c #44423E",
"1. c #6E5223",
"2. c #67502B",
"3. c #755722",
"4. c #7D5D22",
"5. c #7A5D29",
"6. c #746033",
"7. c #3E3D42",
"8. c #453F40",
"9. c #845B17",
"0. c #8E681A",
"q. c #815C23",
"w. c #876A30",
"e. c #846939",
"r. c #916D30",
"t. c #8D713E",
"y. c #987334",
"u. c #94743A",
"i. c #A77F2A",
"p. c #A57C33",
"a. c #9B7943",
"s. c #AD812A",
"d. c #AC8333",
"f. c #AF863F",
"g. c #A78845",
"h. c #AB8949",
"j. c #B08946",
"k. c #B68F4C",
"l. c #BC9542",
"z. c #A18752",
"x. c #A98752",
"c. c #B6985C",
"v. c #BD9C5D",
"b. c #C39C4C",
"n. c #C49B51",
"m. c #DBAF4B",
"M. c #C9A455",
"N. c #CEA856",
"B. c #C3A459",
"V. c #D1AE54",
"C. c #D4AD5D",
"Z. c #DAAF5D",
"A. c #DEB050",
"S. c #E4B958",
"D. c #F1BF5E",
"F. c #C3A362",
"G. c #C9A065",
"H. c #CEA865",
"J. c #D5AC61",
"K. c #D4B062",
"L. c #DDB562",
"P. c #D5B269",
"I. c #DEB56D",
"U. c #DFBC73",
"Y. c #E5BB64",
"T. c #E3BB6B",
"R. c #EDBF69",
"E. c #E6BD73",
"W. c #EFC45C",
"Q. c #F6C659",
"!. c #E4C167",
"~. c #E7C069",
"^. c #EEC46C",
"/. c #EEC96F",
"(. c #F3C363",
"). c #F4C66B",
"_. c #F3CA6E",
"`. c #F9C969",
"'. c #F8D069",
"]. c #E7C174",
"[. c #EDC776",
"{. c #F1C677",
"}. c #F3C975",
/* pixels */
"5 6 r 8 & #   X - X   # X > X - X O 5 r 6 5 % ",
"e t.H.u.7 = Z v $ > m Z ; X b B < + 5.G.x.E O ",
"o.U.W.!.| j U U < 3 J U m > G K V ! C.R.{.4.o ",
"/ M.'.V.d g U J > 3 U I b X G K M 9 l.`.Y.#.+ ",
"5 / 9.( + . > 1 @ > > , * X * < @ + R 9.+.6 o ",
"6 &.p.+.7 @ 3 , > X 2 c X X , < = 5 ) y.q.w + ",
"' Z.Q.S.^ y 8.P > 3 U U m 1 G <.V i b.(._.;.o ",
"' L.Q.S.` z { U 3 3 I K b 1 K U M p N.'.}.,.o ",
"8 3.k.4.7 % h v > ; 3 b > . < b = + *.j.u.e O ",
"5 R $.R o % > $ X - - $ X > X @ * + r @./ 8 O ",
"Q n.).M.E t K L 1 > J K 3 @ B K k 8 d.`.Z.} o ",
"O.E.D.T...k { U c 3 U K m , U I A a Z.D.}.4.o ",
"Y x.T.h.e = S B : > m Z 2 X n G f 7 r.I.v.~ O ",
"4 r O.T o o . X X X $ X $ >   X % + w ] W 5 + ",
"Y p.A.s.e 0 C m * X B F 2 X b S < 7 0.m.l.E o ",
"] I.S.~...x { U 3 b U 7.m > I U C a C.W./.4.O ",
"W F.{.n.d f U J , , L 7.v X F <.M 9 j.[.E. .o ",
"8 R %.W + O * $ @ X ; ; - : : > @ + T $.) 8 % ",
"w :.i.9.7 O h f   X u b ; X < f % + o.i.0.e O ",
") P.).T._ g [ H 3 3 U U b > S K x p M.).[.3.o ",
") P._.L._ j <.{ , 3 U U n 1 L <.A p B._.].3.o ",
"7 -.g.;.7 + 9 7 O * 3 v > . + q & + ) g.w.9 O ",
"O + 7 + + p >.} 7 # > > . + ~ =.E + + 8 o O X ",
"> B { x 9 z.{.].2.& J K t _ K.}.v.a y { G , $ ",
": G U D p F.(._.e.q [ K j X.^.Q.I.^ V 7.I 2 X ",
"X c F u 7 5.C.b.W + s l 7 a f.J.u.8 = F v : - ",
"; X X . . + e 9 + + a E & O 8 r + + . : - X - ",
"X b J m X 3 C x &  .H.P.6.& g S u > 3 G N : - ",
"> G { I * B U [ 9 a.(.Q.c.e [ P G , C H H 3 ; ",
"; B P m X 3 P C & 1.Y.^.t.5 M 8.N - m P S * - ",
"; ; 1 $ X - , - . & _ | 7 O @ , - - X 1 @ @ ; ",
"- > X - - - X X $ # . . . ; ; - - - ; - @ @ @ "
};
