/* XPM */
static char *_a0987b0d392422ba0f3a4b38c30c12cKcT9UwvsyAVkhov0[] = {
/* columns rows colors chars-per-pixel */
"26 32 90 1 ",
"  c black",
". c #010101",
"X c #020202",
"o c gray1",
"O c #040404",
"+ c gray2",
"@ c #060606",
"# c #161616",
"$ c #2D2D2D",
"% c gray18",
"& c #797979",
"* c gray48",
"= c #7C7C7C",
"- c gray49",
"; c #7E7E7E",
": c #838383",
"> c #848484",
", c gray52",
"< c #868686",
"1 c gray53",
"2 c #898989",
"3 c #8B8B8B",
"4 c gray55",
"5 c #8D8D8D",
"6 c #8E8E8E",
"7 c gray56",
"8 c #909090",
"9 c gray57",
"0 c #929292",
"q c #939393",
"w c gray58",
"e c #959595",
"r c gray59",
"t c #979797",
"y c #989898",
"u c gray60",
"i c #9B9B9B",
"p c #9D9D9D",
"a c gray62",
"s c #9F9F9F",
"d c #A0A0A0",
"f c gray63",
"g c #A2A2A2",
"h c #AEAEAE",
"j c #AFAFAF",
"k c gray69",
"l c #B1B1B1",
"z c gray71",
"x c #B6B6B6",
"c c #BCBCBC",
"v c #C1C1C1",
"b c gray77",
"n c #C5C5C5",
"m c #C6C6C6",
"M c gray78",
"N c #C8C8C8",
"B c #CACACA",
"V c #CBCBCB",
"C c gray80",
"Z c #CDCDCD",
"A c #CECECE",
"S c gray81",
"D c #D0D0D0",
"F c gray82",
"G c #D2D2D2",
"H c LightGray",
"J c gray83",
"K c #D5D5D5",
"L c gray84",
"P c #D7D7D7",
"I c #D8D8D8",
"U c gray85",
"Y c #DADADA",
"T c gray86",
"R c gainsboro",
"E c #DDDDDD",
"W c #E1E1E1",
"Q c #E6E6E6",
"! c #E9E9E9",
"~ c #ECECEC",
"^ c #F6F6F6",
"/ c gray97",
"( c #F8F8F8",
") c #F9F9F9",
"_ c gray98",
"` c #FBFBFB",
"' c gray99",
"] c #FDFDFD",
"[ c #FEFEFE",
"{ c white",
/* pixels */
"`{`{`{```{{{{`{{`{{``{{{{{",
"{{{{{`{{{{{`{{{{{{{{``{{{{",
"{{{{{U=q666q666q66q=x{{{{{",
"{`{^{bXXXXXXXXXXXXXX={^`{{",
"{`{`{VOXXXXX$$#XXXXX2`{{{{",
"{`U,,jPEUPUxXX*EEUPUb6,k{{",
"`{bXXi{{{{{PXXi{{{{{UOX:{{",
"{{FXXd{`{`{PXXr{`{`{UXXq{{",
"{{ZXXd{{`{{PXXi{{{`{UXX6{{",
"{{ZXXd{{{`{FXXr{{{`{UXX6{{",
"{{ZXXs{{``{ZXO,{{{`{UXX6{{",
"{{ZXXs{{{{`!FZE`{{`{UXX6{{",
"{{ZXXd{{{{{{{{`{{{{{UXX6{{",
"{{ZXXd{{{{{{`{{{{{{{UXX6{{",
"{{ZXXd{{{{{{{{{{{{{{UXX6{{",
"`{ZXXd{{{{{{{{{{{{{{UXX6{{",
"`{ZXXd{{{{{{{{{{{{`{PXX6{{",
"{{ZXXs{{{{{{{{{{{{{{UXO6{{",
"`{ZXXs{^{`{{{{{{{``{UXXq{{",
"{{bXOr{{`{{{{{{{{{{{PXO*{{",
"`{QVFcrqv{{{`{{{`WrqkFVU{{",
"{`{{{FXXq{{{`{{`{FXX2{{{{{",
"{{{`{FXXs{`{{{{`{UXXq{{`{{",
"{{{{{FXXs{{{{{{`{UXXq{{{{{",
"`{{`{ZXXr{`{{{{`{PXXq{{{{{",
"{{{`{bOXq{{{{{{{{PXX={{{{{",
"{{{{`!VFcssdsdddrjZVU^{{{{",
"{{{``{{{PXXOXXXXX6{{{{{{{{",
"{{{{{{`{bXXXXOXXX:{`{{{{{{",
"{{{{{{`{~bFZZZZZbU^{{{{{{{",
"{{{{{{{`{{{{{{{{{{{{{{{{{{",
"{{{{{{{{{`{{`{`{{{{{{{{{{{"
};
