/* XPM */
static char *_e645968ae6a4e5fb823c277cb3fa28arWYrKXGe0mpiDOJU[] = {
/* columns rows colors chars-per-pixel */
"26 32 96 2 ",
"   c black",
".  c #010101",
"X  c #020202",
"o  c gray1",
"O  c #040404",
"+  c gray2",
"@  c #191919",
"#  c gray10",
"$  c #232323",
"%  c #2A2A2A",
"&  c #2C2C2C",
"*  c #2F2F2F",
"=  c gray34",
"-  c #767676",
";  c gray47",
":  c #7C7C7C",
">  c #7E7E7E",
",  c gray50",
"<  c #818181",
"1  c gray51",
"2  c #838383",
"3  c #848484",
"4  c gray52",
"5  c #868686",
"6  c #888888",
"7  c #898989",
"8  c #8B8B8B",
"9  c gray55",
"0  c #8D8D8D",
"q  c #8E8E8E",
"w  c gray56",
"e  c #909090",
"r  c gray57",
"t  c #929292",
"y  c #939393",
"u  c gray58",
"i  c #959595",
"p  c gray59",
"a  c #979797",
"s  c #989898",
"d  c gray60",
"f  c #9B9B9B",
"g  c #9D9D9D",
"h  c gray62",
"j  c #9F9F9F",
"k  c #A0A0A0",
"l  c gray63",
"z  c gray64",
"x  c #A4A4A4",
"c  c #AEAEAE",
"v  c #B1B1B1",
"b  c #B2B2B2",
"n  c #B4B4B4",
"m  c gray",
"M  c gray75",
"N  c gray77",
"B  c #C5C5C5",
"V  c gray78",
"C  c #C8C8C8",
"Z  c gray79",
"A  c #CACACA",
"S  c #CBCBCB",
"D  c gray80",
"F  c #CDCDCD",
"G  c #CECECE",
"H  c gray81",
"J  c #D0D0D0",
"K  c gray82",
"L  c #D2D2D2",
"P  c gray83",
"I  c #D5D5D5",
"U  c gray84",
"Y  c #D7D7D7",
"T  c #D8D8D8",
"R  c gray85",
"E  c #DADADA",
"W  c gray86",
"Q  c gainsboro",
"!  c #DDDDDD",
"~  c gray88",
"^  c #E1E1E1",
"/  c #E2E2E2",
"(  c #E7E7E7",
")  c gray91",
"_  c #EFEFEF",
"`  c gray96",
"'  c #F6F6F6",
"]  c gray97",
"[  c #F8F8F8",
"{  c #F9F9F9",
"}  c gray98",
"|  c #FBFBFB",
" . c gray99",
".. c #FDFDFD",
"X. c #FEFEFE",
"o. c white",
/* pixels */
" . .|  .|  . . .|  . . .|  . . .|  .|  .| |  . . . .",
" .|  . .| |  . . . . . . . . . . . . . . .'  . . . .",
" . . .|  .R : y 0 y 0 0 0 0 0 0 0 y a : v  . . . . .",
" .|  .'  .B X X X X X X X X + X X X X X <  .| |  . .",
" .|  . . .F + X X * * # + X X * * # X X 8  . . . . .",
" . .R 3 3 c U ! v X X : U ^ n X X - R R B 0 3 v  . .",
"|  .B X X f  . .U X X h  . .! X X f  . .R X X <  . .",
" . .L X X l  . .L X X f  . .U X X y  . .R X X y  . .",
"|  .F X X l  . .L X X h  . .R X X a  . .R X X 0  . .",
" . .F X X l  . .L X X f  . .U X X y  . .R X X y  . .",
" . .F X X l  . .F X X 8 |  .F + X 3 |  .R X X 0  . .",
" . .F X X l  .| ) U L ! | | _ F L ^ '  .! X X y  . .",
" . .F X X l  . . . . . . . . . . . . . .R X + 0  . .",
" . .F X X l  . . . . . . . .|  . . . . .! X + y  . .",
"|  .F X X l  . . . . . . . . . . . .|  .R X X y  . .",
"|  .F X X l  . . . . . . . . . . . . . .R X X y  . .",
" . .F X X l  . .|  .|  . . . . . . . . .R X X y  . .",
" . .F X X l  . . . . . . . . . . . . . .R X X y  . .",
" . .F X X l  . . . . .'  .| |  . . .|  .R X X 0  . .",
" . .F X X l  . . . .|  . . . .|  . . . .R X X 0  . .",
" . .F X X l  . . . . .^ 0 y m  . . . . .R X X 0  . .",
" . .F X X l  . . .|  .Z + X 0  . . . . .R X X 0  . .",
" . .F X X l  . . . . .U X X f  . . . . .R X X 0  . .",
" . .F X X l  . . . . .U X X f  . . . . .R X X 0  . .",
"|  .F X X f  . .|  . .F X X y  .|  .'  .U X X 0  . .",
" . .Z X + y  . . . . .R X X a  . . . . .U X X ;  . .",
" . .^ Z L m a x h h l < X X = l l x l a n F Z U  . .",
" . . . . .L + X X X X + $ % X X X + X X 8  . . . . .",
" . . .'  .Z X X X X X X X X X X X X X X :  .'  . . .",
" . . . . .) Z L F L F L L F L F F F Z B U |  . . . .",
" . . . . . . . . . . . .|  . . . . . . . . .|  . . .",
" . . . . . . . . . . .|  . .|  . .|  . . . . . . . ."
};
