/* XPM */
static char *f2f8b6caf6e7463d864a227e63ba9085Yj307Ad05rDKFot9[] = {
/* columns rows colors chars-per-pixel */
"26 32 101 2 ",
"   c black",
".  c #010101",
"X  c #020202",
"o  c gray1",
"O  c #040404",
"+  c gray9",
"@  c #1B1B1B",
"#  c #232323",
"$  c #252525",
"%  c #282828",
"&  c #2A2A2A",
"*  c gray17",
"=  c #2C2C2C",
"-  c gray18",
";  c gray34",
":  c gray47",
">  c #7C7C7C",
",  c gray49",
"<  c gray50",
"1  c #808080",
"2  c #818181",
"3  c #848484",
"4  c gray52",
"5  c #868686",
"6  c #888888",
"7  c #898989",
"8  c gray55",
"9  c #8D8D8D",
"0  c #8E8E8E",
"q  c gray56",
"w  c #909090",
"e  c gray57",
"r  c #929292",
"t  c #939393",
"y  c gray58",
"u  c #959595",
"i  c gray59",
"p  c #979797",
"a  c #989898",
"s  c #9A9A9A",
"d  c #9B9B9B",
"f  c gray61",
"g  c #9D9D9D",
"h  c gray62",
"j  c #9F9F9F",
"k  c #A0A0A0",
"l  c gray63",
"z  c #A2A2A2",
"x  c gray64",
"c  c #A4A4A4",
"v  c #AFAFAF",
"b  c #B1B1B1",
"n  c gray70",
"m  c #B4B4B4",
"M  c #B6B6B6",
"N  c #BBBBBB",
"B  c #BCBCBC",
"V  c gray",
"C  c gray77",
"Z  c #C5C5C5",
"A  c #C6C6C6",
"S  c gray78",
"D  c #C8C8C8",
"F  c gray79",
"G  c #CACACA",
"H  c #CBCBCB",
"J  c gray80",
"K  c #CDCDCD",
"L  c #CECECE",
"P  c gray81",
"I  c #D0D0D0",
"U  c gray82",
"Y  c #D2D2D2",
"T  c LightGray",
"R  c gray83",
"E  c #D5D5D5",
"W  c gray84",
"Q  c #D7D7D7",
"!  c #D8D8D8",
"~  c gray85",
"^  c #DADADA",
"/  c gray86",
"(  c gainsboro",
")  c #DDDDDD",
"_  c gray87",
"`  c #E2E2E2",
"'  c #E4E4E4",
"]  c #E7E7E7",
"[  c gray91",
"{  c #EEEEEE",
"}  c gray96",
"|  c #F6F6F6",
" . c gray97",
".. c #F8F8F8",
"X. c #F9F9F9",
"o. c gray98",
"O. c #FBFBFB",
"+. c gray99",
"@. c #FDFDFD",
"#. c #FEFEFE",
"$. c white",
/* pixels */
"O.$.O.$.O.$.O.O.| $.$.$.$.O.$.$.| $.O.O.O.$.$.$.$.$.",
"$.$.$.$.$.O.$.$.$.O.$.O.$.$.$.$.$.$.$.$.O.O.$.$.$.$.",
"$.$.$.$.$.~ > t 8 t 8 t t 8 8 t 8 8 t > m $.$.$.$.$.",
"$.O.$.| $.C X X X X X O X X X X X X X X > $.O.$.$.$.",
"$.O.$.O.$.H O X X X X X = = + X X X X X 8 O.$.$.O.$.",
"$.O.~ 4 4 v Q ) ~ Q ~ m X X : ) ) ~ Q Q C 8 4 n $.$.",
"O.$.C X X d $.$.$.$.$.~ X X d $.$.$.$.$.~ X X 2 $.$.",
"$.$.U X X k $.O.$.O.$.U X X u $.O.$.O.$.~ X X t $.$.",
"O.$.K X X k $.$.$.$.$.Q X X d $.O.$.O.$.Q X X 8 $.$.",
"$.$.U X X f $.O.$.O.$.U X X u $.$.$.$.$.~ X X 8 $.$.",
"O.$.K X X k $.$.$.O.$.H X X 6 $.O.$.$.$.Q X X t $.$.",
"$.$.K X X k $.O.$.$.$.{ U U ~ $.$.$.$.$.~ X X 8 $.$.",
"$.$.K X X f $.O.O.$.O.$.$.$.$.$.O.$.$.$.~ X X t $.$.",
"O.$.K X X f $.$.O.O.$.O.$.$.$.$.O.O.O.$.~ X X 8 $.$.",
"$.$.H X X ; u 8 N $.O.$.$.$.$.$.$.] 6 d 2 @ X 8 $.$.",
"O.$.U X % X X X t $.$.$.$.$.$.O.$.K X X X % X 8 $.$.",
"O.$.U X $ X X X 8 $.$.$.$.$.$.$.$.Q X X X % X 8 $.$.",
"$.O.K X X > Q H ) | $.$.$.$.$.$.$.[ H Q n X X 8 $.$.",
"O.$.K X X k $.$.$.$.O.$.O.O.| $.| $.$.$.` X X 8 $.$.",
"$.$.U X X f $.O.$.O.$.O.$.$.O.O.$.$.| $.Q X X 8 $.$.",
"O.$.K X X k $.$.$.$.$.) t t V $.$.$.$.$.~ X X 8 $.$.",
"$.$.K X X f $.$.$.O.$.K X X 8 $.$.$.$.$.Q X X 8 $.$.",
"$.$.U X X f $.$.$.O.$.Q X X d $.$.$.$.$.~ O X 8 $.$.",
"O.$.U X X k $.O.$.$.$.Q X X u $.$.$.$.$.~ X X 8 $.$.",
"O.$.K X X d $.$.O.$.$.K X X t $.O.$.| $.Q X X 8 $.$.",
"$.$.H X X t $.$.$.$.$.~ X X u $.$.$.$.$.Q X X : $.$.",
"O.$.` H K V u k f f k 2 X X ; k f k k u m K H Q $.$.",
"$.O.$.$.O.U X X X X X O # % X X X X X X 4 $.$.$.$.$.",
"$.$.$.| $.H X X X X X X X X X X X X X X > $.| $.$.$.",
"$.$.$.O.$.] H U K U K U U K U K K K H C Q O.$.$.$.$.",
"$.$.$.$.$.$.$.$.$.$.$.$.O.$.$.$.$.$.$.$.$.$.O.$.$.$.",
"$.$.$.$.$.$.$.$.$.$.$.O.$.$.O.$.$.O.$.$.$.$.$.$.$.$."
};
