/* XPM */
static char *fb70ee1d05c7427bd045b76e81c1cbf4MOnvTQ0giEf9q004[] = {
/* columns rows colors chars-per-pixel */
"26 32 96 2 ",
"   c black",
".  c #010101",
"X  c #020202",
"o  c gray1",
"O  c #040404",
"+  c gray2",
"@  c #060606",
"#  c #0C0C0C",
"$  c gray10",
"%  c #2A2A2A",
"&  c #2F2F2F",
"*  c #323232",
"=  c #343434",
"-  c #393939",
";  c gray36",
":  c gray48",
">  c #7B7B7B",
",  c #7C7C7C",
"<  c gray50",
"1  c #808080",
"2  c gray51",
"3  c #838383",
"4  c #848484",
"5  c #868686",
"6  c gray53",
"7  c #888888",
"8  c #898989",
"9  c gray54",
"0  c #8B8B8B",
"q  c gray55",
"w  c #8D8D8D",
"e  c #8E8E8E",
"r  c gray56",
"t  c #909090",
"y  c gray57",
"u  c #929292",
"i  c #939393",
"p  c #959595",
"a  c gray59",
"s  c #989898",
"d  c gray60",
"f  c #9A9A9A",
"g  c gray61",
"h  c #9D9D9D",
"j  c gray62",
"k  c #9F9F9F",
"l  c #A0A0A0",
"z  c gray63",
"x  c #A2A2A2",
"c  c #A7A7A7",
"v  c gray68",
"b  c gray69",
"n  c #B2B2B2",
"m  c #B4B4B4",
"M  c gray74",
"N  c #C5C5C5",
"B  c #C6C6C6",
"V  c gray78",
"C  c gray79",
"Z  c #CACACA",
"A  c #CBCBCB",
"S  c gray80",
"D  c #CDCDCD",
"F  c #CECECE",
"G  c gray81",
"H  c #D0D0D0",
"J  c gray82",
"K  c #D2D2D2",
"L  c LightGray",
"P  c gray83",
"I  c #D5D5D5",
"U  c gray84",
"Y  c #D7D7D7",
"T  c #D8D8D8",
"R  c gray85",
"E  c #DADADA",
"W  c gray86",
"Q  c gainsboro",
"!  c #DDDDDD",
"~  c gray87",
"^  c #DFDFDF",
"/  c gray89",
"(  c #E6E6E6",
")  c #E7E7E7",
"_  c #EAEAEA",
"`  c #F3F3F3",
"'  c #F6F6F6",
"]  c gray97",
"[  c #F8F8F8",
"{  c #F9F9F9",
"}  c gray98",
"|  c #FBFBFB",
" . c gray99",
".. c #FDFDFD",
"X. c #FEFEFE",
"o. c white",
/* pixels */
"[ o.o.o.o.[ [ o.[ o.o.o.o.o.o.o.[ o.[ [ [ [ o.o.o.o.",
"o.o.o.o.' o.o.o.o.o.o.[ o.o.o.o.o.o.o.o.' o.o.o.o.o.",
"o.o.o.[ [ m 1 u u r r u r r r u r r 7 5 W o.o.o.o.o.",
"[ o.[ [ o.,                             V o.[ o.o.o.",
"[ [ o.o.o.7       O   $ * %             Z o.o.[ o.o.",
"[ [ n 1 5 V ! W W P ! 1   O n ! W ! W P v 7 5 P o.o.",
"o.o., O   ! o.o.o.o.o.d     W o.o.o.o.o.d     Z o.o.",
"o.o.r     W o.[ o.[ o.p     P o.o.o.o.o.z     P o.o.",
"o.o.7     ! o.o.o.o.o.p     P o.o.o.o.o.k     L o.o.",
"o.o.7     ! o.o.o.[ o.p     L o.o.o.o.o.k     L o.o.",
"o.o.7     ! o.o.o.[ [ 7   O Z o.o.o.o.o.k     L o.o.",
"o.o.7     W o.o.o.[ o.! L L _ o.o.o.o.o.k     L o.o.",
"o.o.7     ! o.o.o.[ [ o.o.o.o.o.o.o.o.o.k     L o.o.",
"o.o.7     ! o.o.o.o.o.o.[ o.o.o.o.o.o.o.k     L o.o.",
"o.o.7     W o.o.o.o.o.o.o.o.o.o.o.o.o.o.k     L o.o.",
"o.o.7     W o.[ o.o.o.o.o.o.o.o.o.o.o.o.k     L o.o.",
"o.o.r     ! o.o.` o.o.o.o.o.o.o.' o.o.o.z     L o.o.",
"o.o.r     , d u / o.o.o.o.o.o.[ o.M 7 d ; O   L o.o.",
"[ o.r   & O     P o.o.o.o.o.o.[ o.r   O   =   S o.o.",
"o.o.>     # *   W o.o.o.o.o.o.o.o.k   -       V o.o.",
"[ [ W S P >   O ! o.[ o.o.o.o.o.o.d     c P Z ) o.o.",
"o.o.[ o.o.u     W o.o.o.o.o.o.o.o.k     P o.o.o.o.o.",
"o.o.o.[ o.r O   W o.o.o.o.o.o.o.o.k     L o.' o.o.o.",
"o.o.o.o.o.u     ! o.o.o.o.o.o.o.o.d     L o.o.o.o.o.",
"o.o.o.[ o.r     L o.[ [ o.o.o.[ o.k     S o.o.o.o.o.",
"o.o.[ o.[ 1     W o.o.o.o.o.o.o.o.u     V o.o.o.o.o.",
"o.o.o.o.' W V S c k z z z z z k p V S V ) [ o.o.o.o.",
"o.o.o.o.o.o.o.o.r                 L o.o.[ o.o.o.o.o.",
"o.o.o.o.o.[ ' o.1                 Z o.[ o.o.o.o.o.o.",
"o.o.o.o.o.o.[ [ W S S L L S S Z V / o.o.o.o.o.o.o.o.",
"o.o.o.o.o.o.o.o.o.o.o.o.o.o.o.o.o.o.o.o.o.o.o.o.o.o.",
"o.o.o.o.o.o.o.o.o.[ o.[ o.o.[ o.[ o.[ o.o.o.o.o.o.o."
};
