/* XPM */
static char *d2f4419d8d9c49428698123970adc10cB3esqrc1K6sVWtGt[] = {
/* columns rows colors chars-per-pixel */
"26 32 89 1 ",
"  c black",
". c #010101",
"X c #020202",
"o c gray1",
"O c #040404",
"+ c gray2",
"@ c #1E1E1E",
"# c #222222",
"$ c gray14",
"% c #272727",
"& c gray37",
"* c #7C7C7C",
"= c gray49",
"- c #7E7E7E",
"; c gray50",
": c #808080",
"> c #818181",
", c #848484",
"< c gray52",
"1 c gray53",
"2 c #888888",
"3 c #898989",
"4 c gray54",
"5 c #8B8B8B",
"6 c gray55",
"7 c #8D8D8D",
"8 c #8E8E8E",
"9 c gray56",
"0 c #909090",
"q c gray57",
"w c #939393",
"e c gray58",
"r c #959595",
"t c gray59",
"y c #979797",
"u c #989898",
"i c #9B9B9B",
"p c #9D9D9D",
"a c gray62",
"s c #9F9F9F",
"d c #A0A0A0",
"f c gray63",
"g c #A2A2A2",
"h c #A4A4A4",
"j c #ACACAC",
"k c gray68",
"l c #AFAFAF",
"z c #B2B2B2",
"x c #B4B4B4",
"c c #BBBBBB",
"v c gray",
"b c gray77",
"n c #C6C6C6",
"m c gray78",
"M c gray79",
"N c #CACACA",
"B c #CBCBCB",
"V c gray80",
"C c #CDCDCD",
"Z c #CECECE",
"A c gray81",
"S c #D0D0D0",
"D c gray82",
"F c #D2D2D2",
"G c LightGray",
"H c gray83",
"J c #D5D5D5",
"K c gray84",
"L c #D7D7D7",
"P c #D8D8D8",
"I c gray85",
"U c #DADADA",
"Y c gray86",
"T c gainsboro",
"R c gray87",
"E c #DFDFDF",
"W c #E1E1E1",
"Q c gray89",
"! c gray90",
"~ c #EAEAEA",
"^ c gray97",
"/ c #F8F8F8",
"( c #F9F9F9",
") c gray98",
"_ c #FBFBFB",
"` c gray99",
"' c #FDFDFD",
"] c #FEFEFE",
"[ c white",
/* pixels */
")[[[[))[[[[[[[[[)[))))[[[[",
"[[[[^[[[[[[[[[[[[[[[^[[[[[",
"[[[[[x*q99999999992<U[[[[[",
")[)[[*              m[))[[",
"[)[[[2              M[[)[[",
"))z:<mTUUUUUUUUUTTULl2<L[[",
"[[*O T[[[[[[[[[[[[[[i  M[[",
")[9  T[)[[[[[[[[[[[[f  G[[",
")[9  T[[[[)[[[[[[[[[a  G[[",
"[[9  L[)[)[)[)[[[[[[a  G[[",
"[[9  U[[[[[))[[[[[[[a  G[[",
"[[2  *yyyy9T[[[[[[[[a  G[[",
"[[9 $      Z[[[[[[[[a  G[[",
"[[2 @     OZ[[)[[[[[a  G[[",
"[[9 OlTGLGZ~[[[[[[[[a  G[[",
"[[9  W[[[[[[)))[[[[[a  G[[",
"[[2  U[[)[)[[)[[[[[[f  G[[",
"[[2  T[[[[[[)[c9aaqa&  G[[",
"[[9  T[[[[[[)[9      $ Z[[",
"[[2  T[[[[[[)[9     O# G[[",
"[[2  T[[[)[[))TZGGGG:  G[[",
"[[2  T[[[[[[[)[[[[[[h  G[[",
"[[2  T[[[[[[[[[))[[[a  G[[",
"[[9  T[[[[[[[[[[[[[[i  G[[",
"^[2  G[)[[[[[[[[)[)[a  Z[[",
"))* OG[[[[[[[[[[[[[[y Om[[",
"[)LZMlaaffffffffafayvGM![[",
"))[)[< O            G[[[[[",
"[[)))<              M[[)[[",
"[[[))LZGZZZZZZZZZZZMW[[[[[",
"[[[[[[[[[[[[[[[[[[[[[[[[[[",
"[[[[[[[[[[[[)[[[)[[)[)[[[["
};
