/* XPM */
static char *xpm_[] = {
/* columns rows colors chars-per-pixel */
"64 64 100 2 ",
"   c #010101",
".  c #080807",
"X  c #0A0B0B",
"o  c #151515",
"O  c #1C1C1C",
"+  c #242424",
"@  c #292927",
"#  c #292728",
"$  c #2C2C2C",
"%  c #2E2F30",
"&  c #333333",
"*  c #3B3B3B",
"=  c #3E3F40",
"-  c #424242",
";  c #474847",
":  c #484847",
">  c #4C4C4C",
",  c #51504F",
"<  c #545454",
"1  c #575858",
"2  c #5C5B5B",
"3  c #60605F",
"4  c #5F5F60",
"5  c #5F6160",
"6  c #646464",
"7  c #686767",
"8  c #676867",
"9  c #6B6B6B",
"0  c #706F6F",
"q  c #716F70",
"w  c #737373",
"e  c #7B7B7B",
"r  c #807F7F",
"t  c #848484",
"y  c #888887",
"u  c #8C8C8C",
"i  c #908F8E",
"p  c #8F908E",
"a  c #90908F",
"s  c #908F90",
"d  c #8F9190",
"f  c #929292",
"g  c #949495",
"h  c #959595",
"j  c #969594",
"k  c #979797",
"l  c #979897",
"z  c #99999A",
"x  c #9A9A9A",
"c  c #9B9D9C",
"v  c gray61",
"b  c #9F9F9F",
"n  c #A2A2A3",
"m  c #ACACAC",
"M  c #AFB0AF",
"N  c #AFB0B0",
"B  c #B3B4B4",
"V  c #BCBCBC",
"C  c #C0BFBF",
"Z  c #BFC0BF",
"A  c #BFBEC0",
"S  c #BFC0C0",
"D  c #C3C3C3",
"F  c #C8C7C7",
"G  c #C7C8C8",
"H  c #CCCBCC",
"J  c #CFCFD0",
"K  c #D3D3D3",
"L  c #DCDCDC",
"P  c #DFE0DF",
"I  c #E4E4E4",
"U  c #E6E6E6",
"Y  c #E8E8E7",
"T  c #E7E7E8",
"R  c #E8E7E8",
"E  c #EAE9E9",
"W  c #ECECEC",
"Q  c #EFEFEF",
"!  c #F0EEEF",
"~  c #F0F0EF",
"^  c #F0EFF0",
"/  c #EFF0F0",
"(  c #F0F1F0",
")  c #F4F2F3",
"_  c #F4F4F3",
"`  c #F3F3F4",
"'  c #F5F5F5",
"]  c #F7F7F7",
"[  c #F8F8F7",
"{  c #F7F7F8",
"}  c #F9F7F8",
"|  c #F7F8F9",
" . c #FAF9FA",
".. c #FBFBFB",
"X. c #FAFCFB",
"o. c #FDFCFB",
"O. c #FBFBFC",
"+. c #FBFCFC",
"@. c #FCFCFE",
"#. c white",
/* pixels */
"#.#.#.#.#.#.#.#.#.#.#.+.#.#.#.#.#.#.#.#.#.#.#.#.#.#.#.#.#.#.#.#.#.#.#.#.#.#.#.#.#.#.#.#.#.#.+.#.#.#.#.#.#.#.#.#.o.#.#.#.#.#.#.#.",
"#.#.#.#.#.#.#.#.#.#.#.#.#.#.#.#.#.#.#.#.#.#.#.#.#.#.#.#.#.#.#.#.#.#.#.#.#.#.#.#.#.#.#.#.#.#.#.#.#.#.#.#.#.#.#.#.#.#.#.#.#.#.#.#.",
"#.#.#.#.#.#.#.#.#.#.#.#.#.#.#.#.#.#.#.#.#.#.#.#.#.#.#.#.#.#.#.+.#.#.#.#.#.#.#.#.#.#.#.X.#.#.#.#.#.#.#.#.#.#.#.#.#.#.#.#.#.#.#.#.",
"#.#.#.#.#.#.#.o.#.#.#.#.#.#.#.#.#.#.#.#.#.#.#.o.#.#.#.#.#.#.#.#.#.#.#.o.#.#.#.#.#.#.#.#.#.#.#.#.#.#.#.#.#.#.#.#.#.#.#.#.#.#.#.#.",
"#.#.#.#.o.#.#.#.#.#.#.#.#.#.#.+.#.#.#.o.#.#.#.#.#.#.#.#.#.#.#.#.#.#.#.#.o.#.#.#.#.#.#.#...#.#.#.#.#.#.#.#.#.#.#.#.#.#.#.#.#.#.#.",
"#.#.#.#.#.#.#.#.#.#.#.#.#.#.#.#.#.#.#.#.#.+.#.#.#.#.#.#.#.#.#.#.#.#.o.#.#.#.#.#.#.#.#.#.#.#.#.#.#.#.#.+.#.#.#.#.#.#.#.#.#.#.#.#.",
"#.#.#.#.#.#.#.#.#.#.#.#.#.#.#.#.#.#.#.#.#.#.#.#.#.#.#.#.#.#.#.#.#.#.#.#.#.#.#.#.#.#.#.#.#.#.#.#.#.#.#.#.#.#.#.#.#.#.#.#.#...#.#.",
"#.#.#.#.#.#.#.#.#.#.#.#.#.#.#.#.#.#.#.#.#.#.#.#.#.+.#.#.#.#.#.#.#.#.#.#.#.#.#.#.#.#.#.#.#.#.#.#.#.#.#.#.#.#.#.#.#.#.#.#.#.#.#.#.",
"#.#.#.#.#.#.#.#.#.#.#.#.#.#.#.#.#.#.@.#.#.#.#.#...#.#...#...#.#.X...#.#.` #.#.' #.#.#.#.#.#.#.#.#.#.#.#.#.#.#.#.#.#.#.#.#.#.#.#.",
"#.#.#.#.#.#.o.#.#.#.#.#.#.#.#.#.#.X.#.#.#.#.#.#.#.` ' #.Q #.#.#.#.#.#.Q #...#.#.#.#.#.#.#.#.#.#.#.#.#.#.#.#.#.#.#.#.#.#.#.#.#.#.",
"#.#.#.#.#.#.#.#.+.#.#.#.#.#.#.#.#.#.#.#.#.#.#.#.#...#.} #.' #.#.o.#.[ #.' #...#.#.#.#.#.#.#.#.#.#.#.#.#.#.#.#.@.#...#.#.#.#.#.#.",
"#.#.#.#.#.#.#.#.#.#.#.#.#.#.#.#.#.#...#.#...#.#.#.....} ....#.@.{ #.#.#.} #.#.#.#.#.#.#.#.#.o.#.#.#.#.#.#.#.#.#.#.#.#.#.#.#.#.#.",
"#.#.#.#.o.#.#.#.#.#.#.#.#.#.#.+.#.+.#...o.#.#.#.....} #.o # + @ X X O . #./ ` ..#.o.#.#.#.#.#.#.#.#.#.#.#.#.#.#.#.#.#.#.#.#.@.#.",
"#.#.#.#.#.#.#.#.#.#.#.#.#.#.#.#.#.....#.#.#.#.#.Q ....U + .   o * O o + ..#.#...#.#.#.#.#.#.#.#.#.#.#.#.#.#.#.#.#.o.#.#.#.#.#.#.",
"#.#.#.#.#.#.#.#.#.#.#.#.#.#.#.#.#.......#.#.#.@.o X . + e y u t w w 6 1 o     O #.#.#.#.#.#.#.#.#.#.#.#.#.#.#.#.#.#.#.#.#.#.#.#.",
"#.#.#.#.#.#.#.#.#.#.#.#.#.#.#.#.#...#.#...#.#...+ X + + t t y t u t 1 1 o +   + #.#.#.#.#.#.#.#.#.#.#.#.#.#.#.#.#.#.#.#.#.#.#.#.",
"#.#.#.o.#.#.#.#.o.#.#.#.#.#.#.#...#...#.Q ' * * 1 9 t h l h f f u u f f x p 9 6 % + } ....#.~ ' #.#.#.#.#.#.#.#.#.#.#.#.#.#.#.#.",
"#.#.#.#.#.#.#.#.#.#.#.#.#.#.#.#.#.#.#./ #...X - 6 w t f h f f h f s f u f u 9 6 & O #.#.~ Q #.Q ..#.#.#.#.#.#.#.#.#.#.o.#.#.#.#.",
"#.#.#.#.#.#.#.#.#.#.#.#.#.#.#.#.o.#.#._     9 w t u s f f f f s u u h h c c u f 6 9     #.#.Q Q #.#.#.#.#.#.#.#.#.#.#.#.#.#.#.#.",
"#.#.#.#.#.#.#.#.#.#.#.#.#.#.#.#.#.@.' +.    < > h h f f h f u a f f h f h x u h 9 6     ( ..Q #.#.#.#.#.#.#.#.#.#.#.#.#.#.#.#.#.",
"#.#.#.#.#.#.+.#.o.#.#.#.#.#.#.@.#.#.' #.    h f u u u u f h f f f f h f l x u v u v     #.` #.Q #.#.#.#.#.#.#.#.#.+.#.#.#.#.#.#.",
"#.+.#.#.#.#.#.#.#.#.#.#.#.#.#.#.#.E #.#.    t e u u u f f h f f u u f f v b f h u f     ' #.Q ..#.#.#.#.#.#.#.#.#.#.#.#.#.#.#.#.",
"#.#.#.#.#.#.#.#.#.#.#.#.#.#.#.#.` #.    9 6 x e h h h h h f f u h f f u f u 9 9 u f f u     ..` #.#.#.#.#.X.#.#.#.#.#.#.#.o.#.#.",
"#.#.#.#.#.#.#.#.#.#.#.#.#.#.#.#.Q `     6 6 e f u a f f f u d f f u u f x h w 6 f u p f     #.Q #.o.#.#.#.#.#.#.#.#.#.#.#.#.#.#.",
"#.#.#.#.#.#.#.#.#.#.#.#.#.#.#.#.] #.    f f u h f f f f f f f u u t f u t y u u 3 6 y u     ( ..#.#.#.#.#.#.#.#.#.#.#.#.#.#.#.#.",
"#.#.#.#.#.#.#.#.#.#.#.#.#.#.#.#.#.#.    u g f h h f f f u u u u t u e u y y t t 9 6 u u     #.#.#.#.#.#.#.#.#.#.#.#.#.#.#.#.#.o.",
"#.#.#.#.#.#.#.#.#.#.#.#.#.#.#.#...#.    u h u f h h f f f s u f y f m B 6 2 t t 3 < 6 6     ` [ #.#.#.#.+.#.#.#.#.#.#.#.#.#.#.#.",
"#.#.#.#.#.#.#...#.#.#.#.#.#.#.@.' #.    t u u h u u a p u u u u u t B m < 6 t i 6 1 8 <     ' #.#.#.#.#.#.#.#.#.#.#.#.#.#.#.#.#.",
"#.#.#.#.#.#.#.#.#.#.#.#.#.#.#.#.#.#.    9 e f n v x l h a u u u y f L U ' R 6 2 V B     ` ` #./ #.#.#.#.#.#.#.#.#.#.#.#.#.#.#.#.",
"#.#.#.#.#.#.#.#.#.#.#.#.#.#.#.#.#.#.    6 9 y h h u u p f h f u s r U L ` _ q w B V     #.#.#.#.#.#.#.#.#.#.#.#.#.#.#.#.#.#.#.#.",
"#.#.#.#.#.#.#.#.#...#.#.#.#.#.#.....    9 9 w w w 9 9 w t u u t 6 < ' ^ I Q B V ~ U     #...' ` #.#.#.#.#.#.#.#.#.#.#.#.#.#.#.#.",
"#.#.#.#.#.#.#.#.#.#.#.#.#.#.#.#.#.#.    6 6 9 6 q 9 9 w y f f u 6 2 U I Q ` V C ! U     #.] #.#.#.#.#.#.#.#.#.#.#.#.#.#.#.#.#.+.",
"#.#.#.#.#.#.#.#.#.#.#.#.#.#.#.#.' #.# O 6 4 : > 7 6 e w w 9 7 6 : 9 L L < : < < V D     ( ' #.' #.#.#.#.#.#.#.#.#.#.#.#.#.#.#.#.",
"#.#.#.#.#.#.#.#.#.#.#.#.#.#.+.#.U '   $ 7 1 9 , w 6 9 0 6 < w 1 6 2 U U 9 6 2 : B V .   #.' Q o.#.#.#.#.#.o.#.#.#.#.#.#.#.@.#.#.",
"#.#.#.#.#.#.#.#.#.#.#.#.#.#.#.#...' #.Q @ o 1 6 6 6 9 w 6 9 D V < 1 V m D V o # 8 w     ../ #.) #.#.#.#.#.#.#.#.#.#.#.#.#.#.#.#.",
"#.#.#.#.#.#.#.o.#.#.#.#.#.#.#.#.Q Q ' #.& + 9 2 w w 9 2 6 6 M V 6 2 m V H K * $ < 6   O ..#.#.@.#.#.#.#.#.#.#.#.#.#.#.#.#.o.#.#.",
"#.X.#.#.#.#.#.#.#.#.#.+.#.#.#.#.@.' #.' O + 6 9 9 6 6 2 m V F H 9 1 Q Q ` #.    E W V m #.[ ..` #.#.#.#.#.#.#.#.#.#.o.#.#.#.#.#.",
"#.#.#.#.#.#.#.#.#.#.#.#.#.#.#.#.' #.#.@.@ $ q e w 8 6 < V F B S 9 9 U I ..#.    ( E V D ( ( #.` #.#.#.#.#.#.#.#.#.#.#.#.#.#.#.#.",
"#.#.#.#.#.#.#.#.#.#.#.#.X.#.#.#.#.W #.` ' #.    9 9 6 < B B Z D V F I ..U U ' U E E < ; X.#.Q ....#.#.#.#.#.#.#.#.#.#.#.#.#.#.#.",
"#.#.#.#.#.#.#.#.#.#.#.#.#.#.#.#.#.#.o.' ..#.    9 6 < 4 V m H B D C ` R Q Q E _ I Q 6 ; #...` #.#.#.#.#.#.#.#.#.#.#.#.#.#.#.#.#.",
"#.#.#.#.#.#.#.#.#.o.#.#.#.#.#.#.' #.#.#.#.#.Q ..    O O X # m m D V H V Q E V V     @.E ' #.Q #.#.#.#.#.#.#.#.#.#.#.#.@.#.#.#.#.",
"#.#.#.#.#.#.#.o.#.#.#.#.#.#.#.#.#.#.#.#.#.Q #.`     O + . + m V D B B D L Q H V   . Q #.} ..Q +.#.#.#.#.#.#.#.#.#.#.#.#.#.#.#.#.",
"#.#.#.#.#.#.#.#.#.#.#.#.#.#.#.#.#.{ ....#.` ' L < -     * * & + 9 9 9 < e t     ..U #.o.' ..#.' #.#.#.#.#.#.#.X.#.#.#.#.#.#.#.#.",
"#.#.#.#.#.#.#.#.#.#.#.#.#.#.#.#.Q ....#.' #.R #.& <     = * @ < e w w 6 w 9 .   { #.Q #.....#.Q #.#.#.#.#.#.#.#.#.#.#.#.#.#.#.#.",
"#.#.#.#.#.#.#.o.#.#.#.#.#.#.#.#.#...' ` ' Q     B B 2 9 f v m m m m v m 2 1 #.Q Q ....#.' Q ..#.#.#.#.#.#.#.#.#.#.#.#.#.#.#.#.#.",
"#.#.#.#.#.#.#.#.#.#.#.#.#.#.#.#.Q ....#.` o.    B V 5 6 f x V V B V n m 6 < +.#.Q { Q Q #.#...Q #.#.#.#.#.#.#.#.#.#.#.#.#.#.#.#.",
"#.#.#.#.#.#.#.#.#.#.#.#.#.#.#.#.( ' ` ` Q #.    B G 1 2 D V D K v h w w h t < * #.#.` ..) #.#.#.#.#.#.#.#.#.#.#.#.#.#.#.#.#.#.#.",
"#.#.#.#.#.#.#.#.#.#.#.#.#.#.#.#.[ ~ _ ' Q #.    B V 9 w H F K D h f 2 2 t u < 1 ..#.Q #...#.#.( #.#.#.#.#.#.#.#.#.#.#...#.#.#.#.",
"#.#.#.o.#.#.#.#.#.#.#.#.#.#.#.+...#.#.......#.'     n x H D     : # - <     6 - o.~ #.#.X.#.#.' #.#.#.#.#.#.#.#.#.o.#.#.#.#.#.#.",
"#.#.#.#.+.#.#.#.#.#.#.#.#.#.#.#.#.W #...' #.#.#.    u b G B     # & & +     - < ..X.#.' #.~ #.#.#.#.#.#.#.#.#.#.#.#.#.#.#.#.#.#.",
"#.#.#.#.#.#.#.#.#.#.#.#.#.#.#.#.~ #.T Q #./ [ /     B B m B     O $ K ( U L     ; * V H ' #.#.' #.#.#.#.#.#.#.#.#.#.#.#.o.#.#.#.",
"#.#.#.#.#.#.#.#.#.#.#.#.#.#.#.#.` ' Q #.E { #.#.    n m B b .   X $ H U L L     ; * H F X.#.o.#.#.#.#.#.#.#.#.#.#.#.#.#.#.#.#.#.",
"#.#.o.#.#.#.#.#.#.#.#.#.#.#.#.#...U ' E K K .   1 9 u f l f F F # * L L B B     % #     D F ' ' #.#.#.#.#.#.#.#.#.#.#.@.#.#.#.#.",
"#.#.#.#.#.#.#.#.#.#.#.#.#.#.#.#.W _ [ #.J H     < 9 t h u u K L * & L U V V       &     K D ` ..#...#.#.#.#.#.#.#.#.#.#.#.#.#.#.",
"#.#.#.#.#.#.#.#.#.#.o.#.#.#.#.#.' I D H     $ @ x w f u e 9 .               + % * X     B D Q ! #.#.#.#.#.#.#.#.#.#.#.#.#.#.#.#.",
"#.#.#.#.#.#.#.#.#.#.#.#.#.#.#.#.U Q V D     $ + u e u a < 6                 + $ + *     D V ....#.#.#.#...#.#.#.#.#.#.#.#.#.#.#.",
"#.#.#.#.#.#.#.#.X.#.@.#.#.#.#.#.W ~ C V       + O   O o     V V V V B V F F         V V @...' @.#.#.#.#.#.#.#.#.#.#.#.#.#...#.#.",
"#.#.+.#.#.#.#.#.+.X...o.#.#.#.#.~ Q n H     -   $   O +   . V B B Z V D D B X     . B F ....#.' #.#.#.#.#.#.#.#.#.#.#.#.#.#.#.#.",
"#.#.#.#.#.#.#.#.#.#...#.#.#.#.#.W #.! ] G H             H D X.` #...( E ( #.B D F N #.E Q Q #.} #.#.#.#.#.#.#.#.#.#.#.#.#.#.#.#.",
"#.#.#.#.#.#.#.#.#...#.#.#.#.#.#.] @.` Y K H             L H ..' W ~ ..#...` D V H F #.#.#...#.Q #.#.#.#.#.#.#.#.#.#.#.#.#.#.#.#.",
"#.#.#.#.#.#.#.#.o.o...#.#.#.#.#...' ` #...#.U H H G P K #.} #.` #.@...| ..} #.....' X.[ ` / #...#.#.#.#.#.#.#.#.#.#.#.#.#.#.#.#.",
"#.#.#.#.#.o.#.#.#.#.+.#.#.#.#.#.#.+.#.U #.' V V D K H G #.#.` #.#...#.#.#.' #./ ..#.#.#.#.#.#...#.#.#.#.#.#.#.#.#.X.#.#.#.#.X.#.",
"o.#.#.#.#.#.#.#.#.@.#...#.#.#.#...' #.#...#.#.#.#...#.! #...#...#...#.o.#.#.#.#.#.#.#.#.#.#.#.#.+.#.#.#.#.#.#.#.#.#.#.#.#.#.#.#.",
"#.#.#.#.#.#.#.#.#.....#.#.#.#.#.#.#.#.#.#.#.#...' #.' #.Q #.#.#.#.#.#.#.#.#.#.#.#.' #...#.#.#.#.#.#.#.#.#.#.#.#.#.#.#.#.#.#.#.#."
};
