/* XPM */
static char *xpm_[] = {
/* columns rows colors chars-per-pixel */
"64 64 105 2 ",
"   c #010101",
".  c #080807",
"X  c #0C0C0C",
"o  c #100F10",
"O  c #131413",
"+  c #171819",
"@  c #1B1B1B",
"#  c #242424",
"$  c #262827",
"%  c #282728",
"&  c #2B2B2B",
"*  c #31312F",
"=  c #302F30",
"-  c #333332",
";  c #3B3B3B",
":  c #40403F",
">  c #444343",
",  c #4B4B4B",
"<  c #535353",
"1  c #5C5C5C",
"2  c #605F60",
"3  c #5F6060",
"4  c #646464",
"5  c #676867",
"6  c #686967",
"7  c #6B6B6B",
"8  c #706F6F",
"9  c #6F706F",
"0  c #70706F",
"q  c #737373",
"w  c #7B7B7B",
"e  c #848484",
"r  c #878887",
"t  c #878888",
"y  c #8C8C8C",
"u  c #908F8E",
"i  c #8F908F",
"p  c #90908F",
"a  c #908F90",
"s  c #8F9190",
"d  c #929292",
"f  c #949395",
"g  c #939494",
"h  c gray58",
"j  c #959494",
"k  c #959696",
"l  c #979797",
"z  c #979798",
"x  c #989798",
"c  c #989899",
"v  c #9A9A9A",
"b  c #9C9B9B",
"n  c #9B9D9C",
"m  c gray61",
"M  c #9F9F9F",
"N  c #A4A4A4",
"B  c #ACACAB",
"V  c #B5B5B5",
"C  c #B7B6B8",
"Z  c #B7B8B8",
"A  c #BBBBBB",
"S  c #BFC0BF",
"D  c #BFC0C0",
"F  c #C3C4C3",
"G  c #C8C7C7",
"H  c #C8C7C8",
"J  c #C7C9C8",
"K  c #CCCCCC",
"L  c #CFCFD0",
"P  c #D4D4D4",
"I  c #DBDBDB",
"U  c #DFDFE1",
"Y  c #E4E4E4",
"T  c #E7E6E8",
"R  c #E8E7E8",
"E  c #EAE9E9",
"W  c #EBEBEB",
"Q  c #EDEEED",
"!  c #EEEEED",
"~  c #EFEEEF",
"^  c #F0EFEF",
"/  c #F0F0EF",
"(  c #EFEFF0",
")  c #F0EFF0",
"_  c #EFF0F0",
"`  c #F0F1F0",
"'  c #F3F2F2",
"]  c #F3F3F3",
"[  c #F4F3F3",
"{  c #F4F4F3",
"}  c #F5F5F4",
"|  c #F5F6F5",
" . c #F7F8F7",
".. c #F8F8F7",
"X. c #F7F6F8",
"o. c #F7F7F8",
"O. c #F7F8F9",
"+. c #FBFAFA",
"@. c #FAFBFB",
"#. c #FAFCFB",
"$. c #FDFCFB",
"%. c #FBFBFC",
"&. c #FDFCFD",
"*. c #FCFDFD",
"=. c white",
/* pixels */
"=.=.=.=.=.=.=.=.=.=.=.=.=.=.=.=.=.=.=.=.=.=.=.=.=.=.=.=.=.=.=.=.=.=.=.=.=.=.=.=.=.=.=.=.=.=.=.=.=.=.=.=.=.=.=.=.=.=.=.=.=.=.=.=.",
"=.=.=.=.=.=.=.=.=.=.=.=.=.=.=.=.=.=.=.=.=.=.=.@.=.=.=.=.=.=.=.$.=.=.=.=.=.=.=.=.=.=.=.=.=.=.=.=.=.=.=.=.=.=.=.$.=.=.=.=.=.=.=.=.",
"=.=.=.=.=.=.=.=.=.=.=.=.=.=.=.=.=.=.=.=.=.=.=.=.=.=.=.=.=.=.=.=.=.=.=.=.=.=.=.=.=.=.=.#.=.=.=.=.=.=.#.=.=.=.=.=.=.=.=.=.=.=.=.=.",
"=.=.=.=.=.=.=.$.=.=.=.=.=.=.=.=.=.=.=.=.=.=.=.=.=.=.=.=.=.=.=.=.=.=.=.=.=.=.=.$.=.=.=.=.=.=.=.=.=.=.=.=.=.=.=.=.=.=.=.=.=.=.=.=.",
"=.=.=.=.$.=.=.=.=.=.=.#.#.=.=.=.=.=.=.=.=.=.=.=.=.=.=.=.=.=.=.=.=.=.=.=.=.=.=.=.=.=.=.=.=.=.=.=.=.=.=.=.=.=.=.=.=.=.=.=.=.=.=.=.",
"=.=.=.=.=.=.=.=.=.=.=.=.=.=.=.=.=.=.=.=.=.=.=.=.=.=.=.=.=.=.=.=.=.=.=.=.=.=.=.=.=.=.=.=.=.=.=.=.=.=.#.=.=.=.=.=.=.=.=.=.=.=.=.=.",
"=.=.=.=.=.=.=.=.=.=.=.=.=.=.=.=.=.=.=.&.=.=.=.=.=.=.$.=.=.=.=.=.=.=.=.=.$.=.=.=.=.=.=.=.%.=.=.=.=.=.=.=.=.=.=.=.=.&.=.=.=.$.=.=.",
"=.=.=.=.=.=.=.=.=.=.=.=.=.=.=.=.=.=.=.=.=.=.=.=.=.=.=.=.=.&.=.=.=.=.=.=.=.=.=.=.=.=.=.=.=.=.=.=.=.=.=.=.=.=.=.=.=.=.=.=.=.=.=.=.",
"=.=.=.=.=.=.=.=.=.=.=.=.=.=.=.=.=.@.=.=.=.=.=.=.=.=.=.@.=.=.=.%.} =.=.=.~ =.=.} =.=.=.=.=.=.=.=.=.=.=.=.=.=.=.=.=.=.=.%.=.=.=.=.",
"=.=.=.=.=.=.=.=.=.=.=.=.=.=.=.=.=.=.=.=.=.=.&.=.=.` ` =.~ =.=.=.=.%.=.W =.=.=.=.=.=.=.=.=.=.=.=.=.=.=.=.=.=.=.=.=.=.=.=.=.=.=.=.",
"=.=.=.=.=.=.=.=.=.=.=.=.=.=.=.=.=.%.=.=.=.=.=.=.@.=.=.} =.} =.=.=.=.=.=.~ =.@.=.=.=.=.=.=.=.=.=.=.=.=.=.=.=.=.=.=.=.=.=.=.=.=.=.",
"=.=.=.=.=.=.=.=.=.=.=.=.=.=.=.=.=.=.#.=.=.=.=.=.=.} O.=.@.@.=.=.} =.=.=.=.=.=.=.=.=.=.=.=.=.=.=.=.=.=.=.=.=.=.=.=.=.=.=.=.=.=.=.",
"=.=.=.=.=.=.=.$.=.=.=.=.=.=.=.#.@.=.$.=.=.=.=.=.@.@.=.=.O & # % O O +   =.` ` } =.=.=.=.=.=.=.=.=.=.=.=.=.=.=.=.=.=.=.=.=.=.=.=.",
"&.=.=.=.=.=.=.=.=.=.=.=.=.=.=.=.=.=.=.=.=.=.=.=.` $.@.R # .   @ - # O #  .=.=.} =.=.=.=.=.=.=.=.=.=.=.=.=.=.=.=.=.=.=.=.=.=.=.=.",
"=.=.=.=.=.=.$.=.=.=.=.=.=.=.=.=.=.=.&.=.=.=.=.=.@ X X & w y y e q q 4 1 o     @ =.=.=.=.=.=.=.=.=.=.=.=.=.%.=.=.=.=.=.=.=.=.=.=.",
"=.=.=.=.=.=.=.=.=.=.=.=.=.=.=.=.%.=.=.=.=.=.=.=.# . # # e e r e y e 1 1 O $   $ =.=.$.=.=.=.=.=.=.=.=.=.=.=.=.=.=.=.=.=.=.#.=.=.",
"=.=.=.$.=.=.=.=.=.=.=.=.=.=.=.=.#.=.@.=.~ ` ; ; 1 7 e k c j d u y y p f v p 7 2 & % @.@.@.=.` } =.=.=.=.=.=.=.=.=.$.=.=.=.=.=.=.",
"=.=.=.=.=.=.=.=.=.=.=.=.=.=.$.=.=.=.=.` #.=.X > 4 q e u j j d k d d d y d y 7 4 - @ @.=.` ~ =.` %.=.=.=.=.=.=.=.=.=.=.=.=.=.=.=.",
"=.=.=.=.=.=.=.=.=.=.$.=.=.=.=.=.=.=.=.}     7 q e r y d g k a a y y g j M v y g 7 7     =.=.~ / =.=.=.=.=.=.=.=.=.=.=.=.$.=.=.=.",
"=.=.=.=.=.=.=.=.=.=.=.=.=.=.=.=.=.@.} #.    < , k k j k j y d u d d k d k v y k 7 2     ` @.~ =.=.=.=.=.=.=.=.=.=.=.=.=.=.=.=.=.",
"=.=.=.=.=.=.=.=.=.=.=.=.=.=.=.=.=.=.} =.    k d y y y y d k g k d d k d z v i v u M     =.` =.^ =.=.=.=.=.=.=.=.=.=.=.=.=.=.=.=.",
"=.=.=.=.=.=.=.=.=.=.=.=.=.&.=.=.=.E =.=.    e w y y y d k g d d y y d d v M d k y d     X.=.~ #.$.=.=.=.=.=.=.=.=.=.=.=.=.=.=.=.",
"=.=.=.=.=.=.=.=.=.=.=.=.=.=.=.=.} =.    7 1 v w f f k k d p a y k d d y d y 8 7 y k d y     #.` =.=.=.=.=.=.=.=.=.=.=.=.=.=.=.=.",
"=.=.=.=.=.=.=.#.=.=.=.=.=.=.=.=.) _     4 7 w d y u d d d u a d d y y d v d q 6 y y y g     =.^ =.=.=.=.#.=.=.=.=.=.=.=.=.=.=.=.",
"=.=.=.=.=.=.=.=.=.=.#.=.%.=.=.=.} =.    p k y d d d d d d d d a p y p u e r y u 1 5 t y     [ } =.=.=.=.=.=.=.=.=.=.=.=.=.=.=.=.",
"=.=.=.=.=.=.=.=.=.=.=.=.=.=.=.=.=.=.    y d d k d k d y y y y r e y e y r e e e 5 4 y y     @.@.=.#.=.=.=.=.=.=.=.=.#.=.=.=.=.$.",
"=.=.=.=.=.=.=.=.=.=.=.=.=.=.=.=.@.=.    s g a g f k k k d u d d y d B Z 2 1 r e 1 < 5 1     { @.=.=.=.=.=.=.=.=.=.=.=.=.=.=.=.=.",
"=.=.=.=.=.=.=.=.=.=.=.=.=.=.=.=.@.=.    t y y z y u d d i y y y y e Z V 1 6 r u 1 < 7 <     ` =.=.=.=.=.=.=.=.=.=.=.=.=.=.=.=.=.",
"=.=.=.=.=.=.=.=.=.=.=.=.=.=.=.=.=.=.    7 w g M M v v k d y y y y k I T [ R 4 1 F V     ` ` =.~ =.=.=.=.=.=.=.=.=.=.=.=.=.=.=.=.",
"=.=.=.=.=.=.=.=.=.=.=.=.=.=.=.=.=.=.    4 7 e s k u y u f k d y p e E I ) X.q w V A     =.@.=.=.=.=.=.=.=.=.=.=.=.=.=.=.=.=.=.=.",
"=.%.=.=.=.=.=.=.=.=.=.=.=.=.=.=.X.=.    7 7 q w q 7 7 q e y y e 6 < %.[ Y ` Z S ` Y     =.=.@.} =.=.=.=.=.=.=.=.=.=.=.=.=.=.=.=.",
"=.=.=.=.=.$.=.=.=.=.=.=.=.=.=.=.=.&.    4 6 q 7 7 7 6 q e k u e 4 1 E R ` ` F F E U     =.=.$.=.=.=.=.=.=.=.=.=.=.=.=.=.=.=.=.#.",
"=.=.=.=.=.=.=.=.=.=.=.%.=.=.=.=.` $.= $ 7 6 < 1 4 1 8 7 7 5 4 3 , 7 I U 7 < < < A F     O.#.=./ =.=.=.=.=.=.=.=.=.=.=.=.=.=.=.=.",
"=.=.=.=.=.=.=.=.=.=.=.=.=.=.=.=.W `   = 6 1 q 1 q 4 7 7 2 < 7 < 2 1 Y T 0 0 2 , N Z     =. .~ =.=.=.=.=.=.=.=.$.=.=.=.=.=.=.=.=.",
"=.=.=.=.=.=.=.=.=.=.=.=.=.=.=.=.@.} @.` = # 1 7 5 4 6 8 4 4 A V , 1 F A G K # * 3 9 X @ =.` =.` =.=.=.=.=.=.=.=.=.=.=.=.=.=.=.=.",
"=.=.=.=.=.=.=.$.=.=.=.=.=.=.=.=.` ` O.=.= $ q 4 8 7 7 2 6 4 V Z 1 1 V A L U > - < 4 @ & =. .=.} =.=.=.=.=.=.=.=.=.=.=.=.=.@.=.=.",
"=.@.=.=.=.=.=.=.=.=.=.=.=.=.=.=.=.` =.) O % 6 8 5 2 2 2 Z F K P 1 < ~ ~ / =.    R / D V =.%.` { =.=.=.=.=.=.=.=.=.=.=.=.=.=.=.=.",
"=.=.=.=.=.=.=.=.=.=.=.=.=.=.=.=.} =.@.@.& & 7 q 7 6 4 1 J L Z F 1 5 Y Y ..$.    ~ E G F } } =.} =.=.#.=.=.=.=.=.=.=.=.=.=.=.=.=.",
"=.=.=.=.=.=.=.=.=.=.=.=.#.=.=.=.=.~ =.) } =.    7 6 4 1 D C H J Z G Y  .Y E } U E R 1 , #.=.` =.=.=.=.=.=.=.=.=.=.&.=.=.=.=.=.=.",
"=.=.=.=.=.=.=.=.=.#.=.=.=.=.=.=.=.=.$.` @.=.    4 1 < 2 F C P V F A ~ Y ~ } E E T ~ 4 > =.=.` =.=.=.=.=.=.=.=.=.=.=.=.=.=.=.=.=.",
"=.=.=.=.=.=.=.=.=.=.=.=.$.=.=.=.=.=.=.=.$.=.=.=.      & . @ B B V F K F ` T V V     =.E } =.E @.=.=.=.=.=.=.=.=.=.=.=.=.=.=.=.=.",
"=.=.=.=.=.=.=.=.=.=.=.=.=.=.=.=.=.=.=.=.&.&.&.@.        @   B M F Z K J E T P V     ` =.=.X._ =.=.=.=.=.=.=.=.=.=.=.=.=.=.=.=.=.",
"=.=.=.=.=.=.=.=.=.=.=.=.=.=.=.=.@.&.=.@.$.@.@.@.E }     O   @ & 5 7 q 9 5 q     $.T =.=.` @.=.` =.=.=.=.=.=.=.#.=.=.=.=.=.=.=.=.",
"=.=.=.=.=.=.=.=.=.=.=.=.=.=.=.=.=.&.@.=.=.=.@.=.=.#.    $ & # # 7 q q w 7 q     O.=.~ =.=.@.=.^ =.=.=.=.=.=.=.=.=.=.=.=.=.=.=.=.",
"=.=.=.=.$.=.=.=.=.=.=.=.=.=.=.=.=.=.=.=.$.=.=.=.T E =.}         < 6 e e 4 < =.) ~ =.=.=.O.E @.$.=.=.=.=.=.=.=.=.=.=.=.=.=.=.=.@.",
"=.=.=.=.=.=.=.=.=.=.=.=.=.=.=.=.=.=.=.=.=.=.=.@.@.=.W @.        < q k y 5 < #.=./ } / @.=.=.@.` =.=.=.=.=.=.=.=.=.=.$.=.=.=.=.=.",
"=.=.=.=.=.=.=.=.=.=.=.=.=.=.=.=.=.=.=.$.=.=.$.=.@.Y     y k H Z v M V A M y ; # =.=.} @.} @.=.=.=.=.=.=.=.=.=.=.=.=.=.=.=.=.=.=.",
"=.=.=.=.=.$.=.=.=.=.@.=.=.=.=.=.=.@.$.=.@.$.@.@...=.    e e Z F y a F A y e , ; ` =.W =.@.=.@.} =.=.=.=.=.=.=.=.=.=.=.=.=.=.=.=.",
"=.=.=.=.=.=.=.=.=.=.=.=.=.=.=.=.@.` =.=.@.} =.} ` =.    4 7 1 7     A Z V B     ` =.@.=.#.=.X.=.=.%.=.=.=.=.=.=.=.=.=.=.=.=.=.=.",
"=.=.=.=.=.=.=.=.=.=.=.=.=.=.=.=.=.=.} =.` =.=.} =.=.    4 4 3 4     B F Z V     @.$.@.=.@.=.` O.=.=.=.=.=.=.=.=.=.=.=.$.=.=.=.=.",
"=.=.=.=.=.=.=.=.$.=.=.=.=.=.=.=.@.=.=.} P G         E _ ~ ~     k k A Z N y     =.} @.=.@.=.} =.=.=.=.=.=.=.=.=.=.=.=.=.=.=.=.=.",
"=.=.=.=.=.=.=.=.=.=.=.=.=.=.=.#.@.=.X.=.K K         Y ~ Y Y     q y N N k y     @./ =.=.} =.^ @.=.=.=.=.=.=.=.=.=.=.=.=.=.=.=.=.",
"=.=.=.=.=.=.%.=.=.=.=.=.=.=.=.=.#.=.J D     4 q     V V U T     I P N v 4 <     K G ` } / =.} =.=.=.=.=.=.#.=.=.=.=.=.=.=.=.=.=.",
"=.=.=.=.=.=.=.=.=.=.=.=.=.=.=.=./ ~ V J     0 <     F F E ~     G F x u < >     F Z =.&.=.=.#.=.=.=.=.=.=.=.=.$.=.=.=.=.=.=.=.=.",
"=.=.=.=.=.=.=.=.=.=.$.=.=.=.=.=.~ ` F F     & = 4 4         7 7 e y w e 3 1 % % , > C G ` } =.=.=.=.=.=.=.=.=.=.=.=.=.=.=.$.=.=.",
"=.=.$.=.=.=.=.=.=.=.=.=.=.=.=.=.~ ~ B G     = @ < 7         < < e e e y 6 4 - & , ; F J =./ =.X.=.=.=.=.=.=.=.=.=.=.=.=.=.=.=.=.",
"=.=.=.=.=.=.=.$.=.=.=.=.=.=.=.=.~ ` D A     X %   #                 @       % #     A A =.@.X.X.=.=.=.=.=.=.=.=.=.=.=.=.=.=.=.=.",
"=.=.=.=.=.=.=.=.=.=.=.=.=.=.=.=.` _ N K     > X &                   @ @ @ &   -   . V G @.%.$.` =.=.=.=.=.=.=.=.=.=.=.=.=.=.=.@.",
"=.=.=.=.=.=.=.=.=.=.=.=.=.=.=.=.E =.~ @.G J         G P H F F H P Z             P V =.E ` ~ @.O.=.=.=.=.#.=.=.=.=.=.=.=.=.=.=.=.",
"=.=.=.=.=.=.=.=.=.=.=.=.=.=.=.=.} =.~ ~ P J         K F A H A F F F             K J =.=.=.@.@.~ =.=.=.=.=.=.=.=.=.=.=.=.=.=.=.=.",
"=.=.=.=.=.=.=.=.=.=.=.=.=.=.=.=.$.X.` =...=.Y K P F =.#.=.` =.` @.=.K P P Y H I =.}  .} _ _ =.=.=.=.=.=.=.=.=.=.=.=.=.=.=.=.=.=.",
"=.=.=.=.=.=.=.=.=.=.=.=.=.=.=.=.=.} =.E =.=.Z A F P @.=.=.@...#.=.~ K G G K H K =.=.=.=.=.@.=.X.=.=.=.=.=.=.=.=.=.=.=.=.=.=.=.=.",
"=.=.=.=.#.=.=.=.=.=.=.=.=.=.#.=.=.=.=.=.=.=.=.=.@.` =.@.X.=.} @.@.=.@.=.=.` =.=.@.%.=.=.=.=.=.=.=.=.=.=.=.=.=.=.=.=.=.=.=.=.=.=.",
"=.=.=.=.=.=.=.=.=.=.=.=.=.=.=.=.=.@.=.=.=.=.=.@.=.=.@.=.=.} =.=.=.@.=.@.=.=.` =.$.@.=.=.=.=.=.=.=.=.=.=.=.=.=.=.=.=.=.=.@.=.=.=."
};
