/* XPM */
static char *xpm_[] = {
/* columns rows colors chars-per-pixel */
"64 64 111 2 ",
"   c #010101",
".  c #0C0B0B",
"X  c #100F0F",
"o  c #141414",
"O  c #1C1C1C",
"+  c #1F1F20",
"@  c #222222",
"#  c #272827",
"$  c #2B2B2B",
"%  c #333333",
"&  c #373839",
"*  c #3B3B3B",
"=  c #444444",
"-  c #4B4B4C",
";  c #545555",
":  c #585756",
">  c #565658",
",  c #585758",
"<  c #5C5C5C",
"1  c #605F5F",
"2  c #5F605F",
"3  c #60605F",
"4  c #636363",
"5  c #686767",
"6  c #676867",
"7  c #676768",
"8  c #686768",
"9  c #676868",
"0  c #6B6B6B",
"q  c #70706F",
"w  c #6F7170",
"e  c #727272",
"r  c #777877",
"t  c #7B7B7B",
"y  c #807F80",
"u  c #848484",
"i  c #888787",
"p  c #888887",
"a  c #888788",
"s  c #8C8C8C",
"d  c #8E908F",
"f  c #90918F",
"g  c #8F9190",
"h  c #939393",
"j  c #979897",
"k  c #999897",
"l  c #979798",
"z  c #989798",
"x  c #999999",
"c  c #9A9A9A",
"v  c #9B9B9B",
"b  c #9D9E9D",
"n  c #9F9F9F",
"m  c #A4A4A4",
"M  c #A7A8A7",
"N  c #ABABAB",
"B  c #B0AFAF",
"V  c #B1AFB0",
"C  c #B4B4B4",
"Z  c #B7B8B7",
"A  c #B8B9B7",
"S  c #BCBCBC",
"D  c #BFC0BF",
"F  c #C0C0BF",
"G  c #C0BFC0",
"H  c #BFC0C0",
"J  c #C4C4C4",
"K  c #C8C7C7",
"L  c #C9C8C7",
"P  c #C8C7C8",
"I  c #CBCBCB",
"U  c #D0CFCF",
"Y  c #CFCED0",
"T  c #D2D2D2",
"R  c #DCDCDC",
"E  c #E4E2E3",
"W  c #E4E3E5",
"Q  c gray90",
"!  c #E8E7E8",
"~  c #E7E8E8",
"^  c #E9EAEA",
"/  c gray92",
"(  c #EBECEB",
")  c #EDEBEC",
"_  c #ECECEC",
"`  c #EEEEEF",
"'  c #F0EFEF",
"]  c #EFF0EF",
"[  c #F0F0EF",
"{  c #F0EFF0",
"}  c #EFF0F1",
"|  c #F2F1F2",
" . c #F3F3F3",
".. c #F3F4F4",
"X. c #F4F4F4",
"o. c #F5F5F4",
"O. c #F5F6F5",
"+. c #F8F7F7",
"@. c #F7F8F7",
"#. c #F8F8F7",
"$. c #F7F7F8",
"%. c #F8F7F8",
"&. c #F8FAF9",
"*. c #FAF9FA",
"=. c gray98",
"-. c #FBFCFB",
";. c #FBFBFC",
":. c #FCFBFC",
">. c #FBFCFD",
",. c #FDFDFC",
"<. c white",
/* pixels */
"<.<.<.<.<.<.<.<.<.<.<.<.<.<.<.<.<.<.<.<.<.<.<.<.-.<.<.<.<.<.<.<.<.<.<.<.<.<.<.<.<.<.<.<.<.<.>.<.<.<.<.<.<.<.<.<.<.<.<.<.<.<.<.<.",
"<.<.<.<.<.<.<.<.<.<.<.<.<.<.>.<.<.<.<.<.<.<.<.<.<.<.<.<.<.<.<.<.<.<.<.<.<.<.-.<.<.<.<.<.<.<.<.<.<.<.<.<.<.<.<.<.<.<.<.<.<.<.<.-.",
"<.<.<.<.<.<.<.<.-.<.<.<.<.<.<.<.<.<.<.<.<.<.<.<.<.<.<.<.<.<.<.<.<.<.<.<.<.<.<.<.<.<.<.>.<.<.<.<.<.<.<.<.<.<.<.<.<.<.<.<.<.<.<.<.",
"<.<.<.<.<.<.<.<.<.<.<.<.<.<.<.<.<.<.<.<.<.<.<.<.<.<.<.<.<.=.<.<.<.<.<.<.<.<.<.<.<.<.<.<.<.<.<.<.<.<.<.<.<.<.>.<.<.<.<.<.<.<.<.<.",
"<.<.<.<.<.<.<.<.<.<.<.>.<.<.<.<.<.<.<.<.<.<.<.<.<.<.<.<.<.<.<.<.<.<.<.<.<.<.<.<.<.<.<.<.;.<.<.<.<.<.<.<.<.<.<.<.<.<.<.<.<.<.<.<.",
"<.<.<.<.<.<.<.<.<.<.<.<.<.<.<.<.<.<.<.<.<.<.<.<.<.<.<.<.<.<.<.<.<.<.-.<.<.<.<.<.<.<.<.<.<.<.<.<.<.<.<.<.<.<.<.<.<.<.<.<.<.<.<.<.",
"<.<.<.<.<.<.<.-.<.<.<.<.<.<.<.<.<.<.<.:.<.<.<.<.<.<.;.<.<.<.<.<.<.<.<.<.<.<.<.<.<.<.<.<.<.<.<.<.<.-.<.<.<.<.<.<.<.:.<.<.<.-.<.<.",
"<.<.<.<.<.<.<.<.<.<.<.<.<.<.<.<.<.<.<.<.<.<.<.<.<.<.<.<.<.<.<.<.<.<.<.<.<.<.<.<.<.<.<.<.<.<.<.<.<.<.<.<.<.<.<.<.<.<.<.<.<.<.<.<.",
"<.<.<.<.<.<.<.<.<.<.<.<.<.<.<.<.<.<.<.<.<.<.<.<.=.<.<.=.<.=.:.<.O.<.+.<.O.<.=.<.<.<.<.<.<.<.<.<.<.<.<.<.<.<.<.<.<.<.<.<.<.<.<.<.",
"<.<.<.<.<.<.-.<.<.<.<.<.<.<.>.<.<.<.<.<.<.<.<.<.<.=.<.<.+.| <.=.=.=.O.O.<.<.<.<.<.<.<.<.<.<.<.<.<.<.<.<.<.<.<.:.<.<.<.<.<.<.<.<.",
"<.<.<.<.<.<.<.<.<.<.<.<.<.<.<.<.<.<.<.<.<.<.<.>.<.| | =.+.<.<.O.` <.<.| <.| | <.<.<.<.<.<.<.<.<.<.<.<.<.<.<.<.<.<.<.<.<.<.<.<.<.",
"<.<.<.<.<.<.<.<.<.<.<.<.<.<.<.<.<.<.<.<.<.<.<.<.<.<.<.<.:.| O.=.=.O.| O.<.<.<.<.<.<.<.<.<.<.<.<.<.<.<.<.<.<.<.<.<.<.<.<.<.-.<.<.",
"<.<.<.<.<.<.-.<.<.<.<.<.<.<.<.<.<.<.<.<.<.<.<.<.=.=.[ ` <.<.=.O.=.| <.<.` | =.O.<.<.<.<.<.<.<.<.<.<.<.<.<.<.<.<.<.<.<.<.<.<.<.<.",
"<.<.<.<.<.<.<.<.<.<.<.<.<.<.<.<.<.<.<.<.<.<.<.<.@.O.O.<.=.<.<.<.<.<.<.O.<.O.O.=.<.<.<.<.<.<.<.-.<.<.<.<.<.<.<.<.<.<.>.<.<.<.<.<.",
"<.<.<.<.<.<.<.<.<.<.<.<.<.<.<.<.<.<.<.<.<.<.<.<.| %.=.W $   . O O     # Q <.O.` <.<.<.<.<.<.<.<.<.<.<.<.<.<.<.<.<.<.<.<.<.<.<.<.",
"<.<.<.<.<.<.<.<.<.<.<.<.-.<.<.<.<.<.<.<.<.<.<.<.=.( | <.. # & + O % @   <.=.^ =.<.<.<.<.<.<.<.<.<.<.<.<.<.<.<.<.<.<.<.<.<.<.<.<.",
"<.<.<.<.<.<.<.<.<.<.<.<.<.<.<.<.=.=.<.-.<.<.<.O.O   @ + 2 0 s u u a s f # # # # O.<.<.<.=.<.<.<.<.<.<.<.<.<.<.<.<.<.<.<.<.<.<.<.",
"<.<.<.<.<.<.<.<.<.<.<.<.<.<.<.<.O.<.<.<.<.<.| <.o . $ $ 4 0 s s h h s a $ # @ @ <.] <.#.<.<.<.| >.<.<.<.<.<.<.<.<.<.<.-.<.<.<.<.",
"<.<.<.<.<.<.<.<.<.<.-.<.<.<.<.<.<.` =.o.;.<.* # , < y u j s h s a s u b u s e 4 o * =.<.=.<.| <.<.<.<.<.<.<.<.<.<.<.<.<.<.<.<.<.",
"-.<.<.<.<.<.<.<.<.<.<.<.<.<.<.<.` =.<.<.<.=.% % , 6 u s x s s u x z i k f s < - O O -.<.<.<.<.| <.<.<.<.<.<.<.<.<.<.<.<.<.<.<.<.",
"<.<.<.<.<.<.<.<.<.<.<.<.<.<.<.:.O.$.O.=.    e 0 u u s s l h h h s l d h s l s k 4 0     <.| <.O.<.<.<.<.<.<.<.<.<.<.<.<.-.<.<.<.",
"<.<.<.=.<.<.<.<.<.<.<.<.<.<.<.<.` <.Q =.    t 6 k l h f g g s p f z h f s u u h < e     >.W <.] <.<.<.<.<.<.<.<.<.<.<.<.<.<.<.<.",
"<.<.<.<.<.<.<.<.<.<.<.<.<.<.<.<.^ / =.O.    u l s h x x b b j l l h h h x x h s s t     <.#.| ) <.<.<.<.<.=.<.<.<.<.<.<.<.<.<.<.",
"<.<.<.<.<.<.<.<.<.<.<.<.<.<.<.<.' +.[ |     l k l k x z l h s h h h z h s s l l l s     =.` -.' <.<.<.<.<.<.<.<.<.<.<.<.<.<.<.<.",
"<.<.<.<.<.<.<.=.<.<.<.<.<.<.<.<.=.<.    l d h l 7 0 h h h s h s h h h h h l h d s s 4 <     =.<.<.<.<.<.<.<.<.<.<.<.<.<.<.<.<.<.",
"<.<.<.<.<.<.<.<.<.<.<.<.<.<.<.<.<.=.    b l d h e r l l p u x h h h h h h h h h s s 9 0     =.=.<.<.<.<.<.<.<.<.<.<.<.<.<.<.<.<.",
"<.<.<.<.<.<.<.<.<.<.<.<.<.<.<.<.=.<.    s t 0 6 f s z x k s x s h h h h h h h h h h i u     <.<.<.<.<.<.<.<.<.<.<.<.<.<.<.<.<.<.",
"<.<.<.;.<.<.<.<.<.<.<.<.<.<.<.<.=.$.    s h 4 4 d k s t s u s h h h h h h h h h s l s d     <.=.<.<.<.<.<.<.<.<.<.<.-.<.<.<.<.<.",
"<.<.<.<.<.<.<.<.<.<.<.<.:.<.<.<.=.<.    1 4 ; 0 s s 0 4 Z C u s h h h l h h h h s h s g     <.=.<.<.<.<.<.<.<.<.<.<.<.<.<.<.<.<.",
"<.<.<.<.<.<.<.<.<.<.<.<.<.<.<.<.O.[     < 0 ; 0 d r 4 ; V J y s d f h h z h h l h h u u     <.<.<.<.<.<.<.<.<.<.<.>.<.<.<.<.=.<.",
"<.<.<.<.<.<.<.<.<.<.<.<.<.<.<.<.<.:.<.<.    I J : e R E | W u s f f h h h k l h s s 0 4     @.=.<.<.<.<.<.<.<.<.<.<.<.<.<.<.<.<.",
"<.<.<.<.<.<.<.<.<.<.<.<.<.<.<.<.<.^ <.<.    I C 4 < ! { ^ ^ k u h h h h h h h l h s 4 <     =.<.<.<.<.<.<.<.<.<.<.<.<.<.<.<.<.<.",
"<.<.<.<.<.<.<.<.<.<.<.<.<.<.>.<. .O.=.`     Q ` A S ^ ( ` ` 1 < i d f z r 1 t 1 ; ; , 4     <.$.<.<.<.<.<.<.<.<.<.<.<.<.<.<.<.<.",
"<.<.<.<.<.<.-.<.<.<.<.<.<.<.<.<.+.{ <.<.    / [ J C ' E ` R 0 < z f h s q 1 8 1 < ; ; -     O.| <.<.<.<.<.<.<.<.<.<.<.<.<.=.<.<.",
"<.<.<.<.<.<.<.<.>.<.<.<.<.<.<.<.O.<.;.'     C J < - 4 5 ` / 0 4 4 < 5 8 q t 0 0 ; , < ; O X <.<.<.<.<.<.<.<.<.<.<.<.<.<.<.<.<.<.",
"<.<.<.<.<.<.<.<.<.<.<.<.<.<.<.<.=.` <.+.    S J 5 < 4 < / ` 4 < , 1 , < , 1 < 0 0 , 4 < $ # <.=.<.<.<.<.<.<.<.<.<.<.<.<.<.<.<.<.",
"<.-.<.<.<.<.<.<.<.<.<.<.<.<.<.<.O.<.O.+.*   e 4   $ I T S V < 5 S M 4 4 6 0 e 7 ; 0   O <.O.<.=.<.<.<.<.<.<.<.<.<.<.<.<.<.<.<.<.",
"<.<.<.<.<.<.<.<.<.<.<.<.<.<.<.<.<.| =.^ $   t 4 = O J I S J 6 4 J C 6 e 4 4 q > t 0 % # O.=.<.<.<.<.>.<.<.<.<.<.<.<.<.<.<.<.<.<.",
"<.<.<.<.<.<.<.<.<.<.<.<.<.<.<.<.O.<.=.<.J J  .[     / =. .E 6 5 G T H Z 0 , 4 0 4 4 $ @ <.<.<.<.<.<.<.<.<.<.<.<.<.<.<.<.<.<.<.-.",
"<.<.<.<.<.<.<.<.<.<.<.<.<.<.<.<.=.=.=.=.S I O.'     O.O./ ! t 6 I I J S 0 0 , 1 e 4 % . <.<.O.<.<.<.<.<.<.<.<.<.<.<.<.<.<.<.<.<.",
"<.<.<.<.<.<.<.<.<.<.<.<.<.<.<.<.<.` O.<.; 0 O.` E ^ E ( O.| T U S I V G - < q q     :.^ | <.^ =.<.<.<.<.<.<.<.<.<.<.<.<.<.<.<.<.",
">.<.<.<.<.<.-.<.<.<.<.<.<.<.=.<.=.=.<.=.< - ` ^ ^ W ` / / / R R J S Z M , ; 4 q     | <.<.<.| <.<.<.<.<.<.<.<.<.<.<.<.<.<.-.<.<.",
"<.<.<.<.<.<.<.<.<.<.<.<.<.<.<.<.| | +.` =.<.    S C ! W I I J J J C % o $ =     <.~ <.<.O.=.<.| <.<.<.<.<.<.<.<.<.<.<.<.<.<.<.<.",
"<.<.<.<.<.<.<.<.<.<.<.<.<.<.<.<.=.<.O.=.<.;.    S N o.Q J J J I T G . O # #     <.<.{ =.=.<.<.` <.<.<.<.<.<.<.<.<.<.<.<.<.<.<.<.",
"<.<.<.<.<.<.<.<.<.<.<.<.<.<.<.<.O.<.<.=.| E <.=.    5 e 4 0 0 e + $ % +     O.<.| <.<.<.=.` <.<.<.<.<.<.<.<.<.<.<.<.<.<.<.<.:.<.",
"<.-.<.<.<.<.<.<.<.<.<.<.<.<.<.<.<.#.=.E <.-.<.=.    q t 0 4 e 0 - * % =     <.R | O.| O.<.<.O.o.<.<.<.<.<.<.<.=.<.<.<.<.<.<.<.<.",
"<.<.<.<.<.<.<.<.<.<.<.<.<.<.<.<.<.>.#.<.O.` <.O.# & u u r e M C s b 0 w     ....<.<.O.O.|  .O.<.<.<.<.<.<.<.<.<.<.<.<.<.<.<.<.<.",
"<.<.<.<.<.<.<.<.<.<.<.<.<.<.<.<.<.| =.E <.| <.=.% - h d y e M N b h y e     <.W ` ;.` <.<.<.<.<.<.<.<.<.<.<.<.<.<.<.<.<.<.<.<.<.",
"<.<.<.<.<.<.<.<.-.<.<.<.<.<.<.<.O...=.^ <.<.$ - b N s s M m S S S B y 0 t u     <.| <.| =.O.<.<.<.<.<.<.<.<.<.<.<.<.<.<.<.<.<.<.",
"<.<.<.<.<.<.<.<.-.<.=.<.<.<.<.<.<.O.^ <.=.:.- % x C s s v x M C N S e t s r     | <.<.| <.O.| <.;.<.<.<.<.<.<.<.<.<.<.<.<.<.<.<.",
"<.<.<.<.<.<.<.<.-.<.=.<.<.<.<.<.<.<.<.=...O.    h m < 4 6 3 2 , s h 0 6 M C     S I D J <.<.O.=.<.<.<.<.<.<.<.<.<.<.<.<.<.<.-.<.",
"<.<.<.<.<.<.<.<.<.=.<.<.<.<.<.>.#.+.-.=.:.|     l m ; < , * 4 - 4 u < 4 m l     I I J I =.=.<.<.<.<.<.<.<.<.<.<.<.<.<.<.<.<.<.<.",
"<.<.<.<.<.<.-.<.=.<.;.<.<.<.<.<.=.<.=.<.L J I U     o.W R E - - 0 4 i s 4 0     J D I J K I | { <.<.<.<.<.<.<.<.<.<.<.<.<.<.<.<.",
"<.<.<.<.<.<.<.<.<.<.=.<.<.<.<.<.<.=.O.=.J S I S     } R R R 4 : ; - u t w e     L D I I J J <.<.<.<.<.<.<.<.<.<.<.<.<.<.<.<.<.<.",
"<.<.<.<.<.<.<.<.=.<.-.<.<.<.<.<.| O.<.O.T R Z T     I K ^ | 0 4 s d T I     J I I I J J I K =.` <.<.<.<.<.>.<.<.<.<.<.<.<.-.<.<.",
"<.<.-.<.<.<.<.<.<.=.=.<.<.<.<.<.=.<.^ =.J I J J     S S ~ o.; 3 t u I T     K I S I J I U J +.<.<.-.<.<.<.<.<.<.<.<.<.<.<.<.<.<.",
"<.<.<.=.<.<.<.<.<.<.<.<.<.<.<.<.O.=.<.<.I I S L M C     0 ; % o   O   O     S Z D J I P I J <.=.<.<.<.<.<.<.;.<.<.<.<.<.<.<.<.<.",
"<.<.<.<.<.<.<.<.<.<.<.<.<.<.<.<.`  .| | I I G I C C     ; 4 % * $   @       S J S J I K T H ` ` <.<.<.<.<.<.<.<.<.<.<.<.<.<.<.<.",
"<.<.<.<.<.<.<.<.<.<.<.<.<.<.<.<.<.<.+.<.O.#.I J S S S J                 J J S S I J J I O.` <.O.<.<.<.<.<.<.<.<.<.<.<.<.<.<.<.<.",
"<.<.<.<.<.<.<.<.<.<.<.<.<.<.<.<.O.| ^ O.<.<.I J T S F Z                 S T J I I I S K =.=.<.^ <.<.<.<.<.<.<.<.<.<.<.-.<.<.<.<.",
"<.<.<.<.<.<.<.<.<.<.<.<.<.<.<.<.=.<.:.=.+.<.` =.=.=.O.<.R E I T T J R I T T <.<.` =.O.| <.=.=.<.<.<.<.<.<.<.<.<.<.<.<.<.<.<.<.<.",
"<.<.<.<.<.<.<.<.<.<.:.<.<.<.<.<.=.=.<.=.+.<.O.<.<.>.<.O.J S J I I T S K I T O.<.<.<.<.<.<.O.=.<.<.<.<.<.<.<.<.<.<.<.<.<.<.<.<.<.",
"<.<.<.<.<.<.<.<.<.<.<.<.<.<.<.<.<. .:.<.<.<.O.{ <.<.=.+.<.<.<.<.<.=.<.<.=.<.<.=.<.` o.O.=.<.<.<.>.<.<.<.<.<.<.<.<.<.<.<.<.<.<.<.",
"<.<.<.<.<.<.<.<.<.<.<.<.<.<.<.<.<.| <.=. .=.<.<.<.<.<.<.^ O.:.<.<.=.<.:.O.<.=.<.<.O.<.<.| =.<.<.<.<.<.<.<.<.<.<.<.<.<.<.<.<.<.=."
};
