/* XPM */
static char *xpm_[] = {
/* columns rows colors chars-per-pixel */
"64 64 108 2 ",
"   c #010101",
".  c #0C0C0C",
"X  c #100F10",
"o  c #0F1010",
"O  c #131314",
"+  c #171818",
"@  c #1B1B1C",
"#  c #242524",
"$  c #2B2B2B",
"%  c #2F2F30",
"&  c #353535",
"*  c #383837",
"=  c #3B3B3B",
"-  c #434242",
";  c #4D4C4C",
":  c #545454",
">  c #575856",
",  c #5C5C5C",
"<  c #60605F",
"1  c #5F5F60",
"2  c #605F60",
"3  c #636363",
"4  c #686767",
"5  c #676867",
"6  c #686867",
"7  c #676768",
"8  c #6B6B6B",
"9  c #70706F",
"0  c #6F6F70",
"q  c #706F70",
"w  c #727272",
"e  c #787777",
"r  c #797778",
"t  c #7B7B7B",
"y  c #848484",
"u  c #878688",
"i  c #878888",
"p  c #8D8C8C",
"a  c #908F8F",
"s  c #8F908F",
"d  c #90908F",
"f  c #8F8F90",
"g  c #908F91",
"h  c #8F9090",
"j  c #929292",
"k  c #949494",
"l  c gray59",
"z  c #989797",
"x  c #989897",
"c  c #979798",
"v  c #989798",
"b  c #979898",
"n  c #9A9999",
"m  c #9C9C9D",
"M  c #A09F9F",
"N  c #A2A2A2",
"B  c #A7A8A8",
"V  c #ABABAB",
"C  c #B4B4B4",
"Z  c #B8B7B7",
"A  c #B7B9B7",
"S  c #B8B8B7",
"D  c #B7B7B8",
"F  c #BCBBBC",
"G  c #BFBFC0",
"H  c #C0BFC0",
"J  c #C3C3C3",
"K  c #C8C7C6",
"L  c #C7C8C8",
"P  c #CBCBCB",
"I  c #D0D1CF",
"U  c #D3D3D3",
"Y  c #DDDDDD",
"T  c #DFE0DE",
"R  c #E4E4E4",
"E  c #E8E7E7",
"W  c #E8E8E7",
"Q  c #E8E7E8",
"!  c #E7E8E8",
"~  c #E9EAE9",
"^  c #ECECEC",
"/  c #EDEDEC",
"(  c #EEEEEF",
")  c #F0EFEF",
"_  c #F0F0EF",
"`  c #F0EFF0",
"'  c #EFF0F0",
"]  c #EFF0F1",
"[  c #F2F1F1",
"{  c #F2F2F1",
"}  c #F3F3F3",
"|  c #F5F3F4",
" . c #F5F4F4",
".. c #F5F5F6",
"X. c #F6F6F6",
"o. c #F8F6F7",
"O. c #F7F8F7",
"+. c #F8F8F7",
"@. c #F8F7F8",
"#. c #F7F8F8",
"$. c #FAFAF9",
"%. c #FBFCFB",
"&. c #FCFCFB",
"*. c #FCFDFB",
"=. c #FBFBFC",
"-. c #FDFCFD",
";. c #FCFEFD",
":. c white",
/* pixels */
":.:.:.:.:.:.:.:.:.:.:.:.:.:.=.:.:.%.:.:.:.:.:.:.:.:.:.:.:.:.:.:.:.:.:.:.:.:.:.:.:.:.:.:.:.:.:.:.:.%.:.:.:.:.:.:.:.:.:.:.:.:.:.:.",
":.:.:.:.:.:.:.:.:.:.:.:.:.:.:.:.:.:.:.:.:.:.:.:.:.:.:.:.:.:.:.:.:.:.%.:.:.:.:.:.:.:.:.:.:.:.:.:.:.:.:.:.:.:.:.:.:.:.:.:.:.:.:.:.",
":.:.:.:.:.:.:.:.:.:.:.:.:.:.:.:.:.:.:.:.:.:.-.:.:.:.:.:.:.:.:.:.:.:.:.:.:.:.:.:.:.:.:.%.:.:.:.:.:.:.:.:.:.:.:.:.:.:.:.:.:.:.:.:.",
":.:.:.:.:.:.:.*.:.:.:.:.:.:.:.:.:.:.:.:.:.:.:.:.-.:.:.:.:.-.:.:.:.:.:.:.:.:.:.:.:.:.:.:.:.:.:.:.:.:.:.:.:.:.:.:.=.:.:.:.:.&.:.:.",
":.:.:.:.*.:.:.:.:.:.:.:.:.:.:.:.:.:.:.:.:.:.:.:.:.:.-.:.:.:.:.:.:.:.:.:.:.*.:.:.:.:.:.:.:.:.:.:.:.:.:.:.:.:.:.:.:.:.=.:.:.:.:.:.",
":.:.:.:.:.:.:.:.:.:.:.:.:.:.:.:.:.:.:.:.:.:.:.:.:.:.:.:.:.:.:.:.:.:.:.:.:.:.:.:.:.:.:.:.:.:.:.:.:.:.:.%.:.:.:.:.:.:.:.:.:.:.:.:.",
":.:.:.:.:.:.:.:.:.:.:.:.:.:.:.:.:.:.:.:.:.:.:.:.:.:.:.:.:.:.:.:.:.:.:.:.:.:.:.:.:.:.:.:.:.:.:.:.:.:.:.:.:.:.:.:.:.:.:.:.:.:.:.:.",
":.:.:.:.:.:.:.:.:.:.:.:.:.:.:.:.:.:.:.:.:.:.:.:.:.:.:.:.:.:.:.:.:.:.:.:.:.:.:.:.:.:.:.:.:.:.:.:.:.:.:.:.:.:.:.:.:.:.:.:.:.:.:.:.",
":.:.:.:.:.:.:.:.:.:.:.:.:.:.:.:.:.:.:.:.:.:.:.:._ :.=.X.:.:.:.=.X.:.&.:.=.:.:.:.:.:.:.:.:.:.:.:.:.:.:.:.:.:.:.:.:.:.:.:.:.:.:.:.",
":.:.:.:.:.:.:.%.:.:.:.:.:.:.:.:.:.:.:.:.:.:.:.:.:.:.:.:.[ *.:.:.:.:.:./ :.X.) :.:.:.:.:.:.:.:.:.:.:.:.:.:.:.:.:.:.:.:.:.:.:.:.:.",
":.:.:.*.:.:.:.:.%.:.:.:.:.:.:.:.:.:.:.:.:.:.:.%.=.*.:./ :.=.:.:.=.:.X.:.X.:.*.:.:.:.:.:.:.&.:.:.:.:.:.:.:.:.:.:.:.:.:.:.:.=.:.:.",
":.:.:.:.:.:.:.:.:.:.:.:.:.%.:.:.:.:.:.:.:.:.:.:.:.:.:.:.:.:.%.:.:.:.@.X.:.+.=.:.:.:.:.:.:.:.:.:.:.:.:.:.:.:.:.:.:.:.:.:.:.:.:.:.",
":.:.:.:.:.:.:.:.:.:.:.:.:.:.:.:.:.:.:.:.:.:.:.:.X.X.[ :.  # + O # # $ + :.=.=.:.:.:.:.:.*.:.:.:.:.:.:.:.:.:.:.:.:.:.:.:.:.:.:.:.",
":.:.:.:.:.:.:.:.:.:.:.:.:.:.:.:.:.:.:.:.:.:.:.:.[ :.%.X.# + @ = @   O # / +.:.X.:.:.:.:.:.:.:.:.:.:.:.:.:.:.:.=.:.:.:.:.:.:.:.:.",
":.:.:.:.:.:.:.:.:.:.:.:.:.:.:.:.:.:.:.:.:.:.:.:.O     o : 3 e r y p p t $ + . + :.:.:.:.:.:.:.:.:.:.:.:.:.:.:.:.:.:.:.:.:.:.:.:.",
":.:.:.:.:.%.:.:.:.:.:.:.:.:.:.:.:.:.:.:.:.:.:.:.#   # o , , i j y i y y # # O # :.:.:.:.:.:.:.:.:.:.:.:.:.:.:.:.:.:.:.:.*.:.:.:.",
":.:.:.:.:.:.-.:.:.:.:.:.:.:.:.:.[ / :.X.:.:.& & , 6 p k p k p j j p j z c i 8 > * = X._ %.:.:.:.:.:.:.:.:.:.:.:.:.:.:.:.:.:.:.:.",
":.:.:.:.:.:.:.:.:.:.:.:.:.:.:.:.=.:./ ' =.=.# * < 8 i j p k k v j j j j j y t 3 -   :.=.X.:.:.:.:.:.:.:.:.:.:.:.:.:.:.%.:.:.:.:.",
":.:.:.:.:.:.:.:.:.:.:.:.:.:.:.:./ / :.%.    w 9 j p m n k n d p p j p k k j p y w 3     +.:.:.=.:.:.:.:.:.:.:.:.:.:.:.:.:.:.:.:.",
":.:.:.:.:.:.:.:.:.:.:.:.:.:.:.:.:.~ X./     3 8 k p x k k k k d p j j j k k k k ; >     :.=.:.:.:.:.:.%.:.:.=.:.:.:.:.:.:.:.:.:.",
":.:.:.:.:.:.:.:.:.:.:.:.:.:.:.:./ X.X.:.    m s n p k j k n k p k j k j p p p p k k     :.=.:.:.:.:.:.:.:.:.:.:.:.:.:.:.:.:.:.:.",
":.:.:.:.:.:.:.:.:.:.:.:.:.:.:.:.:./ :.)     k p k j m N k k j p k j j j j j p p t y     :.:.R :.:.:.:.:.:.:.:.:.:.:.:.:.:.:.:.:.",
":.:.:.:.:.:.-.:.:.:.:.:.:.:.:.*./ @.    j j n p 8 w p j k k j k j j j j k k k h y n , 3     :.X.:.:.:.:.:.:.:.:.:.:.:.:.:.%.:.:.",
":.:.:.:.:.:.:.:.:.-.:.:.:.:.:.:./ :.    x p p p 3 w j n j j p s j j p j j j p p p t 3 3     X.[ :.:.:.:.:.:.:.:.:.:.:.:.:.:.:.:.",
":.:.:.:.:.:.:.-.:.:.:.:.:.:.:.:.X.O.    p p 3 3 p p u y s j u p s j k j j j j j p p j p     :.[ :.:.:.:.:.:.=.:.:.:.:.:.:.:.:.:.",
":.:.:.:.:.:.:.:.:.:.:.:.:.:.:.:.:.+.    p p 4 4 u y y y i y d y y p p p j k k k k p p i     :.:.:.:.:.:.:.:.:.:.:.:.:.*.:.:.:.:.",
":.:.:.:.:.:.:.:.:.:.:.:.:.:.:.:.=.[     1 8 : 3 u y > 3 C V k u j p k k k k n j p p p p     :.X.:.:.:.:.:.:.:.:.:.:.:.:.:.:.*.:.",
":.:.:.=.:.:.:.:.:.:.:.:.:.:.:.:.:.[     > 8 , , s y 6 : S C u y p p p p j j j d j p i y     :.[ :.:.:.:.:.:.:.:.:.:.:.:.:.:.:.:.",
":.:.:.:.:.:.:.:.:.:.:.:.=.:.:.:.[ :.| [     A J 3 3 R / ~ Y k i u p p j k n n m N j w 8     :.:.:.:.:.:.:.:.:.:.:.:.:.:.:.:.:.&.",
":.:.:.:.:.:.:.:.:.:.:.:.:.:.:.:.:.:.O.%.    F D e 9 [ ' Y ~ y p p j k j p p j k p i 3 3     =.:.:.:.:.:.:.:.:.:.:.:.:.:.:.:.:.:.",
":.:.:.:.:.:.:.:.:.:.:.:.:.:.:.:.X.X.#.:.    ! [ F F / R X.=.: 3 y p p y e 8 8 w 8 w 8 3     =.X.%.:.:.:.:.:.:.:.:.:.:.:.:.:.:.:.",
":.:.:.:.&.:.:.:.:.:.:.:.:.:.:.:.:.:.=.:.    R ~ J J [ [ R ^ , , u p s u w 3 8 9 3 8 , 3     :.:.:.:.:.:.:.:.:.:.:.:.:.:.:.:.:.:.",
":.:.:.:.:.:.:.:.:.:.:.:.:.:.:.:./ =.:._     K J ; : : 3 T Y 8 : , 3 8 8 8 9 , 3 > : 3 5 # $ =.=.:.:.:.:.:.:.:.:.:.:.:.:.:.:.:.:.",
":.:.%.:.:.:.:.:.:.:.:.:.:.:.%.:.:.W =.:.    F B ; , 8 r Q Q 3 , ; 8 ; > 4 5 3 w , w , 3 $   [ W :.:.:.:.:.:.:.*.:.:.:.:.:.*.:.:.",
":.:.:.:.:.:.:.:.=.:.:.:.:.:.:.:._ :.X.=.#   q 2 # # L P H L > : C C , 3 8 3 3 3 3 , @ & O.:.:.=.:.:.:.:.:.:.:.:.:.:.:.:.:.:.:.:.",
":.:.:.:.:.:.:.:.:.:.:.:.:.:.:.:.#.&.:.X.& O 3 ; & - Y U L F 3 > F C 3 3 3 8 8 8 3 8 $ & :.:.` / :.:.:.:.:.:.:.:.:.:.:.:.:.:.:.:.",
":.:.:.:.:.%.:.:.:.:.:.:.:.:.:.:.X.[ =.:.F G | Q     :.) / ` , 3 Y P J C 3 3 , 3 3 5 # @ X.%.=.:.:.:.:.:.:.:.:.:.:.:.:.:.:.:.:.:.",
":.:.:.:.:.:.:.:.:.:.:.:.:.:.:.:.[ :.X./ P P ^ '     :.X.R R 8 4 L J U P , 3 3 8 w 8 $ $ =.:.=.X.:.:.:.*.:.:.:.:.:.:.:.:.:.:.:.:.",
":.:.:.:.:.:.:.:.:.:.:.:.:.:.:.:.:.~ :.=.: : / ! Y | R Y &.R L F P L F J 3 3 8 8     =.O.O.:./ :.:.:.:.:.:.:.:.:.:.-.:.:.:.:.:.:.",
":.:.:.:.:.:.:.:.:.:.:.:.:.:.:.:.:._ =.=.; , / R ! ~ [ / ~ / H J C Y S J 3 : 3 3     :.=.[ =.:.:.:.:.:.:.:.:.:.:.:.:.:.:.-.:.:.:.",
":.:.:.:.:.:.:.:.:.=.:.&.:.:.:.:.+.[ *.&.Q :.    C C ! / J P J F B V     #       :.:.:.=.:.:.&.:.:.:.:.:.:.:.:.:.:.:.:.:.:.:.:.:.",
":.:.:.:.:.:.:.:.=.:.&.:.:.:.:.:.:.' O.=.:.[     F U R / P U F J B N   # . .     :.=.*.+.:.:.:.:.:.:.:.:.:.:.:.=.:.:.:.:.:.:.:.:.",
":.:.:.&.:.:.:.:.:.&.:.=.:.:.:.:.X.:.@._ :.:.~ =.    r 3 w t 8 8 # O   @     X.X.+.+.=.+.:.:.:.:.:.:.:.:.:.:.:.:.:.:.:.:.:.:.:.:.",
":.:.:.:.&.:.:.:.*.:.+.:.:.:.:.:.[ :.=.:.:.X.:.X.    w 3 t w q 8 + @ # $     o.:.-.&.=.*.:.:.:.:.:.:.:.:.:.:.:.:.:.:.:.:.:.*.:.:.",
":.:.:.:.:.:.:.:.=.%.:.:.:.:.:.:.=.#.! #.:.:.:./ [ :.: 3 y y 3 :         =.:./ ~ :.:.=.:.:.:.:.%.:.:.:.:.:.:.:.:.:.:.:.:.:.:.:.:.",
":.&.:.:.:.:.:.:.:.:.=.:.:.:.:.:.X.[ :.:.X.+.=./ :.:.: 3 g v e >         :.[ :.X.:.:.%.:.:.:.:.&.:.:.:.:.:.:.:.:.:.:.:.:.:.:.:.:.",
":.:.:.:.:.:.:.:.+.:.+.:.:.:.:.:.:.=._ +.=.=.%.:.# - j m H F N x C J k u     R [ :.:.:.:.:.:.-.:.:.:.:.*.:.:.:.:.:.:.:.:.:.:.:.:.",
":.:.:.:.:.:.:.:.:.:.:.:.:.:.:.:.X.=.:.+.:./ :.[ & ; y p F F k j F F p p     :.:.%.=.+.:.+.:.:.=.:.:.:.:.:.:.:.:.:.:.:.:.-.:.:.:.",
":.:.:.:.:.:.-.:.&.:.:.:.:.:.:.:.:.:.=.:.:.:.*.+.    N C C J     4 > 8 3     :.X.=.:. .=.=.:._ :.:.:.:.:.:.:.:.:.:.:.:.:.:.:.:.:.",
":.:.:.:.:.:.:.:.=.:.=.:.:.:.:.:.X._ +.=.=.O.=.:.    V F F V     3 , 8 2     =.:.:.+.:./ :.X.%.:.:.:.:.:.:.:.:.:.:.:.:.*.:.:.:.:.",
":.:.:.:.:.:.:.:.:.=.:.:.:.:.:.:.:. .:.X.:.O.%.:.    d m F J k f     ! ~ / ~         J U  .:.:.X.:.:.:.:.:.:.:.:.:.:.:.:.:.:.:.:.",
":.:.:.:.:.:.:.:.+.:.*.:.:.:.:.:.=.' :.X.:.:.X.+.    u k C N k t     R Y ~ ~         L U :.+.:.=.:.:.:.:.:.:.:.:.:.:.:.:.:.:.:.:.",
":.:.:.:.:.:.:.:.=.:.=.:.:.:.:.:.:. .:._ X.] P U     : 3 z V Y P     R T C C     w 3     J P :.=.:.:.:.:.:.:.:.:.:.:.:.:.:.:.:.:.",
":.:.:.*.:.:.:.:.:.=.:.:.:.=.:.:.=.X.=.:.=.:.F J     * : p z P K     Q ! F J     : w     U F / [ :.:.:.=.:.:.:.:.:.:.:.:.:.:.:.:.",
":.:.:.:.:.:.:.:.+.:.:.:.:.:.:.:.:.:.[ [ J F ; ; # $ 3 , y y s u 8 8         3 > $ #     J P X.` :.:.:.:.:.%.:.:.:.:.:.:.:.*.:.:.",
":.:.:.:.:.:.:.:.:.*.+.:.:.:.:.:.[ :.[ %.P J - ; % * 3 3 j u p y : ;         3 : O #     L A | / :.:.:.:.:.:.:.:.:.:.:.:.:.:.:.:.",
":.:.:.-.:.:.:.-.:.:.:.:.:.:.:.:.X.[ [ O.J J     + #       @                 $ O $ .     F P [ ' :.:.:.:.:.:.-.:.:.:.:.:.:.:.:.&.",
":.:.:.:.:.:.:.:.:.:.:.:.:.:.:.:.[ X.#.=.L F     &   # @ + +                   & O -     P V [ ' :.:.:.:.:.:.:.:.:.:.:.:.:.:.:.:.",
":.:.:.:.:.:.:.:.:.:.:.:.:.:.:.:.:.=.~ / ~ :.F U             F P P J J J U J         J J :.X.:./ :.:.:.:.:.:.:.:.:.:.:.:.:.:.:.:.",
":.:.:.:.:.:.:.:.:.:.:.:.:.:.:.=.[ =.[ :.:.:.L P             J J J F L J J P         J U / [ %.X.:.:.:.:.:.:.:.:.:.:.:.:.:.:.:.:.",
":.:.:.:.:.:.:.:.:.:.:.:.:.:.:.:.=.:./ / o.=.X.:.Y J Y U U U :.X.[ :.[ =.=.:.J U P Y :.X.:.' %.=.:.:.:.:.:.:.:.:.:.:.:.:.:.:.:.-.",
":.:.:.:.:.:.:.:.:.:.*.:.:.:.:.:.X.:.=.:.:.:.:.:.J P L J L P / :.:.=.:.:.:.=.U J F C X.:.~ :.=.:.:.:.:.:.:.:.:.:.:.:.:.:.:.:.:.:.",
":.-.:.:.:.:.:.:.:.:.:.:.:.:.:.:.:.:.:.:.:.:.%.%.:.=.X.:.:.+.:.=.+.X.:.+.:.:.O.*.:.:.+.:.:.:.X.:.:.:.:.:.:.:.:.:.:.:.:.:.:.:.:.:.",
":.:.:.:.:.:.:.:.:.:.:.:.:.:.:.:.:.:.:.:.o.:.+.:.:.X.:.:.=.:.X.:.:.:.X.:.:.=.:.:.X.=.:.:.:.:.:.:.:.:.:.:.:.:.:.:.:.:.:.:.%.:.:.:."
};
