/* XPM */
static char *result[] = {
/* columns rows colors chars-per-pixel */
"64 64 240 2 ",
"   c #030201",
".  c #0C0100",
"X  c #0B0D04",
"o  c #04030C",
"O  c #140102",
"+  c #1B0101",
"@  c #1B0A01",
"#  c #180508",
"$  c #150E0F",
"%  c #050915",
"&  c #041617",
"*  c #230101",
"=  c #280509",
"-  c #350309",
";  c #271400",
":  c #2A111B",
">  c #3B300F",
",  c #0E1B2D",
"<  c #2E1F34",
"1  c #292327",
"2  c #3C292B",
"3  c #39332C",
"4  c #352C38",
"5  c #2D3237",
"6  c #3B3737",
"7  c #4A140A",
"8  c #5C1E1C",
"9  c #4E2300",
"0  c #572904",
"q  c #5B3606",
"w  c #49271A",
"e  c #562A16",
"r  c #423616",
"t  c #5C3519",
"y  c #67350D",
"u  c #64231E",
"i  c #4C1D2A",
"p  c #472828",
"a  c #4C2D2B",
"s  c #572727",
"d  c #5B2B23",
"f  c #542C2C",
"g  c #5D2C2C",
"h  c #47362A",
"j  c #533223",
"k  c #52332C",
"l  c #583629",
"z  c #4C2C32",
"x  c #482B39",
"c  c #582A36",
"v  c #473636",
"b  c #4B3E3B",
"n  c #573638",
"m  c #672929",
"M  c #632C2B",
"N  c #673129",
"B  c #6B2936",
"V  c #673638",
"C  c #783235",
"Z  c #3B433C",
"A  c #4F4405",
"S  c #7A4D0C",
"D  c #795518",
"F  c #5B4526",
"G  c #484239",
"H  c #554532",
"J  c #6C4526",
"K  c #754B29",
"L  c #7E512C",
"P  c #684638",
"I  c #734938",
"U  c #6B5236",
"Y  c #775536",
"T  c #7B5433",
"R  c #3B2A42",
"E  c #3C3442",
"W  c #482B43",
"Q  c #443946",
"!  c #583943",
"~  c #50354E",
"^  c #693947",
"/  c #783849",
"(  c #474547",
")  c #544D52",
"_  c #694B46",
"`  c #664749",
"'  c #754945",
"]  c #6B5248",
"[  c #765649",
"{  c #664553",
"}  c #794D59",
"|  c #6F5753",
" . c #795958",
".. c #73615D",
"X. c #4F5B64",
"o. c #685A67",
"O. c #795D6B",
"+. c #4B6571",
"@. c #516973",
"#. c #6A6A71",
"$. c #A4382C",
"%. c #835616",
"&. c #85562A",
"*. c #845933",
"=. c #AD483C",
"-. c #B94B3F",
";. c #8B6333",
":. c #86424D",
">. c #994A4A",
",. c #885849",
"<. c #97554F",
"1. c #88475A",
"2. c #954C54",
"3. c #885558",
"4. c #9A5758",
"5. c #A74B47",
"6. c #AC4D45",
"7. c #B54E44",
"8. c #BA4E45",
"9. c #B74F4A",
"0. c #AD5145",
"q. c #A4534D",
"w. c #AB534C",
"e. c #B45146",
"r. c #B2534B",
"t. c #BA534A",
"y. c #A54F51",
"u. c #A35552",
"i. c #A45A53",
"p. c #A95858",
"a. c #B65A55",
"s. c #904C61",
"d. c #845A64",
"f. c #9B5A64",
"g. c #A95F61",
"h. c #866672",
"j. c #AB6567",
"k. c #BC7B7B",
"l. c #CA655B",
"z. c #DC695B",
"x. c #E06657",
"c. c #E36C5D",
"v. c #E6705F",
"b. c #E9705E",
"n. c #C86965",
"m. c #D26D65",
"M. c #D96D61",
"N. c #CA746C",
"B. c #D57267",
"V. c #DD7366",
"C. c #DC746B",
"Z. c #C97A75",
"A. c #D47571",
"S. c #E46D62",
"D. c #E86F62",
"F. c #E47163",
"G. c #E97263",
"H. c #E4756A",
"J. c #E8786C",
"K. c #F2796A",
"L. c #E77E73",
"P. c #B18D1F",
"I. c #B69234",
"U. c #C59318",
"Y. c #C59727",
"T. c #C4902B",
"R. c #9F8747",
"E. c #AA9646",
"W. c #B99945",
"Q. c #AB9A58",
"!. c #9E8F71",
"~. c #B49768",
"^. c #AD9677",
"/. c #B09472",
"(. c #C1994D",
"). c #D58F75",
"_. c #C99B77",
"`. c #EE8279",
"'. c #C8A478",
"]. c #D8A57B",
"[. c #E0A77A",
"{. c #9D889C",
"}. c #B2948B",
"|. c #B399A9",
" X c #B3ADA8",
".X c #B9A3B7",
"XX c #D48585",
"oX c #C89A87",
"OX c #CE9991",
"+X c #C5A188",
"@X c #D7A786",
"#X c #D6B187",
"$X c #C6A898",
"%X c #D9AA93",
"&X c #CBABA7",
"*X c #C5B5AF",
"=X c #CCA9BC",
"-X c #D7A8B8",
";X c #D6B6B8",
":X c #F5C4AA",
">X c #EAC6B8",
",X c #FCCABA",
"<X c #BAAFC4",
"1X c #CCAEC9",
"2X c #CABCD3",
"3X c #E3B7D1",
"4X c #DAC9C8",
"5X c #DFD5D0",
"6X c #EBCDCC",
"7X c #F7CBC3",
"8X c #FDD4C8",
"9X c #E7D9D5",
"0X c #FCD5D5",
"qX c #F9EFDA",
"wX c #E8D8EC",
"eX c #EDDDF2",
"rX c #FBDEF8",
"tX c #E4ECE9",
"yX c #EDEBEB",
"uX c #FCEAE5",
"iX c #F5EDED",
"pX c #FDEEED",
"aX c #EAF2ED",
"sX c #F9F6E6",
"dX c #FDF3EC",
"fX c #FEFAEB",
"gX c #ECE8F3",
"hX c #F5E7F6",
"jX c #FCEDF3",
"kX c #F4EBFB",
"lX c #FDEEFA",
"zX c #EEF7F6",
"xX c #F4F4F4",
"cX c #FBF5F4",
"vX c #F5FAF5",
"bX c #FEFCF5",
"nX c #F4F4FB",
"mX c #FEF5FD",
"MX c #F5FDFB",
"NX c #FFFFFF",
/* pixels */
"NXNXNXNXNXNXNXNXNXNXNXNXNXNXNXNXNXMXNXmXNXNXNXNXmXNXmXNXMXbXNXNXNXNXNXNXMXMXMXNXNXMXNXNXNXbXmXbXNXNXNXNXNXNXNXNXNXNXNXNXNXNXNXNX",
"NXNXNXNXNXNXNXNXNXNXNXNXNXNXNXNXNXNXNXNXNXNXNXbXNXNXmXNXNXNXmXNXmXNXNXNXNXNXMXNXMXNXMXbXbXbXbXbXNXNXNXNXNXNXNXNXNXNXNXNXNXNXNXNX",
"NXNXNXNXNXNXNXNXNXNXNXNXNXNXNXNXNXNXMXNXMXNXNXNXNXNXbXNXNXNXNXNXNXNXNXNXNXNXNXNXNXvXNXNXNXNXNXbXNXNXNXNXNXNXNXNXNXNXNXNXNXNXNXNX",
"NXNXNXNXNXNXNXNXNXNXNXNXNXNXNXNXMXMXMXMXMXMXMXNXvXMXvXNXMXbXNXbXmXbXmXbXmXNXbXNXNXNXNXNXNXNXMXNXNXNXNXNXNXNXNXNXNXNXNXNXNXNXNXNX",
"NXNXNXNXNXNXNXNXNXNXNXNXNXNXNXNXNXMXvXMXMXvXNXMXMXNXbXNXNXvXNXbXbXbXbXbXbXbXNXbXmXbXNXNXNXMXMXNXNXNXNXNXNXNXNXNXNXNXNXNXNXNXNXNX",
"NXNXNXNXNXNXNXNXNXNXNXNXNXNXNXNXMXMXMXMXNXMXNXMXNXvXmXMXNXbXbXmXbXbXbXbXbXbXbXNXNXNXNXNXNXNXMXMXNXNXNXNXNXNXNXNXNXNXNXNXNXNXNXNX",
"NXNXNXNXNXNXNXNXNXNXNXNXNXNXNXNXNXNXNXNXNXNXNXNXbXNXNXNXNXNXNXNXbXbXbXbXbXmXNXNXNXNXNXNXNXMXMXNXNXNXNXNXNXNXNXNXNXNXNXNXNXNXNXNX",
"NXNXNXNXNXNXNXNXNXNXNXNXNXNXNXNXNXNXNXNXNXbXNXNXNXNXNXNXNXNXNXNXNXMXMXNXNXNXNXNXNXMXNXNXNXNXMXNXNXNXNXNXNXNXNXNXNXNXNXNXNXNXNXNX",
"NXNXNXNXNXNXNXNXNXNXNXNXNXNXNXNXmXmXNXmXmXmXmXNXNXNXNXNXNXNXNXNXMXMXMXMXzXNXgXNXNXNXNXNXbXNXNXMXNXNXNXNXNXNXNXNXNXNXNXNXNXNXNXNX",
"NXNXNXNXNXNXNXNXNXNXNXNXNXNXNXNXNXmXmXNXkXmXNXMXmXmXMXMXmXMXMXMXMXMXMXNXMXgXMXnXmXNXNXNXNXNXbXbXNXNXNXNXNXNXNXNXNXNXNXNXNXNXNXNX",
"NXNXNXNXNXNXNXNXNXNXNXNXNXNXNXNXNXnXgXNXnXNXNXmXNXNXNXNXNXNXNXNXnXNXnXMXNXNXkXmXNXNXNXNXNXbXbXbXNXNXNXNXNXNXNXNXNXNXNXNXNXNXNXNX",
"NXNXNXNXNXNXNXNXNXNXNXNXNXNXNXNXMXNXNXNXnXNXnXNXmXmXmXcXbXbXbXcXmXNXmXmXmXmXmXNXmXmXNXNXNXNXbXNXNXNXNXNXNXNXNXNXNXNXNXNXNXNXNXNX",
"NXNXNXNXNXNXNXNXNXNXNXNXNXNXNXNXMXNXzXnXNXNXcXmXv h v k k k k k f s a z x 2 mXjXNXNXNXNXNXmXmXbXNXNXNXNXNXNXNXNXNXNXNXNXNXNXNXNX",
"NXNXNXNXNXNXNXNXNXNXNXNXNXNXNXNXNXNXMXNXcXNXbXbXh a f d d d d u m 8 M N g ! pXNXNXmXNXNXNXNXNXNXNXNXNXNXNXNXNXNXNXNXNXNXNXNXNXNX",
"NXNXNXNXNXNXNXNXNXNXNXNXNXNXNXNXcXNXNXiXb p p f k./.k.Z.Z.Z.A.Z.A.N.).Z.,.3.p ( mXNXNXNXNXNXNXNXNXNXNXNXNXNXNXNXNXNXNXNXNXNXNXNX",
"NXNXNXNXNXNXNXNXNXNXNXNXNXNXNXNXmXcXjXcXw g M m Z.Z.Z.A.A.C.C.C.L.l.m.Z.u.4.g k mXmXmXNXNXNXNXNXNXNXNXNXNXNXNXNXNXNXNXNXNXNXNXNX",
"NXNXNXNXNXNXNXNXNXNXNXNXNXNXNXNXNXmXn c <.i.N.`.B.V.V.V.V.F.F.F.K.G.H.M.C.A.p.g.c n lXmXNXNXNXMXNXNXNXNXNXNXNXNXNXNXNXNXNXNXNXNX",
"NXNXNXNXNXNXNXNXNXNXNXNXNXNXNXNXNXlXp V u.a.V.z.F.F.F.F.v.G.b.b.F.S.D.M.S.M.y.s.m i mXmXNXMXtXMXNXNXNXNXNXNXNXNXNXNXNXNXNXNXNXNX",
"NXNXNXNXNXNXNXNXNXNXNXNXNXNXNXNXjXmXs B k.n.M.F.F.v.F.F.F.F.v.b.c.c.S.S.L.`.XXXXB c lXmXkXMXNXMXNXNXNXNXNXNXNXNXNXNXNXNXNXNXNXNX",
"NXNXNXNXNXNXNXNXNXNXNXNXNXNXNXNXmXjXV 8 ).`.F.F.v.F.v.F.v.v.b.b.K.G.D.M.M.n.N.k.c 2 mXNXnXNXMXxXNXNXNXNXNXNXNXNXNXNXNXNXNXNXNXNX",
"NXNXNXNXNXNXNXNXNXNXNXNXNXNXNXNXx n 3.2.A.m.F.D.G.v.F.F.G.v.b.b.x.c.F.K.L.L.Z.k.-X|.! Q mXNXNXNXNXNXNXNXNXNXNXNXNXNXNXNXNXNXNXNX",
"NXNXNXNXNXNXNXNXNXNXNXNXNXNXNXNXx i f.y.A.M.G.S.b.F.F.F.v.b.b.G.b.F.S.H.C.C.XXk.-X-Xx < NXNXhXvXNXNXNXNXNXNXNXNXNXNXNXNXNXNXNXNX",
"NXNXNXNXNXNXNXNXNXNXNXNXNXNXNXNXz c f.y.A.H.z.K.G.v.F.F.G.F.v.b.D.D.M.H.C.XX7X0Xd.O.o.o.E < NXNXNXNXNXNXNXNXNXNXNXNXNXNXNXNXNXNX",
"NXNXNXNXNXNXNXNXNXNXNXNXNXNXNXNXn g 2.g.n.H.D.c.F.G.V.F.F.F.v.v.D.H.S.H.M.XX7X0Xd.h.O.) ) 4 nXmXNXNXNXNXNXNXNXNXNXNXNXNXNXNXNXNX",
"NXNXNXNXNXNXNXNXNXNXNXNXNXNXNXmXp V 2.y.9.9.D.J.D.H.H.S.F.F.F.F.c.H.M.C.0.q.0X0Xd.O.hXhXeXeXQ E NXNXNXNXNXNXNXNXNXNXNXNXNXNXNXNX",
"NXNXNXNXNXNXNXNXNXNXNXNXNXNXNXmXz B 2.y.5.9.S.J.H.S.C.C.V.V.F.v.`.L.z.m.r.p.8X0Xd.h.eXeXkXkXE E NXNXNXNXNXNXNXNXNXNXNXNXNXNXNXNX",
"NXNXNXNXNXNXNXNXNXNXNXNXNXNXNXNXz g 4.g.9.7.8.8.7.7.9.7.-.8.-.-.$.=.8.l.r.>.j.s.-X.XrXlXwXwX~ < NXNXNXNXNXNXNXNXNXNXNXNXNXNXNXNX",
"NXNXNXNXNXNXNXNXNXNXNXNXNXNXNXbXz f 4.4.>.9.8.8.9.9.9.7.e.e.e.8.t.8.8.=.5.y.4.f.-X1XrXeXhXhXE ( NXNXNXNXNXNXNXNXNXNXNXNXNXNXNXNX",
"NXNXNXNXNXNXNXNXNXNXNXNXNXNXNXmXz a 4.4.<.a.8.t.6.6.w.0.0.6.7.=.6.=.7.5.a.g.2.f.^ ^ rXlX<X<X4 5 NXNXNXNXNXNXNXNXNXNXNXNXNXNXNXNX",
"NXNXNXNXNXNXNXNXNXNXNXNXNXNXNXmXz f 3.<.p.w.5.6.r.r.w.w.r.r.r.e.0.0.6.5.5.p.>.f./ W rXwX<X<XR Q NXNXNXNXNXNXNXNXNXNXNXNXNXNXNXNX",
"NXNXNXNXNXNXNXNXNXNXNXNXNXNXNXNX3 a g m >.w.a.a.y.y.y.q.w.w.0.0.0.0.0.w.5.y.C / =X3X2X<X) R NXmXNXNXNXNXNXNXNXNXNXNXNXNXNXNXNXNX",
"NXNXNXNXNXNXNXNXNXNXNXNXNXNXNXbXh a p m 4.u.<.>.p.u.u.u.u.u.u.w.<.i.<.g.2.2./ / -X=X1X.XE R NXNXNXNXNXNXNXNXNXNXNXNXNXNXNXNXNXNX",
"NXNXNXNXNXNXNXNXNXNXNXNXNXNXNXbXh j [ ^ ^ c c g g e f g M s C e t j n x x ~ W W x x z p NXmXmXNXNXNXNXNXNXNXNXNXNXNXNXNXNXNXNXNX",
"NXNXNXNXNXNXNXNXNXNXNXNXNXNXNXbXr > _ } i c B s l l a k f s d M j a p x R < ~ W Q x z a cXmXNXNXNXNXNXNXNXNXNXNXNXNXNXNXNXNXNXNX",
"NXNXNXNXNXNXNXNXNXNXNXNXNXNXNXbXqXqX> n } :.,.*.K I I [ w t Y Y e r [ ! |.{.% : { ] | | mXmXNXnXNXNXNXNXNXNXNXNXNXNXNXNXNXNXNXNX",
"NXNXNXNXNXNXNXNXNXNXNXNXNXNXNXbXsXsX> j P I &.L &.L T I d t T L e w ] _ {.{.# = ` ] P ] dXbXNXNXNXNXNXNXNXNXNXNXNXNXNXNXNXNXNXNX",
"NXNXNXNXNXNXNXNXNXNXNXNXNXNXNXbXfXsXX @ j J L D S &.e e oX+X'.#Xq J ^.$X8X0X+ + &X+X] H fXbXcXbXNXNXNXNXNXNXNXNXNXNXNXNXNXNXNXNX",
"NXNXNXNXNXNXNXNXNXNXNXNXNXNXNXNXvXNX  O > e &.&.&.*.e 0 %X%X_.'.0 y +X#X0XuXO * $X$X] U sXbXcXNXNXNXNXNXNXNXNXNXNXNXNXNXNXNXNXNX",
"NXNXNXNXNXNXNXNXNXNXNXNXNXNXNXNXMXNXNXcXn j J J L K u N oXoX]._.].@X:X,X,X8X0X0X>X>X}.}.sXsXbXbXNXNXNXNXNXNXNXNXNXNXNXNXNXNXNXNX",
"NXNXNXNXNXNXNXNXNXNXNXNXNXNXNXNXMXmXmXmX3 w [ Y T [ e g OX@X_.].].@X,X:X8X>X8X,XqX>X$X&XdXdXmXvXNXNXNXNXNXNXNXNXNXNXNXNXNXNXNXNX",
"NXNXNXNXNXNXNXNXNXNXNXNXNXNXNXNXlXmXhXmXNXdXO + O = ,.' N y [.].#X_.%XoX7X8X7X7XP ] dXdXbXbXbXNXNXNXNXNXNXNXNXNXNXNXNXNXNXNXNXNX",
"NXNXNXNXNXNXNXNXNXNXNXNXNXNXNXNXNXmXmXmXmXbX. ; @ + J ,.7 y [.)._.%XoXoX7X8X>X0Xn | 9XdXmXNXbXcXNXNXNXNXNXNXNXNXNXNXNXNXNXNXNXNX",
"NXNXNXNXNXNXNXNXNXNXNXNXNXNXNXNXcXcXjXNXbXfX> > Q.~.q 0 y y 0 y @XoXC ' I ' ' n cXpXbXbXcXcXNXNXNXNXNXNXNXNXNXNXNXNXNXNXNXNXNXNX",
"NXNXNXNXNXNXNXNXNXNXNXNXNXNXNXbXbXfXbXcXfXqX> A Q.W.q q 0 0 9 0 +X&XP I ' P  .` uXpXcXNXNXNXNXNXNXNXNXNXNXNXNXNXNXNXNXNXNXNXNXNX",
"NXNXNXNXNXNXNXNXNXNXNXNXNXNXNXNXfXsXbXbXh r Q.E.I.I.I.(.D ;.~./. X;X&X&X_ _ uXcXmXNXiXMXMXmXbXNXNXNXNXNXNXNXNXNXNXNXNXNXNXNXNXNX",
"NXNXNXNXNXNXNXNXNXNXNXNXNXNXNXbXfXsXNXdX3 F R.W.P.Y.I.(.D Y !.^.*X*X;X&X` ` pXdXcXNXMXNXNXMXNXcXNXNXNXNXNXNXNXNXNXNXNXNXNXNXNXNX",
"NXNXNXNXNXNXNXNXNXNXNXNXNXNXNXNXvXNXxXnX@ @ %.S Y.U.Y.I.+ . G Z 6 ) . O  .| n G bXNXMXvXNXvXbXNXNXNXNXNXNXNXNXNXNXNXNXNXNXNXNXNX",
"NXNXNXNXNXNXNXNXNXNXNXNXNXNXNXNXMXzXNXNXX ; D S T.T.T.W.+ @ G ( Q G . + ....v v bXMXMXMXNXvXNXcXNXNXNXNXNXNXNXNXNXNXNXNXNXNXNXNX",
"NXNXNXNXNXNXNXNXNXNXNXNXNXNXNXNXNXkXmXbX# O '.R.S %.%.;.+ O H v v G 3 h X   Z 6 MXaXMXMXMXNXvXNXNXNXNXNXNXNXNXNXNXNXNXNXNXNXNXNX",
"NXNXNXNXNXNXNXNXNXNXNXNXNXNXNXNXkXNXhXdX@ . '.~.T L T Y + @ G G b G G 3 X   5 Z MXaXNXNXnXxXNXnXNXNXNXNXNXNXNXNXNXNXNXNXNXNXNXNX",
"NXNXNXNXNXNXNXNXNXNXNXNXNXNXNXNXMXnXNXbX  ; J Y ~.^.O @ X X     6 3 5X5X5X4X# . ( ) iXnXNXNXMXNXNXNXNXNXNXNXNXNXNXNXNXNXNXNXNXNX",
"NXNXNXNXNXNXNXNXNXNXNXNXNXNXNXNXNXNXcXdXO ; F U ^.^.      o & % Z 3 yX5X9X9X# # p 2 mXNXNXMXNXMXNXNXNXNXNXNXNXNXNXNXNXNXNXNXNXNX",
"NXNXNXNXNXNXNXNXNXNXNXNXNXNXNXNXvXbXdXdX_ w - * #   ) Z @.@.+.+.     X X4X0X= = ^ ^ # # mXMXvXMXNXNXNXNXNXNXNXNXNXNXNXNXNXNXNXNX",
"NXNXNXNXNXNXNXNXNXNXNXNXNXNXNXNXbXiXdXuX/ g 7 * O . ( 5 @.@.+.@.& X  X*X6X6X= + c ! O # NXMXMXzXNXNXNXNXNXNXNXNXNXNXNXNXNXNXNXNX",
"NXNXNXNXNXNXNXNXNXNXNXNXNXNXNXNXdXfX* - :.:.B ^ n W o.#.X o , %   X   . + = c / ! ^ : # cXNXaXMXNXNXNXNXNXNXNXNXNXNXNXNXNXNXNXNX",
"NXNXNXNXNXNXNXNXNXNXNXNXNXNXNXbXbXdX* - / 2./ / c ! o.X.& & o %   $   # O # x n ! { O # MXNXNXMXNXNXNXNXNXNXNXNXNXNXNXNXNXNXNXNX",
"NXNXNXNXNXNXNXNXNXNXNXNXNXNXNXNXvXbX+ - 1.1.f.s.} { : . NXNXmXNXNXvXNXmXpXmX. O # . mXjXNXNXvXNXNXNXNXNXNXNXNXNXNXNXNXNXNXNXNXNX",
"NXNXNXNXNXNXNXNXNXNXNXNXNXNXNXNXNXvX= + / 2./ s.} {     mXmXmXcXNXbXcXNXNXyX1 .   1 yXNXNXiXnXNXNXNXNXNXNXNXNXNXNXNXNXNXNXNXNXNX",
"NXNXNXNXNXNXNXNXNXNXNXNXNXNXNXNXzXMXjXnX# + * * + . bXvXfXbXsXbXcXNXmXcXNXMXtXNXMXtXMXNXnXmXNXcXNXNXNXNXNXNXNXNXNXNXNXNXNXNXNXNX",
"NXNXNXNXNXNXNXNXNXNXNXNXNXNXNXNXzXMXNXNX# # O # # . yXNXsXbXbXbXiXNXmXNXNXaXMXMXMXNXaXNXNXNXNXiXNXNXNXNXNXNXNXNXNXNXNXNXNXNXNXNX",
"NXNXNXNXNXNXNXNXNXNXNXNXNXNXNXNXMXMXzXNXcXmXcXxXcXbXmXbXbXaXvXxXNXNXaXnXMXNXMXMXMXMXMXMXnXyXNXNXNXNXNXNXNXNXNXNXNXNXNXNXNXNXNXNX",
"NXNXNXNXNXNXNXNXNXNXNXNXNXNXNXNXNXnXNXMXvXaXbXbXbXxXbXNXxXNXbXNXNXnXNXNXMXMXxXNXNXxXMXMXNXNXvXMXNXNXNXNXNXNXNXNXNXNXNXNXNXNXNXNX",
"NXNXNXNXNXNXNXNXNXNXNXNXNXNXNXNXkXcXyXNXNXMXtXcXbXmXmXNXmXhXnXMXNXzXMXMXMXNXMXNXNXmXNXNXmXNXvXNXNXNXNXNXNXNXNXNXNXNXNXNXNXNXNXNX",
"NXNXNXNXNXNXNXNXNXNXNXNXNXNXNXNXNXjXNXNXxXNXxXNXbXiXNXmXNXmXNXnXMXzXNXnXNXmXNXmXmXNXcXNXMXbXxXNXNXNXNXNXNXNXNXNXNXNXNXNXNXNXNXNX"
};
