/* XPM */
static char *result[] = {
/* columns rows colors chars-per-pixel */
"64 64 237 2 ",
"   c #0C0102",
".  c #090306",
"X  c #130100",
"o  c #1B0202",
"O  c #190607",
"+  c #1F1300",
"@  c #160312",
"#  c #230203",
"$  c #270904",
"%  c #29070B",
"&  c #251501",
"*  c #2A1A1A",
"=  c #352B00",
"-  c #3F3717",
";  c #331D32",
":  c #2C252E",
">  c #392726",
",  c #3B332C",
"<  c #372C37",
"1  c #39353B",
"2  c #5C1E1D",
"3  c #572B05",
"4  c #5D3504",
"5  c #48291C",
"6  c #592919",
"7  c #563418",
"8  c #623601",
"9  c #63320F",
"0  c #63241A",
"q  c #4C1E26",
"w  c #482828",
"e  c #5A2B25",
"r  c #572628",
"t  c #532B2C",
"y  c #5C2C2C",
"u  c #483628",
"i  c #53322C",
"p  c #593329",
"a  c #4C2B31",
"s  c #422D3B",
"d  c #482C38",
"f  c #532A33",
"g  c #5A2837",
"h  c #542B3B",
"j  c #453434",
"k  c #493737",
"l  c #543435",
"z  c #583739",
"x  c #652B29",
"c  c #643427",
"v  c #652D34",
"b  c #683638",
"n  c #783138",
"m  c #3B4039",
"M  c #4F430A",
"N  c #794E08",
"B  c #7A5206",
"V  c #754610",
"C  c #785614",
"Z  c #524429",
"A  c #47423B",
"S  c #5C433A",
"D  c #6E452A",
"F  c #784B28",
"G  c #6D5520",
"H  c #7C542B",
"J  c #6B4539",
"K  c #724938",
"L  c #745334",
"P  c #7B5334",
"I  c #3D3442",
"U  c #572C43",
"Y  c #463A44",
"T  c #583C47",
"R  c #503B54",
"E  c #683A45",
"W  c #773848",
"Q  c #484546",
"!  c #5A4043",
"~  c #4E4453",
"^  c #574855",
"/  c #6B4D45",
"(  c #68474D",
")  c #614B4D",
"_  c #734F45",
"`  c #744B4A",
"'  c #68524A",
"]  c #795549",
"[  c #674655",
"{  c #784B56",
"}  c #685B55",
"|  c #7B5559",
" . c #695968",
".. c #765764",
"X. c #7D636A",
"o. c #A4382C",
"O. c #87580B",
"+. c #82521E",
"@. c #845928",
"#. c #825537",
"$. c #AD483C",
"%. c #B94B3F",
"&. c #846331",
"*. c #994A4A",
"=. c #895649",
"-. c #9A564C",
";. c #954E52",
":. c #85545A",
">. c #9B5759",
",. c #A74B47",
"<. c #AC4D45",
"1. c #B54E44",
"2. c #BA4E45",
"3. c #B74F4A",
"4. c #AD5145",
"5. c #A4534D",
"6. c #AC534C",
"7. c #B45146",
"8. c #B2534B",
"9. c #BA534A",
"0. c #A54F51",
"q. c #A25554",
"w. c #A85956",
"e. c #B65A55",
"r. c #855B64",
"t. c #895863",
"y. c #975864",
"u. c #9C5D63",
"i. c #A95F61",
"p. c #866670",
"a. c #AB6567",
"s. c #BC7B7B",
"d. c #CA655B",
"f. c #DC695B",
"g. c #E06657",
"h. c #E36C5D",
"j. c #E6705F",
"k. c #E9705E",
"l. c #C86965",
"z. c #D26D65",
"x. c #D96D61",
"c. c #CA746C",
"v. c #D57267",
"b. c #DD7366",
"n. c #DC746B",
"m. c #C97A75",
"M. c #D47571",
"N. c #D67C75",
"B. c #E46D62",
"V. c #E86F62",
"C. c #E47163",
"Z. c #E97263",
"A. c #E4756A",
"S. c #E8786C",
"D. c #F2796A",
"F. c #E77E73",
"G. c #B58C32",
"H. c #BB973A",
"J. c #C6932C",
"K. c #C59634",
"L. c #9C8348",
"P. c #BA9849",
"I. c #AE8F53",
"U. c #A99562",
"Y. c #B89769",
"T. c #AA8976",
"R. c #B2A373",
"E. c #C59E7B",
"W. c #D6927D",
"Q. c #EE8279",
"!. c #C6A17E",
"~. c #B8988C",
"^. c #B08C95",
"/. c #BCA99A",
"(. c #B697A9",
"). c #B7A9AC",
"_. c #D48585",
"`. c #C89988",
"'. c #D69C85",
"]. c #CE9A96",
"[. c #D89C92",
"{. c #D4A487",
"}. c #DDA286",
"|. c #D3AD8B",
" X c #C8A69A",
".X c #D6AB95",
"XX c #E2A787",
"oX c #C6A5A5",
"OX c #D4A8A6",
"+X c #CAB2A8",
"@X c #C8ABB9",
"#X c #D7A8B7",
"$X c #DCB5B5",
"%X c #D5C4B8",
"&X c #E6C6B7",
"*X c #F1CBB4",
"=X c #FFC7B8",
"-X c #B6AAC0",
";X c #BCB2C6",
":X c #CABCD3",
">X c #E3B7D1",
",X c #E9CBC3",
"<X c #FACAC6",
"1X c #E9D3C5",
"2X c #F6D6C7",
"3X c #E7D8D5",
"4X c #FAD7D6",
"5X c #F9E1D6",
"6X c #E8D8EC",
"7X c #F8DFEE",
"8X c #EDDDF2",
"9X c #E9ECE6",
"0X c #F7E8E6",
"qX c #FFEBE5",
"wX c #FDEDEC",
"eX c #ECF6EB",
"rX c #FBF7E6",
"tX c #F4F5EC",
"yX c #FEF4EC",
"uX c #FDFBED",
"iX c #EDECF3",
"pX c #F3EEF5",
"aX c #FBEDF3",
"sX c #F7E4F8",
"dX c #F6ECFA",
"fX c #FDEDFB",
"gX c #EAF5F5",
"hX c #EEFCF5",
"jX c #EBFFFD",
"kX c #F3F5F4",
"lX c #FDF5F3",
"zX c #F4FCF5",
"xX c #FEFCF5",
"cX c #F4F4FB",
"vX c #FEF5FC",
"bX c #F5FEFC",
"nX c #FFFFFF",
/* pixels */
"nXnXnXnXnXnXnXnXnXnXnXnXnXnXnXnXnXnXnXvXnXnXnXnXnXnXnXnXnXnXnXnXnXvXnXbXbXnXnXbXnXnXbXxXxXxXxXlXnXnXnXnXnXnXnXnXnXnXnXnXnXnXnXnX",
"nXnXnXnXnXnXnXnXnXnXnXnXnXnXnXnXnXnXnXnXnXnXnXnXnXnXnXnXnXnXnXnXnXvXnXnXnXnXbXnXbXnXnXbXnXnXxXxXnXnXnXnXnXnXnXnXnXnXnXnXnXnXnXnX",
"nXnXnXnXnXnXnXnXnXnXnXnXnXnXnXnXbXnXnXxXbXnXbXxXnXxXnXvXnXnXnXnXnXnXnXnXnXnXnXnXnXnXbXnXxXnXxXbXnXnXnXnXnXnXnXnXnXnXnXnXnXnXnXnX",
"nXnXnXnXnXnXnXnXnXnXnXnXnXnXnXnXbXbXbXbXbXvXbXbXbXbXxXbXxXxXbXnXvXvXlXxXxXnXxXnXnXnXxXnXnXnXnXnXnXnXnXnXnXnXnXnXnXnXnXnXnXnXnXnX",
"nXnXnXnXnXnXnXnXnXnXnXnXnXnXnXnXbXzXbXbXbXbXbXvXbXbXbXbXxXxXxXxXxXxXxXxXxXxXxXnXvXxXnXnXnXnXbXnXnXnXnXnXnXnXnXnXnXnXnXnXnXnXnXnX",
"nXnXnXnXnXnXnXnXnXnXnXnXnXnXnXnXvXbXbXbXbXxXbXbXnXxXnXxXnXnXnXxXxXuXxXxXxXnXxXvXnXnXnXnXbXnXbXnXnXnXnXnXnXnXnXnXnXnXnXnXnXnXnXnX",
"nXnXnXnXnXnXnXnXnXnXnXnXnXnXnXnXnXnXnXnXnXnXnXnXxXnXnXvXnXvXnXvXxXxXxXbXxXvXnXnXnXnXnXnXnXbXnXbXnXnXnXnXnXnXnXnXnXnXnXnXnXnXnXnX",
"nXnXnXnXnXnXnXnXnXnXnXnXnXnXnXnXnXnXnXnXnXnXnXnXnXnXvXnXnXnXnXnXbXnXnXnXnXvXnXnXnXbXnXnXnXnXbXnXnXnXnXnXnXnXnXnXnXnXnXnXnXnXnXnX",
"nXnXnXnXnXnXnXnXnXnXnXnXnXnXnXnXnXvXvXvXvXvXnXnXvXnXnXnXnXnXnXnXbXbXbXnXcXbXiXnXnXnXnXnXnXxXbXbXnXnXnXnXnXnXnXnXnXnXnXnXnXnXnXnX",
"nXnXnXnXnXnXnXnXnXnXnXnXnXnXnXnXnXvXvXnXdXvXvXbXvXvXbXbXvXbXbXbXbXbXnXbXcXiXnXcXvXnXnXnXnXxXxXxXnXnXnXnXnXnXnXnXnXnXnXnXnXnXnXnX",
"nXnXnXnXnXnXnXnXnXnXnXnXnXnXnXnXnXdXiXnXcXnXnXvXnXnXnXnXnXnXxXnXcXnXcXbXnXnXcXvXvXnXnXnXxXnXxXxXnXnXnXnXnXnXnXnXnXnXnXnXnXnXnXnX",
"nXnXnXnXnXnXnXnXnXnXnXnXnXnXnXnXbXnXbXnXcXnXcXnXxXvXvXxXlXxXxXlXvXnXvXvXvXvXvXnXnXnXvXnXnXnXnXxXnXnXnXnXnXnXnXnXnXnXnXnXnXnXnXnX",
"nXnXnXnXnXnXnXnXnXnXnXnXnXnXnXnXbXnXcXcXnXnXlXvXk j j u i i i t t q w l a > vXdXvXnXnXnXnXnXnXvXnXnXnXnXnXnXnXnXnXnXnXnXnXnXnXnX",
"nXnXnXnXnXnXnXnXnXnXnXnXnXnXnXnXnXnXbXnXlXxXxXlXu t t e e e 6 x x 0 x v t T wXnXvXnXvXnXnXnXnXnXnXnXnXnXnXnXnXnXnXnXnXnXnXnXnXnX",
"nXnXnXnXnXnXnXnXnXnXnXnXnXnXnXnXkXnXnX0Xk w w p s.T.m.m.m.m.N.m.N.c.m.m.=.:.w ! vXnXnXnXnXnXnXvXnXnXnXnXnXnXnXnXnXnXnXnXnXnXnXnX",
"nXnXnXnXnXnXnXnXnXnXnXnXnXnXnXnXnXlXlXlXw p v x m.m.m.m.M.n.n.n.S.d.v.W.5.>.e l vXvXnXnXnXnXnXnXnXnXnXnXnXnXnXnXnXnXnXnXnXnXnXnX",
"nXnXnXnXnXnXnXnXnXnXnXnXnXnXnXnXnXvXz z ;.w.c.Q.v.b.b.b.b.C.C.C.D.A.A.x.F.M.w.u.g U fXvXnXnXbXnXnXnXnXnXnXnXnXnXnXnXnXnXnXnXnXnX",
"nXnXnXnXnXnXnXnXnXnXnXnXnXnXnXnXnXfXt b 5.e.S.d.C.C.b.j.C.j.k.k.B.B.V.x.n.x.0.y.x q vXfXbXbX9XbXnXnXnXnXnXnXnXnXnXnXnXnXnXnXnXnX",
"nXnXnXnXnXnXnXnXnXnXnXnXnXnXnXnXaXvXr v m.d.x.j.j.C.C.C.C.j.j.k.h.h.V.B.A.Q.N._.v h fXvXpXbXnXbXnXnXnXnXnXnXnXnXnXnXnXnXnXnXnXnX",
"nXnXnXnXnXnXnXnXnXnXnXnXnXnXnXnXvXaXv 2 W.Q.b.j.C.j.C.j.j.j.k.k.D.Z.V.f.x.l.c.s.g q vXnXvXnXbXkXnXnXnXnXnXnXnXnXnXnXnXnXnXnXnXnX",
"nXnXnXnXnXnXnXnXnXnXnXnXnXnXnXnXs U t.q.m.d.S.V.Z.j.Z.C.C.k.k.k.g.h.V.S.F.F.m.s.OXoXR Y nXnXnXnXnXnXnXnXnXnXnXnXnXnXnXnXnXnXnXnX",
"nXnXnXnXnXnXnXnXnXnXnXnXnXnXnXnXl q y.;.M.x.V.V.Z.j.C.C.C.k.k.k.V.V.B.A.n.n._.s.$X@Xs ; nXnXpXdXnXnXnXnXnXnXnXnXnXnXnXnXnXnXnXnX",
"nXnXnXnXnXnXnXnXnXnXnXnXnXnXnXnXw g y.0.M.A.f.D.Z.Z.C.C.C.C.j.k.V.V.B.A.n._.=X4Xr.X. . .I : nXnXnXnXnXnXnXnXnXnXnXnXnXnXnXnXnXnX",
"nXnXnXnXnXnXnXnXnXnXnXnXnXnXnXnXz y ;.e.l.A.V.B.Z.C.C.C.C.C.j.j.h.A.C.A.z.N.<X7Xr.p. .^ ~ 1 dXnXnXnXnXnXnXnXnXnXnXnXnXnXnXnXnXnX",
"nXnXnXnXnXnXnXnXnXnXnXnXnXnXnXvXw v ;.w.3.2.B.V.V.A.B.A.A.C.j.C.h.A.x.A.6.5.4X4Xp...sXsX8X8XI I nXnXnXnXnXnXnXnXnXnXnXnXnXnXnXnX",
"nXnXnXnXnXnXnXnXnXnXnXnXnXnXnXvXa v ;.0.,.3.A.S.A.A.B.n.b.b.C.C.Q.F.f.d.8.w.<X4Xp.p.8X8XsXsXI I nXnXnXnXnXnXnXnXnXnXnXnXnXnXnXnX",
"nXnXnXnXnXnXnXnXnXnXnXnXnXnXxXvXa y y.i.6.3.2.1.1.1.3.3.%.%.%.%.o.$.2.d.3.*.a.y.#X(.sXsX6X6XR : nXnXnXnXnXnXnXnXnXnXnXnXnXnXnXnX",
"nXnXnXnXnXnXnXnXnXnXnXnXnXnXnXvXa w >.q.,.3.2.2.3.3.3.<.7.7.7.2.9.2.2.<.,.0.>.y.#X#XsX8XsXsXI Y nXnXnXnXnXnXnXnXnXnXnXnXnXnXnXnX",
"nXnXnXnXnXnXnXnXnXnXnXnXnXnXnXvXl w >.>.5.6.8.9.<.<.<.<.<.1.7.$.$.$.<.<.6.a.;.u.E [ sXsX;X;XI < nXnXnXnXnXnXnXnXnXnXnXnXnXnXnXnX",
"nXnXnXnXnXnXnXnXnXnXnXnXnXnXnXnXa f :.-.w.6.<.$.8.8.w.6.6.8.7.8.6.4.<.,.,.w.*.y.W U 7X6X;X;X: Y nXnXnXnXnXnXnXnXnXnXnXnXnXnXnXnX",
"nXnXnXnXnXnXnXnXnXnXnXnXnXnXnXnXj w y x *.6.e.e.6.0.0.6.6.0.8.4.4.4.,.6.,.0.o.W #X>X:X;XI I nXvXnXnXnXnXnXnXnXnXnXnXnXnXnXnXnXnX",
"nXnXnXnXnXnXnXnXnXnXnXnXnXnXnXxX, i w x >.q.-.*.q.q.q.u.q.q.0.6.-.w.0.i.;.y.W U #X@X-X-XI I nXnXnXnXnXnXnXnXnXnXnXnXnXnXnXnXnXnX",
"nXnXnXnXnXnXnXnXnXnXnXnXnXnXnXxXu u ] b n r r x g r g U U r n 2 7 5 f f h U U U d , k : xXkXvXnXnXnXnXnXnXnXnXnXnXnXnXnXnXnXnXnX",
"nXnXnXnXnXnXnXnXnXnXnXnXnXnXnXnXu - ' ] t y e e t z a U g t e p u u u d s ; R U A , , , yXnXnXvXnXnXnXnXnXnXnXnXnXnXnXnXnXnXnXnX",
"nXnXnXnXnXnXnXnXnXnXnXnXnXnXnXxXuXuX> l { _ #.#.F K K ] 6 e P P 7 u _ z (.^.. @ ) ) ' } lXnXnXcXnXnXnXnXnXnXnXnXnXnXnXnXnXnXnXnX",
"nXnXnXnXnXnXnXnXnXnXnXnXnXnXnXxXtXuX> l J K #.+.@.H L P 7 7 H @.3 5 _ ' ^.^.@ % ) } S ' yXxXnXnXnXnXnXnXnXnXnXnXnXnXnXnXnXnXnXnX",
"nXnXnXnXnXnXnXnXnXnXnXnXnXnXnXnXxXzXX O i D H F V +.8 7 `.!.E.|.9 D ~. X3X4XX o oX^.} S xXxXbXbXnXnXnXnXnXnXnXnXnXnXnXnXnXnXnXnX",
"nXnXnXnXnXnXnXnXnXnXnXnXnXnXnXnXbXbX. X 5 7 #.@.@.@.3 3 .X{.E.!.3 9 `.|.7X0XX o OX X:.J yXlXvXnXnXnXnXnXnXnXnXnXnXnXnXnXnXnXnXnX",
"nXnXnXnXnXnXnXnXnXnXnXnXnXnXnXnXzXxXxXyXz u D D F F 6 c `.].[.'.}.'.*X*X1X2X4X4X&X<X~.~.uXyXxXnXnXnXnXnXnXnXnXnXnXnXnXnXnXnXnXnX",
"nXnXnXnXnXnXnXnXnXnXnXnXnXnXnXnXuXuXlXnX> u ] L H P 6 x ].OX].[.}.XX=X*X2X&X2X1X2X<X X$XqXyXnXzXnXnXnXnXnXnXnXnXnXnXnXnXnXnXnXnX",
"nXnXnXnXnXnXnXnXnXnXnXnXnXnXnXxXrXxX0XvXnXwXX o o # =.K b 0 [.}.}.W.|.`.*X*X5X1XJ _ yXrXxXxXzXxXnXnXnXnXnXnXnXnXnXnXnXnXnXnXnXnX",
"nXnXnXnXnXnXnXnXnXnXnXnXnXnXnXnXuXrXvXvXvXvX  & o & L #.6 0 W.W.XX'.|..X&X2X2X2Xz _ 4XqXxXxXzXzXnXnXnXnXnXnXnXnXnXnXnXnXnXnXnXnX",
"nXnXnXnXnXnXnXnXnXnXnXnXnXnXnXxXuXyXlXnXnXyX- = U.L.4 3 8 3 8 3 {.`.J p J ] b _ yXqXlXuXyXlXxXnXnXnXnXnXnXnXnXnXnXnXnXnXnXnXnXnX",
"nXnXnXnXnXnXnXnXnXnXnXnXnXnXnXnXxXxXnXaXvXuX- M P.P.M 4 8 8 3 8 .X XK P J J / z 5XyXlXxXnXnXxXxXnXnXnXnXnXnXnXnXnXnXnXnXnXnXnXnX",
"nXnXnXnXnXnXnXnXnXnXnXnXnXnXnXnXlXaXnXnXj Z U.I.G.H.P.P.N G I.U. X+X XOXz b qXwXnXxXkXzXbXzXvXxXnXnXnXnXnXnXnXnXnXnXnXnXnXnXnXnX",
"nXnXnXnXnXnXnXnXnXnXnXnXnXnXnXnXxXlXnXlX> Z L.H.K.K.G.P.C G R.R.).+X@XoXE b qXvXlXnXbXbXbXvXvXlXnXnXnXnXnXnXnXnXnXnXnXnXnXnXnXnX",
"nXnXnXnXnXnXnXnXnXnXnXnXnXnXnXnXbXbXiXxX+ & C B J.J.O.N & X u A m Q k E t.{ b > nXbXjXjXbXbXnXnXnXnXnXnXnXnXnXnXnXnXnXnXnXnXnXnX",
"nXnXnXnXnXnXnXnXnXnXnXnXnXnXnXnXbXbXnXbX  & B B J.G.O.@.o   Q 1 Q I T h { t.f ! nXbXjXjXbXbXnXvXnXnXnXnXnXnXnXnXnXnXnXnXnXnXnXnX",
"nXnXnXnXnXnXnXnXnXnXnXnXnXnXnXnXvXnXnXlX& X E.G.C N # X Z Z , ~ . . U R { r.f T yXnXeXbXnXnXvXvXnXnXnXnXnXnXnXnXnXnXnXnXnXnXnXnX",
"nXnXnXnXnXnXnXnXnXnXnXnXnXnXnXnXvXfXvXlX+ X Y.I.@.&.X & m A , < @ @ R [ { | f z lXxXnXbXbXcXvXnXnXnXnXnXnXnXnXnXnXnXnXnXnXnXnXnX",
"nXnXnXnXnXnXnXnXnXnXnXnXnXnXnXnXnXpXbXuX. . ] H a.Y.& X 1X1X3X0X. . [ ....t.( ( lX0XbXzXbXnXbXvXnXnXnXnXnXnXnXnXnXnXnXnXnXnXnXnX",
"nXnXnXnXnXnXnXnXnXnXnXnXnXnXnXnXnXxXeX9X. + Z L R.T.o X 1X4X,X,X. . ....[ E ` ' lX3XxXzXzXnXnXvXnXnXnXnXnXnXnXnXnXnXnXnXnXnXnXnX",
"nXnXnXnXnXnXnXnXnXnXnXnXnXnXnXnX9XzXzXzXA , $ # # % o   +X~.~.+X.   ..| E E :.:.! } tXbXnXnXvXbXnXnXnXnXnXnXnXnXnXnXnXnXnXnXnXnX",
"nXnXnXnXnXnXnXnXnXnXnXnXnXnXnXnXxXxXeXeXm < O % % # $ X %X/.~.oX    ^ [ z b { { w j lXnXkXbXnXnXnXnXnXnXnXnXnXnXnXnXnXnXnXnXnXnX",
"nXnXnXnXnXnXnXnXnXnXnXnXnXnXnXnXtXxXzXzXQ Q a h ( U , j .   X X A j X.r.{ { :.| $ O 0XvXbXnXnXbXnXnXnXnXnXnXnXnXnXnXnXnXnXnXnXnX",
"nXnXnXnXnXnXnXnXnXnXnXnXnXnXnXnXxXxXbXhX1 1 ^ ^ E E Y Q . . &   A , ' | { r.r.| # O lXxXcXnXbXnXnXnXnXnXnXnXnXnXnXnXnXnXnXnXnXnX",
"nXnXnXnXnXnXnXnXnXnXnXnXnXnXnXnXvXvXnXnXkXvX  o o   vXtXnXxXlXvXxXxX  O o o # o lXvXxXnXnXnXnXbXnXnXnXnXnXnXnXnXnXnXnXnXnXnXnXnX",
"nXnXnXnXnXnXnXnXnXnXnXnXnXnXnXnXvXvXdXnXnX9X> X X > 9XnXbXkXvXnXnX3X* X X # o o vXvXxXnXnXnXbXnXnXnXnXnXnXnXnXnXnXnXnXnXnXnXnXnX",
"nXnXnXnXnXnXnXnXnXnXnXnXnXnXnXnXfXvXvXvXnXvX0XlXlX9XzXbXhXbXnXkXvXnXwX0XvXlX0XvXvXxXvXnXxXnXbXbXnXnXnXnXnXnXnXnXnXnXnXnXnXnXnXnX",
"nXnXnXnXnXnXnXnXnXnXnXnXnXnXnXnXfXvXvXnXnXtXlXlXyXxXeXbXbXbXnXpXnXlXnX0XlXnXlXnXnXnXxXnXnXnXnXnXnXnXnXnXnXnXnXnXnXnXnXnXnXnXnXnX",
"nXnXnXnXnXnXnXnXnXnXnXnXnXnXnXnXnXvXiXbXbXbXxXvXxXxXnXbXzXgXnXnXlXaXnXnXnXnXzXkXnXnXnXxXnXnXnXnXnXnXnXnXnXnXnXnXnXnXnXnXnXnXnXnX",
"nXnXnXnXnXnXnXnXnXnXnXnXnXnXnXnXvXlXnXbXzXbXlXnXnXvXbXhXbXbXlXlXvXnXvXnXkXgXbXnXnXbXnXbXxXnXxXnXnXnXnXnXnXnXnXnXnXnXnXnXnXnXnXnX",
"nXnXnXnXnXnXnXnXnXnXnXnXnXnXnXnXxXuXbXhXbXnXnXvXvXnXnXbXzXxXyXxXnXvXiXbXbXbXbXgXbXbXnXnXnXnXxXnXnXnXnXnXnXnXnXnXnXnXnXnXnXnXnXnX",
"nXnXnXnXnXnXnXnXnXnXnXnXnXnXnXxXxXrXbXhXbXbXnXvXvXnXvXbXzXxXyXlXvXnXnXjXbXgXbXjXbXbXnXnXnXxXnXxXnXnXnXnXnXnXnXnXnXnXnXnXnXnXnXnX"
};
