/* XPM */
static char *result[] = {
/* columns rows colors chars-per-pixel */
"64 64 236 2 ",
"   c #0C0100",
".  c #080205",
"X  c #0C0900",
"o  c #140200",
"O  c #1B0101",
"+  c #140B06",
"@  c #1D060D",
"#  c #1A1307",
"$  c #0C0216",
"%  c #180212",
"&  c #1B121C",
"*  c #230300",
"=  c #2B0501",
"-  c #270A04",
";  c #320A00",
":  c #251204",
">  c #240A17",
",  c #3F2B1C",
"<  c #32182B",
"1  c #2D292A",
"2  c #3B282A",
"3  c #36332D",
"4  c #2F2C36",
"5  c #3B2F33",
"6  c #382C36",
"7  c #3B3133",
"8  c #34313D",
"9  c #3B343D",
"0  c #3B3C3D",
"q  c #4B1C19",
"w  c #591B19",
"e  c #472508",
"r  c #572C06",
"t  c #4E3400",
"y  c #593706",
"u  c #58271C",
"i  c #4A3518",
"p  c #5A341A",
"a  c #622D05",
"s  c #613507",
"d  c #613715",
"f  c #441B20",
"g  c #651E26",
"h  c #492925",
"j  c #422B2D",
"k  c #4C2C2D",
"l  c #5B2223",
"z  c #562827",
"x  c #532B2C",
"c  c #4A3628",
"v  c #56392A",
"b  c #462B32",
"n  c #552C34",
"m  c #463736",
"M  c #563837",
"N  c #52333C",
"B  c #612224",
"V  c #662B29",
"C  c #653827",
"Z  c #723B2D",
"A  c #642933",
"S  c #6A3537",
"D  c #753A3C",
"F  c #74520B",
"G  c #7A6000",
"H  c #44413F",
"J  c #584A31",
"K  c #6F4A2D",
"L  c #6F5127",
"P  c #78522A",
"I  c #694638",
"U  c #764636",
"Y  c #7A5337",
"T  c #746236",
"R  c #353344",
"E  c #3A3845",
"W  c #4C3343",
"Q  c #443B48",
"!  c #5A3B45",
"~  c #59354A",
"^  c #663745",
"/  c #76384C",
"(  c #494543",
")  c #58464C",
"_  c #54505A",
"`  c #694948",
"'  c #774948",
"]  c #69514D",
"[  c #785548",
"{  c #6B5653",
"}  c #795857",
"|  c #726347",
" . c #5F5269",
".. c #675A6B",
"X. c #77656A",
"o. c #6B6475",
"O. c #865A0B",
"+. c #80680C",
"@. c #8B4A3E",
"#. c #825838",
"$. c #AA4D3E",
"%. c #B64C3D",
"&. c #AD523C",
"*. c #B2513E",
"=. c #C04839",
"-. c #854A4A",
";. c #9D4C46",
":. c #865645",
">. c #9A524A",
",. c #944E51",
"<. c #895657",
"1. c #975555",
"2. c #9B5255",
"3. c #9C5A5B",
"4. c #A94C48",
"5. c #B74D47",
"6. c #BB4A4D",
"7. c #A95546",
"8. c #AC514E",
"9. c #B2524A",
"0. c #B8574A",
"q. c #A54C53",
"w. c #B34C53",
"e. c #B84A55",
"r. c #A85854",
"t. c #A35C5B",
"y. c #B55856",
"u. c #8B6650",
"i. c #AB6159",
"p. c #8A5B62",
"a. c #9B5963",
"s. c #A65C64",
"d. c #81686E",
"f. c #986266",
"g. c #A56262",
"h. c #BC6F6F",
"j. c #CA544B",
"k. c #D76759",
"l. c #D46858",
"z. c #DE6C5B",
"x. c #E36D5C",
"c. c #E96A5A",
"v. c #F16F5D",
"b. c #E4725D",
"n. c #E9705F",
"m. c #CC6D6C",
"M. c #DA6B65",
"N. c #C67367",
"B. c #DC7464",
"V. c #D6776D",
"C. c #DC746D",
"Z. c #C97974",
"A. c #D67873",
"S. c #E66C64",
"D. c #EB6E63",
"F. c #E47264",
"G. c #EA7866",
"H. c #E3726A",
"J. c #F27066",
"K. c #E97876",
"L. c #B5911A",
"P. c #BA9827",
"I. c #AB8A30",
"U. c #BB9937",
"Y. c #C09F2D",
"T. c #B59745",
"R. c #AD8950",
"E. c #A69153",
"W. c #9C946F",
"Q. c #B99072",
"!. c #BBAE7A",
"~. c #C68E59",
"^. c #C69566",
"/. c #C89D79",
"(. c #D49E76",
"). c #C9A378",
"_. c #D6A679",
"`. c #D07D86",
"'. c #BBA499",
"]. c #A995A1",
"[. c #BBA2A7",
"{. c #B2A3B7",
"}. c #D48A85",
"|. c #C79C85",
" X c #C39E94",
".X c #D6A785",
"XX c #C8A595",
"oX c #D7B199",
"OX c #E2AA98",
"+X c #C99DAF",
"@X c #C7AAA3",
"#X c #D6A6AD",
"$X c #D2B5A8",
"%X c #C9A9B4",
"&X c #CDB1B1",
"*X c #F4B6B5",
"=X c #DFC9BD",
"-X c #E9C7B4",
";X c #E9C9B9",
":X c #FCD4B9",
">X c #BAADC1",
",X c #B9B2C5",
"<X c #CDB6CB",
"1X c #E7C9CA",
"2X c #F7CAC4",
"3X c #E9D6C7",
"4X c #F9D4C9",
"5X c #FCD7D3",
"6X c #FFF0CC",
"7X c #F8E8D8",
"8X c #FFF6DF",
"9X c #E8DAE6",
"0X c #E7DEF0",
"qX c #F7DCF3",
"wX c #EBE9EA",
"eX c #F7EAEA",
"rX c #FDE9EC",
"tX c #ECF4E9",
"yX c #FBF7E7",
"uX c #F5F3EE",
"iX c #FDF3ED",
"pX c #FCFCEC",
"aX c #ECE8F4",
"sX c #FEEDF3",
"dX c #F7EAFA",
"fX c #FEEDFE",
"gX c #EEF4F4",
"hX c #EDF8F9",
"jX c #F3F3F3",
"kX c #FCF4F5",
"lX c #F5FBF4",
"zX c #FEFDF4",
"xX c #F4F4FB",
"cX c #FEF5FB",
"vX c #F5FDFD",
"bX c #FFFFFF",
/* pixels */
"bXbXbXbXbXbXbXbXbXbXbXbXbXbXbXbXbXbXbXcXbXbXbXbXbXcXbXbXbXbXbXbXbXbXvXbXvXbXvXbXbXbXbXbXbXbXbXbXbXbXbXbXbXbXbXbXbXbXbXbXbXbXbXbX",
"bXbXbXbXbXbXbXbXbXbXbXbXbXbXbXbXbXbXbXbXbXbXbXbXbXbXbXbXbXbXbXbXbXbXbXbXbXbXbXbXvXbXbXbXbXbXbXvXbXbXbXbXbXbXbXbXbXbXbXbXbXbXbXbX",
"bXbXbXbXbXbXbXbXbXbXbXbXbXbXbXbXbXbXbXbXbXbXbXbXbXbXbXbXbXbXbXbXvXbXbXbXvXbXbXbXbXbXbXbXbXbXbXbXbXbXbXbXbXbXbXbXbXbXbXbXbXbXbXbX",
"bXbXbXbXbXbXbXbXbXbXbXbXbXbXbXbXbXbXbXbXbXbXbXbXbXbXbXbXbXbXbXbXbXbXvXbXbXbXbXbXbXbXbXbXbXbXbXbXbXbXbXbXbXbXbXbXbXbXbXbXbXbXbXbX",
"bXbXbXbXbXbXbXbXbXbXbXbXbXbXbXbXbXbXbXbXbXbXbXbXbXbXbXbXbXbXbXbXbXbXbXbXbXvXbXbXbXbXbXbXbXbXbXbXbXbXbXbXbXbXbXbXbXbXbXbXbXbXbXbX",
"bXbXbXbXbXbXbXbXbXbXbXbXbXbXbXbXbXbXbXbXbXbXbXbXbXbXbXbXbXbXbXbXvXvXbXvXbXbXbXbXbXbXbXbXbXbXbXbXbXbXbXbXbXbXbXbXbXbXbXbXbXbXbXbX",
"bXbXbXbXbXbXbXbXbXbXbXbXbXbXbXbXbXvXvXbXvXbXbXbXbXbXbXbXbXbXbXbXbXbXbXbXbXbXbXbXbXbXbXbXbXbXbXbXbXbXbXbXbXbXbXbXbXbXbXbXbXbXbXbX",
"bXbXbXbXbXbXbXbXbXbXbXbXbXbXbXbXbXbXbXbXbXbXvXbXbXbXbXbXbXbXbXbXbXvXvXbXbXvXbXbXbXbXbXcXbXbXbXbXbXbXbXbXbXbXbXbXbXbXbXbXbXbXbXbX",
"bXbXbXbXbXbXbXbXbXbXbXbXbXbXbXbXbXbXvXbXvXbXzXbXbXbXbXbXbXbXcXbXbXbXlXbXbXbXbXbXbXbXbXbXbXbXbXcXbXbXbXbXbXbXbXbXbXbXbXbXbXbXbXbX",
"bXbXbXbXbXbXbXbXbXbXbXbXbXbXbXbXvXbXbXbXbXbXvXbXbXbXbXbXbXbXbXbXvXbXcXvXbXzXvXcXbXbXbXbXbXbXbXbXbXbXbXbXbXbXbXbXbXbXbXbXbXbXbXbX",
"bXbXbXbXbXbXbXbXbXbXbXbXbXbXbXbXbXbXvXbXbXbXbXbXbXbXcXbXcXbXbXbXcXbXbXjXbXvXzXbXbXbXbXbXbXbXbXbXbXbXbXbXbXbXbXbXbXbXbXbXbXbXbXbX",
"bXbXbXbXbXbXbXbXbXbXbXbXbXbXbXbXbXbXbXbXbXbXzXbXbXbXbXbXbXbXbXbXkXzXbXbXbXbXkXbXbXbXcXbXbXbXbXbXbXbXbXbXbXbXbXbXbXbXbXbXbXbXbXbX",
"bXbXbXbXbXbXbXbXbXbXbXbXbXbXbXbXbXbXbXbXbXbXbXcXcXcXzXcXcXcXzXcXcXbXaXzXjXcXbXcXbXbXbXbXbXbXbXbXbXbXbXbXbXbXbXbXbXbXbXbXbXbXbXbX",
"bXbXbXbXbXbXbXbXbXbXbXbXbXbXbXbXbXbXbXbXcXbXbXbXbXbXbXcXcXbXbXcXcXbXzXbXkXaXcXxXbXbXbXbXbXvXbXbXbXbXbXbXbXbXbXbXbXbXbXbXbXbXbXbX",
"bXbXbXbXbXbXbXbXbXbXbXbXbXbXbXbXbXbXbXbXbXbXcXbX7 7 7 5 7 5 5 7 9 3 1 7 5 ( jXzXbXbXbXbXbXvXbXvXbXbXbXbXbXbXbXbXbXbXbXbXbXbXbXbX",
"bXbXbXbXbXbXbXbXbXbXbXbXbXbXbXbXbXbXcXbXbXcXzXzXb n x x x x x c x z n x k j kXzXbXbXbXbXbXbXbXbXbXbXbXbXbXbXbXbXbXbXbXbXbXbXbXbX",
"bXbXbXbXbXbXbXbXbXbXbXbXbXbXbXbXjXcXsXcX5 2 N x Q.Z.A.C.A.A.Z.N.m.V.A.Z.i.<.z N cXbXbXvXvXbXbXzXbXbXbXbXbXbXbXbXbXbXbXbXbXbXbXbX",
"bXbXbXbXbXbXbXbXbXbXbXbXbXbXbXbXbXcXcXsXN x z B Z.C.J.J.J.S.V.B.G.b.H.l.0.>.w h rXbXcXgXbXtXkXbXbXbXbXbXbXbXbXbXbXbXbXbXbXbXbXbX",
"bXbXbXbXbXbXbXbXbXbXbXbXbXbXbXbXcXbXj N } <.|.Z.A.C.D.J.S.S.M.B.b.z.B.F.V.^.3.p.n 2 cXbXbXbXbXzXbXbXbXbXbXbXbXbXbXbXbXbXbXbXbXbX",
"bXbXbXbXbXbXbXbXbXbXbXbXbXbXbXbXbXcXb n f.g.h.h.V.H.D.v.J.S.H.B.G.F.S.M.M.m.q.1.n N cXcXxXjXbXvXbXbXbXbXbXbXbXbXbXbXbXbXbXbXbXbX",
"bXbXbXbXbXbXbXbXbXbXbXbXbXbXbXbXjXfXk g Z.A.A.A.B.B.D.n.D.F.C.B.b.b.z.F.H.K.Z.`.A n qXcXbXbXvXhXbXbXbXbXbXbXbXbXbXbXbXbXbXbXbXbX",
"bXbXbXbXbXbXbXbXbXbXbXbXbXbXbXbXcXfXx g `.A.C.C.b.b.n.n.D.D.F.F.b.F.b.F.M.C.m.`.A ^ fXcXdXvXlXvXbXbXbXbXbXbXbXbXbXbXbXbXbXbXbXbX",
"bXbXbXbXbXbXbXbXbXbXbXbXbXbXbXbX1 b p.s.M.K.k.D.b.b.n.n.D.D.S.F.c.G.b.G.C.C.A.`.#X+XW W cXvXvXvXbXbXbXbXbXbXbXbXbXbXbXbXbXbXbXbX",
"bXbXbXbXbXbXbXbXbXbXbXbXbXbXbXbX9 N a.q.K.D.n.c.b.b.b.F.D.S.F.F.b.v.c.(.H.A.Z.`.#X%X~ 6 bXbXxXbXbXbXbXbXbXbXbXbXbXbXbXbXbXbXbXbX",
"bXbXbXbXbXbXbXbXbXbXbXbXbXbXbXcXm k 3.w.c.c.v.c.c.b.F.F.D.D.H.F.D.G.k.b.V.(.*X5Xp.X.....6 8 xXbXbXbXbXbXbXbXbXbXbXbXbXbXbXbXbXbX",
"bXbXbXbXbXbXbXbXbXbXbXbXbXbXbXzX5 k g.y.c.c.v.c.x.F.F.D.H.S.H.D.x.n.M.B.l.h.4X5X} X._ o.8 8 cXfXbXbXbXbXbXbXbXbXbXbXbXbXbXbXbXbX",
"bXbXbXbXbXbXbXbXbXbXbXbXbXbXbXbX6 x s.8.=.j.b.v.F.H.H.H.H.H.F.F.J.F.G.l.0.;.5X5Xd.X.cX0XaXaX4 R bXbXbXbXbXbXbXbXbXbXbXbXbXbXbXbX",
"bXbXbXbXbXbXbXbXbXbXbXbXbXbXbXbXb z 3.4.%.=.l.x.B.C.C.H.H.H.B.B.B.j.C.l.i.r.5X5XX.X.aXdXdXdXQ 6 bXbXbXbXbXbXbXbXbXbXbXbXbXbXbXbX",
"bXbXbXbXbXbXbXbXbXbXbXbXbXbXbXcXb z i.8.0.%.0.0.9.5.e.6.6.5.*.*.j.5.0.9.$.$.t.f.#X+XdX0X0X0XQ E bXbXbXbXbXbXbXbXbXbXbXbXbXbXbXbX",
"bXbXbXbXbXbXbXbXbXbXbXbXbXbXbXcXb l 3.>.0.*.*.$.8.w.e.e.j.5.*.&.$.4.5.9.y.i.1.a.+X<XfXdXfXaXE 0 bXbXbXbXbXbXbXbXbXbXbXbXbXbXbXbX",
"bXbXbXbXbXbXbXbXbXbXbXbXbXbXbXcXN l 1.$.7.&.7.7.8.w.e.e.6.5.*.&.0.i.4.8.9.w.q.a./ ^ qXqX{.>XE E bXbXbXbXbXbXbXbXbXbXbXbXbXbXbXbX",
"bXbXbXbXbXbXbXbXbXbXbXbXbXbXbXzXk u 3.>.i.7.0.r.8.q.w.w.w.4.7.$.4.r.q.y.8.q.s.a./ ^ qXaX,X,X8 8 bXbXbXbXbXbXbXbXbXbXbXbXbXbXbXbX",
"bXbXbXbXbXbXbXbXbXbXbXbXbXbXbXzXv e V C >.t.y.2.2.3.s.q.2.>.7.r.t.2.>.t.>.,.D A #X<X<X,XR R vXbXbXbXbXbXbXbXbXbXbXbXbXbXbXbXbXbX",
"bXbXbXbXbXbXbXbXbXbXbXbXbXbXbXzXc i C u -.-.3.y.s.s.3.1.g.g.1.2.,.,.3.g.<.<.' ^ <X{.<X{.R R vXvXbXcXbXbXbXbXbXbXbXbXbXbXbXbXbXbX",
"bXbXbXbXbXbXbXbXbXbXbXbXbXbXbXbXM h ' ' S V V w w g l l l B B A V z V l l x n n f ~ 6 6 bXxXvXvXbXbXbXbXbXbXbXbXbXbXbXbXbXbXbXbX",
"bXbXbXbXbXbXbXbXbXbXbXbXbXbXbXbXj M ' [ z w V V Z V u V u V A l S x n h ! ! n W N b N m cXbXbXjXbXbXbXbXbXbXbXbXbXbXbXbXbXbXbXbX",
"bXbXbXbXbXbXbXbXbXbXbXbXbXbXbXbXbXrXM h U <.K @.U Z @.Y z l :.-.q z ` ` ].d.> > ` ! ` M iXbXbXbXbXbXbXbXbXbXbXbXbXbXbXbXbXbXbXbX",
"bXbXbXbXbXbXbXbXbXbXbXbXbXbXbXbXiXzXj i [ Y K #.#.#.#.U p q :.' z z { ` ].].  O ` [ ' } iXcXzXvXbXbXbXbXbXbXbXbXbXbXbXbXbXbXbXbX",
"bXbXbXbXbXbXbXbXbXbXbXbXbXbXbXzXzX7XX : i p u.P #.P r d /.).oX/.p p  X[.9X9X@ O  X|.K v yXkXcXbXbXbXbXbXbXbXbXbXbXbXbXbXbXbXbXbX",
"bXbXbXbXbXbXbXbXbXbXbXbXbXbXbXbXpXyXX o v e | K P Y r t .X/._.).r r XX$X1X9X@ O  X$XK C yXiXcXbXbXbXbXbXbXbXbXbXbXbXbXbXbXbXbXbX",
"bXbXbXbXbXbXbXbXbXbXbXbXbXbXbXbXlXtXpXpXh v I | Y Y i r )..X)._.(._.:X;X1X5X1X4X;X;XXX-X3XkXzXbXbXbXbXbXbXbXbXbXbXbXbXbXbXbXbXbX",
"bXbXbXbXbXbXbXbXbXbXbXbXbXbXbXbXlXzXyXkXc M I ` p.Y p r !.)._._._.^.:X:X2X2X5X1X2X:XoX$X8XeXbXbXbXbXbXbXbXbXbXbXbXbXbXbXbXbXbXbX",
"bXbXbXbXbXbXbXbXbXbXbXbXbXbXbXbXhXvXvXbXsXrXO * * * Y K p r /._._.(..X}.2X4X2X5XI [ 8XyXiXuXbXbXbXbXbXbXbXbXbXbXbXbXbXbXbXbXbXbX",
"bXbXbXbXbXbXbXbXbXbXbXbXbXbXbXbXvXvXxXcXcXkX= = * ; Y #.r r _..X(..X(.OX*X2X2X2XI J 8XpXuXbXbXbXbXbXbXbXbXbXbXbXbXbXbXbXbXbXbXbX",
"bXbXbXbXbXbXbXbXbXbXbXbXbXbXbXbXvXvXxXkXkXiXe e ^.i.y e a a a r .X|.Z U D -.' ' uXbXbXtXbXuXzXcXbXbXbXbXbXbXbXbXbXbXbXbXbXbXbXbX",
"bXbXbXbXbXbXbXbXbXbXbXbXbXbXbXbXvXvXbXzX6X6Xy s R.R.F r r a a s  X$XU ' D S S ` eXbXvXhXlXgXzXbXbXbXbXbXbXbXbXbXbXbXbXbXbXbXbXbX",
"bXbXbXbXbXbXbXbXbXbXbXbXbXbXbXbXvXbXpX8Xi t T.U.Y.Y.I.T.O.O.~.R.XX&X@X#XD -.rXfXcXwXvXhXhXbXzXiXbXbXbXbXbXbXbXbXbXbXbXbXbXbXbXbX",
"bXbXbXbXbXbXbXbXbXbXbXbXbXbXbXbXvXvXzXyX, t U.U.L.Y.P.U.O.F Q.Q.@X%X&X%X^ S rXsXcXbXvXhXvXjXzXzXbXbXbXbXbXbXbXbXbXbXbXbXbXbXbXbX",
"bXbXbXbXbXbXbXbXbXbXbXbXbXbXbXbXtXlXxXcXo - F O.L.L.P.T.- - i i v c o O ] } M 5 cXcXbXbXbXvXbXbXbXbXbXbXbXbXbXbXbXbXbXbXbXbXbXbX",
"bXbXbXbXbXbXbXbXbXbXbXbXbXbXbXbXpXtXcXfX% = P G L.Y.I.E.: o J H h J - o ] ` m ) cXbXcXbXbXbXbXvXbXbXbXbXbXbXbXbXbXbXbXbXbXbXbXbX",
"bXbXbXbXbXbXbXbXbXbXbXbXbXbXbXzXpXzXdXcX> o ).I.G G F L o + 3 0 3X=X-X=X. > 7 m bXbXbXbXbXvXvXbXbXbXbXbXbXbXbXbXbXbXbXbXbXbXbXbX",
"bXbXbXbXbXbXbXbXbXbXbXbXbXbXbXbXpXkXcXcX> o Q.E.+.F T | X + 0 3 3X;X7X7X  X H ( bXbXvXbXbXbXlXbXbXbXbXbXbXbXbXbXbXbXbXbXbXbXbXbX",
"bXbXbXbXbXbXbXbXbXbXbXbXbXbXbXbXpXpXcXcX+ # T L E.'.X X ( R E 0 '.$X'.'.    3 H vXbXvXbXvXbXvXbXbXbXbXbXbXbXbXbXbXbXbXbXbXbXbXbX",
"bXbXbXbXbXbXbXbXbXbXbXbXbXbXbXzXzXpXbXcXX X J J W.W.X & R R _ ( '.'.'.'.+ X H 1 vXvXvXvXlXbXbXbXbXbXbXbXbXbXbXbXbXbXbXbXbXbXbXbX",
"bXbXbXbXbXbXbXbXbXbXbXbXbXbXbXbXkXzXbXjXbXpX. # # . . $  .o. .) * O O O 1 H zXbXlXvXvXbXbXbXbXcXbXbXbXbXbXbXbXbXbXbXbXbXbXbXbXbX",
"bXbXbXbXbXbXbXbXbXbXbXbXbXbXbXbXzXkXbXbXzXzX. X X X $ $ o. .X.] = * * # c m bXgXlXbXvXbXbXbXbXzXbXbXbXbXbXbXbXbXbXbXbXbXbXbXbXbX",
"bXbXbXbXbXbXbXbXbXbXbXbXbXbXbXbXbXbXbXzXzXzXpXpXwXbX. < ) W X.[ } <.} ] o   bXlXlXvXbXbXzXbXbXbXbXbXbXbXbXbXbXbXbXbXbXbXbXbXbXbX",
"bXbXbXbXbXbXbXbXbXbXbXbXbXbXbXbXbXbXbXbXbXlXzXzXbXdX$ $ W M ` } } ' <.)   # kXbXbXbXbXbXbXzXcXbXbXbXbXbXbXbXbXbXbXbXbXbXbXbXbXbX",
"bXbXbXbXbXbXbXbXbXbXbXbXbXbXbXbXlXvXbXbXbXlXbXzXkXcXcXcX> o * O O O O o kXrXbXjXbXbXbXbXcXbXbXcXbXbXbXbXbXbXbXbXbXbXbXbXbXbXbXbX",
"bXbXbXbXbXbXbXbXbXbXbXbXbXbXbXbXbXbXbXvXbXzXbXzXcXkXfXrXo o o * - % @ o zXzXbXkXbXbXbXcXbXcXcXbXbXbXbXbXbXbXbXbXbXbXbXbXbXbXbXbX",
"bXbXbXbXbXbXbXbXbXbXbXbXbXbXbXbXbXbXzXzXbXbXbXcXbXcXzXcXkXzXiXkXsXcXcXkXcXkXbXbXbXbXbXbXbXcXbXbXbXbXbXbXbXbXbXbXbXbXbXbXbXbXbXbX",
"bXbXbXbXbXbXbXbXbXbXbXbXbXbXbXbXzXbXbXbXcXbXcXbXxXcXzXbXuXuXcXbXbXcXjXxXcXbXxXbXbXbXbXbXbXbXbXbXbXbXbXbXbXbXbXbXbXbXbXbXbXbXbXbX",
"bXbXbXbXbXbXbXbXbXbXbXbXbXbXbXbXzXzXzXzXcXbXcXbXvXbXwXzXbXvXxXvXxXgXvXbXvXjXvXjXbXvXbXvXvXbXbXvXbXbXbXbXbXbXbXbXbXbXbXbXbXbXbXbX",
"bXbXbXbXbXbXbXbXbXbXbXbXbXbXbXbXbXzXcXbXbXcXcXbXcXlXbXjXvXvXvXvXvXgXbXhXcXvXjXvXbXvXbXbXvXvXvXvXbXbXbXbXbXbXbXbXbXbXbXbXbXbXbXbX"
};
