/* XPM */
static char *xpm_[] = {
/* columns rows colors chars-per-pixel */
"64 64 114 2 ",
"   c #010101",
".  c #0C0B0B",
"X  c #100F0F",
"o  c #131313",
"O  c #1C1C1C",
"+  c #1F1F20",
"@  c #222222",
"#  c #272827",
"$  c #2B2B2B",
"%  c #333333",
"&  c #373839",
"*  c #3C3C3B",
"=  c #444444",
"-  c #4C4C4C",
";  c #545454",
":  c #585756",
">  c #575758",
",  c #585758",
"<  c #5C5C5C",
"1  c #605F5F",
"2  c #5F605F",
"3  c #60605F",
"4  c #636363",
"5  c #686767",
"6  c #676867",
"7  c #686867",
"8  c #676768",
"9  c #686768",
"0  c #676868",
"q  c #6B6B6B",
"w  c #70706F",
"e  c #6F7170",
"r  c #727272",
"t  c #7A7B7A",
"y  c #807F80",
"u  c #848484",
"i  c #888787",
"p  c #888887",
"a  c #888788",
"s  c #8C8C8C",
"d  c #90918F",
"f  c #8F9190",
"g  c #939393",
"h  c #979897",
"j  c #999897",
"k  c #979798",
"l  c #989798",
"z  c #98989A",
"x  c #9A9B9A",
"c  c #9D9E9D",
"v  c #9F9F9F",
"b  c #A1A09F",
"n  c #9F9FA0",
"m  c #A5A5A5",
"M  c #A7A8A7",
"N  c #ABABAB",
"B  c #B0AFAF",
"V  c #B1AFB0",
"C  c #B4B3B3",
"Z  c #B7B8B7",
"A  c #B8B9B7",
"S  c #B7B7B8",
"D  c #BCBCBC",
"F  c #C0BFBF",
"G  c #BFC0BF",
"H  c #C0C0BF",
"J  c #C0BFC0",
"K  c #BFC0C0",
"L  c #C4C4C4",
"P  c #C8C7C7",
"I  c #C7C8C7",
"U  c #C7C7C8",
"Y  c #C8C7C8",
"T  c #C7C8C8",
"R  c #CBCBCB",
"E  c #CFCED0",
"W  c #D3D3D3",
"Q  c #DCDCDC",
"!  c #E4E2E3",
"~  c #E4E3E5",
"^  c #E4E4E4",
"/  c gray90",
"(  c #E7E6E7",
")  c #E8E7E8",
"_  c #E9EAEA",
"`  c gray92",
"'  c #EBECEB",
"]  c #EDEBEC",
"[  c #ECECEC",
"{  c #EEEEEF",
"}  c #F0EFEF",
"|  c #EFF0EF",
" . c #F1F0EF",
".. c #EFEFF0",
"X. c #F0EFF0",
"o. c #EFF0F1",
"O. c #F1F1F1",
"+. c #F2F1F2",
"@. c #F3F3F3",
"#. c #F4F4F4",
"$. c #F5F5F4",
"%. c #F5F6F5",
"&. c #F8F7F7",
"*. c #F7F8F7",
"=. c #F8F8F7",
"-. c #F7F7F8",
";. c #F8F7F8",
":. c gray98",
">. c #FBFCFB",
",. c #FBFBFC",
"<. c #FCFBFC",
"1. c #FBFCFD",
"2. c #FDFDFC",
"3. c white",
/* pixels */
"3.3.3.3.3.3.3.3.3.3.3.3.3.3.3.3.3.3.3.3.3.3.3.3.<.3.3.3.3.3.3.3.3.3.3.3.3.3.3.3.3.3.3.1.3.3.3.3.3.3.3.3.3.3.3.3.3.3.3.3.3.>.3.3.",
"3.3.3.3.3.3.3.3.3.3.3.3.3.3.1.3.3.3.3.3.3.3.3.3.3.3.3.3.3.3.3.3.3.3.3.3.3.3.3.3.3.3.3.3.3.3.3.3.3.3.3.3.3.>.3.3.3.3.3.3.3.3.3.3.",
"3.3.3.3.3.3.3.3.>.3.3.3.3.3.3.3.3.3.3.3.3.3.3.3.3.3.3.3.3.3.3.3.3.3.3.3.3.3.3.3.3.3.3.3.3.3.3.3.3.3.1.3.3.3.3.3.3.3.3.3.3.3.3.3.",
"3.3.3.3.3.3.3.3.3.3.3.3.3.3.3.3.3.3.3.3.3.3.3.3.3.3.3.3.3.<.3.3.3.3.3.>.3.3.3.3.3.3.3.3.3.3.3.3.3.3.3.3.3.3.3.3.3.3.3.3.3.3.3.3.",
"3.3.3.3.3.3.3.3.3.3.3.1.3.3.3.3.3.3.3.3.3.3.3.3.3.3.3.3.3.3.3.3.3.>.3.3.3.3.3.3.3.3.3.3.3.3.3.3.3.3.3.3.3.3.3.3.3.3.3.3.3.3.3.3.",
"3.3.3.3.3.3.3.3.3.3.3.3.3.3.3.3.3.3.3.3.3.3.3.3.3.3.3.3.3.3.3.3.3.3.3.3.3.3.3.3.3.3.3.3.3.3.3.3.3.3.3.3.3.3.3.3.3.3.3.3.3.3.3.3.",
"3.3.3.3.3.3.3.>.3.3.3.3.3.3.3.3.3.3.3.<.3.3.3.3.3.3.>.3.3.3.3.3.3.3.3.3.3.3.3.>.3.3.3.3.3.3.3.3.3.3.3.3.3.3.3.3.3.3.3.3.3.3.3.>.",
"3.3.3.3.3.3.3.3.3.3.3.3.3.3.3.3.3.3.3.3.3.3.3.3.3.3.3.3.3.3.3.3.3.3.3.3.3.3.3.3.3.,.3.3.3.3.3.3.3.3.3.3.3.3.3.3.3.3.3.3.3.3.3.3.",
"3.3.3.3.3.3.3.3.3.3.3.3.3.3.3.3.3.3.3.3.3.3.3.3.:.3.3.:.3.:.3.3.%.3.&.3.%.3.:.3.3.3.3.3.3.3.3.3.3.3.3.3.3.3.3.3.3.3.3.:.3.3.3.3.",
"3.3.3.3.3.3.>.3.3.3.3.3.3.3.1.3.3.3.3.3.3.3.3.3.3.:.3.3.%.O.3.;.:.:.O.*.3.3.3.3.3.3.3.3.3.3.3.3.3.3.3.3.3.3.:.3.3.3.3.3.3.3.3.3.",
"3.3.3.3.3.3.3.3.3.3.3.3.3.3.3.3.3.3.3.3.3.3.3.,.3.O.O.:.=.3.3.%.{ 3.3.O.3.O.O.3.3.3.3.3.3.3.3.:.3.3.3.3.3.3.3.3.3.3.3.3.3.3.3.3.",
"3.3.3.3.3.3.3.3.3.3.3.3.3.3.3.3.3.3.3.3.3.3.3.3.3.3.3.3.<.#.%.:.3.%.O.%.3.3.3.3.3.3.3.3.3.3.3.3.3.3.3.3.3.3.3.3.3.3.3.3.3.3.3.3.",
"3.3.3.3.3.3.>.3.3.3.3.3.3.3.3.3.3.3.3.3.3.3.3.3.:.:.| { 3.>.:.&.%.%.3.3._ O.:.=.3.3.3.3.3.3.3.3.3.3.3.3.3.3.3.3.3.3.3.3.3.3.,.3.",
"3.3.3.3.3.3.3.3.3.3.3.3.3.3.3.3.3.3.3.3.3.3.3.3.%.=.%.3.:.3.3.3.3.3.3.%.3.%.%.:.3.3.3.3.3.3.3.3.3.3.3.3.3.3.3.3.3.3.3.3.3.3.3.3.",
"3.3.3.3.3.3.3.3.3.3.3.3.3.3.3.3.3.3.3.3.3.3.3.3.O.%.:.~ $   . O O     # / 3.%.{ 3.3.3.3.3.3.3.3.3.3.3.3.3.3.3.3.3.3.3.3.3.3.3.3.",
"3.3.3.3.3.3.3.3.3.3.3.3.>.3.3.3.3.3.3.3.3.3.3.3.:.{ O.3.. # & + O % @   3.:._ <.3.3.3.3.3.3.3.3.3.3.3.3.3.3.3.3.3.3.3.3.3.3.3.3.",
"3.3.3.3.3.3.3.3.3.3.3.3.3.3.3.3.:.:.3.>.3.3.3.%.O   @ + 3 9 s u i i s d # # # # %.3.3.3.:.3.3.3.3.3.3.3.3.3.3.3.3.3.3.3.3.3.3.3.",
"3.3.3.3.3.3.3.3.3.3.3.3.3.3.3.3.%.3.3.3.3.3.O.3.o . $ $ 6 q s s d g s a $ # @ + 3.O.>.%.3.3.3.O.,.3.3.3.3.3.3.3.3.3.3.3.3.3.3.3.",
"3.3.3.3.3.3.3.3.3.3.>.3.3.3.3.3.3.{ :.$.<.3.* # , < y u h s g s a s u n u s r 4 o * 3.3.:.3.O.3.3.3.3.3.3.3.3.3.3.3.3.3.3.3.>.3.",
">.3.3.3.3.3.3.3.3.3.3.3.3.3.3.3.{ :.3.3.3.:.% % , 6 u s l s s u z l i l d s 3 - @ O >.3.3.3.3.O.3.3.3.3.3.3.3.3.3.3.3.3.3.3.3.3.",
"3.3.3.3.3.3.3.3.3.3.3.3.3.3.3.<.$.-.%.:.    r q u u s s g g h g s h d g s g s l 4 8     3.O.3.%.3.3.3.3.3.3.3.3.3.3.3.3.3.3.3.3.",
"3.3.3.:.3.3.3.3.3.3.3.3.3.3.3.3.{ 3./ :.    t 6 l h g d g s s i d l h s s p i d , r     1.~ 3.| 3.3.3.3.3.3.3.3.3.3.3.3.3.3.3.3.",
"3.3.3.3.3.3.3.3.3.3.3.3.3.3.3.3._ ` :.%.    u l s g k c c c z h g g g h z z g s s t     3.=.O.] 3.3.3.3.3.:.3.3.3.3.3.3.3.>.3.3.",
"3.3.3.3.3.3.3.3.3.3.3.3.3.3.3.3.} &.O.O.    h l h j z l g g s d g g l g s s h h h s     :.{ >.} 3.3.3.3.3.3.3.3.3.3.3.3.3.3.3.3.",
"3.3.3.3.3.3.3.:.3.3.3.3.3.3.3.3.:.3.    h f g h 9 q g k g s g s g g g g g h g d f s 4 <     :.3.3.3.3.3.3.3.3.3.3.3.3.3.3.3.3.3.",
"3.3.3.3.3.3.3.3.3.3.3.3.3.3.3.3.3.:.    c k d g r r h l s u h g g g g g g g g g s s 8 8     :.:.3.3.3.3.3.3.3.3.3.3.3.3.3.3.3.3.",
"3.3.3.3.3.3.3.3.3.3.3.3.3.3.3.3.:.3.    s t 9 4 g s z l h s h s g g g g g g g g g g s u     3.3.3.3.3.3.1.3.3.3.3.3.3.3.3.3.3.3.",
"3.3.3.,.3.3.3.3.3.3.3.3.3.3.3.3.:.-.    s g 9 4 s l s t s u s g g g g g g g g g s g s s     3.:.3.3.3.3.3.3.3.3.3.3.3.>.3.3.3.3.",
"3.3.3.3.3.3.3.3.3.3.3.3.<.3.3.3.:.3.    1 4 , q s s q 6 C C u s d g g g g g g g s g s f     3.:.3.3.3.3.3.3.3.3.3.3.3.3.3.3.3.3.",
"3.3.3.3.3.3.3.3.3.3.3.3.3.3.3.3.%. .    < q ; 6 s t 2 ; C L u s g g g g l g h g d h u a     3.3.3.3.3.3.3.3.3.3.3.3.3.3.3.3.3.3.",
"3.3.3.3.3.3.3.3.3.3.3.3.3.3.3.3.3.,.3.3.    R L : r Q ~ O.Q p s d g g g h g g l s s 8 6     :.:.3.3.3.3.3.3.3.3.3.3.3.3.3.3.3.3.",
"3.3.3.3.3.3.3.3.3.3.3.3.3.3.3.3.3._ 3.3.    R Z 6 < / O._ _ z u d g g g g g h g d s 4 <     :.3.3.3.3.3.3.3.3.3.3.3.3.3.3.3.3.:.",
"3.3.3.3.3.3.3.3.3.3.3.3.3.3.3.3.O.%.:.{     / ] A A ^ { { } 1 < a d f l t 1 t 4 ; ; < <     3.-.3.3.3.3.3.3.3.3.>.3.3.3.3.3.3.3.",
"3.3.3.3.3.3.>.3.3.3.3.3.3.3.1.3.&.O.3.3.    _ O.R C  .! { Q 9 < g g g s q 1 9 1 < ; ; -     %.O.3.3.3.3.3.3.3.3.3.3.3.3.3.3.3.3.",
"3.3.3.3.3.3.3.3.3.3.3.3.3.3.3.3.&.:.,.X.    C L : - 4 5 { _ 5 4 4 < 8 9 r t q q ; , < , + X 3.3.3.3.3.3.3.3.3.3.3.3.3.3.3.3.3.3.",
"3.3.3.3.3.3.3.3.3.3.3.3.3.3.3.3.:.O.3.;.    D L 9 < 4 < { { 6 < , 1 , < , 1 1 9 9 : 4 , $ # 3.:.3.3.3.3.3.3.3.3.3.3.3.3.3.>.3.3.",
"3.>.3.3.3.3.3.3.3.3.3.1.3.3.3.3.%.3.%.:.*   r 1   $ P W F B < 5 A M 4 4 4 9 r 8 , q   @ 3.%.3.:.3.3.3.3.3.3.3.3.3.3.3.3.3.3.3.3.",
"3.3.3.3.3.3.3.3.3.3.3.3.3.3.3.3.3.O.%._ $   t 6 = @ L R Z L 6 4 Y C 6 r 4 6 q > r q % # %.:.3.3.3.3.1.3.3.3.3.3.3.3.3.3.3.3.3.3.",
"3.3.3.3.3.3.3.3.3.3.3.3.:.3.3.3.%.3.<.3.L L %. .    ' :.%.^ 6 7 K W K S q , 4 q 4 4 $ @ 3.3.3.3.3.3.3.3.3.3.3.3.3.<.>.3.3.3.3.3.",
"3.3.3.3.3.3.3.3.3.3.3.3.3.3.3.3.:.;.:.3.D Y %.X.    %.%.] ) t 6 R R L A w 9 < 4 r 6 % . 3.3.-.3.3.3.3.3.3.3.3.3.3.3.3.3.3.3.3.3.",
"3.3.3.3.3.3.3.3.3.3.3.3.3.3.3.3.3.{ %.>.; q %.{ ! _ ! _ %.O.W E D R V K - < w w     ,._ { 3.) %.3.3.3.3.3.3.3.3.3.3.3.3.3.3.3.3.",
"3.3.3.3.3.3.3.3.3.3.3.3.3.3.3.3.<.:.3.:.< - { _ ` / } ] ] ] Q Q L D A M , : 4 w     O.3.3.<...3.3.3.3.3.3.3.3.3.3.3.3.3.3.3.3.3.",
">.3.3.3.3.3.3.3.3.3.3.3.3.3.3.3.} O.:.{ :.3.    A C ( ~ R W L L L C % o # =     3./ 3.3.%.<.3.} 3.3.3.3.3.3.3.3.3.3.3.3.3.3.3.3.",
"3.3.3.3.<.3.3.3.3.3.3.3.3.3.3.3.:.3.%.:.3.<.    D N %./ H L L I W K . + # #     3.3.O.3.3.:.3.{ 3.3.3.3.3.3.3.3.3.3.3.3.3.3.3.3.",
"3.3.3.3.3.3.3.3.3.3.3.3.3.3.3.3.O.3.3.:.O.! 3.>.    5 r < 6 r r O % % @     %.3.O.:.:.3.3.{ 3.3.3.3.3.3.3.3.3.3.3.3.3.3.3.3.<.3.",
"3.3.3.3.3.3.3.3.3.3.3.3.3.3.3.3.3.:.:.! 3.>.3.:.    r t q 6 r q - * % =     3.Q %.%.O.%.3.3.%.O.3.3.3.3.3.3.3.:.3.3.3.3.3.3.3.3.",
"3.3.3.3.3.3.3.3.3.3.3.3.3.3.3.3.3.1.&.3.$.{ 3.%.# & u u r r M C s n 9 e     O.%.3.3.%.=.%.%.;.3.3.3.3.3.3.3.3.3.3.3.3.3.3.3.3.3.",
"3.3.3.3.3.3.3.3.3.3.3.3.3.3.3.3.3.O.:.! 3.@.3.:.% - g f u r M N z s u r     3./ { ,.{ 3.:.3.3.3.3.3.3.3.3.3.3.3.3.3.3.3.3.3.3.3.",
"3.3.3.>.3.3.3.3.3.:.:.3.3.3.3.3.%.O.:._ 3.3.$ - c m s s M m D D L C u r t u     3.O.3.%.:.:.3.:.3.3.3.3.3.3.3.3.3.3.3.3.3.3.3.3.",
"3.3.3.3.3.3.3.3.3.3.3.3.3.3.3.3.3.%._ 3.:.<.- % z Z u s z z M V N D t u s r     } 3.3.O.3.%.O.3.1.3.3.3.3.3.3.3.3.3.3.3.3.3.3.3.",
"3.3.3.3.3.3.3.3.:.3.:.3.3.3.3.>.3.3.3.:.O.O.    g c < 4 9 3 2 < s g r q M N     D R D L 3.:.O.:.3.3.3.3.3.3.3.3.3.3.3.3.3.3.>.3.",
"3.3.3.3.3.3.>.3.3.:.3.3.3.3.3.3.&.%.3.:.3.O.    g m , , ; * 0 - 6 u 9 q n g     R R L R ;.3.3.3.3.3.3.3.3.3.3.3.3.3.3.3.3.3.3.3.",
"3.3.3.3.3.3.3.3.3.>.:.3.3.3.3.3.:.3.:.3.P P R R     %./ Q ! - - q 4 g d 0 <     L L R T P R O.O.3.3.3.3.3.3.3.3.3.3.3.3.3.3.3.3.",
"3.3.3.>.3.3.3.3.:.3.<.3.3.3.3.3.3.&.%.:.L D R D     { ! ! W 2 ; ; - s u q q     R G P R D L 3.:.3.3.3.3.3.3.3.3.3.3.3.3.3.3.3.3.",
"3.3.3.3.3.3.3.3.3.>.>.3.3.3.1.3.O.%.3.%.W Q Z W     R L /  .0 4 d g W Q     R R E I D L L P %.{ 3.3.3.3.3.:.3.3.3.3.3.3.3.>.3.3.",
"3.3.3.3.3.3.3.3.3.<.3.3.3.3.3.3.<.3._ :.L R L L     D D ( O.- 2 u u R W     R L D E L L R L %.3.3.3.3.3.3.3.3.3.3.3.3.3.3.3.3.3.",
"3.3.3.<.3.3.3.3.3.3.3.3.3.3.3.3.%.<.3.3.L R D R M S     5 ; % o       O     R C L L R L R D 3.3.3.3.3.3.3.3.,.3.3.3.3.3.3.3.3.3.",
"3.3.3.3.3.3.3.3.3.3.3.3.3.3.3.3...O.O.%.R E D R C C     ; 4 % * $ . X o     L N L L L L E K X.O.3.3.3.3.3.3.3.3.3.3.3.3.3.3.3.3.",
"3.3.3.3.3.3.3.3.3.3.3.3.3.3.3.3.3.3.&.3.%.:.R L A J A L                 Q R L S R R L R %...3.%.3.3.3.3.3.3.3.3.3.3.3.3.3.3.3.3.",
"3.3.3.3.3.3.3.<.3.3.3.3.3.3.3.3.%.O._ %.3.3.R L W D H A                 W W L I Y R D L :.:.3.] 3.3.3.3.3.3.3.3.3.3.3.>.3.3.3.3.",
"3.3.3.3.3.3.3.3.3.3.3.3.<.3.3.3.3.3.,.;.&.3.{ :.:.:.%.<.Q ! R W Q L Q W W W R :.{ :.%.O.3.&.>.>.3.3.3.3.3.3.3.3.3.3.3.3.3.3.3.3.",
"3.3.3.3.3.3.3.3.3.3.3.3.3.3.3.3.:.:.3.:.&.3.%.3.3.3.3.%.L D L R R W L L R R P 3.3.3.3.3.3.%.:.3.3.3.3.3.3.3.3.3.3.3.3.3.3.3.3.3.",
"3.3.3.3.3.3.3.3.3.3.3.3.3.3.3.3.3.O.<.3.3.3.%.X.3.3.:.&.3.3.3.:.3.:.<.:.3.3.3.<.3...%.%.:.3.3.3.1.3.3.3.3.3.3.3.3.3.3.3.3.3.3.3.",
"3.3.3.3.3.3.3.3.3.3.3.3.3.3.3.3.3.O.3.:.#.:.3.3.3.3.3.3._ %.3.3.O.3.^ %.:.3.3.3.3.%.3.3.O.<.3.3.3.3.3.3.3.3.3.3.3.3.3.3.3.3.3.:."
};
