/* XPM */
static char *xpm_[] = {
/* columns rows colors chars-per-pixel */
"64 64 109 2 ",
"   c #010101",
".  c #070808",
"X  c #0B0B0B",
"o  c #0F100F",
"O  c #0F1010",
"+  c #131314",
"@  c #171718",
"#  c #1C1C1C",
"$  c #252525",
"%  c #282627",
"&  c #272829",
"*  c #2C2B2B",
"=  c #2F3030",
"-  c #333333",
";  c #3B3B3B",
":  c #434343",
">  c #464748",
",  c #4C4C4C",
"<  c #4F4E50",
"1  c #545454",
"2  c #565857",
"3  c #585957",
"4  c #575958",
"5  c #5C5C5C",
"6  c #60605F",
"7  c #605F60",
"8  c #636363",
"9  c #676867",
"0  c #686967",
"q  c #676768",
"w  c #6B6B6B",
"e  c #706F6F",
"r  c #6F706F",
"t  c #70706F",
"y  c #737373",
"u  c #787777",
"i  c #7B7B7B",
"p  c #838484",
"a  c #878788",
"s  c #8C8C8C",
"d  c #908F8F",
"f  c #8F908F",
"g  c #90908F",
"h  c #8F8F90",
"j  c #908F90",
"k  c #8F9090",
"l  c #929292",
"z  c #959595",
"x  c #989796",
"c  c #979897",
"v  c #989798",
"b  c #979898",
"n  c #9A999A",
"m  c #9D9D9E",
"M  c #9F9E9E",
"N  c #A0A0A0",
"B  c #A2A2A2",
"V  c #A3A3A3",
"C  c #A7A8A7",
"Z  c #ABABAB",
"A  c #AFAEB0",
"S  c #AFB0B0",
"D  c #B4B4B4",
"F  c #B8B7B7",
"G  c #B8B9B7",
"H  c #B7B6B8",
"J  c #B8B7B9",
"K  c #BCBCBC",
"L  c #C0BFC0",
"P  c #C3C3C3",
"I  c #C8C8C7",
"U  c #C7C8C8",
"Y  c #CCCCCB",
"T  c #D3D2D3",
"R  c #DDDDDD",
"E  c #E1E0DF",
"W  c #E4E4E4",
"Q  c #E7E8E7",
"!  c #E9E7E8",
"~  c #E7E8E8",
"^  c #E9EAE9",
"/  c #ECECEC",
"(  c #ECEDEC",
")  c #EEEEED",
"_  c #F0EFEF",
"`  c #EFF0EF",
"'  c #F0F0EF",
"]  c #EFEFF0",
"[  c #F0EFF0",
"{  c gray94",
"}  c #F3F3F3",
"|  c #F4F3F3",
" . c #F3F4F4",
".. c #F4F4F4",
"X. c #F5F5F6",
"o. c #F6F6F6",
"O. c #F8F7F7",
"+. c #F7F8F7",
"@. c #F8F8F7",
"#. c #F7F7F8",
"$. c #F9F7F8",
"%. c #F9FAFA",
"&. c #FCFBFB",
"*. c #FBFCFB",
"=. c #FCFDFB",
"-. c #FBFBFC",
";. c #FDFCFD",
":. c #FCFEFD",
">. c white",
/* pixels */
">.>.>.>.>.>.>.>.>.>.>.>.>.>.-.>.>.>.>.>.>.>.>.>.>.>.>.>.>.>.>.>.>.>.>.>.>.>.>.>.>.>.>.>.>.>.*.>.>.>.>.>.>.>.>.-.>.>.>.>.>.>.>.>.",
">.>.>.>.>.>.>.>.>.>.>.>.>.>.>.>.>.>.>.>.>.>.>.>.>.>.>.>.>.-.>.>.>.>.*.>.>.>.>.>.>.>.>.>.>.>.>.>.>.>.>.>.>.>.>.>.>.>.>.>.>.-.>.>.",
">.>.>.>.>.>.>.>.>.>.>.>.>.>.>.>.>.>.>.>.>.>.>.>.>.>.>.>.>.>.>.*.>.>.>.>.>.>.>.>.>.>.>.>.>.>.>.>.>.>.>.>.>.>.>.>.>.>.>.>.>.>.>.>.",
">.>.>.>.>.>.>.=.>.>.>.>.>.>.>.>.>.>.>.>.&.>.>.>.&.>.>.>.>.>.>.>.>.>.>.>.>.>.>.>.>.>.>.>.>.>.>.>.>.>.>.>.>.>.>.>.>.>.>.>.>.>.>.>.",
">.>.>.>.=.>.>.>.>.>.>.>.>.>.>.>.>.>.>.>.>.>.>.>.>.>.>.>.>.>.>.>.>.&.>.>.>.=.>.>.>.>.>.*.>.>.>.>.>.>.>.>.>.>.>.>.>.>.>.>.>.>.>.>.",
">.>.>.>.>.>.>.>.>.>.>.>.>.>.>.>.>.>.>.>.>.>.>.>.>.>.>.>.>.>.>.>.>.>.>.>.>.>.>.>.>.>.>.>.>.>.>.>.>.>.>.>.>.>.>.>.>.>.>.>.>.>.>.>.",
">.>.>.>.>.>.>.>.>.>.>.>.>.>.>.>.>.>.>.>.>.>.>.>.>.>.>.>.>.>.>.>.>.>.>.>.>.>.>.>.>.>.>.>.>.>.>.>.*.>.>.>.>.>.>.>.>.>.>.>.>.>.>.=.",
">.>.>.>.>.>.>.>.>.>.>.>.>.>.>.>.>.>.>.>.>.>.>.>.>.>.>.>.>.>.>.>.>.>.>.>.>.>.>.>.>.>.>.>.>.>.>.>.>.>.>.>.>.>.>.>.>.>.>.>.>.>.>.>.",
">.>.>.>.>.>.>.>.>.>.>.>.>.>.>.>.>.>.>.>.>.>.>.>.` >.&.X.>.>.>.>.@.>.>.>.&.*.>.>.>.>.>.>.>.>.>.>.>.>.>.>.>.>.>.>.>.>.>.>.>.>.>.>.",
">.>.>.>.>.>.>.*.>.>.>.>.>.>.>.>.>.>.>.>.>.>.-.>.>.>.>.>./ &.>.>.>.>.>./ >.X.` >.>.>.>.>.>.>.>.>.>.>.>.>.>.>.>.>.>.>.>.>.>.&.>.>.",
">.>.>.>.>.>.>.>.*.>.>.>.>.>.>.>.>.>.>.>.>.>.>.>.&.*.>.` >.&.>.>.*.>.X.>. .>.>.>.>.>.>.>.>.>.>.>.>.>.>.>.>.>.>.>.>.>.>.>.>.>.>.>.",
">.>.>.>.>.>.>.>.>.>.>.>.>.*.>.>.>.>.>.>.>.>.>.>.>.>.>.>.>.>.-.-.>.>.O.X.>.%.%.>.>.>.>.>.>.>.>.>.>.>.>.>.>.>.>.>.>.>.>.>.>.>.>.>.",
">.>.>.>.>.>.>.>.>.>.>.>.>.>.>.>.>.>.>.>.>.>.>.>.X.X.{ >.. $ + + $ $ * + >.*.&.*.>.>.>.>.>.>.>.>.>.>.*.>.>.>.>.>.>.>.>.>.>.>.-.>.",
">.>.>.>.>.>.>.>.>.>.>.>.>.>.>.>.>.>.>.>.>.>.>.>.{ >.>.X.$ + # ; #   + $ / &.>.X.>.>.>.>.>.>.>.>.>.>.>.>.>.>.>.>.>.>.>.>.>.>.>.>.",
">.>.>.>.>.>.>.>.>.>.>.>.>.>.>.>.>.>.>.>.>.>.>.>.+     X 1 q u u a s s u * + o # >.>.>.>.>.>.>.>.>.>.>.>.>.&.>.>.>.>.>.>.>.>.>.>.",
">.>.>.>.>.*.>.>.>.>.>.>.>.>.>.>.>.>.>.>.>.>.>.>.$   $ + 3 5 s l p s p p $ $ O $ >.>.>.>.&.>.>.>.>.>.>.>.>.>.>.>.>.>.>.>.>.>.>.>.",
">.>.>.>.>.>.&.>.>.>.>.>.>.>.>.>._ { &.&.` >.* ; 5 9 s z g s s k h s l x z s t 3 - ; X./ >.>.>.>.>.>.>.>.>.>.>.>.>.>.>.>.>.>.>.>.",
">.>.>.>.>.>.>.>.>.>.>.>.>.>.=.>.&.>./ / >.>.* ; q w s l g z l x l l l l l p y 8 : . >.&. .>.>.>.>.>.>.>.>.>.>.>.>.>.>.>.>.>.>.>.",
">.>.>.>.>.>.>.>.>.>.=.>.>.>.>.>./ / &.>.    y y z s M n z z s s l h k l z l s p y 0     X.>.>.&.>.>.>.>.>.>.>.>.>.>.>.>.>.>.>.>.",
">.>.>.>.>.>.>.>.>.>.>.>.>.>.>.>.>./ / {     5 q z s z z k z l s s l l l z z z z , 1     >.=.>.>.>.>.>.>.>.>.>.>.>.=.>.>.>.>.>.>.",
">.>.>.>.>.>.>.>.>.>.>.>.>.>.>.>._ >.` >.    B l n s z z l c l s z z z l s s s s z l     >.X.>.>.>.>.>.>.>.>.>.>.>.*.>.>.>.>.>.>.",
">.>.>.>.>.>.>.>.>.>.>.>.>.-.>.>.&.| =.X.    l s n l B M z b k s z l l l l l s s i a     >.>.~ >.>.>.>.>.>.>.>.>.>.>.>.>.>.>.>.>.",
">.>.>.>.>.>.-.>.>.>.>.>.>.>.>.>./ &.  X s z l s 0 t s z l z z z l l l l z b l l p n 5 q .   >.| >.>.>.>.>.*.>.>.>.>.>.>.>.>.>.>.",
">.>.>.>.>.>.>.>.>.>.>.>.>.>.>.>./ >.    n s s s q w z n l l s l z l s f l l s s s i 5 8     @.{ -.>.>.>.>.>.>.>.>.>.>.>.>.>.>.>.",
">.>.>.>.>.>.>.>.>.>.>.>.>.>.>.>.{ {     s s 8 8 a s p p g z p s f f l j l l l l s s l h     >.X.>.>.>.>.>.>.>.>.>.>.>.>.>.>.>.>.",
">.>.>.>.>.>.>.>.>.>.>.>.>.>.>.>.&.%.    s s 8 q p p p a p p f p p s s s d l l z l f s a     >.=.>.>.>.>.>.>.>.>.>.>.>.>.>.>.>.>.",
">.>.>.>.>.>.>.>.>.>.>.>.>.>.>.>.*.{     5 w 1 5 p p 2 8 F Z l p l l g z z l z z h s s s     >.X.>.>.>.>.>.>.>.>.>.>.>.>.>.>.>.>.",
">.>.>.-.>.>.>.>.>.>.>.>.>.>.>.>.>.`     1 w 5 5 g p w 1 D J p p s s s s j l l l z s p p     >.X.>.>.>.>.>.>.>.-.>.>.>.*.>.>.>.>.",
">.>.>.>.>.>.>.>.>.>.>.>.>.>.>.>.` >.X.{     G P 8 8 Q / ^ W v s s s s l z n n M N l y 0     >.>.>.>.>.>.>.>.>.>.>.>.>.>.>.>.>.-.",
">.>.>.>.>.*.>.>.>.>.-.>.>.>.>.>.-.>.X.-.    K G u e ` / R ^ p s s k z z d s l z l p 9 8     %.>.>.>.>.>.>.>.>.>.>.>.>.>.>.>.>.>.",
">.>.>.>.>.>.>.>.>.*.>.>.>.>.>.>. .{ &.>.    / X.K J ' W { &.1 q p s s p u w w y y y q 8     *.&.>.>.>.>.>.>.>.>.>.>.>.>.>.>.>.>.",
">.>.>.>.>.>.>.>.>.>.>.>.>.>.>.>.>.>.%.>.    W / I P | | W / 5 q s k l p y 9 0 y 8 9 5 8     &.>.>.>.>.>.>.>.>.>.>.>.>.>.>.>.>.>.",
">.>.>.>.>.>.>.>.>.&.-.*.>.>.>.>.` >.&.X.    P P 3 1 : 1 R W w 1 q 8 q t y y 6 0 1 1 8 8 $ * >.>.>.>.>.>.>.>.>.>.>.>.>.>.>.>.>.>.",
">.>.>.>.>.>.>.>.*.>.>.>.>.>.>.>.>.W >.>.    P Z 1 2 8 w E ^ q 8 3 w < 8 r w q y 1 e 2 8 * . X._ >.>.>.>.>.>.>.>.>.>.>.-.>.>.>.>.",
">.>.>.>.>.>.>.>.&.>.>.>.>.>.>.>./ >.' &.X   w w # + L P D P 2 2 K P 8 8 y w 0 q 5 2 + % { *.$.-.>.>.>.>.>.>.>.>.>.>.>.>.>.>.>.>.",
">.>.>.>.>.>.>.*.%.>.%.>.>.>.>.>.&.>.>.X.$   8 1 % ; R Y K D 0 0 J D 5 5 5 y u y 6 0 $ = >.&./ { >.>.>.>.>.>.>.>.>.>.>.>.>.>.>.>.",
">.>.>.>.>.>.>.>.-.*.>.>.>.>.>.*.` ` >.>.D D { /     X.! / { q 0 Y P J C 5 0 0 0 r 0 % # *.>.>.>.>.>.>.>.>.>.>.>.>.>.>.>.>.>.>.>.",
">.>.>.>.>.>.>.>.>.*.-.>.>.>.>.>.` >.&.^ P D ^ ^     >.` E Q w w L D P K 1 q w w u 9 = * -.>.&.` >.>.*.>.>.>.>.>.>.>.>.>.>.>.>.>.",
">.>.>.>.>.>.>.>.&.&.-.>.>.>.>.>.&.! >.%., 1 ! ! ! >.W R &.W Y K P L A J 4 8 0 w     %.X. .>./ >.>.>.>.>.>.>.>.>.>.>.>.>.>.>.>.*.",
"&.>.>.>.>.>.>.>.>.>.>.>.>.>.>.>.>.^ -.>., 8 ( Q X.! X.( ! | P P D U C L 8 1 8 w     >.*.&.>.>.>.>.>.>.>.>.>.>.>.>.>.>.>.>.>.>.>.",
">.>.&.>.>.>.>.>.>.*.>.>.>.>.>.>.X.^ &.>.Q >.    P K / / K Y L P B C $ . # @     &.` O.>.>.>.>.*.>.>.>.>.>.>.>.>.>.>.>.>.>.>.>.>.",
">.>.>.>.>.>.>.>.>.>.>.>.>.>.>.>.&.( X.&.>./     P P ' Q L H P P K Z #   & #     X.>.X.&.>.>.>.>.>.>.>.>.>.>.-.>.>.>.>.>.>.&.>.>.",
">.>.>.>.>.>.>.>.>.>.>.>.>.>.>.>.{ >.X.` >.>.Q >.    p i 2 w u i # * * -     > 3 R X.{ >.>.&.&.>.>.>.>.>.>.>.>.*.>.>.>.>.>.>.>.>.",
">.>.>.>.>.>.>.>.>.>.>.>.>.>.>.>.` >.X.&.>.] >.X.    w u 8 y u p , $ * ;     3 = >.W >.>.>.>.+...>.>.>.>.>.>.>.>.>.>.>.>.>.>.>.>.",
">.>.>.>.>.>.>.*.>.>.>.>.>.>.>.>.>.X.^ ` =.>.>._ ^ >.5 q C z D Z Z C l s 0 8 D D     / X.{ @.>.>.>.>.>.>.>.>.>.>.>.>.>.>.>.>.>.>.",
">.>.>.>.>.>.>.>.>.>.>.>.>.>.>.>.` &.>.>.{ O.&.{ >.&.5 9 C Z L J L D z s 8 q J D .   >.| &.>.>./ >.>.>.>.>.>.>.>.>.>.>.>.>.&.>.>.",
">.>.>.>.>.>.>.>.>.>.>.>.>.>.>.>.>.>.&. .X.#.>.%.- , s n y y n V Y K D K 7 6 I D     >.{ ` X.X.X.>.>.>.>.>.>.>.>.>.>.>.>.>.>.>.>.",
">.>.>.>.>.>.>.>.>.>.>.>.&.>.>.>.&.>.>.&.>.' >./ , , l s 1 1 l z K T P Y y q K J     >.@.>.X.X.O.>.>.>.>.>.>.>.>.>.>.>.>.>.>.>.>.",
">.>.>.=.>.>.>.>.>.>.>.>.>.>.>.*.X.>.>.X.>.>.( >.; q     , ; * >     K U n B     / >.O.>.*.>.>.>.>.*.>.>.>.>.>.>.>.>.>.>.>.>.>.>.",
">.>.>.>.>.>.>.>.>.>.>.>.>.>.>.>.>.>./ >.&.>.>.&.2 >     $ = * #     D L B s     >.>.>.{ &.>.^ >.>.>.>.>.>.>.>.>.>.>.>.=.>.>.>.>.",
">.>.>.>.>.>.>.>.>.>.>.>.>.>.>.>.X.>.>. .Y K > <     R R W R * O     C C Z K     / X./ >./ / >...>.>.>.>.>.>.>.>.>.>.>.>.>.>.>.>.",
">.>.>.>.>.>.>.>.>.>.>.>.>.>.>.>.>.+.>.>.Y T : >     R W W W - X     N D S B     >.>.&./ >.X.$.X.>.>.>.>.>.>.-.>.>.>.>.>.>.>.>.>.",
">.>.=.>.>.>.>.>.>.>.>.>.>.>.>.-.X.&.P L     - :     D Z W Q : = Y U s l l s q 3     T Y / >./ >.>.>.>.>.>.>.>.>.>.>.>.>.>.>.>.>.",
">.>.>.>.>.>.>.>.>.>.>.>.>.>.>.>.&.[ K T     - .     P K ! Q ; : W T s s s a 0 ,     Y T >.&.>.^ >.>.>.>.>.>.>.>.>.>.>.>.>.>.>.>.",
">.>.>.>.>.>.>.>.>.>.=.>.>.>.>.>./ ^ G D     X ; - $                 9 r s h y l * *   . T Y W &.>.>.>.>.>.*.>.>.>.>.>.>.>.=.>.>.",
">.>.>.>.>.>.>.>.>.>.>.>.>.>.>.>.{ { G P     ; # $ *                 5 3 l s i s * *     P K / ^ >.>.>.>.>.>.>.>.>.>.>.>.>.>.>.>.",
">.>.>.&.>.>.>.&.>.>.>.>.>.>.>.>.| { $.%.P P         P P K H P P J K     # $ + % * X     H P / / >.>.>.>.>.>.&.>.>.>.>.>.>.>.>.>.",
">.>.>.>.>.>.>.>.>.>.>.>.>.>.>.>.{ X.&.&.P D .     . D P U P P G D J .   $ $   - + :   X Y Z ..{ >.>.>.>.>.>.>.>.>.>.>.>.>.>.>.&.",
">.>.>.>.>.>.>.>.>.>.>.>.>.>.>.>.&.#./ { / >.D Y P D >.X./ { *.>.' X.G Y X           P P &.X.>./ >.>.>.>.>.>.>.>.>.>.>.>.>.>.>.>.",
">.>.>.>.>.>.>.>.>.>.>.>.>.>.>.>./ >.X.>.>.>.Y Y K P / *.>.>.X.( +.' P T             P T / X.>.&.>.>.>.>.>.>.>.>.>.>.>.>.>.>.>.>.",
">.>.>.>.>.>.>.>.>.>.>.>.&.>.>.>.>.>.( ` &.&.#.>.>.>.X.&.X.&.*.>.X.&.X.>.R W Y Y T E >.X.>./ %.%.>.>.>.>.>.>.>.>.>.>.>.>.>.>.>.-.",
">.>.>.>.>.>.>.>.>.>.>.>.>.>.>.>.&.>.%.-.>.>.>.>.' >.{ >.*.>.&.>.&.( >.%.P T T P K D X.>.^ >.&.>.>.>.>.>.>.>.>.>.>.>.>.>.>.>.>.>.",
">.*.>.>.>.>.>.>.>.>.>.>.>.>.>.>.>.>.>.>.>.>.>.*.&.>.&.>.>.>.&.>.>.>.&.>./ >.>.>.>.>.*.>.>.>.&.>.>.>.>.>.>.>.>.>.>.>.>.>.>.>.>.>.",
">.>.>.>.>.>.>.>.>.>.>.>.>.>.>.>.>.>.>.>.#.>.%.>.>.>.>.>.>.>.&.>.>.>.>./ >.&.>.+./ &.>.>.>.>.>.>.>.>.>.>.>.>.>.>.>.>.>.>.>.>.>.>."
};
