/* XPM */
static char *xpm_[] = {
/* columns rows colors chars-per-pixel */
"23 32 201 2 ",
"   c #0F0600",
".  c #0D0C06",
"X  c #0C0D0B",
"o  c #140600",
"O  c #150C01",
"+  c #1B0C00",
"@  c #110D0B",
"#  c #1C0700",
"$  c #0D110D",
"%  c #141203",
"&  c #1D1200",
"*  c #12120D",
"=  c #1A160C",
"-  c #1D1A0E",
";  c #0C0D11",
":  c #120E10",
">  c #0F1113",
",  c #131313",
"<  c #1A1613",
"1  c #171812",
"2  c #191A15",
"3  c #16161A",
"4  c #161B1C",
"5  c #1C1B1C",
"6  c #240C00",
"7  c #2A0C00",
"8  c #2A0600",
"9  c #360C00",
"0  c #231300",
"q  c #2B1500",
"w  c #221900",
"e  c #2D1B00",
"r  c #221C0C",
"t  c #371400",
"y  c #3A1300",
"u  c #331C00",
"i  c #3C1D00",
"p  c #211E12",
"a  c #231E1A",
"s  c #1E231F",
"d  c #332302",
"f  c #3B2400",
"g  c #3B2902",
"h  c #3C2C08",
"j  c #262316",
"k  c #2D2414",
"l  c #24221D",
"z  c #2D2A1C",
"x  c #2E251E",
"c  c #322A1C",
"v  c #332714",
"b  c #201E23",
"n  c #1E2222",
"m  c #232323",
"M  c #252924",
"N  c #2A2A25",
"B  c #25262A",
"V  c #2C2D2A",
"C  c #332C23",
"Z  c #342D2D",
"A  c #2D322C",
"S  c #35342D",
"D  c #3A352D",
"F  c #3B3629",
"G  c #2F2D30",
"H  c #302B32",
"J  c #2D3235",
"K  c #363634",
"L  c #3A3535",
"P  c #373934",
"I  c #3D3C35",
"U  c #353439",
"Y  c #343939",
"T  c #3B3B3B",
"R  c #3D3739",
"E  c #411E00",
"W  c #442400",
"Q  c #492500",
"!  c #432D04",
"~  c #4A2C02",
"^  c #412C0A",
"/  c #522B00",
"(  c #463004",
")  c #4B350C",
"_  c #4C3A0B",
"`  c #483608",
"'  c #553502",
"]  c #5A3300",
"[  c #533B0B",
"{  c #4C3A14",
"}  c #573710",
"|  c #5C3D11",
" . c #623B01",
".. c #6C3F00",
"X. c #443C34",
"o. c #413738",
"O. c #423D3A",
"+. c #3D423E",
"@. c #5D4100",
"#. c #55441A",
"$. c #584417",
"%. c #6B4300",
"&. c #6C4708",
"*. c #6B4C0E",
"=. c #614506",
"-. c #714602",
";. c #734C0C",
":. c #724A05",
">. c #7B550B",
",. c #654912",
"<. c #775518",
"1. c #7C5C1A",
"2. c #44403C",
"3. c #444132",
"4. c #614B24",
"5. c #745A27",
"6. c #6B5927",
"7. c #70602F",
"8. c #786024",
"9. c #3D3F42",
"0. c #4A4142",
"q. c #895D0A",
"w. c #815A0F",
"e. c #845E15",
"r. c #8B5D12",
"t. c #885F1D",
"y. c #91620A",
"u. c #8D6413",
"i. c #966918",
"p. c #826322",
"a. c #8C6524",
"s. c #88682A",
"d. c #906A2C",
"f. c #9B7225",
"g. c #96742C",
"h. c #9C742B",
"j. c #8E6F38",
"k. c #856C37",
"l. c #916F30",
"z. c #967638",
"x. c #A37C2B",
"c. c #A17534",
"v. c #927940",
"b. c #9D7C40",
"n. c #AC842D",
"m. c #AE893A",
"M. c #AD843A",
"N. c #BE9335",
"B. c #C6993F",
"V. c #A98243",
"C. c #AD8D4C",
"Z. c #A68649",
"A. c #B48D4C",
"S. c #BC9A49",
"D. c #B89445",
"F. c #B9995B",
"G. c #BA9851",
"H. c #C39C49",
"J. c #C39945",
"K. c #C79F56",
"L. c #C59F59",
"P. c #D4A94F",
"I. c #C9A558",
"U. c #D0A554",
"Y. c #D3AF5D",
"T. c #D1A75B",
"R. c #DEB35E",
"E. c #D7B35B",
"W. c #E5B655",
"Q. c #EEBE55",
"!. c #E4BB5E",
"~. c #EBBC5C",
"^. c #F2BD5A",
"/. c #C5A262",
"(. c #CEA861",
"). c #CDA567",
"_. c #D6AE68",
"`. c #D2AC61",
"'. c #D3B261",
"]. c #DDB562",
"[. c #DEB56A",
"{. c #D9B472",
"}. c #E0B768",
"|. c #EBBF6B",
" X c #E4BB65",
".X c #E3B974",
"XX c #EEC35E",
"oX c #F3C45C",
"OX c #EEC26A",
"+X c #E9C367",
"@X c #F2C564",
"#X c #F8C664",
"$X c #F4C963",
"%X c #F4CA6C",
"&X c #F8C96A",
"*X c #E3C171",
"=X c #EAC374",
"-X c #EBC479",
";X c #F2C573",
":X c #F3CA73",
">X c #F2C17C",
/* pixels */
"@ % X . % + 6 6 + # 0 6 + O 6 q o O X $ ; ; ; ",
". 5 V = % 6.F.l.u } C.C.~ u z.F.4.& = V 5 , : ",
"5 U 9.c ( '.oXoXw.c.#XoXh.e.@X@X/.u F R U > ; ",
"< L O.v g I.oXW.:.c.&X#Xa.>.XX$XF.u v O.K , ; ",
"O = w + + #.z.5.6 ^ j.j.d q 8.z.) # 0 w % % . ",
"0 #.k.( & O 0 O O O 6 + # O & 0 + + [ k.#.O % ",
":.}.&XS.d k 3.F % j F X.5 * F X.k ^ U.&X'.' % ",
"q.|.$XE.g C I P 1 l T T b 5 T O.c )  X^.+X$.  ",
"E b.I.1.0 < V b X ; G B , X m N = 0 d.I.l.d % ",
"8 Q %.i # @ @ ; ; ; ; ; ; : . @   # i %.g # O ",
"] U.^.n.7 a L H ; n J J 2 : V F r d m.+XS.g # ",
"r.|.^.].^ C o.R 4 n 9.Y l 5 I +.z { .X~.-X,.o ",
"' /.>XV.q j L Z , 5 S S , , Z D - d C.-XF.g O ",
"8 / %.y + + u # o O 0 0 # # & e % + E %.Q + O ",
"Q h.B.q.t s.I.x.i @.S.D.' E m.H.<.t y.B.g.e O ",
"e.|.@XP.%._.@X~.>.m.$X&Xh.t.oXoXK.-.W.#X*X$.O ",
";.}.:XJ.' /.%X X&.z.%X%Xa.*.+X%XA.] U.:X{._   ",
"9 -.u.] 7 ' s.*.6 f 8.1.t t *.p.~ 9  .u.=.6 O ",
"9 ;.f.' 6 & 0 0 % O & & O O & w + q  .i.&.7 # ",
";..X=XI.d C 2.R , s T Y 5 3 K +.j ^ `.:X.X} O ",
"e.|.OXY.d z +.T , s 9.T b 4 T T z ) ].OX.X| o ",
"E f.N.>.w - N 5 $ 3 B B > . n B = & e.J.a.i O ",
"8 / -.E + . $ X . > X X $ . $ $ . # W &.Q 6 O ",
" .).;XV.q l P V $ 2 L L 2 1 A P 5 d G.:X/.( O ",
"r.|.^.R.^ C O.I , m O.o.l 2 I I v { !.oX=X,.+ ",
"] H.~.x.0 a P M X 3 Z S < $ V D r e n.Q.D.i O ",
"8 W %.t O . > ; , X . * X X X . . # i %.E 6 O ",
"Q Z.(.s.& 5 G B > 2 V A : > B V = 0 l.T.b.e O ",
"q.+XXXE.f C O.T 1 M +.Y b 2 U O.c _ ~.Q.|.*.  ",
":.].%XD.d x R S * 2 Y Y 4 , P X.j g I.$XY.~ O ",
"0 #.7.g O @ 1 * * . 3 , X . , < @ O ) 5.{ + O ",
"+     O O @ $ . * . X ; X , . @ * @ # o o @ : "
};
