/* XPM */
static char *xpm_[] = {
/* columns rows colors chars-per-pixel */
"23 32 206 2 ",
"   c #0E0500",
".  c #0E0B02",
"X  c #0C0C0C",
"o  c #040C0E",
"O  c #150600",
"+  c #1B0500",
"@  c #140B01",
"#  c #1B0B00",
"$  c #130E0A",
"%  c #0F100C",
"&  c #171000",
"*  c #1B1201",
"=  c #13120B",
"-  c #181109",
";  c #1F1A0F",
":  c #0E0E11",
">  c #110F12",
",  c #0E1212",
"<  c #131314",
"1  c #1B1614",
"2  c #161814",
"3  c #1B1915",
"4  c #1C161A",
"5  c #1B1C1C",
"6  c #161719",
"7  c #230B00",
"8  c #2B0B00",
"9  c #300C00",
"0  c #231300",
"q  c #2C1500",
"w  c #2D1A00",
"e  c #251C0C",
"r  c #281808",
"t  c #261A00",
"y  c #331400",
"u  c #341C00",
"i  c #3B1C00",
"p  c #281C10",
"a  c #221C18",
"s  c #2D210A",
"d  c #312100",
"f  c #3A2402",
"g  c #3D2909",
"h  c #3F2D07",
"j  c #2D2313",
"k  c #24241E",
"l  c #2B221A",
"z  c #2F2919",
"x  c #372710",
"c  c #332B1E",
"v  c #362916",
"b  c #1D1D22",
"n  c #1F2120",
"m  c #232323",
"M  c #2C2523",
"N  c #2B2B2B",
"B  c #272927",
"V  c #362C22",
"C  c #352B27",
"Z  c #3A3222",
"A  c #35322D",
"S  c #3B342E",
"D  c #2F2F31",
"F  c #312F30",
"G  c #2F3133",
"H  c #3D3532",
"J  c #3B3B36",
"K  c #353539",
"L  c #3E3539",
"P  c #3C3B3B",
"I  c #353635",
"U  c #431E00",
"Y  c #432400",
"T  c #4A2300",
"R  c #432B01",
"E  c #492C01",
"W  c #422709",
"Q  c #532D00",
"!  c #4E3403",
"~  c #4E3A05",
"^  c #48300A",
"/  c #49350D",
"(  c #563502",
")  c #5B3500",
"_  c #553D07",
"`  c #5E3A00",
"'  c #54370C",
"]  c #583E0D",
"[  c #513B14",
"{  c #4B3716",
"}  c #633D00",
"|  c #693D00",
" . c #613F12",
".. c #423C34",
"X. c #423D3B",
"o. c #5A4213",
"O. c #5C461C",
"+. c #644202",
"@. c #6D4400",
"#. c #6E4800",
"$. c #674A0E",
"%. c #744B02",
"&. c #704705",
"*. c #7B5401",
"=. c #78540B",
"-. c #62451A",
";. c #644D19",
":. c #724F15",
">. c #6C5119",
",. c #7B571C",
"<. c #765514",
"1. c #484035",
"2. c #434039",
"3. c #614A21",
"4. c #675225",
"5. c #755827",
"6. c #785B31",
"7. c #72632C",
"8. c #7D6337",
"9. c #3B3C40",
"0. c #845B13",
"q. c #855E1B",
"w. c #8F691B",
"e. c #926510",
"r. c #A17418",
"t. c #856426",
"y. c #8A6623",
"u. c #82632A",
"i. c #886A2B",
"p. c #936A23",
"a. c #916B2A",
"s. c #987223",
"d. c #8C6E32",
"f. c #886636",
"g. c #8E7139",
"h. c #947231",
"j. c #9D7C34",
"k. c #93743C",
"l. c #98783C",
"z. c #A17B2C",
"x. c #A07735",
"c. c #8E7743",
"v. c #937A44",
"b. c #AE873C",
"n. c #B18B3C",
"m. c #BB8E33",
"M. c #BB9338",
"N. c #CE9D3E",
"B. c #9F8441",
"V. c #A18343",
"C. c #AA8345",
"Z. c #B48C41",
"A. c #B58D48",
"S. c #BD9544",
"D. c #B8984F",
"F. c #B7944A",
"G. c #AE8E55",
"H. c #B89750",
"J. c #B69359",
"K. c #B89856",
"L. c #B99A61",
"P. c #C79F48",
"I. c #C79C56",
"U. c #D3AC47",
"Y. c #C6A252",
"T. c #CAA254",
"R. c #CCA55E",
"E. c #CBA95C",
"W. c #C7A05B",
"Q. c #D1A659",
"!. c #D6AB54",
"~. c #DCB250",
"^. c #E1B44F",
"/. c #E7BA55",
"(. c #EABD5D",
"). c #E5B754",
"_. c #CCAB62",
"`. c #CCAA6A",
"'. c #D1AA65",
"]. c #D7B667",
"[. c #D4B36B",
"{. c #DBB46B",
"}. c #DEB86F",
"|. c #DAB662",
" X c #CCAF73",
".X c #DEB871",
"XX c #E0B768",
"oX c #E4BC6A",
"OX c #EBBF76",
"+X c #EFC756",
"@X c #EEC25D",
"#X c #F3C35C",
"$X c #F3C85D",
"%X c #F4C657",
"&X c #EDC363",
"*X c #E4C16F",
"=X c #EDC46C",
"-X c #F3C663",
";X c #F4CA63",
":X c #FACA63",
">X c #F3C76A",
",X c #F4CA6C",
"<X c #FBCA6B",
"1X c #E9C476",
"2X c #F3C972",
"3X c #F2C477",
/* pixels */
"# 7 0 # 7 + 7 7 # # 7 7 @ # 7 # + # . X X , : ",
"8 6.K.i.y O.H.V.R i V.J.O.q u.K.8.7 ; B n % , ",
"( {.&X(.%.Z.-X$Xw.w.#X(.S.%.).>X].~ j P P 5 o ",
"Q Q.>X^.#.n.@X>X0.0.:X<Xn.| ~.,X].E s J H 3 = ",
"8  .x.&.8 E g.u.u y u.v.^ 7 ;.v.O.0 # r * @ $ ",
"8 ) q.} 7 # t # O # 7 0 @ O # 0 # + Y f.4.t @ ",
"Q Q.:X~.~ r X...4 4 ..J l = F X.V q Z.,X*X:.+ ",
"} oX%X@Xo.j J P b 5 P P N < L 9.S f T.(.2Xt.+ ",
"9 f.I.h.w - B B , : m N > : b N 3 * :.I.C.T # ",
"7 y | U # $ % X X : X : : : : : $ @ y +.Q 7 # ",
"U A.(.P.f e J D < < F K b X M ..l 0 s.@X!.` + ",
"| oX(.OXO.l X.P b b P J M > 9.X.A g E.&X=Xu.O ",
"i G.3XI.f p H H 1 1 C A 2 X M ..l 0 k.1X XO.@ ",
"7 U @.U 7 + t 7 O # 0 t @ @ # q # 7 t / h @ $ ",
"9 t.P.r.y $.T.A.Q E n.Y.$.y s.T.d.q 0 j s = > ",
") oX#X/.=.F.-X-Xp.p.-X-XD.=.(.(..X_ v 2.H 5 X ",
"E `.2X!.} V.2X=X,.,.&X,XC.` !.2X`.R x J H 1 . ",
"8 ) e.@.8 f u.,.q q <.t.R 7 +.i.o.q # 7 # # $ ",
"8 | r.#.7 # 0 * & @ * t @ * * t # @ ( h.5.u # ",
"Q '.>X|.[ p X.J 5 2 J H B < A P Z d A.=X*X5.O ",
"( [.>XoXO.j J J 6 5 J J N 2 K P A d T.-X2Xu.O ",
"8 q.M.w.t * k k % , k B < X b B 3 @ #.m.j.Y # ",
"8 U %.T * . % , o X X X X = X < X # i @.Q 7 # ",
"U J.3XW.g ; J G < 6 N J a X B P M t l.OX{.o.@ ",
") XX+X=X3.c J P m b P 9.N 6 A P H g Q.(.1Xd.@ ",
"U b./.m.f r Z c - $ V Z 3 @ z Z j 7 a.oXE._ @ ",
"7 i @.U # # u w # + w d # # 7 d 0 + 8 W d @ @ ",
"y k.E.j.i >._.D.! ! H.'.5.u j.[.c.t # V l = X ",
"` {.+X+X*.S.#X:Xp.w.$X%XP.*.@X#X*X_ x ..P 3 X ",
"T E.,XU.` z.<X&X<.=.@X;Xz.) U.>X_.R r J P 6 : ",
"# / 7.~ # i 5.-.q 0 ;.6.f # ' 6.{ @ = 5 , o : ",
"#     @ # + + + @ @     @ # + O O - , o , : X "
};
