/* XPM */
static char *xpm_[] = {
/* columns rows colors chars-per-pixel */
"23 32 202 2 ",
"   c #0C0B06",
".  c #0C0D0B",
"X  c #140400",
"o  c #1C0600",
"O  c #140B01",
"+  c #1B0B00",
"@  c #120D0B",
"#  c #0F110C",
"$  c #161106",
"%  c #1D1101",
"&  c #12110C",
"*  c #1D140D",
"=  c #1C180F",
"-  c #16180D",
";  c #0C0E10",
":  c #100E12",
">  c #0F1112",
",  c #131312",
"<  c #181410",
"1  c #141817",
"2  c #191916",
"3  c #181619",
"4  c #171A19",
"5  c #1C1B1B",
"6  c #141519",
"7  c #220600",
"8  c #220C00",
"9  c #2A0D00",
"0  c #241300",
"q  c #2A1300",
"w  c #261903",
"e  c #2C1B01",
"r  c #291B0D",
"t  c #321300",
"y  c #341B00",
"u  c #3A1D00",
"i  c #231E1B",
"p  c #281F18",
"a  c #1B201C",
"s  c #2F200D",
"d  c #362100",
"f  c #3C2201",
"g  c #3C2909",
"h  c #22211D",
"j  c #29241C",
"k  c #2E2618",
"l  c #362C1C",
"z  c #221F28",
"x  c #231E22",
"c  c #242424",
"v  c #2A2426",
"b  c #242925",
"n  c #292926",
"m  c #2D2C2A",
"M  c #26282A",
"N  c #312726",
"B  c #322C24",
"V  c #322D2B",
"C  c #392F25",
"Z  c #2E312A",
"A  c #34322D",
"S  c #393429",
"D  c #2D3132",
"F  c #323334",
"G  c #3B3634",
"H  c #363936",
"J  c #3C3A36",
"K  c #3A3739",
"L  c #373C3C",
"P  c #3B3C3C",
"I  c #431C00",
"U  c #422400",
"Y  c #452901",
"T  c #432F0E",
"R  c #512B00",
"E  c #4D3205",
"W  c #4F3209",
"Q  c #553100",
"!  c #593200",
"~  c #553901",
"^  c #593B00",
"/  c #50380A",
"(  c #563A0B",
")  c #4E3811",
"_  c #5A3F13",
"`  c #543A12",
"'  c #633A00",
"]  c #6A3E00",
"[  c #623500",
"{  c #44362D",
"}  c #423A34",
"|  c #423D3A",
" . c #564011",
".. c #5C441C",
"X. c #664304",
"o. c #6B4300",
"O. c #67470A",
"+. c #684A0C",
"@. c #734A02",
"#. c #774700",
"$. c #7E520B",
"%. c #6A4F1E",
"&. c #654915",
"*. c #6F5017",
"=. c #68511D",
"-. c #7C5D1C",
";. c #7F621A",
":. c #434037",
">. c #614C21",
",. c #6D572C",
"<. c #6D5525",
"1. c #715325",
"2. c #765826",
"3. c #75592C",
"4. c #795D2C",
"5. c #7C5F25",
"6. c #765D32",
"7. c #7E6333",
"8. c #3B3D40",
"9. c #845C05",
"0. c #87570D",
"q. c #885E08",
"w. c #82580E",
"e. c #835C13",
"r. c #896318",
"t. c #886217",
"y. c #946718",
"u. c #866524",
"i. c #886626",
"p. c #8E6A25",
"a. c #8A6C2B",
"s. c #976F25",
"d. c #886835",
"f. c #896B3A",
"g. c #906E31",
"h. c #88713B",
"j. c #927333",
"k. c #9D7D3B",
"l. c #9D7C35",
"z. c #A77A21",
"x. c #A07A2F",
"c. c #A37D33",
"v. c #967944",
"b. c #987943",
"n. c #B5892C",
"m. c #B78928",
"M. c #AA843A",
"N. c #C1983C",
"B. c #A6894F",
"V. c #AA8C4E",
"C. c #AF8D43",
"Z. c #B28B40",
"A. c #AE904A",
"S. c #BC9747",
"D. c #B69248",
"F. c #A98E55",
"G. c #BC9A52",
"H. c #B09158",
"J. c #BF965E",
"K. c #B99C5C",
"L. c #B69A5B",
"P. c #BCA061",
"I. c #C59A47",
"U. c #CB9C56",
"Y. c #D1A640",
"T. c #D1A648",
"R. c #D7AB4D",
"E. c #C7A559",
"W. c #D6A75F",
"Q. c #D3AB5E",
"!. c #D8AD51",
"~. c #DCB250",
"^. c #E2B655",
"/. c #EDBE5C",
"(. c #E4BE59",
"). c #C4A262",
"_. c #C7A960",
"`. c #CDAD65",
"'. c #C5A769",
"]. c #CCAB68",
"[. c #D1AD65",
"{. c #DEB661",
"}. c #D2B16C",
"|. c #DDB871",
" X c #E6BA62",
".X c #E3B76B",
"XX c #EFC35E",
"oX c #F3C55D",
"OX c #F3C657",
"+X c #ECC367",
"@X c #ECC56A",
"#X c #EFCA6A",
"$X c #F7C762",
"%X c #F2C462",
"&X c #F4C862",
"*X c #FAC963",
"=X c #F2C66C",
"-X c #F4CA6B",
";X c #FCD06D",
":X c #E8C373",
">X c #F2C971",
",X c #F6C776",
/* pixels */
"+ + + 0 8 o 8 + o + 8 9 o o 7 8 + + + + o 8 O ",
"0 >.K.j.y W V.V./ t j.L.1.t *.L.h.y ~ F.F.T + ",
"U `.%XoXe.x.$X*Xc.w.%X%X[.] R.oX+X$.n.=X+Xl.0 ",
"u G.*XoX@.s.$X$Xx.@./.*XU.[ T.%X(.@.z.-X=Xp.+ ",
"9 W s.w.y f d.f.f q 2.b.` 9 ( v.<.q Y f.f.d $ ",
"o U y.#.9 o 0 0 X O + 0 + % + 0 % O + % % O # ",
"u G.oXoX%.9 { } i * H :.j O N | A # i J J 5   ",
"U _.oXoX4.w | 8.b 2 H L Z # D 8.P 6 M P P c # ",
"8 1.I.c.g O m M > ; a D 4 . 4 m z : 1 n b # & ",
"8 y o.R + O # # # ; ; . . : . : @ ,   &   # , ",
"y c.%X!./ % S A 1 # b D c ; x K N   a H Z 2   ",
"U ].oX@X7.s } | b < L P m : K | } < h L P a   ",
"q v..XE.) % B F 2 & n G b   j { N , 1 F D 3 & ",
"8 t o.R 8 + w 0 O + 0 0 O + 8 q 8 X . > ;   # ",
"9 5.Y.m.U ^ S.S.~ u c.Q.5.q r.E.k.y $ c M , ; ",
"U ].oXoXt.l.$X%XM.e./.%X[.o.!.%X:X%.p L J i : ",
"u H.,X.XO.a.@X-Xj.X. X-XJ.Q I.>X|._ r K H a ; ",
"8 Y 0.@.9 d ;.;.u q +.d.) 7 ~ i.&.0 O 3 1 > ; ",
"8 ^ z.q.d + 0 0 % O + w O + + e O $ . 5 5 .   ",
"U ).-X=X=.w } | 5 , P P n   V J G , a L P x # ",
"u ).%X=X2.r } H c 3 H P V , m | G , b 8.8.z . ",
"9 X.m.y.u + h v ; : i v 3 . i v i . ; c c ; & ",
"o u #.[ 8 O & &   . . , . @   @ @ @ . . : @   ",
"e F.,X.X..+ S H 5 , V H x @ c G N @ 3 H F - # ",
"Y ]./.=X6.r | | c : P P F : F | G 1 M 8.J b & ",
"q u.^.I.Y q l C r @ l B i @ j B n @ = S l $   ",
"8 9 ! I 7 o y y + X e d 8 + 9 y 0 + + e e O & ",
"0 7.Q.Z.Y  .E._.&.U C.Q.d.y i.}.B.f +.'.P. .X ",
"g E.OXOXr.c.%X$XM.t.OXOXQ.o.~.oX@X9.n.%X#XM.o ",
"y A.#XXXX.e.-X%Xp.' ^.;XS.R N.-X X] y.>X@Xu.7 ",
"+ g 6...0 y <.1.t 8 _ 3.T + E 4.` w d ,.,.w X ",
"O O X X + + X o o * X X + + o X + + + o X + & "
};
