/* XPM */
static char *xpm_[] = {
/* columns rows colors chars-per-pixel */
"23 32 191 2 ",
"   c #0F0400",
".  c #0B0C05",
"X  c #0C0D0C",
"o  c #060C08",
"O  c #130700",
"+  c #190500",
"@  c #140B01",
"#  c #1B0B00",
"$  c #120D0D",
"%  c #0E110D",
"&  c #151003",
"*  c #1E1301",
"=  c #12110E",
"-  c #19140D",
";  c #1A1A0E",
":  c #0D0D11",
">  c #110E13",
",  c #0E1112",
"<  c #131313",
"1  c #1A1614",
"2  c #151815",
"3  c #191916",
"4  c #13121A",
"5  c #19161B",
"6  c #1B1B1B",
"7  c #230700",
"8  c #290700",
"9  c #220B00",
"0  c #2A0D00",
"q  c #231300",
"w  c #2B1300",
"e  c #251800",
"r  c #2C1901",
"t  c #261A0E",
"y  c #351500",
"u  c #391700",
"i  c #341E00",
"p  c #3B1A00",
"a  c #201C11",
"s  c #221F18",
"d  c #2A1C11",
"f  c #342203",
"g  c #3B2100",
"h  c #322900",
"j  c #3A2C00",
"k  c #22221D",
"l  c #2C241B",
"z  c #2D2413",
"x  c #38271D",
"c  c #31291D",
"v  c #352A1D",
"b  c #1F1F21",
"n  c #211F20",
"m  c #1E2122",
"M  c #242424",
"N  c #252924",
"B  c #2B2A22",
"V  c #2C2B2C",
"C  c #28252A",
"Z  c #332A2B",
"A  c #2F312C",
"S  c #34332C",
"D  c #3F312E",
"F  c #2E2E30",
"G  c #322E34",
"H  c #333433",
"J  c #393533",
"K  c #363934",
"L  c #3B3A36",
"P  c #36343A",
"I  c #373938",
"U  c #3B3B3B",
"Y  c #3C363A",
"T  c #431C00",
"R  c #452400",
"E  c #4C2C00",
"W  c #402E08",
"Q  c #432C02",
"!  c #512D00",
"~  c #4A350D",
"^  c #4F380F",
"/  c #463409",
"(  c #563300",
")  c #5C3500",
"_  c #573802",
"`  c #5D3B01",
"'  c #563A0B",
"]  c #4D3918",
"[  c #473511",
"{  c #563D15",
"}  c #623600",
"|  c #603A00",
" . c #603E0E",
".. c #43392F",
"X. c #423C35",
"o. c #433D3C",
"O. c #3F4139",
"+. c #634301",
"@. c #6B4401",
"#. c #6D4A00",
"$. c #6A4A0A",
"%. c #714700",
"&. c #704900",
"*. c #784A0F",
"=. c #744D08",
"-. c #795001",
";. c #7B530A",
":. c #7E580F",
">. c #73510A",
",. c #664812",
"<. c #674918",
"1. c #6F5112",
"2. c #6E5119",
"3. c #7A5717",
"4. c #72561E",
"5. c #7E621E",
"6. c #404034",
"7. c #745A26",
"8. c #7C5D24",
"9. c #735A31",
"0. c #786228",
"q. c #7A6234",
"w. c #3F3D42",
"e. c #403E41",
"r. c gray25",
"t. c #825B14",
"y. c #8C6419",
"u. c #9A7212",
"i. c #836525",
"p. c #886F2F",
"a. c #896527",
"s. c #926724",
"d. c #9D742C",
"f. c #957127",
"g. c #8C6C35",
"h. c #8F703A",
"j. c #907035",
"k. c #997737",
"l. c #A27D2C",
"z. c #A97D26",
"x. c #A57B33",
"c. c #8B7442",
"v. c #957A43",
"b. c #9F7C44",
"n. c #AE823B",
"m. c #B38737",
"M. c #AC8E4A",
"N. c #A48944",
"B. c #B08D49",
"V. c #BA9743",
"C. c #BE9A42",
"Z. c #BF9A4A",
"A. c #B3965B",
"S. c #B7965A",
"D. c #B9A566",
"F. c #CC9F42",
"G. c #C39B53",
"H. c #CCA44D",
"J. c #D5AA45",
"K. c #D4A849",
"L. c #DDB34D",
"P. c #CAA355",
"I. c #C5A357",
"U. c #D1A850",
"Y. c #D1A75F",
"T. c #D3AA5B",
"R. c #DBB55C",
"E. c #E5B857",
"W. c #CCA665",
"Q. c #D0AE6E",
"!. c #D7B061",
"~. c #DBB265",
"^. c #D8B869",
"/. c #E2BC63",
"(. c #E3BD6E",
"). c #EBBE69",
"_. c #E7BC72",
"`. c #EDC35D",
"'. c #F3C55D",
"]. c #F2C95E",
"[. c #EEC462",
"{. c #E8C068",
"}. c #EFC86B",
"|. c #E5C16D",
" X c #F3C565",
".X c #F5CA64",
"XX c #F9CA65",
"oX c #F5C56A",
"OX c #F3CA6C",
"+X c #ECC671",
"@X c #F2CC76",
/* pixels */
"# # 9 9 # # 7 9 # # # 9 # # 7 9 # # 9 9 # # @ ",
"w g.S.i.0 <.A.k.i E N.M.^ y k.S.7.r 2.A.c.r * ",
"@.^.].L.#.P. X].3.l.XX].n.;.E.XXR.| K.[.+X4.+ ",
"` R.].J.` V..X[.;.s. X.Xx.%.E.XXP.} F.OX(.,.+ ",
"0 ,.x.| w / v.7.r g g.h.g w 4.v.{ 8 ' v.9.r $ ",
"8  .s.) 9 # q # O O 9 9 O & # e # # O * # O $ ",
"} ~.XXU.Q d ..X.1 6 X.6.l & S 6.B = c O.J 1 X ",
"@._.'./.^ c o.U 6 b e.U N , K K H % A O.U 6 $ ",
"u g.G.a.q 1 B M % X V V < X k A 6 X 6 F m : , ",
"7 R @.R # $ $ o o % , : o < . $ . X % X X X X ",
"! Z..XV.g t L V < < F P 6 : V P M . M P V < X ",
"=.|.`.^.^ x o.L 6 m U U C 4 Y o.S < F U U 6 : ",
"E S.|.M.i d D Z = 3 S K 2 > Z J n X M H V < X ",
"8 R @.p 7 # 0 w @ @ * e O O * r # @ $ : o : : ",
"T d.K.u.u 3.P.n.R ( V.C.` i x.P.0.q t V b : : ",
"$.(.`.E.&.P.oXoXy.f.].].m.:.`.[.^.j x X.P b : ",
"_ Q.+XH._ M.OX{.1.i.}.OXk.+.R.@XD.h z L P 4 : ",
"0 ) y.( 0 E a.1.e f 5.5.g w $.p.[ & & 3 4 : > ",
"y >.z.#.9 # r 9 @ @ * * @ @ * q @ @ - 1 < , : ",
"+.^.oX!.W c o.P 5 6 K O.N , P o.Z @ V 6.H < % ",
"+._.oX~.[ l o.U 1 s U U m 6 K Y G > V U K 2 . ",
"y t.m.;.q - B n < < k B , o 6 C b : 6 C k % . ",
"0 ! -.E q $ . : : $ = . , : : : : > : X . . . ",
"( W.@XI.f k U H < 5 K K 2 , V U n : n Y A = % ",
"*._.E._.] c O.O.1 M Y U N 5 U U H < S U U 3 $ ",
"T x.E.x.y a H N $ 1 G F 5 % C H 6 % 6 K C < : ",
"8 u } u @ . o % = $ X % % . X X . < X X X X > ",
"T b.W.k.e ; A M > < V V 3 o M V 6 X 6 V M < X ",
"@.).'./.~ c Y U 1 6 U I N 2 P w.G < F r.U 3 X ",
"` T..XI.f z J H < 5 I U 6 < H U C : C O.V < X ",
"# ~ 9./ * $ 5 5 : : 6 5 : o < 3 = o , 3 < X : ",
"@ O O O $ : : : : X X X : , . . X X % . X : : "
};
