/* XPM */
static char *xpm_[] = {
/* columns rows colors chars-per-pixel */
"23 32 202 2 ",
"   c #0B0C07",
".  c #0C0C0B",
"X  c #090704",
"o  c #130500",
"O  c #140B02",
"+  c #1B0C00",
"@  c #120D0D",
"#  c #190C09",
"$  c #1C0700",
"%  c #0E110C",
"&  c #131103",
"*  c #1E1200",
"=  c #13130D",
"-  c #18130D",
";  c #1E1A00",
":  c #0F0E11",
">  c #120D11",
",  c #0D1210",
"<  c #131313",
"1  c #1B1612",
"2  c #1A1A15",
"3  c #151519",
"4  c #1A171B",
"5  c #151A1A",
"6  c #1B1A1C",
"7  c #131812",
"8  c #230700",
"9  c #230C00",
"0  c #2B0D00",
"q  c #310D00",
"w  c #231300",
"e  c #2B1500",
"r  c #271B00",
"t  c #2C1C00",
"y  c #20160E",
"u  c #271A0A",
"i  c #2C1D0D",
"p  c #331400",
"a  c #3B1400",
"s  c #341C01",
"d  c #3B1D00",
"f  c #211E1D",
"g  c #281F18",
"h  c #231C14",
"j  c #342301",
"k  c #392402",
"l  c #3E2A04",
"z  c #3F2B0C",
"x  c #25231C",
"c  c #2C251C",
"v  c #2C2616",
"b  c #31251C",
"n  c #392B1C",
"m  c #332818",
"M  c #3E3119",
"N  c #1E1E20",
"B  c #211C20",
"V  c #232323",
"C  c #2D2621",
"Z  c #292A21",
"A  c #2C2C2B",
"S  c #252829",
"D  c #332D23",
"F  c #332C2B",
"G  c #3B2F23",
"H  c #393027",
"J  c #35332B",
"K  c #3D3A2E",
"L  c #39342A",
"P  c #2E2E30",
"I  c #312C30",
"U  c #2E3131",
"Y  c #333435",
"T  c #3B3633",
"R  c #3A3A35",
"E  c #35343B",
"W  c #3A373B",
"Q  c #373B38",
"!  c #3C3B3B",
"~  c #363835",
"^  c #442100",
"/  c #492400",
"(  c #462C00",
")  c #4B2B00",
"_  c #572F00",
"`  c #4F390B",
"'  c #493409",
"]  c #553200",
"[  c #5B3A02",
"{  c #5A3A0C",
"}  c #533908",
"|  c #473812",
" . c #513A12",
".. c #623A00",
"X. c #433B34",
"o. c #423C3A",
"O. c #57400E",
"+. c #574016",
"@. c #5F4415",
"#. c #694601",
"$. c #6C4E0C",
"%. c #694808",
"&. c #704600",
"*. c #744B03",
"=. c #734A08",
"-. c #7D590B",
";. c #644A16",
":. c #624A1A",
">. c #6B4B1C",
",. c #66511C",
"<. c #7D5511",
"1. c #7F5910",
"2. c #755719",
"3. c #5B4820",
"4. c #44423D",
"5. c #644C21",
"6. c #665227",
"7. c #6D562A",
"8. c #775A23",
"9. c #745D31",
"0. c #7A622C",
"q. c #7B6735",
"w. c #3F3D40",
"e. c #424146",
"r. c #82570A",
"t. c #875D0D",
"y. c #845C19",
"u. c #866113",
"i. c #8A6315",
"p. c #84631B",
"a. c #906B1D",
"s. c #816224",
"d. c #8E6523",
"f. c #946D2A",
"g. c #9E752F",
"h. c #977627",
"j. c #846F38",
"k. c #89743D",
"l. c #9F7835",
"z. c #987938",
"x. c #97753A",
"c. c #A27A25",
"v. c #8D6E40",
"b. c #8B7342",
"n. c #917840",
"m. c #9E7E41",
"M. c #AE852B",
"N. c #AC8734",
"B. c #A78138",
"V. c #B18B39",
"C. c #B1873B",
"Z. c #BD913A",
"A. c #AC8D49",
"S. c #A98944",
"D. c #B28C4B",
"F. c #B6944B",
"G. c #BA934E",
"H. c #B68E51",
"J. c #AD9152",
"K. c #B99655",
"L. c #BD9F61",
"P. c #C29D4E",
"I. c #C89E56",
"U. c #CCA957",
"Y. c #CDAB59",
"T. c #C9A456",
"R. c #D2A955",
"E. c #D6B25C",
"W. c #D8B453",
"Q. c #D6AA4B",
"!. c #E3BB5A",
"~. c #ECBE5B",
"^. c #E1B353",
"/. c #C7A663",
"(. c #C4A66A",
"). c #D3AE63",
"_. c #CEB16B",
"`. c #D4B164",
"'. c #DAB463",
"]. c #D4B36C",
"[. c #D9B66C",
"{. c #DBB872",
"}. c #E5BD68",
"|. c #E3B86B",
" X c #E5BE71",
".X c #EDC35B",
"XX c #F5C55E",
"oX c #F4C85D",
"OX c #EDC364",
"+X c #EFC965",
"@X c #E5C068",
"#X c #EBC46E",
"$X c #EFCB6A",
"%X c #F2C563",
"&X c #F4C965",
"*X c #F0C46E",
"=X c #F2CA6A",
"-X c #E6C173",
";X c #E8C373",
":X c #F3C677",
">X c #F3CB73",
",X c #F2C778",
/* pixels */
": . @ o # + 0 8 9 8 q e 8 8 8 9 + &   : . @ - ",
". N F y + 9.L.x.s { G.D.` d S.K.6.* 2 A 5 % < ",
"3 Q o.n ( _..X.X-.V.oXoXg.y.%XOX/.j F ! ~ , . ",
"1 L X.i k P.+X.X#.h.&X+Xd.=.%X#XH.s n 4.J %   ",
"O * e + + | k.,.w k q.0.d e 8.j.' + + w O & - ",
"p 5.b.` * O ; * X & ; * o + O * O * ` v.3.* # ",
"*.}.&XP.k b X.L - x X.R g - X.X.m l E.=X].` o ",
"t.@XoXR.z F o.W < Z w.W h 4 w.o.b ' E..X-X@.o ",
"d x.F.2.* 1 A N . > S S < . V A - + 0.(.b.t O ",
"8 ) #.d O O % . > . > > : = . . @ # + r *   @ ",
"..R.&XV.e c Q A : 4 E E 3 < A ~ B @ Z K c % % ",
"t.*X~.'.l D o.~ < V W o.V 2 R ! I > Y Q Q 7 % ",
"_ K.|.x.e x R A . 2 J F - - F J f < Z J x -   ",
"8 ) *.a + O @   & O r r + + w s O + + r * + O ",
"_ N.Q.a.9 f A x + ,.K.P.[ ( C.U.8.a h.U.z.t O ",
"u.#XXX).z F R K t J.&X&Xl.y.%X%XI.#.^..X X;.o ",
"#.[.:XH.i C R J r x.#X*X0.$.@X#XD._ R.>X_.'   ",
"0 [ r./ $ - 1 - O j 2.2.s 0 $.s.( 8 _ i.[ * & ",
"d t.M.#.9 - N 4   O w w O O + w + 8 #.c.$.e O ",
"<.-X=XU.j D w.U > x o.! N 1 o.o.c | ).>X{.} O ",
"<. X=XU.k F e.E < V ! ! 5 3 ~ o.c | [.#X-XO.O ",
"a y.M.#.w 7 V N , % V V 3 , B x - + r.Z.p.e O ",
"q [ r./ * & 7 , %     % . X . < O + ^ &.) 9 * ",
"%.[.:XF.t x ~ U , 5 Y Q < : Y Q h j K.:X/.( O ",
"y.;X.XE.l D ! w.3 S ! w.V 5 W o.b  .}.~.;X;.O ",
"( A.'.s.w i H c   - D D @ @ n n u t l.|.A.s O ",
"+ * j w + 0 k e + + d d w + s k + + e ( w O - ",
"@ x D u w v.|.S.^ >.).R.{ ( F.].q.w i D h @   ",
"3 ~ 4.m ( [..XoXu.V.oX&Xg.i.oX.X].d H o.~ 1 @ ",
"3 Y Q c s F.$XW...f.*X~.y.#.!.=XS.w v R F @ @ ",
". < 4 o + j 7. .8 e 5.:.e 0 +.6.j & = 2 > > - ",
"> . > # # + o O # # o o + # o X   &   % @ @ . "
};
