/* XPM */
static char *xpm_[] = {
/* columns rows colors chars-per-pixel */
"23 32 199 2 ",
"   c #0D0500",
".  c #070900",
"X  c #0C0B06",
"o  c #0C0C0C",
"O  c #060F0A",
"+  c #140600",
"@  c #1B0400",
"#  c #140B01",
"$  c #1B0B01",
"%  c #120D0B",
"&  c #1D0E0B",
"*  c #0D110C",
"=  c #141104",
"-  c #1C1100",
";  c #12120D",
":  c #1B120A",
">  c #0E0E12",
",  c #120F11",
"<  c #0E1012",
"1  c #141413",
"2  c #191613",
"3  c #151A14",
"4  c #1A1916",
"5  c #161618",
"6  c #1B1B1C",
"7  c #18181B",
"8  c #220B00",
"9  c #2B0C00",
"0  c #320F00",
"q  c #241300",
"w  c #2B1400",
"e  c #221A02",
"r  c #2B1A01",
"t  c #251C0D",
"y  c #291E0A",
"u  c #331400",
"i  c #331C00",
"p  c #3E1C00",
"a  c #3B1100",
"s  c #231C13",
"d  c #291B11",
"f  c #231E1E",
"g  c #1D211D",
"h  c #272107",
"j  c #322101",
"k  c #3B2503",
"l  c #3E2A02",
"z  c #372509",
"x  c #3C2C0A",
"c  c #232116",
"v  c #2C2415",
"b  c #21221B",
"n  c #2D251D",
"m  c #342A1D",
"M  c #352918",
"N  c #1D1C21",
"B  c #1F2022",
"V  c #232422",
"C  c #292424",
"Z  c #2C2A26",
"A  c #29262A",
"S  c #2B2B2A",
"D  c #27242B",
"F  c #322C24",
"G  c #312D2B",
"H  c #2F302A",
"J  c #3F3726",
"K  c #34322D",
"L  c #3C362D",
"P  c #2E2E31",
"I  c #333433",
"U  c #363835",
"Y  c #3C3B36",
"T  c #3C3B3B",
"R  c #393637",
"E  c #441C00",
"W  c #4A2600",
"Q  c #432C00",
"!  c #4D2B00",
"~  c #432807",
"^  c #532B00",
"/  c #4F3000",
"(  c #4B330C",
")  c #453100",
"_  c #563200",
"`  c #593300",
"'  c #533C04",
"]  c #5E3A00",
"[  c #513A0F",
"{  c #5B3F0F",
"}  c #453311",
"|  c #4B3910",
" . c #4F3711",
".. c #583D12",
"X. c #623700",
"o. c #643C00",
"O. c #40392F",
"+. c #433D34",
"@. c #423D3A",
"#. c #5B4516",
"$. c #5A440A",
"%. c #664200",
"&. c #6B4505",
"*. c #60400F",
"=. c #724602",
"-. c #724A00",
";. c #774D0C",
":. c #785202",
">. c #7B5705",
",. c #654515",
"<. c #644913",
"1. c #684A14",
"2. c #714C17",
"3. c #67511C",
"4. c #7D5314",
"5. c #41413E",
"6. c #654B21",
"7. c #6E552A",
"8. c #6D5122",
"9. c #765C29",
"0. c #7A622E",
"q. c #3D3D42",
"w. c #413C43",
"e. c #855D0D",
"r. c #835A13",
"t. c #8C5E10",
"y. c #896316",
"u. c #94701C",
"i. c #A17A1F",
"p. c #8F5F21",
"a. c #81692D",
"s. c #966F20",
"d. c #936728",
"f. c #99702E",
"g. c #8A6933",
"h. c #8E733C",
"j. c #967436",
"k. c #9B783A",
"l. c #AC7F2A",
"z. c #A37D37",
"x. c #937744",
"c. c #997A44",
"v. c #AE872C",
"b. c #B3842B",
"n. c #AD8538",
"m. c #B88A3A",
"M. c #C99E38",
"N. c #A7884F",
"B. c #A2834D",
"V. c #B58D47",
"C. c #BE9A4C",
"Z. c #B48D52",
"A. c #AF9757",
"S. c #B69352",
"D. c #B89952",
"F. c #BA9A61",
"G. c #C29643",
"H. c #C89D49",
"J. c #C19D53",
"K. c #CEA647",
"L. c #DFAF49",
"P. c #D7A946",
"I. c #CEAC5E",
"U. c #C7A45A",
"Y. c #D4AE5D",
"T. c #D9AC5D",
"R. c #D3AA52",
"E. c #D6B05D",
"W. c #DCB45F",
"Q. c #E4B148",
"!. c #E6BD5F",
"~. c #E9B953",
"^. c #C5A566",
"/. c #D4AC6E",
"(. c #DCB463",
"). c #DEBA64",
"_. c #DBB56C",
"`. c #D4B469",
"'. c #E3BA62",
"]. c #E3BD6C",
"[. c #E4B965",
"{. c #F3BE60",
"}. c #E6BC72",
"|. c #E8BE71",
" X c #E4B773",
".X c #EEC35D",
"XX c #F2C35D",
"oX c #F6C85B",
"OX c #E5C16A",
"+X c #EBC26A",
"@X c #EBC566",
"#X c #F4C562",
"$X c #FACA62",
"%X c #F2C36E",
"&X c #FBC86C",
"*X c #F5CA66",
"=X c #EAC471",
"-X c #F1C974",
";X c #F5CA7B",
/* pixels */
"8 8 q $ # o o o * * X X > < O o % $ $ w $ @ & ",
"k c.^.9.- 2 A B * * S A 1 > V S 2 q 0.U.x.i + ",
"e.].XXT.k F 5.U 3 B T w.V 5 R +.n | ).XX}.#.# ",
"-.'.$XH.p m O.I ; 6 w.T 6 4 G +.v l R.#X(.' X ",
"0 1.p.^ $ + q $ = * 5 1 % # - q = 8 ` d.o.8 # ",
"0 2.f.] w #.c.8.- ; 4 2 # q 0.x.[ w &.f.,.q = ",
":.[.$XM.] J.$X'.$.e @.@.r 8..XoXG.X.P.oX_.' # ",
">.@X$XP.%.Y.XX@X3.h 5.+.w 9..XoXH.=.Q.oX=X$.# ",
"p g.V.4.9 7.F.h.r = y d $ j c.A.3.u r.Z.g.w $ ",
"9 _ =.E 8 $ 9 @ # e [  .8 @ - q $ @ E ;.W 8 # ",
"o.T.&Xm.i v J M - 0.OXOX9.q x O.y k M.#XU.Q X ",
"y.%X{.(.l m 5.L j A..X.XB.r O.5.m | @X~.+X1.  ",
"! S.].j.q c U F - 7._.`.#.- Z I 4 r n._.Z.p # ",
"9 W -.u # . X % = - Q l # # X o # $ p -.E 8 - ",
"^ m.Q.u.- b I V % : v v ; * b K t i u.Q.n.p # ",
"t.|.{.E.x F Y Y 2 C @.T g 3 5.+.M [ '.XX|.1.# ",
"o._.;XS.r F Y S , 6 T U 3 1 I @.v j J.-X^.[ # ",
"0 _ -.~ $ % 4 1 % X 1 < * o , 2 % $ ^ :.! 8 $ ",
"p y.v.&.$ % V 7 ; 1 7 N < , 7 f : q :.b.r.w # ",
"4.}.*XI.z G T I ; B q.q.N 1 @.@.n ( (.#X].{   ",
"4. X-X^.z G T U ; b T q.N 5 @.Y n } T.&X X{ # ",
"a r.b.o.8 2 V 5 X ; B B 1 O 4 C : $ =.b.;.9 $ ",
"0 %.t.^ $ + 5 % 1 O * < * * < : % $ _ t.] 9 & ",
"&._.%XD.i n R K % 6 T U 7 3 K Y s z U.-X/.( + ",
"r.-X@XY.k K Y U 1 A T T V 4 T Y F | ].@X}.,.# ",
"W n.K.y.q s K V o 5 P P < 1 S K s q s.P.z.p $ ",
"8 E _ u $ % X O > o o o o o O X X @ a ` u 8 : ",
"! S._.j.w s K V > N P P 5 * A K s r k._.N.i # ",
"t.+XXXW.( m +.U 5 D w.q.N 5 R +.M ( )..X=X#.# ",
"o.T.%XV.r n U S , 7 R R 4 1 G L d k C.+XU.) # ",
"8 ( 6.k # * 3 * > > 3 ; o o % 5 , # ~ 6.} - ; ",
"= # @ # = * O < 1 , X ; o o > > , ; +     o > "
};
