/* XPM */
static char *xpm_[] = {
/* columns rows colors chars-per-pixel */
"23 32 200 2 ",
"   c #0C0C07",
".  c #0D0C0C",
"X  c #060503",
"o  c #140500",
"O  c #1A0600",
"+  c #140B01",
"@  c #1B0C00",
"#  c #120E0C",
"$  c #0E110B",
"%  c #131107",
"&  c #1D1200",
"*  c #12110C",
"=  c #19130A",
"-  c #1E180C",
";  c #0E0D11",
":  c #120D12",
">  c #0F1012",
",  c #141314",
"<  c #191413",
"1  c #161A15",
"2  c #191914",
"3  c #151519",
"4  c #1A1418",
"5  c #1C1B1C",
"6  c #210C00",
"7  c #2A0B00",
"8  c #230700",
"9  c #300D00",
"0  c #231200",
"q  c #2A1400",
"w  c #271800",
"e  c #2B1A01",
"r  c #231C0C",
"t  c #281B0B",
"y  c #321300",
"u  c #3B1700",
"i  c #331D00",
"p  c #3B1A00",
"a  c #241C14",
"s  c #221D1D",
"d  c #281F18",
"f  c #291F15",
"g  c #1E201D",
"h  c #2C2000",
"j  c #332202",
"k  c #3B2301",
"l  c #3B2907",
"z  c #2C2214",
"x  c #22221D",
"c  c #2D261C",
"v  c #2E2A1A",
"b  c #332718",
"n  c #1E1E20",
"m  c #241D24",
"M  c #242325",
"N  c #262927",
"B  c #2D2C27",
"V  c #26242A",
"C  c #29272A",
"Z  c #2B2B2B",
"A  c #282627",
"S  c #332C24",
"D  c #302E2F",
"F  c #343225",
"G  c #393027",
"H  c #35322D",
"J  c #3D342C",
"K  c #322D31",
"L  c #392F30",
"P  c #353434",
"I  c #373834",
"U  c #3B3A35",
"Y  c #373439",
"T  c #3B373A",
"R  c #3D3C3B",
"E  c #3C3636",
"W  c #421D00",
"Q  c #452500",
"!  c #4A2500",
"~  c #4C2D00",
"^  c #422C07",
"/  c #532E00",
"(  c #4E3301",
")  c #4B380B",
"_  c #543500",
"`  c #5B3500",
"'  c #543800",
"]  c #5C3A01",
"[  c #503508",
"{  c #523C0D",
"}  c #4C3914",
"|  c #473310",
" . c #523D12",
".. c #543D1B",
"X. c #633B00",
"o. c #403D2E",
"O. c #423C37",
"+. c #423D3B",
"@. c #483E3D",
"#. c #5B4009",
"$. c #584117",
"%. c #5B451A",
"&. c #54401F",
"*. c #664202",
"=. c #6C4402",
"-. c #6B4908",
";. c #744B03",
":. c #784D05",
">. c #795406",
",. c #674610",
"<. c #6B4D1B",
"1. c #684C17",
"2. c #6D5016",
"3. c #735614",
"4. c #785110",
"5. c #795C1C",
"6. c #5D4A20",
"7. c #424238",
"8. c #614B20",
"9. c #684F26",
"0. c #775A23",
"q. c #7B5D24",
"w. c #7A5B2C",
"e. c #7E6024",
"r. c #7D6233",
"t. c #3D3C41",
"y. c #403940",
"u. c #855B0C",
"i. c #876314",
"p. c #8B6210",
"a. c #816426",
"s. c #896625",
"d. c #876827",
"f. c #87672A",
"g. c #8A652E",
"h. c #966C21",
"j. c #946E2A",
"k. c #9A762C",
"l. c #896D3B",
"z. c #8E743B",
"x. c #957A3F",
"c. c #95753A",
"v. c #A37A25",
"b. c #A87F27",
"n. c #A37A2D",
"m. c #A37E49",
"M. c #AD882D",
"N. c #B1832B",
"B. c #A5843E",
"V. c #B78E3E",
"C. c #B88931",
"Z. c #BA923D",
"A. c #D0A439",
"S. c #968047",
"D. c #AD8A48",
"F. c #B48F4A",
"G. c #B18A47",
"H. c #BC964E",
"J. c #BD9B42",
"K. c #A58451",
"L. c #BD9C5C",
"P. c #C49A45",
"I. c #C39E58",
"U. c #D4A949",
"Y. c #DAB04C",
"T. c #CBA453",
"R. c #C5A45F",
"E. c #CDA958",
"W. c #C9A454",
"Q. c #D3AC5C",
"!. c #DFB457",
"~. c #EFBF53",
"^. c #E9BF59",
"/. c #C49D62",
"(. c #C7A663",
"). c #D3AD63",
"_. c #D0AF6C",
"`. c #DBB563",
"'. c #D7B168",
"]. c #DBB46B",
"[. c #DEB96A",
"{. c #E3BC61",
"}. c #E2B76A",
"|. c #E4BC6B",
" X c #E5BB77",
".X c #EFC45C",
"XX c #F3C355",
"oX c #F3C55D",
"OX c #ECC164",
"+X c #E6C26B",
"@X c #EBC56C",
"#X c #F3C463",
"$X c #F6CB66",
"%X c #F9C963",
"&X c #F4C66A",
"*X c #F3C86A",
"=X c #EDC572",
"-X c #EEC976",
";X c #F3C573",
":X c #F3C871",
/* pixels */
"@ 6 q @ + $ $   $ $ ; ; ; .     $ + 8 7 7 O + ",
"q r.(.z.w = Z N $ > M C 3 . g B 1 & <./.K.k & ",
"] [.#X^.%.z U R n 5 U R C , P U F l E.OX=Xa.o ",
"~ T.oX!.( t R T 3 1 I P V : P R F e Z.$X@X3.@ ",
"6 [ h.X.0 + 5 , > > , 1 : : , , * @ Q s.2.q @ ",
"0 *.n.X.& % 5 5 > . 5 g : . 4 m < @ ~ j.a.q + ",
"~ Q.%X^. .t U Y 5 , R t.V < Y T v e P.%X&X3.O ",
"] ].oX{...b O.U 5 5 I t.V : Y +.G k T.#X@Xa.O ",
"q w.F.s.q + f a # $ x N 3 ; n N s @ ,.F.c.k + ",
"6 W :./ 6 i $.} 0 + $ > . > ; . # @ p =.' 7 + ",
"! I.$XA._ k.&X^.2.& F I m . N R c q n.#X{.,.@ ",
"` ].~.XX>.P.oX$Xx.e U 7.Z , I 7.G k Q.#X:Xf.o ",
"u m.}.V.Q 0.[.R. .& v B 5 > Z U c @ d.].L.{ + ",
"7 u ;.W O 6 k k @ + h l + % X . # @ q *.( @ @ ",
"u k.Y.M.i & b z &  .W.Q.0.@ a K s 0 i.Y.J.' @ ",
"] [..X+X6.c @.+.w l.OX#XR.j J y.L j T..X@Xa.o ",
"Q L.:X(.| a R E & 9.=X=XS.0 S T B q B.;X X8.O ",
"7 ! >./ 6 + : < + 0 ] <.h @ @ 0 @ O W :.X.7 @ ",
"9 4.C.u.q + x 1 = + 0 q + w e.H.q.7 =.N.h.p @ ",
"_ ].&X|...z 7.U 1 5 +.7.c } |.&X'.;.P.#X-Xa.O ",
"( _.&X|.&.d U U n 5 R R d } `.OX).*.Z.;X;Xq.o ",
"q -.b.:.0 % x 5 ; . 5 m = 0 3.D.2.7 X.b.i.p @ ",
"O _ p.` & % % * . . # 3 # + + 0 O 6 W u.;.y @ ",
"~ (.:X).| h o.I * 4 P T m : B 7.S e F.;X X<.o ",
"] }.#X|.1.c I R n m t.R D 3 P O.o.k E.OX;Xg.o ",
"u j.U.v.e - H B : : V D 4 . m K s @ 4.U.V.~ O ",
"6 y X.p @     . : # X ; : : ; ;   + 7 ` Q 8 + ",
"i x.].D.h * Y Z : : V K 5 . m Y s & a.).L.[ o ",
"X.|.oX{.8.z U t.3 n t.t.C 1 Y U H j E.#X*Xd.+ ",
"! I.$XT.^ a U Y n : Y t.5 . Z U S w B.@X}.1.o ",
"O l 8.| @   < * : ; , , * # . , # + j 1.} @ # ",
"+ o o o = >   * : : ; # : # : ; ; # o   o @ : "
};
