/* XPM */
static char *xpm_[] = {
/* columns rows colors chars-per-pixel */
"23 32 197 2 ",
"   c #070707",
".  c #0C0700",
"X  c #0C0B05",
"o  c #0D0D0D",
"O  c #100500",
"+  c #1A0600",
"@  c #140C01",
"#  c #1B0C00",
"$  c #120D0B",
"%  c #180F08",
"&  c #0E110F",
"*  c #161104",
"=  c #1C1201",
"-  c #13110D",
";  c #1B140D",
":  c #1E1B08",
">  c #0D0D10",
",  c #120F12",
"<  c #0E1112",
"1  c #151413",
"2  c #1A1515",
"3  c #1C1C16",
"4  c #1B1B1B",
"5  c #220C00",
"6  c #2A0C00",
"7  c #241300",
"8  c #2B1400",
"9  c #261A01",
"0  c #2A1B01",
"q  c #251C0B",
"w  c #2B1D0D",
"e  c #311400",
"r  c #381400",
"t  c #331B00",
"y  c #3A1F00",
"u  c #241F1A",
"i  c #211E17",
"p  c #2B220E",
"a  c #342201",
"s  c #3A2401",
"d  c #3D2A00",
"f  c #3C2C08",
"g  c #232017",
"h  c #2B2414",
"j  c #24221D",
"k  c #2B251B",
"l  c #332A1A",
"z  c #1F2326",
"x  c #242424",
"c  c #2C2A24",
"v  c #2C262A",
"b  c #2D2D2C",
"n  c #342D26",
"m  c #382D24",
"M  c #2F302C",
"N  c #363020",
"B  c #33312D",
"V  c #3A342C",
"C  c #3C392A",
"Z  c #2C3031",
"A  c #343434",
"S  c #393532",
"D  c #3C3B35",
"F  c #373538",
"G  c #3C3C3A",
"H  c #422300",
"J  c #482400",
"K  c #432A00",
"L  c #4A2B00",
"P  c #432C0A",
"I  c #502800",
"U  c #4D3405",
"Y  c #433008",
"T  c #553502",
"R  c #5C3A00",
"E  c #533809",
"W  c #583D0E",
"Q  c #4E3A18",
"!  c #633E00",
"~  c #6B3F00",
"^  c #443A2F",
"/  c #433633",
"(  c #423D35",
")  c #413C3B",
"_  c #3D4039",
"`  c #594009",
"'  c #5E4817",
"]  c #56441C",
"[  c #5C451B",
"{  c #5A491D",
"}  c #5C4114",
"|  c #654101",
" . c #6B4500",
".. c #6F4A02",
"X. c #69450B",
"o. c #784D00",
"O. c #654C1B",
"+. c #6E4D18",
"@. c #684B13",
"#. c #6F511B",
"$. c #71531A",
"%. c #7C5A1C",
"&. c #5E5023",
"*. c #42413C",
"=. c #6C5321",
"-. c #6D5829",
";. c #695529",
":. c #745B2C",
">. c #755B27",
",. c #7C622F",
"<. c #3D3D42",
"1. c #845C0B",
"2. c #835C11",
"3. c #89641D",
"4. c #956D16",
"5. c #826223",
"6. c #8B6C23",
"7. c #896624",
"8. c #997229",
"9. c #98792E",
"0. c #856A37",
"q. c #896D39",
"w. c #8D7038",
"e. c #85713E",
"r. c #977837",
"t. c #9F7F36",
"y. c #9D7D3C",
"u. c #937437",
"i. c #A37923",
"p. c #A87E28",
"a. c #A07E3C",
"s. c #8D7642",
"d. c #977E48",
"f. c #917744",
"g. c #B4872C",
"h. c #A5803B",
"j. c #A9853F",
"k. c #AB8135",
"l. c #B0893E",
"z. c #BD9639",
"x. c #C89B3E",
"c. c #A68444",
"v. c #A1834B",
"b. c #AB8848",
"n. c #AF8B41",
"m. c #B38D4A",
"M. c #B69244",
"N. c #B6934D",
"B. c #BA934A",
"V. c #BC9448",
"C. c #AB8C55",
"Z. c #B18E56",
"A. c #B19252",
"S. c #BB9D5C",
"D. c #BB9A55",
"F. c #C19951",
"G. c #CCA349",
"H. c #DCAD4F",
"J. c #D5A84B",
"K. c #DBB44D",
"L. c #C3A35F",
"P. c #CAAD5F",
"I. c #D4AE5D",
"U. c #F3BF5A",
"Y. c #E7B959",
"T. c #C6A365",
"R. c #C8A666",
"E. c #CCAA66",
"W. c #CBAA69",
"Q. c #D2AB64",
"!. c #D0AE6B",
"~. c #D1B061",
"^. c #D9B662",
"/. c #D7B168",
"(. c #DDB76C",
"). c #DDB871",
"_. c #E1B767",
"`. c #E3BC6F",
"'. c #F0BE65",
"]. c #EDC35E",
"[. c #ECC252",
"{. c #F3C35D",
"}. c #F5CD5C",
"|. c #E4C068",
" X c #ECC36C",
".X c #EFC869",
"XX c #E9C567",
"oX c #F2C463",
"OX c #F2CA64",
"+X c #F3C669",
"@X c #F2C66A",
"#X c #F6C969",
"$X c #F5CA6B",
"%X c #E7C174",
"&X c #ECC677",
"*X c #F1C673",
"=X c #F3C973",
/* pixels */
"& X > o $ # 8 8 # + 5 8 7 + 6 6 5 @ $ , $ $ o ",
"o 4 b u # Q Z.D.W y h.L.:.e %.R.d.a $ v x & , ",
", b <.D 8 v.#X{.k.1.{.{.I...K.oX X$.w <.<.z X ",
"$ c D C 8 w.+XoX8. .Y.#XB.T x.+X_.` 0 ) _ 3 & ",
"# # = # # t :.0.a 7 O.0.Y 5 E 0.O.7 @ = = @ $ ",
"# Q f.:.7 # 7 # # = # 9 * @ + 9 # @ d e.0.a @ ",
"s S.+X X=.8 ^ ( g - V ( c * n ( V 9 h.XX=X6.= ",
"s L.oXoX=.w ( D x 1 A G b & B D V 8 l.OXOXh.= ",
"5 O.V.8.a = j x & o 4 b 1 & 1 x i = T b.c.L @ ",
"5 y  .T 7 @ - X < < o > < < & - $ @ e ~ R 8 # ",
"r j.}.K.E : V A 1 < Z G x   x F n 7 3.+X X%.5 ",
"J Q.[.OX,.h ( G z 4 G G Z 1 F G V t M.oX#Xa.# ",
"e w._.F.P # B A 1 > b B c o x F b = #.Q.W.O.+ ",
"5 e  .I + O o < > 1     $ , o o X = 8 ! R 5 @ ",
"6 7.H.z.K = c M 1 > x A 4 o 4 b j = ..J.G.| # ",
"J E.{..X:.p _ D x 1 F G B $ B D D 9 N.oX#Xa.+ ",
"e C.=X(.] ; S D 4 2 S ) v o c _ b = w.&X`.5.# ",
"5 H o.R 7 @ 1 - $ @ # 7 @ * - - & @ 8  .~ 8 # ",
"6 X.g.4.t @ g g $ 0 5.c.W # * j 3 # R p.i.L + ",
"y T.#X.X-.q ( D : &.|.+XW.s l ) S 9 j.=X*Xr.5 ",
"y S.$X X-.q D ( q ;.XX].E.K m ) / 9 a.*X*Xu.# ",
"5 R i.1.8 * u g * 0 6.M.@.5 5 w = # L r.u.K @ ",
"6 L 1. .7 X o 1 - * * = # # L +.U 5 5 5 # + . ",
"r Z.*X`.{ = D D 2 - M _ k 0 A.&X!.E w / / i > ",
"K W.'.@X:.h ( G c 1 G *.n f ^.Y.%X=.p ) D x   ",
"7 >.Q.m.H # l k 2 @ w l q 9 9.^.A.d = N l * - ",
"* @ 0 5 # = a a # + 8 K 7 # # s 9 # # a a # @ ",
"X 3 B l = ' P.Q.O.L N.).s.7 w V k 7 $.W.W.' O ",
"> Z ) / 0 v.+X{.l.1.U.U./.K l D C a V.oX Xh.# ",
"> j G n 7 ,.`.@X7.! H.+Xb.a h D B = 6. X X%.@ ",
"o o 2 % @ 7 [ [ 7 # U O.s @ $ 3 1 X 9 { ] 9 ; ",
"1 > $ $ - @ O O @ $ @ @ @ $ < X & - $ . @ @ $ "
};
