/* XPM */
static char *xpm_[] = {
/* columns rows colors chars-per-pixel */
"23 32 194 2 ",
"   c #0F0500",
".  c #0E0C05",
"X  c #0D0D0C",
"o  c #140500",
"O  c #1D0700",
"+  c #150C01",
"@  c #1C0B00",
"#  c #120E0B",
"$  c #0E100C",
"%  c #141105",
"&  c #1C1200",
"*  c #12110C",
"=  c #19120A",
"-  c #1F1808",
";  c #0D0D11",
":  c #120D12",
">  c #0D1212",
",  c #141314",
"<  c #191514",
"1  c #151914",
"2  c #1A1A17",
"3  c #16161A",
"4  c #1C161A",
"5  c #141A1A",
"6  c #1B1B1D",
"7  c #220C00",
"8  c #280B00",
"9  c #231301",
"0  c #2A1400",
"q  c #261802",
"w  c #2C1A00",
"e  c #241B0C",
"r  c #2A1E0C",
"t  c #311500",
"y  c #331C00",
"u  c #3B1D00",
"i  c #231D14",
"p  c #281C16",
"a  c #342002",
"s  c #3B2503",
"d  c #3C2902",
"f  c #3B260A",
"g  c #332508",
"h  c #2B2514",
"j  c #24221C",
"k  c #2E261B",
"l  c #2F281E",
"z  c #252316",
"x  c #332A1B",
"c  c #342816",
"v  c #39311E",
"b  c #1E1E21",
"n  c #221E23",
"m  c #232223",
"M  c #292521",
"N  c #242827",
"B  c #2C2922",
"V  c #292728",
"C  c #2D2D2C",
"Z  c #232929",
"A  c #312A22",
"S  c #382E2A",
"D  c #31292A",
"F  c #2F342D",
"G  c #3A3026",
"H  c #33322B",
"J  c #393129",
"K  c #2B2D32",
"L  c #302F35",
"P  c #2F3334",
"I  c #353433",
"U  c #3A3633",
"Y  c #3C3A36",
"T  c #373639",
"R  c #3C3B3B",
"E  c #37373C",
"W  c #442500",
"Q  c #432B02",
"!  c #4B2D00",
"~  c #432F0C",
"^  c #512D00",
"/  c #4F3001",
"(  c #46330A",
")  c #4D340B",
"_  c #4E3A00",
"`  c #5B3C02",
"'  c #5A3E0A",
"]  c #553809",
"[  c #483411",
"{  c #543D14",
"}  c #5A3F12",
"|  c #603E00",
" . c #413C34",
".. c #433D3B",
"X. c #3B403A",
"o. c #5A4007",
"O. c #54400D",
"+. c #5B461A",
"@. c #644301",
"#. c #63450E",
"$. c #6B4D0F",
"%. c #734C03",
"&. c #724B0A",
"*. c #775003",
"=. c #795205",
"-. c #654510",
";. c #6C4F14",
":. c #624A19",
">. c #69531A",
",. c #745412",
"<. c #785716",
"1. c #5B4820",
"2. c #40413A",
"3. c #6D5525",
"4. c #675128",
"5. c #7B5C24",
"6. c #725C2D",
"7. c #7A5D31",
"8. c #7F6937",
"9. c #796230",
"0. c #3D3D41",
"q. c #403E41",
"w. c #414143",
"e. c #835C0C",
"r. c #875F19",
"t. c #825D16",
"y. c #866110",
"u. c #8C621B",
"i. c #86691D",
"p. c #86662C",
"a. c #916B2A",
"s. c #98752D",
"d. c #806535",
"f. c #8B6B32",
"g. c #86723F",
"h. c #967737",
"j. c #A0772E",
"k. c #967643",
"l. c #AE822B",
"z. c #AD8C3F",
"x. c #B98F3D",
"c. c #B5923E",
"v. c #9C814C",
"b. c #9A8351",
"n. c #A18142",
"m. c #AE8D44",
"M. c #A48648",
"N. c #B28D4C",
"B. c #B28A45",
"V. c #B4934E",
"C. c #BE9547",
"Z. c #A58850",
"A. c #BF9F56",
"S. c #B5965D",
"D. c #BA9755",
"F. c #B79660",
"G. c #C59F4E",
"H. c #C59F5B",
"J. c #CDA54D",
"K. c #C6A45E",
"L. c #D3AB53",
"P. c #D5AE5D",
"I. c #D6B25D",
"U. c #DAB15F",
"Y. c #E1B85C",
"T. c #EDBF5B",
"R. c #CDAD6D",
"E. c #CAA863",
"W. c #DBAF64",
"Q. c #D4B362",
"!. c #DBB362",
"~. c #D5B26A",
"^. c #DCB768",
"/. c #DFB771",
"(. c #DFBB74",
"). c #E4BB6C",
"_. c #E7BC65",
"`. c #E3BC73",
"'. c #EEC15C",
"]. c #F3C35C",
"[. c #F4C85F",
"{. c #F0C555",
"}. c #EDC261",
"|. c #EBC56D",
" X c #F3C665",
".X c #F1C264",
"XX c #F8C760",
"oX c #F2C866",
"OX c #F3C76A",
"+X c #F5C965",
"@X c #EDC975",
"#X c #EBC474",
"$X c #F3CA71",
"%X c #F2C97A",
/* pixels */
"* X X + % 9 y 8 @ @ t t 7 O t u O + : ; : : : ",
"X m C e 9 8.~.k.s O.H.D.] W N.E.6.@ p K m X : ",
"5 E 0.k d ~..X}.<.c.[.[.s.u.].].K.d S R I , X ",
"* H X.h d G.$XY.o.s. X.Xr.&.T. XV.w c Y H * * ",
"% + @ @ @ ( 8.] & w 3.3.w 0 :.9.Q 7 @ q + + # ",
"w 6.b.{ @ & q @ + + q e + % & r @ 7 :.b.4.@ + ",
"*.|. XG.s x ..U # k  .U m 3 U Y c Q W.OX).' o ",
"e._.XXL.d A R R , m R 0.b 1 R Y k [ !.}.).-.o ",
"u f.B.;.& 1 N 5 $ 5 m j X * 2 l < & 7.S.d.0 + ",
"8 ! &.u % . $ > > > , * X X * # X + o 0 @ + # ",
"@.L. Xx.w z R C : n E T 3 , L U b . x  .l = : ",
"e.#X].I.d A  .Y < n R q.n 4 ..U C * I U I 3 ; ",
"! S.(.h.& z S l # < B A < , D S i . j U V ; X ",
"@ w Q q + & s 0 O O a y @ O t f @ % . $ X : : ",
"% k x q 0 h.P.x.W $.J.J.` ^ G.P.p.7 i I m : : ",
"1 X.X.v Q ~.T..Xt.m.XX[.s.u.{.T.E.s G R R < : ",
"* F X.z a F.@XI.` p.$X|.5.-.).@XZ.w k R D = $ ",
"* X 1 . @ f >._ 7 y -.#.0 7 ` ;.s @ @ q + + * ",
": n b , + = e & + + e e + % 9 q @ @ ,.m.5.q & ",
"4 U 0.K , I 0.T < 6 0.0.b b R ..k ( Q.OX^.' + ",
"< R 0.K > C R R , b 0.0.b 3 0.R l ( U. X`.+.+ ",
"@ & - + . 1 b b ; , b 5 : : b b + 7 *.j.<.0 = ",
"& O.>.d + $ , > X > 3 , ; X , < = @ ^ =.^ 8 + ",
"@.~.@XV.w B R P > 5 R T 6 > I Y j f H.%X~.) + ",
"u.)._.W.s S w.E > Z R q.m 5 R X.x ) )._.#X:.+ ",
"W N.W.a.0 e x z * = l k # . c h & w h.^.M.w + ",
"+ q f 7 7 0 Q u @ 9 s s 7 @ y Q & @ 8 a 9 % % ",
"* B S p 0 k.`.C.! ,.^.P.-.! H.`.g.& r J j * X ",
"1 Y ..c ) (.{.T.e.c.{.[.j.u.].T.E.d v Y R , . ",
"5 C Y z t N.OXL.` i.}.}.<.` Y.|.n.w h X.Z > # ",
"X , < + + g 1.Q O q { { q @ ( +.g   = 1 ; ; ; ",
"; X X # * . o + = + o o # +     + * X $ > > > "
};
