/* XPM */
static char *out[] = {
/* columns rows colors chars-per-pixel */
"23 32 190 2 ",
"   c #0C0400",
".  c #0D0C04",
"X  c #0C0C0C",
"o  c #130600",
"O  c #1D0600",
"+  c #150B02",
"@  c #1B0C01",
"#  c #130E0B",
"$  c #180F09",
"%  c #0E120E",
"&  c #131103",
"*  c #1C1202",
"=  c #1F1B07",
"-  c #13110D",
";  c #1C130C",
":  c #0D0D11",
">  c #110E12",
",  c #0F1210",
"<  c #131213",
"1  c #191515",
"2  c #151916",
"3  c #1A1C17",
"4  c #161519",
"5  c #1A161A",
"6  c #1C1A1C",
"7  c #250700",
"8  c #280700",
"9  c #230D00",
"0  c #2C0C00",
"q  c #330D00",
"w  c #231200",
"e  c #2B1300",
"r  c #2C1A01",
"t  c #21140D",
"y  c #341400",
"u  c #3C1600",
"i  c #341B00",
"p  c #3D1C00",
"a  c #251E13",
"s  c #2A1C12",
"d  c #211D1D",
"f  c #291E19",
"g  c #1C221E",
"h  c #352201",
"j  c #3B2400",
"k  c #382807",
"l  c #3D2A0B",
"z  c #272014",
"x  c #2B2314",
"c  c #25221C",
"v  c #2A231A",
"b  c #30251E",
"n  c #342A1D",
"m  c #3C2919",
"M  c #1E1C21",
"N  c #211E22",
"B  c #1E2120",
"V  c #252224",
"C  c #292525",
"Z  c #272826",
"A  c #2A262B",
"S  c #2C2A2C",
"D  c #332A22",
"F  c #352E2B",
"G  c #382C29",
"H  c #3A3327",
"J  c #33312D",
"K  c #2E2F31",
"L  c #312E32",
"P  c #353334",
"I  c #393535",
"U  c #333934",
"Y  c #3C3936",
"T  c #363538",
"R  c #3A363A",
"E  c #37383A",
"W  c #3C3A3B",
"Q  c #431F00",
"!  c #432401",
"~  c #492700",
"^  c #432B02",
"/  c #4E2C00",
"(  c #562E00",
")  c #4D3507",
"_  c #543502",
"`  c #5B3500",
"'  c #573907",
"]  c #54390B",
"[  c #5E3E08",
"{  c #483615",
"}  c #4A3A10",
"|  c #523810",
" . c #623E00",
".. c #403737",
"X. c #403A37",
"o. c #423C3A",
"O. c #3A4037",
"+. c #5C410E",
"@. c #554118",
"#. c #5B441B",
"$. c #654300",
"%. c #6B4301",
"&. c #6C4804",
"*. c #64440B",
"=. c #6B470D",
"-. c #7A4F01",
";. c #71490A",
":. c #765306",
">. c #7A5203",
",. c #664614",
"<. c #775111",
"1. c #785410",
"2. c #78571B",
"3. c #5B4821",
"4. c #44403E",
"5. c #7B5B23",
"6. c #3F3E41",
"7. c #413D41",
"8. c #825808",
"9. c #825D14",
"0. c #84641F",
"q. c #8B641B",
"w. c #94671B",
"e. c #966B1C",
"r. c #80642E",
"t. c #936C28",
"y. c #896934",
"u. c #8E7430",
"i. c #9F7E37",
"p. c #987738",
"a. c #A57E27",
"s. c #A17935",
"d. c #8E6F40",
"f. c #9E7D43",
"g. c #AC832A",
"h. c #B1842F",
"j. c #A78334",
"k. c #9C8249",
"l. c #A98648",
"z. c #AF8B48",
"x. c #BB8E41",
"c. c #B38D4A",
"v. c #B79147",
"b. c #B99843",
"n. c #A88652",
"m. c #B99554",
"M. c #C39B4B",
"N. c #C2A14B",
"B. c #CCA54B",
"V. c #DBB049",
"C. c #C6A555",
"Z. c #CEAD56",
"A. c #CAA55C",
"S. c #D1AB5D",
"D. c #DBAE5A",
"F. c #DEB45A",
"G. c #E7B959",
"H. c #E2BA5E",
"J. c #F0BF57",
"K. c #C7A464",
"L. c #C8A861",
"P. c #CDA76B",
"I. c #D6AD62",
"U. c #D8B564",
"Y. c #DAB566",
"T. c #DEB56B",
"R. c #DDB96B",
"E. c #DBB374",
"W. c #DFB872",
"Q. c #E4BC62",
"!. c #E4BD6D",
"~. c #F0BF67",
"^. c #E3BD74",
"/. c #EBBF70",
"(. c #EBC055",
"). c #EDC35B",
"_. c #F2C35D",
"`. c #F8C65F",
"'. c #E5C267",
"]. c #EDC463",
"[. c #ECC26A",
"{. c #F1C464",
"}. c #F4CB64",
"|. c #F3C66B",
" X c #F2C96C",
".X c #E5C173",
"XX c #E8C372",
"oX c #F3C474",
"OX c #F3C973",
"+X c #F3C87B",
/* pixels */
"7 0 i w + : : X - X . X : < : X X @ 0 u 0 @ # ",
"~ n.K.5.* 6 S B X 1 Z Z X : V S 3 w p.P.d.r . ",
"w.[.).Z.j H W I < C R 6.N N W 4.z @.!.].R.+.o ",
">.H.].b.r x 4.J > N 6.R 5 5 T W a l Z.}.I.^ + ",
"y $.0.^ @ - 1 X > > 5 > : X < 3 & * _ 0._ w + ",
"i 1.p._ * - N 6 > > M M > : 6 6 $ w =.s.,.9 $ ",
"8.[.}.N.h G W T : N 6.R N 5 T 4.x ) F.`.Y.' o ",
"9.[.}.C.h D o.T 4 N 6.R N M o.Y x | U.`.!.' @ ",
"Q y.z.*.@ 1 C 5 # > A N > > 6 C ; w 5.v.r.w + ",
"q ` %.p O # # : : > > > < X # < # @ ^ &.^ @ * ",
"%.F.}.j.r b o.S > 6 I P 6 5 P ..s j B.}.M.^ + ",
"w.[.{.Z.k D X.U < C W R d 5 o.X.x @.'.(.!.*.o ",
"_ m.Y.u.* a I c - 1 L L > > A P t r z.Y.l.i $ ",
"8 ( %.e @ . . X - X X : : : : . + 9 u %.p O $ ",
"( x.D.q.9 f F A X 4 T A > < A P t i a.V.j.i @ ",
"e.oX~.I.l G W R > A R 6.N 5 W o.b @.Q._.XX' o ",
"=.E.+Xz.i N ..L , 6 E T 4 < R Y a l S.OXK.^ + ",
"0 ` -.! @ # 5 > X % < < : : > 1 $ O / >.~ 7 $ ",
"p q.g.$.O ; N d : , M M : > 6 d + w :.h.<.e @ ",
"9.XX XC.h n o.R : V 6.R M M R o.c { !.|.W.] + ",
"9./.[.A.h n o.R < V 6.T 6 4 Y X.v { U.}.R.) + ",
"Q 0.g. .9 ; c < : > g 6 : , 6 d # 9 :.g.:.e + ",
"q ` -.Q @ - 2 % X < < , X : > 1 ; @ / :./ 8 & ",
";.W.oXc.r Z R K < 6 O.U 2 < I W c l L.+XP.^ + ",
"w./.].S.k J O.W 1 A 7.W B 3 W W C @.'.].^.] + ",
"~ m.D.r.* = n s + ; n s & & x n w i i.U.f.i @ ",
"o w p 7 * w ~ i 7 7 ~ j @ 9 h j 9 O * h w $ % ",
"< C H r r k..Xv.^ 2.T.S.[ _ A.R.y.w x H c % % ",
"6 Y R m _ !.G.`.8.M.J.`.e.t.`._.K.j H O.U , % ",
"- P R s j m.|.B._ t.|.H.1.%.G.|.i.w v O.Z X % ",
"% % 4 # o k 3.^ O e #.} w 9 | #.r @ - 2 # X : ",
"% X : , # #     # +   o & $ o o & < X X > > X "
};
