/* XPM */
static char *out[] = {
/* columns rows colors chars-per-pixel */
"23 32 192 2 ",
"   c #0D0600",
".  c #0C0B04",
"X  c #07090C",
"o  c #0D0C0B",
"O  c #150600",
"+  c #140D01",
"@  c #1B0C00",
"#  c #110E0D",
"$  c #0E110C",
"%  c #161102",
"&  c #1C1202",
"*  c #1F1A02",
"=  c #13110D",
"-  c #0D0D12",
";  c #110E11",
":  c #0F1110",
">  c #131312",
",  c #181716",
"<  c #171916",
"1  c #1C1C14",
"2  c #141319",
"3  c #171819",
"4  c #1C1B1B",
"5  c #230700",
"6  c #230C00",
"7  c #2A0F00",
"8  c #340F00",
"9  c #231300",
"0  c #2C1300",
"q  c #251A02",
"w  c #2C1B00",
"e  c #241B09",
"r  c #2A1C08",
"t  c #331500",
"y  c #311A00",
"u  c #3A1D00",
"i  c #211D14",
"p  c #281A17",
"a  c #211E19",
"s  c #2E2103",
"d  c #312202",
"f  c #3D2400",
"g  c #392709",
"h  c #3E300B",
"j  c #21201E",
"k  c #2E2A1D",
"l  c #342818",
"z  c #1D1C20",
"x  c #1F2020",
"c  c #232422",
"v  c #2A2A24",
"b  c #262628",
"n  c #2B2B2C",
"m  c #3C2C27",
"M  c #2F312F",
"N  c #313024",
"B  c #383024",
"V  c #32322D",
"C  c #2D2F33",
"Z  c #322F32",
"A  c #2E3034",
"S  c #343434",
"D  c #363737",
"F  c #3A3633",
"G  c #3B3934",
"H  c #3B3C3B",
"J  c #411D00",
"K  c #422300",
"L  c #4C2500",
"P  c #432A00",
"I  c #4B2E00",
"U  c #522D00",
"Y  c #4E3202",
"T  c #433208",
"R  c #4F3909",
"E  c #593500",
"W  c #5D3B01",
"Q  c #52370A",
"!  c #4F3815",
"~  c #573F11",
"^  c #563F1C",
"/  c #623A01",
"(  c #683F00",
")  c #433D2F",
"_  c #433D35",
"`  c #423E3A",
"'  c #5F4302",
"]  c #594414",
"[  c #5C491B",
"{  c #644102",
"}  c #6A4201",
"|  c #6D4902",
" . c #694208",
".. c #694B0F",
"X. c #754700",
"o. c #754900",
"O. c #634714",
"+. c #674C17",
"@. c #604518",
"#. c #6E551C",
"$. c #705013",
"%. c #755619",
"&. c #5F4C21",
"*. c #404036",
"=. c #43413B",
"-. c #6C5627",
";. c #765D2C",
":. c #775F30",
">. c #785F31",
",. c #7E6028",
"<. c #3D3E40",
"1. c #414140",
"2. c #865809",
"3. c #835A1C",
"4. c #8D6517",
"5. c #8F6814",
"6. c #83631D",
"7. c #805E26",
"8. c #856725",
"9. c #886526",
"0. c #876822",
"q. c #8E6D2E",
"w. c #946C22",
"e. c #916A2E",
"r. c #9E7522",
"t. c #90702F",
"y. c #9E7A2F",
"u. c #896C3A",
"i. c #8E7035",
"p. c #9A7533",
"a. c #977831",
"s. c #9D7E3D",
"d. c #A07827",
"f. c #A87E2A",
"g. c #A47D34",
"h. c #A37D3A",
"j. c #AE852A",
"k. c #B88F2B",
"l. c #A48039",
"z. c #BD8831",
"x. c #BD903E",
"c. c #A58643",
"v. c #AD8A44",
"b. c #B38B45",
"n. c #B28C48",
"m. c #B29047",
"M. c #B89647",
"N. c #B4924D",
"B. c #A68C51",
"V. c #AE8C54",
"C. c #B49554",
"Z. c #BB9854",
"A. c #C79F4A",
"S. c #C49E55",
"D. c #CCA245",
"F. c #D5A84E",
"G. c #D8B24E",
"H. c #CBA457",
"J. c #DDAD53",
"K. c #D7AF5F",
"L. c #D6B357",
"P. c #E6B95A",
"I. c #C4A464",
"U. c #CCAA65",
"Y. c #D0AA65",
"T. c #D1AB68",
"R. c #D7B264",
"E. c #D3B26B",
"W. c #DFB56C",
"Q. c #E3B966",
"!. c #ECBF68",
"~. c #F1BE62",
"^. c #E9BF75",
"/. c #EFC056",
"(. c #EDC35E",
"). c #F0C55F",
"_. c #EFC364",
"`. c #E6C06C",
"'. c #EDC46C",
"]. c #EEC86D",
"[. c #F1C664",
"{. c #F4C865",
"}. c #F9CA61",
"|. c #F2C56B",
" X c #F3C96C",
".X c #F8C869",
"XX c #EDC671",
"oX c #EFCB77",
"OX c #EBC37A",
"+X c #F3C672",
"@X c #F3CB74",
"#X c #F4C579",
/* pixels */
"@ 6 u t @ # ; - - ; o - o ; o o X % 6 t 7 6 # ",
"9 >.H.v.g # b n 3 o z n 4 X 2 n j % [ I.C.Q @ ",
"K U._.].:.r H H c 2 H <.S - A <.G q n.|.].s.@ ",
"u Z..XQ.@.9 G H 4 > M H C - n <.V 9 a.].].0.6 ",
"6 K 3. .9 + > > # # # 2 o = : < = + t %.$.w @ ",
"9 Q p.3.q & 4 4 ; # , a : X > 4 = & P t.q.K O ",
"J S.}.[.+.9 =.H c ; F 1.C ; S ` G 9 l..X|.w.@ ",
"K H.}.[.;.r G ` j > H H Z ; V H G w v.{.|.y.9 ",
"6 O.n.e.w + j c > $ 4 x 3 X , v 4 O Y c.s.I O ",
"6 u } U 9 O = $ o o $ 2 ; o o = . + t ( / t @ ",
"u l..XP.~ 9 F D 3 $ M H c o v G V * 6.|.!.3.6 ",
"J T.P.'.>.e G H b < G H V > V G G w C.|.|.h.6 ",
"0 u.Q.Z.T # V C 3 : v S 4 o j S k % -.U.T.O.@ ",
"5 t ( L @ @ . X o - X $ o ; . = . . 7 W E 5 @ ",
"t 9.J.x.K & v n 3 = v M 4 X j V c + | F.D.{ 6 ",
"J T.~.+X>.e _ H c < D H S - n H G s m.[.[.g.6 ",
"t V.#XW.^ e G H 4 $ V H c $ n H N & i.OX^.7.@ ",
"6 K o.W 6   = , $ + & * % . o > = + t o.} t O ",
"6 { j.5.w @ i i % q 8.N.] 9 e a 4 & Y d.d.K 6 ",
"f I.].!.-.e =._ s [ Q. XU.f l =.F 9 c. X@Xt.@ ",
"u I.+XXX-.e ` ` e &.`.].I.f l ` F 9 c.].XXp.+ ",
"6 W f.4.y + q 9 & q ;.c.O.9 9 r & @ U r.r.K @ ",
"6 J 2./ 9 0 ....w + 6 9 @ @ P #.R 7 J X.| t + ",
"t V.XXP./ 9.'.XXu.9 B _ k d C.oXE.W w.#X^.>.@ ",
"K T.(.[.4.g..X[.B.s ) _ k h R.(.^.2.z.~.XXs.@ ",
"0 ,.G.k.L { H.H.[ @ k N 1 & q.K.b.L X.F.A.' @ ",
"@ 0 } U 6 @ y w +     + o + 6 u t 5 8 / E 6 @ ",
"q u.Q.S.T * N n 1 o b S j o p m p 6 %.R.Y.+.+ ",
"I E./.).;.q *.H b , F H C 2 S G G d M.[.|.l.6 ",
"w c. XL.] q M D 4 ; n H b X v G N & 0.`.XX%.@ ",
"& s [ h % . > 3 - ; ; ; - ; o = $ + q ^ ! 6 + ",
"% +   + . = ; - ; ; # o ; ; o = $ . + O O @ , "
};
