/* XPM */
static char *out[] = {
/* columns rows colors chars-per-pixel */
"23 32 182 2 ",
"   c #0D0400",
".  c #0F0B04",
"X  c #070B09",
"o  c #0D0D0C",
"O  c #140700",
"+  c #1B0700",
"@  c #140C02",
"#  c #1B0C00",
"$  c #130E0C",
"%  c #0E100C",
"&  c #141104",
"*  c #1C1202",
"=  c #13110C",
"-  c #1B150D",
";  c #1F180E",
":  c #0E0E11",
">  c #120D12",
",  c #0E1013",
"<  c #0E1118",
"1  c #141414",
"2  c #1B1617",
"3  c #121816",
"4  c #1C1B16",
"5  c #151519",
"6  c #151818",
"7  c #1C1B1C",
"8  c #220700",
"9  c #220D00",
"0  c #2B0E00",
"q  c #231300",
"w  c #2C1500",
"e  c #251B01",
"r  c #2D1C00",
"t  c #22160D",
"y  c #241B0D",
"u  c #2A1D0B",
"i  c #301100",
"p  c #3C1600",
"a  c #331B00",
"s  c #3D1B00",
"d  c #231C11",
"f  c #281E13",
"g  c #211F1B",
"h  c #281F1B",
"j  c #1F221A",
"k  c #2D240C",
"l  c #362101",
"z  c #3A2401",
"x  c #3C2A02",
"c  c #3B2B0B",
"v  c #252215",
"b  c #2E2816",
"n  c #22211E",
"m  c #2C271D",
"M  c #2E291C",
"N  c #332B1E",
"B  c #3A2E1F",
"V  c #231E23",
"C  c #242424",
"Z  c #292A27",
"A  c #232429",
"S  c #28262B",
"D  c #2D2C2D",
"F  c #342C22",
"G  c #342F2E",
"H  c #3B3527",
"J  c #34322C",
"K  c #3A3429",
"L  c #2E2D32",
"P  c #352F32",
"I  c #2E3134",
"U  c #343432",
"Y  c #393636",
"T  c #353936",
"R  c #3D3C36",
"E  c #36363A",
"W  c #3A373A",
"Q  c #3C3B3B",
"!  c #412300",
"~  c #432B02",
"^  c #4A2B00",
"/  c #412F08",
"(  c #512F00",
")  c #423200",
"_  c #4C3205",
"`  c #45320B",
"'  c #4A350E",
"]  c #4B390F",
"[  c #593600",
"{  c #573807",
"}  c #4D3210",
"|  c #573A10",
" . c #5A3B12",
".. c #6A3E00",
"X. c #413C34",
"o. c #423D3C",
"O. c #5B4003",
"+. c #5D430C",
"@. c #5B4311",
"#. c #5A451B",
"$. c #6A4000",
"%. c #6E4E03",
"&. c #63470D",
"*. c #704500",
"=. c #714B02",
"-. c #754D08",
";. c #6A4D13",
":. c #674A18",
">. c #6C511C",
",. c #73551C",
"<. c #745F1D",
"1. c #5C4823",
"2. c #454135",
"3. c #42423D",
"4. c #654F21",
"5. c #635024",
"6. c #70582B",
"7. c #795C29",
"8. c #725731",
"9. c #765E30",
"0. c #7E6231",
"q. c #3F3D42",
"w. c #3E4141",
"e. c #414042",
"r. c #89641D",
"t. c #8F681A",
"y. c #815F30",
"u. c #836322",
"i. c #896A2C",
"p. c #99752A",
"a. c #856A37",
"s. c #8B713C",
"d. c #9D7635",
"f. c #A17A39",
"g. c #967742",
"h. c #977C49",
"j. c #A7843C",
"k. c #B18B3F",
"l. c #AA8B43",
"z. c #A5844B",
"x. c #B5964F",
"c. c #B89748",
"v. c #AA8850",
"b. c #AE9151",
"n. c #B49451",
"m. c #BA9A5D",
"M. c #C39745",
"N. c #C19E5B",
"B. c #CBA04A",
"V. c #D7AC4B",
"C. c #CCA653",
"Z. c #C5A15B",
"A. c #CFA958",
"S. c #DAAD51",
"D. c #D4AC59",
"F. c #DBB65F",
"G. c #C8A365",
"H. c #CAA863",
"J. c #CBAB69",
"K. c #D4B060",
"L. c #DCB361",
"P. c #D3B669",
"I. c #DCB572",
"U. c #DAB870",
"Y. c #E1B767",
"T. c #E2BB65",
"R. c #E5B769",
"E. c #E3BB6A",
"W. c #F1BF61",
"Q. c #EEC15C",
"!. c #F7C65F",
"~. c #EDC463",
"^. c #E6C36E",
"/. c #ECC26B",
"(. c #F4C564",
"). c #F1C66F",
"_. c #F1C86A",
"`. c #F8C968",
"'. c #EDC574",
"]. c #EDC972",
"[. c #EFC57A",
"{. c #F2CB74",
/* pixels */
"8 0 a 0 @ $ > > = % X o o $ , o % @ 0 p 0 + - ",
"a g.J.s.q - P V o o Z C 1 o j I 4 * y.G.z.s @ ",
"=.E.(.E.] b Q Q 7 7 Q o.C 1 T R F / L.W.'.,.  ",
"[ D.`.C.x v X.U 1 7 W W V , U R N s M.(.T.+.# ",
"0 { r.( # - $ 1 % % 3 1 : 1 = 6 = # ^ r.O.# * ",
"i :.f.;.# = g 3 % X 3 7 $ , 1 4 - @ ..p.,.e @ ",
"..R.(.D.x b R Y 6 7 Q Q 4 = U 3.m z B.!./.;.O ",
"..Y.(.F.' b X.R 6 7 e.Q m = J 2.F ~ A.W./.,.O ",
"i a.m.7.* * v ; . , A C = @ e u * 9 4.m.g.r @ ",
"# 9 9 + @ r #.' & & : 1 @ # ` #.z # + 9 # @ = ",
"& M X.k w z._.F.@.q W Y * | A.).n.a k R F 1 X ",
"3 T R H z H.Q.(.0.u o.o.k 4./.W.I.~ H R T 6 : ",
", C U d q a.U.N.} # F F * c n.I.h.q d U C : , ",
", X X @ @ * x a # 8 r l * @ r ~ 9 #   o X o , ",
", n J n . d N k # +.C.D.;.# b N v = 4 U A : : ",
"3 Y R Y = D 3.R e h.(.(.b.l X.R I % U w.q.5 > ",
"3 D R D = C R K # 9.].].s.9 K Q D X Z Q I 5 : ",
"o o 1 = @ & e * # q &.&.w + # e @ & o , : 1 : ",
": 7 C t # @.j.p.a # e e * r u.l.>.# - C 2 o > ",
"1 G o.N l N.(./.6.y X.3.d 1.^._.H.~ N e.W 5 $ ",
"$ G X.B l m._./.8.t o.R v #.T.~.J.z m q.E 5 o ",
"@ * u 0 8  .l.i.r @ g j & q u.l.:.* * u t @ % ",
"9 ^ ,.^ # + q #   o o = . @ # 9 @ # x ,.| 9 @ ",
"{ J.{.N.z f X.Y 5 7 T R g o U o.m r x.{.I. .# ",
"%.^.!.L.' m o.q.5 A q.q.A 2 W q.F / K.~.[.7.@ ",
"z f.V.p.r t P S X 5 L L 1 > S U f q t.S.k.~ # ",
"8 s *.p + @ $   1 X o o > : X > $ + s $.^ 8 & ",
"! v.E.j.r d J Z % 1 D L 2 : S P h 0 d.L.n.)   ",
"-./.Q.L.' B R R 5 C Q W S 6 U 3.F c L.Q.].<.O ",
"( Z._.c.a d R D : 5 Y W 6 , L U v r l.{.P._ @ ",
"@ c 5.x # $ 2 > : : > 5 > 1 , 3 % @ l 1.` @ $ ",
"= O   # $ > > > < < > > > : % % % 1     O # $ "
};
