/* XPM */
static char *out[] = {
/* columns rows colors chars-per-pixel */
"23 32 169 2 ",
"   c #0E0B04",
".  c #0D0D0C",
"X  c #140300",
"o  c #140C02",
"O  c #1C0C00",
"+  c #110E0D",
"@  c #0D100E",
"#  c #151104",
"$  c #1D1302",
"%  c #12110D",
"&  c #19130A",
"*  c #0D0D11",
"=  c #110E13",
"-  c #0E1112",
";  c #131314",
":  c #1A1513",
">  c #161815",
",  c #1C1914",
"<  c #151419",
"1  c #191419",
"2  c #171819",
"3  c #1C1C1C",
"4  c #220700",
"5  c #240E00",
"6  c #290800",
"7  c #231300",
"8  c #291400",
"9  c #261900",
"0  c #2C1C01",
"q  c #26190D",
"w  c #231E0C",
"e  c #311700",
"r  c #321B00",
"t  c #3A1800",
"y  c #211A11",
"u  c #281E15",
"i  c #211F1F",
"p  c #1D201D",
"a  c #2F2100",
"s  c #26210D",
"d  c #2F2208",
"f  c #322300",
"g  c #3A2200",
"h  c #3C2A02",
"j  c #392A0C",
"k  c #2A2215",
"l  c #25221B",
"z  c #2B231C",
"x  c #2D2B1B",
"c  c #312112",
"v  c #362618",
"b  c #332B1D",
"n  c #3E341C",
"m  c #1D1D21",
"M  c #221D23",
"N  c #1E2023",
"B  c #232324",
"V  c #2A2623",
"C  c #2F2A26",
"Z  c #252528",
"A  c #2B272A",
"S  c #2C2C2C",
"D  c #322B23",
"F  c #322D2B",
"G  c #392F29",
"H  c #2F312E",
"J  c #3B342C",
"K  c #3C382D",
"L  c #2D2C30",
"P  c #332E32",
"I  c #333334",
"U  c #393536",
"Y  c #373833",
"T  c #3D3933",
"R  c #363538",
"E  c #393539",
"W  c #37383B",
"Q  c #3B3B3B",
"!  c #452400",
"~  c #4A2500",
"^  c #442B00",
"/  c #4B2B00",
"(  c #4A2E08",
")  c #4A3204",
"_  c #533301",
"`  c #593400",
"'  c #553806",
"]  c #5B3B04",
"[  c #473913",
"{  c #4B3910",
"}  c #503612",
"|  c #6B3F00",
" . c #443D35",
".. c #423C3C",
"X. c #584216",
"o. c #694100",
"O. c #65450A",
"+. c #694B0F",
"@. c #774F00",
"#. c #7D5506",
"$. c #7D540A",
"%. c #624614",
"&. c #634C18",
"*. c #704E15",
"=. c #7B5012",
"-. c #685827",
";. c #705520",
":. c #785321",
">. c #70572E",
",. c #7B5D2A",
"<. c #7E6629",
"1. c #3D3B41",
"2. c #413D41",
"3. c #3F4240",
"4. c #825917",
"5. c #8B6117",
"6. c #946919",
"7. c #9B721F",
"8. c #835F2B",
"9. c #84692D",
"0. c #936F3C",
"q. c #8E7230",
"w. c #94763A",
"e. c #A47D39",
"r. c #8E7542",
"t. c #9D7D44",
"y. c #BD933C",
"u. c #C69A3E",
"i. c #9E8042",
"p. c #9C844B",
"a. c #AB8642",
"s. c #AE8846",
"d. c #B29344",
"f. c #A58B51",
"g. c #AF9050",
"h. c #AE945B",
"j. c #B3925A",
"k. c #C79D4B",
"l. c #C6A149",
"z. c #CCA954",
"x. c #D2A757",
"c. c #D4AF5F",
"v. c #DBAE5C",
"b. c #DCB756",
"n. c #DBB45D",
"m. c #ECBE5D",
"M. c #CBAC65",
"N. c #D4AD60",
"B. c #CEB069",
"V. c #DCB666",
"C. c #D5B46A",
"Z. c #DBB471",
"A. c #E3BA64",
"S. c #E6BD68",
"D. c #EBBF6C",
"F. c #EDC25C",
"G. c #F4C35D",
"H. c #F5CB5C",
"J. c #EDC367",
"K. c #E6C06A",
"L. c #EAC36A",
"P. c #F2C665",
"I. c #F5C966",
"U. c #FCC865",
"Y. c #F3C46E",
"T. c #E9C472",
"R. c #EFC67A",
"E. c #F1C673",
"W. c #F3C978",
/* pixels */
"O 8 f 5 o @ * * . - . * - . .   . O 7 g 7 O o ",
"! f.M.<.$ , I N @ > L L - - V F : 9 w.B.p.0 o ",
"4.Y.P.v.h D Q 1.2 Z Q 1.3 2 W Q x { V.F.T.&.X ",
"o.v.U.u.a x Q L @ N R Q 3 - R Q u h l.I.N._ o ",
"8 X.4.~ #   ; ; . = > - + + = 1 o O / 4.` 4 o ",
"r =.e.O.$ % B 1 * - 3 3 . = M M & 5 *.e.:.6 # ",
"#.S.I.z.r D ..U - Z Q W m = U ..c / b.H.A.] X ",
"$.D.P.z.f v ..U < N Q Q N 1 U  .v ( b.H.K.] o ",
"t 8.a.O.O & B 3 - - N p - - 3 V & 5 *.s.,.7 o ",
"6 ` $.! O o % - @ - < - - - * ; + O ~ =./ O # ",
"| v.G.y.e z ..L < N R R 3 - I T u t k.U.x._ o ",
"5.D.G.n.h J ..Q < N 3.Q N 2  . .b } A.G.S.+.o ",
"^ j.C.q.7 y D V - . F S ; + D D q 8 t.C.f.a   ",
"O 0 g O $ 7 j 8 o + : D l O 7 h 7 O 8 h 9 o % ",
"o k b r 8 w.S.d.h $ Y T n { k.A.9.7 d b l % * ",
"1 Q Q b ( Z.F.L.-.s  .K j <.J.m.M.h b T E < * ",
"> S Q l r j.W.N.[ w J J 7 X.V.R.f.9 b T A * * ",
". ; - # O g %.( O o 7 O X 7 ' %.a o o ; * . * ",
". 1 B %   & q 7 O ) a.e./ O 9 w $ X y A m * < ",
"> U 3.S % I .. .9 f.Y.E.0.8  .Q F + P 2.R < * ",
"1 Y Q S . S Q G 9 p.W.E.0.8 J Q A = I Q I > @ ",
"+ 1 i ; * ; B , o ^ 7.6.g O , m = * < N - . @ ",
"+ = & = = * 2 # O e 4.@.e $ $ 1 * * * > % @ @ ",
"1 P ..A = L W J $ r.L.Y.<.$ K Q Z * L 1.H @ . ",
"2 U E P 1 R Q T 0 h.P.P.t.8  ...S - R Q R > * ",
"@ B I 3 * 2 S l o %.k.u.] 5 z P 3 % 3 S N * . ",
"@ . .   - * .   O 7 ] ` 5 O + = % %   * . * * ",
"@ S Y p * N W C O >.V.c.&.o V E 3   Z I A * * ",
"> Q Q H - I 1.U r g.F.G.i.0  ...S 1 P 1.W < * ",
"% S Q B . N 1.F 7 9.J.A.;.O D E B = Z Q Z * < ",
". ; ; . . @ ; + o 7 } } $ o ; ; * = = ; . @ < ",
"* ; = . % . * % + + X X o + * * = = + o @ . * "
};
