/* XPM */
static char *out[] = {
/* columns rows colors chars-per-pixel */
"23 32 174 2 ",
"   c #0D0200",
".  c #0D0B03",
"X  c #0D0D0C",
"o  c #130400",
"O  c #190500",
"+  c #140C01",
"@  c #1B0B00",
"#  c #12070B",
"$  c #110D0D",
"%  c #0E110D",
"&  c #141104",
"*  c #1C1202",
"=  c #14110D",
"-  c #1C150B",
";  c #0E0D11",
":  c #110E12",
">  c #180F12",
",  c #0F1112",
"<  c #131212",
"1  c #191516",
"2  c #171813",
"3  c #1A1915",
"4  c #151719",
"5  c #19151B",
"6  c #1B1B1C",
"7  c #230C00",
"8  c #2A0D00",
"9  c #231401",
"0  c #2C1500",
"q  c #261904",
"w  c #2C1C01",
"e  c #231C0C",
"r  c #281C0B",
"t  c #331000",
"y  c #341B00",
"u  c #3A1C00",
"i  c #291F13",
"p  c #211B1C",
"a  c #1F221F",
"s  c #2F2107",
"d  c #2F210C",
"f  c #342300",
"g  c #3A2400",
"h  c #3E2C05",
"j  c #2F2513",
"k  c #252018",
"l  c #2D271C",
"z  c #312613",
"x  c #322916",
"c  c #322A1C",
"v  c #1E1C20",
"b  c #211F22",
"n  c #1F2221",
"m  c #242424",
"M  c #2A2625",
"N  c #282C27",
"B  c #2B2B2A",
"V  c #332D23",
"C  c #2E312F",
"Z  c #383125",
"A  c #33332E",
"S  c #3B332A",
"D  c #2F2F32",
"F  c #302D30",
"G  c #343433",
"H  c #3A3533",
"J  c #3C3A36",
"K  c #3B363C",
"L  c #373839",
"P  c #3C3C3B",
"I  c #441D00",
"U  c #442400",
"Y  c #492600",
"T  c #432A01",
"R  c #4C2D01",
"E  c #532D00",
"W  c #443307",
"Q  c #4B3202",
"!  c #46320F",
"~  c #4E3A0B",
"^  c #5C3400",
"/  c #553902",
"(  c #593902",
")  c #523A09",
"_  c #5C3A0B",
"`  c #473412",
"'  c #553D18",
"]  c #623C03",
"[  c #433C34",
"{  c #413D3B",
"}  c #544116",
"|  c #5A4215",
" . c #5E4817",
".. c #5B451B",
"X. c #59481E",
"o. c #6C4503",
"O. c #60480B",
"+. c #734A0A",
"@. c #7B5000",
"#. c #7C5209",
"$. c #644A15",
"%. c #755414",
"&. c #7C5311",
"*. c #44413C",
"=. c #674E23",
"-. c #6C5425",
";. c #765A24",
":. c #725A2A",
">. c #786027",
",. c #3F3D40",
"<. c #413F41",
"1. c #3C4343",
"2. c #815E11",
"3. c #805C1E",
"4. c #886928",
"5. c #8E6D29",
"6. c #946B24",
"7. c #986B26",
"8. c #95722F",
"9. c #816632",
"0. c #866C39",
"q. c #8A713C",
"w. c #9D7C37",
"e. c #9E7839",
"r. c #A17B23",
"t. c #A37932",
"y. c #957744",
"u. c #987E4B",
"i. c #B1821F",
"p. c #C49A3E",
"a. c #D3A03D",
"s. c #AA8C44",
"d. c #A68449",
"f. c #B48D48",
"g. c #BB9044",
"h. c #BC994A",
"j. c #AD8C56",
"k. c #AC9358",
"l. c #B89751",
"z. c #C49A49",
"x. c #C49D51",
"c. c #C5A44F",
"v. c #D2A644",
"b. c #D4AC4B",
"n. c #C6A256",
"m. c #C8A250",
"M. c #C4A35B",
"N. c #D6AD51",
"B. c #ECBB56",
"V. c #E1B658",
"C. c #ECBE5B",
"Z. c #F2BF58",
"A. c #C2A463",
"S. c #CAA964",
"D. c #D5AE61",
"F. c #D3AD6B",
"G. c #D9B465",
"H. c #DAB765",
"J. c #DBB873",
"K. c #EABE65",
"L. c #E3BC6C",
"P. c #EABC6F",
"I. c #EFC356",
"U. c #EEC25C",
"Y. c #F5C357",
"T. c #F3C45B",
"R. c #ECC465",
"E. c #EDC56B",
"W. c #F4C562",
"Q. c #F2C66B",
"!. c #F4CB6C",
"~. c #FACB69",
"^. c #ECC575",
"/. c #F3C970",
/* pixels */
"@ 7 g 8 7 7 u t 9 O y g 7 7 t I 8 7 7 u 9 @ & ",
"y q.S.d.u =.S.l.Q Q l.S.-.t e.F.y.u %.S.k.W + ",
"( H.T.U.2.z.Y.Y.7.7.W.Z.x.#.C.T.L.@.v.T.Q.9.@ ",
"R M.!.b.^ t.W.W.&.+.K.!.t.^ N.!.n.^ i.W.K.%.@ ",
"@ ` :.) 7 t -.$.9 9  .:.g 7 ) :.` 7 U &.] 8 O ",
"+ & q * O @ e * . & * q O + @ q * @ ( w.4.y O ",
", A *.S = M J [ 5 1 H { M . A [ V s h.~./.3.O ",
"; D P G < m 1.L v 5 ,.<.m < G *.Z s z.Q.^.3.O ",
"> 5 b 6 ; < m 6 $ $ p M 2 . - e * @ | j.y.w + ",
"# > > $ ; , < ; # X > = . + h -.W O @ * * + & ",
"= B [ B , v ,.G v > G H e W m.!.M.T s *.A < X ",
"= A J L , B K K b b [ [ z | E.B.E.) j P 1.a X ",
", n C n X 4 G F ; ; l c & w d.J.u.w - G N % . ",
"X X ; . = X X X X + f f * @ w g @ + . X % X % ",
"; p G m X 5 A V @ ~ c.H.9.7 d Z k . 3 A B < X ",
"< G P J < B P [ 9 q.R.I.M.g S P L = A P J v X ",
"$ M P B X 6 P S * =.L.^.y.0 V J B $ p J G , ; ",
"< $ < . . . 9 @ o * / $.y o . = $ $ X < , X X ",
"X 4 N 3 + } s.w.g * 9 r + = 4 N 4 X < n v ; < ",
", G ,.Z w k.E.E.0.9 [ ,.N , L P L , B P P 4 X ",
"% A *.Z 0 j.Q./.9.9 [ <.m < G P C , B L K 4 X ",
". & q 9 7 T w.5.g + 1 v ; ; < v 4 X < b 4 $ X ",
"O ~ ;./ 7 @ * 9 + & < 5 > ; : 4 , , < < < $ X ",
"T A.^.G.` i [ J 3 4 G { m ; F K N % m H S 1 : ",
"( J.W.E.X.c P P a 6 *.P m < H [ G % B P J 6 X ",
"u 5.v.r.w * z i + - j c & & e z e & - x i + X ",
"7 u o.I 7 9 Q T 7 7 T T * @ y R w O 7 Q g + + ",
"g d.P.g.U >.J.G._ _ D.L.9.T f.^.j.U 5.^.A.) + ",
"^ P.Y.B.&.h.I.Y.w.6.Y.Y.n.#.B.B.K.@.a.Z.R.4.+ ",
"Y f.!.z.Q 5.R.U.o.+.V.Q.8.R p.!.h.E r.Q.H.O.+ ",
"O f ..h @ 9 } ! 8 7 W } 9 @ h ..f 7 t ' ! @ - ",
"= +   o * &     + + o o . & +   + + + o o $ X "
};
