/* XPM */
static char *xpm_[] = {
/* columns rows colors chars-per-pixel */
"64 64 117 2 ",
"   c #010101",
".  c #080607",
"X  c #070807",
"o  c #0D0E0D",
"O  c gray8",
"+  c #1C1C1C",
"@  c #20201F",
"#  c #201F20",
"$  c #242324",
"%  c #282728",
"&  c #2B2B2B",
"*  c #2F302F",
"=  c #2F3030",
"-  c #343434",
";  c #3A3A3A",
":  c #40403F",
">  c #414242",
",  c #474748",
"<  c #4D4D4D",
"1  c #4F514F",
"2  c #545454",
"3  c #585757",
"4  c #585857",
"5  c #585758",
"6  c #5C5C5C",
"7  c #605F5F",
"8  c #5F605F",
"9  c #5F5F60",
"0  c #605F60",
"q  c #646464",
"w  c #686767",
"e  c #686967",
"r  c #686768",
"t  c #676868",
"y  c #6C6C6C",
"u  c #6F706F",
"i  c #71706F",
"p  c #737373",
"a  c #787777",
"s  c #777878",
"d  c #7C7C7C",
"f  c #848484",
"g  c #878887",
"h  c #878688",
"j  c #878888",
"k  c #8C8C8C",
"l  c #918F8F",
"z  c #90918F",
"x  c #908F90",
"c  c #8F9090",
"v  c #949494",
"b  c #989796",
"n  c #989897",
"m  c #979798",
"M  c #989798",
"N  c #979898",
"B  c #9C9D9C",
"V  c #9E9E9E",
"C  c #A2A2A2",
"Z  c #ACACAC",
"A  c #B3B3B3",
"S  c #B9B9B7",
"D  c #B8B7B8",
"F  c #BCBCBC",
"G  c #C0BFBF",
"H  c #BFC0BF",
"J  c #C0C0BF",
"K  c #C1BFC0",
"L  c #BFC0C0",
"P  c #C4C4C4",
"I  c #C8C7C7",
"U  c #C9C8C7",
"Y  c #C7C7C8",
"T  c #C7C8C8",
"R  c #CBCBCB",
"E  c #D1CFCF",
"W  c #CFD0CF",
"Q  c #CFD0D1",
"!  c #D3D3D3",
"~  c #D8D7D7",
"^  c #D7D8D8",
"/  c #DBDBDB",
"(  c #E3E2E3",
")  c #E3E4E3",
"_  c #E3E2E4",
"`  c #E8E6E7",
"'  c #E7E8E7",
"]  c #E8E8E7",
"[  c #E7E9E8",
"{  c #E9EAEA",
"}  c gray92",
"|  c #EDEBEC",
" . c #ECECEC",
".. c #EFEEEE",
"X. c #F0EFEF",
"o. c #EFF0EF",
"O. c #F0F1EF",
"+. c #EFEFF0",
"@. c #F0EFF0",
"#. c #EFF0F0",
"$. c gray95",
"%. c #F3F3F3",
"&. c #F4F3F2",
"*. c #F5F3F5",
"=. c #F3F4F4",
"-. c #F5F6F5",
";. c #F8F7F7",
":. c #F8F9F7",
">. c #F7F7F8",
",. c #F8F8F8",
"<. c #FAFAF9",
"1. c #FCFBFB",
"2. c #FBFCFB",
"3. c #FBFCFC",
"4. c #FDFCFC",
"5. c #FDFDFC",
"6. c white",
/* pixels */
"6.6.6.6.6.6.6.6.6.6.6.6.6.6.6.6.6.6.6.6.6.6.6.6.1.6.6.6.6.6.6.6.6.6.6.6.6.6.6.6.6.6.6.6.6.6.6.6.6.3.6.6.6.6.6.6.6.6.6.6.6.6.6.6.",
"6.6.6.6.6.6.6.6.6.6.6.6.6.6.2.6.6.6.6.6.6.6.6.6.6.6.6.6.6.4.6.6.6.6.6.6.6.6.6.6.6.6.6.6.6.6.6.6.6.6.6.6.6.6.6.6.6.6.6.6.6.6.6.6.",
"6.6.6.6.6.6.6.6.1.6.6.6.6.6.6.6.6.6.2.6.6.6.6.6.6.6.6.6.6.6.6.6.6.6.6.6.6.6.6.6.3.6.6.6.6.6.6.6.6.6.6.6.6.6.6.6.6.6.6.6.6.6.6.6.",
"6.6.6.6.6.6.6.6.6.6.6.6.6.6.6.6.6.6.6.6.6.6.6.6.6.6.6.6.6.6.6.6.6.6.6.6.6.6.6.6.6.6.6.6.6.6.6.6.6.6.6.6.6.6.6.6.4.6.6.6.6.4.6.6.",
"6.6.6.6.6.6.6.6.6.6.6.3.6.6.6.6.6.6.6.6.6.6.6.6.6.4.6.6.6.6.6.6.6.2.6.6.6.6.6.6.6.6.6.6.6.6.6.6.6.6.6.6.6.6.6.6.6.6.1.6.6.6.6.6.",
"6.6.6.6.6.6.6.6.6.6.6.6.6.6.6.6.6.6.6.6.6.6.2.6.6.6.6.6.6.6.6.6.6.6.6.6.6.6.6.6.6.6.6.6.6.6.6.6.6.6.3.6.6.6.6.6.6.6.6.6.6.6.6.6.",
"6.6.6.6.6.6.6.1.6.6.6.6.6.6.6.6.6.6.6.6.6.6.6.6.6.6.6.6.6.6.6.6.6.6.6.6.6.6.6.1.6.6.6.6.3.6.6.6.6.6.6.6.6.6.6.6.6.6.6.6.6.6.6.6.",
"6.6.6.6.6.6.6.6.6.6.6.6.6.6.6.6.6.6.6.6.6.6.6.6.6.6.6.6.4.6.6.6.6.6.6.6.6.6.6.6.6.6.6.6.6.6.6.6.6.6.6.6.6.6.6.6.6.6.6.6.6.6.6.6.",
"6.6.6.6.6.6.6.6.6.6.6.6.6.6.6.6.6.6.6.6.6.6.6.6.2.6.6.2.1.2.6.6.-.6.%.6.-.6.2.6.6.6.6.6.6.6.6.6.6.6.6.6.6.6.6.6.6.6.6.3.6.6.6.6.",
"6.6.6.6.6.6.6.1.6.6.6.6.6.6.3.6.6.6.6.6.6.6.6.6.6.1.6.6.;.&.2.2.2.2.-.-.6.6.1.6.6.6.6.6.6.6.6.6.6.6.6.6.6.4.6.6.6.6.6.6.6.6.6.6.",
"6.6.6.6.6.6.6.6.6.6.6.6.6.6.6.6.6.6.6.6.6.6.6.6.6.$.$.2.2.6.6.$.O.6.6...6.@.$.6.6.6.6.6.6.6.6.4.6.6.6.6.6.6.6.6.6.6.6.6.6.6.6.6.",
"6.6.6.6.6.6.6.6.6.6.6.6.6.6.6.6.6.6.6.6.6.6.6.6.6.6.6.6.%.$.-.2.6.-.*.-.6.1.6.6.6.6.6.6.6.6.6.6.6.6.6.6.6.6.6.6.6.6.6.6.6.6.6.6.",
"6.6.6.6.1.6.6.6.6.6.6.6.6.6.6.6.6.6.6.6.6.6.6.6.-.6.$...6.6.-.6.>.-.2.6.| $.2.2.6.6.1.6.6.6.6.6.6.6.6.6.6.6.6.6.6.6.6.6.6.6.6.6.",
"1.6.6.6.6.6.6.6.6.6.6.6.6.6.6.6.6.6.6.6.6.6.6.6.*.;.%.6.2.6.6.6.6.6.6.2.6.>.*.-.6.6.6.6.6.6.6.6.6.6.6.6.6.6.6.6.6.6.6.6.6.6.6.6.",
"6.6.6.6.6.6.6.6.6.6.6.6.6.6.6.6.6.6.6.6.6.6.6.6.} %.6.` %   o $ +     $ ( 6.2.} 6.6.6.6.6.6.6.6.6.6.6.6.6.3.6.6.6.6.6.6.6.6.6.6.",
"6.6.6.6.6.6.6.6.6.6.6.6.6.6.6.6.6.6.6.6.6.6.6.6.-.} $.6.. $ ; & $ - $ . 6.-.} :.6.6.6.6.6.6.6.6.6.6.6.6.6.6.6.6.6.6.6.6.4.6.6.6.",
"6.6.6.6.6.6.6.6.6.6.6.6.6.6.6.6.2.6.6.6.6.6.2.;.$ & & & k k f k f k e q $ &   + $.6.6.6.6.6.4.6.6.6.6.6.6.6.6.6.6.6.6.6.6.6.6.6.",
"6.6.6.6.6.6.6.6.6.6.6.6.6.6.6.6.%.1.6.6.6.6.$.6.# $ $ & f v v x j k e q & =   O 6.@.6.2.6.6.4.-.3.6.6.6.6.6.6.6.6.6.6.6.6.6.6.6.",
"6.6.6.6.6.6.6.6.6.6.6.6.6.6.6.6.6.o.2.:.2.6.; + 7 i k f V j k k k x f N f f 6 5 $ ; 6.2.2.2.$.4.6.6.6.6.6.6.6.6.6.6.6.6.6.6.1.6.",
"6.6.6.6.6.6.6.6.6.6.6.6.6.6.6.2.$.-.2.6.6.6.$ # < q k c m j v M f k k V k f e 2 & $ 6.6.6.6.2.%.6.6.6.6.6.6.6.6.6.6.6.6.6.6.6.6.",
"6.6.6.6.6.6.6.6.6.6.6.6.6.6.6.6.-.1.X.1.    w q v k l k v v m k v v v v k k k f w y     6.$.6.-.6.6.6.6.6.3.6.6.6.2.6.6.6.6.6.6.",
"6.6.6.6.6.6.6.6.6.6.6.6.6.1.6.6.$.6.( 6.    p 6 v f k j k v N v k j k k x v N V 7 p     6.( 6...6.6.6.6.6.6.6.6.6.6.6.6.6.6.6.6.",
"6.6.6.6.6.6.6.6.6.6.6.6.6.6.6.6.....-.6.    d k k v N N v v v N v v V B C v v c v d     2.-.| | 6.6.6.6.6.6.6.6.6.6.6.6.6.1.6.6.",
"6.6.6.6.2.6.6.6.6.6.6.6.6.6.6.6...2.X.6.    k v n n c k v b v v v k v v m b V m v k     2...:.$.6.6.6.6.6.6.6.6.6.6.6.6.6.6.6.6.",
"6.6.6.6.6.6.6.6.6.6.6.6.1.6.6.6.6.2.    q q k v v v v v m v m M k N v b b v y p v k k v     6.2.6.6.6.6.6.6.1.6.6.6.6.6.6.6.6.6.",
"6.6.6.6.6.6.6.6.6.6.2.6.6.6.6.6.1.2.    y y k v v v v v v v v v v N d k b v p a v k v N     6.6.6.2.6.6.6.6.6.6.6.6.6.6.6.6.6.6.",
"6.6.6.6.6.6.6.6.6.6.6.6.6.6.6.6.6.6.    f j N v v v v v v v v v j v k b N m k v q q a j     6.-.6.6.6.6.6.6.6.6.6.6.6.6.6.6.6.6.",
"6.6.6.1.6.6.6.6.6.6.6.6.6.6.6.6.6.6.    v v v k v v v v v v v v v j d x d v M v q q k k     -.;.6.6.6.6.6.6.6.6.6.6.6.6.6.6.6.6.",
"6.6.6.6.6.6.6.6.6.6.6.6.6.6.6.6.2.6.    v v v v v v v v v v v k k f A A r p k k y 2 6 6     6.2.6.6.6.6.6.6.6.6.6.6.6.6.6.6.6.6.",
"6.6.6.6.6.6.6.6.6.6.6.6.6.6.6.6.6.6.    f f v v v v v v v v v c k f F A 3 q a l q 2 y 6     ..$.6.6.6.6.6.6.6.6.6.6.6.6.6.6.6.6.",
"6.6.6.6.6.6.6.6.6.6.6.6.6.6.6.6.2.2.    y y k v v v v v v v c v k f / $.( ( p 2 P Y     6.3.2.6.6.6.6.6.6.6.6.6.6.6.6.6.6.6.6.6.",
"6.6.6.6.1.6.6.6.6.6.6.6.6.6.6.6.4.2.    q q k v v v v v c v v c d v ' | } ) 6 q S P     6.6.} 3.6.6.6.6.6.6.6.6.6.6.6.6.6.6.6.2.",
"6.6.6.6.6.6.6.6.6.6.6.6.6.6.6.6.-.6.    q 6 2 5 6 a 6 s N z v j 6 q } ..} ..A P ` (     o.2.1.6.6.6.6.6.6.6.6.6.6.6.6.6.6.6.6.6.",
"6.6.1.6.6.6.6.6.6.6.6.6.6.6.3.6.@.$.    2 4 5 8 q w 6 y k v v c q q ( } ( o.A P ..`     6.6.%.2.6.6.6.6.6.6.6.6.6.6.6.6.6.1.6.6.",
"6.6.6.6.6.6.6.6.6.6.6.6.6.6.6.6.6.6.X $ 6 t q 2 q e s y y q 6 q q q X...e t < 2 J A     $.-.6.1.6.6.6.6.6.6.6.6.6.6.6.6.6.6.6.6.",
"6.6.6.6.6.6.6.6.6.6.6.6.6.6.6.6.2.2.$ % 4 q 5 y q 6 6 2 6 6 q 5 6 6 O.} q e 2 t R F     6.1.$.2.6.6.6.6.6.6.6.6.6.6.6.6.6.6.6.6.",
"6.6.6.6.6.6.6.6.6.6.6.3.6.6.6.6.6.6.%.6.& o p 2 q y e q q q Z D t 2 A F ! R &   q y   & 3.%.6.%.6.6.6.6.6.6.6.6.6.6.6.6.6.6.6.6.",
"6.6.6.6.6.6.6.6.6.6.6.6.6.6.6.6.6.1.2.2.$ & y p 5 i q q u q A P 9 6 T D R R + , r a . + ..-.*.6.6.6.3.6.6.6.6.6.6.6.6.6.6.6.6.6.",
"2.6.6.6.6.6.6.6.6.6.6.6.3.6.6.6.6.2.6.1.# & q 6 u 0 1 q F P ! F t 6 ` ..:.O.    ....P F 6.2.6.$.6.6.6.6.6.6.6.6.6.1.6.6.6.6.6.6.",
"6.6.6.6.6.6.6.6.6.6.6.6.6.6.6.6.6.;.1.6.O ; r p 0 2 q q K R R R t s ` } $.6.    $.@.P F 6.2.3.-.6.6.6.6.6.6.6.6.6.6.6.6.1.6.6.6.",
"6.6.6.6.6.6.6.6.6.2.6.1.6.6.6.6.>.X.6.-.` 6.    t y 6 2 P A U P U ~ ..$.} _ [ ( ....y 5 6.$.+.2.6.6.6.6.6.6.6.6.6.6.6.6.6.6.6.6.",
"6.6.6.6.6.6.1.6.4.4.1.6.6.6.6.6.6...$.4.6.;.    p 6 2 2 Z S F F / / [ ' ..$.` } ....2 2 4.6.6.2.6.6.6.6.6.6.6.6.6.6.6.6.6.6.6.6.",
"6.6.6.6.6.6.6.6.3.6.6.;.6.6.6.6...6.-.$.6.6.} 6.    ; & + - D T P F U U ( ) A F     3.-.-.*.$...6.6.6.6.6.6.6.6.6.6.6.6.6.6.6.6.",
"6.6.6.6.6.6.6.6.3.6.1.6.6.6.6.6.$.6.2.2.6.$.6.2.  . $ $ + @ P ~ P F P P ` -.Z F     6.6.6.$.6.2.6.6.6.6.6.6.6.6.6.6.6.6.6.6.6.6.",
"6.6.6.6.6.6.6.6.6.2.6.6.6.6.6.6.2.6...>.6.1.6...6....   & ; - $ y t q 6 y r     6.6.( ..6.6.6...6.6.6.6.6.6.6.6.6.6.6.6.3.6.6.6.",
"6.6.6.6.6.6.6.6.2.6.2.6.6.6.6.6.$.-.6.6.-.$.2.$./ 6.    , - > < w y q y d p X   6.2.6.6.} -.2.6.6.6.6.6.6.6.6.6.6.6.3.6.6.6.6.6.",
"6.6.6.6.6.6.1.6.6.2.1.6.6.6.6.6.6.>.$.+.>.>.6.2.$.;.    p e V k Z C u a f f - % =.1.=...6.%.6.6.6.6.6.1.6.6.6.6.6.6.6.6.6.6.6.6.",
"6.6.6.6.6.6.6.6.6.2.6.6.6.6.6.6.3.6.6.6.6.+.6.$.` 6.    p f v N A C y d c v < = 2.6.%.6.` 2.-.6.6.6.6.6.6.6.6.6.6.6.6.6.6.6.6.6.",
"6.6.6.6.6.6.6.6.6.6.6.6.6.6.6.6.-.3.-.2.$.6.$.6.    f s a f A Y F F V C k k Z C : # 6.2.| 6.X.2.6.2.6.6.6.6.6.6.6.6.6.6.6.6.6.6.",
"6.6.6.6.6.6.6.6.6.6.6.6.6.6.6.6.6.$.>.6.$.6.3...    p f k s F A A Z v N k k A N = : 4.2.6.| 2.6.6.6.6.6.6.6.6.6.6.6.6.6.6.6.6.6.",
"6.6.6.6.6.6.6.6.6.6.1.6.6.6.6.6.2.$.2.6.P P R P     Z Z y a v c 2 6 9 e q 6 C v     $.$.-.6.6.2.6.6.6.6.6.6.6.6.6.6.6.6.6.6.1.6.",
"6.6.6.6.6.6.1.6.6.6.6.6.6.6.6.3.3.6.6.:.R P ! !     c C y y h e < e ; 2 6 5 C v   . ..6.2.6.;.;.6.6.6.6.6.6.6.6.6.6.6.6.6.6.6.6.",
"6.6.6.6.6.6.6.6.6.6.6.6.6.6.6.6.$.%.U U R R P Y     9 q v v q u < < ` / ( ..    R Y P R 6.:.6.2.6.6.6.6.6.6.6.6.6.6.6.6.6.6.6.6.",
"6.6.6.1.6.6.6.6.6.6.6.6.6.6.6.6.6.6.P G ! R P U     y y g k 1 6 2 6 ~ / ( $.    F I F P 2.*.6.6.6.6.6.6.6.6.6.6.6.6.6.6.6.6.6.6.",
"6.6.6.6.6.6.6.6.6.6.6.6.6.6.6.6.$.2.T P P P R ! I U   . ~ ^ v v q t ..[ R R     R S ! ! &.6.2.| 6.6.6.6.6.6.6.6.6.6.6.6.6.1.6.6.",
"6.6.6.6.6.6.6.6.6.6.6.6.6.6.6.6.6.&.L U P R R F P P     ! ! k f 6 < $.[ F P     P F R L 6.} 6.6.6.6.6.6.2.6.6.6.6.6.6.6.6.6.6.6.",
"6.6.6.6.6.6.6.1.6.6.6.6.6.6.6.6.-.6.F R P U Y R D P     O   $ O o = 2 y     F A Y F U Y 6.6.6.2.6.6.6.6.6.6.6.6.6.6.6.6.6.6.6.6.",
"6.6.6.6.6.6.6.6.6.6.2.6.6.6.6.6...$.F R P U Y P F F   .   $   - ; & 6 1 .   D A R G R P +.=.$...6.6.6.6.6.6.6.6.6.6.6.6.6.6.6.6.",
"6.6.6.6.6.6.6.6.6.6.6.6.6.6.6.6.=.6.} *.U P R Q F P F P               . P F P F P R -.-.6.2.6.6.6.6.6.6.6.6.6.6.6.6.6.6.6.6.6.6.",
"6.6.6.6.6.6.6.6.6.6.6.6.6.6.6.6.} 6.>.;.U P W R P P R F                 F P F E G P 6.3.-.| *.$.6.6.6.6.6.6.6.6.6.6.6.1.6.6.6.6.",
"6.6.6.6.6.6.6.6.6.6.6.6.6.6.6.6.;.1.;.6.=.;.6.=.6.2.I R R ( P R ~ I ( / 6.*.6.2.2.| 6.6.1.6.6.2.6.6.6.6.6.6.6.6.6.6.6.6.6.6.6.6.",
"6.6.6.6.6.6.6.6.6.6.6.6.6.6.6.6.6.2.;.6.6.6.6.6.6.$.R G I P Q P P P F P =.6.6.6.6.$.1.>.;.6.2.;.6.6.6.6.6.6.6.6.6.2.6.6.6.6.2.6.",
"6.1.6.6.6.6.6.6.6.2.6.6.6.6.6.6.2.6.6.2.;.*.$.6.:.6.6.-.6.6.2.6.6.6.6.6.2.2.6.6...-.6.6.6.6.-.6.2.6.6.6.6.6.6.6.6.6.6.6.6.6.6.6.",
"6.6.6.6.6.6.6.6.6.6.6.6.6.6.6.6.2.1.2.$.6.6.;.6.6.2.6.-.3.6.6.6.6.6.$.$.6.6.2.6.6.6.2.$.6.6.$.6.6.6.6.6.6.6.6.6.6.6.6.6.6.6.6.6."
};
