/* XPM */
static char *_eb0c4fc7b664c35985a15a95bd5f235DYGcZDoB0t85hJPH[] = {
/* columns rows colors chars-per-pixel */
"64 64 120 2 ",
"   c #263554",
".  c #283756",
"X  c #293857",
"o  c #283758",
"O  c #2D3C5B",
"+  c #303F5E",
"@  c #2F3D60",
"#  c #303F60",
"$  c #31405F",
"%  c #334262",
"&  c #394867",
"*  c #384768",
"=  c #3B4A6B",
"-  c #404F6D",
";  c #41506F",
":  c #404F70",
">  c #455473",
",  c #485776",
"<  c #495877",
"1  c #475578",
"2  c #485778",
"3  c #4C5B7B",
"4  c #505F7E",
"5  c #51607F",
"6  c #505F80",
"7  c #566585",
"8  c #586786",
"9  c #596887",
"0  c #576588",
"q  c #586788",
"w  c #5B6A8A",
"e  c #5F6D90",
"r  c #606F8E",
"t  c #62718E",
"y  c #606F90",
"u  c #647393",
"i  c #687795",
"p  c #697897",
"a  c #687798",
"s  c #6D7C9C",
"d  c #707F9E",
"f  c #717FA1",
"g  c #72819E",
"h  c #7483A2",
"j  c #7887A6",
"k  c #7988A7",
"l  c #7887A8",
"z  c #7A89A8",
"x  c #7B8AA9",
"c  c #7C8BAA",
"v  c #7D8CAB",
"b  c #7D8CAD",
"n  c #7E8DAC",
"m  c #7F8EAD",
"M  c #7E8DAE",
"N  c #7D8CAC",
"B  c #808FAE",
"V  c #808FAE",
"C  c #8292AC",
"Z  c #8190AF",
"A  c #8291AE",
"S  c #8392AF",
"D  c #8494AE",
"F  c #8595AF",
"G  c #8190AF",
"H  c #808FB0",
"J  c #8291B0",
"K  c #8392B1",
"L  c #8493B0",
"P  c #8493B2",
"I  c #8696B0",
"U  c #8797B1",
"Y  c #8594B3",
"T  c #8695B2",
"R  c #8796B3",
"E  c #8695B4",
"W  c #8796B5",
"Q  c #8594B3",
"!  c #8897B4",
"~  c #8897B6",
"^  c #8897B6",
"/  c #8898B2",
"(  c #8999B3",
")  c #8998B5",
"_  c #8A9AB4",
"`  c #8998B7",
"'  c #8A99B6",
"]  c #8B9AB7",
"[  c #8C9CB6",
"{  c #8B9AB7",
"}  c #8795B8",
"|  c #8897B8",
" . c #8998B9",
".. c #8A99B8",
"X. c #8B9AB9",
"o. c #8A99BA",
"O. c #8A98BB",
"+. c #8C9BB8",
"@. c #8C9BBA",
"#. c #8D9CB9",
"$. c #8E9EB8",
"%. c #8F9FB9",
"&. c #8D9CBB",
"*. c #8F9EBB",
"=. c #8C9BBC",
"-. c #8D9CBD",
";. c #8E9DBC",
":. c #8F9EBD",
">. c #8E9DBE",
",. c #8D9CBB",
"<. c #909FBE",
"1. c #909FBE",
"2. c #91A0BD",
"3. c #92A2BC",
"4. c #91A0BF",
"5. c #92A1C0",
"6. c #93A2C1",
"7. c #95A4C3",
"8. c #96A5C4",
"9. c #93A2C2",
/* pixels */
"R R R R R R R R R R R ) ) ! R L R ! A *.*.5   % + % $ + $ d +.A R R R R R R R R R R R R R R R R / R R F A / [ F R R R R R R R R ",
"+.+.+.+.+.+.+.+.*.+.) ) ) ) ) +.) +.) *.R 5   . $ + X O $ s *.*.+.+.+.+.+.+.+.+.+.+.+.+.+.+.+.+./ R / *.3.*.) [ [ [ [ [ [ [ [ [ ",
"h h h h h h h h h g g g g h h h h g g h g t 7 7 O O $ ; > i h g h h h h h h h h h h h h h h h h L R h t p s d h h h h h h h h h ",
"9 9 9 9 9 9 9 9 7 7 8 8 9 9 7 5 7 5 7 8 w h ) A O + - w 7 r 9 5 9 9 9 9 9 9 9 9 9 9 9 9 9 9 9 9 R 4.t   X < 8 w 9 9 9 9 9 9 9 9 ",
"9 9 9 9 9 9 9 9 8 9 9 7 8 9 9 7 8 8 w 7 7 k *.x $ O = w 7 9 8 7 9 9 9 9 9 9 9 9 9 9 9 9 9 9 9 9 E 4.t   X < 8 w 9 9 9 9 q q q q ",
"w w w w w w w w w w w 9 r d x x x k d 9 7 x >.x + X & w 7 9 9 w w w w w w w w w w w w w w w w w s d w < 7 8 9 r w w w w w w w w ",
"9 9 9 9 9 9 9 9 7 8 7 7 u j ..>...) h 7 7 v 4.L O X = u 9 9 7 8 9 9 9 9 9 9 9 9 9 9 9 9 9 9 9 9 7 7 7 w e 9 0 9 q 9 q 9 q 9 q q ",
"9 9 9 9 9 9 9 9 7 9 8 7 r h B J B E h 7 9 k J h % O = w 7 9 9 w 9 9 9 9 9 9 9 9 9 9 9 9 9 9 9 9 w 9 w q 7 w e 0 9 9 9 9 9 w w w ",
"q w 9 q 9 9 9 w 7 9 9 9 9 w w 9 9 9 7 7 w w 7 0 % O : 9 9 q w 9 w w w 9 9 9 w w w w w w 9 9 9 9 0 9 w 7 y q q 0 9 w w w w w w w ",
"q 9 w 9 q 9 9 7 w w w 9 9 9 9 w 9 9 9 9 9 9 0 6 % O : 9 9 q w 9 w w w 9 9 9 9 9 9 w w w 9 9 9 9 w 0 0 6 e 7 w u 9 w q w w w w w ",
"w q w 9 0 a s u 3 3 6 9 w q q w 9 0 w 9 q a s e % X : 9 9 q w 9 9 9 9 9 9 9 9 9 9 9 9 w 9 9 w 9 w 0 u s h 7 1 3 w w 9 9 w w w w ",
"w 7 9 q q l >.M O # = 7 e 9 q w w 7 w 9 9 l >.M % X : 9 9 q w 9 9 9 9 9 9 9 9 9 9 9 9 9 9 9 w 9 q 0 f } ..6 # @ w w w w w w w w ",
"w 7 9 q q l >.M O # = 7 e 9 q w w 7 w w 9 l >.M % O : 9 9 q w 9 9 9 9 9 9 9 9 9 9 9 9 9 9 9 9 9 w 7 s ..=.3 # * 9 9 9 9 9 9 9 9 ",
"w q w 9 0 a f u 3 3 6 9 w q q w w q w w 7 a s w % O : 9 9 q w 9 9 9 9 9 9 9 9 9 9 9 9 9 9 9 9 9 w 7 s ..=.< @ * 9 9 9 9 9 9 9 9 ",
"q w w w q w q 7 e w w w q q w w w w w q q 9 7 3 # O : w w q w q w w w w w w w w w w w w 9 9 9 9 9 7 g >.>.< X $ 9 9 9 9 9 9 9 9 ",
"q w w q w 9 q w 0 9 w 9 q w w 9 w w q 0 w 9 7 7 # O : 9 w q w 9 w 9 w 9 w 9 w 9 w w w 9 9 9 9 9 w 7 s E ) < + & 9 9 9 9 9 9 9 9 ",
"9 8 9 8 q 8 q 8 9 8 9 8 q 8 q 8 9 9 q 9 7 ; # % % + # O % < 9 9 * % = u 7 9 q 9 9 9 w 3 w 7 9 w 9 9 9 9 9 9 9 9 9 8 9 8 8 8 8 8 ",
"w w w w w w w w w w w w w w w w w w w r 9 > + O O O + $ * 3 w 9 O O = u 9 t w 9 w w u w a 8 8 8 w w w w w w w w w w w w w w w w ",
"< < , , , , , , < < , , , , , , > > > < < & O O O O + + $ - < > * * = 4 , < > > > > , > 3 > < 3 > > > > > > > > < < , , , , , , ",
"+ + O O O O O O + + O O O O O O O + O O % O O % % $ % $ O % * O % O X X . X O % O X O O O X O O O O + + + + O O + + O O O O O O ",
"X . X . . .   . X . X . . . . . O O     X .   O X . O O X O + . O O O O % O O % + O O % O $ $ . X X X X X X X X X . X . . . . . ",
"s s s s s s s s s s s s s s s s s g s s h s p s s p s d s s d p a a s s s > + X * % O % $ 7 s a s s s s s s s s s s s s s s s s ",
"*.*.*.*.*.*.*.*.*.*.*.*.>.>.>.>...<.>.>.6.<...>.4.+.>.4.*.*.>.! 7.6.7.4.+.7 + X $ O X O O d 7.4...+.+.*.*.+.+...*.*.*.*.*.*.*.*.",
"A A A A A A A A A A A A J J J J E ..L M J A M J J c M J B J R B J x M M R 4 & = O % % % $ d ) j B A A J J A A B A A A A A A A A ",
"9 9 9 9 9 9 9 9 9 9 9 9 9 9 9 9 J ..s 7 9 9 7 u 9 9 9 9 9 9 9 9 9 9 w 7 9 x +.c $ X ; 9 9 8 w 8 9 9 9 9 9 9 9 9 9 w 9 9 w 9 8 w ",
"9 9 9 9 9 9 9 9 9 9 9 9 9 9 9 9 ..<.j w w 9 7 9 9 9 9 9 9 9 9 9 9 9 w 7 9 x +.c $ X ; 9 9 8 w 8 9 9 9 9 9 9 9 9 7 9 7 7 w 9 8 9 ",
"9 9 9 9 9 9 9 9 9 9 9 9 9 9 9 9 h x s 8 w 9 7 9 9 9 9 9 9 9 9 9 9 9 w 7 9 x +.c $ X ; 9 9 8 w 8 9 9 9 9 9 9 9 w a s u 8 9 w 9 9 ",
"9 9 9 9 9 9 9 9 9 9 9 9 9 9 9 9 7 w 8 5 8 9 9 w 9 9 9 9 9 9 9 9 9 9 w 7 9 x +.c % X ; 9 9 8 w 8 9 9 9 9 9 9 w w ..+.j w 7 w w w ",
"9 9 9 9 9 9 9 9 9 9 9 9 9 9 9 9 7 9 9 7 9 9 9 9 9 9 9 9 9 9 9 9 9 9 w 7 9 x +.c $ X ; 9 9 8 w 8 9 9 9 9 9 9 w w ..+.j w 7 w w w ",
"9 9 9 9 9 9 9 9 9 9 9 9 9 9 9 9 9 9 w w 9 9 9 8 9 9 9 9 9 9 9 9 9 9 w 7 9 x +.c $ X ; 9 9 8 w 8 9 9 9 9 9 9 9 w a s u 8 9 w 9 9 ",
"9 9 9 9 9 9 9 9 9 9 9 9 9 9 9 9 9 7 9 w 9 9 w 9 9 9 9 9 9 9 9 9 9 9 w 7 9 x +.c $ X ; 9 9 8 w 8 9 9 9 9 9 9 9 9 7 9 7 7 w 9 7 9 ",
"9 9 9 9 9 9 9 9 9 9 9 9 9 9 9 9 9 7 9 w 9 9 w 9 9 9 9 9 9 9 9 9 9 9 w 7 9 x +.c $ X ; 9 9 8 w 8 9 9 9 9 9 9 9 9 9 w 9 9 y 9 0 w ",
"q w w 9 w 9 q w w 0 7 q w q q w 9 9 9 w w 9 w 9 9 9 9 w w w 9 8 w w 9 7 w x ..B O + = w 9 w 7 9 w q 9 w 9 9 w 9 w 9 w 9 w 9 w 9 ",
"q w w q 0 9 q 7 w w w w w w w q 9 9 9 9 9 9 9 9 w w 9 9 9 9 9 9 7 7 9 8 w c *.v % $ = w 8 w 8 w 7 q q q 9 q q q q q q q q q q q ",
"w 9 w w 9 a h u 2 3 < > 3 7 9 q 9 9 9 9 9 9 9 9 9 9 7 7 9 w w w w 8 w 9 7 j ..j + O & w 9 9 7 w a h a q w w q w 9 9 9 9 9 9 9 9 ",
"y 0 w w 9 x 6.H O O O o % < 9 w 9 9 9 9 9 9 9 9 w w w w w r w 8 t 9 w 9 7 k 6.A O O = r w w 7 9 | 6.j q 9 w 7 w 9 9 9 9 9 9 9 9 ",
"w 7 9 q q l >.M O % O X % 3 w w 7 8 8 9 9 8 8 7 9 w w 9 9 w 9 7 9 7 9 w w j +.B O $ = 9 7 w 9 w E 1.h 7 9 9 7 w q q q q q q q q ",
"w 9 w w q a h u < 3 3 < 3 9 w w 9 9 9 9 9 9 9 9 ; > = = > 5 9 w 8 8 9 w 9 8 7 3 + % % > - 7 9 w a h a 7 w w q w w w w w w w 9 9 ",
"9 w w 9 9 9 9 7 w w w w w w 9 0 9 9 9 9 9 9 9 9 X O X X % < 9 w 9 w 9 9 7 =     O % O $ O 3 9 9 7 9 9 9 9 9 9 9 w w w w w w w 9 ",
"7 7 7 7 7 7 7 q 7 7 6 7 7 7 7 7 7 7 7 7 7 7 7 7 + % $ O * < 7 7 5 7 5 7 w =   % X % + O X 3 9 7 0 7 7 7 7 7 7 7 7 7 7 7 7 7 7 7 ",
"% % % % % % % % % % X & + % X % . * $ X % * $ % $ $ $ $ $ $ $ % O % % O + % O $ % O + $ O $ * % % % % % % % % % % % % % % % % % ",
"X X X X X X X X   O     X $ O % $ $ O + $ X     X X X X X X X X X O O X O O X O X . O + X X O   X X X X X X X X X X X X X X X X ",
"3 3 3 3 3 3 3 3 < 4 3 , 3 * X + % O % % % > 7 5 3 3 3 3 3 3 3 3 > > > < < < < < 3 < 3 7 3 3 3 < 3 3 3 3 3 3 3 3 3 3 3 3 3 3 3 3 ",
"+.+.+.+.+.+.+.+.7.>.6.6.>.< X % O O % X O p 7.! *.*.*.*.*.*.>.>.6.>.<.6.<.>.<.>.7.+.*.>.....>.>.+.*.*.+.+.+.+.+.+.+.+.+.+.+.+.*.",
") ) ) ) ) ) ) ) R v R R A > O + + X % O O a 7.R +.+.+.+.+.+.+.+.*.R E E A E ..J >.! ..>...) +...) ) ) ) +.+.) ) ) ) ) ) ......+.",
"t t t t t t t t i i s i p s g p & . = 4 < 8 s a u u u u u u u u p u a p a x ) c > > 5 u u u u t t t t t t t t t t t t t t t t t ",
"9 9 9 9 9 9 9 9 5 5 7 7 7 v 7.R & X > u w 7 9 9 9 9 9 9 9 9 9 9 7 7 9 8 9 x <.M   X = 7 w 9 w 9 9 9 9 9 9 9 9 9 9 9 9 9 9 9 9 9 ",
"9 9 9 9 9 9 9 9 t 7 7 t 7 v >.M % O > w 9 7 9 7 9 9 9 9 9 9 9 9 w 9 w 7 7 j >.j * % > 9 w 9 9 9 9 9 9 w w w 9 9 9 9 9 9 9 9 9 9 ",
"7 w w 9 q w w 7 7 w w 7 9 M >.M * X > 9 9 w 9 9 w w w 9 9 9 9 w 9 9 9 9 9 9 9 9 w w 9 9 9 9 w w 9 9 7 8 w 9 0 w 0 7 w w q w e 7 ",
"9 q 0 7 0 0 q 9 7 9 w q u M >.J * X > 9 9 w 9 9 9 9 w w 9 9 9 9 9 9 9 9 9 9 9 9 w w 9 9 9 9 w w w 9 q 9 9 0 0 q w 9 w w q 9 w 9 ",
"9 7 w s s w 0 9 w 9 w 9 w s l s * X > w 9 w 9 9 9 w 9 9 9 9 9 9 9 9 9 9 w w 9 9 w w 9 9 9 9 9 9 w 0 u f s s f a 3 2 6 w w 9 w w ",
"9 9 d >.>.s 9 9 w q 9 9 7 9 w 7 * X > w 9 w 9 9 9 9 9 9 9 9 9 9 9 9 9 9 w w 9 9 9 9 9 9 9 9 9 9 9 7 h =...=.1.M O O : 9 w 9 w 9 ",
"9 9 s >.>.f 9 9 w 7 q w q q 9 7 * X > w 9 w w w 9 9 9 9 9 9 9 9 9 9 w w w 9 9 9 9 9 9 9 9 9 9 9 9 7 h ..| ..>.M O O : 9 w 9 w w ",
"w 0 w s s w 0 w w 0 w e 9 9 9 7 * X 1 w 9 w 9 w w 9 9 9 9 9 9 9 9 9 w w w w 9 9 9 9 9 9 9 9 9 9 w 7 u s s s s u 3 2 6 w w 9 w w ",
"9 q 0 7 7 0 q 9 w 9 w w 7 0 9 7 * X > w 9 w 9 9 w 9 9 9 9 9 9 9 9 9 9 w 9 9 9 9 9 9 w w 9 9 9 9 w q 7 9 9 7 7 7 w 9 w w q 9 w 9 ",
"7 w w q q w w 0 7 0 w 9 7 9 w q * X > w 9 w 9 9 w w w 9 9 9 9 9 9 9 9 9 9 9 9 9 w w w w 9 9 9 9 w w q 9 w w q w 0 7 w w q w e 0 ",
"9 9 w w q w w 7 9 w w w w w w 0 % o > w q 0 w 0 w w w w w w w w w w w w w w w w 9 y w 9 w w 9 w w w w w w w w w w w w w w w w w ",
"0 0 7 7 q 9 9 w 0 0 0 7 q 9 9 w * O > w 9 w u 9 q q q q q q 9 9 q q q q q q 9 9 7 9 7 7 w 9 9 w q q q q q q 9 9 9 9 q q q q 9 9 ",
"w y w w u 7 < 7 w 9 w e w 7 3 3 % @ = < 2 7 w 7 w w w w w w w w w w w w w w w w w w w w w 7 3 7 w w w w w w w w w w w w w w w w ",
"7 w 7 0 9 =   % q 7 0 w 7 = O X # O % % % < w 9 7 0 0 7 7 0 0 0 0 0 0 0 7 0 0 0 q 0 7 9 7 = X O 0 0 0 0 7 0 0 0 0 0 0 0 7 0 0 0 ",
"w u w w u > O * w 9 w u 9 > % O # # O O % < w w w w w w w w w w w w w w w w w w w w w y w > # % w w w w w w w w w w w w w w w w ",
"& = * * = %   % & * & = & @ X X # % % O % = : : & & & & & & & & & & & & & & & & & & * & = # X O & & & & & & & & & & & & & & & & ",
"O O O O @ # % % O O O O @ @ # % # % % O @ O o X @ @ # @ O O O @ @ @ # @ O O O @ O % O O % % @ * @ @ @ O O O @ # @ @ @ @ O O O @ ",
"@ O % % O % % O O % % # @ % # O O % O O % % @ * % % % % % % % % % % % % % % % % O * % O % % O # % % % % % % % % % % % % % % % % "
};
