/* XPM */
static char *result[] = {
/* columns rows colors chars-per-pixel */
"128 128 76 1 ",
"  c #6E0000",
". c #730000",
"X c #7A0C00",
"o c #7B1200",
"O c #791C00",
"+ c #7B2500",
"@ c #7D2C00",
"# c #7E3002",
"$ c #7F330D",
"% c #823401",
"& c #843802",
"* c #80350E",
"= c #87380E",
"- c #8B3A0F",
"; c #803612",
": c #813917",
"> c #823A1C",
", c #833E24",
"< c #88431E",
"1 c #834027",
"2 c #84412A",
"3 c #89462A",
"4 c #89492F",
"5 c #864630",
"6 c #8C4F37",
"7 c #8B4F38",
"8 c #8D523D",
"9 c #8F5540",
"0 c #915841",
"q c #925C4A",
"w c #95604C",
"e c #9B7165",
"r c #9E756A",
"t c #A17A6E",
"y c #A57F73",
"u c #A78378",
"i c #A9867B",
"p c #AB897F",
"a c #AD8D83",
"s c #AB8E88",
"d c #AF9188",
"f c #B19187",
"g c #B1928A",
"h c #B6988F",
"j c #B59890",
"k c #B99F97",
"l c #BAA097",
"z c #B6A09C",
"x c #BCA29B",
"c c #C3ACA5",
"v c #C5AFA8",
"b c #C9B4AE",
"n c #CBB7B0",
"m c #CFBEB9",
"M c #D0BEB8",
"N c #D2C2BD",
"B c #D5C5C0",
"V c #D6C9C5",
"C c #D9CBC6",
"Z c #DBCECA",
"A c #DDD0CC",
"S c #DFD4D0",
"D c #E1D6D2",
"F c #E3D9D5",
"G c #E6DEDB",
"H c #E8E0DE",
"J c #EEE6E3",
"K c #EFE9E7",
"L c #EFEBEA",
"P c #F1ECEA",
"I c #F5F0EE",
"U c #F6F3F1",
"Y c #F9F6F4",
"T c #FAF8F7",
"R c #FFFFFF",
"E c None",
/* pixels */
"EEEEEEEEEEEEEEEEEEEEEEEEEEEEEEEEEEEEEEEEEEEEEEEEEEEEEEEEEEEEEEEEEEEEEEEEEEEEEEEEEEEEEEEEEEEEEEEEEEEEEEEEEEEEEEEEEEEEEEEEEEEEEEEE",
"E*$$****$$*****=*****=**********;;=;*=$$*****$*****=**********$$;***==*****=*****;**$<$******$*****=**********$$;****$*****=****",
"E*-===;-==-:=-=:;-==-;===-====;-;&;*<<&=:-==--&<=-=;;-====-:=-=-:-==-:===-=;;-==;&&;<&=-:-==--&<=-=;;-====-:=-=-:-==--&<=-=;==-*",
"E****=**$==*****=*************=***;*$$&$=***********=****$=*****=***********=***;;;*#$**=***********=****$=*****=***********$$=*",
"E*********$*******************************$$$$********************$$$*******************=$************************$$$*******$*=$",
"E**=********************************$*****$=$************$***$****$$*$******************$$**$************$***$****$$*$**$***;*;*",
"E***********$*********$********************$***********************=********************$**************************=**********=*",
"E******$******;$********************************$******************$*****$**************$$******$******************$**********=*",
"E*=******$*********************************************$;*******$***$*****$*******$********************$;*********************;*",
"E**********************;*******$********************************;**********************$***********************************$**=*",
"E**********************$******;******************************$**************$******;*************************$****************=*",
"E**=**$********$$***$****$*************$********$*********$************************$*********$**$*********$******************$=*",
"E*=*********$****************$*********************$***$************$******************************$***$**********************;*",
"E***$**********************************************************;***$*******************************************;**************=*",
"E*******$******************$*******************************$***$************$******************************$***$**************=*",
"E*=*****;*******$*****$*************************************************;$*********$***$************************$*************;*",
"E*********************$****************$**************$***************************************************$***********$*******:=",
"E*********************;***********************************************$*********************$******************************$**=$",
"E*************************$***$********************************************$****************;**************************;****$***",
"E***************$************************************************$**********************************************$******$******=*",
"E$$$************;*******$<*****************************************************************************************$**********=$",
"E<*&**$*****************$$********************************************$*******************************************************=*",
"E******************$***$$$****$******$*****************************$**;*******************************************************=$",
"E***********************$$******************************************************$*********************************************:$",
"E***********$***********$<**********$;***************************$********$***************************************************=$",
"E***********************$#************$******$******;*******************************************$***************************$*=*",
"E*<********************$$=$*****************************************************************$*******************$***$*******$$=$",
"E*&$********************$$$********$************;$************$*****************************;;************************;$****$=:$",
"E*****************************************************************$$$$**********************************$=$*****************$*<$",
"E*=*************************************************************$*#<$=*********************$************$$$*******************&$",
"E*=*************************************************;$**********<$$$$***********************************#$$$$<****************=$",
"E**********************************$****************************$$$$=$**********************************<$$$$$***$*****$***$*$=*",
"E**********$****************************************************************************$***********************$********$******",
"E*=*****************************$******$*******************************;*******;********************************************$;**",
"E**********************************************************************$*******$************************************************",
"E***********$***;$******$***********************************************$***$*************************************************;*",
"E********************************$$***$*****************************************************************************************",
"E*=******************************;********$*********************************************************$*************************=*",
"E*=********************************************************$****$*****************;$********************;*****;***************=*",
"E*******$***$***********************************************************$*****$*************************$*********************;*",
"E*******;*********************************************$*$$#<************************;*****************************************&:",
"E**=*$**************************************************$$$$*******************************************$**********************=*",
"E**********$*********;$*********************************<#$$$<******************;***************************;$******************",
"E*************$******;**********************************$$$$$$******************$*********************************************=*",
"E*=*****************************************************$$$**$****************************************************************=*",
"E*********$*********************************************$=**********************************************************************",
"E*=**$***************$**********************************************************************$*********************************=*",
"E************;$**********************************************************************$****************************************:*",
"E*=*************************$**************$***$;;**;****$*************************$********************************************",
"E************************************************$**$****************$**********************************************************",
"E***$*****$$***************************************************$****$:$$*$******************************$*******$*************=*",
"E*=*****$$=$*****************************;$****************$********$$$$*:$$****************************************************",
"E*******$$$$*******$************************************122$$$****$*#>22225$#$************************************************<$",
"E**=****$$<#*****************************************$;>. .$*=*$***$1#     @3$************************************************=$",
"E***$***<#$$*$******************$**************$***$#1> hbl#$*$$**$1 4zNVBx6 1****:$*****************************************$$=",
"E***;***$$$$$<***********************$****$*****$*$15# vRTI<#:$#**1 sITRRRRUh 1***$******************************************$=$",
"E*=*****$******************************************  8CRRRL&#:$<*1.pRRRPSLRRRg.,&$******************************=$$$<$$$******=$",
"E*************$***********************************$ubPRRRRP&$$$$;#=PRRN:o&mRRI3@*$*********$********************$$=$#$$$********",
"E*=*********************************************>+8LRRRSPRP&#>$#2.xRRF +,@ SRRc 2$*$*******;**********************#$$$<$****$$<#",
"E******$********************************$*******,+wTRJxOJRP*#$$$,.DRRa.4$5.aRRF.,:*$**************$***************<$$$$*****$#<$",
"E*=*****$***$;**********************************$#5zp# &JRP=#$$<@<PRUq+:$>+9URP8@,$$****************************************$$**",
"E**************$********$***********************$$#  &><JRP&$$$1.eTRHX>;*::XGRRr 1$$****************************************$=<*",
"E***********************************************$;;12>$&JRP=#$$2.iRRA.,*;;,.CRRu 2$************************************$******&$",
"E*=*********************************************$;$*$:$#JRP&#>=2.aRRN.,;;$2.NRRf 1***************************$************$****$",
"E********************************$*******************;*%LTL*#:$5.fRRm.,$$:2 NRRh 2$*********************************************",
"E****************************************************;*%HTL&#>#1.aRRV.,$:$2.BRRf 3$$************************************;;******",
"E=***********************************$***$;**********;*%LTL&#>$1.iRRA.1$$;1.CRRu 2**************************************$**$**;*",
"E;***********************************;****$***$*****=;*%LTL*#:$1.eYRJO$$$>$oGRTr 1$;***************************************;*:&*",
"E****$*******************$***********************$***;*%JRL$#>#>@<PRYq+:$>+qYRP8@>$$******************************$*************",
"E=<***********************************$**************;*%JRL$#;**,.SRRg.5#5.dRRF.1*$$*************$******************************",
"E$$$*******************************$*****$*****$*****;*&HRL&#>*#1.kRRG.o:O.FRRx.2$*********$********************************$#<$",
"E#<$*************************************************;*&HRH<#>**;$%JRRC8;6BRRL=#;*****************************$************$$#<$",
"E************************$********$$$<#$*************;$%HLL;#>***,.yRRRYLYRRRu.,$*********************************************<#",
"E**=*****$************************$$$$$$********$****;*%LLL>#>****,.uKRRRRRLp.1********************************;**$***$********$",
"E******************************$***<$$$$*************;*%szs#$*****%,.%fvnvg&.>************************************************<$",
"E*************$********************$$$#<*$**$;*******$*;  O$********1@... .#1************************************************$&$",
"E*=*********************$***********=************;******111$*********:,,,,,>**************************************************=$",
"E***********************************$$*********$*$********$$**********************************$*******************$***********:$",
"E*****************************************************$**************************************************************$********==",
"E*=*************************;$***********$****************$*********************************************$**********************$",
"E*****************************************************************************<$$$#$$=$$****************************************",
"E*=****************************$******************************************$***$*$$<$$$****************************$***********<*",
"E******************;******************$*****************************************$#$$****************************************$$$$",
"E$=****************$*****$**************************$***************************$<$$*************$************$*******$*****$#<$",
"E*****************************************************************************************************************$$<#****;$$$&$",
"E**=*************************************************************$********$***************************************$$$$*****;<#=$",
"E*******$******************************************$******************$******$;**********************************$<$$$$***$$$$=$",
"E************$****************************************$***********************$***********************************$$$==$*$$&$$<$",
"E$<$$$$$***********************************$*******************************$************************************$$<$***$**$<$$&$",
"E$#$*=$$**;$********;******************************************;***********;************************************$$$*********$$=;",
"E*<#**<#******$*****;***********$*****************************$;**$************$********************************$$**********$$=$",
"E*****$$************$************************************************$*************************$****************#<**********$$<$",
"E***<$$$************$****************************************************$***$**********************************$$$<*******$&$:*",
"E*=*$*$$*$**********************************************************************$*******************************$$$#********$$=*",
"E*************$***********************************************$***$*$********************************************$$$********;$=*",
"E*****************************************************************;**********************************************$=$$********$=*",
"E********$<$$$$$$$**************************$************************************************************$********************;*",
"E*=*******$$$$$#=$******$******************************$*****$*************************************$****************************",
"E*=*********<$$<******************************************$*********************************************************$***********",
"E***********#$$$**********************$*********;$***********************************************************************$****;*",
"E********$****************************************$********************$******************************************;*************",
"E$=*********$*************************************;****$**********************************$***********************************=*",
"E*=*******************************************************$*******************************************************************=*",
"E**************;***************************************************$***********************************************$*$********;*",
"E**************$*********************************;;********$******************************************************************=*",
"E*=******************************;**$************$**************************$***************************************************",
"E********************************$********************************************************************************************=*",
"E*******$*****************************************$****************$***$**$*************$***$***********;*********************=*",
"E**********$***$************$************************************$$*********************;****$**********;$********************;*",
"E*=**************************************************************;;*********************$*************************************&*",
"E*=*************$****************$***********************************************************************;$******************$:;",
"E*********************************************************************;$******************************$**********************#<*",
"E***************************************************************************************************************$***************",
"E*******************************************************************************************$***********************************",
"E=**********$********************$****$***$*************************************;**********************$**********************=*",
"E;;***************************$****************************$***********$********$***********************************************",
"E*<$**********$*************************************************************************$*************************************<$",
"E*<$**************************************************************************************************************************<$",
"E$#$**************************************$*$****$****************************************************************************#$",
"E$&$*$************************************;*;*****************************************************************************$**$&$",
"E***********$;*****************;**************$$***********************************;$************************************$$$$$&$",
"E**$***********$***************$***************;*******************************$***;************************************$<$$<#<$",
"E**&*****************$*******************************$**********************************************************$*******$$$#$$=$",
"E*<$*******$*****************************************;******$$**********$************************************$****;$***$$$$<$$=$",
"E*************************************************************************$*****************************$=$$****************$*<$",
"E**=************************;******$*********************************;*********$************************$$$=******************&$",
"E*************************$;**************************;$************$;**********************************#$$$$<****************=$",
"E*****************************************************$$*****************************$************$*****<$$$$$***$*****$****$$=*"
};
