/* XPM */
static char *xpm_[] = {
/* columns rows colors chars-per-pixel */
"64 64 127 2 ",
"   c #600000",
".  c #620000",
"X  c #640000",
"o  c #650000",
"O  c #680000",
"+  c #6F0000",
"@  c #700000",
"#  c #730000",
"$  c #740000",
"%  c #750000",
"&  c #760000",
"*  c #770000",
"=  c #770500",
"-  c #750F00",
";  c #780B00",
":  c #761400",
">  c #791400",
",  c #7A1E00",
"<  c #7B2300",
"1  c #7B2400",
"2  c #7C2700",
"3  c #7D2900",
"4  c #7D2B00",
"5  c #7D2C00",
"6  c #7E2E00",
"7  c #7F2F00",
"8  c #7E2F09",
"9  c #7F3100",
"0  c #7F3308",
"q  c #7F320D",
"w  c #7F350E",
"e  c #803406",
"r  c #80340C",
"t  c #80350D",
"y  c #80350E",
"u  c #81350E",
"i  c #80350F",
"p  c #81350F",
"a  c #81360E",
"s  c #82360E",
"d  c #86380F",
"f  c #87380F",
"g  c #89390F",
"h  c #8A390F",
"j  c #803510",
"k  c #803610",
"l  c #803611",
"z  c #803612",
"x  c #803713",
"c  c #813713",
"v  c #813714",
"b  c #813715",
"n  c #813815",
"m  c #813816",
"M  c #813916",
"N  c #813817",
"B  c #813917",
"V  c #823917",
"C  c #813918",
"Z  c #813A19",
"A  c #823A1B",
"S  c #823B1C",
"D  c #823B1D",
"F  c #823C1F",
"G  c #833C1F",
"H  c #823D1F",
"J  c #923C10",
"K  c #833D20",
"L  c #823824",
"P  c #833F24",
"I  c #833E2B",
"U  c #833F2C",
"Y  c #844025",
"T  c #844031",
"R  c #864536",
"E  c #894D3B",
"W  c #8D574E",
"Q  c #905F54",
"!  c #9B756F",
"~  c #A17E79",
"^  c #A6827B",
"/  c #A2817C",
"(  c #A7867F",
")  c #A88A87",
"_  c #AD908C",
"`  c #AD918D",
"'  c #AE938F",
"]  c #B79F9B",
"[  c #B9A2A1",
"{  c #B9A5A4",
"}  c #BFABA8",
"|  c #C1ADA9",
" . c #C0ACAA",
".. c #C1ADAB",
"X. c #C4B1AD",
"o. c #C4B2B0",
"O. c #C5B2B0",
"+. c #C6B4B1",
"@. c #CCBCB9",
"#. c #CCBEBC",
"$. c #CFC0BD",
"%. c #D1C5C3",
"&. c #D4C9C7",
"*. c #D8CBC9",
"=. c #D9CDCC",
"-. c #DDD4D2",
";. c #DED5D3",
":. c #E3DCDA",
">. c #E6E0DE",
",. c #EBE6E5",
"<. c #F2EEED",
"1. c #F4F0EE",
"2. c #F5F2F0",
"3. c #F5F2F1",
"4. c #F6F3F1",
"5. c #F7F4F2",
"6. c #F9F7F6",
"7. c #FAF8F7",
"8. c #FBF8F7",
"9. c #FBFAF9",
"0. c #FCFBFA",
"q. c #FDFCFB",
"w. c #FEFCFA",
"e. c #FEFCFB",
"r. c #FEFDFC",
"t. c white",
"y. c None",
/* pixels */
"y.y.y.y.y.y.y.y.y.y.y.y.y.y.y.y.y.y.y.y.y.y.y.y.y.y.y.y.y.y.y.y.y.y.y.y.y.y.y.y.y.y.y.y.y.y.y.y.y.y.y.y.y.y.y.y.y.y.y.y.y.y.y.y.",
"p J d g g g g g g g g g g g g g g g g g g g g g g g g g g g g g g g g g g g g g g g g g g g g g g g g g g g g g g g g g g g g a ",
"p d p w w p r w p w p w p w p w p w a r p w p w p w p w a w w p p w p w p w p w r a p w p w p w p w p w a w w p p w p w w p p p ",
"p g w p p w a p w p w p w p w p w p w w w p w p w p w p r w p w w p w p w p w p w p w a w p w p w p w p r w p w w p w p r p a p ",
"w g w p w r p w p w w p p a w p r a w p p w a r p w p w r a r a p w w p p a w p w p w r r w p w p w p w r a r a a r w p a p r a ",
"p g p r w p w a w a r w w r p w w p p w w p w w a r w p p w w p w a r w w r p w a r p w a p w a a r w p p w w p w w p w w p p p ",
"w g p w p p w r p w w p p w w r p w w p r a w p w p w w w r a w p w w p p w w r p w a r w p w r w p w w w r a w p w r a p a r a ",
"r g w p w r p w a r a r w p w a w a r w p w p w p w r a p w w p a r a r w p w a w p w w p w p w p w r a p w w p w p w p w r p p ",
"a g w p a r w p w p w p w r a w a w p w r a r a r w p w p w a r w p w r w p w w p w r a p w r p p w w p a r w p r a r a w p r a ",
"w g r w w w p w p w a r p w w p r w w p p w w p a p w a w p w w p w w a p w r a w p p w w p a w w a r w w w p w p w w p p w p p ",
"p g w p p w r a w w p w w p p w w p r w w r a w w p w r r a w p w a p w r a p w p w w p a w w p p w w p p w r a w r a w p a r a ",
"w g a r w p w p r a w p p w a r p w a p p w w p p w p w p w p w p r w p w p w a w a r w r w p w a r a r w p w p p w w p w r p p ",
"p g r a w r a w w p r w w w p w w r a w w p r w w w p w p w p a w p w p w r w r p w p w r a r a w p w r w r a w w p r w p a p p ",
"w g p w p w w p p w a p r a w p p w w p p w a p r a w p w a w r r w p w w a p w a r w p p w w p p w w a p w w p p w a p w r a r ",
"a g w p w p p w w r p w w p r a w p p w w r p w w p r a w r w a a w p a p w r p w p w w w r a w w a p w w p p w w r p w w p p p ",
"w g r w a r w p w a w a r w p w a r w p w a w a r w p w p w p r w p w r w p a w p w r a p w w p p r w p a r w p w a w a r p a r ",
"p g w r a w p w w p w r a w a w p w p w p a w p w r a w p w p w p w a r p w w p w p r w w a p w w r a w w r a w p w p w r p p r ",
"w g p w w p a r a r p w w p r w w p w a w r p w p w w p a r w p w p w w w a r w p w a p p r w p p w w p p w w p a r w p a w p a ",
"p g r p a r w p p w a r p a w p r p w r p w w r w p p w w p w w r a w p p w w p w r p w w p a w w p p w w p p w w p w w a r p r ",
"w g a w w w p w w p w w w r p w a w p w w p w a a r w p p w r a p w p w a r a r w a w a r w r w p w a r a r w p p w r a w p p a ",
"w g w p p w r a r a w p p w a r p w a r r p w p w p w w p r w p w r a w a w p w p w r a r a w p w r w r a w a w w a p w p w r a ",
"r g p w w p p w w p p w w p w w w p w w a w r w p r r a w w p r p w w p r w w p w p p w w p p w w a p w w p r w p r w p w p p p ",
"a g r a p w w p p w w p r a w p r a w p r w a w p w w p p w p w w p p w w p r w p w w p p w w p p w r p p a w p w p a w p a r a ",
"w g w p w a r w w a r w p w p w p w p w a p w p w p r w p r w p p w a r p w a p w a r w w a r w w p a w w r p w r w r w p r p p ",
"p g p w w p w r a w p w p w p a w r a w w r a w p a w p w p w c w a w p w p w p p w p a w p w p w a p w r w p w a w w r a w p r ",
"w g a r a r p w w p a r w a w r p w w p p w w p w r p w p c Y M M Y v w p w p w w a w r p w a r p r w p a p w a w p p w w p p a ",
"w g w p p w a r a r w p w r w a w p p w w p p w w p w r v 9 + - : + 9 v r w w p w r w a w w p w w p a w w p w r p w r p a r p r ",
"r g p w w p w w w w p w p w p r p w a r a r w p p w a c 6 L @.,.,.$.T 6 M p r w p w p r r a w p r w r w p w p w w p a w p p p a ",
"a g w p w r w p p w p w p w p w w r w r a w a w w r w K # *.t.O.| t.-.% A p w p a w p w w p w a a w p w p w r p p w w p w r a p ",
"w g p w w a p w w p w a a r w p w a p w w p r w w a v 9 U 6.| . . [ 9.E 3 M p w r w w p r w p r w p a r w p a w w a r w p w r p ",
"p g p a p w p a r p w r w p w w p w r p p a w p p w a a , <.=.o . %.4.0 9 c w p w p r w a w p w a r w p a w w p p w w p p p a p ",
"w g w r w p w r a w p w p w r a w p a w w r p w w p w H % ^ 9.>.:.9.( % K w p w p w a p w p w p w w p w r w p w a r a r w a r p ",
"w g r w w a p w p w w p a r w p w a p w r w p w p w w A ; X.4.-.-.2.+.> A w p w p w p a w p w p w r a w w r a w p w p w r p p r ",
"p g a p p r w p w a r w w w p w p r w p a p w a w w A = ~ t.] o o _ t.) % H w p w a w r p w a r p w w p p w w p a r w p a w p a ",
"w g p w w p a w p w w p p w w p w p a w w p w r p w P # { q.R < e 3 9.} # P p w w r w a w w p w w p p w w p p w w p w w a r p r ",
"p g w a r w r w a r a r w p a r r w r w p w p w w p A > ! t.&.U q #.t./ % S w p p w p r r a w p p w a r a r w p p w r a w p p a ",
"w g a w r a w p w p w r a w p w a w p w p w r p p w p S % } q.2.<.t.X.% S w p w a w p w w p w a w r w r a w a w w a p w p w r a ",
"r g w p w p p w p w w a r w w p w p a r w p a w w p p w M % W ' ' Q % c w p w p r w w p r w p r w a p w w p r w p r w p w p p p ",
"w g p w p w w p w a p w w p r w a r w p w r r w p r w p w K 3 # % 1 H p p w p w w p r w a w p w p w r p p a w p w p a w p a r a ",
"p g a r w a r w p r w p p w a p w w p w p w p p w w p w p w M H H M p r w p w p p w a p w p w p w p a w w r p w r w r w p r p p ",
"w g r a w p w r w p w w p w p w p w p w p a w p p w r p w p w p p w p w p w p a w p w r w p w w w p r w w a p w a w a w p w r a ",
"p g w p p w w a p w r a w p w a w p w a w r p w w p a w r w p w w p w p w a w r p w w a p w r a p w a p p r w p w p r w w p p p ",
"w g a w w a p w r a p w r p w r r p w r p w w r a w w p a w p a r w p w w r w a w a p w r a p w w r p w w p a w p a w p p a r a ",
"r g w p p r w p w p w a a w p w a w p w w p w a r w p w w p w r p p w p p w p r p r w p w p w a w a w a r w r w w r p w p r p p ",
"r g p w w r a w w p w r r w p w p w a r r p w p p w p a a r w p w p p w p w p w w p w p w r w r p w r a r a w p p w a r w w p p ",
"a g w p p w w p a r p w a p w a w p w w a w r w w a w r w w p w r w r w a r w p r w p w w a p w w p p w w p p w w p w w r a a r ",
"w g a w w p p w p w a r w p w r r a w p r w a w w r w a p w r a p w r p w p w w a w p a p w r p p w w p p w w p r a w p r p p p ",
"p g r w p w a r w p w w p w p w p w p w a p w p p w p r w p w p w p p w p w r a w p w r w p a w w a r w w a r w p w p w a p a r ",
"w g w r p w r p w p w p w w p w p w p a w p w p w r a w w r a w w p w a w p r w p w a r p w w p p a w p r a w p w r w r a w p r ",
"p g w a w p a w r w p w r a w p w a w r p w a r p w w p p w w p r w p r p w a p w p w w w a r w w r p w w p p w w a p w w p p a ",
"r g p w a w w p a w p a w p r a w r w a w w p w w p p w w p p w a w p w w r p w r a w p p w w p p w w r p w w p p w r p a r p r ",
"a g w p r w p w w p w r r w p w p w p r r a w p p w a r a r w p w p w p w a w a p w p w a r a r w p w a w a r w w p a w p p p a ",
"w g p w r a r a w p w a a w p w a w p w w p w a w r w r a w a w p a w p w p w r w r a w a w p w r a r a w p w p p w w p w r a p ",
"p g w p p w w p r w p r w p a r r w w p r w p r w a p w w p r w w r p w a r p w p w w p r w w p p w w p p w a r w a r w p w r p ",
"w g w w w r a w a w p w a r w p w p r w a w p w p w r p p a w p p w w r p w a r w p p w w p r w w r a w w w p w p w w p p p a p ",
"p g r a p w w p w p w p w w p w p w a p w p w p w p a w w r p w w p w a w p w w p w a r p w a p p w w p r a w p a r a r w a r p ",
"w g w a w p r w p w p w r p w p w p w r a w a w a r w p w p w a r a r a w p w r w p w w p w p w p w w p a r w p w p r a w p r a ",
"p g p r p w a p a r w p a w r w a r p w w p r w w w p w r w p r p w w p p w w a p w r a w p w a w a r w w w p w p w w p p w p p ",
"w g p w w r p w w p w w r w a w p w a r p a w p p w r a a w p w w r a w w a p w r a p w r p w r p w w p p w r a w w p w p a r a ",
"r g w p w a w a p w r a a p w p w p w w w r p w w p w p w p w p p w w p p r w p w p w a a w p w a r a r w p w p r a w p w r p p ",
"a g p w w p w r r w p w w p w r r a w p p w a r r p w p w p w w w a p w w r a w w p w r r w p w w p w r w r a w w p r w p a p p ",
"w g w p a r p w a p w a p w w a w p p w w p w w a w r w p w r a p r w p p w w p a r p w a p w a p w w a p w w p p w a p w r a r ",
"w g r a p w a r w p w r w a p w p w w p r a w p r w a w r a p w w p a w w p p w p w a r w p w r w a p w w p p w w r p w w p p p ",
"p g p w w p w w p w p w p r w p w a r w p w p w a p w p w p w a r w r w p w a r w p w w p w p w p r w p a r w p w a w a r p a r "
};
