/* XPM */
static char *xpm_[] = {
/* columns rows colors chars-per-pixel */
"64 64 100 2 ",
"   c #670000",
".  c #700000",
"X  c #710000",
"o  c #720000",
"O  c #740000",
"+  c #750000",
"@  c #770000",
"#  c #791500",
"$  c #7A1800",
"%  c #7A1900",
"&  c #7A1A00",
"*  c #7A1D00",
"=  c #7B2200",
"-  c #7D2A00",
";  c #7E2E00",
":  c #7E2F00",
">  c #7D2F0F",
",  c #7F320A",
"<  c #7F340A",
"1  c #7F350E",
"2  c #792A13",
"3  c #80340A",
"4  c #80340C",
"5  c #80350D",
"6  c #82360D",
"7  c #83370D",
"8  c #80340E",
"9  c #80350E",
"0  c #80350F",
"q  c #81360E",
"w  c #80360F",
"e  c #82360E",
"r  c #83360E",
"t  c #83370E",
"y  c #84370D",
"u  c #84360E",
"i  c #84370E",
"p  c #85370E",
"a  c #84370F",
"s  c #85370F",
"d  c #86370E",
"f  c #86370F",
"g  c #85380E",
"h  c #85380F",
"j  c #86380E",
"k  c #87380E",
"l  c #86380F",
"z  c #87380F",
"x  c #88380F",
"c  c #89380F",
"v  c #89390F",
"b  c #8D3A0F",
"n  c #803510",
"m  c #813710",
"M  c #803611",
"N  c #803712",
"B  c #813714",
"V  c #823914",
"C  c #813816",
"Z  c #8B3A10",
"A  c #813A18",
"S  c #813A19",
"D  c #823A19",
"F  c #823B19",
"G  c #823A1A",
"H  c #823B1C",
"J  c #823B1D",
"K  c #823C1E",
"L  c #903C10",
"P  c #833D21",
"I  c #833E21",
"U  c #833E22",
"Y  c #833E24",
"T  c #884B3C",
"R  c #905B4F",
"E  c #905C52",
"W  c #95645B",
"Q  c #95655C",
"!  c #96665E",
"~  c #96675F",
"^  c #966860",
"/  c #A6857C",
"(  c #AA8D8B",
")  c #B39992",
"_  c #B19895",
"`  c #B49D9B",
"'  c #B49E9C",
"]  c #B59F9D",
"[  c #B6A19F",
"{  c #CCBEBB",
"}  c #D3C4C1",
"|  c #DED5D3",
" . c #E8E1E0",
".. c #F1EDEB",
"X. c #FCFAF8",
"o. c #FDFBFA",
"O. c #FEFCFB",
"+. c #FEFDFC",
"@. c white",
"#. c None",
/* pixels */
"d m d m j j j j j j j j j j j j j j j j w j j j j j w j j j j j w j j j j j w j j j j j w j j j j j w j j j j j w j j j j j j x ",
"d Z d j w 7 w j w w w j w j w w g w w j w j w j w j w j w j w j w j w j w j w j w j w j w j w j w j w j w j w j w j w j w w x j ",
"x m 1 1 8 w 5 w w 5 8 8 5 w w w w 5 8 5 w w 5 5 w 8 w w 5 8 w 8 w 5 8 8 5 w w w w 5 8 5 w w 5 5 w 8 w w 5 8 w 8 w 5 8 8 8 8 j j ",
"x j 8 8 5 w 8 8 w w w 5 8 8 5 w 8 5 w w w 8 8 w 5 5 w 8 w 8 5 5 w w w 5 8 8 5 w 8 5 w w w 8 8 w 5 5 w 8 w 8 5 5 w w w 5 w 8 w j ",
"d x w 8 w 8 w 5 8 5 5 w w w 5 8 w 5 8 8 8 5 5 w 8 w 5 8 w 5 8 w 8 5 5 w w w 5 8 w 5 8 8 8 5 5 w 8 w 5 8 w 5 8 w 5 w 8 w 8 w j j ",
"m j 8 8 8 w 8 5 w w 8 8 5 8 5 w 8 5 w 5 w w 8 8 8 5 w 8 w 8 5 w w w 8 8 5 8 5 w 8 5 w 5 w w 8 8 8 5 w 8 w 8 5 w 8 8 w 8 w 8 j j ",
"c x 8 8 w 8 w w 5 8 w 5 8 5 8 w 8 w 5 w 5 8 w 5 w w 5 5 5 5 8 8 5 8 w 5 8 5 8 w 8 w 5 w 5 8 w 5 w w 5 5 5 5 8 8 w 5 8 w 8 8 d 8 ",
"c d 8 8 8 w 5 8 5 w 8 5 w w 8 5 5 w 8 8 5 w 8 5 5 8 8 w 8 w w 5 5 w 8 5 w w 8 5 5 w 8 8 5 w 8 5 5 8 8 w 8 w w 5 w 8 w 8 w 8 x m ",
"j x 8 5 8 5 5 w 8 w 5 8 w w 5 8 w 5 8 8 w 5 8 w 8 5 5 w 5 w w 8 8 8 w 5 w 5 8 8 w w 5 8 5 8 w w 8 5 5 w 5 w w 8 5 8 w 5 8 8 j j ",
"j x w w w w 8 8 8 5 w 8 5 8 5 w 8 5 w 5 w 8 5 w w w 8 8 8 8 5 5 w 5 w 8 8 5 w 5 5 8 5 w w 8 5 8 w w 8 8 8 8 5 5 5 w 8 5 w 5 j j ",
"j x 5 8 5 8 w 5 w w 5 5 8 5 8 w 8 w 5 w 5 5 8 8 5 8 w 5 w 5 8 w 5 w 5 8 8 w 5 w 8 5 8 w w 5 8 5 5 8 w 5 w 5 8 w 8 8 w w 8 8 j d ",
"j j w 8 5 w 8 5 5 8 8 w w w 8 5 5 w 8 8 8 w w 5 5 w 8 5 w 8 5 w 8 8 5 w 5 w 8 8 w w 8 5 8 5 w w 5 w 8 5 w 8 5 w w 5 5 8 8 8 d m ",
"d x 8 8 5 8 w w w 8 8 5 5 5 8 w 8 w 5 5 5 w w 8 8 8 w 5 w 5 8 8 w 5 8 w 5 8 w 5 5 8 w 5 8 w 5 8 8 8 w 5 w 5 8 8 8 w 8 w 8 w j j ",
"m x 8 8 w 8 5 8 5 5 w w 8 w 8 5 5 w 8 w 8 8 5 5 w 5 w 8 8 5 w 5 w 8 5 w 5 w 8 5 5 w 8 5 8 5 w 8 w 5 w 8 8 5 w 5 w 8 w 8 w 8 j m ",
"j x 8 w w 5 8 5 8 w 5 8 w 8 w 5 5 8 w 8 w 5 8 w 5 w 5 8 8 w 5 w 5 5 8 8 8 8 w w 8 8 w w w w 5 5 5 w 5 8 8 w 5 w 5 8 8 w 8 8 m x ",
"j x w 8 8 5 w w 8 5 w 8 5 5 w 8 w 8 5 5 w 8 5 w 8 8 5 w 5 w 8 8 8 w w 5 w 5 5 8 w 5 5 8 5 8 8 w 8 8 5 w 5 w 8 8 5 w w 8 8 8 m d ",
"j Z 8 w 8 w 8 w 5 8 w w 5 8 w 5 8 w 5 8 w w 5 8 5 8 w w 5 8 w 5 w 8 8 5 8 5 5 w 8 5 5 w 5 w w 8 w w 5 8 5 8 w w 5 8 w 5 8 8 x j ",
"m d w 8 w 8 8 5 w 8 5 8 5 w 8 5 8 5 w 8 5 8 5 w w 8 5 8 5 w 8 5 5 5 w w w w 8 8 w w 8 8 8 8 5 5 5 8 5 w w 8 5 8 5 w 8 5 w 5 j j ",
"c m 8 8 w 8 w 5 w 5 8 5 8 8 w w w w 5 5 8 5 8 w w 5 8 5 8 8 w w 8 w 5 8 5 8 w 5 5 8 w 5 w 5 8 w 8 5 8 w w 5 8 5 8 8 w w w 8 j d ",
"d x 8 8 5 5 w 8 8 5 w w w 5 5 8 5 8 8 w w w 8 5 8 5 w w w 5 5 8 8 5 w 8 5 w 8 5 5 w 8 5 w 8 5 w w w 8 5 8 5 w w w 5 5 8 8 8 m 8 ",
"x x w 8 8 8 w 5 w 5 8 8 8 5 5 w w 8 8 5 5 5 8 w w 5 8 8 8 w 8 w w w 5 8 5 8 w w 8 8 w 5 w 5 8 8 5 8 w 5 8 w 5 8 8 w 8 w w 8 x j ",
"j x 5 5 w 5 w 8 8 5 w 5 w w 8 8 5 5 w w 8 w 8 5 8 5 w 5 w 8 w 8 5 8 5 w w 8 5 8 w 5 w 8 8 5 w 5 5 w 8 5 8 5 w 8 w 8 w 8 8 w j j ",
"j x 8 w 5 w 5 8 8 w 5 w 5 8 w 5 8 w 5 8 w 8 w 5 8 w 5 w 8 w 8 8 8 5 8 w w 5 8 5 5 w 5 8 8 w 5 w 8 8 w w w w 5 5 5 8 8 w 8 8 j m ",
"j x 5 w 8 8 5 w 5 w 8 8 5 w 8 5 8 5 w 8 5 5 w 8 5 w 8 8 w 8 8 8 w w 8 5 8 5 w w 8 8 5 w 5 w 8 8 w 5 5 8 5 8 8 w 5 w w 8 8 8 m d ",
"d x 8 8 w 5 8 8 w w 5 8 5 8 w w w w 5 8 5 8 w w 5 5 8 w 8 8 8 1 F w 1 8 8 8 8 w 5 8 w w 5 8 w 5 w 8 8 5 8 5 5 w 8 w 5 8 w w x j ",
"d m 8 8 8 5 w 5 5 8 5 w w 8 5 8 5 8 5 w w 8 5 8 8 w 8 5 8 4 V H * : m 8 8 8 w 8 w 8 5 8 5 w 8 5 5 5 w w w w 8 8 8 5 w 8 5 8 j j ",
"x x w 8 8 w 5 w 8 5 8 w w 5 8 5 8 5 8 w w 5 8 5 5 w w 8 5 U 5 O ^ T : m w 8 8 w w 5 8 5 8 8 w w 8 w 5 8 5 8 w 5 w w 5 5 w 8 d d ",
"j x 8 w 5 w 8 8 w w 8 5 8 5 w w w w 8 5 8 5 w w 8 8 5 5 D O o { @._ o U 8 5 w 8 8 5 w w w 5 5 8 8 5 w 8 5 w 8 5 5 8 8 w 8 8 8 d ",
"j x 8 w 8 w w 5 5 8 w 5 8 w 5 8 5 8 w 5 8 w 5 8 w 5 w F # ) ..o.@.` o K w 8 w 5 w 5 8 8 8 5 5 w w w 5 8 5 8 w w 8 w 8 w w 8 j j ",
"m j w 8 w 8 8 5 5 w 8 5 8 5 w 8 5 w 8 5 8 5 w 8 w 8 8 K O } | / X.[ o 1 8 w w 8 8 5 w 5 w w 8 8 5 8 5 w w 8 5 8 w 8 w 8 8 w m j ",
"x x 8 8 8 8 w w 8 8 w w w w 5 5 8 8 w w w w 5 5 5 5 8 5 8 1   R o.` o T 8 w 5 8 8 w 5 w 5 8 w 5 8 5 8 w w 5 8 5 8 w 8 w 8 8 j m ",
"x x 8 8 w 5 5 8 w 5 5 8 5 8 8 w w 5 5 8 5 8 8 w 8 w w 5 w F - ^ o.[ o I w 8 5 w 5 w 8 8 5 w 8 5 w w 8 5 8 5 w w 8 5 w 8 8 8 d x ",
"j j 8 5 8 5 5 w 8 5 5 w 5 w w 8 8 5 5 w 5 w w 8 5 w 8 w 8 D % W o.` o U 1 8 8 8 5 8 w w 5 8 w 5 8 8 w 5 w 5 8 8 w 5 8 w 5 5 j j ",
"j j w w w w 8 8 w w 8 8 8 8 5 5 w w 8 8 8 8 5 5 8 8 w 8 8 D % ! o.[ . U 1 1 8 8 w 8 5 8 5 w 8 5 w 5 w 8 8 5 w 5 w 8 5 w 8 w w j ",
"j x 5 8 5 8 w 5 5 8 w 5 w 5 8 w 5 8 w 5 w 5 8 w w 5 8 w 8 F % W o.` . U w 8 w 8 w 5 8 5 8 8 w w 5 w 5 8 8 w 5 w 5 5 8 8 8 8 j j ",
"j j w 8 5 w 8 5 5 w 8 5 w 8 5 w 5 w 8 5 w 8 5 w w 8 8 8 1 F % ! @.[ . U 8 w 8 w 8 5 w w w 5 5 8 8 8 5 w 5 w 8 8 8 w w 5 8 8 m d ",
"m x 8 8 5 8 w w 8 8 w 5 w 5 8 8 8 8 w 5 w 5 8 8 5 5 8 w w V = E  .( O F w 8 w 8 w 5 8 8 8 5 5 w w 5 8 w 5 8 w 5 w 8 w 8 8 w j j ",
"c x 8 8 w 8 5 8 w 5 w 8 8 5 w 5 w 5 w 8 8 5 w 5 8 w 8 5 8 5 8 5 2 1 w w 8 w 8 w 8 5 w 5 w w 8 8 w 8 5 w 5 w 8 5 8 w 8 w w 8 m j ",
"j j 8 8 w 5 8 5 5 w 5 8 8 w 5 w 5 w 5 8 8 w 5 w w 8 w 5 8 w 5 w V m 5 8 w 8 w 5 8 w 5 w 5 8 w 5 5 5 8 8 8 8 w w w 8 w 8 8 8 j m ",
"m x 8 w 8 5 w w 8 8 5 w 5 w 8 8 8 8 5 w 5 w 8 8 5 5 w 8 5 w 8 w m 8 w 8 5 5 w 8 5 w 8 8 5 w 8 5 8 w w 5 w 5 5 8 5 w 8 8 8 8 d c ",
"x x w 8 w 8 w 8 5 8 w w 5 8 w 5 w 5 8 w 5 5 8 w 8 w 5 5 8 w 5 8 1 8 8 8 w 5 8 8 w w 5 8 5 8 w w 5 w w 8 w 8 8 5 8 w 5 8 w w j j ",
"j x 8 w 8 w 5 w w 8 5 8 5 w 8 5 w 8 5 w 8 w 8 5 5 w 8 w 8 5 w 8 8 8 w 8 8 5 w 5 5 8 5 w w 8 5 8 8 8 5 5 5 5 w w 8 5 w 8 5 8 j j ",
"m x 8 8 8 5 8 w w 5 8 5 8 8 w w 5 5 8 8 w 8 w 5 5 8 w 8 w w 5 5 8 w 8 w 8 w 5 w 8 5 8 w w 5 8 5 w 5 8 w 8 w 5 8 w w 5 5 8 8 d 8 ",
"x x 8 8 w w 8 5 8 5 w w w 5 5 8 8 w w 5 5 5 w 8 w 8 5 5 5 8 8 w w 8 w 8 5 w 8 8 w w 8 5 8 5 w w w 8 5 w 8 5 w 8 5 8 8 w w 8 m j ",
"j x 8 5 5 5 8 w w 5 8 8 8 5 5 w 5 w w 8 8 8 w 5 5 8 w w w 8 8 5 8 w 8 w 5 8 w 5 5 8 w 5 8 w 5 8 5 5 8 w 8 w 5 5 w 8 w 8 8 w j j ",
"j x w w 8 w 8 5 8 5 w 5 w w 8 8 8 8 5 5 w 5 w 8 w 8 5 8 5 5 w w w 8 5 w 5 w 8 5 5 w 8 5 8 5 w 8 8 w 8 5 5 w 8 w 8 w 8 w w 8 j j ",
"j x 5 8 w 8 w 5 8 w 5 w 5 8 w 5 w 5 8 w 5 w 5 8 w 5 8 5 8 w 5 8 5 5 8 8 8 8 w w 8 8 w w w w 5 5 w 8 w 5 5 8 w 8 w 5 w 8 8 8 m d ",
"j j w 8 5 5 w 8 5 w 8 8 5 w 8 5 w 8 5 w 8 8 5 w 8 5 w w 8 5 w 8 8 w w 5 w 5 5 8 w 5 5 8 5 8 8 w 5 5 w 8 w 8 5 5 w 8 8 8 8 8 c m ",
"d d 1 8 8 w 5 5 8 w 5 8 w w 5 8 w 5 8 8 w 5 8 w 5 5 8 w 8 w 5 5 5 w w 8 w 8 8 5 w 8 8 5 8 5 5 w 8 8 w 5 w 5 8 8 w 5 8 w 5 5 j j ",
"d Z 8 8 5 w 8 w 8 5 w 8 5 8 5 w 8 5 w 5 w 8 5 w 8 w 8 5 5 w 8 w 8 8 5 5 5 5 w w 5 5 w w w w 8 8 w 5 w 8 8 5 w 5 w 8 5 w 8 w j j ",
"x m 8 8 5 8 w 8 w w 5 5 8 5 8 w 8 w 5 w 5 5 8 8 w 8 w 5 5 8 w 8 w 5 8 w 8 w 5 8 8 w 5 8 5 8 w 5 5 w 5 8 8 w 5 w 5 5 8 8 8 8 d d ",
"x j w 8 w 8 5 5 5 8 8 w w w 8 5 5 w 8 8 8 w w 5 5 5 w 8 w 8 5 5 w 8 5 w 8 5 w 8 8 5 w 8 5 w 8 5 8 8 5 w 5 w 8 8 8 w w 5 8 8 d m ",
"j Z 8 8 w 8 8 w w 8 8 5 5 5 8 w 8 w 5 5 5 w w 8 8 w 5 8 w 5 8 w 5 5 8 w 8 w 5 5 w w 5 8 5 8 w w w 5 8 w 5 8 w 5 8 w 8 w 8 w j j ",
"m j 8 8 8 w 5 w 5 5 w w 8 w 8 5 5 w 8 w 8 8 5 5 8 5 w 8 w 8 5 w 8 w 8 5 5 w 8 w 5 8 5 w w 8 5 8 w 8 5 w 5 w 8 5 w 8 w 8 w 8 j m ",
"c d 1 8 w 8 w 8 8 w 5 8 w 8 w 5 5 8 w 8 w 5 8 w w w 5 5 5 5 8 8 w 8 w 5 5 8 w 8 8 5 8 w w 5 8 5 5 5 8 8 8 8 w w 5 8 8 w 8 8 m x ",
"d Z 8 8 8 w 8 w 8 5 w 8 5 5 w 8 w 8 5 5 w 8 5 w 5 8 8 w 8 w w 5 5 5 w 8 w 8 5 5 w w 8 5 8 5 w w 8 w w 5 w 5 5 8 5 w w 8 8 8 m d ",
"j x 8 5 8 5 5 w w 5 8 w 5 5 8 w 8 w 5 5 8 w 5 8 w 8 8 5 8 5 5 w 8 w 5 8 w w 5 8 8 w 5 5 8 w 5 8 w 8 8 5 8 5 5 w 8 w 5 8 w w x j ",
"j x w w w w 8 8 w 8 5 w 8 w 8 5 5 w 8 w 8 5 w 8 5 5 w w w w 8 8 8 5 w 8 5 8 5 w 5 w 8 w 8 5 w 8 5 5 w w w w 8 8 8 5 w 8 5 8 j j ",
"j x 5 8 5 8 w 5 5 5 8 8 w 8 w 5 5 8 w 8 w w 5 5 8 w 5 8 5 8 w 5 w w 5 5 8 5 8 w 5 8 w 8 w w 5 5 8 w 5 8 5 8 w 5 w w 5 5 w 8 d d ",
"j x w 8 5 w 8 5 8 w w 5 5 5 w 8 w 8 5 5 5 8 8 w 8 5 w 8 5 w 8 5 5 8 8 w w w 8 5 w 8 5 5 5 8 8 w 8 5 w 8 5 w 8 5 5 8 8 w 8 8 8 d ",
"d j 1 8 8 8 8 w 8 8 8 5 8 8 w 5 8 8 8 w 8 8 8 5 w w 5 8 8 8 8 w 8 8 8 5 5 5 8 w 8 8 8 w 8 8 8 5 w w 5 8 8 8 8 w 5 w 8 8 w 8 j j ",
"d d 8 8 5 5 8 8 w 8 8 5 w 5 w 8 5 5 8 8 w 8 8 5 5 8 5 w 5 5 8 8 w 8 8 5 8 w 8 5 5 5 8 8 w 8 8 5 5 8 5 w 5 5 8 8 8 8 w 8 8 w w j ",
"j L m x k x k g x x k k x k x x k x k k x x k x x k x x k x k k x x k k x k x x k x k k x x k x x k x x k k x g x x x x x x b j ",
"#.j 8 j y y g g g g y g g 7 g g y y g g g g y y g g g g y y g g g g y g g g g g y y g g g g y y g g g g y g g g g g 5 j j w j #."
};
