/* XPM */
static char *xpm_[] = {
/* columns rows colors chars-per-pixel */
"64 64 151 2 ",
"   c #640000",
".  c #6A0000",
"X  c #6D0000",
"o  c #6E0000",
"O  c #6F0000",
"+  c #700000",
"@  c #710000",
"#  c #730000",
"$  c #740000",
"%  c #760000",
"&  c #770000",
"*  c #770100",
"=  c #770500",
"-  c #770C00",
";  c #780900",
":  c #780D00",
">  c #780E00",
",  c #751700",
"<  c #791400",
"1  c #791500",
"2  c #761A00",
"3  c #761B00",
"4  c #761E00",
"5  c #772405",
"6  c #7B2400",
"7  c #7B2900",
"8  c #7E2E00",
"9  c #7F3000",
"0  c #7F3205",
"q  c #7F340E",
"w  c #792B15",
"e  c #7F3615",
"r  c #803409",
"t  c #80340A",
"y  c #80340B",
"u  c #80340C",
"i  c #80350D",
"p  c #83360D",
"a  c #83370D",
"s  c #80350E",
"d  c #81350E",
"f  c #80350F",
"g  c #80360E",
"h  c #81360E",
"j  c #82360E",
"k  c #83360E",
"l  c #83370E",
"z  c #82360F",
"x  c #84370D",
"c  c #84360E",
"v  c #84370E",
"b  c #84370F",
"n  c #85370F",
"m  c #86370F",
"M  c #85380F",
"N  c #86380E",
"B  c #87380F",
"V  c #88380F",
"C  c #89380F",
"Z  c #8B3A0F",
"A  c #8D3A0F",
"S  c #813710",
"D  c #803611",
"F  c #813711",
"G  c #813712",
"H  c #803713",
"J  c #813714",
"K  c #813615",
"L  c #823813",
"P  c #823814",
"I  c #823914",
"U  c #823915",
"Y  c #813817",
"T  c #813917",
"R  c #803419",
"E  c #813919",
"W  c #823A19",
"Q  c #82391A",
"!  c #813A1A",
"~  c #823A1A",
"^  c #823A1B",
"/  c #823B1B",
"(  c #823A1C",
")  c #823B1C",
"_  c #823C1E",
"`  c #823C1F",
"'  c #913C10",
"]  c #803724",
"[  c #823D21",
"{  c #833D21",
"}  c #833E23",
"|  c #833F24",
" . c #823B28",
".. c #823D29",
"X. c #833F2D",
"o. c #834027",
"O. c #844127",
"+. c #85432A",
"@. c #86432A",
"#. c #834233",
"$. c #874833",
"%. c #885248",
"&. c #89554A",
"*. c #8F5D53",
"=. c #93665D",
"-. c #946860",
";. c #956963",
":. c #9B746D",
">. c #9D746E",
",. c #9C7873",
"<. c #9E7A76",
"1. c #9F7D79",
"2. c #A37D74",
"3. c #A07D77",
"4. c #A47F79",
"5. c #A5837B",
"6. c #AA8A84",
"7. c #AB908C",
"8. c #B69C98",
"9. c #B9A09B",
"0. c #C0A9A5",
"q. c #C1AEAA",
"w. c #C5B1AD",
"e. c #C6B3AE",
"r. c #C9B7B3",
"t. c #D8CCCA",
"y. c #D9CDCB",
"u. c #E4DDDD",
"i. c #EAE4E3",
"p. c #E9E5E4",
"a. c #EAE5E4",
"s. c #EBE7E6",
"d. c #ECE6E4",
"f. c #EDE7E6",
"g. c #ECE8E8",
"h. c #F0EDEC",
"j. c #F3EFEE",
"k. c #F6F1EF",
"l. c #F5F2F1",
"z. c #F6F3F2",
"x. c #F7F4F3",
"c. c #F8F5F4",
"v. c #FAF7F6",
"b. c #FAF7F7",
"n. c #FCF9F8",
"m. c #FCFAF9",
"M. c #FCFBFA",
"N. c #FFFEFD",
"B. c #FFFFFE",
"V. c white",
"C. c None",
/* pixels */
"k S B B B g B B g N B g N N L N B g L g N N N N M N N N N N L N N M B g N N N M B g N N L N B g N N N N g N L N N N N N M B N B ",
"k A k k B g g B N g B g B g g B B g B B B g B g g g g M B g g B g g B g g B g g B g B g g B B g B g g g B g B g B g B g g g B B ",
"q B q q q q q q g g k q q q g g g g k g q g k q q q g g q q g q g g k q q k g g g g k g g q q g q k g g k q q q q g k q q q g g ",
"e B k q k g g q g g q q q k g g q q q g g g q q g k g g q k g q g g k q q k g g q q q g g k q g q k g g g g q k g g q q k k g B ",
"k B q q q g g k k g q q g q q q g g k q k g q q k q q q g g k q k g q q q q q q g g k q k g q q q g k q q q g g k g q q q g g B ",
"q B k g k g g q q g q k g k g g q q q q q g q k q q q k q k g g q g q k g k g g q q q q q g q k q k g g g g q q q g q k q q k B ",
"k B k q q g g q q q g g k g k q k q q q q q g g g q q g q g k q q q g g k g k q k q q q q q g g q g k q k q g q q q g g k q k g ",
"q B q q q q k q g g q q q g q q g g q k g g q q g k q g q g q q g g q q q g q q g g q k g g q q q g q q q q g k g g q q q q k B ",
"k B k g k g q q k q q q g q q q g g k q g g k q k g q q q q g q k q g g g g k q g q q q q q g q q k q q q q g g k q q q g q g B ",
"q B q g q g q k q q q k g k g g q q q q q k g g q g q k q k g q q q q k q q q q g k g g q k g k q g g q g q k q q q q k g k B g ",
"q B q q q q g g g q q g k g k q k q q q q g k q q q g g g g k q q q q q k q q q k g k q g g k g q g g k g k q q g q q g q q k g ",
"g V q k g g q q g k q g q g q q g g q k q g q q g g q q q k g g q k g g g g q k q g q q q q q g k g g q q q k g g k q g k k B S ",
"S V k q q q g q g q k g q g k q k q q g q q g q k q g g g g k q g g k q q q g g q q g g k q q q q g g k g k q g q k q q q k g B ",
"q V q q q k g k g q q g q g q q g g q g q k g q q q q k q q q q q k g g g g q q g g q q q q q k q q q q g q q q q g g q q q B g ",
"g V g k g g k g k q q q g q g g q q g q g g k q q q q q k q q q q g k q k q g q k q g q g q q g q q q g q q q q q g g k k q k g ",
"L S q q q q q g q q q k g q q k q k g q q k g g q k g g g g q k q g q q q q g k q q g k g k q g g q k g k g g q k g q q q q k B ",
"k V q q g q q q g g k q g g k q q q g g k q g g q q g q q q g g q k q q q q g g q q g g g g q k g q q g q g g q q g g k q g g B ",
"k V q k g k g g q q q q q k g g g g q q q q q k q k g k g g q q q g g q g q k q g q k q k q q g k q k g q q k q k g g q q q g B ",
"q V k q k g k q k q q q q g k q k q g q q q q q g g k g k q g q q g g k g k q q g k q q q q q g q k q q g k q k q g g q q q g B ",
"q V q q q g q q g g q k q g q q q q g k q k g g q q q g q q g k k g g q q q k g q q k g g q q q q g g q g q q g q q k q k q k B ",
"g V k g q g k q k q q g q q g q k g q q g q q q g g k q k g q q q g g k g k q g q k q q q q q k q g g k q q q g g g q k q g g B ",
"S S q g q g q q g g q g q k g q q g q k g k g g q q q q q g q k q q q q g q q q g g g q k g g g k g g q g q q q k q q g q q g B ",
"k V q q g q g g q q g q g g k q q q g g k g k q k q q q q q q q q q q g q q q q g g g k q g g g q g g q g q q k q q q g q q g B ",
"S V q k g q q k q k g q q k g g g g q q q g q q g g q k g g q k g q k g k g g q k q q q q q k q q q k q k q g g g q q q k q k B ",
"k N k q k q q g k q g g g g k q k q g g g g k q g q q q k q e W _ I k q q q q q g k q g g k q q q k q q q q g g g k q q q k g B ",
"e m q k g g q g q q q k q q q q q q q k q q q q g k g g y _ q = & 0 [ q e k q k g q q q q q k g q g g q g q k q q q k g g g B g ",
"k B q q q q g q q q q q k q q q q q q q k q q q k g k q Q & R <.1.| & e q q q q q q q q q k q g q g g k g k q q q k q g q q k g ",
"q B q k q k g q q k g g g g q k q k g g g g q k q q q _ & 5.j.n.M.l.6.& _ k g g k g g q g g q q k g g q q q k g g g q q k k m S ",
"q B q q q g k q g g k q q q g g g g k q q q g g q q L 9 +.x.i.=.-.p.x...9 S q q q q q k q q g g q g g k g k q g q k q q q k g B ",
"k V k q q k g g q k g g g g q q q k g g g g q q g g W 1 :.l.3.+ X 7.B.,.< Q e k k g g g g q k q q q q q g q q q q g g q q q B g ",
"q V y q q g k q q g k q k q g q q g k q k q g q k q g q Q +.K $.X q.B.*.6 I q q q g g g g k q q q q q g q q q q q g g k k q k g ",
"e B k q q g q q q g q q q q g k q g q q q q g k q q g k q 8 o.- &.n.y.+ [ q q k q q k q q q k g g q k g k g g q k g q q q q k B ",
"g V q q q q g g q q g g g g q k q q g g g g q k q q q k y +.& %.l.g.] 8 K q q k q q g q q q g g k q g g g g k q g g k q q g g B ",
"k V g q g q k q g q k q k q q g g q k q k q q g k q k r o.+ ;.v.f.#.S O.y k q q q k g k g g q q q q q k q q q q q k g g q g k B ",
"q S g k g k q q g k q q q q q g g k q q q q q g q q u [ + >.x.t.  . + > I q q k g g k g k q g q q q q q k q q q q g k q k q k g ",
"g V g q q q k g q q k g g q q q q q k g g q q q k q ) ; 5.B.v.0.w.w.r.3.1 _ q q q q q g q q g k q k g g g g q k q g q q q q k B ",
"S V k q g k q g q k q q q q q k q k q q q q q k q k o.+ 8.g.u.i.s.p.h.9.+ [ q k g g k q k g q q g g k q q q g g g g q k q g g B ",
"k V k q g q q q g g g q k g g g g g g q k g g g q q q L 7 5 w 5 2 3 2 7 L k q q q q q q q g q k q k g g g g q q k q q g q g k B ",
"k V q q q q q q g g g k q g g g g g g k q g g g q k k q L U U L I I U L g g q k k q q q q q g g q g k q k q g q q q q q q q k g ",
"S S k q k g g q k q q q q q k q k q q q q q k q q y q q q L q q q e q q k q q q g g q k g g q q q g q q q q g k g q q k q k B S ",
"k S S q u u S q g k q g g k q q q q q g g q q g g g k q g g k q q q q g g g k q g q q q q q g q q k q q q q g g g k q q q k g B ",
"k V u q S q S u g q q q q q k g g q q q k q k g q q q q q k g g k q q k q q q q g k g g q k g k q g g q g q k q q q k g g g g g ",
"S N k S q S q u q q q q q k q g g q q k q k q q k q q q q g k q q q q q k q q q k g k q g g k g q g g k g k q q q k q g k q B B ",
"k S k u u u q S k g g q g g q q k q g g q g g q g g q k q g q q q k g g g g q k q g q q q q q g k g g q q q k g g g q q q q k k ",
"S V q S S S q u q q q k q q g g g g q k q k q q k q q g q q g q g g k q q q g g q q g g k q q q q g g k g k q g q k q q q k g B ",
"e V u u q u q S k g g g g q k q k q q g g g g q g g q g q k g q q k g g g g q q g g q q q q q k q q q q g q q q q g g q q g g g ",
"u N S q u q u S q g g g g k q q q q q g g g g k q q g q g g k q q g k q k q g q k q g q g q q g q q q g q q q q q g g k k q B B ",
"D N u q S S u q q q k q q q k g g q q q k q q q q k g q q k g g q g q q q q g k q q g k g k q g g q k g k g g q k g q q q q k k ",
"u V u D u D u u D u u S q q u S q q g q q q g g k q g g g g k q q q g q g q k g g q k g k g q q g q q g q g g q q g g k q g g S ",
"D N u u D u u S u D q S u S u q q k g k g g q q q q q k q q q q q k g q g q q g g q q g q g q k k q k g q q k q k g g q q q B B ",
"D V D u u S D u u D u u S u S q g g k g k q g q q q q q k q q q g g k q k q q q k q q q q q g g q k q q g k q k q g g q q q k g ",
"u V u D u D u S S u D u q q S u q q q g q q g k q k g g g g q k q k g g q q q k q q q k g g q q q g g q g q q g q q k q q k k B ",
"D V u D u u u u q S S u u u S q g g k q k g q q g g k q q q g g q g k q k q q g g q q q q q g q q g g k q q q g g q k g k q g B ",
"D V D u u S D u u u q q S q S u q q q q q g q k q k g g g g q q q g q q g g q g g k g g q k g k k g g q g q q q g q q g q q g B ",
"u C d u D u u D S q u S q S q u k q q q q q g g q g k q k q g q g q g g q q g q k g k q g g k g q g g q g q q k k q q q q q g B ",
"D N u D u D S u S u q S u u q S g g q k g g q q q g q q q q g k g q q k q k g q q g q q q q q g q q k q k q g g q q q k g q k B ",
"g V q k q k q q q u S q u u S q g g k q g g k q k g q q q q g q k q q q g q q q k q q g k q q q k g q q q q g q g g k q q g g B ",
"k B q g q g g q q S u q S q S u q q q q q k g g q g q k q k g q q q q k g k g g g g q g q q q k q g q k q k g q q k g g q g k B ",
"q B q g q g g k u u S S q S q u k q q q q g k q q q g g g g k q g q q g k g k q q q g q g q q g q q g g g g k q q g k q q q k g ",
"k B q q k g q q S q q u u u q S g g q k q g q q g g q q q k g g g k q g q g q q q k g q g k q g g g q q q k g g q g q q q k B S ",
"e B q y k q q q q k q k S S q u k q q g q q q q k q g g q q k q q q k g q g k q k q q q q q q q k q g g q q k q g g q k k q g B ",
"q B k g q k q k q q q k q u q S g g q g q k g k q q q k k k q q g q k g q g q q g g g k q k g k q q q k k k q q k q q y q q q B ",
"k ' B B V V V V B V V V N N V V V V V V V V V V V V B B V V V V V V V V V V V V V V V V V V V V V V B B V V V V B B V V V B Z g ",
"C.k a g x x x x x x p p m m k m x x x x x x x x x x x x x x x x x x x x x x x x x x x x x x x x x x x x x x x x x g x x a a B B "
};
