/* XPM */
static char *xpm_[] = {
/* columns rows colors chars-per-pixel */
"64 64 144 2 ",
"   c #640000",
".  c #680000",
"X  c #6F0000",
"o  c #700000",
"O  c #710000",
"+  c #720000",
"@  c #740000",
"#  c #750000",
"$  c #760000",
"%  c #770300",
"&  c #780000",
"*  c #780800",
"=  c #780A00",
"-  c #780B00",
";  c #791600",
":  c #7B1F00",
">  c #7B2500",
",  c #7C2400",
"<  c #7C2500",
"1  c #7D2500",
"2  c #7C2800",
"3  c #7D2C00",
"4  c #7E2D00",
"5  c #7E2F00",
"6  c #79290A",
"7  c #7E2F0B",
"8  c #7F3101",
"9  c #7F3306",
"0  c #7F3407",
"q  c #7F320A",
"w  c #7E2D13",
"e  c #7E3110",
"r  c #7F3019",
"t  c #803509",
"y  c #80340A",
"u  c #80340B",
"i  c #80340C",
"p  c #80340D",
"a  c #80350D",
"s  c #83360D",
"d  c #82370D",
"f  c #80340E",
"g  c #80350E",
"h  c #81350E",
"j  c #80350F",
"k  c #82350E",
"l  c #81360E",
"z  c #80360F",
"x  c #83360E",
"c  c #83370E",
"v  c #82360F",
"b  c #84370D",
"n  c #84360E",
"m  c #85360F",
"M  c #85370F",
"N  c #86370E",
"B  c #86370F",
"V  c #85380F",
"C  c #86380F",
"Z  c #87380F",
"A  c #88380F",
"S  c #89380F",
"D  c #89390F",
"F  c #8A390F",
"G  c #803510",
"H  c #803610",
"J  c #803612",
"K  c #813712",
"L  c #803713",
"P  c #813714",
"I  c #813815",
"U  c #813817",
"Y  c #8D3A10",
"T  c #803618",
"R  c #813918",
"E  c #813A19",
"W  c #823A19",
"Q  c #823A1A",
"!  c #823B1B",
"~  c #823B1C",
"^  c #823B1D",
"/  c #823C1E",
"(  c #923C10",
")  c #833D20",
"_  c #833E20",
"`  c #833E22",
"'  c #833F22",
"]  c #833E2D",
"[  c #834025",
"{  c #834026",
"}  c #87472D",
"|  c #894B36",
" . c #86473A",
".. c #87473B",
"X. c #884C3C",
"o. c #8B5546",
"O. c #8F594C",
"+. c #8E594D",
"@. c #8F5D55",
"#. c #905C50",
"$. c #916159",
"%. c #926058",
"&. c #93655D",
"*. c #93665C",
"=. c #976C65",
"-. c #986B63",
";. c #99726A",
":. c #9E776F",
">. c #9F7973",
",. c #9D7975",
"<. c #9F7B74",
"1. c #9F7B77",
"2. c #A1807C",
"3. c #A58581",
"4. c #A78782",
"5. c #B0938F",
"6. c #AE9490",
"7. c #B39C99",
"8. c #B49E9C",
"9. c #BAA5A3",
"0. c #BFAAA6",
"q. c #C0ACA8",
"w. c #DBD0CD",
"e. c #DDD4D2",
"r. c #E1D8D7",
"t. c #E3D9D6",
"y. c #E2D9D7",
"u. c #E3DBD9",
"i. c #E4DCDA",
"p. c #E8E1E0",
"a. c #EDE8E7",
"s. c #F1ECEA",
"d. c #F1ECEB",
"f. c #F1EDEC",
"g. c #F3EFEE",
"h. c #F6F4F3",
"j. c #F7F4F3",
"k. c #FAF7F6",
"l. c #FBF8F7",
"z. c #FBF9F8",
"x. c #FDFCFA",
"c. c #FFFEFD",
"v. c white",
"b. c None",
/* pixels */
"b.m m V V V V V V V V V V V V V Y a Y H K D V V V V V V V V V V V V D I V V V V V V V V V V V V V V V V V V V I V V V V V V V d ",
"a Y a c d V V d d d V I V V V V m a q H c V d V d V d d V I V d d d d d d V d d V V V d V d V I V d V d d V d V d V d I d V D 0 ",
"a K a a e I e 0 d K d K I 0 0 0 a H a a c c e e d e d e I 0 0 d 0 d 0 d K 0 d e e I V e 0 0 e 0 0 I 0 e 0 e 0 d d d d d 0 e e I ",
"a Y a H 0 d I d 0 e 0 e 0 d e e a f H f q e 0 K e K 0 d 0 V e I e I e I e K 0 d 0 I 0 0 e d I d I e 0 I I d e I 0 e e d K d K 0 ",
"a Y d 0 e K e I 0 I e 0 e I 0 e a H f H a a a a d 0 0 e I d 0 e I e I e d 0 K e I d 0 d 0 d 0 I 0 e e d I 0 0 e d K 0 d 0 d K d ",
"a S e d 0 d 0 d e 0 I I I 0 d I a f a a H f H f e K d I e 0 d I d 0 d 0 e d d K e 0 e I e I e 0 d d 0 L d e d I 0 e K e K e e d ",
"a Y q e e e d I I d V 0 I e 0 e a H a a f a a H K e I e V I 0 e 0 e I d I e 0 e 0 I I 0 I d e I e e d d d L 0 e e I e d e K d d ",
"a Y e e K d 0 e e 0 e 0 d 0 d I a f H f H a a f d 0 d 0 0 e I 0 d I e 0 d 0 d K I e 0 V e 0 0 I d d d e e d L 0 0 d K 0 d 0 e c ",
"I D 0 I I e I e I d I d 0 d 0 e a H f H f a a H a a a a a a a a 0 0 e I e I 0 e I e I d I d 0 0 e 0 V e 0 I V e e I I 0 e 0 K d ",
"0 Y e 0 d 0 d 0 e 0 e 0 e I 0 V a f a a H a a f H f H f H f H f e V I 0 0 I I 0 d 0 e 0 e 0 e V I I 0 0 I e 0 0 0 d 0 I I d e d ",
"e Y e I 0 e 0 I V 0 e I 0 I I 0 a H a a f H f H f a a H f a a H I e 0 e V 0 I e 0 I V 0 I d 0 I 0 I I d 0 e I d e 0 e e e 0 d d ",
"d D 0 I 0 V I e 0 I I 0 e 0 I e a f H f a a a a H a a f H a a f d 0 d I e 0 d 0 I e 0 I e 0 I e e 0 e 0 d I e 0 I d V 0 d e c K ",
"d D 0 K 0 e V 0 V e I e I e I d a H f H a a a a f H f a a H f H 0 e 0 e I d I d 0 e e I 0 I I 0 I e I d I d 0 d K e d e e K K d ",
"0 W K 0 d I 0 I 0 0 d 0 d 0 e 0 a f a a H f H f a a H a a f a a 0 V d I e 0 e 0 d I 0 I e 0 0 V d 0 e 0 e 0 e I d K 0 d d 0 e d ",
"e D e I 0 e 0 I I 0 I d 0 I V 0 a H a a f a a H a a f a a H a a I I 0 e V 0 e I 0 d 0 0 I e I e 0 I V 0 I d I e 0 e K e d e d d ",
"V D 0 d d I e 0 I e e 0 I e 0 I a f H f H a a f H f H a a f H f 0 e I 0 0 I I 0 e I e V d 0 d 0 I e 0 I e 0 d 0 d K 0 K 0 e c H ",
"0 D I 0 e e d d 0 e d d L 0 I 0 e d I d 0 I 0 e a H f H f a a H 0 I e 0 I e 0 V d I I 0 e 0 e 0 0 d 0 e 0 e I e V 0 I d 0 0 I 0 ",
"e D d e d d d e I d d e 0 L d e e d e 0 e d d d a f a a H a a f e 0 V d 0 0 I e 0 e 0 I I d I I e I d I d I d 0 0 I e 0 e V K K ",
"I D e 0 I d L 0 0 e 0 d e 0 e 0 d L 0 d e 0 e d a H a a f H f H I 0 e I I 0 d 0 e I 0 e d 0 I 0 e 0 0 e 0 e e 0 e I 0 d 0 d d c ",
"0 Y I d 0 e 0 I d I e I I d I d L 0 e I I L 0 L a f H f a a a a 0 I 0 d I e I e 0 d I 0 V e e 0 I I 0 V I 0 I I I 0 e I e e d e ",
"e D d e e e d L d L 0 e e 0 L d 0 I 0 d d I d 0 a H f H a a a H e 0 e I I 0 e 0 e I 0 e d 0 e I 0 I I 0 e I V 0 d I d e K e I d ",
"d D d d d d e 0 e d L 0 I L 0 e e d e I 0 e d e a f a a H H a a I d 0 d 0 I I d V 0 0 I I e V 0 e 0 0 V I 0 e 0 0 e 0 d d 0 d d ",
"L V e d I e d L e d e 0 d 0 d d d d 0 e d e I 0 a H a H a a H a I e e V 0 e e 0 e 0 I 0 d 0 I 0 I e I e 0 d 0 d e I e K e 0 c e ",
"d V 0 I 0 0 I 0 0 I d d I e e 0 d e L 0 L d d e a H a a a H H q 0 0 I 0 I 0 V d I d I e I e 0 I d 0 d 0 e I e I 0 d 0 d K e c d ",
"0 D d I e I d d I d d e I d 0 I L 0 e I e d d L 0 e I d q e I ! [ K a a a a a H 0 I 0 0 I 0 0 e e 0 I e d I I 0 e I 0 I 0 0 I d ",
"e Y e 0 0 d 0 e 0 e L d e 0 e d 0 L 0 d 0 I e d L 0 e 0 q / H * * 0 ) a a H a a V e e I I e I 0 I I 0 0 0 e 0 I 0 d V e e I 0 d ",
"L D d d e I L d 0 d 0 L I d 0 L I d e I e d e 0 I d I 0 ~ * q <.2.{ + Q f f H f d 0 d I d I d V d 0 0 I e I 0 e e 0 e 0 d e K H ",
"0 D d e 0 L 0 e e I e 0 e 0 L d 0 e 0 d 0 d I d 0 e 0 ' * :.f.z.l.h.6.$ ~ H a a I e 0 e 0 e 0 e I e V e 0 d V e I d I d 0 e c c ",
"e D 0 L 0 e d d I d L 0 e I d e e d I d 0 e e I e d e 0 / h.a.*.+.u.k...4 P a a 0 e I 0 I e 0 V d V 0 I d 0 e 0 d e e K e 0 K K ",
"d D L d d I e 0 e 0 0 L 0 d d e e d e 0 I d 0 L e d e 3 #.u.<..   3.v.=.; Q H H I 0 0 I 0 0 I e 0 e e 0 I e I d 0 d K 0 K d e c ",
"I D e e 0 d 0 I d e d d e 0 e 0 d L 0 d 0 d e 0 d d L E 0 = 8 | +.u.p., H H a a e V e 0 I 0 d 0 d I I 0 d 0 d I e K 0 K 0 d d c ",
"0 D d d e I e d I 0 d e I d d I L 0 e I e d d L d e 0 0 r } 6 w.v.x.-.$ ) f H a 0 d I d I e I e 0 e 0 I I e 0 e 0 d d e K e d e ",
"a m H a H a H a H a H a H a H a H a H a H a H a a a y U , $ e ,.6.r.s.@., U q e d 0 e I 0 e e V 0 e I 0 I 0 I I d 0 I 0 e 0 K d ",
"a Y f a f a f a f a f a f a f a f a f a f a f a a a U 2 $.4.H 4 X X.c.q.+ { e c I e V 0 0 I 0 d I 0 0 I e 0 0 e I e 0 I I d e d ",
"a Y H f a a H f a a H f a a H f a a H f a a H f a H ) + 8.v.;.  X o.v.q.X [ c e d 0 I 0 I I d I d I e I 0 I d I d V 0 e e 0 d d ",
"q Y a a f H a a f H a a f H a a f H a a f H a a a a U 4  .g.h.9.8.a.k.$.3 ! K 0 I e 0 I 0 e 0 e 0 e 0 d V e 0 e 0 e I 0 d e c K ",
"e V e d H f a f a f a a H f a f a f a a H f a f a a a ~ ; *.e.f.s.i.>.* / d e d e V 0 e 0 V d I e V e I d 0 d 0 K e d e e K K d ",
"e Y d e a a a H a H f H a a a H a H f H a a a H H a a a ! > X e r X - _ q e V e 0 d I 0 I e 0 e I 0 0 d V e I e d K 0 d d 0 e d ",
"0 D 0 e H f H a H a a a H f H a H a a a H f H a H a a a e _ [ t 0 ) _ 0 0 d 0 e e I e 0 0 e d 0 0 0 I I 0 e I 0 0 e K e d e d d ",
"e D d K a a f a f a f H a a f a f a f H a a f a f a f H 0 0 V E H e d I e K e 0 0 d I I 0 I I e e I 0 e I 0 0 I d K 0 K 0 e c H ",
"K D e K d K d 0 H f a f a a H f a a H f a f a a I d 0 d 0 e 0 e c e e d d 0 e 0 e I 0 e 0 e I 0 e 0 e 0 0 V d I 0 e I d 0 d d 0 ",
"d D K 0 0 e K e a a a H f H a a f H a a a H f H e 0 e I 0 V d I e c K 0 I e I d V 0 0 I I 0 0 I V d I d I e 0 e d I e 0 e I d K ",
"0 D K K K e K 0 H f H a a f a f a f a f H a a a 0 I I 0 I I 0 e e K e d I 0 0 V e 0 I 0 e V e 0 0 I e I 0 e d 0 0 d 0 d e 0 c e ",
"e D K 0 d K 0 K a a f a a H a H a H a H f a f H I e 0 V 0 e I 0 d 0 K 0 0 I e e I d I e 0 d I d e 0 0 I 0 I I e e I e I K e c d ",
"K D K K 0 d 0 e H f a f H a H a H a H a a f a a 0 e I e I e I e e d d 0 e I d 0 d 0 d 0 e I e I I 0 e I d 0 e 0 e 0 d K d K d K ",
"0 D 0 e e K K K a a a H f a f a f a f a a H f H d I d 0 d 0 d 0 K 0 I e 0 d I e V e I e 0 d 0 I 0 I 0 d I e I d K d e e 0 e c d ",
"K D d 0 d K 0 K H f H a a a H f a a H f H a a a 0 e e 0 0 e 0 I e 0 e 0 e 0 e 0 0 e I 0 e I 0 0 0 V e I d 0 d e d 0 0 K e K e d ",
"e D K e 0 e K 0 a a f a f H a a f H a a f a f H I 0 I I 0 V I e K d K d I d I d I 0 0 I V 0 e I I e 0 d I e 0 d K e K 0 d 0 e c ",
"K D 0 e d 0 e I 0 e e V 0 e I 0 0 e I e I d I d 0 d 0 e 0 e V 0 0 I I 0 0 I e 0 I e I e 0 d 0 d 0 0 I 0 I 0 e 0 e I e I d I d d ",
"d D d K I e V 0 0 I 0 d I 0 0 I I 0 d 0 e 0 e 0 e I 0 V d I 0 I I e 0 V e 0 I I d 0 d 0 e I e I e I I e 0 I I d 0 d 0 I 0 e 0 d ",
"0 D 0 e d 0 I 0 I I d I d I e I e I V e V 0 e I 0 I I 0 0 e 0 I 0 e 0 e I d V 0 0 e 0 I V 0 0 e e 0 d 0 0 e e 0 e I 0 0 d e K d ",
"K D K K I e 0 I 0 e 0 e 0 e 0 d 0 I 0 0 0 I I 0 e 0 I e d I e 0 d I d I e 0 e 0 0 V I e 0 I I 0 V d I e I 0 V d V 0 e I 0 e c H ",
"0 Y e V 0 e 0 e I 0 0 I e I 0 e I d 0 d 0 d 0 I I d 0 I 0 e e I 0 d 0 e I d 0 d I I 0 I V 0 I I 0 I d 0 e V e I I e e d K e d K ",
"d W d e 0 I I 0 0 I e 0 V 0 0 I e 0 e I e I e 0 e 0 I e d I 0 I e I 0 V e 0 e I 0 e e 0 e 0 0 e e 0 I e I 0 0 d d 0 V e 0 K c c ",
"c D d 0 I I d V e I e V e 0 I 0 0 I I 0 I d e I I e V 0 0 d 0 0 0 I I 0 0 I I 0 0 d I d I d I e I 0 e 0 0 0 I I 0 e 0 K 0 V e c ",
"e D e d 0 e 0 e 0 d 0 d I d I e I e 0 V e 0 0 I d 0 0 I e I e V e 0 I e I e 0 V e I e 0 e 0 d 0 0 I I d e I 0 e d I K e 0 e d e ",
"d V e 0 e 0 0 d e I e I d I d 0 I d 0 0 e I V 0 0 I e 0 I e e K I d 0 I 0 d 0 e K d 0 d 0 e 0 I I e I e 0 d K e 0 e d e d d d e ",
"0 Y I d I V e I 0 d 0 I 0 e V e e K e V I 0 e 0 e 0 V d 0 0 V 0 e 0 I e e I d I e K e I d I I e d 0 d 0 e e d K d I d e d e d d ",
"e Y e I d 0 e e e I 0 0 I 0 0 I d 0 K 0 0 d 0 d I 0 e I I 0 e K I e V 0 e 0 0 e d 0 K 0 0 d 0 0 0 e e d K d K 0 0 I 0 d e d e d ",
"d D 0 d I e 0 0 V 0 e I 0 I e 0 e d e d e I e I 0 I 0 d I e 0 0 d 0 0 I I I 0 V e d e d e I e V d I d K e 0 0 K e d e d d d e d ",
"d D 0 e e c e V K 0 d e e 0 e I 0 c e e 0 e e c e 0 e I q e c V K 0 e 0 0 e I d 0 c e e K e e d 0 d 0 e e 0 d K 0 d K e d L d 0 ",
"0 E d I 0 d d e e d e c I d 0 d e c 0 K K c 0 c I d 0 d c c e e 0 K 0 V I 0 e 0 d e 0 K d 0 d 0 e I d I c d 0 e e e d 0 e d I e ",
"e ( V V b D D D D D D V D D D D D D D D K D D D K D D D D D D D Y K b D V V Y D D D D D K D D D D b V D D V D V D D D D D D D d ",
"b.V V V V V V b V d V d V d d V b b b b b V b V V d d V b b b V V K V V V V V V b b b b V V b b b V V V b b b V I D d d V 0 d V "
};
