/* XPM */
static char *xpm_[] = {
/* columns rows colors chars-per-pixel */
"64 64 120 2 ",
"   c #580000",
".  c #5B0000",
"X  c #620000",
"o  c #650000",
"O  c #660000",
"+  c #6C0000",
"@  c #6D0000",
"#  c #6E0000",
"$  c #6F0000",
"%  c #700000",
"&  c #720000",
"*  c #730000",
"=  c #740000",
"-  c #7A1900",
";  c #7A1C00",
":  c #7B1D00",
">  c #791F00",
",  c #792300",
"<  c #7B2700",
"1  c #7C2600",
"2  c #7D2B00",
"3  c #7D2C00",
"4  c #7A280B",
"5  c #7C2D09",
"6  c #7F3302",
"7  c #7F350E",
"8  c #7A2A13",
"9  c #80350A",
"0  c #80340B",
"q  c #80340C",
"w  c #80350C",
"e  c #80340D",
"r  c #80350D",
"t  c #80340E",
"y  c #80350E",
"u  c #80350F",
"i  c #80360F",
"p  c #83360E",
"a  c #83370E",
"s  c #84360D",
"d  c #84370D",
"f  c #85370E",
"g  c #84360F",
"h  c #85370F",
"j  c #86370F",
"k  c #86380F",
"l  c #87380F",
"z  c #88380F",
"x  c #803510",
"c  c #803511",
"v  c #803610",
"b  c #813710",
"n  c #803611",
"m  c #803612",
"M  c #813712",
"N  c #803613",
"B  c #803713",
"V  c #813813",
"C  c #813814",
"Z  c #813815",
"A  c #8E3B10",
"S  c #813918",
"D  c #813A19",
"F  c #823B18",
"G  c #823A19",
"H  c #823A1B",
"J  c #903B10",
"K  c #833E22",
"L  c #833F25",
"P  c #843F26",
"I  c #823C28",
"U  c #823C2D",
"Y  c #834025",
"T  c #834027",
"R  c #844026",
"E  c #844126",
"W  c #864B3E",
"Q  c #88544A",
"!  c #905E53",
"~  c #906059",
"^  c #976A63",
"/  c #A88782",
"(  c #B29894",
")  c #B9A39F",
"_  c #BEAAA6",
"`  c #BFAAA7",
"'  c #BEAAA8",
"]  c #C0ACAA",
"[  c #C1ADAA",
"{  c #C5B4B1",
"}  c #C8B7B4",
"|  c #D0C1BE",
" . c #D1C2C0",
".. c #D2C4C2",
"X. c #D6CAC8",
"o. c #D7CAC8",
"O. c #D7CBC8",
"+. c #D9CECC",
"@. c #D9CFCD",
"#. c #DED4D1",
"$. c #E0D6D4",
"%. c #E6DEDB",
"&. c #E6DEDC",
"*. c #E9E1DE",
"=. c #E8E2E0",
"-. c #E9E2E0",
";. c #E9E2E1",
":. c #EAE4E2",
">. c #EBE4E2",
",. c #ECE6E4",
"<. c #EDE7E6",
"1. c #EEE8E7",
"2. c #F0EBE9",
"3. c #F2EEED",
"4. c #F3F0EF",
"5. c #F8F6F5",
"6. c #FAF9F8",
"7. c #FEFCFB",
"8. c white",
"9. c None",
/* pixels */
"9.h k k z b z h z h z b z z h h h h z h z h z b z z h h z b z z z z z z b z h h z b z z h h z z b z h z h z h h h z h z h h h z ",
"p A h h z b h z z h z b z h h z z b h h z h z b z h h z z b z b h h b z z z h z z b z h h z z b z h h h z b h z h h z b h z h h ",
"h z 7 e x e 7 7 e 7 7 e x e e e 7 7 e x e 7 7 e x e e e e e 7 7 e x e e x e e e x e 7 7 e x e e e x e e 7 7 e x e e x x 7 7 e e ",
"p h 7 p e e e 7 e p e x e e x e p x e e e p e x e e x e x e 7 p e e e x e e x e e e 7 p e e e x e e 7 p p x e e e p e e e 7 p p ",
"d z 7 7 p 7 e p p x 7 7 p x p 7 7 e p 7 e 7 p e p 7 e x p 7 7 e x e 7 p p e x p p 7 7 x p x 7 7 x p 7 7 e p 7 7 p x 7 7 x x p 7 ",
"d z 7 p 7 7 7 7 7 e 7 p 7 e 7 7 7 7 7 7 x 7 7 7 e 7 7 7 7 7 7 7 p 7 7 e 7 7 7 7 e 7 7 e 7 e 7 p 7 7 7 p 7 7 7 p 7 e 7 p e e 7 7 ",
"d z p 7 e 7 7 7 7 7 7 e x e e p x p 7 p p 7 7 7 x 7 7 7 e 7 7 p 7 7 7 7 e 7 7 e 7 7 7 7 7 7 7 e 7 7 7 x 7 p 7 e 7 7 7 e x e e p ",
"d z 7 7 p 7 e p p e 7 7 p 7 7 7 e 7 7 e 7 7 p x p 7 e p p 7 e x e 7 7 p x 7 7 p p x e 7 p e 7 7 e p 7 e e x 7 7 p e 7 7 p 7 7 7 ",
"h z e 7 7 7 e 7 7 7 e x p 7 e p x p 7 e p 7 7 e 7 p 7 7 7 7 7 7 p 7 e x 7 e x 7 7 7 7 7 7 7 7 p 7 7 e 7 7 7 e 7 7 7 e x p 7 e p ",
"p z x 7 e 7 p 7 e 7 7 7 7 7 7 7 e 7 7 7 7 7 7 7 7 x e 7 7 p e 7 7 7 7 p 7 7 p 7 e p x e p e e x 7 p x 7 e 7 p 7 e 7 7 7 7 7 7 7 ",
"h h p 7 x p p 7 x 7 7 7 7 7 7 e 7 7 7 7 e 7 7 p 7 e e p e x x p 7 7 7 7 e p p x 7 p p 7 7 7 e 7 e p p 7 x p p 7 x 7 7 7 7 7 7 e ",
"d z e 7 7 7 x e p 7 e p e 7 p x p e 7 p x p 7 e 7 p 7 7 7 p e 7 e 7 p e 7 7 7 e 7 e 7 7 7 p x 7 7 7 e 7 7 7 x e p 7 e p e 7 p x ",
"d z p 7 7 e p 7 e 7 p e p 7 e x p 7 7 x p x 7 7 7 x p 7 7 7 e 7 x p 7 7 e p 7 7 7 e p 7 7 7 p 7 7 p 7 7 7 e p 7 e 7 p e p 7 e x ",
"d z 7 p 7 7 7 7 x 7 7 7 7 7 7 p e 7 7 e 7 e 7 p 7 e 7 7 7 p p 7 7 7 7 p 7 7 7 p p x x e p e e 7 e x e 7 7 7 7 7 x 7 7 7 7 7 7 p ",
"d z 7 7 x p 7 p p 7 7 7 7 7 7 7 7 7 7 7 7 7 7 e x e e p e x p e 7 7 7 x 7 p 7 e 7 e p 7 7 e x 7 p x p 7 x p 7 p p 7 7 7 7 7 7 7 ",
"d h 7 p e 7 7 e 7 7 p x e 7 p e p x e 7 p e 7 7 p 7 7 7 7 7 7 7 e p 7 e e x 7 7 7 7 7 7 7 7 p 7 7 e 7 7 e 7 7 e 7 7 p x e 7 p e ",
"d z 7 7 e 7 7 e e p 7 e x p 7 7 e p 7 7 e 7 7 7 7 e p 7 e x 7 7 x e 7 p p e 7 p 7 p 7 7 7 7 7 7 7 p 7 7 p 7 7 x p 7 7 e p 7 e x ",
"d z 7 p p 7 7 p 7 7 7 7 7 7 7 p 7 7 7 p x p p e 7 7 7 7 7 p p x p 7 7 e 7 7 7 x 7 x e 7 7 p e 7 7 e e 7 e 7 7 e 7 7 7 7 7 7 7 p ",
"d z p e 7 7 7 7 p 7 7 7 7 7 7 x 7 p 7 e 7 p 7 7 x p 7 p 7 p 7 e 7 7 7 7 7 7 7 e 7 e e p e x x p p e x p 7 7 7 7 e 7 7 p 7 7 7 7 ",
"d z 7 7 e 7 p e x e 7 p e p 7 e e x 7 7 7 x e 7 e 7 7 e 7 e 7 7 e 7 7 p x e 7 7 7 p 7 7 7 p e 7 7 7 7 7 p x e 7 p 7 e x e 7 p e ",
"h z p x p 7 e p x p 7 e p e 7 p 7 7 7 7 7 7 7 7 e x p 7 7 7 e 7 p 7 e x p 7 7 p 7 x p 7 7 7 e 7 7 7 x p 7 7 e p 7 7 x e x 7 7 e ",
"h b 7 e 7 7 7 7 e 7 7 7 7 7 7 x 7 p e 7 e p x e 7 7 7 7 e 7 p 7 7 7 7 p x e 7 e 7 e 7 7 7 p p 7 x e e 7 e 7 7 7 e 7 p 7 p 7 7 p ",
"d z 7 7 7 7 7 e 7 7 7 7 7 7 7 e e x x p 7 p p 7 p 7 7 p p 7 p 7 7 7 7 7 7 7 7 7 x e e p e x p e p 7 e 7 p 7 e 7 p 7 7 7 7 7 7 7 ",
"d z 7 p e 7 p x p e 7 p x e 7 7 7 p e 7 7 e 7 7 e 7 7 e 7 7 0 7 e 7 p e 7 p e 7 p 7 7 7 7 7 7 7 7 7 p 7 7 7 x p 7 7 p e 7 p x e ",
"d z p e 7 7 e 7 7 p 7 7 p 7 7 p 7 p 7 7 p 7 7 x p 7 e p 7 7 e 7 x H Z p 7 7 7 p 7 e p 7 e x 7 7 p e 7 p p x 7 7 e x 7 7 7 7 7 7 ",
"d z 7 p 7 p p 7 e x e 7 x e 7 e 7 e e 7 e 7 7 e 7 7 7 7 7 p p 7 H ; 1 x p 7 7 7 7 7 7 7 7 p p x 7 7 7 x 7 e 7 p 7 p p x e p x e ",
"h z 7 7 7 e e 7 p x p 7 7 7 7 7 p e x p 7 7 7 7 7 7 7 e 7 7 s H ; ^ ! 3 7 p 7 p x p 7 p 7 p 7 e 7 7 7 e 7 7 7 e 7 p 7 e 7 p p 7 ",
"s h p e 7 7 p 7 7 e 7 7 7 p e 7 7 7 7 7 p x e 7 e 7 p x 7 7 L * / 8.| # I 7 7 7 e 7 7 e 7 e 7 7 x e 7 7 p e 7 7 7 e 7 7 7 e 7 7 ",
"s k 7 p 7 7 p 7 7 7 p 7 7 7 x p 7 7 x p 7 7 e p p 7 7 7 7 S 2 W 3.8. .# E 7 7 7 e x p 7 e 7 p x p 7 e p 7 7 7 p 7 p 7 7 7 p 7 7 ",
"d z 7 7 e 7 e 7 p e e 7 x e e 7 x e e 7 e 7 7 7 7 7 p e p I # #.&.*.X.# E p 7 p 7 7 7 7 p 7 7 e 7 7 7 7 p e e x 7 x e 7 e x e 7 ",
"d z p p p 7 e 7 7 e x 7 p 7 e 7 p 7 e 7 p 7 e 7 e 7 7 e Y # _ 7.Q =.X.+ P 7 7 7 p 7 7 p 7 7 7 7 7 7 7 e 7 7 e 7 7 e e p p x p 7 ",
"d z 7 7 7 7 p 7 7 7 p 7 7 7 p 7 7 7 p 7 7 7 x p x p 7 H ; ~ 6._ o 1.X.* E 7 7 p e 7 7 x e 7 7 p e 7 p x 7 p x 7 7 p 7 7 7 e 7 7 ",
"h z 7 7 7 p 7 7 7 7 e 7 7 7 x e 7 7 x e e 7 p e 7 p 7 H = &.@.. o :...  E 7 7 p e x p 7 e p 7 7 e 7 7 7 7 7 7 7 7 7 x p 7 e p 7 ",
"p z 7 p 7 x e 7 e 7 p 7 e 7 p 7 e 7 p 7 x 7 7 7 7 7 Y # ] 8.} ' ' 4.;.( I s 7 7 7 7 7 7 7 7 7 p x p p e p x e p x e e 7 7 7 7 7 ",
"h h e x 7 e e p x p p 7 p 7 7 7 p 7 7 7 p 7 7 7 7 p L * ] ,.;.,.:.6.5.#.U 6 7 x p 7 7 p 7 p 7 e 7 p 7 7 7 e e 7 p 7 e 7 e 7 e x ",
"d z 7 7 7 p 7 7 7 7 x e 7 7 p e 7 7 p e 7 7 p x 7 7 p x 2 4 , , # 2.X.X L 7 p x e 7 7 x e x 7 7 7 x e 7 7 7 p 7 7 7 p 7 p 7 7 p ",
"d z p 7 7 7 e 7 7 7 7 7 e x p 7 e 7 7 7 e p 7 e 7 7 7 e Z x Z H ; @.{ * L 7 7 7 e p 7 e x e 7 p 7 e 7 7 7 e p 7 x e 7 p 7 e x p ",
"d z 7 p 7 p x p e p x e 7 7 7 7 x p p e 7 7 7 7 p 7 7 p x x x x 7 8 5 7 7 p p e 7 7 7 7 p 7 7 e 7 p p e p x x e p 7 7 e 7 7 7 7 ",
"d z 7 7 7 e x e 7 p p 7 p 7 7 p 7 p 7 7 p 7 7 7 7 7 7 7 e x p e 7 Z Z p 7 7 7 7 p 7 7 7 7 7 7 7 7 x p 7 7 e p 7 7 7 7 7 e 7 7 e ",
"d h p e 7 7 p 7 7 e 7 7 e 7 7 x 7 x e 7 x e 7 p e 7 p e 7 7 7 7 x x x e 7 p e 7 x e 7 p e 7 7 p 7 e 7 7 7 7 7 7 e 7 7 p x 7 7 p ",
"d z 7 7 7 7 7 7 x p 7 e p 7 7 e 7 e 7 7 7 p 7 7 7 e p 7 e x 7 7 e 7 7 e 7 7 e 7 7 p 7 7 p 7 7 x 7 p 7 7 7 7 7 7 p 7 7 e x 7 7 e ",
"d z p e e p p e e 7 7 7 7 7 7 7 7 p p e e x e 7 7 7 7 7 7 p p x p 7 p x 7 p x p 7 e e 7 e 7 7 e 7 x e 7 7 p e 7 7 7 7 7 p 7 7 p ",
"d z p 7 7 7 7 7 7 7 7 7 e 7 7 p 7 x p 7 p x p 7 x p 7 p 7 p 7 e 7 7 7 7 7 e x e p e x p 7 7 7 7 7 e e p e x x p e 7 7 p 7 7 7 7 ",
"d z 7 7 7 p e 7 p e 7 p x p 7 e 7 e 7 7 7 e 7 7 e 7 7 e 7 e 7 7 7 p e 7 7 7 p 7 7 7 7 7 p x e 7 7 p 7 7 7 p e 7 x p 7 e 7 p x e ",
"h z e 7 e 7 7 e p 7 7 x p x 7 7 7 p 7 7 7 p 7 7 e x p 7 e 7 p x e x 7 7 7 e 7 7 7 7 x p 7 7 e p 7 x p 7 7 7 e 7 7 7 e 7 e 7 7 e ",
"h b p 7 p 7 p x e 7 7 e 7 e 7 p 7 e 7 p 7 e e 7 7 7 7 7 p 7 7 e 7 p p x 7 p p e x e e 7 e 7 7 7 7 e 7 7 7 p p 7 e 7 p 7 p 7 p x ",
"d z p 7 7 7 7 7 7 7 7 7 7 7 7 e 7 e e x p e x p p 7 7 p 7 7 7 7 7 p 7 e 7 x p 7 p 7 e 7 p 7 e 7 x e e p e x p e x p p 7 7 7 7 7 ",
"d z x e 7 p e 7 p x e 7 p e 7 7 p x 7 7 7 7 7 7 e 7 7 x e 7 7 p 7 e 7 7 7 e 7 7 7 7 p 7 7 7 x p p 7 7 7 7 7 7 7 7 7 x e 7 p e 7 ",
"d z p 7 7 7 e 7 7 7 p 7 7 x p 7 7 7 e 7 7 7 p 7 7 x p 7 x p 7 e x e 7 p p e 7 p 7 p 7 7 7 7 7 7 7 e p 7 e p 7 e x p 7 7 e 7 7 e ",
"d z p e 7 p x p p e e 7 7 e 7 7 7 p x p p e e 7 7 e 7 7 e 7 7 7 p 7 7 e 7 7 7 x 7 x e 7 7 p e 7 7 7 7 7 7 7 7 7 7 7 7 p p 7 p x ",
"h z 7 7 7 e e 7 7 e x 7 x e e p 7 e x e 7 e x 7 x e e p 7 7 7 7 7 7 7 7 7 7 7 e 7 e e p e x x p e 7 e x p 7 7 7 7 7 7 x 7 7 7 7 ",
"s z e 7 7 7 p 7 7 7 p 7 p 7 7 7 7 7 p 7 7 7 p 7 p 7 7 7 p e 7 p e 7 7 p x e 7 7 7 p 7 7 7 p e 7 p 7 7 p x e 7 p e p 7 e 7 p e 7 ",
"s k 7 p 7 7 p 7 p e 7 p 7 e p 7 7 7 e 7 7 7 e 7 7 7 e p 7 7 e x p 7 e x p 7 7 p 7 x p 7 7 7 e 7 7 7 e x p 7 7 e 7 7 e 7 e 7 7 7 ",
"d z 7 7 e 7 e 7 7 7 7 x 7 7 7 7 7 p p 7 e 7 p 7 e 7 7 7 e 7 7 7 7 7 7 p x e 7 e 7 e 7 7 7 p p 7 e 7 7 7 7 7 7 7 7 p x 7 x p p e ",
"d z p p p 7 e 7 7 7 7 e e 7 e x e x p e x p p 7 p 7 e 7 x 7 7 7 7 7 7 7 7 7 7 7 x e e p e x p e x 7 7 7 e 7 7 p e p p 7 7 p 7 7 ",
"d z 7 7 7 7 p 7 x e 7 7 p 7 7 p 7 7 7 7 7 7 x e 7 7 x p p 7 e p e 7 p e 7 p e 7 p 7 7 7 7 7 7 7 p 7 e p p 7 e x 7 7 e 7 7 x e 7 ",
"h z 7 7 7 p 7 7 p 7 7 e p 7 e x 7 7 e 7 7 e 7 7 7 7 7 7 7 p 7 7 x p 7 7 e 7 7 e 7 7 7 7 7 7 7 7 p e 7 p e 7 p e 7 e p 7 7 p 7 7 ",
"p z e 7 7 e 7 p 7 7 7 7 7 7 7 p 7 p p 7 7 p 7 p 7 p e 7 7 e 7 p 7 7 7 p p 7 p x p e e p p e p e 7 7 7 e p 7 7 7 p x x e 7 e e 7 ",
"h h e p 7 e 7 e e 7 7 p 7 7 7 7 7 e e 7 7 p 7 e e p e p 7 e 7 e 7 7 7 x 7 7 7 7 7 7 7 7 7 e p 7 7 7 7 7 7 7 7 7 7 e p 7 p e x p ",
"d z 7 7 7 p 7 7 p 7 e x e 7 p e 7 7 p 7 7 e 7 7 7 7 7 7 7 p 7 7 e p 7 e 7 p e 7 7 p e 7 7 7 7 7 p e 7 p e 7 p e 7 7 7 7 7 7 7 7 ",
"d z p p 7 p 7 p 7 7 7 7 x 7 7 e 7 7 7 7 7 7 7 7 7 7 7 7 7 p 7 p 7 7 7 7 e 7 7 7 7 p 7 p e 7 p 7 7 e x p 7 7 p 7 7 p 7 7 7 x p 7 ",
"d h 7 7 7 s 7 7 e 7 p s p 7 7 p p p e p 7 p 7 s e p x e 7 s 7 7 e 7 p p x p p e 7 s 7 7 p 7 7 s 7 7 7 7 7 s 7 7 7 e 7 s 7 e 7 7 ",
"s J h h z z h z h z h z z z b z z z h z h z z z h z b z z z h z h z z z h z b z z z h z h h z h z z b z z z z z h h z z h z b z ",
"9.h h h h d h d h h h h h h h h d h d h d h h h h h h z h d h d h h h h h h h h h d h d h h h h h h h h h d h d h h h h h h h z "
};
