/* XPM */
static char *xpm_[] = {
/* columns rows colors chars-per-pixel */
"64 64 156 2 ",
"   c #3D0000",
".  c #610000",
"X  c #620000",
"o  c #640000",
"O  c #660000",
"+  c #6B0000",
"@  c #6C0000",
"#  c #6D0000",
"$  c #6E0000",
"%  c #6F0000",
"&  c #700000",
"*  c #710000",
"=  c #740000",
"-  c #770000",
";  c #781300",
":  c #7A1700",
">  c #791B00",
",  c #7A1F00",
"<  c #7A2000",
"1  c #782200",
"2  c #7B2300",
"3  c #7B2400",
"4  c #7B2501",
"5  c #7D2700",
"6  c #7D2800",
"7  c #7C2900",
"8  c #7D2A00",
"9  c #7E2D00",
"0  c #7E3000",
"q  c #7F3305",
"w  c #7F3307",
"e  c #7F3407",
"r  c #7D2E11",
"t  c #80340A",
"y  c #80340B",
"u  c #80340C",
"i  c #80340D",
"p  c #80350D",
"a  c #83360D",
"s  c #83370D",
"d  c #80340E",
"f  c #80350E",
"g  c #81350E",
"h  c #80350F",
"j  c #82350E",
"k  c #80360E",
"l  c #81360E",
"z  c #82360E",
"x  c #83360E",
"c  c #83370E",
"v  c #82360F",
"b  c #84370D",
"n  c #85360E",
"m  c #85360F",
"M  c #84370F",
"N  c #85370F",
"B  c #86370F",
"V  c #85380F",
"C  c #87380F",
"Z  c #88380F",
"A  c #89380F",
"S  c #89390F",
"D  c #8B390F",
"F  c #8D3A0F",
"G  c #803510",
"H  c #803610",
"J  c #803611",
"K  c #803711",
"L  c #803612",
"P  c #803712",
"I  c #803613",
"U  c #813713",
"Y  c #863710",
"T  c #813715",
"R  c #813815",
"E  c #813916",
"W  c #813817",
"Q  c #813917",
"!  c #80311C",
"~  c #813918",
"^  c #823A1A",
"/  c #823A1B",
"(  c #813A1D",
")  c #823C1E",
"_  c #833D1F",
"`  c #913C10",
"'  c #833D20",
"]  c #833F24",
"[  c #833F27",
"{  c #823D28",
"}  c #834025",
"|  c #834026",
" . c #844027",
".. c #844127",
"X. c #864833",
"o. c #874937",
"O. c #884C38",
"+. c #894D38",
"@. c #884E43",
"#. c #8E5A52",
"$. c #8F5C53",
"%. c #8F5F57",
"&. c #915D51",
"*. c #925F55",
"=. c #926055",
"-. c #936157",
";. c #946257",
":. c #986F66",
">. c #9B756F",
",. c #997570",
"<. c #9E7871",
"1. c #9F7D78",
"2. c #A37E79",
"3. c #A3807B",
"4. c #A48682",
"5. c #A58683",
"6. c #AC908B",
"7. c #B39C9A",
"8. c #BFACA8",
"9. c #C0AAA6",
"0. c #CABAB7",
"q. c #CBBAB7",
"w. c #CDBDBA",
"e. c #D0C1BE",
"r. c #D3C5C2",
"t. c #D5C8C6",
"y. c #D6CAC7",
"u. c #D8CDCA",
"i. c #DCD1CE",
"p. c #DDD2CF",
"a. c #DED5D3",
"s. c #DFD5D4",
"d. c #E1D8D6",
"f. c #E4DCDA",
"g. c #E5DEDD",
"h. c #E8E1E0",
"j. c #E9E2E0",
"k. c #EAE4E3",
"l. c #EBE5E3",
"z. c #ECE7E6",
"x. c #F0EBEA",
"c. c #F1ECE9",
"v. c #F1ECEA",
"b. c #F4F1F0",
"n. c #F7F4F2",
"m. c #F8F5F3",
"M. c #FBF8F6",
"N. c #FAF8F7",
"B. c #FBF8F8",
"V. c #FDFBFA",
"C. c #FDFBFB",
"Z. c #FDFCFB",
"A. c #FEFCFB",
"S. c #FFFEFC",
"D. c #FFFFFE",
"F. c None",
/* pixels */
"F.m m V V V V V V V V V V V V V Y V V V V V Y Y Y c Y V Y K Y V V V Y c Y V V V Y V V V V V K V V V V V Y Y K V V V V V V V V c ",
"g F g c m g g V c c m g c c c c m g c c c c Y P c c c c Y K V c c c c c c c c c Y K c c c c c c V c c c Y K V c c c K ^ V V V c ",
"e A g e d g e g e e P g d P e P G d d G e g e e K K e r c e c K e c e c K K e r e E K r e c e c e e c e c e c K c r E e K r c c ",
"P A P P G G P d P g P d g e g P P e g G P P P g c e c K K K e r K K r K c e c K e c K e r K K K E c K r K r e K e e c e c e g c ",
"G A P G d g P G d G e g e G d g P G d P G P d G e r r K K c c e K e r E e K c e K c e c c K e c r K r K c e e K g d P e e g c g ",
"d A e g P e e g g G P d P G P e e g g e G e g P K K e c r e K K K c K e r K E e r e K K e K r K e c E e K K c K e G G g K K g c ",
"d A g P G e P d e P P G G G G d G d g d d g g e c K c K K K K r K c c e c K r K K c c K r K e K K e r e K r K r P G e P e g c g ",
"d A e P d g G G d G e g d P e g G P e G P e d G e r e K c e c e r e K r e K e c K r e K e c c K K c K c c e c e g d g P P g g V ",
"d A G P P e G P g e G G d P G d G d g G d g P G g d P e e g P e K r K c K c e c e K c e K c e r d G e g g d e g e P G d g G g g ",
"d A G e G g d e G P P e g e e g G P e P P e e g e G G g P d G g c e K e r e K K r K E e r e e E g G P d e G P d G G G P e P g m ",
"d A d g G d d g G e P g P e P G g e e g G g e d P G G d G G G d c K K K K c c K c K r K K c c K e P P G P G G G d P G e g g g m ",
"g A G P e g G G d g G d G g d G d G P d G d P G g d P e g d G P e r e c K r e K e K e c K K e r d G e g d G P e g e d g g g g g ",
"e A P d P G d P G P d G d P G G d g e G d G e g e G d g e P G e r K E r K c c e r K e r K c c e g G G d g e P g e g e g g P g g ",
"P A e g e g g e G e g P g e g d G P P G g G P d P G P e g d d g e c e e K e K r e c c K r e K r e P e g d G G d P d P P e P g m ",
"e A P G G d g d d g g e P e e P g e P e e P P G G G G d G G d G K c e c K r K e e K c K K K K e G P P G P G G P G G e P g g c g ",
"P A g d G P e G P e d G G g d G d G G g d G e g d P e g P e g P K K r K c e K c E r e K c e K c G e g d e g d e g d g P e g g V ",
"G A e P G e P G G d g G d g P G G d e P G e P G P G d P G G g e P e G G G P d G d G g d d G e g d P G d P G d P G G g e P g g g ",
"d A g d d g d G G P e P P e e g e g g d d g d G e g g e g d d G G g d P G e g P g P e G g G P d g e e g e g g e g d d G G d g m ",
"d A g P e g g e g e e g G g e d P g e G e g g e G d g d e d g G d g g e d g g e e P P G e P P G P e P G G d g d e d g G e g g m ",
"d A e P P d G P d G P d G d P G G d P G P d G P G P e G P G e P P e d G P e d G G G e g d G e g G g d G G P e G P G e P P g c g ",
"d A G P G g e P d g e G d G e g e g G P G g e P G G d P P e d P G g e P G d g G d P G d g e P d d g P G G d e P d G e g P P g g ",
"d A G e G d d G G P P G g G P d P d G e G d d G P e g e d g d P G d d G P e e P g e e g d G G G P e e g e g g d g G P P g e g m ",
"d A d g g d g e g e P e e P P G G d d g g d g e d g g d g e g e g d g e d g e g P e P G e P G P G g e d P g e G e P g e g g g m ",
"g A G P e G G P d G G g d G e g e g G P e G G P G P e G G P g g e G G P G G P d G g d G g d G e G d P G G d P G d G P P e g c g ",
"e A P d P G G e P g e P g e P d P d g e d g e d g G G d g P E E / ~ E g g P P g e P G g e P d g G P d G G P d G g e G G d P P m ",
"P A e g e g d g G d G G d G G G G G G P G G P G e P e g P 0 1 , , , 1 g g e P e g d G d d G G P G e g P d e g G G P P e g e g g ",
"e A P G G d d G g d d g e P G P d G d g e P P e P e P P 0 o.;.*.*.-.&.P d G d g P G G G g G G e d g g e g e e P G e P g e g g m ",
"P A g d P e g G e G P e g d G e g G P e g d G g G g d [ * 9.Z.n.m.B.v.O.8 W P e e g d P e P d g P e d G G P g d d g G d P g g m ",
"G A e P G d e P P G d g e P d g e P d g e P G d d g g ..@ r.l.,.5.5.1./ w P g e e P G e P e G P G e P G G d g G d P P P g P g g ",
"d A g d e g g d d G G G d G G P d G G P G G G P P e g } + a.u.  O X * ~ y g g P g d d g G g d e d g d G G P e P g e g e e P g m ",
"d A g P P d g G g G d P g G G e g G G e d P G e G g r _ * d.a.0.g.w.#.: ~ g e P G G d G G d d g e g g e g e e g e P P g g g g m ",
"d A e P G G e P e P g e e P d g e P d g g e d g G d K E 1 j.Z.a.y.B.b.#.8 ~ d G P e g P e g G G P d G P d G P d G G e g g g g g ",
"d A P e e g G P G P d G G P d G G P d G G G g d g d g P 8 3.<.@ X %.Z.q.@ ..P g d g e d g e G G d P G d P G d P G G g e P g g g ",
"d A G g P d G e G e g P d e g G d e g G d P e G g d P t { { ; X.+.= z.p.* } g g G G P G G P P e g e e g e g g e g d d G G d g m ",
"d A G d G d d g d g g e g e e P g e e P g e e P e P ~ ; >.B.6.X @ r B.e.@ { e P e P P e G e P g P e P G G d g d e d g G g g g m ",
"g A G P e g G P P e d G G P g d G P g d G P g d g d P P 8 l.C.8.7.j.Z.:.> ' e g g d G g d g G d G g d G G P e G P G e P g g g g ",
"e A P d P G G e G e P G G d g G G e P G d g e G e G d ~ 1 @.t.x.v.g.2.- ' g e P g e P d g d P e d g P G G d e P g d P e e g g g ",
"P A e g e g d g d g d G G P e P d g g d G P P G P G g d ~ 8 * 4 ' & - ' y g e g d G G G e G G g P e e g e g g d e d P g K P g m ",
"e A P G G d d G e g g e g e e g e g e P g e P e G P e P d T [ g 9 ' / e P e P G e P G P P G G d G g e d P g e G P d P P e g c g ",
"P A g d P e g G P d G P d G P d P d G G d G G g d e g d d P e P T r g d G g d G g d G e g d P e G d P G G d P G e g e g P g g V ",
"G A g e P g e P d g e d g e G G G d e P G g e P g e P d g e G d P P G d G G d P G e P G e P G g d G g d d G e g P G d g e d g g ",
"G A d d G d d G G G P G G P P e e g g d G d d G d G G G G P P e g e e g P e g e d g d G g d G d g P e G g G P d d G G G P G g m ",
"d A g P g d g e e P P e G e P g P d g G g d g e e P G P d P G g G P P G d g g d e g g e P G G G e P P G e P P G g G d P g g g m ",
"d A e P e G G P g d G g d g G d G G e P e G G P g d G e g e G d G e g d G P e G P d G P e g d P G G e g d G e g e P g e g g g g ",
"d A P e P g e P g e P d g d P e e g P e P g e P g e P g e g P e d g P G d g P G G G g e P G g e d P G d g e P d d d e g g P g g ",
"d A G g G d G G d G G G e G G g P d G g G d G G d G G d P d G g P e e g P e e g g d d G g d d G g e e g d G G G g P P P e K g m ",
"d A G d g d d g e P G P P G G d G G G d g d d g P G G P G G G d G e P d G g e d e d g G e G d P P e P G e P G P e P e P g g c g ",
"g A G P e G P e g d G e g d P e g d G P e G P e e g d e g d G P d g G G G d P G P G e P P G g e G g d G g d G e g d g P e g g V ",
"e A P d e P G e P G d g e d g e G d g G d g P G G e P G e P G e G P d G G G g d g d e g g d P e d P G G P G G e P G g e P d g g ",
"P A e g g d d g d G G G P G G P G P e P P e e g d g g d g d d g d e g G d P e G e G P d e G G g g e g d e g d g g d d G G G g m ",
"e A P G G G d G g G d P d G G d g e e g G g e d e g e P G G d G g e e P g e e P P G G G P G G d P e e P G d d G e G d P g g g m ",
"P A g d P e g P e P g e g P e g d G P d G d P G P d G G P e g P G P g d G P g d d G P e g d P e G g d G P e g G P G g e g g g g ",
"G A g e P G g e d G e g e G d g d g e G d G e g G d e P G G g e G e P G d g e G g G d g e P G g G d e P G d e P P e e g g P g g ",
"G A d d g d d G g G P d P G P e G P P G g G P d e g g d g d d G d g g d G P P G e P P e g d G d e g g d e g g d G g P P e K g m ",
"d A g P e d g G e P P G G G G d g e P e e P P G P d g G e d g G e g e P g e P e G P G G P G G G P g e G P d g G G d e P g g c g ",
"d A e P P G e P d G e g d P e g d G G g d G e g G G e P P G e P P d G G d G G g d e g d e g d P G d P G G G e P e g g P e g g V ",
"G A e g g d P e g e G G d P G d g e P g e P G d e g G P P e G P G d e P G g e P P G G e P G g e d G e g g d e g P G g e P d g g ",
"d A P d e d P g G P P e g e e g d G G d G G G P P d G e G g d e e g g d G d d G e g d g g d d G g G P d e G P d g d d G G G g m ",
"d A G G P G e P G e P g P e P G e P P e d P G e G d d g G d d g P d g G g d g e G d d P e G d P e P P G P G P P e G d P g g g m ",
"g A P e g d g P d g G d G g d G g d P g g e d g e g G P e g P P G G e P e G G P P e g P P G g e d G e g d G e g P G g e g g g g ",
"r A c g g e P P e g g P d P G G g e g P e g g P P d g e P g e e P e e g P g e P P g e e e g g P g G G d g e P P P e e g g P g g ",
"g V P e g g g e P P e e g e g d g g e P P P e e G G G P e g P g g g P g G d G G e g P g P P e e e P e g g g g e P g K g e K g g ",
"g ` Y A A A A A A Y A A A A Y A A V V A A Y A A A A A Y A A A A A Y A A A A A A A A A A A A A A A A Y A A V A A A V A A A A F g ",
"F.V g c y V V g V m b b V y m m b m V c m m b b b g m m b b s c m V b V y m m g b V y m m P V V g V g Y b b s b m m y V c c m V "
};
