/* XPM */
static char *xpm_[] = {
/* columns rows colors chars-per-pixel */
"64 64 130 2 ",
"   c #600000",
".  c #630000",
"X  c #670000",
"o  c #6B0000",
"O  c #6D0000",
"+  c #6F0000",
"@  c #710000",
"#  c #720000",
"$  c #730000",
"%  c #740000",
"&  c #750000",
"*  c #760000",
"=  c #770000",
"-  c #781000",
";  c #791100",
":  c #771F00",
">  c #7A1A00",
",  c #7A1E00",
"<  c #7A1F00",
"1  c #7B2200",
"2  c #7C2200",
"3  c #7C2500",
"4  c #7C2600",
"5  c #7E2600",
"6  c #7E2D00",
"7  c #7E2E00",
"8  c #80350A",
"9  c #80340B",
"0  c #80340C",
"q  c #80340D",
"w  c #80350D",
"e  c #80350E",
"r  c #80350F",
"t  c #81360F",
"y  c #82360E",
"u  c #84370E",
"i  c #85370F",
"p  c #86370E",
"a  c #86370F",
"s  c #85380E",
"d  c #86380E",
"f  c #87380F",
"g  c #88380F",
"h  c #89390F",
"j  c #803510",
"k  c #803610",
"l  c #803611",
"z  c #803612",
"x  c #813713",
"c  c #813714",
"v  c #813812",
"b  c #813815",
"n  c #8E3B10",
"m  c #80371F",
"M  c #813919",
"N  c #823A19",
"B  c #81391A",
"V  c #823A1A",
"C  c #823A1B",
"Z  c #823B1B",
"A  c #823B1C",
"S  c #823B1D",
"D  c #823C1E",
"F  c #833C1E",
"G  c #823C1F",
"H  c #833C1F",
"J  c #833D1F",
"K  c #903C10",
"L  c #833D20",
"P  c #833E22",
"I  c #833F24",
"U  c #844128",
"Y  c #854336",
"T  c #884D41",
"R  c #905E57",
"E  c #936152",
"W  c #906257",
"Q  c #916257",
"!  c #92655E",
"~  c #93655E",
"^  c #94685F",
"/  c #956A60",
"(  c #9C7670",
")  c #A0807C",
"_  c #A3807C",
"`  c #A4837E",
"'  c #A58581",
"]  c #A78883",
"[  c #A98D89",
"{  c #AB8F8B",
"}  c #AF9490",
"|  c #B49B97",
" . c #B49E9C",
".. c #BAA29F",
"X. c #B9A3A0",
"o. c #BAA5A3",
"O. c #BCA6A3",
"+. c #BDA8A5",
"@. c #BFA8A4",
"#. c #C4B3B0",
"$. c #CAB8B3",
"%. c #C9B8B5",
"&. c #CDBEBC",
"*. c #CEBFBD",
"=. c #D5C9C7",
"-. c #D8CDCB",
";. c #DACFCD",
":. c #DBD1CF",
">. c #E6DFDD",
",. c #E8E2E0",
"<. c #EAE3E1",
"1. c #EDE8E6",
"2. c #EDE8E7",
"3. c #EEE8E7",
"4. c #EFE9E8",
"5. c #F3EEEC",
"6. c #F4F1EF",
"7. c #F7F3F1",
"8. c #F5F3F2",
"9. c #F6F3F2",
"0. c #F6F3F3",
"q. c #F7F4F3",
"w. c #FAF7F6",
"e. c #FAF8F7",
"r. c #FCFAF8",
"t. c #FEFDFC",
"y. c #FFFEFD",
"u. c #FFFFFE",
"i. c white",
"p. c None",
/* pixels */
"p.p.p.p.p.p.p.p.p.p.p.p.p.p.p.p.p.p.p.p.p.p.p.p.p.p.p.p.p.p.p.p.p.p.p.p.p.p.p.p.p.p.p.p.p.p.p.p.p.p.p.p.p.p.p.p.p.p.p.p.p.p.p.p.",
"d K d h N n n h h h N n h h h h s Z n h h n n Z n h h h n J n s h h h n h h h h s v n s s n n s n s s n n J n h h h h n h h K h ",
"u q q q 7 A 7 A u D 7 Z 7 D u 7 v 7 M 7 v v 7 7 7 N t 7 Z 7 v Z t v 7 N 7 v v 7 M v 7 v 7 7 N N N 7 7 N N 7 7 N t 7 N N 7 Z 7 Z ",
"v n k q A 7 A 7 7 7 D 7 Z 7 D 7 M 7 v v 7 v N v N 7 v N 7 Z 7 7 7 N N 7 N N 7 N 7 v M M N v v 7 7 v N 7 7 v Z 7 7 N v 7 Z 7 h h ",
"g g q q k q 7 Z 7 v N 7 7 D 7 Z v 7 v M M 7 7 v v 7 7 N v 7 7 N Z 7 v Z 7 7 N 7 M v 7 7 7 v v M Z v 7 Z v 7 Z v 7 Z 7 Z 7 Z N s ",
"p g k q v q Z 7 N Z 7 v Z 7 Z 7 M 7 v 7 v v v M v N N 7 v N v Z v N 7 7 Z v v Z 7 v M v M M 7 7 N 7 N 7 7 N 7 N Z 7 Z 7 Z 7 s t ",
"p g q q q u 7 Z 7 Z 7 Z Z 7 N 7 M v 7 v 7 M v 7 7 N v v 7 Z v 7 7 N 7 N N 7 7 N 7 v v M v 7 v v 7 7 N v Z N 7 7 v 7 7 Z 7 t h t ",
"v g q q q q b 7 7 v N 7 v N 7 N 7 v M M 7 v M 7 N 7 7 N N 7 7 N Z 7 v Z 7 v Z 7 v M 7 7 v M 7 v Z v 7 Z v 7 Z v 7 Z N 7 N t t h ",
"s v v M v M M 7 N 7 7 Z 7 Z v 7 7 M v v 7 M v v Z 7 7 Z v Z 7 Z v 7 Z v 7 Z v 7 Z v 7 M v 7 M M 7 v Z 7 N 7 7 N Z 7 Z v 7 Z v h ",
"s Z 7 7 7 7 v v v Z v Z Z 7 7 Z v v 7 M 7 v v 7 7 v Z 7 7 7 Z 7 7 N N 7 Z 7 7 Z 7 Z 7 v v v v 7 Z Z 7 Z 7 v Z 7 v Z 7 N N 7 h v ",
"s h M v v v 7 M 7 Z v 7 7 Z Z 7 v 7 M 7 M M v v Z 7 7 Z Z 7 Z v Z 7 7 Z v v 7 Z v 7 M v v 7 M 7 7 Z v 7 Z v Z v 7 Z 7 7 P 7 v h ",
"v h 7 v M 7 v M N 7 7 N Z 7 v Z M 7 v v v 7 7 M v Z v Z 7 Z 7 Z 7 Z 7 v 7 v Z 7 v v M 7 M 7 v v Z 7 Z 7 N 7 7 N Z 7 Z v 7 7 h t ",
"s h t 7 M v 7 7 7 Z Z 7 7 7 Z 7 v 7 M M M 7 7 v 7 Z 7 Z 7 Z v 7 Z v Z v 7 Z 7 Z 7 M v 7 M v 7 M v 7 Z 7 7 N 7 7 D 7 Z 7 Z 7 J h ",
"s s 7 N 7 v M v Z 7 v Z Z v 7 Z M 7 v 7 v v M Z Z 7 7 v N 7 7 Z Z 7 7 Z Z 7 v Z 7 v M 7 v 7 v M 7 Z v Z v Z Z v 7 Z 7 D 7 Z v v ",
"h h N 7 7 v Z 7 7 Z Z 7 7 Z Z v M v 7 v 7 M Z 7 7 v Z 7 Z v v Z 7 Z v 7 7 7 Z 7 M M v v v v 7 7 v Z 7 Z N 7 7 N Z N Z 7 D 7 h h ",
"h J 7 Z v Z 7 Z 7 v 7 v Z 7 Z 7 7 v v M 7 v 7 v v Z 7 Z 7 N 7 7 Z 7 7 Z Z v 7 Z v 7 7 M 7 M M v 7 7 Z 7 7 v Z 7 N 7 7 D 7 7 h t ",
"v h 7 P 7 7 P 7 v 7 M M v 7 v v 7 M v 7 M v v v 7 N 7 7 N 7 7 N 7 v v M v M M 7 7 v v M v M v 7 Z 7 Z v 7 M v v 7 M v 7 M v v v ",
"h v P 7 7 I 7 Z v 7 v 7 v M 7 v 7 v M 7 v 7 M 7 N 7 Z v v Z v Z M M 7 7 7 7 v v v M 7 7 7 7 v v 7 Z Z 7 v M 7 v 7 v M 7 v 7 s s ",
"h h 7 I Z 7 Z 7 M v 7 v 7 7 M M M M v v v v v 7 Z N Z 7 7 Z v 7 v 7 M v M v 7 M v 7 M v M v 7 M Z 7 7 Z v 7 M 7 M M v v 7 N v s ",
"h h 7 7 7 Z 7 Z 7 v M M M v v 7 v 7 7 M 7 7 v M 7 D 7 Z N 7 7 N v M 7 v v 7 v M v M 7 v M 7 v M 7 v Z 7 M 7 v v v 7 7 M Z 7 s s ",
"v h 7 N P 7 Z 7 Z v 7 7 7 Z 7 v 7 v v M M M v 7 Z 7 Z 7 A 7 Z 7 7 7 v v v v 7 7 7 7 M v v 7 v 7 Z 7 v 7 M v 7 M 7 N Z 7 7 Z v h ",
"h v Z 7 7 Z v Z 7 Z M v Z 7 Z Z M M 7 7 v 7 v M 7 D 7 D 7 Z 7 Z M v 7 v 7 v M v M v M 7 M 7 v v v Z M 7 M 7 v M N Z 7 Z Z 7 h v ",
"h v Z v v Z 7 Z v 7 Z 7 v 7 Z 7 v 7 v v 7 v 7 M Z 7 D 7 A 7 N 7 v 7 M v 7 M v v v M v 7 M v 7 v 7 7 Z v v v 7 7 7 N Z 7 P 7 v h ",
"h s 7 N 7 7 Z 7 v 7 v Z 7 Z 7 Z v M 7 v M M 7 v 7 Z 7 A 7 A 7 v v v M 7 v M 7 v 7 7 v M 7 v M M v v 7 Z 7 M v v Z 7 7 Z 7 7 h t ",
"h h 7 7 D 7 Z N 7 Z v 7 7 Z 7 7 7 7 M v 7 v v M v v 7 v v 7 b 7 v 7 7 I 7 Z 7 D 7 M v v 7 M v 7 Z 7 7 N 7 v N 7 v 7 Z v 7 Z v v ",
"t h 7 D 7 Z N 7 N 7 7 N Z 7 Z v M v v 7 v M v 7 7 M 7 v b 7 U U Z U U 7 P 7 Z 7 v M 7 M 7 v M 7 7 v Z 7 N Z 7 v 7 N 7 N Z 7 s s ",
"h n D 7 Z 7 Z 7 v Z Z v Z v Z 7 M 7 v v v 7 M 7 M 7 M v 7 U $ $ : . 4 7 7 Z 7 Z v 7 v 7 M v v v Z 7 Z v 7 Z 7 Z Z N 7 7 D 7 v h ",
"v J 7 Z 7 D 7 Z 7 7 N 7 7 Z 7 v v v M 7 M 7 v v v v M 7 Z % | >.2.:.W - U 7 D 7 M 7 v v v 7 7 M v Z 7 N 7 v N 7 v 7 Z v 7 7 h t ",
"v n Z 7 Z 7 D 7 N 7 7 N 7 Z 7 Z 7 v v 7 M v 7 M 7 M 7 U + +.i.-.+.8.e.T 7 7 Z 7 7 Z 7 Z Z 7 Z 7 7 Z 7 Z v 7 N v 7 Z 7 Z Z 7 J h ",
"t h 7 Z 7 Z 7 Z v Z v Z 7 v Z 7 7 v M 7 M 7 v M 7 v N 7 Y r.=.    ! ,.{ @ I 7 Z v Z Z 7 v Z 7 v Z 7 7 v Z 7 7 Z Z 7 Z 7 7 D v h ",
"h h u 7 Z 7 D 7 7 Z v 7 Z 7 Z Z M M v v v v 7 7 M M I + { u.! $ W 1 . 7 7 N Z 7 Z 7 v Z 7 Z 7 Z 7 v Z 7 7 N N 7 7 Z 7 Z 7 N v v ",
"d v 7 b 7 Z 7 Z N 7 7 N 7 Z v 7 v 7 7 M 7 v M v v 7 I X o.e.%.2.0.6.o.- U 7 N Z 7 Z 7 7 Z 7 Z 7 Z Z 7 Z v Z 7 N 7 N Z 7 N 7 h h ",
"s v v M v M M 7 7 v v M v v M 7 v Z 7 v Z 7 N 7 7 b I $ ..i.2.o.( :.i.( = U q k M v 7 7 M v 7 M v v v 7 v 7 M M v 7 7 M v v v v ",
"v Z 7 7 7 7 v v M M 7 7 7 7 v v 7 7 N Z v N 7 N N 7 L $  .i.W X % 9 w.*.@ U q q 7 v v v M 7 v M 7 v v M M 7 v 7 v M v v 7 M v 7 ",
"s s v v M v 7 M v 7 M v M v 7 M N 7 N 7 7 N 7 Z 7 A N ; ( i.{ X S 2 q.*.o U u 7 7 M v M v v 7 7 7 v 7 M v v 7 v 7 7 M v 7 N n v ",
"h s 7 v M 7 v M v v 7 v M 7 v v v Z 7 v Z 7 D 7 A 7 k N % ,.8./ > #.i.] % U A 7 v M 7 7 7 M M v M v 7 v 7 v M M M v v 7 N 7 s s ",
"h v 7 N M v 7 7 7 7 M v v 7 M v 7 Z v 7 7 D 7 Z 7 A 7 U 1 ! 1.r.5.i.%.% A k q q 7 M v v Z 7 7 Z v 7 M v 7 v v 7 N 7 7 N v 7 J v ",
"h h N 7 7 v v v M v M 7 M 7 v 7 N 7 7 N Z 7 Z 7 A 7 Z 7 Z 1 4 ) } / % Z v k q k v v 7 M 7 v Z 7 v M 7 v 7 v M 7 7 v Z 7 7 N h s ",
"v h 7 Z 7 M 7 v v M v 7 M v 7 v v Z Z v 7 Z 7 Z 7 A 7 A v I Z X $ < U 7 b 7 q k v 7 7 Z Z 7 7 Z 7 7 M M M M v v Z v 7 N D 7 v h ",
"h h Z 7 v v v M 7 7 v M 7 v M M 7 7 N 7 D 7 Z 7 D 7 A 7 7 M 7 D L N b 7 v v q q Z 7 Z 7 v Z v Z M v v 7 v 7 7 M N 7 N Z 7 7 h t ",
"v h 7 P 7 Z 7 Z 7 M v v 7 M v 7 Z 7 Z 7 Z v 7 Z 7 M v v 7 M M v q q q k Z N 7 N 7 7 N 7 v 7 Z 7 7 Z Z 7 Z 7 v Z 7 Z N 7 Z N v v ",
"h h I 7 Z 7 Z 7 v M 7 M 7 v M 7 7 Z 7 v 7 Z Z 7 v b 7 M 7 v 7 v q k q q 7 D N 7 Z v v Z Z 7 7 Z Z 7 v Z v N 7 7 7 v 7 v v 7 h s ",
"t h 7 7 7 Z 7 P v 7 M 7 M M v v Z Z 7 Z Z 7 7 Z v 7 M 7 b 7 b M v q k q Z 7 D 7 N 7 7 N 7 Z Z 7 7 Z Z 7 7 N 7 N N v 7 Z P 7 v h ",
"h h 7 P Z 7 Z 7 v 7 v v v 7 7 v v 7 Z 7 7 Z 7 v M 7 v v v v v 7 7 q k q 7 Z 7 Z 7 v Z 7 Z 7 v Z 7 v 7 v Z 7 v Z 7 Z N 7 7 7 h t ",
"v h Z 7 7 Z N 7 7 v v M v M v 7 M 7 7 v Z Z 7 Z 7 b v b v M b 7 b v Z 7 A 7 Z 7 Z v 7 Z v 7 Z 7 Z 7 Z v 7 Z v 7 Z 7 D 7 Z 7 J h ",
"s J 7 Z Z 7 7 N v M v 7 7 7 v v v v M M v 7 Z 7 v M v 7 7 7 v v b 7 7 Z 7 A 7 D N 7 N 7 7 N 7 v 7 Z Z 7 N 7 7 N N Z 7 Z 7 Z v v ",
"s h v 7 7 Z N 7 v 7 M 7 M v 7 M 7 M v 7 Z 7 v 7 v 7 M 7 M v b v v 7 Z 7 A 7 Z 7 7 7 N v Z Z 7 Z Z 7 7 Z Z v v Z 7 N Z 7 D 7 h h ",
"v h Z 7 Z 7 v Z M 7 v v M 7 v M 7 v v 7 v Z 7 Z M 7 v v b 7 7 v 7 N 7 Z 7 D 7 Z Z v 7 Z v 7 Z 7 7 v Z 7 7 N 7 7 N 7 7 D 7 7 h t ",
"h t 7 N Z 7 Z v 7 N v 7 N v 7 N v v v v 7 b M v 7 7 b v v 7 M M M 7 v 7 M 7 7 v v M M 7 M 7 7 v Z v 7 Z M v 7 7 v v v 7 M M v v ",
"h h N 7 7 N 7 Z Z 7 Z 7 7 Z Z 7 7 v 7 b 7 v 7 v M v M 7 M 7 v 7 v v v v v v M M 7 7 v v v v M M 7 Z Z 7 7 v M v 7 v M 7 v 7 s s ",
"v h 7 Z N 7 7 D v 7 Z N 7 v v 7 7 M v M M b v b v M v 7 b v 7 v 7 M 7 M 7 M v 7 M v 7 M 7 v v 7 Z 7 7 Z 7 M v M M M v v 7 N s s ",
"v h Z 7 Z 7 Z 7 7 N v 7 Z Z 7 N v M 7 7 v 7 v 7 7 7 v M 7 v M M 7 v v M 7 v v 7 M 7 v M 7 v M 7 7 Z 7 v v M 7 7 v 7 7 v N 7 t v ",
"h h 7 A 7 D 7 Z 7 v Z 7 7 Z v 7 7 M v v v M M 7 b v v 7 M v v 7 v M v 7 7 M v v v v v 7 7 M v v Z v 7 M v 7 M v v Z 7 Z 7 7 J h ",
"h h A 7 Z 7 Z 7 Z Z 7 Z Z 7 7 Z v M 7 M 7 7 v v 7 v b 7 M 7 b 7 v 7 v M v M 7 M 7 v v M v v 7 M M 7 v M v M 7 v 7 7 Z 7 N v s v ",
"u d u A 7 Z 7 D 7 Z v 7 7 Z Z 7 v 7 M 7 M v 7 M b M v v v v 7 v 7 v 7 M v 7 M 7 7 v 7 M v 7 M 7 v v 7 7 7 7 M v Z 7 7 N 7 t h t ",
"v h 7 7 D 7 Z 7 Z 7 Z 7 Z 7 v Z v 7 v v M 7 v v v 7 7 M 7 M b v M M 7 v M 7 v v M v 7 v M 7 v v 7 v M v M v v 7 7 Z N 7 N t t h ",
"v s v M v v M 7 v 7 v 7 v M v 7 M v 7 7 M v v 7 M 7 7 v 7 v v M v 7 M v 7 7 M v v 7 M M v 7 v v 7 Z 7 v 7 v N 7 Z v 7 Z v 7 J h ",
"s Z 7 7 7 7 v v 7 Z Z 7 v 7 v M 7 v M v M 7 M 7 v v M M M v 7 7 v M 7 v M v M 7 v 7 v 7 v M 7 v Z 7 Z Z N Z 7 v N 7 N 7 7 N h v ",
"s s M v M v 7 M Z v 7 Z 7 v 7 M 7 M v v v v v v 7 v v 7 v 7 M v 7 7 M M M 7 v 7 M v 7 v 7 7 M M v 7 Z 7 7 Z 7 Z 7 7 N v P 7 v h ",
"h h 7 v M 7 v M 7 Z Z 7 M M 7 v v M 7 7 7 v 7 M 7 v M 7 v M 7 v v v v 7 v v v v 7 v M M M v v 7 7 Z 7 Z 7 v N 7 Z v 7 Z 7 7 h t ",
"v n 7 7 M v 7 7 v 7 7 v v v 7 v 7 M v v v M M 7 M M v 7 7 M v v v v M 7 7 7 v v M v 7 7 Z 7 7 Z Z v 7 Z v 7 N v Z 7 Z 7 Z 7 J h ",
"s s 7 P 7 v M v v v M M 7 M 7 v v M 7 M 7 7 v v v 7 v M v M 7 v 7 7 v v M v M 7 7 v M v 7 v Z 7 7 Z Z 7 Z 7 7 Z 7 Z 7 Z 7 Z h v ",
"h h Z 7 7 M v M v 7 v 7 M 7 M v v 7 M 7 v v v v 7 v 7 M v 7 M 7 M v 7 M v M v 7 7 M v M Z 7 7 Z Z 7 7 Z 7 Z Z 7 P 7 Z 7 P 7 v v ",
"h J 7 Z v v 7 7 v M M 7 v v M 7 M 7 v v M 7 7 v M M 7 v M 7 v v M 7 v M 7 7 v M v v 7 7 v Z v Z 7 Z 7 v Z 7 v Z 7 Z 7 Z 7 7 h h "
};
