/* XPM */
static char *xpm_[] = {
/* columns rows colors chars-per-pixel */
"64 64 107 2 ",
"   c #540000",
".  c #6A0000",
"X  c #6C0000",
"o  c #6D0000",
"O  c #6E0000",
"+  c #6F0000",
"@  c #700000",
"#  c #720000",
"$  c #750000",
"%  c #760000",
"&  c #770000",
"*  c #791100",
"=  c #7A1C00",
"-  c #7A1D00",
";  c #7A1F00",
":  c #7C2500",
">  c #7D2B00",
",  c #7D2C00",
"<  c #7E2D00",
"1  c #7E2F00",
"2  c #7E3000",
"3  c #7F3203",
"4  c #80340B",
"5  c #80340C",
"6  c #80350D",
"7  c #80340E",
"8  c #80350E",
"9  c #81350E",
"0  c #80350F",
"q  c #82360E",
"w  c #83360E",
"e  c #84370E",
"r  c #85370E",
"t  c #84370F",
"y  c #86370F",
"u  c #87380F",
"i  c #88380F",
"p  c #89390F",
"a  c #8C3A0F",
"s  c #803610",
"d  c #803611",
"f  c #803612",
"g  c #803714",
"h  c #813714",
"j  c #813814",
"k  c #813815",
"l  c #813816",
"z  c #813917",
"x  c #813918",
"c  c #813919",
"v  c #813A1A",
"b  c #823B1C",
"n  c #823C1E",
"m  c #913C10",
"M  c #803623",
"N  c #823D20",
"B  c #823D21",
"V  c #823D22",
"C  c #833E22",
"Z  c #823C2D",
"A  c #834025",
"S  c #844025",
"D  c #844026",
"F  c #844127",
"G  c #844229",
"H  c #84432A",
"J  c #844233",
"K  c #87493A",
"L  c #87493D",
"P  c #86493F",
"I  c #874A3E",
"U  c #894F46",
"Y  c #8E5950",
"T  c #92645A",
"R  c #A28380",
"E  c #A78680",
"W  c #AF918B",
"Q  c #B0938C",
"!  c #BCA7A3",
"~  c #C0ABA7",
"^  c #C1AEAA",
"/  c #C3B0AD",
"(  c #C5B3B0",
")  c #CBBBB9",
"_  c #CFC1BF",
"`  c #D4C7C5",
"'  c #D6CAC7",
"]  c #D7CAC8",
"[  c #D7CBC8",
"{  c #D8CCCA",
"}  c #DBD0CD",
"|  c #DBD1CE",
" . c #E1D7D5",
".. c #E2D9D7",
"X. c #E2DAD8",
"o. c #E3DBD9",
"O. c #E8E0DE",
"+. c #F7F3F2",
"@. c #F7F4F2",
"#. c #F7F4F3",
"$. c #F8F6F4",
"%. c #FAF8F7",
"&. c #FCFAF9",
"*. c #FEFCFB",
"=. c #FFFFFE",
"-. c white",
";. c None",
/* pixels */
";.;.;.;.;.;.;.;.;.;.;.;.;.;.;.;.;.;.;.;.;.;.;.;.;.;.;.;.;.;.;.;.;.;.;.;.;.;.;.;.;.;.;.;.;.;.;.;.;.;.;.;.;.;.;.;.;.;.;.;.;.;.;.;.",
"q m u p i i i i a i p p p p p p i i i i a i a b p p p p i y i a i i a b p p p p i i i i i i p p p p p p i i i i a i a b p p m h ",
"d i q 3 s s s s d 3 3 c f 3 f d s 7 3 9 q 3 c 3 9 9 f d s s 9 s d q 3 3 9 9 d d 7 9 f 3 q 3 f d 3 c q 3 s 7 s 7 q 3 c 3 d f d r ",
"d k c 3 f 3 9 s q q c 3 d 9 s d s s f 7 q 3 3 c 3 9 q d s f 3 s q q 3 c 9 9 9 d s s s 9 q q d d c 3 c 3 7 s 7 7 q 3 3 c s 3 r r ",
"9 i s s 9 3 3 f s s 3 9 s 3 f s f s s s f 3 s s f d s 9 3 f f s s s 3 9 3 d 9 3 s s s 7 s f 7 s 3 c 3 c 3 c 3 M 3 c q d s f d h ",
"s i s f s f 9 s s s f s s 9 s s 3 9 s 7 s 9 7 s 9 d s d s s 3 9 9 s f s f d d f f 3 7 s s 3 9 s c 3 c 3 c 3 l 3 c 3 3 d 9 3 r r ",
"9 i 9 3 s 3 f s 7 9 s s s s 9 3 s 7 3 9 s s 3 f 3 d s f s f s s 3 f d s s d d 9 7 9 f 3 s 7 f s 3 c 3 c 3 c 3 l 3 c 9 3 9 9 r h ",
"s i 9 9 s 9 s s f 3 f 3 9 s s f s s f 7 s 7 9 7 f d 9 3 9 3 s s s s f 3 9 d f 3 s s s 9 7 s 3 9 c 3 c 3 c 3 c 3 c 3 9 9 9 9 7 r ",
"s i f 3 7 s f 3 s s 3 f s 7 9 3 f s s s 7 9 7 s f 3 s s f 3 s s s 3 f s s s s 7 9 s s s s s s 7 f 3 s s f 3 s s 3 c 3 c 3 c f f ",
"s y s 9 s s s 9 7 s 9 7 s s s f 3 9 s 7 f 3 s s s 9 7 s s 9 7 s s 9 s s f 3 7 s 3 f 9 7 f 3 7 s s 9 7 s s 9 7 s c 3 c 3 c 3 y s ",
"s y s 7 7 9 s 7 9 s s s 3 9 s s s 7 3 9 s 7 9 s s s 3 f s s 3 f s s 9 3 7 9 f 3 s 7 3 f 7 9 f 3 s s 3 f s s 3 f 3 c 3 c 7 7 y s ",
"s y s s f 3 s s 3 f s 7 f 7 s 7 s s f 7 s s 3 f s 7 9 7 s 7 9 7 7 s s f s s s 9 7 s s s s s s 9 s 7 9 7 s 7 9 7 c 3 c 3 9 7 w y ",
"s i s 7 7 s 7 f 7 s f 3 s 7 9 3 f s s s f 3 s s 7 f s s f s s s 9 3 s 7 9 3 s 7 9 3 s 7 9 3 s 7 7 f s s 3 f s s s s 9 s 9 9 7 s ",
"7 y 7 7 s s 9 3 s s s 9 s s s f 3 9 s 7 s 9 7 s 9 3 7 s 3 9 s 7 s f 7 s s f 7 s s f 7 s s f 7 s 9 3 7 s 9 s s s s f 3 s 9 9 7 y ",
"9 i 7 7 f s s s 7 9 s 7 3 9 s s s 7 3 9 s s 3 f 7 s 9 3 s 7 3 9 s 9 3 s s 9 3 s s 9 3 s s 9 3 s 7 s 9 3 s s s s 9 3 f d 9 r i 7 ",
"s a 7 7 3 9 7 s f 3 s s f 7 s 7 s s f 7 s 7 9 7 s s s f s s f 7 s 7 f s s 7 f s s 7 f s s 7 f s s s s f f 3 9 s s f 3 9 9 7 7 i ",
"9 i s 9 3 s s s 9 3 f s 7 s s s 7 s s s 7 9 3 f 7 s 7 s 7 9 7 s s s 3 9 s s 3 9 s s 3 9 s s 3 9 7 f s s f s s s 7 9 7 s 7 f s s ",
"s i s s f s 9 7 7 s s s 9 7 s f 9 7 s f s 7 s s 7 M s 7 f 3 s s 7 s f 7 7 s f 7 7 s f 7 7 s f 7 9 3 7 s 3 9 s 7 f 3 s s 9 3 s y ",
"9 i 9 f 9 7 3 f s s 7 s 3 s s 3 3 s s 3 s s s 7 l 3 c 3 s 7 9 s s 7 s s s 7 s s s 7 s s s 7 s s 7 s 9 3 s 7 3 9 s 7 9 s 7 7 s y ",
"s i 9 3 3 s s s f 3 9 7 f s 7 9 f s 7 9 s f 3 9 3 l 3 c s s 3 f 3 9 s f 3 9 s f 3 9 s f 3 9 s f s s s f s s f 7 s s 3 f r 7 7 y ",
"s i 7 s f s 7 s 9 3 f s 9 7 s f 9 7 s f 7 9 3 f c 3 c 3 c 3 3 q f s 7 9 s 7 s 3 f s 7 9 s 7 s 3 7 9 7 s 7 9 7 s f 3 s d 9 9 r d ",
"7 7 9 7 s s 9 7 7 s s s 3 s s 3 3 s s 3 s 7 s s 3 c 3 c 3 c 3 d s s f 3 s s 7 9 s s f 3 s s 7 9 f 3 s s f 3 s s s 9 s f 9 9 r r ",
"s a s s 9 7 3 f s s 7 s f s 7 9 f s 7 9 s s s 7 c 3 c 3 c 3 f d 9 7 s s 3 f s s 9 7 s s 3 f s s s 7 9 s s 7 9 s s s 9 3 9 9 9 r ",
"9 i s f 3 s s s f 3 9 7 s s s 7 s s s 7 s f 3 9 3 c 3 c 3 c 3 q 3 s 7 s 9 7 s f 3 s 7 s 9 7 s f s s 3 f s s 3 f 9 s s d 3 9 r h ",
"s y 9 9 s 7 9 s s 9 3 f 9 3 f s 7 9 3 f 9 3 f s 7 9 3 f q d q d f f d q q d s 9 s 7 s 3 f s 9 3 s s 3 9 s s 3 9 3 f f s s 9 9 s ",
"9 y 9 9 7 s 3 f s 7 s s 7 s s s s 7 s s 7 s s s s 7 s s c C V V C M C c 3 f f 3 s s 7 9 s s 7 s 7 s f 7 7 s f 7 s s 3 9 s 7 i s ",
"f y 9 9 s s 7 s f 3 s 7 s s 7 s s s s 7 s s 7 s f 3 7 f - @ o @ @ @ @ - c 3 d s 3 f s s 7 f s 7 s 7 s s s 7 s s s f s s 9 r 7 i ",
"s y f 3 f 3 9 s s 9 7 s f 3 9 7 s f 3 9 f 3 9 7 d 9 V % Q o.o.o.o.o. .Q % V 9 s 9 7 s f 9 3 s s 3 9 s f 3 9 s f 9 3 s s 9 7 7 7 ",
"s i f s s s f s s s s s 7 s s s 7 s s s 7 s s s s s n % E { [ { [ } -.~ o G q q s 7 s 3 s s 3 9 f s 7 9 s s s 3 3 9 s f 9 9 q r ",
"s i 3 9 9 7 3 9 9 7 s f 9 7 s f 9 7 s f 9 7 s f 3 9 9 c * X o o   ! @.P > f f 3 s s 7 9 7 s f 7 s s f 3 s f 7 9 f s s 3 9 9 r d ",
"s i 9 9 3 s s 7 3 s s 3 3 s s 3 3 s s 3 3 s s 3 f s s s n J H V I %.) o Z f d d 3 f s s s 7 s s 9 7 s s 9 3 f 3 s s s 9 3 9 r q ",
"s i 9 9 f s 7 s f s 7 9 f s 7 9 f s 7 9 f s 7 9 s s 9 3 q 3 F o ( &.U , z 3 9 s 9 7 s f 3 9 s f 3 s 7 s s s s 9 s s s d f 9 q r ",
"s i 7 s s f 7 s s f 7 s s f 7 s s f 7 s s f 7 s c 3 3 q q d 2 Z $._ o F 3 d d q s 7 9 s s s f s s s 7 9 s 7 9 s s s f s s s 9 s ",
"7 s 9 s s 3 9 s s 3 9 s s 3 9 s s 3 9 s s 3 9 s 3 c 3 d q F o / *.Y : n f f 3 3 s s 3 f s 7 3 9 s 7 f 3 s s 3 f s 7 3 9 s 7 i 7 ",
"s i f s s 7 f s s 7 f s s 7 f s s 7 f s s 7 f s c 3 f d f 3 M @.` o F 3 c 3 c 3 3 f 7 s 7 f s 7 f 3 s s 3 f 7 s 7 f s 7 9 9 7 i ",
"7 i 3 9 7 s 3 9 7 s 3 9 7 s 3 9 7 s 3 9 7 s 3 9 3 c 3 q F o ^ -.T ; c q 3 c 3 c 9 7 s s 9 3 s s s 9 7 s 9 7 s s 9 3 s s 9 9 7 r ",
"s i 7 7 s s s 7 9 s s s s s s 7 9 s s s s 7 s 7 c 3 c c 2 J @.' @ Z 7 7 c 3 c 3 s 7 9 s s s 3 9 s s f s s s f s f 3 s d 9 3 f h ",
"7 i 7 7 f 3 7 s 3 f 9 7 f 3 7 s 3 f 9 7 7 7 7 s 3 c c 3 , K R I , f s M 3 c 3 c s s 3 f 7 s f 7 s 7 3 9 s 7 3 9 s 9 s f 9 9 i h ",
"s i 7 7 7 9 f 3 s 7 3 f 7 9 f 3 s 7 3 f 3 M 3 c 3 c 3 c d , % > f q l 3 c 3 c 3 3 f 7 s 9 3 7 s 7 f s 7 7 f s 7 s s 9 3 3 9 r r ",
"9 i 9 r s s s 9 7 s s s s s s 9 7 s s s l 3 l 3 c 3 c 3 9 d n c 3 q 3 c 3 c 3 c 9 7 s s s f s s 9 3 s s 9 3 s s 9 s s d d 9 q r ",
"s i 9 9 3 s s s s s s 7 9 3 s 7 9 3 s 7 9 s s s s 7 9 s s s f s d 9 3 f s 7 9 s s s 7 9 s 7 9 s s s 3 9 s s 3 9 3 f 3 f s 7 9 s ",
"9 i 9 9 f s 3 9 f 3 7 s s f 7 s s f 7 s 3 f 9 7 s s 3 f s 7 3 9 d d d d s s 3 f s 7 f 3 s s 3 f 7 s f 7 7 s f 7 s s 9 7 s s i s ",
"3 y f 9 f 3 f s 7 9 f 3 s 9 3 s s 9 3 s s 7 3 f 3 f 7 s 7 f s 7 3 9 9 3 3 f 7 s f 3 s s 3 f 7 s 9 3 7 s 9 3 7 s s f s s 9 9 7 i ",
"f y s s s 9 s s s s s 9 s 7 f s s 7 f s 7 s s s 9 7 s s 9 3 s s f d d f 9 7 s s s 9 7 s 9 7 s s s f s s s f s s 9 3 s s 9 9 r 7 ",
"s y s f s 9 3 f s s s 7 s f 7 s s f 7 s 9 s s s s 7 9 s s s 3 9 d d s 9 3 f f s s s f s s s f s s s 7 9 s s 9 s 3 9 d f 9 3 f h ",
"s y s 3 s s s s f 3 7 s s 3 9 s s 3 9 s 3 f 9 7 s s 3 f 7 s f 7 9 s s s s s 3 9 s 7 3 9 s 7 3 9 s 7 f 3 s f 3 f f s s 3 9 9 i h ",
"s y 7 9 s s s 7 7 9 f 3 s 7 f s s 7 f s s 7 3 f 3 f 7 s 9 3 7 s 3 s s f s 3 f s 7 f s 7 7 f s 7 f 3 s s 9 3 s f s s s 9 9 9 r r ",
"s y s 7 s f 3 9 s s s 9 7 s 3 9 7 s 3 9 7 s s s 9 7 s s s f s s f d 9 3 s 9 s s 9 3 s s 9 3 s s s 9 7 s s s s 3 9 s d d 3 9 9 r ",
"7 i 7 7 7 s 7 f s s 3 f s 7 9 3 s 7 9 s s s f s s s 7 9 s 7 9 s s s 3 9 s s 3 9 s s 3 9 s s 3 9 s s 7 9 s 7 9 s s s f s s s 9 s ",
"s i 7 7 s s 9 3 7 s 9 7 s s s f s s 3 f s 7 3 9 s 7 f 3 s s 3 f 7 s f 7 7 s f 7 7 s f 7 7 s f 7 s 7 f 3 s s 3 f s 7 3 9 s 7 i 7 ",
"9 i 7 7 f s s s 9 s s s 3 9 s s 3 f 7 s 7 f s 7 f 3 s s 3 f 7 s 9 3 7 s 9 3 7 s 9 3 7 s 9 3 7 s f 3 s s 3 f 7 s 7 f s 7 9 9 7 i ",
"s a 7 7 3 9 7 s 3 f s 7 f 7 s 7 9 7 s s 9 3 s s s 9 7 s 9 7 s s s f s s s f s s s f s s s f s s s 9 7 s 9 7 s s 9 3 s s 9 9 7 r ",
"9 i s 9 3 f 3 f 7 s f 3 s 7 9 3 s 7 9 s s s 3 9 s s f s s s f s s s 7 9 s 7 9 s s s 7 9 s 7 9 s s s f s s s f s f 3 s d 9 3 f h ",
"s i s s s s 9 7 s s s 9 s s s f s s 3 f 7 s f 7 s 7 3 9 s 7 3 9 s 7 f 3 s s 3 f s 7 f 3 s s 3 f s 7 3 9 s 7 3 9 s 9 s f 9 9 i h ",
"9 i 9 f s f s s 7 9 s 7 3 9 s s 3 f 7 s 9 3 7 s 7 f s 7 7 f s 7 f 3 s s 3 f 7 s f 3 s s 3 f 7 s 7 f s 7 7 f s 7 s s 9 3 3 9 r r ",
"s i 9 3 9 3 s s f 3 s s f 7 s 7 9 7 s s s f s s 9 3 s s 9 3 s s s 9 7 s 9 7 s s s 9 7 s 9 7 s s 9 3 s s 9 3 s s 9 s s d d 9 q r ",
"s i f 3 7 s f 3 s s 3 f s 7 9 3 s 7 9 s s s f s s s 3 9 s s 3 9 s s f s s s 7 9 s 7 9 s s s f s s s 3 9 s s 3 9 3 f 3 f s 7 9 s ",
"s y s 9 s s s 9 7 s 9 7 s s s f s s 3 f s 7 3 9 7 s f 7 7 s f 7 s 7 3 9 s 7 f 3 s s 3 f s 7 3 9 7 s f 7 7 s f 7 s s 9 7 s s i s ",
"s y s 7 7 9 s 7 9 s s s 3 9 s s 3 f 7 s 7 f s 7 9 3 7 s 9 3 7 s 7 f s 7 f 3 s s 3 f 7 s 7 f s 7 9 3 7 s 9 3 7 s s f s s 9 9 7 i ",
"s y s s f 3 s s 3 f s 7 f 7 s 7 9 7 s s 9 3 s s s f s s s f s s 9 3 s s s 9 7 s 9 7 s s 9 3 s s s f s s s f s s 9 3 s s 9 9 r 7 ",
"s i s 7 7 s 7 f 7 s f 3 s 7 9 3 s 7 9 s s s 3 9 s s 7 9 s 7 9 s s s 3 9 s s 7 9 s 7 9 s s s 3 9 s s 7 9 s s 9 s 3 9 d f 9 3 f h ",
"7 y 7 7 s s 9 3 s s s 9 s s s f s s 3 f 7 s f 7 s 7 f 3 s s 3 f 7 s f 7 s 7 f 3 s s 3 f 7 s f 7 s 7 f 3 s f 3 f f s s 3 9 9 i h ",
"s i 7 7 f s s s 7 9 s 7 3 9 s s 3 f 7 s 9 3 7 s f 3 s s 3 f 7 s 9 3 7 s f 3 s s 3 f 7 s 9 3 7 s f 3 s s 9 3 s f s s s 9 9 9 r r ",
"7 i 7 7 3 9 7 s f 3 s s f 7 s 7 9 7 s s s f s s s 9 7 s 9 7 s s s f s s s 9 7 s 9 7 s s s f s s s 9 7 s s s s 3 9 s d d 3 9 9 r "
};
