/* XPM */
static char *_006[] = {
/* columns rows colors chars-per-pixel */
"64 64 128 2 ",
"   c #1B1400",
".  c #1D1500",
"X  c #1B1B1D",
"o  c #1B1C1F",
"O  c #1D1D1F",
"+  c #372900",
"@  c #382A00",
"#  c #382B01",
"$  c #332C1A",
"%  c #342E1A",
"&  c #342E1C",
"*  c #37383A",
"=  c #38393A",
"-  c #C99909",
";  c #FF9800",
":  c #FB9E01",
">  c #FF9C01",
",  c #FF9D01",
"<  c #E0A905",
"1  c #E0A906",
"2  c #E0AA06",
"3  c #E2AB06",
"4  c #E5A905",
"5  c #E4A806",
"6  c #E5AE06",
"7  c #FFA001",
"8  c #FFA101",
"9  c #FFA102",
"0  c #FFA202",
"q  c #E4B10B",
"w  c #E5B20C",
"e  c #FFB805",
"r  c #FFB806",
"t  c #FFBA06",
"y  c #FBBE06",
"u  c #FBBE07",
"i  c #FBBF07",
"p  c #FFBC06",
"a  c #FFBD06",
"s  c #FFBE06",
"d  c #FFBF06",
"f  c #FFC006",
"g  c #FFC007",
"h  c #FFC107",
"j  c #FFC207",
"k  c #FFC307",
"l  c #FFC208",
"z  c #FFC408",
"x  c #FFC10C",
"c  c #FFC50C",
"v  c #FFC50D",
"b  c #FFC70C",
"n  c #FFC60D",
"m  c #FFC80D",
"M  c #FFC90D",
"N  c #FFCA12",
"B  c #FFCB12",
"V  c #FFCB13",
"C  c #FBDF2F",
"Z  c #FFE12F",
"A  c #FFE130",
"S  c #FFE230",
"D  c #FFE330",
"F  c #FFE331",
"G  c #FFE635",
"H  c #FFE735",
"J  c #FFE736",
"K  c #FFEB3B",
"L  c #C8C8C5",
"P  c #C9C8C5",
"I  c gray88",
"U  c #E2E2E2",
"Y  c #E4E4E4",
"T  c #E5E6E6",
"R  c #FBFBFB",
"E  c white",
"W  c black",
"Q  c black",
"!  c black",
"~  c black",
"^  c black",
"/  c black",
"(  c black",
")  c black",
"_  c black",
"`  c black",
"'  c black",
"]  c black",
"[  c black",
"{  c black",
"}  c black",
"|  c black",
" . c black",
".. c black",
"X. c black",
"o. c black",
"O. c black",
"+. c black",
"@. c black",
"#. c black",
"$. c black",
"%. c black",
"&. c black",
"*. c black",
"=. c black",
"-. c black",
";. c black",
":. c black",
">. c black",
",. c black",
"<. c black",
"1. c black",
"2. c black",
"3. c black",
"4. c black",
"5. c black",
"6. c black",
"7. c black",
"8. c black",
"9. c black",
"0. c black",
"q. c black",
"w. c black",
"e. c black",
"r. c black",
"t. c black",
"y. c black",
"u. c black",
/* pixels */
"E E E E E E E E E E E E E E E E E E E E E E E E E E E E E E E E E E E E E E E E E E E E E E E E E E E E E E E E E E E E E E E E ",
"E E E E E E E E E E E E E E E E E E E E E E E E E E E E E E E E E E E E E E E E E E E E E E E E E E E E E E E E E E E E E E E E ",
"E E E E E E E E E E E E E E E E E E E E E E E E E E E E E E E E E E E E E E E E E E E E E E E E E E E E E E E E E E E E E E E E ",
"E E E E E E E E E E E E E E E E E E E E E E E E E E E E E E E E E E E E E E E E E E E E E E E E E E E E E E E E E E E E E E E E ",
"E E E E E E E E E E E E E E E E E E E E E E E E E E E E E E E E E E E E E E E E E E E E E E E E E E E E E E E E E E E E E E E E ",
"E E E E E E E E E E E E E E E E E E E E E E E E E E E E E E E E E E E E E E E E E E E E E E E E E E E E E E E E E E E E E E E E ",
"E E E E E E E E E E E E E E E E E E E E E E E E E E E E E E E E E E E E E E E E E E E E E E E E E E E E E E E E E E E E E E E E ",
"E E E E E E E E E E E E E E E E E E E E E E E E E E E E E E E E E E E E E E E E E E E E E E E E E E E E E E E E E E E E E E E E ",
"E E E E E E E E E E E E E E E E E E E E E E E E E E E E E E E E E E E E E E E E E E E E E E E E E E E E E E E E E E E E E E E E ",
"E E E E E E E E E E E E E E E E E E E E E E E E E E E E E E E E E E E E E E E E E E E E E E E E E E E E E E E E E E E E E E E E ",
"E E E E E E E E E E E E E E E E E E E E E E E E E E E E E E E E E E E E E E E E E E E E E E E E E E E E E E E E E E E E E E E E ",
"E E E E E E E E E E E E E E E E E E E E E E E E E R Y I I I I I I I I I I Y R E E E E E E E E E E E E E E E E E E E E E E E E E ",
"E E E E E E E E E E E E E E E E E E E E E E E E E Y = X O O O O O O O O o = Y E E E E E E E E E E E E E E E E E E E E E E E E E ",
"E E E E E E E E E E E E E E E E E E E E E R Y I I P %   . . . . . . . .   % P I I Y R E E E E E E E E E E E E E E E E E E E E E ",
"E E E E E E E E E E E E E E E E E E E E E Y = o o & - 2 2 2 2 2 2 2 2 2 2 - & o X = Y E E E E E E E E E E E E E E E E E E E E E ",
"E E E E E E E E E E E E E E E E E E E R Y P %     @ 4 s s s s s s s s s s 4 @     % P Y R E E E E E E E E E E E E E E E E E E E ",
"E E E E E E E E E E E E E E E E E E E Y * $ - 2 2 4 : , , , , , , , , , , : 4 2 2 - $ * Y E E E E E E E E E E E E E E E E E E E ",
"E E E E E E E E E E E E E E E E E R Y P $ + 6 k s t 8 , , , , , , , , , , 8 t s k 6 + $ P Y R E E E E E E E E E E E E E E E E E ",
"E E E E E E E E E E E E E E E E E Y = % - 6 i s 8 8 t s s s s s t t s s s t 8 8 s i 6 - % = Y E E E E E E E E E E E E E E E E E ",
"E E E E E E E E E E E E E E E E E I X   2 k s t 8 8 s l n n n n n n l k k s 8 8 x n z 2   o I E E E E E E E E E E E E E E E E E ",
"E E E E E E E E E E E E E E E E E I o   2 s 8 8 t s k n Z G G G G A n k k k s x A A n 2   o I E E E E E E E E E E E E E E E E E ",
"E E E E E E E E E E E E E E E R Y P & @ 4 t 8 8 s k k n G K G G G Z x s k k k n A A V q @ & P Y R E E E E E E E E E E E E E E E ",
"E E E E E E E E E E E E E E E Y = % - 4 : 8 t s k k k n G G V n n x 8 8 s k k l n V A C q - % = Y E E E E E E E E E E E E E E E ",
"E E E E E E E E E E E E E E E I o   2 s , , s l n n n V G G n k k s 8 8 x n l k k n G G m 2   o I E E E E E E E E E E E E E E E ",
"E E E E E E E E E E E E E E E I O . 2 s , , s n Z G G G K G n k k k s x A A n k k n G G m 2 . O I E E E E E E E E E E E E E E E ",
"E E E E E E E E E E E E E E E I O . 2 s , , s n G K G G G Z n k k k k n A A x s k n G G m 2 . O I E E E E E E E E E E E E E E E ",
"E E E E E E E E E E E E E E E I O . 2 s , , t n G G V n n n l k k k k l n x 8 8 s n G G m 2 . O I E E E E E E E E E E E E E E E ",
"E E E E E E E E E E E E E E E I O . 2 s , , s n G G n k k k k k k k k k k t , , s n G G m 2 . O I E E E E E E E E E E E E E E E ",
"E E E E E E E E E E E E E E E I O . 2 s , , t n G G n k k k k k k k k k k s , , s n G G m 2 . O I E E E E E E E E E E E E E E E ",
"E E E E E E E E E E E E E E E I O . 2 s , , t n A Z x t k k k k k k s s s t , , s n G G m 2 . O I E E E E E E E E E E E E E E E ",
"E E E E E E E E E E E E E E E I O . 2 s , , s l n x 8 8 s k k k k s 8 , , , ; , t n G G m 2 . O I E E E E E E E E E E E E E E E ",
"E E E E E E E E E E E E E E E I O . 2 s , , s k k s 8 8 x n l k k s , ; , , , 8 s n G G m 2 . O I E E E E E E E E E E E E E E E ",
"E E E E E E E E E E E E E E E I X   2 s , , s k k k s x A A n k k s , , t s s s s n G G m 2   o I E E E E E E E E E E E E E E E ",
"E E E E E E E E E E E E E E E Y = % - 4 : 8 t s k k k n A A x s s t , , s k k l n V A C q - % = Y E E E E E E E E E E E E E E E ",
"E E E E E E E E E E E E E E E R Y P & @ 4 t 8 8 s k k l n x 8 , , , ; , s k k n A A V q @ & P Y R E E E E E E E E E E E E E E E ",
"E E E E E E E E E E E E E E E E E I o   2 s 8 8 x n l k k s 8 , , , , 8 s l n V A A n 2   o I E E E E E E E E E E E E E E E E E ",
"E E E E E E E E E E E E E E E E E I o   2 k s x A A n k k k s t t t s s k n A A V n z 2   o I E E E E E E E E E E E E E E E E E ",
"E E E E E E E E E E E E E E E E E Y = % - 6 i n A A V n n n n n n n n n n V A A n i 6 - % = Y E E E E E E E E E E E E E E E E E ",
"E E E E E E E E E E E E E E E E E R Y P $ + 6 z n V A G G G G G G G G G G A V n z 6 + $ P Y R E E E E E E E E E E E E E E E E E ",
"E E E E E E E E E E E E E E E E E E E Y * $ - 2 2 q C G G G G G G G G G G C q 2 2 - $ * Y E E E E E E E E E E E E E E E E E E E ",
"E E E E E E E E E E E E E E E E E E E R Y P %     @ w m m m m m m m m m m w @     % P Y R E E E E E E E E E E E E E E E E E E E ",
"E E E E E E E E E E E E E E E E E E E E E Y = o o & - 2 2 2 2 2 2 2 2 2 2 - & o X = Y E E E E E E E E E E E E E E E E E E E E E ",
"E E E E E E E E E E E E E E E E E E E E E R Y I I P %   . . . . . . . .   % P I I Y R E E E E E E E E E E E E E E E E E E E E E ",
"E E E E E E E E E E E E E E E E E E E E E E E E E Y = X O O O O O O O O o = Y E E E E E E E E E E E E E E E E E E E E E E E E E ",
"E E E E E E E E E E E E E E E E E E E E E E E E E R Y I I I I I I I I I I Y R E E E E E E E E E E E E E E E E E E E E E E E E E ",
"E E E E E E E E E E E E E E E E E E E E E E E E E E E E E E E E E E E E E E E E E E E E E E E E E E E E E E E E E E E E E E E E ",
"E E E E E E E E E E E E E E E E E E E E E E E E E E E E E E E E E E E E E E E E E E E E E E E E E E E E E E E E E E E E E E E E ",
"E E E E E E E E E E E E E E E E E E E E E E E E E E E E E E E E E E E E E E E E E E E E E E E E E E E E E E E E E E E E E E E E ",
"E E E E E E E E E E E E E E E E E E E E E E E E E E E E E E E E E E E E E E E E E E E E E E E E E E E E E E E E E E E E E E E E ",
"E E E E E E E E E E E E E E E E E E E E E E E E E E E E E E E E E E E E E E E E E E E E E E E E E E E E E E E E E E E E E E E E ",
"E E E E E E E E E E E E E E E E E E E E E E E E E E E E E E E E E E E E E E E E E E E E E E E E E E E E E E E E E E E E E E E E ",
"E E E E E E E E E E E E E E E E E E E E E E E E E E E E E E E E E E E E E E E E E E E E E E E E E E E E E E E E E E E E E E E E ",
"E E E E E E E E E E E E E E E E E E E E E E E E E E E E E E E E E E E E E E E E E E E E E E E E E E E E E E E E E E E E E E E E ",
"E E E E E E E E E E E E E E E E E E E E E E E E E E E E E E E E E E E E E E E E E E E E E E E E E E E E E E E E E E E E E E E E ",
"E E E E E E E E E E E E E E E E E E E E E E E E E E E E E E E E E E E E E E E E E E E E E E E E E E E E E E E E E E E E E E E E ",
"E E E E E E E E E E E E E E E E E E E E E E E E E E E E E E E E E E E E E E E E E E E E E E E E E E E E E E E E E E E E E E E E ",
"E E E E E E E E E E E E E E E E E E E E E E E E E E E E E E E E E E E E E E E E E E E E E E E E E E E E E E E E E E E E E E E E ",
"E E E E E E E E E E E E E E E E E E E E E E E E E E E E E E E E E E E E E E E E E E E E E E E E E E E E E E E E E E E E E E E E ",
"E E E E E E E E E E E E E E E E E E E E E E E E E E E E E E E E E E E E E E E E E E E E E E E E E E E E E E E E E E E E E E E E ",
"E E E E E E E E E E E E E E E E E E E E E E E E E E E E E E E E E E E E E E E E E E E E E E E E E E E E E E E E E E E E E E E E ",
"E E E E E E E E E E E E E E E E E E E E E E E E E E E E E E E E E E E E E E E E E E E E E E E E E E E E E E E E E E E E E E E E ",
"E E E E E E E E E E E E E E E E E E E E E E E E E E E E E E E E E E E E E E E E E E E E E E E E E E E E E E E E E E E E E E E E ",
"E E E E E E E E E E E E E E E E E E E E E E E E E E E E E E E E E E E E E E E E E E E E E E E E E E E E E E E E E E E E E E E E ",
"E E E E E E E E E E E E E E E E E E E E E E E E E E E E E E E E E E E E E E E E E E E E E E E E E E E E E E E E E E E E E E E E "
};
