/* XPM */
static char *xpm_[] = {
/* columns rows colors chars-per-pixel */
"64 64 128 2 ",
"   c #0043B6",
".  c #0047B6",
"X  c #0048B7",
"o  c #004AB7",
"O  c #004FB8",
"+  c #0059BA",
"@  c #005ABA",
"#  c #005BBB",
"$  c #005FBB",
"%  c #0060BB",
"&  c #0060BC",
"*  c #0062BC",
"=  c #0063BC",
"-  c #0062BD",
";  c #0064BC",
":  c #0064BD",
">  c #0065BD",
",  c #0066BD",
"<  c #0067BD",
"1  c #0068BE",
"2  c #0069BE",
"3  c #006ABE",
"4  c #006BBE",
"5  c #006CBF",
"6  c #006DBF",
"7  c #006EBF",
"8  c #006FBF",
"9  c #0070BF",
"0  c #006FC0",
"q  c #066FC0",
"w  c #0070C0",
"e  c #0170C0",
"r  c #0071C1",
"t  c #0270C0",
"y  c #0370C0",
"u  c #0071C2",
"i  c #0071C3",
"p  c #0470C0",
"a  c #0670C0",
"s  c #0771C0",
"d  c #0072C4",
"f  c #0871C0",
"g  c #0971C0",
"h  c #0A71C0",
"j  c #0B71C0",
"k  c #0B72C0",
"l  c #0C71C0",
"z  c #0D71C0",
"x  c #0E71C0",
"c  c #0D72C1",
"v  c #0E72C0",
"b  c #0F72C0",
"n  c #0076C9",
"m  c #0077CC",
"M  c #0077CD",
"N  c #0078CD",
"B  c #0079CF",
"V  c #1172C0",
"C  c #1372C1",
"Z  c #1572C1",
"A  c #1473C1",
"S  c #1573C1",
"D  c #1673C1",
"F  c #1773C1",
"G  c #1873C1",
"H  c #1973C1",
"J  c #1A73C1",
"K  c #1F72C1",
"L  c #1A74C1",
"P  c #1E74C1",
"I  c #2074C1",
"U  c #2874C1",
"Y  c #2974C1",
"T  c #2E75C2",
"R  c #3377C3",
"E  c #387BC4",
"W  c #0080DB",
"Q  c #4C80C5",
"!  c #5383C6",
"~  c #6E91CB",
"^  c #7897CD",
"/  c #7B99CE",
"(  c #7A9CCF",
")  c #7E9FD0",
"_  c #86A0D0",
"`  c #8BA5D3",
"'  c #8CA5D3",
"]  c #8EA6D4",
"[  c #9AB0D8",
"{  c #A0B3D9",
"}  c #A4B3D9",
"|  c #A8B9DC",
" . c #A9BBDC",
".. c #A9BCDD",
"X. c #AABCDD",
"o. c #ACBFDE",
"O. c #AFBFDF",
"+. c #B1C2DF",
"@. c #B9C7E2",
"#. c #BBC8E2",
"$. c #BCCAE4",
"%. c #C2CDE5",
"&. c #C7D1E7",
"*. c #C8D5E9",
"=. c #CBD5E9",
"-. c #D1DBEC",
";. c #D3DBEC",
":. c #DAE1EF",
">. c #DEE4F1",
",. c #E4EAF3",
"<. c #E5EAF4",
"1. c #ECF1F8",
"2. c #EEF3F9",
"3. c #F0F4FA",
"4. c #F0F5FA",
"5. c #F1F5FA",
"6. c #F2F6FB",
"7. c #F6F9FC",
"8. c #F7FAFD",
"9. c #F8FBFD",
"0. c #F9FCFE",
"q. c #FAFDFE",
"w. c #FBFDFE",
"e. c #FBFEFE",
"r. c #FBFEFF",
"t. c #FEFFFF",
"y. c white",
"u. c None",
/* pixels */
"u.u.u.u.u.u.u.u.u.u.u.u.u.u.u.u.u.u.u.u.u.u.u.u.u.u.u.u.u.u.u.u.u.u.u.u.u.u.u.u.u.u.u.u.u.u.u.u.u.u.u.u.u.u.u.u.u.u.u.u.u.u.u.u.",
"r W n N M N N N N N N N N N N N N N N N N N N N N N N N N N N N N N N N N N N N N N N N N N N N N N N N N N N N N N N N M M N i ",
"r n 8 r 8 9 8 r r 8 r 8 r 8 r 8 r 8 r 8 r 8 r 8 r 8 r 8 r 8 r 8 r 8 r 8 r 8 r 8 r 8 r 8 r 8 r 8 r 8 r 8 r 8 r 8 r 8 r 8 0 r r r ",
"i N 9 8 r 8 r 8 8 r 8 r 8 r 8 r 8 r 8 r 8 r 8 r 8 r 8 r 8 r 8 r 8 r 8 r 8 r 8 r 8 r 8 r 8 r 8 r 8 r 8 r 8 r 8 r 8 r 8 r r r r i ",
"i N 9 r 8 r 8 r r 8 r 8 r 8 r 8 r 8 r 8 r 8 r 8 r 8 r 8 r 8 r 8 r 8 r 8 r 8 r 8 r 8 r 8 r 8 r 8 r 8 r 8 r 8 r 8 r 8 r 8 8 9 r r ",
"i N 9 8 r 8 r 8 8 r 8 r 8 r 8 r 8 r 8 r 8 r 8 r 8 r 8 r 8 r 8 r 8 r 8 r 8 r 8 r 8 r 8 r 8 r 8 r 8 r 8 r 8 r 8 r 8 r 8 r r 8 i r ",
"i N r r 8 r 8 r r 8 r 8 r 8 r 8 r 8 r 8 r 8 r 8 r 8 r 8 r 8 r 8 r 8 r 8 r 8 r 8 r 8 r 8 r 8 r 8 r 8 r 8 r 8 r 8 r 8 r 8 r 8 r i ",
"i N 8 9 r 8 r 8 8 r 8 r 8 r 8 r 8 r 8 r 8 r 8 r 8 r 8 r 8 r 8 r 8 r 8 r 8 r 8 r 8 r 8 r 8 r 8 r 8 r 8 r 8 r 8 r 8 r 8 r 8 r i r ",
"r N 9 8 r 8 r 8 r 8 r 8 r 8 r 8 r 8 r 8 r 8 r 8 r 8 r 8 r 8 r 8 r 8 r 8 r 8 r 8 r 8 r 8 r 8 r 8 r 8 r 8 r 8 r 8 r 8 r 8 r 9 r r ",
"i N 9 r 8 r 8 r 8 r 8 r 8 r 8 r 8 r 8 r 8 r 8 r 8 r 8 r 8 r 8 r 8 r 8 r 8 r 8 r 8 r 8 r 8 r 8 r 8 r 8 r 8 r 8 r 8 r 8 r 8 9 i r ",
"i N 9 9 r 8 r 8 r 8 r 8 r 8 r 8 r 8 r 8 r 8 r 8 r 8 r 8 r 8 r 8 r 8 r 8 r 8 r 8 r 8 r 8 r 8 r 8 r 8 r 8 r 8 r 8 r 8 r 8 r 8 r i ",
"i N 8 r 8 r 8 r 8 r 8 r 8 r 8 r 8 r 8 r 8 r 8 r 8 r 8 r 8 r 8 r 8 r 8 r 8 r 8 r 8 r 8 r 8 r 8 r 8 r 8 r 8 r 8 r 8 r 8 r 8 r i r ",
"i N r 0 r 8 r 8 r 8 r 8 r 8 r 8 r 8 r 8 r 8 r 8 r 8 r 8 r 8 r 8 r 8 r 8 r 8 r 8 r 8 r 8 r 8 r 8 r 8 r 8 r 8 r 8 r 8 r 8 r 9 r r ",
"i N 8 r 8 r 8 r 8 r 8 r 8 r 8 r 8 r 8 r 8 r 8 r 8 r 8 r 8 r 8 r 8 r 8 r 8 r 8 r 8 r 8 r 8 r 8 r 8 r 8 r 8 r 8 r 8 r 8 r 8 9 i r ",
"r N 9 9 r 8 r 8 r 8 r 8 r 8 r 8 r 8 r 8 r 8 r 8 r 8 r 8 r 8 r 8 r 8 r 8 r 8 r 8 r 8 r 8 r 8 r 8 r 8 r 8 r 8 r 8 r 8 r 8 r 8 r i ",
"i N 8 r 8 r 8 r 8 r 8 r 8 r 8 r 8 r 8 r 8 r 8 r 8 r 8 r 8 r 8 r 8 r 8 r 8 r 8 r 8 r 8 r 8 r 8 r 8 r 8 r 8 r 8 r 8 r 8 r 8 r i r ",
"i N 9 r 8 r 8 r 8 r 8 r 8 r 8 r 8 r 8 r 8 r 8 r r 8 r 8 r 8 r 8 r 8 r 8 r 8 r 8 r 8 r 8 r 8 r 8 r 8 r 8 r 8 r 8 r 8 r 8 r 9 r r ",
"i N 9 8 r 8 r 8 r 8 r 8 r 8 r 8 r 8 r 8 r 8 r 8 8 r 8 r 8 r 8 r 8 r 8 r 8 r 8 r 8 r 8 r 8 r 8 r 8 r 8 r 8 r 8 r 8 r 8 r 8 9 i r ",
"i N r r 8 r 8 r 8 r 8 r 8 r 8 r 8 r 8 r 8 r 8 r r 8 r 8 r 8 r 8 r 8 r 8 r 8 r 8 r 8 r 8 r 8 r 8 r 8 r 8 r 8 r 8 r 8 r 8 r 8 r i ",
"i N 8 9 r 8 r 8 r 8 r 8 r 8 r 8 r 8 r 8 r 8 r 8 8 r 8 r 8 r 8 r 8 r 8 r 8 r 8 r 8 r 8 r 8 r 8 r 8 r 8 r 8 r 8 r 8 r 8 r 8 r i r ",
"r N 8 r 8 r 8 r 8 r 8 r 8 r 8 r 8 r 8 r 8 r 8 r r 8 r 8 r 8 r 8 r 8 r 8 r 8 r 8 r 8 r 8 r 8 r 8 r 8 r 8 r 8 r 8 r 8 r 8 r 9 r r ",
"i N 9 8 r 8 r 8 r 8 r 8 r 8 r 8 r 8 r 8 r 8 r 8 8 r 8 r 8 r 8 r 8 r 8 r 8 r 8 r 8 r 8 r 8 r 8 r 8 r 8 r 8 r 8 r 8 r 8 r 8 9 i r ",
"i N 9 r 8 r 8 r 8 r 8 r 8 r 8 r 8 r 8 r 8 r 8 r r 8 r 8 r 8 r 8 r 8 r 8 r 8 r 8 r 8 r 8 r 8 r 8 r 8 r 8 r 8 r 8 r 8 r 8 r 8 r i ",
"i N 9 8 r 8 r 8 r 8 r 8 r 8 r 8 r 8 r 8 r 8 r 8 8 r 8 r 8 r 8 r 8 r 8 r 8 r 8 r 8 r 8 r 8 r 8 r 8 r 8 r 8 r 8 r 8 r 8 r 8 r i r ",
"i N r 8 8 r 8 r 8 r 8 r 8 r 8 r 8 r 8 r 8 r 8 r 8 r 8 r 0 r 0 a a r r 8 r 8 r 8 r 8 r 8 r 8 r 8 r 8 r 8 r 8 r 8 r 8 r 8 r 9 r r ",
"i N 8 r r 8 r 8 r 8 r 8 r 8 r 8 r 8 r 8 r 8 r 8 r 8 r 8 0 f I c 9 I f q 8 r 8 r 8 r 8 r 8 r 8 r 8 r 8 r 8 r 8 r 8 r 8 r 8 9 i r ",
"r N 9 9 8 r 8 r 8 r 8 r 8 r 8 r 8 r 8 r 8 r 8 r r 8 8 r f 0 @ & - @ 8 8 r 8 r 8 r 8 r 8 r 8 r 8 r 8 r 8 r 8 r 8 r 8 r 8 r 8 r i ",
"i N 8 r r 8 r 8 r 8 r 8 r 8 r 8 r 8 r 8 r 8 r 8 8 r a 9 8 K @.,.<.%.R 3 9 r 8 r 8 r 8 r 8 r 8 r 8 r 8 r 8 r 8 r 8 r 8 r 8 r i r ",
"i N 9 r 8 r 8 r 8 r 8 r 8 r 8 r 8 r 8 r 8 r 8 r r 8 0 J $ *.t.O.X.q.-.& K 6 a r r 8 r 8 r 8 r 8 r 8 r 8 r 8 r 8 r 8 r 8 r 9 r r ",
"i N 9 8 r 8 r 8 r 8 r 8 r 8 r 8 r 8 r 8 r 8 r 8 8 r f 8 Y 7. .  X { q.E 6 c r 9 8 r 8 r 8 r 8 r 8 r 8 r 8 r 8 r 8 r 8 r 8 9 i r ",
"i N r r 8 r 8 r 8 r 8 r 8 r 8 r 8 r 8 r 8 r 8 r r 8 f a < 1.=.O X %.4.8 0 f 9 r r 8 r 8 r 8 r 8 r 8 r 8 r 8 r 8 r 8 r 8 r 8 r i ",
"i N 8 9 r 8 r 8 r 8 r 8 r 8 r 8 r 8 r 8 r 8 r 8 8 r 0 J < ( 9.>.:.9.) & J 8 r 8 8 r 8 r 8 r 8 r 8 r 8 r 8 r 8 r 8 r 8 r 8 r i r ",
"r N 9 8 r 8 r 8 r 8 r 8 r 8 r 8 r 8 r 8 r 8 r 8 0 r r V < O.4.;.-.4.+.< V r r 9 r 8 r 8 r 8 r 8 r 8 r 8 r 8 r 8 r 8 r 8 r 9 r r ",
"i N 9 r 8 r 8 r 8 r 8 r 8 r 8 r 8 r 8 r 8 r 8 r r 0 F < ^ t.[ . X ' t._ & G 8 r 8 r 8 r 8 r 8 r 8 r 8 r 8 r 8 r 8 r 8 r 8 9 r r ",
"i N 9 9 r 8 r 8 r 8 r 8 r 8 r 8 r 8 r 8 r 8 r 8 8 r K @ } q.R 3 9 8 7. .@ I r 8 r 8 r 8 r 8 r 8 r 8 r 8 r 8 r 8 r 8 r 8 r 0 i r ",
"i N 8 r 8 r 8 r 8 r 8 r 8 r 8 r 8 r 8 r 8 r 8 r r 8 V < ~ t.&.Y a #.t./ & F 8 r 8 r 8 r 8 r 8 r 8 r 8 r 8 r 8 r 8 r 8 r 0 r r i ",
"i N r 0 r 8 r 8 r 8 r 8 r 8 r 8 r 8 r 8 r 8 r 8 8 r 8 J &  .q.4.3.t.O.> D 9 r 8 r 8 r 8 r 8 r 8 r 8 r 8 r 8 r 8 r 8 r 8 r 9 r r ",
"i N 8 r 8 r 8 r 8 r 8 r 8 r 8 r 8 r 8 r 8 r 8 r r 8 8 r V & Q ' ' ! - 9 r r 8 r 8 r 8 r 8 r 8 r 8 r 8 r 8 r 8 r 8 r 8 r 8 9 r r ",
"r N 9 9 r 8 r 8 r 8 r 8 r 8 r 8 r 8 r 8 r 8 r 8 r 8 r 8 0 L 8 & $ 3 K r r 8 r 8 r 8 r 8 r 8 r 8 r 8 r 8 r 8 r 8 r 8 r 8 r 0 i r ",
"r N 8 r 8 r 8 r 8 r 8 r 8 r 8 r 8 r 8 r 8 r 8 r 8 r 8 r q h 9 G I 9 8 r 8 r 8 r 8 r 8 r 8 r 8 r 8 r 8 r 8 r 8 r 8 r 8 r 0 r r i ",
"i N 9 9 r 8 r 8 r 8 r 8 r 8 r 8 r 8 r 8 r 8 r 8 r 8 r 8 r 8 r 6 6 9 r 9 r 8 r 8 r 8 r 8 r 8 r 8 r 8 r 8 r 8 r 8 r 8 r 8 r 9 r r ",
"i N 8 r 8 r 8 r 8 r 8 r 8 r 8 r 8 r 8 r 8 r 8 r 8 r 8 r 8 r 8 r a r 8 r 8 r 8 r 8 r 8 r 8 r 8 r 8 r 8 r 8 r 8 r 8 r 8 r 8 9 r r ",
"i N r 0 r 8 r 8 r 8 r 8 r 8 r 8 r 8 r 8 r 8 r 8 r 8 r 8 r 8 r 8 r 8 r 8 r 8 r 8 r 8 r 8 r 8 r 8 r 8 r 8 r 8 r 8 r 8 r 8 r 0 i r ",
"i N 8 r 8 r 8 r 8 r 8 r 8 r 8 r 8 r 8 r 8 r 8 r 8 r 8 r 8 r 8 r 8 r 8 r 8 r 8 r 8 r 8 r 8 r 8 r 8 r 8 r 8 r 8 r 8 r 8 r 0 r r i ",
"r N 9 8 r 8 r 8 r 8 r 8 r 8 r 8 r 8 r 8 r 8 r 8 r 8 r 8 r 8 r 8 r 8 r 8 r 8 r 8 r 8 r 8 r 8 r 8 r 8 r 8 r 8 r 8 r 8 r 8 r 9 r r ",
"i N 9 r 8 r 8 r 8 r 8 r 8 r 8 r 8 r 8 r 8 r 8 r 8 r 8 r 8 r 8 r 8 r 8 r 8 r 8 r 8 r 8 r 8 r 8 r 8 r 8 r 8 r 8 r 8 r 8 r 8 9 r r ",
"i N 9 9 r 8 r 8 r 8 r 8 r 8 r 8 r 8 r 8 r 8 r 8 r 8 r 8 r 8 r 8 r 8 r 8 r 8 r 8 r 8 r 8 r 8 r 8 r 8 r 8 r 8 r 8 r 8 r 8 r 0 i r ",
"i N 8 r 8 r 8 r 8 r 8 r 8 r 8 r 8 r 8 r 8 r 8 r 8 r 8 r 8 r 8 r 8 r 8 r 8 r 8 r 8 r 8 r 8 r 8 r 8 r 8 r 8 r 8 r 8 r 8 r 0 r r i ",
"i N r 0 r 8 r 8 r 8 r 8 r 8 r 8 r 8 r 8 r 8 r 8 r 8 r 8 r 8 r 8 r 8 r 8 r 8 r 8 r 8 r 8 r 8 r 8 r 8 r 8 r 8 r 8 r 8 r 8 r 9 r r ",
"i N 8 r 8 r 8 r 8 r 8 r 8 r 8 r 8 r 8 r 8 r 8 r 8 r 8 r 8 r 8 r 8 r 8 r 8 r 8 r 8 r 8 r 8 r 8 r 8 r 8 r 8 r 8 r 8 r 8 r 8 9 r r ",
"r N 9 9 r 8 r 8 r 8 r 8 r 8 r 8 r 8 r 8 r 8 r 8 r 8 r 8 r 8 r 8 r 8 r 8 r 8 r 8 r 8 r 8 r 8 r 8 r 8 r 8 r 8 r 8 r 8 r 8 r 0 i r ",
"r N 8 r 8 r 8 r 8 r 8 r 8 r 8 r 8 r 8 r 8 r 8 r 8 r 8 r 8 r 8 r 8 r 8 r 8 r 8 r 8 r 8 r 8 r 8 r 8 r 8 r 8 r 8 r 8 r 8 r 0 r r i ",
"i N 9 9 r 8 r 8 r 8 r 8 r 8 r 8 r 8 r 8 r 8 r 8 r 8 r 8 r 8 r 8 r 8 r 8 r 8 r 8 r 8 r 8 r 8 r 8 r 8 r 8 r 8 r 8 r 8 r 8 r 9 r r ",
"i N 8 r 8 r 8 r 8 r 8 r 8 r 8 r 8 r 8 r 8 r 8 r 8 r 8 r 8 r 8 r 8 r 8 r 8 r 8 r 8 r 8 r 8 r 8 r 8 r 8 r 8 r 8 r 8 r 8 r 8 9 r r ",
"i N r 0 r 8 r 8 r 8 r 8 r 8 r 8 r 8 r 8 r 8 r 8 r 8 r 8 r 8 r 8 r 8 r 8 r 8 r 8 r 8 r 8 r 8 r 8 r 8 r 8 r 8 r 8 r 8 r 8 r 0 i r ",
"i N 8 r 8 r 8 r 8 r 8 r 8 r 8 r 8 r 8 r 8 r 8 r 8 r 8 r 8 r 8 r 8 r 8 r 8 r 8 r 8 r 8 r 8 r 8 r 8 r 8 r 8 r 8 r 8 r 8 r 0 r r i ",
"r N 9 8 r 8 r 8 r 8 r 8 r 8 r 8 r 8 r 8 r 8 r 8 r 8 r 8 r 8 r 8 r 8 r 8 r 8 r 8 r 8 r 8 r 8 r 8 r 8 r 8 r 8 r 8 r 8 r 8 r 9 r r ",
"i N 9 r 8 r 8 r 8 r 8 r 8 r 8 r 8 r 8 r 8 r 8 r 8 r 8 r 8 r 8 r 8 r 8 r 8 r 8 r 8 r 8 r 8 r 8 r 8 r 8 r 8 r 8 r 8 r 8 r 8 9 r r ",
"i N 9 9 r 8 r 8 r 8 r 8 r 8 r 8 r 8 r 8 r 8 r 8 r 8 r 8 r 8 r 8 r 8 r 8 r 8 r 8 r 8 r 8 r 8 r 8 r 8 r 8 r 8 r 8 r 8 r 8 r 0 i r ",
"i N 8 r 8 r 8 r 8 r 8 r 8 r 8 r 8 r 8 r 8 r 8 r 8 r 8 r 8 r 8 r 8 r 8 r 8 r 8 r 8 r 8 r 8 r 8 r 8 r 8 r 8 r 8 r 8 r 8 r 0 r r i ",
"i N r 0 r 8 r 8 r 8 r 8 r 8 r 8 r 8 r 8 r 8 r 8 r 8 r 8 r 8 r 8 r 8 r 8 r 8 r 8 r 8 r 8 r 8 r 8 r 8 r 8 r 8 r 8 r 8 r 8 r 9 r r ",
"i N 8 r 8 r 8 r 8 r 8 r 8 r 8 r 8 r 8 r 8 r 8 r 8 r 8 r 8 r 8 r 8 r 8 r 8 r 8 r 8 r 8 r 8 r 8 r 8 r 8 r 8 r 8 r 8 r 8 r 8 9 r r ",
"r N 9 9 r 8 r 8 r 8 r 8 r 8 r 8 r 8 r 8 r 8 r 8 r 8 r 8 r 8 r 8 r 8 r 8 r 8 r 8 r 8 r 8 r 8 r 8 r 8 r 8 r 8 r 8 r 8 r 8 r 0 i r ",
"r N 8 r 8 r 8 r 8 r 8 r 8 r 8 r 8 r 8 r 8 r 8 r 8 r 8 r 8 r 8 r 8 r 8 r 8 r 8 r 8 r 8 r 8 r 8 r 8 r 8 r 8 r 8 r 8 r 8 r 0 r r i "
};
