/* XPM */
static char *result[] = {
/* columns rows colors chars-per-pixel */
"64 64 82 1 ",
"  c orange",
". c #FFAB01",
"X c #FFAD09",
"o c #FFB200",
"O c #FFBD00",
"+ c #FFA714",
"@ c #FFAA1E",
"# c #FFB11C",
"$ c #FFB32D",
"% c #FFBC2B",
"& c #FFAC30",
"* c #FFC501",
"= c #FFC900",
"- c #FFD600",
"; c #FFD901",
": c #FFD10F",
"> c #FFDA0B",
", c #FFC216",
"< c #FFC810",
"1 c #FFC71E",
"2 c #FFC81C",
"3 c #FFE400",
"4 c #FFEB00",
"5 c #FFF101",
"6 c #FFFE00",
"7 c #FFF309",
"8 c #FFDA25",
"9 c #FFDA2C",
"0 c #FFC132",
"q c #FFC23F",
"w c #FFF32C",
"e c #FFE133",
"r c #FFE23A",
"t c #FFF334",
"y c #FFC447",
"u c #FFC549",
"i c #FFDC57",
"p c #FFF446",
"a c #FFF54A",
"s c #FFF65B",
"d c #FFDD6B",
"f c #FED579",
"g c #FFDF78",
"h c #FFF663",
"j c #FFF66A",
"k c #FFE176",
"l c #FFEB7B",
"z c #FFF670",
"x c #FEF37A",
"c c #FED684",
"v c #FFD884",
"b c #FFDF97",
"n c #FEE381",
"m c #FEEC81",
"M c #FFE18B",
"N c #FFF18A",
"B c #FFE09E",
"V c #FEF895",
"C c #FEF09E",
"Z c #FFE4A1",
"A c #FEE2AF",
"S c #FFF2A5",
"D c #FFFBA4",
"F c #FFF3AC",
"G c #FFECB4",
"H c #FFEBBC",
"J c #FEFBB1",
"K c #FFF3BA",
"L c #FFFBBB",
"P c #FFECC3",
"I c #FFF6C0",
"U c #FFFCC7",
"Y c #FFF4CC",
"T c #FFF8C8",
"R c #FFEFD1",
"E c #FFF2D6",
"W c #FFFFD1",
"Q c #FFFEDF",
"! c #FFF2E6",
"~ c #FFF6F4",
"^ c #FFFEF6",
"/ c #FFFFFF",
/* pixels */
"////////////////////////////////////////////////////////////////",
"////////////////////////////////////////////////////////////////",
"////////////////////////////////////////////////////////////////",
"////////////////////////////////////////////////////////////////",
"////////////////////////////////////////////////////////////////",
"////////////////////////////////////////////////////////////////",
"////////////////////////////////////////////////////////////////",
"////////////////////////////////////////////////////////////////",
"////////////////////////////////////////////////////////////////",
"////////////////////////////////////////////////////////////////",
"////////////////////////////////////////////////////////////////",
"////////////////////////////////////////////////////////////////",
"////////////////////////////////////////////////////////////////",
"/////////////////////////UhjjhaapppapsQ/////////////////////////",
"///////////////////////^/V666666666666L/^///////////////////////",
"/////////////////////////J677777777777U/////////////////////////",
"///////////////////////LIx534443434344NKK///////////////////////",
"///////////////////////w64-;--------;-;4e/^/////////////////////",
"///////////////////////t63-;-;;-;;;;-;;3r///////////////////////",
"///////////////////////t63-;;;------;--3e///////////////////////",
"////////////////////Jtt>;;;-;*.OoooO;;-;>r8C/^//////////////////",
"//////////////////^/V66;-->88,.....O;;;;;35l////////////////////",
"//////////////////^/D67;->--;O+... o;---;>3m/^//////////////////",
"////////////////////S43;8-iHYvO1*=*=33;;;;4m////////////////////",
"////////////////////S;;;9-f//G-9;;;;553;;;3m////////////////////",
"//////////////////^/S3;;9-k//G-9;;-3553-;;3m////////////////////",
"//////////////////^/S3;;9-d!~Z-8;;-;553-;;3m/^//////////////////",
"////////////////////S;;;-;:$&2;;;;-;543-;;3m////////////////////",
"//////////////////^/S3;;-;-. *>;;;;;453-;:3m/^//////////////////",
"//////////////////^/S;-;;;-#@<;-;;;;553-;;4m////////////////////",
"//////////////////^/S3-;;;-..*;;;-;;453-;;3l////////////////////",
"////////////////////S3;--;-..*;;;;;;553-;;4l////////////////////",
"//////////////////^/S3;;;;-o.=;;-;-;553-;;3m////////////////////",
"//////////////////^/S;-;;;=. =;;-;-3553-;;3m////////////////////",
"//////////////////^/S3;;;;-..*;;;;-;453--;4m/^//////////////////",
"////////////////////S3;-;;-..=;-;--;553-;>3m////////////////////",
"////////////////////S3;;-;-..*;;;--3553-;;3m////////////////////",
"//////////////////^/S;-;;;-o.*;;;;;;553-;;3m/^//////////////////",
"//////////////////^/S3;;-;=o.=;;;;-;55;-;;3n/^//////////////////",
"//////////////////^/S3-;-;-. *;----;553-;;4m////////////////////",
"////////////////////S;;;-;-**-33333333;-;*-n/^//////////////////",
"//////////////////^/S;;;;;-;;3555554--;;-Xoc////////////////////",
"////////////////////S53;;--;-3555554;;;;-O*f/^//////////////////",
"//////////////////^/F9r>;;;;-3544444--;-:%%Z/^//////////////////",
"/////////////////////^/e3;-;-;;;;;;;-;*o%/^/////////////////////",
"///////////////////////e3;--;;;;;;;;;;*.y///////////////////////",
"///////////////////////e4;;;;;;;;;;;;;*O%///////////////////////",
"///////////////////////YTk=OO*OOO*OO**MPH///////////////////////",
"/////////////////////////A.XXX.XXXXX..R/////////////////////////",
"///////////////////////^/b*OOOOOOOOOOOH/^///////////////////////",
"/////////////////////////PquyyyyyyyuuuE/////////////////////////",
"////////////////////////////////////////////////////////////////",
"////////////////////////////////////////////////////////////////",
"////////////////////////////////////////////////////////////////",
"////////////////////////////////////////////////////////////////",
"////////////////////////////////////////////////////////////////",
"////////////////////////////////////////////////////////////////",
"////////////////////////////////////////////////////////////////",
"////////////////////////////////////////////////////////////////",
"////////////////////////////////////////////////////////////////",
"////////////////////////////////////////////////////////////////",
"////////////////////////////////////////////////////////////////",
"////////////////////////////////////////////////////////////////",
"////////////////////////////////////////////////////////////////"
};
