/* XPM */
static char *xpm_[] = {
/* columns rows colors chars-per-pixel */
"64 64 92 1 ",
"  c #004DB8",
". c #005CBB",
"X c #005DBB",
"o c #005EBB",
"O c #0060BC",
"+ c #0061BC",
"@ c #0062BC",
"# c #0064BC",
"$ c #0E67BD",
"% c #0068BD",
"& c #0068BE",
"* c #006ABE",
"= c #006CBF",
"- c #006EBF",
"; c #006FBF",
": c #056CBF",
"> c #076DBF",
", c #0070BF",
"< c #006FC0",
"1 c #0070C0",
"2 c #0170C0",
"3 c #0071C0",
"4 c #0270C0",
"5 c #0271C0",
"6 c #0371C0",
"7 c #0071C3",
"8 c #0072C3",
"9 c #0470C0",
"0 c #0570C0",
"q c #0471C0",
"w c #0571C0",
"e c #0072C4",
"r c #0072C5",
"t c #0073C5",
"y c #0073C6",
"u c #0073C7",
"i c #0074C7",
"p c #0075C7",
"a c #0871C0",
"s c #0872C0",
"d c #0C71C0",
"f c #0F72C1",
"g c #0074C8",
"h c #0075C8",
"j c #0075C9",
"k c #0076C9",
"l c #0076CA",
"z c #0076CB",
"x c #0077CB",
"c c #0077CC",
"v c #0078CD",
"b c #1072C1",
"n c #1172C1",
"m c #1472C1",
"M c #1573C1",
"N c #1773C1",
"B c #1873C1",
"V c #1B74C1",
"C c #1C74C1",
"Z c #1E74C1",
"A c #007AD1",
"S c #007BD4",
"D c #007ED8",
"F c #397AC3",
"G c #4D83C6",
"H c #5083C6",
"J c #5989C8",
"K c #5989C9",
"L c #5B8AC9",
"P c #5C8BC9",
"I c #5E8BC9",
"U c #7A9DD0",
"Y c #8BA2D1",
"T c #95AAD5",
"R c #91ACD6",
"E c #9AADD6",
"W c #9BADD6",
"Q c #9BAED6",
"! c #9CAED7",
"~ c #9FB0D7",
"^ c #BAC7E2",
"/ c #C0CFE6",
"( c #D2DBEC",
") c #E0E6F1",
"_ c #EBF0F7",
"` c #F8FCFE",
"' c #F9FDFF",
"] c #FBFDFF",
"[ c #FAFEFF",
"{ c #FBFFFF",
"} c white",
"| c None",
/* pixels */
"liyiylyyiiyyiiiiiiiiiiyyiiiiyiiiiiyyiiiiyiiiiiyyiiiiyiiiiiyyiiil",
"lA8yyyyyyyyyyyyyyyyyyyyyyyyyyyyyyyyyyyyyyyyyyyyyyyyyyyyyyyyyy8vl",
"yl,;;;;;<;;;<;<<;<<<<;;;<;;;;;;;<;<;<;<<;;;;<;<;<;<<;;;;<;;;;;yi",
"il;8;8<;8;<88;;8;;8,8;<88;;8;8<;8;<88;;8;8<;8;<88;;8;8<;8;<8;8ii",
"il;8;;,8,;,;;8;;;;,;;8;8;;,8;;,8,;,;;8;;,8;8,;,;;;,8;;,8;;;;,;yi",
"ic;,8,;;8;8;;,8,8,8;;,;,8,;;8,;;8;8;;,8,;;;,8;8;8,;;8,;;,8,8,8il",
"il8,;8;8;;,8,;;;;;;8,8;;;8;8;8;8;;,8,;;;,8,;;;,8;8;8;8;88;;,,,ii",
"ix;;;,;,8,;;8;8,8,;,;;8,;,;,;,;,8,;;8;8,;;8;8,;;;,;,;,;,,;;8,8ii",
"il;8,;,;;;,8;8;;;;,;,8;;;8;8;8;8;8;;,8;8;8;;,8;8;;;;;;;;8;;,8,il",
"il;,8;8;8,;;;,8,8,8;;;8,;,;,;,;,;,8,;;;,;,8,;;;,,8,8,8,8,;;8;;ii",
"il;;;;,8;8;8,;;;;;;8,;,;,8;;,8;;,;;;,8,;,;;;,8,;8;;,8;;,8,8,8,ii",
"ll;;8,;;;,;,8;8,8,;,8;8;;;8,;;8,8;8,;;8;8;8,;;8;,;;8,;;8;;;;;,il",
"il,8,8;8,;,;;8;;;;,;;8;8,;,8;;,;;;,8;;,8;;,8;;,88,8;;,8,;;;;;;yi",
"il;;;;;,8;8;;,8,8,8;;,;,8;;;8,8;8,;;8,;;8,;;8,;;;;,;;8;;,8,8,8il",
"ll;,,8,;;;,8,;;;;;;8,8;;;8,8;;;8;8;8;8;8;8;8;8;8;;8;;,;;8;;,,,ii",
"il;,;;8;8,;;8;8,8,;,;;8,;,;;8,;,;,;,;,;,;,;,;,;,,8,;;8,8,;;8,8ii",
"il;8;8;;,8;8;;,8;;,8;8;;;;,;,8;;;;;;;;;;;;;;;;;;8,8;;,8,8;;,8,il",
"il;,;,8,;;;,8,;;8,;;;,8,8,8;;;8,,8,8,8,8,8,8,8,8;;,;;8;;,;;8;;ii",
"ix,;,;;;,8,;;8;8;8;8,;;;;;;8,;,;8;;,8;;,8;;,8;;,;;8;;,;;8,8,8,ii",
"ix;88;8,;;8;;,;,;,;,8;8,8,;,8;8;,;;8,;;8,;;8,;;8,8,;;8,8;;;;;,il",
"il;8;8;;,8;8,;,;,;,;;8;;;;,;;8;88,8;;,8,8,8;;,8,8;;,8;;,;;;;;;yi",
"il;,;,8,;;;,8;8;8;8;;,8,8,8;;,;,;;,;;8;;;;,;;8;;,;;8,;;8,8,8,8il",
"il;;,;;;,8,;;;,8;;,8,;;;;;;8,8,,;;8;;,;;;;8;;,;;8,8,8,8,8;;,,,ii",
"il;;8;8,;;8;8,;;8,;;8;8,8,;,;;8,,8,;;8,8,8,;;8,8;;;;;;;;,;;8,8ii",
"ix,8,8;8;8;;,8;8;8;;,8;8;8;;;,8,bq,8;8;;;,8,8;;,;;;;;;;;8;;,8,il",
"ix;;;;;,;,8,;;;,;,8,;;;,;,8,;8>M#;,;,,8,;8;;,;;8,8,8,8,8,;;8;;ii",
"il;,,8,;,;;;,8,;,;;;,8,;,;;;;Z;@IF;8,;;;;,;;8,8,8;;,8;;,8,8,8,ii",
"il;8;;8;8;8,;;8;8;8,;;8;8;8,b@X^]EXZq;8,;8,8;;;;,;;8,;;8;;;;;,il",
"il;8;;,8;;,8;;,8;;,8;;,8;;6M*R_]]EXZ<;,8;,8,;;;;8,8;;,8,;;;;;;yi",
"il;,8,;;8,;;8,;;8,;;8,;;8,s$@/(U[!XV8;;;;8;;,8,8;;,;;8;;,8,8,8il",
"ix,;;8;8;8;8;8;8;8;8;8;8;8;8q: G]!XV:8,8;,;;8;;,;;8;;,;;8;;,,,ii",
"ix;8;,;,;,;,;,;,;,;,;,;,;,;,8b;L[!XZ,,;;;8,8,;;8,8,;;8,8,;;8,8ii",
"ll;,;;;;;;;;;;;;;;;;;;;;;;,;8b*J[EOZ,q8,,8;8;;,8;8;;,8;8;;,8;8yi",
"il;;,8,8,8,8,8,8,8,8,8,8,8,8,b#J[!#Z,,,,;;;,8,;;;,8,;;;,8,;;;,ii",
"il;;8;;,8;;,8;;,8;;,8;;,8;,,8>#L[QXZ:;8;,8,;;8;8,;;;,8,;;8;8;8il",
"il;8,;;8,;;8,;;8,;;8,;;8,;,8,M%L]~X$,8,,;;8;;,;,8;8,;;8;;,;,,,ii",
"il8,;,8,8,8;;,8,8,8;;,8,8,8;,d*H)Y:$8,8;,8;8,;,;;;,8;;,8;;;;,;ii",
"ix;,;8;;;;,;;8;;;;,;;8;;;;,;;;8;$>,8,,,,;;;,8;8;8,;;8,;;,8,88;il",
"il;8;,;;;;8;;,;;;;8;;,;;;;8;,8,,>s;,;;8;,8,;;;,8;8;8;8;88;;,,,ii",
"il;;;8,8,8,;;8,8,8,;;8,8,8,;,,8:,8;8,8,;;;8;8,;;;,;,;,;,,;;8,8ii",
"il;8;8;;;,8,8;;,8;;,8,8;,8;8;;,8,8,,,8;8;8;;,8;8;;;;;;;;8;;,8,il",
"ll;,;,8,;8;;,;;8,;;8;;,;;;;,8,;;,q8,;;;,;,8,;;;,,8,8,8,8,;;8;;ii",
"il,;,;;;;,;;8,8,8,8,;;8;,8,;;8;8,;;;,8,;,;;;,8,;8;;,8;;,8,8,8,ii",
"il,88;8,;8,8;;;;;;;;,8,;;;8;;,;,8;8,;;8;8;8,;;8;,;;8,;;8;;;;;,il",
"il;8;8;;;,8,;;;;;;;;8,8;,8;8,;,;;;,8;;,8;;,8;;,88,8;;,8,;;;;;;yi",
"il;,;,8,;8;;,8,8,8,8;;,;;;;,8;8;8,;;8,;;8,;;8,;;;;,;;8;;,8,8,8il",
"il;;,;;;;,;;8;;,8;;,;;8;,8,;;;,8;8;8;8;8;8;8;8;8;;8;;,;;8;;,,,ii",
"il;;8;8,;8,8,;;8,;;8,8,;;;8;8,;;;,;,;,;,;,;,;,;,,8,;;8,8,;;8,8ii",
"il8,,8;8;;,8;8;;,8;8;;,8;8;;,8;8,;,;,;,;,;,;,;,;8,8;;,8,8;;,8,il",
"ix;,;;;,8,;;;,8,;;;,8,;;;,8,;;;,8;8;8;8;8;8;8;8;;;,;;8;;,;;8;;ii",
"il;8,8,;;8;8,;;;,8,;;8;8,;;;,8,;;;,8;;,8;;,8;;,8;;8;;,;;8,8,8,ii",
"il;;;;8;;,;,8;8,;;8;;,;,8;8,;;8;8,;;8,;;8,;;8,;;,8,;;8,8;;;;;,il",
"il;8;;,8,;,;;8;;,8;8,;,;;;,8;;,8;8;;,8;8;8;;,8;88;;,8;;,;;;;;;yi",
"ll;,8,;;8;8;;,8,;;;,8;8;8,;;8,;;;,8,;;;,;,8,;;;,,;;8,;;8,8,8,8il",
"il,;;8;8;;,8,;;;,8,;;;,8;8;8;8;8,;;;,8,;,;;;,8,;8,8,8,8,8;;,,,ii",
"il,8;,;,8,;;8;8,;;8;8,;;;,;,;,;,8;8,;;8;8;8,;;8;;;;;;;;;,;;8,8ii",
"il;8,;,;;;,8;8;;,8;8;;,8,;,;,;,;;;,8;8;;,8;8;;,8,;,;,;,;8;;,8,il",
"il;,8;8;8,;;;,8,;;;,8,;;8;8;8;8;8,;;;,8,;;;,8,;;8;8;8;8;,;;8;;ii",
"il;;;;,8;8;8,;;;,8,;;8;8;;,8;;,8;8;8,;;;,8,;;8;8;;,8;;,88,8,8,ii",
"il;;8,;;;,;,8;8,;;8;;,;,8,;;8,;;;,;,8;8,;;8;;,;,8,;;8,;;;;;;;,il",
"lx,8<8;8;;<8;8;;<8;88;<<;8;;<8;88;<<;8;;<8;88;<<;8;;<8;8;;;8;8yi",
"yi,;<<;,,8<<;,8,<<;,;;8<;,8,<<;,;;8<;,8,<<;,;;8<;,8,<<;,,8;<,;yi",
"iDlllcllcccccllllclllcllcllllclllcllcllllclllcllcllllcllccllllAl",
"|yyyyyyyyy<yyyyyyyyyyyyyyyyyyyyyyyyyyyyyyyyyyyyyyyyyyyyyyyyyy8y|"
};
