/* XPM */
static char *xpm_[] = {
/* columns rows colors chars-per-pixel */
"64 64 136 2 ",
"   c #0049B7",
".  c #0053B8",
"X  c #0056BA",
"o  c #0058BA",
"O  c #005ABA",
"+  c #005BBA",
"@  c #005DBB",
"#  c #005FBB",
"$  c #0060BB",
"%  c #0060BC",
"&  c #0062BC",
"*  c #0063BC",
"=  c #0064BD",
"-  c #0065BD",
";  c #0066BD",
":  c #0067BD",
">  c #0E67BE",
",  c #006ABE",
"<  c #006DBF",
"1  c #006FBE",
"2  c #006EBF",
"3  c #006FBF",
"4  c #006FC0",
"5  c #006FC1",
"6  c #0F6FC0",
"7  c #0070C0",
"8  c #0170C0",
"9  c #0071C0",
"0  c #0070C1",
"q  c #0071C1",
"w  c #0270C0",
"e  c #0371C0",
"r  c #0072C1",
"t  c #0072C3",
"y  c #0470C0",
"u  c #0570C0",
"i  c #0471C0",
"p  c #0771C0",
"a  c #0772C0",
"s  c #0072C4",
"d  c #0073C4",
"f  c #0072C5",
"g  c #0073C5",
"h  c #0072C6",
"j  c #0073C6",
"k  c #0074C5",
"l  c #0074C6",
"z  c #0074C7",
"x  c #0075C7",
"c  c #0871C0",
"v  c #0971C0",
"b  c #0872C0",
"n  c #0C71C0",
"m  c #0D71C0",
"M  c #0F72C0",
"N  c #0074C8",
"B  c #0075C8",
"V  c #0075C9",
"C  c #0076CA",
"Z  c #0076CB",
"A  c #0077CC",
"S  c #0077CD",
"D  c #1270C0",
"F  c #1072C1",
"G  c #1372C0",
"H  c #1272C1",
"J  c #1372C1",
"K  c #1472C1",
"L  c #1773C1",
"P  c #1873C1",
"I  c #1B73C1",
"U  c #1F70C0",
"Y  c #1C74C1",
"T  c #1E74C1",
"R  c #007AD1",
"E  c #007BD2",
"W  c #007FD9",
"Q  c #2373C1",
"!  c #2573C1",
"~  c #2274C1",
"^  c #2275C1",
"/  c #2676C2",
"(  c #2A73C1",
")  c #2F73C1",
"_  c #2977C2",
"`  c #2F79C3",
"'  c #467AC3",
"]  c #487BC3",
"[  c #5182C6",
"{  c #5B87C8",
"}  c #5E88C8",
"|  c #6289C8",
" . c #6C90CA",
".. c #6D92CC",
"X. c #7392CB",
"o. c #7594CC",
"O. c #7697CD",
"+. c #7896CC",
"@. c #7399CE",
"#. c #779ACE",
"$. c #7A9CCF",
"%. c #83A1D1",
"&. c #8CA3D2",
"*. c #97AFD7",
"=. c #9AB2D9",
"-. c #A4BADD",
";. c #AABCDD",
":. c #ACC0DF",
">. c #AEC1E0",
",. c #B2C4E1",
"<. c #C9D5E9",
"1. c #CAD6E9",
"2. c #DDE2EF",
"3. c #E3E9F3",
"4. c #E4E8F2",
"5. c #E6EAF3",
"6. c #E4EBF4",
"7. c #E6EBF5",
"8. c #E8EBF4",
"9. c #ECEFF6",
"0. c #EDF2F8",
"q. c #EEF4FA",
"w. c #F1F4F9",
"e. c #F0F4FA",
"r. c #F2F6FA",
"t. c #F2F6FB",
"y. c #F4F7FB",
"u. c #F5F9FC",
"i. c #F6F9FC",
"p. c #F7FBFD",
"a. c #F8FCFD",
"s. c #FAFCFE",
"d. c #FCFFFF",
"f. c #FEFFFF",
"g. c white",
"h. c None",
/* pixels */
"k k V V V f V V f V V f V V f V V k V V k V V k V V k V V k V V k V V k V V k V V k V V k V V k V V k V V k V V k V V k V V k V ",
"r E r f k f f k k f f f f k k f f f f f f f f f f f f f f f f f f f f f f f f f f f f f f f f f f f f f f f f f f f f f f f V k ",
"r V 4 4 4 4 4 4 4 4 4 4 4 4 4 4 4 4 4 4 r 4 4 4 4 3 4 4 4 4 4 4 4 4 4 4 4 4 4 4 4 4 4 4 r 4 4 4 4 4 r 4 4 4 4 4 r 4 3 3 4 3 k f ",
"4 S 4 r 4 3 r 4 r 4 4 r r 4 4 r 3 r 4 3 4 4 r 4 4 r 3 r 3 r 4 3 r 4 r 4 4 r 4 r 4 3 r 4 4 r 4 4 4 4 r 4 4 3 r 4 4 r 4 4 r 4 k k ",
"4 S 4 r 3 4 r 3 r 4 4 3 4 3 4 r 3 4 r r r 4 4 3 4 r 3 4 r 3 4 r 3 r r 4 4 4 r 3 4 r 3 3 3 r r 4 r 3 4 r 3 4 r 3 4 3 3 r 3 4 f f ",
"4 S 4 r 3 r 4 3 3 3 r r 4 r 4 3 r 4 3 4 3 3 r r 4 3 r 4 r 4 3 r 4 4 3 3 r 3 r 4 3 r 4 r 4 4 3 3 r 4 3 r 3 r 4 3 r r 4 4 r 3 f k ",
"4 S 4 4 4 4 r r 4 r 3 4 r 4 r 3 r 3 4 3 4 r 3 4 r r 3 3 3 3 4 4 r 3 4 r 3 r 3 4 3 4 r 4 r 3 4 r 3 3 4 4 4 4 r r 3 4 r 3 4 3 k k ",
"4 S r 4 r 3 3 4 4 3 r 4 3 3 r 4 4 3 r r 4 3 r 4 3 4 4 r 4 r r 3 r 4 3 r 4 4 3 r r 4 3 3 r 4 3 r 4 r r 3 r 3 3 4 3 r 4 3 r r f k ",
"4 S r 4 r 4 4 3 r 3 4 r 3 3 4 r 3 4 r r 3 4 r 3 r 4 4 3 4 3 3 r 3 3 4 r 4 r 3 3 4 4 r 3 r 3 4 4 3 r r 4 r 4 4 3 4 r 3 4 r 4 f k ",
"4 S 3 3 3 3 r r r 4 3 r 4 r 4 3 r 4 3 4 3 r 4 3 3 3 r r r r 4 4 4 r 4 3 3 r 4 r r 3 r 4 4 3 r 3 4 4 3 3 3 3 r r 4 3 r 4 3 4 f k ",
"4 S 4 r 4 r 3 4 3 3 4 4 r 4 r 3 r 3 4 3 4 4 r r 4 r 3 4 3 4 r 3 r 4 r 3 3 4 r 4 3 r 3 4 4 r 3 r r 3 4 r 4 r 3 4 r r 3 3 r 4 f k ",
"4 S 3 r 4 3 r 4 4 r r 3 3 3 r 4 4 3 r r r 3 3 4 4 3 r 4 3 r 4 3 3 3 r 4 r 4 3 3 4 4 3 r 3 r 4 4 r 4 3 r 4 3 r 4 3 4 4 r 3 4 k k ",
"4 S 4 r 4 r 3 3 3 r r 4 4 4 r 3 r 3 4 4 4 3 3 r r r 3 4 3 4 r r 4 r 3 4 r 3 4 r r 3 4 r 3 4 r 3 3 3 4 r 4 r 3 3 3 r r 4 r 4 f k ",
"4 S 4 3 3 r 4 r 4 4 3 3 r 3 r 4 4 3 r 3 r r 4 4 3 4 3 r r 4 3 4 4 3 r 4 r 4 3 r r 4 3 r 3 r 4 3 4 r 4 3 3 r 4 r 4 4 3 3 3 4 f k ",
"3 S r 3 3 4 r 4 r 3 4 r 3 r 3 4 4 r 3 r 3 4 r 3 4 3 4 r r 3 4 3 r r 3 3 3 3 4 4 3 3 4 4 4 4 r r r 4 r 3 3 4 r 4 r 3 4 r r 4 f k ",
"4 S r 4 r 4 3 3 r 4 3 r 4 4 3 r 3 r 4 4 3 r 4 3 r r 4 3 4 3 r r 3 4 4 r 4 r r 3 4 r r 3 r 3 3 4 3 3 r 4 r 4 3 3 r 4 3 r 3 4 k k ",
"4 S 3 4 r r 3 4 4 r 3 3 4 r 3 4 r 3 4 r 3 3 4 r 4 r 3 3 4 r 3 4 3 r r 4 r 4 4 3 r 4 4 3 4 3 3 r 4 4 r 3 r 3 4 4 r 3 4 r 3 4 f k ",
"4 S r 4 3 4 3 r 3 r 4 r 4 3 r 4 r 4 3 r 4 r 4 3 3 r 4 r 4 3 r 4 4 4 3 3 3 3 r r 3 3 r r r r 4 4 r 3 r 4 4 3 r 3 r 4 3 r 4 4 f k ",
"4 S 4 3 4 3 4 r 3 4 r 4 r r 3 3 3 3 4 4 r 4 r 3 3 4 r 4 r r 3 3 r 3 4 r 4 r 3 4 4 r 3 4 3 4 r 3 3 r 3 4 4 r 3 r 3 3 4 4 4 3 k k ",
"4 S 4 r r r 4 3 r 4 3 3 3 4 4 r 4 r r 3 3 3 r 4 r 4 3 3 3 4 4 r r 4 3 r 4 3 r 4 4 3 r 4 3 r 4 3 4 4 3 r 3 r 4 4 4 r r 3 r r f k ",
"3 S 4 3 3 3 4 r 3 4 r r r 4 4 3 3 r r 4 4 4 r 3 3 4 r r r 4 4 3 3 3 4 r 4 r 3 3 r r 3 4 3 4 r r r 3 4 r 3 4 r 3 4 3 3 r 3 4 f k ",
"4 S r r 4 r 4 3 r 4 3 4 3 3 r r 4 4 3 3 r 3 r 4 r 4 3 4 3 3 r r 4 r 4 3 3 r 4 r 3 4 3 r r 4 3 4 r 4 3 r 3 r 4 3 r r 4 4 4 4 f k ",
"4 S 3 4 r 4 r 3 r 3 4 3 4 r 3 4 r 3 4 r 3 r 3 4 r 3 4 3 4 r 3 4 r 4 r 3 3 4 r 4 4 3 4 r r 3 4 3 3 3 4 4 4 4 r r 3 4 r 3 4 3 k k ",
"4 S r 4 3 3 r 4 4 3 r r 4 3 r 4 r 4 3 r 4 4 3 r 4 3 r r 4 3 r y 3 3 r 4 r 4 3 3 r r 4 3 4 3 r r 4 r r 3 r 3 3 4 3 r 4 3 r r f k ",
"4 S 4 4 3 4 r r 3 3 4 r 4 r 3 3 3 3 4 r 4 r 3 3 4 4 r 3 3 r 3 K K v 4 r 3 3 4 r 4 r 3 3 4 r 3 4 3 r r 4 r 4 4 3 4 r 3 4 r 4 f k ",
"4 S 3 r r 4 3 4 4 r 4 3 3 r 4 r 4 r 4 3 3 r 4 r r 3 r 4 r P 4 - & 4 P r 4 r 4 3 3 r 4 r 4 3 r 4 4 4 3 3 3 3 r r 4 3 r 4 3 4 f k ",
"4 S 4 r r 3 4 3 r 4 r 3 3 4 r 4 r 4 r 3 3 4 r 4 r 4 3 4 H & D o.+.! ; H r 4 r 3 3 4 r 4 r r 3 3 r 3 4 r 4 r 3 4 r r 3 3 r 4 f k ",
"4 S 4 3 4 3 r r 3 3 r 4 r 4 3 3 3 3 r 4 r 4 3 3 3 3 r P & $.q.p.s.e.%.& P 3 r 4 r 4 3 3 3 4 4 r r 4 3 r 4 3 r 4 3 4 4 r 3 4 k k ",
"4 S r 3 4 r 3 4 4 r 3 4 r 3 4 r 4 r 3 4 r 3 4 r 4 r v 3 ( y.3.{ } 4.e.! 3 3 4 y 3 4 r r r 4 4 3 3 3 4 r 4 r 3 3 3 r r 4 r 4 f k ",
"4 S 4 3 4 3 r 4 4 3 r 4 r 4 3 r 4 3 r 4 r 4 3 r 4 3 H ;  .q.O.O X &.f.X.; H 3 r r 4 3 4 3 3 r r 4 r 4 3 3 r 4 r 4 4 3 3 3 4 f k ",
"4 S r r r r 3 3 r r 3 3 3 3 4 4 r r 3 3 3 3 4 4 r r 3 3 K _ m ` O ;.f.[ , H 4 y r 3 4 3 4 r 3 4 r 4 r 3 3 4 r 4 r 3 4 r r 4 f k ",
"4 S 3 4 3 4 4 r 3 4 4 r 4 r r 3 3 4 4 r 4 r r 3 3 4 4 r 3 3 ~ ; ] s.1.@ P 4 3 r 4 3 r r 4 3 r 4 3 3 r 4 r 4 3 3 r 4 3 r 3 4 k k ",
"4 S r 4 r 4 4 3 r 4 4 3 4 3 3 r r 4 4 3 4 3 3 r 4 3 r 3 4 / & ] e.7.U 3 m r 3 4 3 4 r r 3 4 r 3 4 4 r 3 r 3 4 4 r 3 4 r 3 4 f k ",
"4 S 3 3 3 3 r r 3 3 r r r r 4 4 3 3 r r r r 4 4 r r 3 r ~ & | i.7.) D T 4 4 3 r r 4 3 4 3 r 4 3 r 3 r 4 4 3 r 3 r 4 3 r 4 4 f k ",
"4 S 4 r 4 r 3 4 4 r 3 4 3 4 r 3 4 r 3 4 3 4 r 3 3 4 r U @ ..e.1.  . O ; > r 4 r r 3 4 3 4 4 r r 3 r 3 4 4 r 3 r 3 3 4 4 4 3 k k ",
"4 S 3 r 4 3 r 4 4 3 r 4 3 r 4 3 4 3 r 4 3 r 4 3 3 r P ; @.f.p.-.:.:.,.@., K 4 3 4 3 r r r 3 3 4 4 4 3 r 3 r 4 4 4 r r 3 r r f k ",
"4 S 4 r 4 r 3 3 r r 3 4 3 4 r r r r 3 4 3 4 r r 4 4 T & *.8.2.4.8.4.9.=.& ~ 3 r r 3 4 4 4 3 3 r r 3 4 r 3 4 r 3 4 3 3 r 3 4 f k ",
"4 S 4 3 3 r 4 r 3 4 3 r r 4 3 4 3 4 3 r r 4 3 4 r 3 r 3 , ; > ; & & & , 3 r r 3 4 3 r 3 r r 4 4 r 4 3 r 3 r 4 3 r r 4 4 4 4 f k ",
"3 S r 3 3 4 r 4 4 3 4 r r 3 4 3 4 3 4 r r 3 4 3 3 r 3 4 y v v v 3 M v y 3 r 3 r 4 r 3 r 3 4 r 3 3 3 4 4 4 4 r r 3 4 r 3 4 3 k k ",
"4 S r 4 r 4 3 3 r r 4 3 4 3 r r r r 4 3 4 3 r r 4 4 3 r y y y 3 y y 3 r 4 3 r 3 3 r 4 4 3 r 4 3 4 r r 3 r 3 3 4 3 r 4 3 r r f k ",
"4 S 3 4 r r 3 4 4 r 3 3 4 r 3 4 3 4 r 3 4 4 r 3 r 3 4 4 r 3 4 r r 3 r 3 r 3 4 4 r r 3 4 3 4 r r 3 r r 4 r 4 4 3 4 r 3 4 r 4 f k ",
"4 S r 4 3 4 3 r 3 r 4 r 4 3 r 4 3 r 4 3 r 3 r 4 4 3 r 3 r 4 3 r 3 r 3 r 4 3 r 3 3 4 3 r r 4 3 4 4 4 3 3 3 3 r r 4 3 r 4 3 4 f k ",
"4 S 4 3 4 3 4 r 3 4 r 4 r r 3 3 4 4 r r 3 r 3 4 4 r 3 r 3 3 4 4 3 r r 3 4 r 3 r 4 3 4 r r 3 4 3 r 3 4 r 4 r 3 4 r r 3 3 r 4 f k ",
"4 S 4 r r r 4 3 r 4 3 3 3 4 4 r r 3 3 4 4 4 3 r 3 r 4 4 4 r r 3 4 4 3 r 3 r 4 4 r r 4 3 4 3 r r r 4 3 r 4 3 r 4 3 4 4 r 3 4 k k ",
"3 S 4 3 3 3 4 r 3 4 r r r 4 4 3 4 3 3 r r r 3 4 4 r 3 3 3 r r 4 r 3 4 r 3 4 r 3 3 4 r 3 4 r 3 4 3 3 4 r 4 r 3 3 3 r r 4 r 4 f k ",
"4 S r r 4 r 4 3 r 4 3 4 3 3 r r r r 4 4 3 4 3 r 3 r 4 r 4 4 3 3 r 4 3 r 3 r 4 3 3 r 4 3 4 3 r 4 4 r 4 3 3 r 4 r 4 4 3 3 3 4 f k ",
"4 S 3 4 r 4 r 3 r 3 4 3 4 r 3 4 3 4 r 3 4 3 4 r 3 4 r 4 r 3 4 r 3 3 4 4 4 4 r r 4 4 r r r r 3 3 r 4 r 3 3 4 r 4 r 3 4 r r 4 f k ",
"4 S r 4 3 3 r 4 4 3 r r 4 3 r 4 3 r 4 3 r r 4 3 r 4 3 3 r 4 3 r 4 r r 3 r 3 3 4 r 3 3 4 3 4 4 r 3 3 r 4 r 4 3 3 r 4 3 r 3 4 k k ",
"4 S 4 4 3 4 r r 3 4 r 3 4 4 r 3 3 4 r r 3 4 r 3 4 4 r 3 r 3 4 4 3 r r 4 r 4 4 3 r 4 4 3 4 3 3 r 4 4 r 3 r 3 4 4 r 3 4 r 3 4 f k ",
"4 S 3 r r 4 3 4 3 r 4 3 r 3 r 4 r 4 3 4 3 r 4 3 r 3 r 4 4 3 r 3 4 4 3 3 3 3 r r 3 3 r r r r 4 4 r 3 r 4 4 3 r 3 r 4 3 r 4 4 f k ",
"4 S 4 r r 3 4 3 4 4 r r 3 r 3 4 r 3 4 3 4 4 r r 3 r 3 4 4 r 3 r r 3 4 r 4 r 3 4 4 r 3 4 3 4 r 3 3 r 3 4 4 r 3 r 3 3 4 4 4 3 k k ",
"4 S 4 3 4 3 r r r 3 3 4 4 4 3 r 4 3 r r r 3 3 4 4 4 3 r 3 r 4 4 r 4 3 r 4 3 r 4 4 3 r 4 3 r 4 3 4 4 3 r 3 r 4 4 4 r r 3 r r f k ",
"4 S r 3 4 r 3 4 4 3 3 r r r 3 4 r 3 4 4 4 3 3 r r 3 4 r 3 4 r 3 3 3 4 r 4 r 3 3 r r 3 4 3 4 r r r 3 4 r 3 4 r 3 4 3 3 r 3 4 f k ",
"4 S 4 3 4 3 r 4 r r 4 4 3 4 3 r 4 3 r 3 r r 4 4 r 4 3 r 3 r 4 3 4 r 4 3 3 r 4 r 3 4 3 r r 4 3 4 r 4 3 r 3 r 4 3 r r 4 4 4 4 f k ",
"4 S r r r r 3 3 3 4 r 3 4 3 4 r 4 r 3 r 3 4 r 3 3 3 4 4 4 4 r r r 4 r 3 3 4 r 4 4 3 4 r r 3 4 3 3 3 4 4 4 4 r r 3 4 r 3 4 3 k k ",
"4 S 3 4 3 4 4 r 3 r 4 3 r r 4 3 3 r 4 4 3 r 4 3 4 r r 3 r 3 3 4 3 3 r 4 r 4 3 3 r r 4 3 4 3 r r 4 r r 3 r 3 3 4 3 r 4 3 r r f k ",
"4 S r 4 r 4 4 3 4 r 3 4 r r 3 4 r 3 4 4 r 3 4 r r 4 4 3 4 3 3 r 4 r 3 4 r r 3 4 4 r 3 3 4 r 3 4 3 r r 4 r 4 4 3 4 r 3 4 r 4 f k ",
"4 S 3 3 3 3 r r 4 3 r 4 3 4 3 r 4 3 r 3 r 4 3 r 3 3 r r r r 4 4 4 3 r 4 3 4 3 r 3 r 4 r 4 3 r 4 4 4 3 3 3 3 r r 4 3 r 4 3 4 f k ",
"4 S 4 r 4 r 3 4 r r 3 3 4 3 4 r 4 r 3 r 3 3 4 4 4 r 3 4 3 4 r 3 r r 3 3 4 3 4 r 3 4 r 4 r r 3 3 r 3 4 r 4 r 3 4 r r 3 3 r 4 f k ",
"4 S 3 r 4 3 r 4 3 4 4 r r r 4 3 3 r 4 4 4 r r 3 4 3 r 4 3 r 4 3 3 4 4 r r r 4 3 r 4 3 3 3 4 4 r r 4 3 r 4 3 r 4 3 4 4 r 3 4 k k ",
"4 S 4 r 4 r 3 3 3 r 3 r 3 3 4 r 4 r 3 3 r 4 4 r r r 3 4 3 4 r r 3 r 3 r 3 3 4 r 3 4 r r 3 r 3 r 3 3 4 r 4 r 3 3 r 4 4 3 r 4 f k ",
"4 V 4 4 3 r 4 r r 3 r 3 4 r 4 3 r r 4 r 3 3 r r 3 4 3 r r r 3 4 r 3 r 3 4 r 4 3 r r 3 4 r 3 r 3 4 r 4 3 r r 4 r 3 3 r r 3 4 r f ",
"r W V S S S S S V S S A S S S V S V S S S V S V S S S V V S S S V S S S S S S V V S S S V S S A S S S V S V S S S V S S S S E f ",
"h.f f f r f f f f f f f f f f f f f f f f f f f f f f f f f f f f f f f f f f f f f f f f f f f f f f f f f f f f f f f r k f k "
};
