/* XPM */
static char *result[] = {
/* columns rows colors chars-per-pixel */
"64 64 198 2 ",
"   c #FFA200",
".  c #FFA300",
"X  c #FFA400",
"o  c #FFA600",
"O  c #FFA700",
"+  c #FFA900",
"@  c #FFAB00",
"#  c #FFA802",
"$  c #FFAE00",
"%  c #FFAC08",
"&  c #FFAD0B",
"*  c #FFB000",
"=  c #FFB200",
"-  c #FFB300",
";  c #FFB400",
":  c #FFB701",
">  c #FFB800",
",  c #FFB900",
"<  c #FFBA00",
"1  c #FFBB00",
"2  c #FFBD00",
"3  c #FFBF00",
"4  c #FFBA07",
"5  c #FFB708",
"6  c #FFB40E",
"7  c #FFB112",
"8  c #FFB118",
"9  c #FFB82A",
"0  c #FFBB32",
"q  c #FFC100",
"w  c #FFC200",
"e  c #FFC300",
"r  c #FFC002",
"t  c #FFC400",
"y  c #FFC600",
"u  c #FFC700",
"i  c #FFC900",
"p  c #FFCD00",
"a  c #FFCF00",
"s  c #FFCA04",
"d  c #FFC30D",
"f  c #FFC90C",
"g  c #FFD200",
"h  c #FFD300",
"j  c #FFD302",
"k  c #FFD400",
"l  c #FFD500",
"z  c #FFD600",
"x  c gold",
"c  c #FFD601",
"v  c #FFD701",
"b  c #FFD402",
"n  c #FFD502",
"m  c #FFD800",
"M  c #FFD900",
"N  c #FFDA00",
"B  c #FFDB00",
"V  c #FFDB01",
"C  c #FFD802",
"Z  c #FFD902",
"A  c #FFDA02",
"S  c #FFDC00",
"D  c #FFDD00",
"F  c #FFDC01",
"G  c #FFDF00",
"H  c #FFDC02",
"J  c #FFDE02",
"K  c #FFD804",
"L  c #FFD907",
"P  c #FFD908",
"I  c #FFD80C",
"U  c #FFDA0C",
"Y  c #FFDB0C",
"T  c #FFDE0C",
"R  c #FFC512",
"E  c #FFCD11",
"W  c #FFDC12",
"Q  c #FFDB17",
"!  c #FFDC15",
"~  c #FFE100",
"^  c #FFE200",
"/  c #FFE300",
"(  c #FFE400",
")  c #FFE500",
"_  c #FFE600",
"`  c #FFE700",
"'  c #FFE104",
"]  c #FFE800",
"[  c #FFE900",
"{  c #FFEA00",
"}  c #FFEB00",
"|  c #FFE802",
" . c #FFEE00",
".. c #FFEF00",
"X. c #FFEB07",
"o. c #FFE60C",
"O. c #FFED08",
"+. c #FFF100",
"@. c #FFF200",
"#. c #FFF300",
"$. c #FFF302",
"%. c #FFF400",
"&. c #FFFE00",
"*. c yellow",
"=. c #FFF308",
"-. c #FFF20B",
";. c #FFF10C",
":. c #FFE316",
">. c #FFE913",
",. c #FFF412",
"<. c #FFC23E",
"1. c #FFF525",
"2. c #FFF62A",
"3. c #FFE033",
"4. c #FFE138",
"5. c #FFE23E",
"6. c #FFE33F",
"7. c #FFF433",
"8. c #FFC240",
"9. c #FFC342",
"0. c #FFC447",
"q. c #FFC54A",
"w. c #FFC955",
"e. c #FFF540",
"r. c #FFF444",
"t. c #FFF447",
"y. c #FFF548",
"u. c #FFF549",
"i. c #FFF54C",
"p. c #FFF555",
"a. c #FFCD62",
"s. c #FFD167",
"d. c #FED36A",
"f. c #FFD67B",
"g. c #FFE867",
"h. c #FFE969",
"j. c #FFE96A",
"k. c #FFF668",
"l. c #FFF66A",
"z. c #FFF66F",
"x. c #FFEB72",
"c. c #FFEB77",
"v. c #FFEC7C",
"b. c #FFF771",
"n. c #FFF878",
"m. c #FFF87E",
"M. c #FFEFA5",
"N. c #FFE7AA",
"B. c #FFF4AC",
"V. c #FFF9AC",
"C. c #FFE5B1",
"Z. c #FFF2B1",
"A. c #FFFBB2",
"S. c #FFF6BC",
"D. c #FEEFCC",
"F. c #FFF1D0",
"G. c #FFF8D1",
"H. c #FFF8D4",
"J. c #FFFDD6",
"K. c #FFF4DB",
"L. c #FFF4DE",
"P. c #FFFADB",
"I. c #FFFEDB",
"U. c #FFF8DD",
"Y. c #FFFADD",
"T. c #FFFBDD",
"R. c #FFFADE",
"E. c #FFFCDD",
"W. c #FFFEDE",
"Q. c #FFF7E4",
"!. c #FFFBE5",
"~. c #FFFCE6",
"^. c #FFFFE7",
"/. c #FFF4ED",
"(. c #FFF9E9",
"). c #FFF8EA",
"_. c #FFFEE9",
"`. c #FEFCF4",
"'. c #FFFCF6",
"]. c #FFFDF7",
"[. c #FFFEF6",
"{. c #FFFFF6",
"}. c #FFFFF7",
"|. c #FFFDF8",
" X c #FFFDF9",
".X c #FFFEF8",
"XX c #FFFEF9",
"oX c #FFFFF9",
"OX c #FFFDFB",
"+X c #FFFEFA",
"@X c #FFFFFA",
"#X c #FFFEFB",
"$X c #FFFFFB",
"%X c #FFFEFC",
"&X c #FFFFFD",
"*X c #FFFEFE",
"=X c #FFFFFE",
"-X c white",
/* pixels */
"-X-X-X-X-X-X-X-X-X-X-X-X-X-X-X-X-X-X-X-X-X-X-X-X-X-X-X-X-X-X-X-X-X-X-X-X-X-X-X-X-X-X-X-X-X-X-X-X-X-X-X-X-X-X-X-X-X-X-X-X-X-X-X-X",
"-X-X-X-X-X-X-X-X-X-X-X-X-X-X-X-X-X-X-X-X-X-X-X-X-X-X-X-X-X-X-X-X-X-X-X-X-X-X-X-X-X-X-X-X-X-X-X-X-X-X-X-X-X-X-X-X-X-X-X-X-X-X-X-X",
"-X-X-X-X-X-X-X-X-X-X-X-X-X-X-X-X-X-X-X-X-X-X-X-X-X-X-X-X-X-X-X-X-X-X-X-X-X-X-X-X-X-X-X-X-X-X-X-X-X-X-X-X-X-X-X-X-X-X-X-X-X-X-X-X",
"-X-X-X-X-X-X-X-X-X-X-X-X-X-X-X-X-X-X-X-X-X-X-X-X-X-X-X-X-X-X-X-X-X-X-X-X-X-X-X-X-X-X-X-X-X-X-X-X-X-X-X-X-X-X-X-X-X-X-X-X-X-X-X-X",
"-X-X-X-X-X-X-X-X-X-X-X-X-X-X-X-X-X-X-X-X-X-X-X-X-X-X-X-X-X-X-X-X-X-X-X-X-X-X-X-X-X-X-X-X-X-X-X-X-X-X-X-X-X-X-X-X-X-X-X-X-X-X-X-X",
"-X-X-X-X-X-X-X-X-X-X-X-X-X-X-X-X-X-X-X-X-X-X-X-X-X-X-X-X-X-X-X-X-X-X-X-X-X-X-X-X-X-X-X-X-X-X-X-X-X-X-X-X-X-X-X-X-X-X-X-X-X-X-X-X",
"-X-X-X-X-X-X-X-X-X-X-X-X-X-X-X-X-X-X-X-X-X-X-X-X-X-X-X-X-X-X-X-X-X-X-X-X-X-X-X-X-X-X-X-X-X-X-X-X-X-X-X-X-X-X-X-X-X-X-X-X-X-X-X-X",
"-X-X-X-X-X-X-X-X-X-X-X-X-X-X-X-X-X-X-X-X-X-X-X-X-X-X-X-X-X-X-X-X-X-X-X-X-X-X-X-X-X-X-X-X-X-X-X-X-X-X-X-X-X-X-X-X-X-X-X-X-X-X-X-X",
"-X-X-X-X-X-X-X-X-X-X-X-X-X-X-X-X-X-X-X-X-X-X-X-X-X-X-X-X-X-X-X-X-X-X-X-X-X-X-X-X-X-X-X-X-X-X-X-X-X-X-X-X-X-X-X-X-X-X-X-X-X-X-X-X",
"-X-X-X-X-X-X-X-X-X-X-X-X-X-X-X-X-X-X-X-X-X-X-X-X-X-X-X-X-X-X-X-X-X-X-X-X-X-X-X-X-X-X-X-X-X-X-X-X-X-X-X-X-X-X-X-X-X-X-X-X-X-X-X-X",
"-X-X-X-X-X-X-X-X-X-X-X-X-X-X-X-X-X-X-X-X-X-X-X-X-X-X-X=X=X=X=X=X=X=X=X=X=X-X-X-X-X-X-X-X-X-X-X-X-X-X-X-X-X-X-X-X-X-X-X-X-X-X-X-X",
"-X-X-X-X-X-X-X-X-X-X-X-X-X-X-X-X-X-X-X-X-X-X-X-X-X-X-X=X=X-X-X-X-X-X-X-X-X-X-X-X-X-X-X-X-X-X-X-X-X-X-X-X-X-X-X-X-X-X-X-X-X-X-X-X",
"-X-X-X-X-X-X-X-X-X-X-X-X-X-X-X-X-X-X-X-X-X-X-X-X-X-X-X-X-X-X-X-X-X-X-X-X-X-X=X-X-X-X-X-X-X-X-X-X-X-X-X-X-X-X-X-X-X-X-X-X-X-X-X-X",
"-X-X-X-X-X-X-X-X-X-X-X-X-X-X-X-X-X-X-X-X-X-X-X-X&X-X{.m.k.p.i.u.t.y.u.r.n.}.-X&X-X-X-X-X-X-X-X-X-X-X-X-X-X-X-X-X-X-X-X-X-X-X-X-X",
"-X-X-X-X-X-X-X-X-X-X-X-X-X-X-X-X-X-X-X-X-X-X-X-X}.-X_.;.*.*.*.*.*.*.&.*.;._.-X[.-X-X-X-X-X-X-X-X-X-X-X-X-X-X-X-X-X-X-X-X-X-X-X-X",
"-X-X-X-X-X-X-X-X-X-X-X-X-X-X-X-X-X-X-X-X-X-X-X=X-X-X@X1.%.-.=.=.=.=.-.%.2.-X-X-X*X-X-X-X-X-X-X-X-X-X-X-X-X-X-X-X-X-X-X-X-X-X-X-X",
"-X-X-X-X-X-X-X-X-X-X-X-X-X-X-X-X-X-X-X-X-X-X*X-XJ.A.V.>. .| ] ] ] ] |  .>.B.Z.G.-X-X-X-X-X-X-X-X-X-X-X-X-X-X-X-X-X-X-X-X-X-X-X-X",
"-X-X-X-X-X-X-X-X-X-X-X-X-X-X-X-X-X-X-X-X-X*X@X-Xl.*.} M c x z z z l z v m m %.g.-X+X*X-X-X-X-X-X-X-X-X-X-X-X-X-X-X-X-X-X-X-X-X-X",
"-X-X-X-X-X-X-X-X-X-X-X-X-X-X-X-X-X-X-X-X-X-X-X-Xb.*.O.M x m m m M N M m m P { v.-X-X-X-X-X-X-X-X-X-X-X-X-X-X-X-X-X-X-X-X-X-X-X-X",
"-X-X-X-X-X-X-X-X-X-X-X-X-X-X-X-X-X-X-X-X-X-XXX-Xz.*.X.M x m m m z l x m m L } c.-X.X-X-X-X-X-X-X-X-X-X-X-X-X-X-X-X-X-X-X-X-X-X-X",
"-X-X-X-X-X-X-X-X-X-X-X-X-X-X-X-X-X-X-X$X-X^.e.7.:.D H m m x M l , $ y N x C S Q 4.5.~.-X$X-X-X-X-X-X-X-X-X-X-X-X-X-X-X-X-X-X-X-X",
"-X-X-X-X-X-X-X-X-X-X-X-X-X-X-X-X-X-X-XoX-XI.#.*.( n m m m x M h = o w B m m C S } B P.-XXX-X-X-X-X-X-X-X-X-X-X-X-X-X-X-X-X-X-X-X",
"-X-X-X-X-X-X-X-X-X-X-X-X-X-X-X-X-X-X-X@X-XW.,.$.' x M m m M D x = X q m l x m K C W R.-X@X-X-X-X-X-X-X-X-X-X-X-X-X-X-X-X-X-X-X-X",
"-X-X-X-X-X-X-X-X-X-X-X-X-X-X-X-X-X-X-XXX-XE.o.[ F x m x M p q t y w k ` ( N x Z S Y Y.-XXX-X-X-X-X-X-X-X-X-X-X-X-X-X-X-X-X-X-X-X",
"-X-X-X-X-X-X-X-X-X-X-X-X-X-X-X-X-X-X-XXX-XY.I N C m m x B q   * x B ( %.+.D z Z S Y Y.-XXX-X-X-X-X-X-X-X-X-X-X-X-X-X-X-X-X-X-X-X",
"-X-X-X-X-X-X-X-X-X-X-X-X-X-X-X-X-X-X-XXX-XY.Y D Z m m x B e + ; k z ~ @. .S z Z S Y Y.-XXX-X-X-X-X-X-X-X-X-X-X-X-X-X-X-X-X-X-X-X",
"-X-X-X-X-X-X-X-X-X-X-X-X-X-X-X-X-X-X-XXX-XY.Y S Z m m x B e O - l x ^ @...S z Z S Y Y.-XXX-X-X-X-X-X-X-X-X-X-X-X-X-X-X-X-X-X-X-X",
"-X-X-X-X-X-X-X-X-X-X-X-X-X-X-X-X-X-X-XXX-XY.Y S Z m m x B e O - l x ^ @...S z Z S Y Y.-XXX-X-X-X-X-X-X-X-X-X-X-X-X-X-X-X-X-X-X-X",
"-X-X-X-X-X-X-X-X-X-X-X-X-X-X-X-X-X-X-XXX-XY.Y S Z m m x B e O - l x ^ @...S z Z S Y Y.-XXX-X-X-X-X-X-X-X-X-X-X-X-X-X-X-X-X-X-X-X",
"-X-X-X-X-X-X-X-X-X-X-X-X-X-X-X-X-X-X-XXX-XY.Y S Z m m x B e O - l x ^ @...S z Z S Y Y.-XXX-X-X-X-X-X-X-X-X-X-X-X-X-X-X-X-X-X-X-X",
"-X-X-X-X-X-X-X-X-X-X-X-X-X-X-X-X-X-X-XXX-XY.Y S Z m m x B e O - l x ^ @...S z Z S Y Y.-XXX-X-X-X-X-X-X-X-X-X-X-X-X-X-X-X-X-X-X-X",
"-X-X-X-X-X-X-X-X-X-X-X-X-X-X-X-X-X-X-XXX-XY.Y S Z m m x B e O - l x ^ @...S z Z S Y Y.-XXX-X-X-X-X-X-X-X-X-X-X-X-X-X-X-X-X-X-X-X",
"-X-X-X-X-X-X-X-X-X-X-X-X-X-X-X-X-X-X-XXX-XY.Y S Z m m x B e O - l x ^ @...S z Z S Y Y.-XXX-X-X-X-X-X-X-X-X-X-X-X-X-X-X-X-X-X-X-X",
"-X-X-X-X-X-X-X-X-X-X-X-X-X-X-X-X-X-X-XXX-XY.Y S Z m m x B e O - l x ^ @...S z Z S Y Y.-XXX-X-X-X-X-X-X-X-X-X-X-X-X-X-X-X-X-X-X-X",
"-X-X-X-X-X-X-X-X-X-X-X-X-X-X-X-X-X-X-XXX-XY.Y S Z m m x B e O - l x ^ @...S z Z S Y Y.-XXX-X-X-X-X-X-X-X-X-X-X-X-X-X-X-X-X-X-X-X",
"-X-X-X-X-X-X-X-X-X-X-X-X-X-X-X-X-X-X-XXX-XY.Y S Z m m x B e O - l x ^ @...S z Z S Y Y.-XXX-X-X-X-X-X-X-X-X-X-X-X-X-X-X-X-X-X-X-X",
"-X-X-X-X-X-X-X-X-X-X-X-X-X-X-X-X-X-X-XXX-XY.Y S Z m m x B e O - l x ^ @...S z Z S Y Y.-XXX-X-X-X-X-X-X-X-X-X-X-X-X-X-X-X-X-X-X-X",
"-X-X-X-X-X-X-X-X-X-X-X-X-X-X-X-X-X-X-XXX-XY.Y S Z m m x B e O - l x ^ @...S z Z S Y Y.-XXX-X-X-X-X-X-X-X-X-X-X-X-X-X-X-X-X-X-X-X",
"-X-X-X-X-X-X-X-X-X-X-X-X-X-X-X-X-X-X-XXX-XY.Y S Z m m x N e + ; l m ^ +. .S z Z B U Y.-XXX-X-X-X-X-X-X-X-X-X-X-X-X-X-X-X-X-X-X-X",
"-X-X-X-X-X-X-X-X-X-X-X-X-X-X-X-X-X-X-XXX-XY.Y S Z m m x B q . * g l ^ %.+.D z A G T T.-XXX-X-X-X-X-X-X-X-X-X-X-X-X-X-X-X-X-X-X-X",
"-X-X-X-X-X-X-X-X-X-X-X-X-X-X-X-X-X-X-XXX-XY.Y S Z m m x M p 3 u ~ ) / ) ) N m j i f U.-X X-X-X-X-X-X-X-X-X-X-X-X-X-X-X-X-X-X-X-X",
"-X-X-X-X-X-X-X-X-X-X-X-X-X-X-X-X-X-X-X@X-XR.W C K m m m m N N D  .%.) k z l B s # 7 L.-X+X-X-X-X-X-X-X-X-X-X-X-X-X-X-X-X-X-X-X-X",
"-X-X-X-X-X-X-X-X-X-X-X-X-X-X-X-X-X-X-XXX-XP.B { S Z m m m m z N  .#._ z M M J a 1 = K.-X X-X-X-X-X-X-X-X-X-X-X-X-X-X-X-X-X-X-X-X",
"-X-X-X-X-X-X-X-X-X-X-X-X-X-X-X-X-X-X-X$X-X!.6.3.! B C m m m x N } ../ z m b m E 0 <.Q.-X#X-X-X-X-X-X-X-X-X-X-X-X-X-X-X-X-X-X-X-X",
"-X-X-X-X-X-X-X-X-X-X-X-X-X-X-X-X-X-X-X-X-X-XXX-Xj.{ L M m m m m M N m m x 4 2 d.-X|.=X-X-X-X-X-X-X-X-X-X-X-X-X-X-X-X-X-X-X-X-X-X",
"-X-X-X-X-X-X-X-X-X-X-X-X-X-X-X-X-X-X-X-X-X-X-X-Xx.{ P m x x m x x x x m x 5 > f.-X-X-X-X-X-X-X-X-X-X-X-X-X-X-X-X-X-X-X-X-X-X-X-X",
"-X-X-X-X-X-X-X-X-X-X-X-X-X-X-X-X-X-X-X-X-X*X+X-Xh.@.m S V N N N N N N V B > w s.-X+X*X-X-X-X-X-X-X-X-X-X-X-X-X-X-X-X-X-X-X-X-X-X",
"-X-X-X-X-X-X-X-X-X-X-X-X-X-X-X-X-X-X-X-X-X-X-X-XH.S.M.d t r 3 3 3 3 r t R N.C.F.-X-X-X-X-X-X-X-X-X-X-X-X-X-X-X-X-X-X-X-X-X-X-X-X",
"-X-X-X-X-X-X-X-X-X-X-X-X-X-X-X-X-X-X-X-X-X-X-X-X-X-X/.8 + & % % % % & @ 9 -X-X-X*X-X-X-X-X-X-X-X-X-X-X-X-X-X-X-X-X-X-X-X-X-X-X-X",
"-X-X-X-X-X-X-X-X-X-X-X-X-X-X-X-X-X-X-X-X-X-X-X-X`.-XD.: q < 2 2 2 2 < t 6 (.-X'.-X-X-X-X-X-X-X-X-X-X-X-X-X-X-X-X-X-X-X-X-X-X-X-X",
"-X-X-X-X-X-X-X-X-X-X-X-X-X-X-X-X-X-X-X-X-X-X-X-XOX-X).w.9.q.0.0.0.0.q.8.a.].-X%X-X-X-X-X-X-X-X-X-X-X-X-X-X-X-X-X-X-X-X-X-X-X-X-X",
"-X-X-X-X-X-X-X-X-X-X-X-X-X-X-X-X-X-X-X-X-X-X-X-X-X=X-X-X-X-X-X-X-X-X-X-X-X-X-X-X-X-X-X-X-X-X-X-X-X-X-X-X-X-X-X-X-X-X-X-X-X-X-X-X",
"-X-X-X-X-X-X-X-X-X-X-X-X-X-X-X-X-X-X-X-X-X-X-X-X-X-X-X-X-X-X-X-X-X-X-X-X-X-X-X-X-X-X-X-X-X-X-X-X-X-X-X-X-X-X-X-X-X-X-X-X-X-X-X-X",
"-X-X-X-X-X-X-X-X-X-X-X-X-X-X-X-X-X-X-X-X-X-X-X-X-X-X-X=X=X=X=X=X=X=X=X=X=X-X-X-X-X-X-X-X-X-X-X-X-X-X-X-X-X-X-X-X-X-X-X-X-X-X-X-X",
"-X-X-X-X-X-X-X-X-X-X-X-X-X-X-X-X-X-X-X-X-X-X-X-X-X-X-X-X-X-X-X-X-X-X-X-X-X-X-X-X-X-X-X-X-X-X-X-X-X-X-X-X-X-X-X-X-X-X-X-X-X-X-X-X",
"-X-X-X-X-X-X-X-X-X-X-X-X-X-X-X-X-X-X-X-X-X-X-X-X-X-X-X-X-X-X-X-X-X-X-X-X-X-X-X-X-X-X-X-X-X-X-X-X-X-X-X-X-X-X-X-X-X-X-X-X-X-X-X-X",
"-X-X-X-X-X-X-X-X-X-X-X-X-X-X-X-X-X-X-X-X-X-X-X-X-X-X-X-X-X-X-X-X-X-X-X-X-X-X-X-X-X-X-X-X-X-X-X-X-X-X-X-X-X-X-X-X-X-X-X-X-X-X-X-X",
"-X-X-X-X-X-X-X-X-X-X-X-X-X-X-X-X-X-X-X-X-X-X-X-X-X-X-X-X-X-X-X-X-X-X-X-X-X-X-X-X-X-X-X-X-X-X-X-X-X-X-X-X-X-X-X-X-X-X-X-X-X-X-X-X",
"-X-X-X-X-X-X-X-X-X-X-X-X-X-X-X-X-X-X-X-X-X-X-X-X-X-X-X-X-X-X-X-X-X-X-X-X-X-X-X-X-X-X-X-X-X-X-X-X-X-X-X-X-X-X-X-X-X-X-X-X-X-X-X-X",
"-X-X-X-X-X-X-X-X-X-X-X-X-X-X-X-X-X-X-X-X-X-X-X-X-X-X-X-X-X-X-X-X-X-X-X-X-X-X-X-X-X-X-X-X-X-X-X-X-X-X-X-X-X-X-X-X-X-X-X-X-X-X-X-X",
"-X-X-X-X-X-X-X-X-X-X-X-X-X-X-X-X-X-X-X-X-X-X-X-X-X-X-X-X-X-X-X-X-X-X-X-X-X-X-X-X-X-X-X-X-X-X-X-X-X-X-X-X-X-X-X-X-X-X-X-X-X-X-X-X",
"-X-X-X-X-X-X-X-X-X-X-X-X-X-X-X-X-X-X-X-X-X-X-X-X-X-X-X-X-X-X-X-X-X-X-X-X-X-X-X-X-X-X-X-X-X-X-X-X-X-X-X-X-X-X-X-X-X-X-X-X-X-X-X-X",
"-X-X-X-X-X-X-X-X-X-X-X-X-X-X-X-X-X-X-X-X-X-X-X-X-X-X-X-X-X-X-X-X-X-X-X-X-X-X-X-X-X-X-X-X-X-X-X-X-X-X-X-X-X-X-X-X-X-X-X-X-X-X-X-X",
"-X-X-X-X-X-X-X-X-X-X-X-X-X-X-X-X-X-X-X-X-X-X-X-X-X-X-X-X-X-X-X-X-X-X-X-X-X-X-X-X-X-X-X-X-X-X-X-X-X-X-X-X-X-X-X-X-X-X-X-X-X-X-X-X"
};
