/* XPM */
static char *xpm_[] = {
/* columns rows colors chars-per-pixel */
"64 64 133 2 ",
"   c #004BB7",
".  c #0050B8",
"X  c #005ABA",
"o  c #005BBA",
"O  c #005CBA",
"+  c #005DBB",
"@  c #0060BC",
"#  c #0061BC",
"$  c #0062BC",
"%  c #0063BC",
"&  c #0064BD",
"*  c #0065BD",
"=  c #0066BD",
"-  c #0067BD",
";  c #0068BD",
":  c #0069BE",
">  c #0268BE",
",  c #006ABE",
"<  c #006BBE",
"1  c #006BBF",
"2  c #006CBF",
"3  c #006DBF",
"4  c #006EBF",
"5  c #006FBF",
"6  c #086EBF",
"7  c #0C6DBF",
"8  c #0070BF",
"9  c #006FC0",
"0  c #106FC0",
"q  c #146FC0",
"w  c #0070C0",
"e  c #0170C0",
"r  c #0070C1",
"t  c #0071C1",
"y  c #0270C0",
"u  c #0370C0",
"i  c #0271C0",
"p  c #0071C2",
"a  c #0071C3",
"s  c #0072C2",
"d  c #0670C0",
"f  c #0671C0",
"g  c #0071C4",
"h  c #0072C4",
"j  c #0072C5",
"k  c #0073C5",
"l  c #0073C6",
"z  c #0074C6",
"x  c #0074C7",
"c  c #0075C7",
"v  c #0871C0",
"b  c #0971C0",
"n  c #0A71C0",
"m  c #0B71C0",
"M  c #0972C0",
"N  c #0E71C0",
"B  c #0D72C0",
"V  c #0F72C0",
"C  c #0074C8",
"Z  c #0075C8",
"A  c #0076CA",
"S  c #0077CB",
"D  c #0077CC",
"F  c #0078CD",
"G  c #0078CE",
"H  c #1072C1",
"J  c #1272C0",
"K  c #1272C1",
"L  c #1372C1",
"P  c #1473C1",
"I  c #1672C1",
"U  c #1673C1",
"Y  c #1773C1",
"T  c #1973C1",
"R  c #1A74C1",
"E  c #1B74C1",
"W  c #1D74C1",
"Q  c #007BD3",
"!  c #2074C1",
"~  c #2A74C1",
"^  c #2878C2",
"/  c #3777C2",
"(  c #337BC3",
")  c #3878C2",
"_  c #3A79C3",
"`  c #457DC4",
"'  c #0080DA",
"]  c #4A81C6",
"[  c #4F83C6",
"{  c #5482C5",
"}  c #5785C7",
"|  c #5A87C8",
" . c #5C87C8",
".. c #618DCA",
"X. c #648CC9",
"o. c #688ECA",
"O. c #6F94CC",
"+. c #7593CC",
"@. c #7395CD",
"#. c #7296CD",
"$. c #7695CC",
"%. c #7B97CD",
"&. c #809CCF",
"*. c #809ED1",
"=. c #8FA6D4",
"-. c #8DA8D4",
";. c #98ACD6",
":. c #9CADD6",
">. c #A3B4D9",
",. c #A6B9DC",
"<. c #A8BBDC",
"1. c #CDD8EA",
"2. c #D1DBEC",
"3. c #D8DEEE",
"4. c #D5E0EF",
"5. c #D7E0EE",
"6. c #D9E1EF",
"7. c #DAE1EF",
"8. c #E0E6F2",
"9. c #E7ECF5",
"0. c #E9F0F7",
"q. c #EAF0F7",
"w. c #EBF0F7",
"e. c #EEF2F8",
"r. c #F2F6FA",
"t. c #F3F6FA",
"y. c #F5F9FC",
"u. c #F7FAFD",
"i. c #F7FBFD",
"p. c #FAFDFE",
"a. c #FDFFFF",
"s. c white",
"d. c None",
/* pixels */
"d.x Z x x x x Z h Z Z Z h Z C C x x x h Z Z Z x x h Z Z x x x h Z Z Z x x h Z Z x x x h Z Z Z x x h Z Z x x x h Z Z x x x x Z x ",
"a Q a x x h h x Z h h h Z h h h x h h Z C h h h h Z C h x h h Z C h h h h Z C h x h h Z C h h h h Z C h x h h Z C h h h x h x a ",
"h Z 5 5 5 5 5 5 9 5 9 5 9 5 a 9 5 5 5 5 9 5 9 5 9 5 9 5 5 9 5 5 9 5 9 5 9 9 9 9 5 9 5 5 9 5 9 5 9 9 9 9 5 9 5 5 9 5 5 5 a 8 a a ",
"h F 8 8 5 a 5 a 9 a 9 a a 5 a 9 5 a 5 a 9 a 9 a a 5 a 9 8 5 a 5 9 a 9 a a 5 a 9 8 5 a 5 9 a 9 a a 5 a 9 8 5 a 5 9 a 9 a 5 8 8 a ",
"a F 8 8 a 5 8 8 8 8 8 8 5 a 5 8 8 8 a 8 8 5 8 5 5 8 8 a 5 8 8 a 8 8 8 8 5 a 5 8 8 a 5 a 8 8 8 8 5 8 8 a 5 8 8 a a 8 a 8 8 8 a a ",
"a F 8 8 8 8 5 a a 5 a 5 8 8 a 8 5 a 5 8 8 a 8 a a 8 8 5 a 8 8 5 a 5 a 5 8 8 a 8 8 5 8 8 a 5 a 5 a 8 8 5 a 8 8 5 5 8 5 8 8 8 a a ",
"a F 8 8 a 8 a 8 5 8 8 a 8 8 5 8 8 8 8 5 a 5 8 8 5 a 5 a 5 a 5 a 5 8 8 a 8 8 5 8 8 a 8 8 5 8 8 a 5 a 5 a 5 a 5 a 8 8 a 8 8 8 a 8 ",
"a F 8 a 5 8 5 8 a 8 8 5 a 5 a 8 5 a 8 a 8 8 5 a 8 8 8 8 8 8 8 8 a 8 8 5 a 5 a 8 8 5 a 5 a 8 8 5 8 8 8 8 8 8 8 8 5 a 8 8 8 8 a a ",
"a F 5 a 8 8 8 8 5 8 8 a 5 a 5 8 8 8 a 8 a 5 8 8 8 5 8 5 8 5 8 5 5 a 5 8 8 a 5 a 5 a 5 8 8 a 5 a a 8 a 8 a 8 a 8 8 8 a 5 8 8 a a ",
"a S 8 8 a 5 a 5 a 8 8 5 8 8 a 8 5 a 5 8 8 8 5 a 8 a 8 a 8 a 8 a 8 8 a 8 8 5 8 8 8 8 a 8 8 5 8 8 5 8 5 8 5 8 5 8 5 a 8 8 8 8 a a ",
"a F 8 8 5 8 8 a 5 a 5 a 8 8 5 8 8 8 8 5 a 8 a 8 a 5 8 8 a 5 8 8 8 8 5 8 8 a 8 8 8 8 5 8 8 a 8 8 8 8 a 5 8 8 a 5 8 5 8 5 8 8 a 8 ",
"a F 8 5 a 8 8 5 8 8 8 8 a 5 a 8 5 a 8 a 5 8 5 8 8 8 5 a 8 8 5 a a 5 a 8 8 5 a 5 a 5 a 8 8 5 a 5 5 a 8 8 5 a 8 8 8 a 8 a 8 8 a a ",
"a F 8 8 8 a 5 a 8 8 8 8 5 a 5 8 8 8 a 8 8 5 8 5 a 8 a 5 8 8 a 8 5 8 8 a 5 8 8 a 5 8 8 a 5 8 8 a 8 5 8 8 a 5 8 5 a 8 a 8 8 8 a a ",
"a F 8 a 8 5 8 8 a 5 a 5 8 8 a 8 5 a 5 8 8 a 8 a 5 8 8 8 5 a 5 8 a 8 8 5 a 8 8 5 a 8 8 5 a 8 8 5 8 a 5 a 8 8 8 a 5 8 8 8 8 8 a a ",
"a F 8 8 8 a 8 8 5 8 8 a 8 8 5 8 8 8 8 5 a 5 8 8 8 5 a 5 8 8 8 5 5 a 5 a 5 a 5 a 5 a 5 a 5 a 5 a a 8 8 8 a 5 a 8 8 8 a 8 8 8 a 8 ",
"a F 8 8 8 5 a 5 a 8 8 5 a 5 a 8 5 a 8 a 8 8 5 a 8 a 8 8 5 a 8 a 8 8 8 8 8 8 8 8 8 8 8 8 8 8 8 8 5 8 5 a 8 8 5 8 5 a 8 8 8 8 a a ",
"a F 8 8 8 8 8 a 5 8 8 8 8 a 5 8 8 a 5 8 8 8 8 a 8 8 a 8 a 5 8 8 a 8 a 8 a 8 a 8 a 8 a 8 a 8 a 8 8 5 8 8 a 5 8 5 8 8 a 5 8 8 a a ",
"a F 8 5 a 5 8 5 a 8 a 5 8 5 a 8 8 5 a 8 a 5 8 5 5 a 5 8 8 8 5 a 5 8 5 8 5 8 5 8 5 8 5 8 5 8 5 8 8 a 5 a 8 8 8 a 5 a 8 8 8 8 a a ",
"a F 8 a 5 a 8 a 5 8 5 a 8 8 8 8 8 8 8 8 5 a 8 a 8 8 8 5 a 8 a 8 8 8 a 5 8 8 a 5 8 8 a 5 8 8 a 5 a 8 8 8 a 5 a 8 8 5 8 5 8 8 a 8 ",
"a F 8 8 8 8 8 5 a 8 8 8 a 5 a 5 a 5 a 5 8 8 8 5 5 a 8 a 5 8 5 8 5 a 8 8 5 a 8 8 5 a 8 8 5 a 8 8 5 8 5 a 8 8 5 8 8 a 8 a 8 8 a a ",
"a F 8 8 8 8 8 a 5 8 8 8 5 a 5 a 5 a 5 a 8 8 8 a 8 8 a 8 8 5 8 8 8 5 8 8 a 5 8 5 8 5 8 8 a 5 8 5 8 8 a 5 8 8 a 5 a 8 a 8 8 8 a a ",
"a F 8 5 a 5 8 5 a 8 a 5 8 8 8 8 8 8 8 8 a 5 8 5 5 a 5 8 8 a 8 a 8 a 5 a 8 8 8 a 8 a 5 a 8 8 8 a 5 a 8 8 5 a 8 8 5 8 8 8 8 8 a a ",
"a F 8 a 5 a 8 a 5 8 5 a 8 a 5 8 8 a 5 8 5 a 8 a 8 8 8 5 a 5 8 8 a 8 8 8 a 5 a 8 a 8 8 8 a 5 a 8 8 5 8 5 8 5 8 5 8 8 a 8 8 8 a 8 ",
"a F 8 8 8 8 8 5 a 8 8 8 8 5 a 8 8 5 a 8 8 8 8 5 5 a 8 a 8 8 8 a 5 8 5 a 8 8 5 8 5 8 5 a 8 8 5 8 8 a 8 a 8 a 8 a 5 a 8 8 8 8 a a ",
"a F 8 8 5 8 8 8 8 8 8 a 5 8 8 8 8 8 8 a 5 8 8 8 8 8 8 a a 5 6 P P 6 9 a 5 a 5 8 a 5 8 5 8 8 a 5 a 8 a 8 a 8 a 8 8 8 a 5 8 8 a a ",
"a F 5 a a 8 a 5 a 5 8 5 a 8 a 5 a 5 8 5 a 8 a 5 a 5 8 5 9 P 8 * * 8 T 5 8 8 a 8 8 8 8 a 5 a 8 8 5 8 5 8 5 8 5 8 5 a 8 8 8 8 a a ",
"a F 8 8 5 8 5 a 5 a 8 a 5 8 5 a 5 a 8 a 5 8 5 a 8 a 8 a P * 5 $.%.~ % P 8 8 5 8 a 5 a 8 8 5 8 5 8 8 a 5 8 8 a 5 8 5 8 5 8 8 a 8 ",
"a F 8 8 a 8 8 8 8 8 8 5 a 8 8 8 8 8 8 5 a 8 8 8 8 f 8 7 * #.9.i.y.t.-.* T 5 a 8 8 8 5 8 8 a 8 a 5 a 8 8 5 a 8 8 8 a 8 a 8 8 a a ",
"a F 8 8 8 a 5 8 8 a 5 8 8 a 5 8 8 a 5 8 8 a 5 8 8 a 6 a 7 y.9. .] 3.i.) 5 n a 5 a 5 8 5 a 8 a 8 8 5 8 8 a 5 8 5 a 8 a 8 8 8 a a ",
"a F 8 5 8 5 a 8 8 5 a 8 8 5 a 8 8 5 a 8 8 5 a 8 8 8 7 , { 5.@.X   &.s.X.* H 8 8 8 8 8 a 5 8 5 8 8 a 5 a 8 8 8 a 5 8 8 8 8 8 a a ",
"a F 8 a 8 8 8 8 8 8 8 8 8 8 8 8 8 8 8 8 8 8 8 8 8 8 8 8 8 % 5 ( ] 6.8., 8 6 a 5 a 5 a 8 8 8 a 5 a 8 8 8 a 5 a 8 8 8 a 8 8 8 a 8 ",
"a F 8 8 a 5 a 5 a 5 a 5 a 5 a 5 a 5 a 5 a 5 a 5 a 8 f a 7 ^ , 1.s.p...% E a 8 8 8 8 5 8 5 a 8 8 5 8 5 a 8 8 5 8 5 a 8 8 8 8 a a ",
"a F 8 8 8 5 8 5 8 5 8 5 8 5 8 5 8 5 8 5 8 5 8 5 8 8 a n , % 6 +.=.3.q.{ , B a 8 8 8 a 8 a 5 8 8 a 8 a 5 8 8 a 8 a 5 8 8 a 8 a a ",
"a F 8 8 8 a 8 a 8 a 8 a 8 a 8 a 8 a 8 a 8 a 8 a 8 a 6 , { -.7 5 O ) s.,.X ! 8 8 5 a 5 8 8 8 5 a 5 8 8 8 5 a 5 8 8 8 5 a 5 8 8 a ",
"a F 8 8 a 5 8 8 a 5 8 8 a 5 8 8 a 5 8 8 a 5 8 8 a 8 E O ;.s.o.. X ` s.,.X ! a 8 8 8 8 5 a 8 a 8 8 5 a 5 8 8 8 5 a 8 a 8 8 8 a a ",
"a F 5 a 8 8 5 a 8 8 5 a 8 8 5 a 8 8 5 a 8 8 5 a 8 8 n 5 ) w.t.>.:.9.i.} , H 8 8 5 a 8 a 5 8 5 8 8 a 8 8 5 a 8 a 5 8 5 8 8 8 8 a ",
"a F 8 a 8 8 a 8 a 8 a 5 8 8 a 8 a 8 a 5 8 8 a 8 a 8 a 7 >  .2.w.w.7.@.> P 8 8 8 8 8 a 8 8 5 8 5 a 5 8 8 a 5 8 8 8 8 8 8 a 8 a a ",
"a F 8 5 5 a 5 8 5 8 8 8 5 a 5 8 5 8 8 8 5 a 5 8 8 8 f 8 7 , X 7 7 O > 7 8 a 5 a 5 a 5 8 8 a 8 a 8 8 5 a 8 8 5 a 8 a 8 a 8 8 8 a ",
"a F 8 8 8 8 8 5 8 5 a 5 8 8 8 5 8 5 a 5 8 8 8 8 8 8 a 8 8 P W 8 8 ! T a a 8 8 8 8 8 8 5 a 5 8 8 a 8 a 8 a 8 a 8 a 5 8 8 8 8 a a ",
"a F 8 8 5 a 8 a 8 a 8 8 5 a 8 a 8 a 8 8 5 a 8 a 8 a 8 8 8 a 8 6 n 8 8 8 5 8 5 a 5 a 8 a 8 8 5 a 5 8 5 8 5 8 5 8 8 8 8 a 8 8 8 a ",
"a F 8 8 a 8 a 5 8 8 a 8 a 5 8 8 a 5 8 8 a 8 a 5 8 a 5 a 5 8 8 a a 8 a 5 8 8 a 8 a 8 a 5 8 8 a 8 8 5 8 5 8 5 8 5 a 5 8 8 a 8 a a ",
"a F 8 8 5 8 8 8 5 a 5 8 8 8 5 a 8 8 5 a 5 8 8 8 8 5 8 8 a 8 8 5 8 8 8 8 5 a 5 8 5 8 8 8 5 a 5 8 8 a 8 a 8 a 8 a 8 8 5 a 5 8 8 a ",
"a F 8 5 8 5 a 5 8 8 8 5 a 8 a 8 a 8 a 8 8 5 a 5 8 a 8 8 5 a 5 a 8 5 a 5 8 8 8 5 8 5 a 5 8 8 8 5 a 5 8 8 a 5 8 8 a 8 a 8 8 8 a a ",
"a F 8 a 8 a 8 8 5 a 8 a 5 8 5 8 5 8 5 8 8 a 8 8 8 5 a 5 8 8 8 8 8 a 8 8 5 a 8 a 8 a 8 8 5 a 8 a 8 8 5 a 8 8 5 a 5 8 5 8 8 8 8 a ",
"a F 8 8 a 8 a 5 8 8 a 8 8 5 8 5 8 5 8 5 a 8 a 5 8 a 5 a 8 8 8 8 a 5 8 8 a 5 8 8 a 5 8 8 a 5 8 8 a 8 a 5 8 8 a 8 8 8 8 8 a 8 a a ",
"a F 8 8 5 8 8 8 5 a 5 8 8 a 8 a 8 a 8 a 5 8 8 8 8 5 8 8 a 5 a 5 8 8 5 a 8 8 5 a 8 8 5 a 8 8 5 a 5 8 8 8 5 a 5 8 8 a 8 a 8 8 8 a ",
"a F 8 8 8 5 a 5 8 8 8 5 a 5 8 8 a 5 8 8 8 5 a 5 8 a 8 8 5 8 8 a a 8 a 8 a 8 a 8 a 8 a 8 a 8 a 8 8 5 a 5 8 8 8 5 a 5 8 8 8 8 a a ",
"a F 5 a 8 a 8 8 5 a 8 a 8 8 5 a 8 8 5 a 8 a 8 8 8 5 a 5 a 8 8 5 5 8 5 8 5 8 5 8 5 8 5 8 5 8 5 8 8 a 8 8 5 a 8 a 8 8 8 a 8 8 8 a ",
"a F 8 a 8 8 a 8 a 5 8 8 a 8 a 5 8 a 5 a 5 8 8 a 5 a 5 8 8 a 5 a 8 8 8 8 8 8 8 8 8 8 8 8 8 8 8 8 a 8 a 5 8 8 a 8 a 5 8 8 a 8 a a ",
"a F 8 5 5 a 5 8 8 8 5 a 5 8 8 8 8 5 8 8 a 8 8 5 8 8 a 8 8 5 8 8 a 5 a 5 a 5 a 5 a 5 a 5 a 5 a 5 5 8 8 8 5 a 5 8 8 8 5 a 5 8 8 a ",
"a F 8 8 8 8 8 5 a 8 a 8 8 5 a 5 8 a 8 8 5 a 5 a 8 8 5 8 8 a 8 8 5 8 8 a 5 8 8 a 5 8 8 a 5 8 8 a 8 5 a 5 8 8 8 5 a 8 a 8 8 8 a a ",
"a F 8 8 5 a 8 a 5 8 5 8 8 a 8 8 8 5 a 5 8 8 8 8 a 5 a 8 8 5 a 5 a 8 8 5 a 8 8 5 a 8 8 5 a 8 8 5 8 a 8 8 5 a 8 a 5 8 5 8 8 8 8 a ",
"a F 8 8 a 5 8 8 8 5 8 5 a 8 a 5 8 a 5 a 8 8 8 8 5 8 8 a 5 8 8 a 5 a 5 8 8 a 5 a 5 a 5 8 8 a 5 a a 5 8 8 a 5 8 8 8 8 8 8 a 8 a a ",
"a F 8 8 8 8 5 a 8 a 8 a 5 8 8 8 8 5 8 8 a 5 a 5 a 8 8 5 a 8 8 5 8 8 a 8 8 5 8 8 8 8 a 8 8 5 8 8 8 8 5 a 8 8 5 a 8 a 8 a 8 8 8 a ",
"a F 8 5 a 8 a 8 a 5 8 8 8 5 a 5 8 a 8 8 5 8 8 a 5 a 5 a 5 a 5 a 8 8 5 8 8 a 8 8 8 8 5 8 8 a 8 8 a 8 a 8 a 8 a 8 a 5 8 8 8 8 a a ",
"a F 8 a 5 8 5 8 8 8 5 a 8 a 8 8 8 5 a 5 a 8 8 5 8 8 8 8 8 8 8 8 a 5 a 8 8 5 a 5 a 5 a 8 8 5 a 5 5 8 5 8 5 8 5 8 8 8 8 a 8 8 8 a ",
"a F 8 8 8 5 8 5 a 5 8 8 a 8 a 5 8 a 5 a 5 8 8 a 8 8 8 8 8 8 8 8 5 8 8 a 5 a 5 8 8 a 5 a 5 8 8 a 8 8 8 8 8 8 8 8 a 5 8 8 a 8 a a ",
"a F 8 8 8 a 8 a 8 8 5 a 5 8 8 8 8 5 8 8 a 8 8 5 a 5 a 5 a 5 a 5 a 8 8 5 8 8 a 8 8 5 8 8 a 8 8 5 a 5 a 5 a 5 a 5 8 8 5 a 5 8 8 a ",
"a F 8 8 a 5 8 8 a 8 a 8 8 5 a 5 8 a 8 8 5 a 5 a 5 8 8 a 5 8 8 a 5 a 5 a 8 8 5 8 8 a 8 8 5 a 5 a 5 8 8 a 5 8 8 a a 8 a 8 8 8 a a ",
"a F 5 a 8 8 5 a 5 8 5 8 8 a 8 8 8 5 a 5 8 8 8 8 a 8 8 5 a 8 8 5 8 8 8 8 a 5 a 8 8 5 a 5 8 8 8 8 a 8 8 5 a 8 8 5 5 8 5 8 a 8 8 a ",
"a F 8 a a 5 a 8 8 5 a 9 a 8 a 5 9 a 5 a 8 8 9 a 5 a 5 8 9 a 5 a 8 8 9 a 5 a 5 8 9 a 5 a 8 8 9 a 5 a 5 8 9 a 5 a 8 8 8 8 8 8 a a ",
"a Z 5 8 9 a 5 8 8 a 9 a 5 8 8 8 a 9 8 8 a 5 a 9 8 8 a 8 a 9 8 8 a 5 a 9 8 8 a 8 a 9 8 8 a 5 a 9 8 8 a 8 a 9 8 8 a 5 a a 8 8 8 a ",
"a ' x D D D D D D D D D D D D D D D D D Z D D D D D Z D D D D D Z D D D D D Z D D D D D Z D D D D D Z D D D D D Z D F D F S F a ",
"d.h h h h h h h h h h h h h h h C h h h h h C h h h h h C h h h h h C h h h h h C h h h h h h C h h h h h C h h h h h h a a x a "
};
