/* XPM */
static char *_003[] = {
/* columns rows colors chars-per-pixel */
"64 64 64 1 ",
"  c black",
". c #190702",
"X c #1D0802",
"o c #1D0902",
"O c #1D0F00",
"+ c #191200",
"@ c #1D1000",
"# c #1D1100",
"$ c #1D1500",
"% c #1D1D1D",
"& c #1D1D1F",
"* c #1D1E1E",
"= c #1D1E1F",
"- c #3A3A3A",
"; c #C5431A",
": c #E04C1D",
"> c #E24D1D",
", c #E0531A",
"< c #E07F03",
"1 c #FF601D",
"2 c #FF5722",
"3 c #FF5822",
"4 c #C59505",
"5 c #E08500",
"6 c #E08600",
"7 c #E08A01",
"8 c #FF9104",
"9 c #FF9900",
"0 c #FF9A00",
"q c #FF9E01",
"w c #E0A505",
"e c #E0AA06",
"r c #E2AB06",
"t c #FFBE06",
"y c #FFC307",
"u c #FFC407",
"i c gray88",
"p c #E4E4E4",
"a c #FBFBFB",
"s c white",
"d c black",
"f c black",
"g c black",
"h c black",
"j c black",
"k c black",
"l c black",
"z c black",
"x c black",
"c c black",
"v c black",
"b c black",
"n c black",
"m c black",
"M c black",
"N c black",
"B c black",
"V c black",
"C c black",
"Z c black",
"A c black",
"S c black",
"D c black",
"F c black",
/* pixels */
"ssssssssssssssssssssssssssssssssssssssssssssssssssssssssssssssss",
"ssssssssssssssssssssssssssssssssssssssssssssssssssssssssssssssss",
"ssssssssssssssssssssssssssssssssssssssssssssssssssssssssssssssss",
"ssssssssssssssssssssssssssssssssssssssssssssssssssssssssssssssss",
"ssssssssssssssssssssssssssssssssssssssssssssssssssssssssssssssss",
"ssssssssssssssssssssssssssssssssssssssssssssssssssssssssssssssss",
"ssssssssssssssssssssssssssssssssssssssssssssssssssssssssssssssss",
"ssssssssssssssssssssssssssssssssssssssssssssssssssssssssssssssss",
"ssssssssssssssssssssssssssssssssssssssssssssssssssssssssssssssss",
"ssssssssssssssssssssssssssssssssssssssssssssssssssssssssssssssss",
"ssssssssssssssssssssssssssssssssssssssssssssssssssssssssssssssss",
"sssssssssssssssssssssssssssapiiiiiipasssssssssssssssssssssssssss",
"sssssssssssssssssssssssssssp-%%%%%%-psssssssssssssssssssssssssss",
"sssssssssssssssssssssssssssi% +$$+ %isssssssssssssssssssssssssss",
"sssssssssssssssssssssssssssi%+4rr4+%isssssssssssssssssssssssssss",
"sssssssssssssssssssssssssssi%$ruur$%isssssssssssssssssssssssssss",
"sssssssssssssssssssssssssssi%$ryyr$%isssssssssssssssssssssssssss",
"sssssssssssssssssssssssssssi%$ryyr$%isssssssssssssssssssssssssss",
"sssssssssssssssssssssssssssi%$ryyr$%isssssssssssssssssssssssssss",
"sssssssssssssssssssssssssssi%$ryyr$%isssssssssssssssssssssssssss",
"sssssssssssssssssssssssssssi%$ryyr$%isssssssssssssssssssssssssss",
"sssssssssssssssssssssssssssi%$ryyr$%isssssssssssssssssssssssssss",
"sssssssssssssssssssssssssssi%$ryyr$%isssssssssssssssssssssssssss",
"sssssssssssssssssssssssssssi%$ryyr$%isssssssssssssssssssssssssss",
"sssssssssssssssssssssssssssi%$ryyr$%isssssssssssssssssssssssssss",
"sssssssssssssssssssssssssssi%$wttw$%isssssssssssssssssssssssssss",
"sssssssssssssssssssssssssssi%@7qq7@%isssssssssssssssssssssssssss",
"sssssssssssssssssssssssssssi%@5995@%isssssssssssssssssssssssssss",
"sssssssssssssssssssssssssssi%@5995@%isssssssssssssssssssssssssss",
"sssssssssssssssssssssssssssi%@5995@%isssssssssssssssssssssssssss",
"sssssssssssssssssssssssssssi%@5995@%isssssssssssssssssssssssssss",
"sssssssssssssssssssssssssssi%@5995@%isssssssssssssssssssssssssss",
"sssssssssssssssssssssssssssi%@5995@%isssssssssssssssssssssssssss",
"sssssssssssssssssssssssssssi%@5995@%isssssssssssssssssssssssssss",
"sssssssssssssssssssssssssssi%@5995@%isssssssssssssssssssssssssss",
"sssssssssssssssssssssssssssi%@5995@%isssssssssssssssssssssssssss",
"sssssssssssssssssssssssssssi%@5995@%isssssssssssssssssssssssssss",
"sssssssssssssssssssssssssssi%O<88<@%isssssssssssssssssssssssssss",
"sssssssssssssssssssssssssssi%X,11,X%isssssssssssssssssssssssssss",
"sssssssssssssssssssssssssssi%X>22>X%isssssssssssssssssssssssssss",
"sssssssssssssssssssssssssssi%X>33>X%isssssssssssssssssssssssssss",
"sssssssssssssssssssssssssssi%.;>>;.%isssssssssssssssssssssssssss",
"sssssssssssssssssssssssssssi% .XX. %isssssssssssssssssssssssssss",
"sssssssssssssssssssssssssssp-%%%%%%-psssssssssssssssssssssssssss",
"sssssssssssssssssssssssssssapiiiiiipasssssssssssssssssssssssssss",
"ssssssssssssssssssssssssssssssssssssssssssssssssssssssssssssssss",
"ssssssssssssssssssssssssssssssssssssssssssssssssssssssssssssssss",
"ssssssssssssssssssssssssssssssssssssssssssssssssssssssssssssssss",
"ssssssssssssssssssssssssssssssssssssssssssssssssssssssssssssssss",
"ssssssssssssssssssssssssssssssssssssssssssssssssssssssssssssssss",
"ssssssssssssssssssssssssssssssssssssssssssssssssssssssssssssssss",
"ssssssssssssssssssssssssssssssssssssssssssssssssssssssssssssssss",
"ssssssssssssssssssssssssssssssssssssssssssssssssssssssssssssssss",
"ssssssssssssssssssssssssssssssssssssssssssssssssssssssssssssssss",
"ssssssssssssssssssssssssssssssssssssssssssssssssssssssssssssssss",
"ssssssssssssssssssssssssssssssssssssssssssssssssssssssssssssssss",
"ssssssssssssssssssssssssssssssssssssssssssssssssssssssssssssssss",
"ssssssssssssssssssssssssssssssssssssssssssssssssssssssssssssssss",
"ssssssssssssssssssssssssssssssssssssssssssssssssssssssssssssssss",
"ssssssssssssssssssssssssssssssssssssssssssssssssssssssssssssssss",
"ssssssssssssssssssssssssssssssssssssssssssssssssssssssssssssssss",
"ssssssssssssssssssssssssssssssssssssssssssssssssssssssssssssssss",
"ssssssssssssssssssssssssssssssssssssssssssssssssssssssssssssssss",
"ssssssssssssssssssssssssssssssssssssssssssssssssssssssssssssssss"
};
