/* XPM */
static char *xpm_[] = {
/* columns rows colors chars-per-pixel */
"64 64 152 2 ",
"   c #0000AE",
".  c #0045B6",
"X  c #0046B6",
"o  c #004AB7",
"O  c #004CB7",
"+  c #0054B9",
"@  c #0055B9",
"#  c #0057BA",
"$  c #0058BA",
"%  c #0059BA",
"&  c #005ABA",
"*  c #005CBA",
"=  c #005CBB",
"-  c #005DBB",
";  c #0060BB",
":  c #0061BC",
">  c #0064BD",
",  c #0065BD",
"<  c #0066BD",
"1  c #0068BD",
"2  c #0068BE",
"3  c #0069BE",
"4  c #006ABE",
"5  c #006BBE",
"6  c #006ABF",
"7  c #006BBF",
"8  c #006CBE",
"9  c #006CBF",
"0  c #006DBF",
"q  c #006EBF",
"w  c #006FBF",
"e  c #066CBF",
"r  c #0070BF",
"t  c #0071BF",
"y  c #006FC0",
"u  c #186FC0",
"i  c #0070C0",
"p  c #0170C0",
"a  c #0171C0",
"s  c #0070C1",
"d  c #0071C1",
"f  c #0270C0",
"g  c #0370C0",
"h  c #0071C3",
"j  c #0072C3",
"k  c #0073C3",
"l  c #0470C0",
"z  c #0570C0",
"x  c #0471C0",
"c  c #0571C0",
"v  c #0770C0",
"b  c #0671C0",
"n  c #0072C4",
"m  c #0072C5",
"M  c #0073C5",
"N  c #0072C6",
"B  c #0073C6",
"V  c #0074C6",
"C  c #0074C7",
"Z  c #0075C7",
"A  c #0871C0",
"S  c #0971C0",
"D  c #0C71C0",
"F  c #0E71C0",
"G  c #0D72C0",
"H  c #0E72C0",
"J  c #0F72C0",
"K  c #0E72C1",
"L  c #0075C8",
"P  c #0075C9",
"I  c #0076C9",
"U  c #0076CB",
"Y  c #0077CB",
"T  c #0077CC",
"R  c #0079CF",
"E  c #1072C0",
"W  c #1172C1",
"Q  c #1272C1",
"!  c #1772C1",
"~  c #1773C1",
"^  c #1872C1",
"/  c #1873C1",
"(  c #1973C1",
")  c #1B73C1",
"_  c #1F74C1",
"`  c #007BD3",
"'  c #007FDA",
"]  c #2572C0",
"[  c #2074C1",
"{  c #2274C1",
"}  c #2275C1",
"|  c #2474C1",
" . c #2F78C2",
".. c #3479C3",
"X. c #347BC3",
"o. c #367AC3",
"O. c #407AC3",
"+. c #4E84C7",
"@. c #5181C5",
"#. c #5182C6",
"$. c #5682C6",
"%. c #5286C7",
"&. c #5386C7",
"*. c #5487C8",
"=. c #5587C8",
"-. c #658DCA",
";. c #6E8ECA",
":. c #6E91CB",
">. c #7093CC",
",. c #7896CC",
"<. c #7899CE",
"1. c #7A9ACF",
"2. c #819BCF",
"3. c #829CCF",
"4. c #8BA4D3",
"5. c #9AACD5",
"6. c #A5BBDC",
"7. c #A8B9DB",
"8. c #B6C6E1",
"9. c #B7C7E2",
"0. c #B9C8E3",
"q. c #BDCBE4",
"w. c #C2CFE6",
"e. c #C5D1E7",
"r. c #C7D3E8",
"t. c #C9D5E9",
"y. c #CDD9EB",
"u. c #CFDAEB",
"i. c #D3DCEC",
"p. c #D3DCED",
"a. c #D6DEEE",
"s. c #DAE2EF",
"d. c #DCE3F0",
"f. c #E0E6F2",
"g. c #E0E7F2",
"h. c #E2E8F3",
"j. c #E3E9F3",
"k. c #E6EAF4",
"l. c #E9EFF7",
"z. c #E9F0F7",
"x. c #EFF3F9",
"c. c #F2F7FB",
"v. c #F3F8FB",
"b. c #F7F9FC",
"n. c #F6FAFD",
"m. c #F8FAFD",
"M. c #FAFCFE",
"N. c #FAFDFE",
"B. c #FBFDFF",
"V. c #FCFFFF",
"C. c #FEFFFF",
"Z. c None",
/* pixels */
"Z.Z L Z B L B L B L B L B L B L Z B L B L B Z B L B L B Z B L B L B Z B L B L B Z B L B L B Z B L B L B Z B L B L B Z B L Z Z B ",
"d ` d B B B B B B B B B B B B B B B B B B B B B B B B B B B B B B B B B B B B B B B B B B B B B B B B B B B B B B B B B B B L B ",
"d L y y w w y y y w y w y y y y y y y w y y y y y w y w y y y w y y y y y w y y y y y w y y y y y w y y y y y w y y w w y y d d ",
"d T y d d w d w y d y d d w d y w d y d d y d w y d w d w d y d d y d w y d y d w d y d d y d w y d y d w d y d d y d w d d d B ",
"d L w d w d w d w d w d w d w d d w d w d w d w d w d w d w d w d w d w d w d w d w d w d w d w d w d w d w d w w d w d w d d B ",
"d R d w d w d w d w d w d w d w w d w d w d w d w d w d w d w d w d w d w d w d w d w d w d w d w d w d w d w d d w d w d w B d ",
"w R y d w d w d w d w d w d w d d w d w d w d w d w d w d w d w d w d w d w d w d w d w d w d w d w d w d w d w w d w d w d d B ",
"d L d w d w d w d w d w d w d w w d w d w d w d w d w d w d w d w d w d w d w d w d w d w d w d w d w d w d w d d w d w d w B d ",
"y R w d w d w d w d w d w d w d d w d w d w d w d w d w d w d w d w d w d w d w d w d w d w d w w d w d w d w d w d w d w d d B ",
"d L d w d w d w d w d w d w d w w d w d w d w d w d w d w d w d w d w d w d w d w d w d w d w d d w d w d w d w d w d w d w B d ",
"w T w d w d w d w d w d w d w d d w d w d w d w d w d w d w d w d w d w d w d w d w d w d w d w w d w d w d w d w d w d w d d B ",
"d T d w d w d w d w d w d w d w w d w d w d w d w d w d w d w d w d w d w d w d w d w d w d w d d w d w d w d w d w d w d w B d ",
"w R y d w d w d w d w d w d w d d w d w d w d w d w d w d w d w d w d w d w d w d w d w d w d w w d w d w d w d w d w d w d d B ",
"d L d w d w d w d w d w d w d w w d w d w d w d w d w d w d w d w d w d w d w d w d w d w d w d d w d w d w d w d w d w d w B d ",
"y R w d w d w d w d w d w d w d d w d w d w d w d w d w d w d w d w d w d w d w d w d w d w d w w d w d w d w d w d w d w d d B ",
"d L d w d w d w d w d w d w d w w d w d w d w d w d w d w d w d w d w d w d w d w d w d w d w d d w d w d w d w d w d w d w B d ",
"w T w d w d w d w d w d w d w d w d w d w d w d d w d w d w d w w d w d w d w d w d w d w d w d w d w d w d w d w d w d w d d B ",
"d T d w d w d w d w d w d w d w d w d w d w d w w d w d w d w d d w d w d w d w d w d w d w d w d w d w d w d w d w d w d w B d ",
"w R y d w d w d w d w d w d w d w d w d w d w d d w d w d w d w w d w d w d w d w d w d w d w d w d w d w d w d w d w d w d d B ",
"d L d w d w d w d w d w d w d w d w d w d w d w w d w d w d w d d w d w d w d w d w d w d w d w d w d w d w d w d w d w d w B d ",
"y R w d w d w d w d w d w d w d w d w d w d w d d w d w d w d w w d w d w d w d w d w d w d w d w d w d w d w d w d w d w d d B ",
"d L d w d w d w d w d w d w d w d w d w d w d w w d w d w d w d d w d w d w d w d w d w d w d w d w d w d w d w d w d w d w B d ",
"w T w d w d w d w d w d w d w d w d w d w d w d d w d w d w d w w d w d w d w d w d w d w d w d w d w d w d w d w d w d w d d B ",
"d T d w d w d w d w d w d w d w d w d w d w d w w d w d w d w d d w d w d w d w d w d w d w d w d w d w d w d w d w d w d w B d ",
"w R y d w d w d w d w d w d w d w d w d w d w d w d w d d r E J e Q e l d t d t w d w d w d w d w d w d w d w d w d w d w d d B ",
"d L d w d w d w d w d w d w d w d w d w d w d w d w d w l w 3 3 3 3 w t t d t d d w d w d w d w d w d w d w d w d w d w d w B d ",
"y R w d w d w d w d w d w d w d w d w d w d w d w d w l w ..*.%.=.=.+.e d l y d w d w d w d w d w d w d w d w d w d w d w d d B ",
"d L d w d w d w d w d w d w d w d w d w d w d w d w d [ * 6.B.c.b.b.z.X.w e d w d w d w d w d w d w d w d w d w d w d w d w B d ",
"w T w d w d w d w d w d w d w d w d w d w d w d w d y [ @ w.j.;.3.3.1.) w y l d w d w d w d w d w d w d w d w d w d w d w d d B ",
"d T d w d w d w d w d w d w d w d w d w d w d w d w d [ @ i.t.  O X ; e d t d w d w d w d w d w d w d w d w d w d w d w d w B d ",
"w R y d w d w d w d w d w d w d w d w d w d w d w d w ) = a.i.8.s.0.@.> ~ l w d w d w d w d w d w d w d w d w d w d w d w d d B ",
"d L d w d w d w d w d w d w d w d w d w d w d w d w l J > f.B.i.r.b.c.@.w e d w d w d w d w d w d w d w d w d w d w d w d w B d ",
"d T d w d w d w d w d w d w d w d w d w d w d w d y d l w 1.>.@ o $.B.9.= { t t w d w d w d w d w d w d w d w d w d w d w d d B ",
"w T w d w d w d w d w d w d w d w d w d w d w d w t d y ] ] >  .X.; k.u.@ { y t d w d w d w d w d w d w d w d w d w d w d w B d ",
"d L d w d w d w d w d w d w d w d w d w d w d w d e Q 3 :.M.4.X = e b.q.@ | d w w d w d w d w d w d w d w d w d w d w d w d d B ",
"d T w d w d w d w d w d w d w d w d w d w d w d t d l l 3 j.M.7.5.f.B.-.3 E w d d w d w d w d w d w d w d w d w d w d w d w B d ",
"d T d y d w d w d w d w d w d w d w d w d w d w d d w J 3 O.e.l.z.d.1.> ( t y d w d w d w d w d w d w d w d w d w d w d w d d B ",
"y T w d w d w d w d w d w d w d w d w d w d w d t y w d J 3 = 3 u * > ^ d d d w d w d w d w d w d w d w d w d w d w d w d w B d ",
"d T d w d w d w d w d w d w d w d w d w d w d w d w d w w E [ d w ^ ^ t w d w d w d w d w d w d w d w d w d w d w d w d w d d B ",
"w T w d w d w d w d w d w d w d w d w d w d w d w d w d d y t l e d d w d w d w d w d w d w d w d w d w d w d w d w d w d w B d ",
"d L d w d w d w d w d w d w d w d w d w d w d w d w d w d w d w d t d t w d w d w d w d w d w d w d w d w d w d w d w d w d d B ",
"d T w d w d w d w d w d w d w d w d w d w d w d w d w d w d w d t d d y d w d w d w d w d w d w d w d w d w d w d w d w d w B d ",
"d T d w d w d w d w d w d w d w d w d w d w d w d w d w d w d w w d w d w d w d w d w d w d w d w d w d w d w d w d w d w d d B ",
"y T y d w d w d w d w d w d w d w d w d w d w d w d w d w d w d d w d w d w d w d w d w d w d w d w d w d w d w d w d w d w B d ",
"d T d w d w d w d w d w d w d w d w d w d w d w d w d w d w d w w d w d w d w d w d w d w d w d w d w d w d w d w d w d w d d B ",
"w T w d w d w d w d w d w d w d w d w d w d w d w d w d w d w d d w d w d w d w d w d w d w d w d w d w d w d w d w d w d w B d ",
"d L d w d w d w d w d w d w d w d w d w d w d w d w d w d w d w w d w d w d w d w d w d w d w d w d w d w d w d w d w d w d d B ",
"d T w d w d w d w d w d w d w d w d w d w d w d w d w d w d w d d w d w d w d w d w d w d w d w d w d w d w d w d w d w d w B d ",
"d T d y d w d w d w d w d w d w d w d w d w d w d w d w d w d w d w d w d w d w d w d w d w d w w d w d w d w d w d w d w d d B ",
"y T w d w d w d w d w d w d w d w d w d w d w d w d w d w d w d w d w d w d w d w d w d w d w d d w d w d w d w d w d w d w B d ",
"d T d w d w d w d w d w d w d w d w d w d w d w d w d w d w d w d w d w d w d w d w d w d w d w w d w d w d w d w d w d w d d B ",
"w T w d w d w d w d w d w d w d w d w d w d w d w d w d w d w d w d w d w d w d w d w d w d w d d w d w d w d w d w d w d w B d ",
"d L d w d w d w d w d w d w d w d w d w d w d w d w d w d w d w d w d w d w d w d w d w d w d w w d w d w d w d w d w d w d d B ",
"d T w d w d w d w d w d w d w d w d w d w d w d w d w d w d w d w d w d w d w d w d w d w d w d d w d w d w d w d w d w d w B d ",
"d T d w d w d w d w d w d w d w d w d w d w d w d w d w d w d w d w d w d w d w d w d w d w d w w d w d w d w d w d w d w d d B ",
"y T y d w d w d w d w d w d w d w d w d w d w d w d w d w d w d w d w d w d w d w d w d w d w d d w d w d w d w d w d w d w B d ",
"d T d w d w d w d w d w d w d w d w d w d w d w d w d w d w d w d w d w d w d w d w d w d w d w d w d w d w d w w d w d w d d B ",
"w T w d w d w d w d w d w d w d w d w d w d w d w d w d w d w d w d w d w d w d w d w d w d w d w d w d w d w d d w d w d w B d ",
"d L d w d w d w d w d w d w d w d w d w d w d w d w d w d w d w d w d w d w d w d w d w d w d w d w d w d w d w w d w d w d d B ",
"d T w d w d w d w d w d w d w d w d w d w d w d w d w d w d w d w d w d w d w d w d w d w d w d w d w d w d w d d w d w d w B d ",
"d T d d d y d w d y d y d w d w d y d y d y d y d w d w d y d y d y d y d w d w d y d w d y d y d w d w d y d w d y d y w t d B ",
"w L y y y y y d y d y y w d w d y y y d y d y y w d w d y y y d y d y y w d w d y y y d w d y y w d w d y y y d y d y y d w d d ",
"d ' L T L T T T T T L T T T T T L T T T T T L T T T T T L T T T T T L T T L T T L T T L T T L T T L T T L T T L T T L T T L ` d ",
"Z.B d B B B B d B B B B B d B B B B B d B B B B B d B B B B B d B B B B B B B B B B B B B B B B B B B B B B B B B B B B B B B B "
};
