/* XPM */
static char *result[] = {
/* columns rows colors chars-per-pixel */
"64 64 202 2 ",
"   c #FFA400",
".  c #FFA600",
"X  c #FFA900",
"o  c #FFAA00",
"O  c #FFAB00",
"+  c #FFA802",
"@  c #FFAC00",
"#  c #FFAE00",
"$  c #FFAC08",
"%  c #FFAD0B",
"&  c #FFB000",
"*  c #FFB100",
"=  c #FFB200",
"-  c #FFB601",
";  c #FFB800",
":  c #FFB900",
">  c #FFBA00",
",  c #FFBB00",
"<  c #FFBD00",
"1  c #FFBF00",
"2  c #FFBA07",
"3  c #FFB708",
"4  c #FFB40E",
"5  c #FFB112",
"6  c #FEB118",
"7  c #FFB82A",
"8  c #FFBB32",
"9  c #FFC000",
"0  c #FFC100",
"q  c #FFC200",
"w  c #FFC300",
"e  c #FFC002",
"r  c #FFC400",
"t  c #FFC500",
"y  c #FFC600",
"u  c #FFC700",
"i  c #FFC800",
"p  c #FFC900",
"a  c #FFCF00",
"s  c #FFCB04",
"d  c #FFC40D",
"f  c #FFC90C",
"g  c #FFD000",
"h  c #FFD100",
"j  c #FFD200",
"k  c #FFD302",
"l  c #FFD400",
"z  c #FFD500",
"x  c #FFD600",
"c  c gold",
"v  c #FFD601",
"b  c #FFD701",
"n  c #FFD402",
"m  c #FFD502",
"M  c #FFD702",
"N  c #FFD800",
"B  c #FFD900",
"V  c #FFDA00",
"C  c #FFDB00",
"Z  c #FFDB01",
"A  c #FFD802",
"S  c #FFD902",
"D  c #FFDA02",
"F  c #FFDC00",
"G  c #FFDD00",
"H  c #FFDE00",
"J  c #FFDF00",
"K  c #FFDC02",
"L  c #FFDE02",
"P  c #FFD804",
"I  c #FFD904",
"U  c #FFD907",
"Y  c #FFD908",
"T  c #FFD80C",
"R  c #FFDA0C",
"E  c #FFDB0C",
"W  c #FFDE0C",
"Q  c #FFC512",
"!  c #FFCD11",
"~  c #FFDC12",
"^  c #FFDB17",
"/  c #FFDC15",
"(  c #FFE200",
")  c #FFE300",
"_  c #FFE400",
"`  c #FFE500",
"'  c #FFE600",
"]  c #FFE700",
"[  c #FFE104",
"{  c #FFE800",
"}  c #FFE900",
"|  c #FFEA00",
" . c #FFEB00",
".. c #FFE802",
"X. c #FFED00",
"o. c #FFEE00",
"O. c #FFEF00",
"+. c #FFEB07",
"@. c #FFE60C",
"#. c #FFED08",
"$. c #FFF100",
"%. c #FFF200",
"&. c #FFF300",
"*. c #FFF302",
"=. c #FFF400",
"-. c #FFF500",
";. c #FFFE00",
":. c yellow",
">. c #FFF308",
",. c #FFF20B",
"<. c #FFF10C",
"1. c #FFE316",
"2. c #FFE913",
"3. c #FFF412",
"4. c #FFC23E",
"5. c #FFF525",
"6. c #FFF62A",
"7. c #FFE033",
"8. c #FFE138",
"9. c #FFE23E",
"0. c #FFF433",
"q. c #FFC240",
"w. c #FFC241",
"e. c #FFC447",
"r. c #FFC54A",
"t. c #FFC956",
"y. c #FFF540",
"u. c #FFF445",
"i. c #FFF447",
"p. c #FEF448",
"a. c #FFF548",
"s. c #FFF549",
"d. c #FFF54D",
"f. c #FFF557",
"g. c #FFCD61",
"h. c #FED167",
"j. c #FFD368",
"k. c #FFD476",
"l. c #FFE867",
"z. c #FFE969",
"x. c #FFE96A",
"c. c #FFF669",
"v. c #FFF66F",
"b. c #FEEA71",
"n. c #FFEB76",
"m. c #FFEB7A",
"M. c #FFF771",
"N. c #FFF779",
"B. c #FFF87D",
"V. c #FFEFA6",
"C. c #FFE7AA",
"Z. c #FFF4AC",
"A. c #FFF9AC",
"S. c #FEE5B1",
"D. c #FFF2B1",
"F. c #FFFBB2",
"G. c #FFF6BF",
"H. c #FEF0CD",
"J. c #FFF1D1",
"K. c #FFF8D1",
"L. c #FFF8D4",
"P. c #FEFCD5",
"I. c #FFF4DB",
"U. c #FFF4DE",
"Y. c #FFFADB",
"T. c #FFFEDB",
"R. c #FFF8DD",
"E. c #FFFADD",
"W. c #FFFBDD",
"Q. c #FFFADE",
"!. c #FFFCDD",
"~. c #FFFEDE",
"^. c #FFF7E4",
"/. c #FFFBE5",
"(. c #FFFCE6",
"). c #FFFFE7",
"_. c #FFF5ED",
"`. c #FFF9E9",
"'. c #FEF8EA",
"]. c #FFFEE9",
"[. c #FFFDF5",
"{. c #FFFCF6",
"}. c #FFFDF7",
"|. c #FFFEF6",
" X c #FFFFF6",
".X c #FFFFF7",
"XX c #FFFCF8",
"oX c #FFFDF9",
"OX c #FFFEF8",
"+X c #FFFEF9",
"@X c #FFFFF9",
"#X c #FFFDFB",
"$X c #FFFEFA",
"%X c #FEFFFA",
"&X c #FFFFFA",
"*X c #FFFEFB",
"=X c #FFFFFB",
"-X c #FFFEFC",
";X c #FFFFFD",
":X c #FFFEFE",
">X c #FFFFFE",
",X c white",
/* pixels */
",X,X,X,X,X,X,X,X,X,X,X,X,X,X,X,X,X,X,X,X,X,X,X,X,X,X,X,X,X,X,X,X,X,X,X,X,X,X,X,X,X,X,X,X,X,X,X,X,X,X,X,X,X,X,X,X,X,X,X,X,X,X,X,X",
",X,X,X,X,X,X,X,X,X,X,X,X,X,X,X,X,X,X,X,X,X,X,X,X,X,X,X,X,X,X,X,X,X,X,X,X,X,X,X,X,X,X,X,X,X,X,X,X,X,X,X,X,X,X,X,X,X,X,X,X,X,X,X,X",
",X,X,X,X,X,X,X,X,X,X,X,X,X,X,X,X,X,X,X,X,X,X,X,X,X,X,X,X,X,X,X,X,X,X,X,X,X,X,X,X,X,X,X,X,X,X,X,X,X,X,X,X,X,X,X,X,X,X,X,X,X,X,X,X",
",X,X,X,X,X,X,X,X,X,X,X,X,X,X,X,X,X,X,X,X,X,X,X,X,X,X,X,X,X,X,X,X,X,X,X,X,X,X,X,X,X,X,X,X,X,X,X,X,X,X,X,X,X,X,X,X,X,X,X,X,X,X,X,X",
",X,X,X,X,X,X,X,X,X,X,X,X,X,X,X,X,X,X,X,X,X,X,X,X,X,X,X,X,X,X,X,X,X,X,X,X,X,X,X,X,X,X,X,X,X,X,X,X,X,X,X,X,X,X,X,X,X,X,X,X,X,X,X,X",
",X,X,X,X,X,X,X,X,X,X,X,X,X,X,X,X,X,X,X,X,X,X,X,X,X,X,X,X,X,X,X,X,X,X,X,X,X,X,X,X,X,X,X,X,X,X,X,X,X,X,X,X,X,X,X,X,X,X,X,X,X,X,X,X",
",X,X,X,X,X,X,X,X,X,X,X,X,X,X,X,X,X,X,X,X,X,X,X,X,X,X,X,X,X,X,X,X,X,X,X,X,X,X,X,X,X,X,X,X,X,X,X,X,X,X,X,X,X,X,X,X,X,X,X,X,X,X,X,X",
",X,X,X,X,X,X,X,X,X,X,X,X,X,X,X,X,X,X,X,X,X,X,X,X,X,X,X,X,X,X,X,X,X,X,X,X,X,X,X,X,X,X,X,X,X,X,X,X,X,X,X,X,X,X,X,X,X,X,X,X,X,X,X,X",
",X,X,X,X,X,X,X,X,X,X,X,X,X,X,X,X,X,X,X,X,X,X,X,X,X,X,X,X,X,X,X,X,X,X,X,X,X,X,X,X,X,X,X,X,X,X,X,X,X,X,X,X,X,X,X,X,X,X,X,X,X,X,X,X",
",X,X,X,X,X,X,X,X,X,X,X,X,X,X,X,X,X,X,X,X,X,X,X,X,X,X,X,X,X,X,X,X,X,X,X,X,X,X,X,X,X,X,X,X,X,X,X,X,X,X,X,X,X,X,X,X,X,X,X,X,X,X,X,X",
",X,X,X,X,X,X,X,X,X,X,X,X,X,X,X,X,X,X,X,X,X,X,X,X,X,X,X>X>X>X>X>X>X>X>X>X>X,X,X,X,X,X,X,X,X,X,X,X,X,X,X,X,X,X,X,X,X,X,X,X,X,X,X,X",
",X,X,X,X,X,X,X,X,X,X,X,X,X,X,X,X,X,X,X,X,X,X,X,X,X,X,X>X>X,X,X,X,X,X,X,X,X,X,X,X,X,X,X,X,X,X,X,X,X,X,X,X,X,X,X,X,X,X,X,X,X,X,X,X",
",X,X,X,X,X,X,X,X,X,X,X,X,X,X,X,X,X,X,X,X,X,X,X,X,X,X,X,X,X,X,X,X,X,X,X,X,X,X>X,X,X,X,X,X,X,X,X,X,X,X,X,X,X,X,X,X,X,X,X,X,X,X,X,X",
",X,X,X,X,X,X,X,X,X,X,X,X,X,X,X,X,X,X,X,X,X,X,X,X;X,X XB.c.f.d.s.i.a.p.u.N.|.,X;X,X,X,X,X,X,X,X,X,X,X,X,X,X,X,X,X,X,X,X,X,X,X,X,X",
",X,X,X,X,X,X,X,X,X,X,X,X,X,X,X,X,X,X,X,X,X,X,X,X.X,X].<.:.:.:.:.:.:.;.:.<.].,X|.,X,X,X,X,X,X,X,X,X,X,X,X,X,X,X,X,X,X,X,X,X,X,X,X",
",X,X,X,X,X,X,X,X,X,X,X,X,X,X,X,X,X,X,X,X,X,X,X>X,X,X%X5.=.,.>.>.>.>.,.=.6.,X,X,X:X,X,X,X,X,X,X,X,X,X,X,X,X,X,X,X,X,X,X,X,X,X,X,X",
",X,X,X,X,X,X,X,X,X,X,X,X,X,X,X,X,X,X,X,X,X,X,X,XP.F.A.2.o...{ { { { ..o.2.Z.D.K.,X,X,X,X,X,X,X,X,X,X,X,X,X,X,X,X,X,X,X,X,X,X,X,X",
",X,X,X,X,X,X,X,X,X,X,X,X,X,X,X,X,X,X,X,X,X:X&X,Xc.:. .B v x z x x x x b N N =.l.,X$X:X,X,X,X,X,X,X,X,X,X,X,X,X,X,X,X,X,X,X,X,X,X",
",X,X,X,X,X,X,X,X,X,X,X,X,X,X,X,X,X,X,X,X,X,X,X,XM.:.#.V c B V B N N N N N Y | m.,X,X,X,X,X,X,X,X,X,X,X,X,X,X,X,X,X,X,X,X,X,X,X,X",
",X,X,X,X,X,X,X,X,X,X,X,X,X,X,X,X,X,X,X,X,X,X+X,Xv.:.+.B c c z x N N N N N U | n.,XOX,X,X,X,X,X,X,X,X,X,X,X,X,X,X,X,X,X,X,X,X,X,X",
",X,X,X,X,X,X,X,X,X,X,X,X,X,X,X,X,X,X,X=X,X).y.0.1.G K N V y # : l B c N N A F ^ 8.9.(.,X=X,X,X,X,X,X,X,X,X,X,X,X,X,X,X,X,X,X,X,X",
",X,X,X,X,X,X,X,X,X,X,X,X,X,X,X,X,X,X,X@X,XT.&.:._ m N x V q . = l V c N N N S F  .C Y.,X+X,X,X,X,X,X,X,X,X,X,X,X,X,X,X,X,X,X,X,X",
",X,X,X,X,X,X,X,X,X,X,X,X,X,X,X,X,X,X,X&X,X~.3.*.[ x V V H w   * j c x N N N N P A ~ Q.,X&X,X,X,X,X,X,X,X,X,X,X,X,X,X,X,X,X,X,X,X",
",X,X,X,X,X,X,X,X,X,X,X,X,X,X,X,X,X,X,X+X,X!.@.} Z N z w q t r p ( ] J c N N N S F E E.,X+X,X,X,X,X,X,X,X,X,X,X,X,X,X,X,X,X,X,X,X",
",X,X,X,X,X,X,X,X,X,X,X,X,X,X,X,X,X,X,X+X,XE.T V M V g @   i G F O.-.' x N N N S F E E.,X+X,X,X,X,X,X,X,X,X,X,X,X,X,X,X,X,X,X,X,X",
",X,X,X,X,X,X,X,X,X,X,X,X,X,X,X,X,X,X,X+X,XE.E G A V h * o u B B X.%.` x N N N S F E E.,X+X,X,X,X,X,X,X,X,X,X,X,X,X,X,X,X,X,X,X,X",
",X,X,X,X,X,X,X,X,X,X,X,X,X,X,X,X,X,X,X+X,XE.E F A V h & X i V V X.&.` x N N N S F E E.,X+X,X,X,X,X,X,X,X,X,X,X,X,X,X,X,X,X,X,X,X",
",X,X,X,X,X,X,X,X,X,X,X,X,X,X,X,X,X,X,X+X,XE.E F A V h & X i V V X.&.` x N N N S F E E.,X+X,X,X,X,X,X,X,X,X,X,X,X,X,X,X,X,X,X,X,X",
",X,X,X,X,X,X,X,X,X,X,X,X,X,X,X,X,X,X,X+X,XE.E F A V h & X i V V X.&.` x N N N S F E E.,X+X,X,X,X,X,X,X,X,X,X,X,X,X,X,X,X,X,X,X,X",
",X,X,X,X,X,X,X,X,X,X,X,X,X,X,X,X,X,X,X+X,XE.E F A V h & X i V V X.&.` x N N N S F E E.,X+X,X,X,X,X,X,X,X,X,X,X,X,X,X,X,X,X,X,X,X",
",X,X,X,X,X,X,X,X,X,X,X,X,X,X,X,X,X,X,X+X,XE.E F A V h & X i V V X.&.` x N N N S F E E.,X+X,X,X,X,X,X,X,X,X,X,X,X,X,X,X,X,X,X,X,X",
",X,X,X,X,X,X,X,X,X,X,X,X,X,X,X,X,X,X,X+X,XE.E F A V h & X i V V X.&.` x N N N S F E E.,X+X,X,X,X,X,X,X,X,X,X,X,X,X,X,X,X,X,X,X,X",
",X,X,X,X,X,X,X,X,X,X,X,X,X,X,X,X,X,X,X+X,XE.E F A V h & X i V V X.&.` x N N N S F E E.,X+X,X,X,X,X,X,X,X,X,X,X,X,X,X,X,X,X,X,X,X",
",X,X,X,X,X,X,X,X,X,X,X,X,X,X,X,X,X,X,X+X,XE.E F A V h & X i V V X.&.` x N N N S F E E.,X+X,X,X,X,X,X,X,X,X,X,X,X,X,X,X,X,X,X,X,X",
",X,X,X,X,X,X,X,X,X,X,X,X,X,X,X,X,X,X,X+X,XE.E F A V h & X i V V X.&.` x N N N S F E E.,X+X,X,X,X,X,X,X,X,X,X,X,X,X,X,X,X,X,X,X,X",
",X,X,X,X,X,X,X,X,X,X,X,X,X,X,X,X,X,X,X+X,XE.E F A V h & X i V V X.&.` x N N N S F E E.,X+X,X,X,X,X,X,X,X,X,X,X,X,X,X,X,X,X,X,X,X",
",X,X,X,X,X,X,X,X,X,X,X,X,X,X,X,X,X,X,X+X,XE.E F A V h & X i V V X.&.` x N N N S F E E.,X+X,X,X,X,X,X,X,X,X,X,X,X,X,X,X,X,X,X,X,X",
",X,X,X,X,X,X,X,X,X,X,X,X,X,X,X,X,X,X,X+X,XE.E F A V h & X u V B X.&.` x N N N S F E E.,X+X,X,X,X,X,X,X,X,X,X,X,X,X,X,X,X,X,X,X,X",
",X,X,X,X,X,X,X,X,X,X,X,X,X,X,X,X,X,X,X+X,XE.E F A V h * o i C V X.%.` x N N N A C R E.,X+X,X,X,X,X,X,X,X,X,X,X,X,X,X,X,X,X,X,X,X",
",X,X,X,X,X,X,X,X,X,X,X,X,X,X,X,X,X,X,X+X,XE.E F A V h @   t N N O.-.' x N N N D J W W.,X+X,X,X,X,X,X,X,X,X,X,X,X,X,X,X,X,X,X,X,X",
",X,X,X,X,X,X,X,X,X,X,X,X,X,X,X,X,X,X,X+X,XE.E F A B l r 9 x ' ) ` ' J c N c B k p f R.,XoX,X,X,X,X,X,X,X,X,X,X,X,X,X,X,X,X,X,X,X",
",X,X,X,X,X,X,X,X,X,X,X,X,X,X,X,X,X,X,X&X,XQ.~ A I N N C B ] =.o.B l c N N x V s + 5 U.,X$X,X,X,X,X,X,X,X,X,X,X,X,X,X,X,X,X,X,X,X",
",X,X,X,X,X,X,X,X,X,X,X,X,X,X,X,X,X,X,X+X,XY.C | F S N N z ` &.o.C c B N N B L a , = I.,XoX,X,X,X,X,X,X,X,X,X,X,X,X,X,X,X,X,X,X,X",
",X,X,X,X,X,X,X,X,X,X,X,X,X,X,X,X,X,X,X=X,X/.9.7./ C A N x ) O. .V c N N N n N ! 8 4.^.,X*X,X,X,X,X,X,X,X,X,X,X,X,X,X,X,X,X,X,X,X",
",X,X,X,X,X,X,X,X,X,X,X,X,X,X,X,X,X,X,X,X,X,X+X,Xx.| U B N B V B N N N B c 2 < j.,XXX>X,X,X,X,X,X,X,X,X,X,X,X,X,X,X,X,X,X,X,X,X,X",
",X,X,X,X,X,X,X,X,X,X,X,X,X,X,X,X,X,X,X,X,X,X,X,Xb.| Y N c c c c c N c N c 3 ; k.,X,X,X,X,X,X,X,X,X,X,X,X,X,X,X,X,X,X,X,X,X,X,X,X",
",X,X,X,X,X,X,X,X,X,X,X,X,X,X,X,X,X,X,X,X,X:X$X,Xz.$.N F Z V V V V V V Z C ; q h.,X$X:X,X,X,X,X,X,X,X,X,X,X,X,X,X,X,X,X,X,X,X,X,X",
",X,X,X,X,X,X,X,X,X,X,X,X,X,X,X,X,X,X,X,X,X,X,X,XL.G.V.d w e 1 1 1 1 e r Q C.S.J.,X,X,X,X,X,X,X,X,X,X,X,X,X,X,X,X,X,X,X,X,X,X,X,X",
",X,X,X,X,X,X,X,X,X,X,X,X,X,X,X,X,X,X,X,X,X,X,X,X,X,X_.6 X % $ $ $ $ % O 7 ,X,X,X:X,X,X,X,X,X,X,X,X,X,X,X,X,X,X,X,X,X,X,X,X,X,X,X",
",X,X,X,X,X,X,X,X,X,X,X,X,X,X,X,X,X,X,X,X,X,X,X,X[.,XH.- 0 > < < < < > r 4 `.,X{.,X,X,X,X,X,X,X,X,X,X,X,X,X,X,X,X,X,X,X,X,X,X,X,X",
",X,X,X,X,X,X,X,X,X,X,X,X,X,X,X,X,X,X,X,X,X,X,X,X#X,X'.t.w.r.e.e.e.e.r.q.g.}.,X-X,X,X,X,X,X,X,X,X,X,X,X,X,X,X,X,X,X,X,X,X,X,X,X,X",
",X,X,X,X,X,X,X,X,X,X,X,X,X,X,X,X,X,X,X,X,X,X,X,X,X>X,X,X,X,X,X,X,X,X,X,X,X,X,X,X,X,X,X,X,X,X,X,X,X,X,X,X,X,X,X,X,X,X,X,X,X,X,X,X",
",X,X,X,X,X,X,X,X,X,X,X,X,X,X,X,X,X,X,X,X,X,X,X,X,X,X,X,X,X,X,X,X,X,X,X,X,X,X,X,X,X,X,X,X,X,X,X,X,X,X,X,X,X,X,X,X,X,X,X,X,X,X,X,X",
",X,X,X,X,X,X,X,X,X,X,X,X,X,X,X,X,X,X,X,X,X,X,X,X,X,X,X>X>X>X>X>X>X>X>X>X>X,X,X,X,X,X,X,X,X,X,X,X,X,X,X,X,X,X,X,X,X,X,X,X,X,X,X,X",
",X,X,X,X,X,X,X,X,X,X,X,X,X,X,X,X,X,X,X,X,X,X,X,X,X,X,X,X,X,X,X,X,X,X,X,X,X,X,X,X,X,X,X,X,X,X,X,X,X,X,X,X,X,X,X,X,X,X,X,X,X,X,X,X",
",X,X,X,X,X,X,X,X,X,X,X,X,X,X,X,X,X,X,X,X,X,X,X,X,X,X,X,X,X,X,X,X,X,X,X,X,X,X,X,X,X,X,X,X,X,X,X,X,X,X,X,X,X,X,X,X,X,X,X,X,X,X,X,X",
",X,X,X,X,X,X,X,X,X,X,X,X,X,X,X,X,X,X,X,X,X,X,X,X,X,X,X,X,X,X,X,X,X,X,X,X,X,X,X,X,X,X,X,X,X,X,X,X,X,X,X,X,X,X,X,X,X,X,X,X,X,X,X,X",
",X,X,X,X,X,X,X,X,X,X,X,X,X,X,X,X,X,X,X,X,X,X,X,X,X,X,X,X,X,X,X,X,X,X,X,X,X,X,X,X,X,X,X,X,X,X,X,X,X,X,X,X,X,X,X,X,X,X,X,X,X,X,X,X",
",X,X,X,X,X,X,X,X,X,X,X,X,X,X,X,X,X,X,X,X,X,X,X,X,X,X,X,X,X,X,X,X,X,X,X,X,X,X,X,X,X,X,X,X,X,X,X,X,X,X,X,X,X,X,X,X,X,X,X,X,X,X,X,X",
",X,X,X,X,X,X,X,X,X,X,X,X,X,X,X,X,X,X,X,X,X,X,X,X,X,X,X,X,X,X,X,X,X,X,X,X,X,X,X,X,X,X,X,X,X,X,X,X,X,X,X,X,X,X,X,X,X,X,X,X,X,X,X,X",
",X,X,X,X,X,X,X,X,X,X,X,X,X,X,X,X,X,X,X,X,X,X,X,X,X,X,X,X,X,X,X,X,X,X,X,X,X,X,X,X,X,X,X,X,X,X,X,X,X,X,X,X,X,X,X,X,X,X,X,X,X,X,X,X",
",X,X,X,X,X,X,X,X,X,X,X,X,X,X,X,X,X,X,X,X,X,X,X,X,X,X,X,X,X,X,X,X,X,X,X,X,X,X,X,X,X,X,X,X,X,X,X,X,X,X,X,X,X,X,X,X,X,X,X,X,X,X,X,X",
",X,X,X,X,X,X,X,X,X,X,X,X,X,X,X,X,X,X,X,X,X,X,X,X,X,X,X,X,X,X,X,X,X,X,X,X,X,X,X,X,X,X,X,X,X,X,X,X,X,X,X,X,X,X,X,X,X,X,X,X,X,X,X,X",
",X,X,X,X,X,X,X,X,X,X,X,X,X,X,X,X,X,X,X,X,X,X,X,X,X,X,X,X,X,X,X,X,X,X,X,X,X,X,X,X,X,X,X,X,X,X,X,X,X,X,X,X,X,X,X,X,X,X,X,X,X,X,X,X"
};
