/* XPM */
static char *result[] = {
/* columns rows colors chars-per-pixel */
"64 64 255 2 ",
"   c #FFA600",
".  c #FFA700",
"X  c #FFA800",
"o  c #FFAA00",
"O  c #FFAB00",
"+  c #FFAC00",
"@  c #FFAD01",
"#  c #FFAE00",
"$  c #FFAF00",
"%  c #FFAB05",
"&  c #FFAC07",
"*  c #FFAC08",
"=  c #FFAC09",
"-  c #FFAF09",
";  c #FFAD0A",
":  c #FFAD0B",
">  c #FFA90C",
",  c #FFB000",
"<  c #FFB200",
"1  c #FFB400",
"2  c #FFB500",
"3  c #FFB600",
"4  c #FFB900",
"5  c #FFBA00",
"6  c #FFBB00",
"7  c #FFBC00",
"8  c #FFBD00",
"9  c #FFBE00",
"0  c #FFBF00",
"q  c #FFBF01",
"w  c #FFB50B",
"e  c #FFAF1D",
"r  c #FFAC1E",
"t  c #FFB12E",
"y  c #FFBA28",
"u  c #FFBE2D",
"i  c #FFAD30",
"p  c #FFC000",
"a  c #FFC100",
"s  c #FFC200",
"d  c #FFC300",
"f  c #FFC002",
"g  c #FFC303",
"h  c #FFC500",
"j  c #FFC600",
"k  c #FFC700",
"l  c #FFC703",
"z  c #FFC105",
"x  c #FFC800",
"c  c #FFC900",
"v  c #FFCF00",
"b  c #FFC60E",
"n  c #FFC90F",
"m  c #FFD000",
"M  c #FFD100",
"N  c #FFD200",
"B  c #FFD300",
"V  c #FFD400",
"C  c #FFD500",
"Z  c #FFD501",
"A  c #FFD600",
"S  c gold",
"D  c #FFD601",
"F  c #FFD701",
"G  c #FFD402",
"H  c #FFD702",
"J  c #FFD703",
"K  c #FFD107",
"L  c #FFD206",
"P  c #FFD605",
"I  c #FFD800",
"U  c #FFD900",
"Y  c #FFD801",
"T  c #FFDA00",
"R  c #FFDB00",
"E  c #FFDA01",
"W  c #FFDB01",
"Q  c #FFD802",
"!  c #FFD803",
"~  c #FFDA03",
"^  c #FFDB03",
"/  c #FFDC00",
"(  c #FFDD00",
")  c #FFDD01",
"_  c #FFDE00",
"`  c #FFDF00",
"'  c #FFD804",
"]  c #FFD904",
"[  c #FFD805",
"{  c #FFD905",
"}  c #FFDB05",
"|  c #FFD906",
" . c #FFD10F",
".. c #FFD909",
"X. c #FFDA0A",
"o. c #FFDA0B",
"O. c #FFDE0A",
"+. c #FFC91B",
"@. c #FFD715",
"#. c #FFD717",
"$. c #FFD811",
"%. c #FFD814",
"&. c #FFDA17",
"*. c #FFDB17",
"=. c #FFD91E",
"-. c #FFE100",
";. c #FFE200",
":. c #FFE300",
">. c #FFE303",
",. c #FFE400",
"<. c #FFE500",
"1. c #FFE600",
"2. c #FFE700",
"3. c #FFE701",
"4. c #FFE604",
"5. c #FFE704",
"6. c #FFE800",
"7. c #FFE900",
"8. c #FFE801",
"9. c #FFEA00",
"0. c #FFEC00",
"q. c #FFED00",
"w. c #FFEE00",
"e. c #FFEF00",
"r. c #FFF000",
"t. c #FFF100",
"y. c #FFF200",
"u. c #FFF300",
"i. c #FFF400",
"p. c #FFF500",
"a. c #FFF600",
"s. c #FFF205",
"d. c #FFF106",
"f. c #FEF207",
"g. c #FFF407",
"h. c #FFF800",
"j. c #FFFB00",
"k. c #FFFD00",
"l. c #FFFE00",
"z. c yellow",
"x. c #FFF208",
"c. c #FFF308",
"v. c #FFF30A",
"b. c #FFF20B",
"n. c #FFD922",
"m. c #FFD925",
"M. c #FFD927",
"N. c #FFDE27",
"B. c #FFDF2B",
"V. c #FFC130",
"C. c #FFC034",
"Z. c #FFC23F",
"A. c #FFF32B",
"S. c #FFF32D",
"D. c #FFE030",
"F. c #FFE131",
"G. c #FFE132",
"H. c #FFE133",
"J. c #FFE035",
"K. c #FFE136",
"L. c #FFE13A",
"P. c #FFE33D",
"I. c #FFF332",
"U. c #FFF234",
"Y. c #FFF537",
"T. c #FFC445",
"R. c #FFC447",
"E. c #FFC448",
"W. c #FFC548",
"Q. c #FFC549",
"!. c #FFC54A",
"~. c #FFCD57",
"^. c #FFF444",
"/. c #FEF446",
"(. c #FFF447",
"). c #FFF548",
"_. c #FFF449",
"`. c #FFF44C",
"'. c #FFF65B",
"]. c #FFDD6C",
"[. c #FFDF77",
"{. c #FED579",
"}. c #FFF663",
"|. c #FFF664",
" X c #FFF76A",
".X c #FFE175",
"XX c #FFE279",
"oX c #FFE17F",
"OX c #FEEA7A",
"+X c #FFF670",
"@X c #FFF47B",
"#X c #FED684",
"$X c #FFDF97",
"%X c #FEE381",
"&X c #FEEB81",
"*X c #FEEC81",
"=X c #FEED81",
"-X c #FFEC85",
";X c #FFE18B",
":X c #FFF18A",
">X c #FFE39B",
",X c #FFE09E",
"<X c #FEF895",
"1X c #FFF09E",
"2X c #FEE2AF",
"3X c #FFE9AB",
"4X c #FFE9AD",
"5X c #FFF2A0",
"6X c #FFF1A5",
"7X c #FFF2A5",
"8X c #FFF6A5",
"9X c #FFFAA0",
"0X c #FFFBA7",
"qX c #FFF3A8",
"wX c #FFF3AE",
"eX c #FFEAB9",
"rX c #FFEABE",
"tX c #FEFBB1",
"yX c #FFF3BA",
"uX c #FFFBB8",
"iX c #FFFBBD",
"pX c #FFFCBE",
"aX c #FFEBC2",
"sX c #FFEEC1",
"dX c #FFEBC5",
"fX c #FFEFC7",
"gX c #FFF6C0",
"hX c #FFFCC7",
"jX c #FFF7CE",
"kX c #FFF8CA",
"lX c #FFEFD1",
"zX c #FFF2D6",
"xX c #FFFFD1",
"cX c #FFFEDF",
"vX c #FFF3EA",
"bX c #FFF5F2",
"nX c #FFFCF5",
"mX c #FFFEF5",
"MX c #FFFFF6",
"NX c #FFFEF7",
"BX c #FFFEF8",
"VX c #FFFEF9",
"CX c #FFFFF9",
"ZX c #FFFDFA",
"AX c #FFFDFB",
"SX c #FFFEFA",
"DX c #FFFFFA",
"FX c #FFFEFB",
"GX c #FFFFFB",
"HX c #FFFEFC",
"JX c #FFFEFD",
"KX c #FFFFFD",
"LX c #FFFEFE",
"PX c #FFFFFE",
"IX c white",
/* pixels */
"IXIXIXIXIXIXIXIXIXIXIXIXIXIXIXIXIXIXIXIXIXIXIXIXIXIXIXIXIXIXIXIXIXIXIXIXIXIXIXIXIXIXIXIXIXIXIXIXIXIXIXIXIXIXIXIXIXIXIXIXIXIXIXIX",
"IXIXIXIXIXIXIXIXIXIXIXIXIXIXIXIXIXIXIXIXIXIXIXIXIXIXIXIXIXIXIXIXIXIXIXIXIXIXIXIXIXIXIXIXIXIXIXIXIXIXIXIXIXIXIXIXIXIXIXIXIXIXIXIX",
"IXIXIXIXIXIXIXIXIXIXIXIXIXIXIXIXIXIXIXIXIXIXIXIXIXIXIXIXIXIXIXIXIXIXIXIXIXIXIXIXIXIXIXIXIXIXIXIXIXIXIXIXIXIXIXIXIXIXIXIXIXIXIXIX",
"IXIXIXIXIXIXIXIXIXIXIXIXIXIXIXIXIXIXIXIXIXIXIXIXIXIXIXIXIXIXIXIXIXIXIXIXIXIXIXIXIXIXIXIXIXIXIXIXIXIXIXIXIXIXIXIXIXIXIXIXIXIXIXIX",
"IXIXIXIXIXIXIXIXIXIXIXIXIXIXIXIXIXIXIXIXIXIXIXIXIXIXIXIXIXIXIXIXIXIXIXIXIXIXIXIXIXIXIXIXIXIXIXIXIXIXIXIXIXIXIXIXIXIXIXIXIXIXIXIX",
"IXIXIXIXIXIXIXIXIXIXIXIXIXIXIXIXIXIXIXIXIXIXIXIXIXIXIXIXIXIXIXIXIXIXIXIXIXIXIXIXIXIXIXIXIXIXIXIXIXIXIXIXIXIXIXIXIXIXIXIXIXIXIXIX",
"IXIXIXIXIXIXIXIXIXIXIXIXIXIXIXIXIXIXIXIXIXIXIXIXIXIXIXIXIXIXIXIXIXIXIXIXIXIXIXIXIXIXIXIXIXIXIXIXIXIXIXIXIXIXIXIXIXIXIXIXIXIXIXIX",
"IXIXIXIXIXIXIXIXIXIXIXIXIXIXIXIXIXIXIXIXIXIXIXIXIXIXIXIXIXIXIXIXIXIXIXIXIXIXIXIXIXIXIXIXIXIXIXIXIXIXIXIXIXIXIXIXIXIXIXIXIXIXIXIX",
"IXIXIXIXIXIXIXIXIXIXIXIXIXIXIXIXIXIXIXIXIXIXIXIXIXIXIXIXIXIXIXIXIXIXIXIXIXIXIXIXIXIXIXIXIXIXIXIXIXIXIXIXIXIXIXIXIXIXIXIXIXIXIXIX",
"IXIXIXIXIXIXIXIXIXIXIXIXIXIXIXIXIXIXIXIXIXIXIXIXIXIXIXIXIXIXIXIXIXIXIXIXIXIXIXIXIXIXIXIXIXIXIXIXIXIXIXIXIXIXIXIXIXIXIXIXIXIXIXIX",
"IXIXIXIXIXIXIXIXIXIXIXIXIXIXIXIXIXIXIXIXIXIXIXIXIXIXPXPXPXPXPXPXPXPXPXPXPXPXIXIXIXIXIXIXIXIXIXIXIXIXIXIXIXIXIXIXIXIXIXIXIXIXIXIX",
"IXIXIXIXIXIXIXIXIXIXIXIXIXIXIXIXIXIXIXIXIXIXIXIXIXIXPXPXPXIXIXIXIXIXIXIXIXIXIXIXIXIXIXIXIXIXIXIXIXIXIXIXIXIXIXIXIXIXIXIXIXIXIXIX",
"IXIXIXIXIXIXIXIXIXIXIXIXIXIXIXIXIXIXIXIXIXIXIXIXPXIXIXIXIXIXIXIXIXIXIXIXIXIXIXPXIXIXIXIXIXIXIXIXIXIXIXIXIXIXIXIXIXIXIXIXIXIXIXIX",
"IXIXIXIXIXIXIXIXIXIXIXIXIXIXIXIXIXIXIXIXIXIXIXPXIXhX}.+X X|.`./.).(.(._.^.'.cXIXKXIXIXIXIXIXIXIXIXIXIXIXIXIXIXIXIXIXIXIXIXIXIXIX",
"IXIXIXIXIXIXIXIXIXIXIXIXIXIXIXIXIXIXIXIXIXIXIXMXIX<Xz.z.z.z.z.z.z.z.z.z.z.z.uXIXmXIXIXIXIXIXIXIXIXIXIXIXIXIXIXIXIXIXIXIXIXIXIXIX",
"IXIXIXIXIXIXIXIXIXIXIXIXIXIXIXIXIXIXIXIXIXIXPXIXIXtXh.v.v.c.c.x.c.x.f.b.s.g.xXIXIXLXIXIXIXIXIXIXIXIXIXIXIXIXIXIXIXIXIXIXIXIXIXIX",
"IXIXIXIXIXIXIXIXIXIXIXIXIXIXIXIXIXIXIXIXIXIXIXiXpX@Xy.3.8.6.6.6.6.6.6.3.7.0.:XyXgXIXIXIXIXIXIXIXIXIXIXIXIXIXIXIXIXIXIXIXIXIXIXIX",
"IXIXIXIXIXIXIXIXIXIXIXIXIXIXIXIXIXIXIXIXPXFXIXA.z.2.C A A A A A A A A A F S T q.F.IXSXJXIXIXIXIXIXIXIXIXIXIXIXIXIXIXIXIXIXIXIXIX",
"IXIXIXIXIXIXIXIXIXIXIXIXIXIXIXIXIXIXIXIXIXIXIXY.l.5.S I U U U U U U U I I I { :.P.IXIXIXIXIXIXIXIXIXIXIXIXIXIXIXIXIXIXIXIXIXIXIX",
"IXIXIXIXIXIXIXIXIXIXIXIXIXIXIXIXIXIXIXIXKXDXKXI.j.4.H Q A C A A A C S I I I ! ;.H.IXDXPXIXIXIXIXIXIXIXIXIXIXIXIXIXIXIXIXIXIXIXIX",
"IXIXIXIXIXIXIXIXIXIXIXIXIXIXIXIXIXIXDXIXuXS.U.O.) E S I 6 < 1 1 2 , h T S I Y T o.L.N.1XIXFXIXIXIXIXIXIXIXIXIXIXIXIXIXIXIXIXIXIX",
"IXIXIXIXIXIXIXIXIXIXIXIXIXIXIXIXIXIXBXIX9Xz.k.E D @.M.m.w o @ + # X a R I I I Y U ;.p.OXIXSXPXIXIXIXIXIXIXIXIXIXIXIXIXIXIXIXIXIX",
"IXIXIXIXIXIXIXIXIXIXIXIXIXIXIXIXIXIXCXIX0Xa.d.^ $.S V C 1 > + O + . p U C I I I Q ..-.-XIXGXLXIXIXIXIXIXIXIXIXIXIXIXIXIXIXIXIXIX",
"IXIXIXIXIXIXIXIXIXIXIXIXIXIXIXIXIXIXCXIX8Xw.>.&.A oXfXsX~.d b h j s V 2.,.T S I Y ! 2.*XIXGXLXIXIXIXIXIXIXIXIXIXIXIXIXIXIXIXIXIX",
"IXIXIXIXIXIXIXIXIXIXIXIXIXIXIXIXIXIXVXIX6X` P n.C 4XIXIXXXU *.R / U <.i.t.( A U Y ! 2.&XIXGXLXIXIXIXIXIXIXIXIXIXIXIXIXIXIXIXIXIX",
"IXIXIXIXIXIXIXIXIXIXIXIXIXIXIXIXIXIXVXIX7X;.[ n.V 3XIXIX[.C #.S I C ;.t.w./ A U Y ! 2.&XIXGXLXIXIXIXIXIXIXIXIXIXIXIXIXIXIXIXIXIX",
"IXIXIXIXIXIXIXIXIXIXIXIXIXIXIXIXIXIXVXIX7X-.' =.A >XbXvX].S %.I U A :.y.e./ A U Y ! 2.&XIXGXLXIXIXIXIXIXIXIXIXIXIXIXIXIXIXIXIXIX",
"IXIXIXIXIXIXIXIXIXIXIXIXIXIXIXIXIXIXVXIX7X-.I ! T +.i t  .U Y I U A :.y.e./ A U Y ! 2.&XIXGXLXIXIXIXIXIXIXIXIXIXIXIXIXIXIXIXIXIX",
"IXIXIXIXIXIXIXIXIXIXIXIXIXIXIXIXIXIXVXIX7X-.I Q } x . O M ~ I I U A :.y.e./ A U Y ! 2.&XIXGXLXIXIXIXIXIXIXIXIXIXIXIXIXIXIXIXIXIX",
"IXIXIXIXIXIXIXIXIXIXIXIXIXIXIXIXIXIXVXIX7X-.I ! T n r e K U I I U A :.y.e./ A U Y ! 2.*XIXGXLXIXIXIXIXIXIXIXIXIXIXIXIXIXIXIXIXIX",
"IXIXIXIXIXIXIXIXIXIXIXIXIXIXIXIXIXIXVXIX7X-.I Q T x o # M T I I U A :.y.e./ A U Y ! 2.*XIXGXLXIXIXIXIXIXIXIXIXIXIXIXIXIXIXIXIXIX",
"IXIXIXIXIXIXIXIXIXIXIXIXIXIXIXIXIXIXVXIX7X-.I Q T x o # M T I I U A :.y.e./ A U Y ! 2.*XIXGXLXIXIXIXIXIXIXIXIXIXIXIXIXIXIXIXIXIX",
"IXIXIXIXIXIXIXIXIXIXIXIXIXIXIXIXIXIXVXIX7X-.I Q T x o # M T I I U A :.y.e./ A U Y ! 2.*XIXGXLXIXIXIXIXIXIXIXIXIXIXIXIXIXIXIXIXIX",
"IXIXIXIXIXIXIXIXIXIXIXIXIXIXIXIXIXIXVXIX7X-.I Q T x o # M T I I U A :.y.e./ A U Y ! 2.*XIXGXLXIXIXIXIXIXIXIXIXIXIXIXIXIXIXIXIXIX",
"IXIXIXIXIXIXIXIXIXIXIXIXIXIXIXIXIXIXVXIX7X-.I Q T x o # M T I I U A :.y.e./ A U Y ! 2.*XIXGXLXIXIXIXIXIXIXIXIXIXIXIXIXIXIXIXIXIX",
"IXIXIXIXIXIXIXIXIXIXIXIXIXIXIXIXIXIXVXIX7X-.I Q T x o # M T I I U A :.y.e./ A U Y ! 2.*XIXGXLXIXIXIXIXIXIXIXIXIXIXIXIXIXIXIXIXIX",
"IXIXIXIXIXIXIXIXIXIXIXIXIXIXIXIXIXIXVXIX7X-.I Q T x o # M T I I U A :.y.e./ A U Y ! 2.&XIXGXLXIXIXIXIXIXIXIXIXIXIXIXIXIXIXIXIXIX",
"IXIXIXIXIXIXIXIXIXIXIXIXIXIXIXIXIXIXVXIX7X-.I Q T x o # M U I I I A :.y.e./ A U Y ! 2.*XIXGXLXIXIXIXIXIXIXIXIXIXIXIXIXIXIXIXIXIX",
"IXIXIXIXIXIXIXIXIXIXIXIXIXIXIXIXIXIXVXIX7X-.I Q T c + $ N T I I U A :.t.w./ A U Y J 1.&XIXGXLXIXIXIXIXIXIXIXIXIXIXIXIXIXIXIXIXIX",
"IXIXIXIXIXIXIXIXIXIXIXIXIXIXIXIXIXIXVXIX7X-.I Q R k   o v S C C A B ;.i.t.( A U Y ^ 9.=XIXGXPXIXIXIXIXIXIXIXIXIXIXIXIXIXIXIXIXIX",
"IXIXIXIXIXIXIXIXIXIXIXIXIXIXIXIXIXIXVXIX7X-.I Q U m a d _ <.:.,.,.:.,.<.<.T S U F l B %XIXFXLXIXIXIXIXIXIXIXIXIXIXIXIXIXIXIXIXIX",
"IXIXIXIXIXIXIXIXIXIXIXIXIXIXIXIXIXIXVXIXqXR | ! I U R T q.y.t.t.r.u.<.B A S S I G - , #XIXFXLXIXIXIXIXIXIXIXIXIXIXIXIXIXIXIXIXIX",
"IXIXIXIXIXIXIXIXIXIXIXIXIXIXIXIXIXIXBXIX5Xe.<.I Y I S S 0.y.r.t.r.u.1.A U I U W S 4 j {.IXZXLXIXIXIXIXIXIXIXIXIXIXIXIXIXIXIXIXIX",
"IXIXIXIXIXIXIXIXIXIXIXIXIXIXIXIXIXIXSXIXwXB.J.X.U Y I I 7.w.q.q.q.e.,.A I I Z C L C.y ,XIXAXIXIXIXIXIXIXIXIXIXIXIXIXIXIXIXIXIXIX",
"IXIXIXIXIXIXIXIXIXIXIXIXIXIXIXIXIXIXIXIXGXVXKXG.;.! I I U T U U U T U I S T g 3 V.HXZXPXIXIXIXIXIXIXIXIXIXIXIXIXIXIXIXIXIXIXIXIX",
"IXIXIXIXIXIXIXIXIXIXIXIXIXIXIXIXIXIXIXIXIXIXIXK.:.] I I S S S S S S S S S T z < Z.IXIXIXIXIXIXIXIXIXIXIXIXIXIXIXIXIXIXIXIXIXIXIX",
"IXIXIXIXIXIXIXIXIXIXIXIXIXIXIXIXIXIXIXIXJXFXIXD.6.T T T T T T T T T T T E ( d 5 u IXFXJXIXIXIXIXIXIXIXIXIXIXIXIXIXIXIXIXIXIXIXIX",
"IXIXIXIXIXIXIXIXIXIXIXIXIXIXIXIXIXIXIXIXIXIXIXjXkX.Xx f 0 0 0 0 0 0 p q 0 h ;XdXrXIXIXIXIXIXIXIXIXIXIXIXIXIXIXIXIXIXIXIXIXIXIXIX",
"IXIXIXIXIXIXIXIXIXIXIXIXIXIXIXIXIXIXIXIXIXIXLXIXIX2X# ; = * * * * * & : % & lXIXIXIXIXIXIXIXIXIXIXIXIXIXIXIXIXIXIXIXIXIXIXIXIXIX",
"IXIXIXIXIXIXIXIXIXIXIXIXIXIXIXIXIXIXIXIXIXIXIXNXIX$Xk 6 7 8 8 8 8 8 8 6 9 0 eXIXnXIXIXIXIXIXIXIXIXIXIXIXIXIXIXIXIXIXIXIXIXIXIXIX",
"IXIXIXIXIXIXIXIXIXIXIXIXIXIXIXIXIXIXIXIXIXIXIXJXIXaXZ.E.Q.R.R.R.R.R.R.!.T.W.zXIXHXIXIXIXIXIXIXIXIXIXIXIXIXIXIXIXIXIXIXIXIXIXIXIX",
"IXIXIXIXIXIXIXIXIXIXIXIXIXIXIXIXIXIXIXIXIXIXIXIXLXIXIXIXIXIXIXIXIXIXIXIXIXIXIXLXIXIXIXIXIXIXIXIXIXIXIXIXIXIXIXIXIXIXIXIXIXIXIXIX",
"IXIXIXIXIXIXIXIXIXIXIXIXIXIXIXIXIXIXIXIXIXIXIXIXIXIXIXIXIXIXIXIXIXIXIXIXIXIXIXIXIXIXIXIXIXIXIXIXIXIXIXIXIXIXIXIXIXIXIXIXIXIXIXIX",
"IXIXIXIXIXIXIXIXIXIXIXIXIXIXIXIXIXIXIXIXIXIXIXIXIXIXPXPXPXPXPXPXPXPXPXPXPXPXIXIXIXIXIXIXIXIXIXIXIXIXIXIXIXIXIXIXIXIXIXIXIXIXIXIX",
"IXIXIXIXIXIXIXIXIXIXIXIXIXIXIXIXIXIXIXIXIXIXIXIXIXIXIXIXIXIXIXIXIXIXIXIXIXIXIXIXIXIXIXIXIXIXIXIXIXIXIXIXIXIXIXIXIXIXIXIXIXIXIXIX",
"IXIXIXIXIXIXIXIXIXIXIXIXIXIXIXIXIXIXIXIXIXIXIXIXIXIXIXIXIXIXIXIXIXIXIXIXIXIXIXIXIXIXIXIXIXIXIXIXIXIXIXIXIXIXIXIXIXIXIXIXIXIXIXIX",
"IXIXIXIXIXIXIXIXIXIXIXIXIXIXIXIXIXIXIXIXIXIXIXIXIXIXIXIXIXIXIXIXIXIXIXIXIXIXIXIXIXIXIXIXIXIXIXIXIXIXIXIXIXIXIXIXIXIXIXIXIXIXIXIX",
"IXIXIXIXIXIXIXIXIXIXIXIXIXIXIXIXIXIXIXIXIXIXIXIXIXIXIXIXIXIXIXIXIXIXIXIXIXIXIXIXIXIXIXIXIXIXIXIXIXIXIXIXIXIXIXIXIXIXIXIXIXIXIXIX",
"IXIXIXIXIXIXIXIXIXIXIXIXIXIXIXIXIXIXIXIXIXIXIXIXIXIXIXIXIXIXIXIXIXIXIXIXIXIXIXIXIXIXIXIXIXIXIXIXIXIXIXIXIXIXIXIXIXIXIXIXIXIXIXIX",
"IXIXIXIXIXIXIXIXIXIXIXIXIXIXIXIXIXIXIXIXIXIXIXIXIXIXIXIXIXIXIXIXIXIXIXIXIXIXIXIXIXIXIXIXIXIXIXIXIXIXIXIXIXIXIXIXIXIXIXIXIXIXIXIX",
"IXIXIXIXIXIXIXIXIXIXIXIXIXIXIXIXIXIXIXIXIXIXIXIXIXIXIXIXIXIXIXIXIXIXIXIXIXIXIXIXIXIXIXIXIXIXIXIXIXIXIXIXIXIXIXIXIXIXIXIXIXIXIXIX",
"IXIXIXIXIXIXIXIXIXIXIXIXIXIXIXIXIXIXIXIXIXIXIXIXIXIXIXIXIXIXIXIXIXIXIXIXIXIXIXIXIXIXIXIXIXIXIXIXIXIXIXIXIXIXIXIXIXIXIXIXIXIXIXIX",
"IXIXIXIXIXIXIXIXIXIXIXIXIXIXIXIXIXIXIXIXIXIXIXIXIXIXIXIXIXIXIXIXIXIXIXIXIXIXIXIXIXIXIXIXIXIXIXIXIXIXIXIXIXIXIXIXIXIXIXIXIXIXIXIX",
"IXIXIXIXIXIXIXIXIXIXIXIXIXIXIXIXIXIXIXIXIXIXIXIXIXIXIXIXIXIXIXIXIXIXIXIXIXIXIXIXIXIXIXIXIXIXIXIXIXIXIXIXIXIXIXIXIXIXIXIXIXIXIXIX"
};
