/* XPM */
static char *xpm_[] = {
/* columns rows colors chars-per-pixel */
"64 64 113 2 ",
"   c #010101",
".  c #080608",
"X  c #0B0B0B",
"o  c #100F10",
"O  c #141414",
"+  c #1C1D1D",
"@  c #20201E",
"#  c #1F2020",
"$  c #252525",
"%  c #2D2D2D",
"&  c #2F302F",
"*  c #302F30",
"=  c #343334",
"-  c #373738",
";  c #373938",
":  c #3B3B3B",
">  c #403F3E",
",  c #3F403F",
"<  c #434343",
"1  c #4C4C4C",
"2  c #50504F",
"3  c #4E4F50",
"4  c #535353",
"5  c #585857",
"6  c #575858",
"7  c #5C5C5C",
"8  c #605F5F",
"9  c #60605F",
"0  c #605F61",
"q  c #636363",
"w  c #686867",
"e  c #676768",
"r  c #6B6B6B",
"t  c #6E706E",
"y  c #70706F",
"u  c #737373",
"i  c #7C7C7C",
"p  c #807F80",
"a  c #838484",
"s  c #898887",
"d  c #878888",
"f  c #8C8C8C",
"g  c #8F908F",
"h  c #91908F",
"j  c #8F8F90",
"k  c #8F9090",
"l  c #939393",
"z  c #959494",
"x  c #969797",
"c  c #999897",
"v  c #979898",
"b  c #989999",
"n  c gray61",
"m  c #A09F9F",
"M  c #A1A09F",
"N  c #A09FA1",
"B  c gray63",
"V  c #A3A4A3",
"C  c #A8A9A7",
"Z  c #ACABAB",
"A  c #ACACAC",
"S  c #AFB0AF",
"D  c #B3B3B3",
"F  c #B7B8B7",
"G  c #B6B7B8",
"H  c #B7B8B8",
"J  c #BBBBBB",
"K  c #C0C0BF",
"L  c #C0BFC0",
"P  c #C4C4C3",
"I  c #C7C8C6",
"U  c #C9C7C8",
"Y  c #CBCCCB",
"T  c #CFD0CE",
"R  c #CFD0D0",
"E  c #D2D2D2",
"W  c #D7D8D7",
"Q  c #D6D6D8",
"!  c #DCDCDC",
"~  c #DEDEDF",
"^  c #DFE0DF",
"/  c #E1E0DF",
"(  c #E4E4E4",
")  c #E8E7E8",
"_  c #E8E9E8",
"`  c #EBEAEA",
"'  c gray92",
"]  c #ECECEC",
"[  c #EDECEC",
"{  c #EDEEED",
"}  c #F0EFEF",
"|  c #EFF0EF",
" . c #EFEFF0",
".. c #F0EFF0",
"X. c #F3F3F3",
"o. c #F3F4F3",
"O. c #F3F4F5",
"+. c #F4F4F4",
"@. c #F5F5F5",
"#. c #F8F6F7",
"$. c #F7F8F7",
"%. c #F8F8F7",
"&. c #F7F7F8",
"*. c #F8F7F8",
"=. c #F7F8F8",
"-. c gray98",
";. c #FCFBFB",
":. c #FBFCFB",
">. c #FBFAFC",
",. c #FCFBFC",
"<. c #FBFDFD",
"1. c #FDFDFC",
"2. c white",
/* pixels */
"2.2.2.2.2.2.2.2.2.2.2.2.2.2.2.2.2.2.2.2.2.2.2.2.2.2.2.2.2.2.2.2.2.2.2.2.2.2.2.2.2.2.2.2.2.2.<.2.2.2.2.2.2.2.2.2.2.2.2.2.2.2.2.2.",
"2.2.2.2.2.2.2.2.2.2.2.2.2.2.<.2.2.2.2.2.2.2.2.2.2.2.2.2.2.2.2.2.2.2.2.2.2.2.2.2.2.2.2.2.2.2.2.2.2.2.2.2.2.2.2.2.2.2.2.-.2.2.2.2.",
"2.2.2.2.2.2.2.2.;.2.2.2.2.2.2.2.2.2.-.2.2.2.2.2.2.2.2.2.2.2.2.2.2.2.2.2.2.2.2.2.2.2.2.<.2.2.2.2.2.2.2.2.2.2.2.2.2.2.2.2.2.2.2.2.",
"2.2.2.2.2.2.2.2.2.2.2.2.2.2.2.2.2.2.2.2.2.2.2.2.2.2.2.2.2.2.2.2.2.2.2.2.2.2.2.2.2.2.2.2.2.2.2.2.2.2.2.2.2.2.2.2.2.2.2.2.2.2.2.2.",
"2.2.2.2.2.2.2.2.2.2.2.<.2.2.2.2.2.2.2.2.2.2.2.2.2.-.2.2.2.2.2.2.2.2.2.2.;.2.2.2.2.2.2.2.-.2.2.2.2.2.2.2.2.2.2.2.2.2.2.2.2.2.2.2.",
"2.2.2.2.2.2.2.2.2.2.2.2.2.2.2.2.2.2.2.2.2.2.2.2.2.2.2.2.2.2.2.2.2.2.2.2.2.2.2.2.2.2.2.2.2.2.2.2.2.2.2.<.2.2.2.2.2.2.2.2.2.2.2.2.",
"2.2.2.2.2.2.2.;.2.2.2.2.2.2.2.2.2.2.2.2.2.2.2.2.2.2.2.2.2.2.2.2.2.2.2.2.;.2.2.2.2.2.2.2.2.2.2.2.2.2.2.2.2.2.2.2.2.2.2.2.2.2.2.;.",
"2.2.2.2.2.2.2.2.2.2.2.2.2.2.2.2.2.2.2.2.2.2.2.2.2.2.2.2.2.-.2.2.2.2.2.2.2.2.2.2.2.2.2.2.2.2.2.2.2.2.2.2.2.2.2.2.2.2.2.2.2.2.2.2.",
"2.2.2.2.2.2.2.2.2.2.2.2.2.2.2.2.X.2.O.2.-.2.2.-.-.2.2.X.2.-.2.2.-.2.2.:.@.-.2.@.2.2.2.2.2.2.2.2.2.2.2.2.2.2.2.2.2.2.2.2.2.2.2.2.",
"2.2.2.2.2.2.2.;.2.2.2.2.2.2.<.2.2.-.-.2.@.2.2.2.2.>.` 2.@.2.2.>.-.2.2.X.2.2.2.2.2.2.2.2.2.2.2.2.2.2.2.2.2.2.2.2.2.2.2.2.2.:.2.2.",
"2.2.2.2.2.2.2.2.2.2.2.2.2.2.2.2.2.X.2.2.2.2.-.-.-.@.2.2.X.-.@.2.;.2.-.2.X.2.2.-.2.2.2.2.2.2.2.2.2.2.2.2.2.2.2.2.2.2.2.2.2.2.2.2.",
"2.2.2.2.2.2.2.2.2.2.2.2.2.2.2.2.2.$.2.o.@.-.2.2.2.2.@.@.;.2.@.2.,.-.2.2.2.;.2.2.2.2.2.2.2.2.2.2.2.2.2.2.2.2.2.2.2.2.2.2.2.2.2.2.",
"2.2.2.2.2.2.2.2.2.2.,.2.2.2.2.2. .:.2.2.2.@.@.@.-.-.  &   $     O O +   2.@.X.@.2.;.2.2.2.2.2.2.2.2.2.2.2.2.2.2.2.2.2.2.2.2.2.2.",
"-.2.2.2.2.2.2.2.2.2.2.2.2.2.2.2.@.2.`  .-.2.{ 2.2.X.- $ + *   + - @ O $ -.2.2.-.2.2.2.2.2.2.2.2.2.2.2.2.2.2.2.2.2.2.2.2.2.-.2.2.",
"2.2.2.2.2.2.2.2.2.2.2.2.2.2.2.2...2.2.,.-.! $ X   O 2 < f l i f i u q 4 X     + 2.2.2.2.2.2.2.2.2.2.2.2.2.>.2.2.2.2.2.2.2.2.2.2.",
"2.2.2.2.2.2.2.2.2.2.2.2.2.2.2.2.2.X.:.{ 2.2.X #   o 4 q p d f s f d 4 7 . $   $ 2.2.2.2.2.2.2.2.2.2.2.2.2.2.2.2.2.2.2.2.2.2.2.2.",
"2.2.2.2.2.2.2.2.2.2.2.2.2.2.2.2.X.X.@.2.$ - r q d s a f l j x l x f s h c b w 7 : : @.o.-.2.2.2.2.2.2.2.2.2.2.2.2.2.2.2.2.2.2.2.",
"2.2.2.2.2.2.2.2.2.2.2.2.2.2.2.2.2.-.2.| - : 7 r f s a f x x x x x f f l z v r q :   2.-.X.2.2.2.-.2.2.2.2.2.2.2.2.2.2.2.2.2.2.2.",
"2.2.2.2.2.2.2.2.2.2.2.2.2.2.2.;.{ @.    q r V x l k j k l l f f s f f b n Z l l u q     $.2.2.2.2.2.2.2.2.2.2.2.2.2.2.2.2.2.;.2.",
"2.2.2.2.2.2.2.2.2.2.2.2.2.2.2.2.-.2.    r r f h f s l k f l f f f f l b f x f l 1 4     2.2.-.2.2.2.2.2.2.2.2.2.2.2.2.2.2.2.2.2.",
"2.2.2.2.2.2.2.2.2.2.2.2.2.2.2.2.` -.    n x x B t u f f f l f x f j f l u i d l x x     2.-.:.-.2.2.2.2.2.2.2.2.2.2.2.<.2.2.2.2.",
"2.2.2.-.2.2.2.2.2.2.2.2.2.2.2.2.2.2.    x b f l q r s f f l i f f x j l r r d s i a     2.2.` 2.2.2.2.>.2.2.2.2.2.2.2.2.2.2.2.2.",
"2.2.2.2.2.2.2.2.2.2.2.2.2.2.2.,.    q u c l q 8 q q f f f f r r n n f f 7 4 q 7 i c r r     2.#.2.2.2.2.2.2.2.2.2.2.2.2.2.;.2.2.",
"2.2.2.2.2.2.2.2.2.2.2.2.2.2.2.2.    7 4 l f q 1 q 7 d s j l r q v x s f 7 4 9 4 d p u u     :.-.2.2.2.2.2.2.2.2.2.2.2.2.2.2.2.2.",
"2.2.2.2.2.2.2.2.+.2.o.2.-.2.2.2.    7 q 4 7 Z Z ! Y 7 7 s x q q n v 7 7 ( Q H A 7 r q u     *.{ 2.2.2.2.2.2.2.2.2.2.2.2.2.2.2.2.",
"2.2.2.2.2.2.2.2.2.-.=.2.-.2.2.2.    7 w 4 4 G Z ` ( 7 4 p l q i x x 9 4 ( ! G H 4 r u i     X.2.2.<.2.2.2.2.2.2.2.2.2.2.2.2.2.2.",
"2.2.2.2.2.2.2.2.2.X.2.2.2.2.>.-.    7 4 7 q E ) ( ( D J q q r q u q D J ( / } Q 9 q u r     =.X.2.2.2.2.2.2.2.2.2.2.2.2.2.2.2.2.",
"2.2.2.2.2.2.2.2.2.@.2.X.-.@.-.2.    6 7 7 q X.` ` X.J J 4 7 r u 7 7 P J { { | ` q q 7 r     -.@.2.2.2.2.2.2.2.2.2.2.2.2.2.2.2.2.",
"2.-.2.2.2.2.2.2.{ 2.2.2.2.X.X.X.+ % 7 r F F ) ( ( X.! ( r q q q r e ^ ^ ` ` ` ( C P 7 4 = + X.2.2.2.2.2.2.2.2.2.2.2.2.2.2.2.2.-.",
"2.2.2.2.2.2.2.2.X.2.{ o.*.2.[ 2.$ > 6 r F J #.+.@.( X.` q q q 7 5 4 ( *.( ` ,.{ Y J 4 < % < X.2.2.2.2.2.2.2.2.2.2.2.2.<.2.2.2.2.",
"2.2.2.2.2.2.2.2.X.:.;.-.@.W $ O P D < = U R D G ( @.X.X.X.( q r ( ( @.^ =.{ J U D K $ O U A $ X 2.2.2.2.2.2.2.2.2.2.2.2.2.2.2.2.",
"2.2.2.2.2.2.2.2.-.@.;.{ -.2.O $ P J : = P E J E { (  .{ { { r q ( ( @.X.{ [ U U P Z = X D E + = 2.2.2.2.2.2.2.2.2.2.2.2.2.2.2.2.",
"2.2.2.2.2.2.2.2.-.` -.<.` 2.    P D $ ; 7 r L K 4 q 4 7 H D ( { A D 7 5 q 4 H H 5 4 X # D J     2.2.2.2.2.2.2.2.;.2.2.2.2.2.2.2.",
"2.2.2.2.2.2.;.2.-.` @.@.2.o.    U A = $ q 7 E Y 7 7 6 q S P ( ( L D 9 4 7 4 J D 1 4 . $ Y D .   2.2.2.2.2.2.2.2.2.2.2.2.2.2.2.2.",
"2.2.2.2.2.2.2.2...2.+.{ 2.2.` 2.    + % 4 r L D U ( $ O 4 4 ! ` 0 1 = - J Y D F q q   %     2.2.2.2.2.2.2.2.2.2.2.2.2.2.2.2.2.2.",
"2.2.2.2.2.2.2.2.{ 2.-.2.2.X.2.2.    % $ 9 u J P E ! % + q r ( ( r 7 - - U ! D J r q % ;     2.@.2.2.2.2.2.2.2.2.2.2.2.2.2.;.2.2.",
"2.;.2.2.2.2.2.2.#.-.` =.2.-.2.X.2.{     Z Z U Z 2.+.    E ( { ! ! `     { ( Y ! Y T     2.2.2.-.2.2.2.2.2.2.2.2.2.2.2.2.2.2.2.2.",
"2.2.2.2.2.2.2.2.{ @.2.2.@.@.@. .` 2.    D Z U J X.2.    ( ] @.-.( @.  . 2.;.P E Q J     @.%.>.2.2.2.2.<.2.2.2.2.2.2.2.2.2.2.2.2.",
"2.2.2.2.2.2.2.2.2.2.*.@.=.-.2.2.-.{     6 7 D P -.) o.{ { @.^ ( ` { { { { ) U T u 7 2.2.2.2.2.-.2.2.2.2.2.2.2.2.2.-.2.2.2.2.2.2.",
"2.2.2.2.2.2.2.2.2.>.2.%.2.` 2.@.{ 2.    7 : U U X.@...X.O.-.( @.{ X.{ -.X.| P J q 4 -.2.<.2.2.*.2.2.2.2.2.2.2.2.2.2.2.2.2.2.2.2.",
"2.2.2.2.2.2.2.2.,.2.2.2.2.2.{ { X.2.: 1     1 4 Y E { ( ` ` D P ( { ( ` J D 1 1     2.-.2.X.@.2.2.2.2.2.2.2.2.2.2.2.2.2.2.2.2.2.",
"<.2.2.2.2.2.2.2.2.2.2.-.2.X.2.X.@.` - 4     4 q E J ( ` ( { U J ( ! ! &.L L 9 2     2.@.2.2.O.2.2.2.2.2.2.,.2.2.2.2.2.2.2.2.2.2.",
"2.2.2.2.2.2.2.2.2.-.-.2.,.@.*.`     q 4 D c V B     : = U P Y Y B D - :     q g 7 1 2.-.,.{ 2.,.2.2.2.2.2.2.2.2.2.2.2.2.2.2.2.2.",
"2.2.2.2.2.2.2.2.{ #.-.2.@.2.( 2.    q 7 l l b b     < = U F E Y H H < ,     b M i 7 @.@.-.-.2.2.2.2.2.2.2.2.2.2.2.2.2.2.2.2.2.2.",
"2.2.2.2.2.2.2.;.,.2.X.@.@.o.    ( | 2 1 7 4 % < P D D B < - < : $ - n Z A D K P b C     2.2.X.-.2.2.2.2.2.2.2.2.2.2.2.2.2.2.;.2.",
"2.;.2.2.2.2.2.2.X.-.@.@.@.-.    E { 5 3 8 < $ < P J J Z - - = < < 4 J D H S H P Z l     -.2.X.2.2.2.2.2.2.2.2.2.2.2.2.2.2.2.2.2.",
"2.2.2.2.2.2.2.2.@.-.{ X. .2.     .( ( Q     $ - l N E J J x q 7 H D B b n x H Z q u   . -.X.-.` 2.2.2.2.2.<.2.2.2.2.2.2.2.2.2.2.",
"2.2.2.2.2.2.2.2.2.@.@.@.{ 2.    ^ ` ( /     = < b x E U A B q 7 D L D Z b b x b q 3     2.,.2.-.2.2.2.2.2.2.2.2.2.2.2.2.2.2.2.2.",
"2.2.2.2.2.2.2.2.2.2.2.2.2.2.2.<.        2.2.    l b P J Y D u q i n l M 2 - r w 1 7 W !     -.-.2.<.2.2.2.2.2.2.2.2.2.2.2.2.2.2.",
"2.2.2.2.2.2.2.2.2.2.2.2.2.2.2.2.        { 2..   d n Z D T D e y k f l u 1 = 7 r 2 < ( !     ;.2.2.2.2.2.2.2.2.2.2.2.2.2.2.2.2.2.",
"2.2.2.2.2.2.2.2.;.2.2.2.2.2.2.2.2.@.F P .   r < ! ( n x J D 7 q a a ` ( 7 r     ` { ( (     @.-.2.2.2.2.2.2.2.2.2.2.2.2.2.2.2.2.",
"2.2.2.2.2.2.2.2.2.2.2.2.2.2.2.2.2.@.U W     4 7 U Y d d S C q q a i ( Y a r     ! ! ( ( .   2.2.2.2.2.2.2.2.2.2.2.;.2.2.2.2.2.2.",
"2.2.2.2.2.2.;.2.2.2.2.2.2.2.2.2.( -.J W     x d f b i a b f i s j s l s   . P E         -.2.-.X.2.2.2.2.2.2.2.2.2.2.2.-.2.2.2.2.",
"2.2.2.2.2.2.2.2.2.2.2.2.2.2.2.2.$.2.P P     f m i d d s h f x B i l x B     Y J         @.@.` 2.2.2.2.2.2.2.2.;.2.2.2.2.2.2.2.2.",
"2.2.2.2.2.2.2.2.2.2.2.2.2.2.2.2.X.( W E     r r a p i i 4 = .           Q Y 2.&.2.2.X.2.-.{ 2.! 2.2.2.2.2.2.2.2.2.2.2.2.2.2.2.2.",
"2.2.2.2.2.2.2.2.2.2.2.2.2.2.2.2.2.2.U U     u r a f a i < :             U U } $.2.,.2.{ 2.2.-.;.2.2.2.2.2.2.2.2.2.2.2.2.2.2.2.2.",
"2.2.2.2.2.2.2.2.2.2.2.2.2.2.2.2.` { ..O.P E         O . = = H J U U P P 2.2.,.;.2.2.<.2.2.2.2.2.2.2.2.2.2.2.-.2.2.2.2.2.2.2.2.2.",
"2.2.2.2.2.2.2.2.-.2.2.2.2.2.2.2.` { O.-.I Q     . O + . < $ E P I U P U @.,.>.2.2.2.2.2.2.2.2.2.2.2.2.2.2.2.2.2.2.2.2.2.2.2.2.2.",
"2.2.2.2.2.-.2.2.2.2.2.2.2.2.2.2.o.@.} *.J U     + % $ =     I D @.-.@.{ 2.-.@.2.2.2.2.2.2.2.2.2.2.2.2.2.2.2.2.2.2.2.2.2.2.2.:.2.",
"2.2.2.2.2.2.2.2.2.2.2.2.2.2.2.2.@.2.@.2.U D     $ : < :     J Y $.2.2.-.2.-.@.2.2.2.2.2.2.2.2.2.2.2.2.2.2.2.2.2.2.2.2.2.2.2.2.2.",
"2.-.2.2.2.2.2.2.2.2.2.2.2.2.2.2.2.@.-.X.-.2.U !         E P 2.) { O.o.@.-.-.-.2.2.2.2.2.2.2.2.2.2.2.2.2.2.2.2.2.2.2.2.2.2.2.2.2.",
"2.2.2.2.2.2.2.2.2.2.2.2.2.2.2.2.,.2.2.X.2.` U H         P R O.2.2.2.;.2.-.2.-.-.2.2.2.2.2.2.2.2.2.2.2.2.2.2.2.2.2.2.2.2.2.2.2.2.",
"2.2.2.2.2.2.2.2.2.2.2.<.2.2.2.2.<.2.2.@.2.2.2.2.U P Y E 2.;.,.{ -.*.@.2.@.2.2.2.2.2.2.2.2.2.<.2.2.2.2.2.2.2.2.2.2.2.2.2.2.2.2.2.",
"2.2.2.2.2.2.2.2.2.2.2.2.2.2.2.2.2.2.2.2.2.X.o.$.E P U P 2.-.2.-.2.2.%.2.X.:.-.2.2.2.2.2.2.2.2.2.2.2.2.2.2.2.2.2.2.2.2.2.:.2.2.2."
};
