/* XPM */
static char *xpm_[] = {
/* columns rows colors chars-per-pixel */
"64 64 113 2 ",
"   c #010101",
".  c #080708",
"X  c #0C0C0C",
"o  c #10100E",
"O  c #0F0F10",
"+  c #131313",
"@  c #181718",
"#  c #1D1D1D",
"$  c #1E1F20",
"%  c #252525",
"&  c #272827",
"*  c #282827",
"=  c #262728",
"-  c #2A2B2B",
";  c #302F30",
":  c #353535",
">  c #373738",
",  c #373938",
"<  c #3C3B3C",
"1  c #403F3F",
"2  c #3F403F",
"3  c #3F3F40",
"4  c #403F40",
"5  c #434343",
"6  c #4C4C4C",
"7  c #545454",
"8  c #585657",
"9  c #575857",
"0  c #5B5B5B",
"q  c #605F5F",
"w  c #605F61",
"e  c #636363",
"r  c #676867",
"t  c #686867",
"y  c #686768",
"u  c #676868",
"i  c #6B6B6B",
"p  c #727272",
"a  c #777878",
"s  c #7C7C7B",
"d  c #7F807F",
"f  c #807F80",
"g  c #848484",
"h  c #888786",
"j  c #878888",
"k  c #8C8C8C",
"l  c #8F908E",
"z  c #90908F",
"x  c #8E8E90",
"c  c #8F9090",
"v  c #939393",
"b  c #989796",
"n  c #979897",
"m  c #999798",
"M  c #999A9A",
"N  c #9B9B9B",
"B  c #9D9D9E",
"V  c #A0A09F",
"C  c #A1A1A1",
"Z  c #A4A4A5",
"A  c #AAA9A9",
"S  c #ACACAC",
"D  c #B0B0AF",
"F  c #AFB0B0",
"G  c #B4B4B4",
"H  c #B8B7B8",
"J  c #BCBCBC",
"K  c #C1C0BF",
"L  c #C0BFC0",
"P  c #BFC0C0",
"I  c #C4C4C4",
"U  c #C8C7C9",
"Y  c #CCCCCB",
"T  c #D0D0CF",
"R  c #D0CFD1",
"E  c #D3D3D3",
"W  c #DCDCDC",
"Q  c #DEDEDF",
"!  c #DFE0DF",
"~  c #DFDFE0",
"^  c #E0DFE0",
"/  c #E4E4E4",
"(  c #E6E7E6",
")  c #E8E8E7",
"_  c #E8E7E8",
"`  c #E7E8E8",
"'  c #E9E9E9",
"]  c #ECECEC",
"[  c #EDECEC",
"{  c #EFEFEF",
"}  c #F0F0EF",
"|  c #EFEFF0",
" . c #F0EFF0",
".. c #F0F1F1",
"X. c #F1F2F2",
"o. c gray95",
"O. c #F3F3F3",
"+. c #F3F4F3",
"@. c #F4F4F4",
"#. c #F6F6F6",
"$. c gray97",
"%. c #F7F8F7",
"&. c #F7F7F8",
"*. c #F9F7F8",
"=. c #F7F9F8",
"-. c #FBFBFA",
";. c #FCFBFB",
":. c #FBFCFB",
">. c #FCFCFB",
",. c #FBFBFC",
"<. c #FCFBFC",
"1. c #FBFCFD",
"2. c white",
/* pixels */
"2.2.2.2.2.2.2.2.2.2.2.2.2.2.2.2.2.2.2.2.2.2.2.2.2.2.2.2.2.2.2.2.2.2.2.2.2.2.2.2.2.2.2.2.2.2.2.2.2.2.2.2.2.2.2.2.2.2.2.2.2.2.2.2.",
"2.2.2.2.2.2.>.2.2.2.2.2.2.2.1.2.2.2.2.2.2.2.2.2.2.2.2.2.2.2.2.2.2.2.2.2.2.2.2.2.2.2.2.2.2.2.1.2.2.2.2.2.2.2.2.2.2.2.2.2.2.<.2.2.",
"2.2.2.2.2.2.2.2.2.2.2.2.2.2.2.2.2.2.2.2.2.2.2.2.2.2.2.2.2.2.2.2.2.2.2.2.2.2.2.2.2.2.2.2.2.2.2.2.2.2.2.2.2.2.2.2.2.2.2.2.2.2.2.2.",
"2.2.2.2.2.2.2.2.2.2.2.2.2.2.2.2.2.2.2.2.:.2.2.2.2.2.2.2.2.2.2.2.2.2.2.>.2.2.2.2.2.2.2.2.2.2.2.2.2.2.2.2.>.2.2.2.2.2.2.2.2.2.2.2.",
"2.2.2.2.>.2.2.2.2.2.2.1.2.2.2.2.2.2.2.2.2.2.2.2.2.,.2.2.2.2.2.2.2.>.2.2.>.2.2.2.2.2.2.1.2.2.2.:.2.2.2.2.2.2.2.2.2.2.2.2.2.2.2.2.",
"2.2.2.2.2.2.2.2.2.2.2.2.2.2.2.2.2.2.2.2.2.2.2.2.2.2.2.2.2.2.2.2.2.2.2.2.2.2.2.2.2.2.2.2.2.2.2.2.2.2.2.2.2.2.2.2.2.2.2.2.2.2.2.2.",
"2.2.2.2.2.2.2.2.2.2.2.2.2.2.2.2.2.2.2.2.2.2.2.2.2.2.2.2.2.2.2.2.2.2.2.2.2.2.2.2.2.2.2.2.2.2.2.2.1.2.2.2.2.2.2.2.2.2.2.2.2.>.2.2.",
"2.2.2.2.2.2.2.2.2.2.2.2.2.2.2.2.2.2.2.2.2.2.2.2.2.2.2.2.2.<.2.2.2.2.2.2.2.2.2.2.2.2.2.2.2.2.2.2.2.2.2.2.2.2.2.2.2.2.2.2.2.2.2.2.",
"2.2.2.2.2.2.2.2.2.2.2.2.2.2.2.2.O.2.#.2.#.2.,.-.,.-.2.O.2.-.2.2.-.2.2.2.O.2.2.#.2.2.2.2.2.2.2.2.2.2.2.2.2.2.2.2.2.2.>.2.2.2.2.2.",
"2.2.2.2.2.2.2.2.2.2.2.2.2.2.1.2.2.-.-.2.-.2.2.2.2.2.' 2.#.2.2.-.2.,.2.} 2.2.2.2.2.2.2.2.2.2.2.2.2.2.2.2.2.<.2.2.2.2.2.2.2.2.2.2.",
"2.2.2.2.2.2.2.2.2.2.2.2.2.2.2.2.2.O.2.2.-.-.-.-.-.#.2.2.O.-.#.2.2.2.-.2.O.2.;.%.2.2.2.2.2.2.2.2.2.2.2.2.2.2.2.2.2.2.2.2.2.2.2.2.",
"2.2.2.2.2.2.2.2.2.2.2.2.2.2.2.2.2.#.2.O.&.-.2.2.2.2.#.O.-.2.#.2.-.2.,.2.-.2.2.2.2.2.2.2.2.2.2.2.2.2.2.2.2.2.2.2.2.2.2.2.2.2.2.2.",
"2.2.2.2.2.2.>.2.2.>.2.2.2.2.2.2.[ 1.2.2.2.#.#.#.-.-.. -   *     + + #   2.O.O.#.2.2.2.2.2.2.2.2.2.2.2.2.2.2.2.2.2.2.2.2.2.2.<.2.",
"<.2.2.2.2.2.2.2.2.2.2.2.2.2.2.2.#.2.' O.-.2.[ -.2.} < % @ ;   # > $ O % -.2.2.#.2.2.2.2.2.2.2.2.2.2.2.2.2.2.2.2.2.2.2.2.2.2.2.2.",
"2.2.2.2.2.2.2.2.2.2.2.2.2.2.2.2.[ 2.2.2.-.Q = X   + 6 5 z z f k a a 9 8 .     # 2.2.2.2.2.2.2.2.2.2.2.2.2.1.2.2.2.2.2.2.2.2.2.2.",
"2.2.2.2.2.2.2.2.2.2.2.2.2.2.2.2.2.O.-.] 2.:.o $   X 8 e f g k j l g 0 0 O %   = 2.2.-.2.2.2.2.2.2.2.2.2.2.2.2.2.2.2.2.2.2.2.2.2.",
"2.2.2.2.2.2.2.2.2.2.2.2.2.2.2.2.@.#.#.2.# > e e h j g k v v M v k j k v v M e q ; > #.O.#.-.2.2.2.1.2.2.2.2.2.2.2.2.2.2.2.2.2.2.",
"2.2.2.2.2.2.2.2.2.2.2.2.2.2.2.2.2.-.2.[ , < 0 t j j g j b v M v v v l v v n y e <   2.-.#.2.2.2.2.2.2.2.2.2.2.2.2.2.2.2.2.2.2.2.",
"2.2.2.2.2.2.2.2.2.2.>.2.2.2.2.2.[ #.    r e Z v v v k l v v v k j z v B B A v v y e     #.2.2.-.2.2.2.2.2.>.2.2.2.2.2.2.>.2.2.2.",
"2.2.2.2.2.2.>.2.2.2.2.2.2.2.2.2.=.2.    i i k k k j v v x v k k k v z M h v z M 6 7     2.2.-.2.2.2.2.2.2.2.2.2.2.2.2.2.2.2.2.2.",
"2.2.>.2.2.2.2.2.2.2.2.2.2.2.2.<.' &.    B n v C p p k k k v k v j v z v p a g v z v     2.-.-.-.2.2.2.2.2.2.2.2.2.2.2.2.2.2.2.2.",
"2.2.2.2.2.2.2.2.2.2.2.2.2.2.2.2.2.2.    v M k v e y k k k c d g k v v v i i g k s g     2.2.( -.2.2.2.2.2.2.2.2.2.2.2.2.2.2.2.2.",
"2.2.2.2.2.2.2.2.2.2.2.2.2.2.2.2.    r p b v q e e e k k k k i i B M k v 0 8 e 0 d M t i     2.#.2.2.2.2.2.2.2.2.2.2.2.2.2.2.2.2.",
"2.2.2.2.2.2.2.2.2.2.2.2.2.2.2.2.    0 6 v j e 7 e q j k k v e e v v h k 0 8 e 6 k g i i     -.#.2.2.2.2.1.2.2.2.2.2.2.2.2.2.2.2.",
"2.2.2.2.2.2.2.<.#.2.+.2.-.2.2.2.    9 e 7 8 A S Q E q 9 k v e i C n 0 0 ( Q J A u i u d     -.' 2.2.2.2.2.2.2.2.2.2.2.2.2.2.2.2.",
"2.2.2.2.2.2.2.2.2.-.=.2.-.2.2.2..   e y 7 8 J F ( / 9 7 d x e s M v 0 7 _ ^ G G 0 i a a     #.2.2.2.2.2.2.2.2.2.2.2.2.2.2.2.2.2.",
"2.2.2.2.2.2.2.2.2.O.2.2.2.>.,.-.    8 7 0 e E / / / G J e e i w p e G J ( /  .E e 0 i p     2.[ 2.2.2.2.2.2.2.2.2.2.2.2.2.2.>.2.",
"2.2.2.2.2.2.2.2.2.#.2.+.-.#.-.2..   0 w 0 e [ ( ( O.J J 7 0 t p 0 9 I L [ [ O.[ e e 0 u     2.O.2.2.1.2.2.2.2.2.2.2.>.2.2.2.2.2.",
"2.2.2.2.2.2.2.2.[ 2.2.2.2.O.O.O.% : 0 p J H [ / / #.Q Q y e q t i e Q Q [ [ [ ( A J e 7 : X [ -.2.2.2.2.2.2.2.2.2.2.2.2.2.2.2.2.",
"2.2.2.2.2.2.2.2.O.2.] O.-.2.] 2.% < 9 i H J #.&.O.'  ._ e e 0 0 0 8 Q #./ ' <.' I G 7 6 % < O.2.2.2.2.2.2.2.2.2.2.2.2.2.2.2.2.2.",
"2.<.2.2.2.2.2.2.O.1.:.-.#.W % @ I G 5 > U E G G ( #.] o.O./ e e ( ( ] Q -.O.J I A J - % I A & # 2.2.2.2.2.2.2.2.2.2.2.2.2.2.2.2.",
"2.2.2.2.2.2.2.2.-.#.-.[ -.-.X % I J < - J Y J Y ] / ] ] ] ] i e ) ( ] ' O.[ Y I J A < - S Y % 5 2.2.2.2.2.2.2.2.2.2.2.2.1.2.2.2.",
"2.2.2.2.2.2.2.2.-.' 2.#.( 2.    J I o X 8 q B A 9 e 9 q I J ) ( G J e 8 p 0 S S 5 9 . - T Y     2.2.2.2.2.2.2.2.2.2.2.2.2.2.2.2.",
"2.2.2.2.2.2.2.2.-.' #.#.2.O.    J S - X 9 6 S S 8 7 0 i J Y ( / J H e 7 e 0 J G 6 7 5 - I I     2.2.2.2.2.>.2.2.2.2.2.2.2.2.2.2.",
"2.2.2.2.2.2.2.2.O.2.#.] 2.2.] 2.        8 e G G Y ' - % 9 6 Y Q q 6 : < J E I J i 6 + <     2.2.2.2.2.2.2.2.2.2.2.2.2.2.2.2.2.2.",
"2.2.2.2.2.2.2.2.O.2.#.-.2.O.2.2.    < < 0 i J Y Y E % - e e Q Q t 7 < < I ~ I J 9 e - -     ' ] 2.2.2.2.2.2.2.2.2.2.2.2.2.;.2.2.",
"2.>.2.2.2.>.2.2.#.-.' -.2.:.2.O.%.2.    Y I Y I @./     E / ' / ( /     O.] W E Y G     O.2.-.2.2.2.2.2.2.2.2.2.2.2.>.2.2.2.2.2.",
"2.2.2.2.2.2.2.2.] #.2.2.O.#.#.O.-.2.    U E U E #.-.    ' ] o.*.] O.    2.2.I Y U J     -.O.-.O.2.2.1.2.2.2.2.2.2.2.2.2.2.2.2.2.",
"2.2.2.2.2.2.2.2.2.,.#.#.+.-.2.2.O.O.-.2.6 9 U U O.Q ( ( ] ;.] ] ] ] / Q ` ' T T 0 0     2.2.,.2.2.2.2.2.2.2.2.2.2.2.2.2.2.2.2.2.",
"2.2.2.2.2.2.2.2.-.-.2.#.2.] 2.O.2.@.-.2.5 e Y E O.;.] O.] -._ -.o.-.` ' #.$.Y Y e 6     -.2.-.#.2.2.2.2.2.2.2.2.2.2.2.2.2.2.2.2.",
"2.2.2.2.2.2.2.2.2.2.2.2.2.2.2.2.] -.( #.    e e I Y ( ( _ _ D J ' ' _ ^ G E 5 e     6 < 2.O.[ O.2.2.2.2.2.2.2.2.2.2.2.2.2.2.2.2.",
"2.2.2.2.2.2.2.>.2.2.2.2.2.2.2.2.[ O.2.2.    0 i J J ( ^ Q ( Y Y ' / / O.I Y e 7     5 6 2.-.2.O.2.2.2.2.2.2.2.;.2.2.2.2.2.2.2.2.",
"2.2.2.2.2.2.2.2.2.2.2.2.2.2.2.2.2._ ' #.5 9 v a     4 > Y R Y I I S % <     Z V S v i 7     -.( 2.2.2.2.2.2.2.2.2.2.2.2.2.2.2.2.",
"2.2.2.2.2.2.2.2.2.2.2.2.2.2.2.2.+.2.<.2.9 5 Z v     < : I U Y I G G : 2     G G Z C 6 0     -.2.2.2.2.2.2.2.2.2.2.2.2.2.2.>.2.2.",
"2.2.2.2.2.2.2.2.2.>.2.2.2.2.2.2.2.%.    h M H J E J U A 5 < > : < 5 M S Z Z 9 5 e e 0 8 E Q     2.2.2.2.2.2.2.2.2.2.2.2.2.2.2.2.",
"2.2.2.2.2.2.2.2.2.2.2.2.2.2.2.2.#.2.    h v Y Y Y I J S 6 1 $ # - < Z G J I < < 7 i 5 7 / /     2.2.2.2.2.2.2.2.2.2.1.2.2.2.2.2.",
"2.2.2.2.2.2.>.2.2.2.2.2.2.2.2.2.#.1.    r y A H M Z M v G m 0 7 A F I J M k 5 <     ( W Q (     2.2.2.2.2.2.2.2.2.2.2.2.2.2.2.2.",
"2.2.2.2.2.2.2.2.2.2.2.2.2.2.2.2.2.1.    7 e B C f c b N G M e 0 C A I E F M <     . Q ( _ ]     2.2.2.2.2.2.2.2.2.2.2.2.2.2.2.2.",
"2.2.2.2.2.2.2.2.2.2.2.2.1.2.2.2.    / E 6 6 7 3 3 5 S Z C Z e p Z I M Z M z     [ #.        2.,.2.2.2.2.2.2.2.2.2.2.2.2.2.2.2.2.",
"2.2.2.2.2.2.2.2.2.2.2.2.2.2.2.2.    E Q 6 < 0 6 X 5 l M J c a p S S n B v g .   O.[ .       2.O.1.2.2.2.2.2.2.2.2.2.2.2.2.2.2.2.",
"2.2.2.2.2.2.2.2.2.2.2.2.2.2.2.2.    / Q ..'     i e #.#.d v 0 9 Z S h h ( ' e i     J I 2.2.-.2.2.2.2.2.2.>.2.2.2.2.2.2.2.2.>.2.",
">.2.2.2.2.2.>.2.2.2.2.2.2.2.2.2.    [ ( / -.    7 p Q [ x k 7 9 M G s a Q E e e     I I #.#.2.-.2.2.2.2.2.2.2.2.2.2.2.2.2.2.2.2.",
"2.2.2.2.2.2.2.2.2.2.2.2.2.2.2.2.2.2.        Q E   . M v B h k j v k g j v k v h     I E O.-.$.#.2.2.2.2.2.2.2.2.2.2.2.1.2.2.2.2.",
"2.2.2.2.2.2.2.2.2.2.>.2.2.2.2.2.O.2.        G U     g g k v h h v v v v k g v v     I E -.2.2.,.2.2.2.<.2.2.2.2.2.2.2.2.2.2.2.2.",
"2.2.2.2.2.2.2.2.2.2.2.2.2.2.1.2.2.} :.2.>.>.2.] I I             < 8 s h M v 0 e     I J } -.&.<.2.2.2.2.2.2.2.2.2.2.2.2.2.2.2.2.",
"2.2.2.2.2.2.2.2.2.2.2.2.2.2.2.2.Q 2.O.-.2.#.O.-.Y I     .       6 < j v g M 0 e     U J #.#.#.2.2.2.2.2.2.2.2.2.2.2.2.2.2.2.2.2.",
"2.2.2.<.2.2.2.2.2.2.2.2.2.2.2.2.2.2.2.2.2.2.2.2.O.2.I U I Y J Y : %     + %     I J 2.O.-.-.2.#.2.2.2.2.2.2.<.2.2.2.2.>.2.2.2.2.",
"2.2.2.2.2.2.2.2.2.2.2.2.2.2.2.2.2.2.2.:.2.2.2.2.-.-.I I I E J Y , -             I I 2.=.2.=.2.;.2.2.2.2.2.2.2.2.2.2.2.2.2.2.2.2.",
"2.2.2.2.2.2.2.2.2.2.2.2.2.2.2.2.2.2.2.2.2.2.2.2.-.2.O.2.2.2.I I     % . # 5     I L 2.%.2.#.2.2.2.2.2.2.2.2.2.2.2.2.2.2.2.2.2.2.",
"2.2.2.2.2.2.2.2.2.2.2.2.2.2.2.2.2.2.2.2.2.2.2.2.O.#.O.-.-.-.Y U     . + % #     R T -.-.2.-.2.2.2.2.2.2.2.2.2.2.2.2.2.2.2.2.2.2.",
"2.2.2.2.2.2.1.2.2.2.2.2.2.2.2.2.2.2.2.2.2.2.2.2.2.2.2.-.$.2.O.2.E I         I U O.] 2.,.2.:.:.-.2.2.2.2.2.2.2.2.2.2.2.2.2.2.2.2.",
"2.2.2.2.2.2.2.2.2.2.2.2.2.2.2.2.2.2.2.2.2.2.2.2.O.@.2.-.-.2.%.2.J I         Y Y 2.-.2.-.2.2.2.-.2.2.2.2.2.2.2.2.2.2.2.2.2.2.2.2.",
"2.2.2.2.2.2.2.2.2.2.2.2.2.2.2.2.2.2.2.2.2.2.2.2.2.2.-.:.#.O.-.-.-.2.T E Q J >.#.-.-.O.-.2.2.2.1.1.2.2.2.2.2.2.2.2.2.2.2.2.2.2.2.",
"2.2.2.2.2.2.2.2.2.2.<.2.2.2.2.2.2.2.2.2.2.2.2.2.-.2.-.2.2.O.2.O.#.#.E T E I 2.#.#.2.$.2.2.2.>.2.2.2.2.2.2.2.2.2.2.2.2.2.2.2.2.1."
};
