/* XPM */
static char *xpm_[] = {
/* columns rows colors chars-per-pixel */
"64 64 109 2 ",
"   c #010101",
".  c #0A0A0A",
"X  c #100F0F",
"o  c #100F10",
"O  c #131313",
"+  c #1A1B1B",
"@  c #1F201F",
"#  c #201F21",
"$  c #232323",
"%  c #282827",
"&  c #262728",
"*  c #2C2C2C",
"=  c #302F2F",
"-  c #343434",
";  c #373738",
":  c #383738",
">  c #3B3B3B",
",  c #403F40",
"<  c #454545",
"1  c #484748",
"2  c #4C4C4C",
"3  c #4F4F50",
"4  c #504F50",
"5  c #545454",
"6  c #575858",
"7  c #5C5C5C",
"8  c #605F5F",
"9  c #5F605E",
"0  c #60605F",
"q  c #605F60",
"w  c #646464",
"e  c #676867",
"r  c #686967",
"t  c #676768",
"y  c #686768",
"u  c #6B6B6B",
"i  c #706F6F",
"p  c #6F706F",
"a  c #6F6F70",
"s  c #706F70",
"d  c #737373",
"f  c #777978",
"g  c #7C7B7B",
"h  c #807E80",
"j  c #848484",
"k  c #888887",
"l  c #888788",
"z  c #878888",
"x  c #8C8C8C",
"c  c #91908F",
"v  c #8F8F90",
"b  c #908F90",
"n  c #929292",
"m  c #949494",
"M  c #959596",
"N  c #959696",
"B  c #999897",
"V  c #979798",
"C  c #989798",
"Z  c gray60",
"A  c #9B9B9B",
"S  c #9D9D9D",
"D  c #9FA09F",
"F  c #A4A4A4",
"G  c #A7A8A7",
"H  c #ADADAD",
"J  c #B0AFAF",
"K  c #AFAFB0",
"L  c #B3B3B3",
"P  c #B7B8B7",
"I  c #BCBCBC",
"U  c #C0BFBF",
"Y  c #C0BFC1",
"T  c #C3C4C4",
"R  c #CACACA",
"E  c #D2D3D2",
"W  c #D8D8D7",
"Q  c #D8D7D8",
"!  c #D9D9DA",
"~  c #DBDBDB",
"^  c #E0DFE0",
"/  c #E3E3E3",
"(  c #E8E8E7",
")  c #ECEBEB",
"_  c #ECECEC",
"`  c #EEEDEC",
"'  c #F0EFEF",
"]  c #EFEFF0",
"[  c #EFF1F0",
"{  c #F0F1F1",
"}  c #F2F2F2",
"|  c #F4F4F3",
" . c #F3F3F4",
".. c #F3F5F4",
"X. c gray97",
"o. c #F8F7F7",
"O. c #F7F8F7",
"+. c #F8F8F7",
"@. c #F7F7F8",
"#. c #F7F8F8",
"$. c #F8F8F8",
"%. c #F9F9F9",
"&. c #FBFBFB",
"*. c #FBFCFB",
"=. c #FBFAFC",
"-. c #FBFDFD",
";. c gray99",
":. c #FDFDFC",
">. c white",
/* pixels */
">.>.>.>.>.>.>.>.>.>.>.>.>.>.>.>.>.>.>.>.>.>.>.>.>.>.>.>.>.>.>.>.>.>.>.>.>.>.>.>.>.>.;.>.>.>.>.>.>.-.>.>.>.>.>.>.>.>.>.>.>.>.>.>.",
">.>.>.>.>.>.>.>.>.>.>.>.>.>.-.>.>.>.>.>.>.>.>.>.>.>.>.>.>.>.>.>.>.>.>.>.>.>.>.>.>.>.>.>.>.>.>.>.>.>.>.>.>.>.>.>.>.>.>.&.>.>.>.>.",
">.>.>.>.>.>.>.>.*.>.>.>.>.>.>.>.>.>.>.>.>.>.>.>.>.>.>.>.>.>.>.>.>.>.>.>.>.>.>.>.>.>.>.>.>.>.>.>.>.>.>.>.>.>.>.>.>.>.>.>.>.>.>.>.",
">.>.>.>.>.>.>.>.>.>.>.>.>.>.>.>.>.>.>.>.*.>.>.>.>.>.>.>.>.>.>.>.>.>.>.>.>.>.>.>.>.>.>.>.>.>.>.>.>.>.>.>.>.>.>.>.>.>.>.>.>.>.>.>.",
">.>.>.>.>.>.>.>.>.>.>.-.>.>.>.>.>.>.>.>.>.>.>.>.>.>.>.>.>.>.>.>.>.>.>.>.&.>.>.>.>.>.>.>.>.>.>.>.>.>.>.>.>.>.>.>.>.*.>.>.>.>.>.>.",
">.>.>.>.>.>.>.>.>.>.>.>.>.>.>.>.>.>.>.>.>.>.>.>.>.>.>.>.>.>.>.>.>.>.>.>.>.>.>.>.>.>.>.>.>.>.>.>.>.>.-.>.>.>.>.>.>.>.>.>.>.>.>.>.",
">.>.>.>.>.>.>.*.>.>.>.>.>.>.>.>.>.>.>.>.>.>.>.>.>.&.>.>.>.>.>.>.>.>.>.>.*.>.>.>.>.>.>.>.>.>.>.>.>.>.>.>.>.>.>.>.>.>.>.>.>.>.>.>.",
">.>.>.>.>.>.>.>.>.>.>.>.>.>.>.>.>.>.>.>.>.>.>.>.>.>.>.>.>.&.>.>.*.>.>.>.>.>.>.>.>.-.>.>.>.>.>.>.>.>.>.>.>.>.>.>.>.>.>.>.>.*.>.>.",
">.>.>.>.>.>.>.>.>.>.>.>.>.>.>.>.} >. .>.X.>.>.&.&.>.*.} >.+.>.>.&.>.>.&.&.>.>.&.>.>.>.>.>.>.>.>.>.>.>.>.>.>.>.>.>.>.>.>.>.>.>.>.",
">.>.>.>.>.>.>.*.>.>.>.>.>.>.-.>.>.*.X.>.&.>.>.>.>.>.) >.X.>.>.>.>.>.>.] >.>.>.*.>.>.>.>.>.>.>.>.>.>.>.>.>.>.;.>.>.>.>.>.>.>.>.>.",
">.>.>.>.>.>.>.>.>.>.>.>.>.>.>.>.>.} >.>.>.>.X.X.&.X.>.>.} o.&.>.>.>.>.>.` >.>.&.>.>.>.>.>.>.>.;.>.>.>.>.>.>.>.>.>.>.>.>.>.>.>.>.",
">.>.>.>.>.>.>.>.>.>.>.>.>.>.>.>.>.X.>.[ X.&.>.>.>.>.o.[ >.>.&.>.&.*.>.>.>.>.>.>.>.>.>.>.>.>.>.>.>.>.>.>.>.>.>.>.>.>.>.>.>.>.>.>.",
">.>.>.>.>.>.>.>.>.>.*.>.>.>.>.>.` -.>.>.>.X.[ &.#.X.  -   %     O + #   >.} X.X.>.>.>.>.>.>.>.>.>.>.>.>.>.>.>.>.>.>.>.>.>.>.&.>.",
"*.>.>.>.>.>.>.>.>.>.>.>.>.>.>.>...>.` [ &.>.` =.>.` > $ + =   + > + O $ X.>.>.&.>.>.>.>.>.>.>.>.>.>.>.>.>.>.>.>.>.>.>.>.>.>.>.>.",
">.>.>.>.>.>.>.>.>.>.>.>.>.>.>.>. .>.>.&.X.! % +   O 2 < x n f x f d w 6 X     + >.>.>.>.>.>.>.>.>.>.>.>.>.*.>.>.>.>.>.>.>.>.>.>.",
">.>.>.>.>.>.>.>.>.>.>.>.>.>.>.>.>.` >.) >.&.. %   . 5 w h j z z n k 7 7 O %   * >.>.*.>.>.>.>.>.>.>.>.>.>.>.>.>.>.>.>.>.>.>.>.>.",
">.>.>.>.>.>.>.>.>.>.>.>.>.>.>.>.X.&.X.>.+ , u u x x l x m m Z m n x c c m x u w - - X. .&.&.*.>.>.=.>.>.>.>.>.>.>.&.>.>.>.>.>.>.",
">.>.>.>.>.>.>.>.>.>.>.>.>.>.*.>.>.X.&.] > , w u x x l x m m m m B n n x n z u w <   >.&.X.>.>.>.>.>.>.>.>.>.>.>.>.>.>.>.>.>.>.>.",
">.>.>.>.>.>.>.>.*.>.>.>.>.>.>.>.` '     e r G m x x x x n V m Z n x n n Z Z x x d u     X.>.>.>.>.>.>.>.>.>.>.>.>.>.>.>.>.>.*.>.",
">.>.>.>.>.>.*.>.>.>.>.>.>.>.>.>.X.>.    u u z x b x x v x m n V m m m n n n z n 5 5     >.>.&.>.>.>.>.>.>.>.>.>.>.>.>.>.>.>.>.>.",
">.>.>.>.>.>.>.>.>.>.>.>.>.>.>.&.) X.    S m n Z c x x x n m m m m m m n n m l n Z m     >.>.>.>.>.>.>.>.>.>.>.>.>.&.>.>.>.>.>.>.",
">.>.>.*.>.>.>.>.>.>.>.>.>.>.>.>.>.>.    m Z z z n c c x n n n V x n n n Z S x n j j     >.>./ >.>.>.>.>.>.>.>.>.>.>.>.>.>.>.>.>.",
">.>.>.>.>.>.>.>.>.>.>.>.>.>.>.>.    u f B n w w n n c n v n n n m n n x n x u u g m w w     >.X.>.>.>.>.>.>.>.>.>.>.>.>.>.>.>.>.",
">.>.>.>.>.>.>.>.>.>.>.>.>.>.>.>.    7 5 n n e 5 n n x x n n m m n x n n Z n p w x f w w     ] X.>.>.>.>.>.>.>.>.>.>.>.>.>.>.>.>.",
">.>.>.>.>.>.>.&.o.>. .>.>.>.>.>.    w u e e y w n x C l V b w t n z m x Z m u u u t 6 w     >.} >.>.&.>.>.>.>.>.>.>.>.>.>.*.>.>.",
">.>.>.>.>.>.>.>.>.&.X.>.>.>.>.>.    w w 9 y i u n l V n m m u u m z Z n Z A d u 6 w y e     [ ` >.>.>.>.>.>.>.>.>.>.>.>.>.>.>.>.",
">.>.>.>.>.>.>.>.>.[ >.>.X.>.&.X.    w w w y i u w u x j u w 6 w w e x j d u 7 e u 5 u w     >.} >.>.>.>.>.>.>.>.>.>.>.>.>.>.>.>.",
">.>.>.>.>.>.>.>.>.&.>.[ X.&.>.>.    w 7 u u u w e u n x u y u f w u m n s u u f u 6 t w     >.( >.>.>.>.>.>.>.>.>.>.>.>.>.>.>.>.",
">.>.>.>.>.>.>.>.[ &.>.>.>.} [ X.: $ y 6 6 u i u w 6 e u q e e 7 w 5 u u e u y 8 6 d 5 5 -   -.>.>.>.>.>.>.>.>.>.>.>.>.>.>.>.>.>.",
">.>.>.>.>.>.>.>.X.>.` ` #.>.) >.# % 5 e s g i w u w e e e u u e y w w u u i i e f u 8 w   % &.@.>.>.>.>.>.>.>.>.>.&.>.>.>.>.>.>.",
">.>.>.>.>.>.>.>.} >.>.&.&.! & O P L w 7 7 y u f 0 u u e e w e a 7 u u u u w y i w u 2 5 P H < - >.>.>.>.>.>.>.>.>.>.>.>.>.>.>.>.",
">.>.>.>.&.>.>.>.&.} X.` &.>.. $ P T 7 e w s e e e u q w u y w w w u 7 w s u e e d w w 7 H T % % >.>.>.>.>.>.>.>.>.>.>.>.>.>.>.>.",
">.>.>.>.>.>.>.>.&.( @.>.( >.    R T * O 4 1 7 2 y e e e u u u u w e 7 e w s 7 e 2 6 O % P R     >.>.>.>.>.>.>.>.>.>.>.>.>.>.>.>.",
">.>.>.>.>.>.*.>.&.( [ &.>.[     T P :   e 5 w 7 u e y w w q w w 8 y w u e u q y 5 7 . & T P     >.>.>.>.>.>.>.>.>.>.>.&.>.>.>.>.",
">.>.>.>.>.>.>.>. .>.[ ` >.>.` >.    + O 7 r e w y y e 0 7 7 6 7 w u w u q 7 5 5 < 5   &     >.>.>.>.>.>.>.>.>.>.>.>.>.>.>.>.>.>.",
">.>.>.>.>.>.>.>.X.>.} &.>.X.>.&.    + - d f u d e e r w 0 7 w w 7 e e u u e e 8 w 5 < >     &.&.>.>.>.>.>.>.>.>.>.>.>.>.>.>.>.>.",
">.>.>.>.>.>.>.>.@.&./ &.>.&.>.] >.&.    q 6 w w w w w w w r u s u y w y w 6 e 5 7 u     >.>.@.X.>.>.>.>.>.>.>.>.>.>.&.>.>.>.>.>.",
">.>.>.>.>.>.>.>.' &.>.>.X.X.X.` } >.    d w w 7 w w q w u d d d d u w w 6 4 d 8 u e     } [ &.&.>.>.>.>.>.>.>.>.>.>.>.>.>.>.>.>.",
">.>.>.>.>.>.>.>.&.>.X.X.X.#.>.&.>.) &.>.    R R u w 8 w y u s s u w 7 w e u J H     >.>.>.>.&.X.>.>.>.>.>.>.>.>.>.>.>.>.>.>.>.*.",
">.>.>.>.>.>.>.>.&.>.>.X.>.( >.} >.X.X.>.    R Y i w 7 8 w u y w e 7 6 6 5 w P I     >.>.@.>.>.[ >.>.>.>.>.>.>.>.>.>.>.>.>.>.>.>.",
">.>.>.>.>.>.>.>.>.&.>.>.>.>.>.>.X.>. .&.    u j T T P T 5 w 6 6 7 4 L I P T f u         >.] X.` >.>.>.>.>.>.>.>.>.>.>.>.>.>.>.>.",
">.>.>.>.>.>.>.>.>.>.>.>.>.>.>.>.( &.>.>.    g g R E T I 6 w 5 w 6 w L I W E f i         &.>.X./ >.>.>.>.>.>.>.>.>.>.>.>.>.>.>.>.",
"&.>.>.>.>.>.>.>.>.>.>.>.>.>.>.*.>.~ / ` > u S m m g 2 ; T R I T L J < 1 l S P U n m u 5     X.} >.>.>.>.>.>.>.>.>.>.>.>.>.>.>.>.",
">.>.>.>.*.>.>.>.>.>.>.>.>.>.>.>.` / >.>.5 e F F m j 5 = P I I R T T 5 7 Z D L J z x 7 e     X.>.>.>.>.>.>.>.>.>.>.>.>.>.>.>.>.>.",
">.>.>.>.>.>.>.>.>.>.>.>.>.>.>.>.>.>.    z F P T R T G F & = % = $ < C L I I , > t 5 7 7 / `     >.>.>.>.>.>.>.>.>.>.>.>.>.>.>.>.",
">.>.>.>.>.>.>.>.>.>.>.>.>.>.>.>.X.>.    z m T R R Y H L * > - * - 2 L T P P : = 5 5 < 5 ~ /     >.>.>.>.>.>.>.&.>.>.>.>.>.>.>.>.",
">.>.>.>.>.>.>.>.>.>.>.>.>.>.>.>.&.&.    e u D P I T I K J H J I H P L Y F n 1 $     ~ ! ( >.    >.>.>.>.>.>.>.>.>.>.>.>.>.>.>.>.",
">.>.>.>.>.>.>.>.>.>.>.>.>.>.>.>.>.>.    6 2 G D L I L I T R I I H T R R H Z : &     ! W `  .    >.>.>.>.>.>.>.>.>.>.>.>.&.>.>.>.",
">.>.>.*.>.>.>.>.>.>.>.>.>.>.>.>.    ~ E < < 6 2 5 < T L R Q Y E Y I P E m S     ( }         >.>.>.>.>.>.>.>.>.>.>.>.>.>.>.>.>.>.",
">.>.>.>.>.>.>.>.>.>.>.>.>.>.>.>.    W E < - 7 3 > , H P R I E I T P I H m x     X.`         >.X.-.>.>.>.>.>.>.>.>.>.>.>.>.>.>.>.",
">.>.>.>.>.>.>.>.>.>.>.>.>.>.>.>.    W E ~ /     u u ) ) G I l F x x L K ` / r 8     P T >.&.&.>.>.>.>.>.>.>.>.>.>.>.>.>.*.>.>.>.",
">.>.>.>.>.>.*.>.>.>.>.>.>.>.>.&.    ( ! ~ }     d u E ) G P x z z x S A ~ R u 6     T R $.X.>.&.>.>.>.>.>.>.>.>.>.*.>.>.>.>.>.>.",
">.>.>.>.>.>.>.>.>.>.>.>.>.>.>.>.>.>.        ! E     x z m z n Z n Z z l V n j z     R ! X.>.&.X.>.>.>.>.>.>.>.>.>.>.>.-.>.>.>.>.",
">.>.>.*.>.>.>.>.>.>.>.>.>.>.>.>.} >.        P T     g j Z Z j n m S m F z x z z     T W >.>.>.>.>.>.>.>.>.>.>.>.>.>.>.>.>.>.>.>.",
">.>.>.>.>.>.>.>.>.>.*.>.>.>.>.>.>.} &.>.X.>.>.' R P             1 2 d x z x u 6     T T X.&.X.>.>.>.>.>.>.>.>.>.>.>.>.>.>.>.>.>.",
">.>.>.>.>.>.>.>.>.>.>.>.>.>.>.>.! >.&.O.>.} [ X.T P             1 < m l x x 2 w     R P X.*.&.>.;.>.>.>.>.>.>.>.>.>.>.>.>.>.>.>.",
">.>.>.>.>.>.>.>.>.>.>.>.>.>.>.>.X.>.&.>.>.>.>.>.X.>.Y T T R U R % +     O O     T I >.X.>.-.>.&.>.>.>.>.>.>.*.>.>.>.>.>.>.>.>.>.",
">.>.>.>.>.>.>.>.>.>.-.>.>.>.>.>.>.>.>.>.>.>.>.>.>.*.T T I R T R > %             R T >.&.>.&.>.&.>.>.>.>.>.>.>.>.>.>.>.>.>.>.>.>.",
">.>.>.>.>.>.>.>.>.>.>.>.>.>.>.>.>.&.>.>.>.>.>.>.&.>...>.>.>.R I     @ O $ <     T Y &.&.>.&.>.>.>.>.>.>.>.>.>.>.>.>.>.>.>.>.>.>.",
">.>.>.*.>.>.>.&.>.>.>.>.>.>.>.>.&.>.>.>.>.>.>.>.} [ | +.X.@.T T       + & +     E E X.&.>.>.>.>.>.>.>.>.>.>.>.>.>.>.>.*.>.>.>.>.",
">.*.>.>.>.>.>.>.>.>.>.>.>.>.>.>.>.>.>.>.>.>.>.>.>.&.>.X.X.>.` &.! T         T R } } >.*.>.>.>.>.>.>.>.>.>.>.>.>.>.>.>.>.>.>.>.>.",
">.>.>.>.>.>.>.>.>.>.>.>.>.>.>.>.*.>.>.>.>.>.&.&.} X.>.>.+.>.#.&.T T         R R >.>.>.>.>.>.>.X.>.>.>.>.>.>.>.>.>.>.>.>.>.>.>.>.",
">.>.>.>.>.>.>.>.>.>.>.>.>.>.>.>.>.>.>.>.>.>.>.>.>.>.>.*.X.} >.>.&.>.R ! ! T >.} &.&.X.-.>.&.>.&.-.>.>.>.>.>.>.>.>.>.>.>.>.>.>.>.",
">.>.>.>.>.>.>.>.>.>.>.>.>.>.>.>.>.>.>.>.>.&.*.>.o.>.X.>.>.} >. .&.+.! ! ! T =.-.O.>.o.&.>.&.>.&.>.>.>.>.>.>.>.>.>.>.>.>.>.>.&.>."
};
