/* XPM */
static char *xpm_[] = {
/* columns rows colors chars-per-pixel */
"64 64 115 2 ",
"   c #010101",
".  c #0A0A0A",
"X  c #10100F",
"o  c #0F1010",
"O  c #151515",
"+  c #171819",
"@  c #1D1D1D",
"#  c #1F1F20",
"$  c #242425",
"%  c #282827",
"&  c #262728",
"*  c #282728",
"=  c #2C2C2C",
"-  c #2F2F30",
";  c #333333",
":  c #373837",
">  c #3B3B3B",
",  c #40403F",
"<  c #403F40",
"1  c #434444",
"2  c #474948",
"3  c #4B4B4B",
"4  c #4E4E50",
"5  c #545454",
"6  c #585857",
"7  c #575858",
"8  c #5C5C5C",
"9  c #605E5F",
"0  c #60605F",
"q  c #5F5F60",
"w  c #605F60",
"e  c #5F6060",
"r  c #636463",
"t  c #696767",
"y  c #676866",
"u  c #686867",
"i  c #676668",
"p  c #686768",
"a  c #676969",
"s  c #6B6B6B",
"d  c #706F6F",
"f  c #70706F",
"g  c #737373",
"h  c #787777",
"j  c #777879",
"k  c #7B7B7B",
"l  c #848484",
"z  c #888787",
"x  c #898887",
"c  c #878888",
"v  c #8C8C8C",
"b  c #908F8F",
"n  c #90908F",
"m  c #8F8F90",
"M  c #918F90",
"N  c #8F9090",
"B  c #939393",
"V  c #989797",
"C  c #989897",
"Z  c #979698",
"A  c #979898",
"S  c #999999",
"D  c #999A9A",
"F  c #9B9B9B",
"G  c #9D9C9B",
"H  c #9E9D9D",
"J  c gray62",
"K  c #9F9EA0",
"L  c #A3A4A3",
"P  c #A8A8A7",
"I  c #ABABAB",
"U  c #AFAFB0",
"Y  c #B3B3B3",
"T  c #B7B8B7",
"R  c #BCBCBC",
"E  c #C0C0BF",
"W  c #BFC0C0",
"Q  c #C3C3C4",
"!  c #C7C8C7",
"~  c #C8C8C7",
"^  c #CBCBCB",
"/  c #CFD0D0",
"(  c #D3D3D3",
")  c #D2D4D3",
"_  c #DADBDB",
"`  c #E0E0DF",
"'  c #E2E4E2",
"]  c #E4E4E4",
"[  c #E6E5E6",
"{  c #E7E6E7",
"}  c #E7E8E7",
"|  c #E9E8E8",
" . c #E9EAE9",
".. c #EBE9EA",
"X. c #EAEBEC",
"o. c #ECECEC",
"O. c #EDEDEC",
"+. c #F0EFEF",
"@. c #F0EFF0",
"#. c #EFF0F1",
"$. c #F2F1F2",
"%. c #F2F3F3",
"&. c #F3F4F3",
"*. c #F5F4F5",
"=. c #F7F7F6",
"-. c #F8F7F7",
";. c #F7F8F7",
":. c #F8F8F7",
">. c #F8F7F8",
",. c #F9F9FA",
"<. c #F9FAFA",
"1. c #FCFCFB",
"2. c gray99",
"3. c #FDFCFC",
"4. c white",
/* pixels */
"4.4.4.4.4.4.4.4.4.4.4.4.4.4.4.4.4.4.4.4.4.2.4.4.1.4.4.4.4.4.4.4.4.4.4.4.4.4.4.4.4.4.4.4.4.4.2.4.4.4.4.4.4.4.4.4.4.4.4.4.4.4.4.4.",
"4.4.4.4.4.4.4.4.4.4.4.4.4.4.4.4.4.4.4.4.4.4.4.4.4.4.4.4.4.2.4.4.4.4.4.4.4.4.4.4.4.4.4.4.4.4.4.4.4.4.4.4.4.4.4.4.4.4.4.4.4.4.4.4.",
"4.4.4.4.4.4.4.4.4.4.4.4.4.4.4.4.4.4.4.4.4.4.4.4.4.4.4.4.4.4.4.4.4.4.4.4.4.4.4.4.2.4.4.4.4.4.4.4.4.4.4.4.4.4.4.4.4.4.4.4.4.4.4.4.",
"4.4.4.4.4.4.4.1.4.4.4.4.4.4.4.4.4.4.4.4.4.4.4.4.4.4.4.4.4.4.4.4.4.4.4.4.4.4.4.1.4.4.4.4.4.4.4.4.4.4.4.4.4.4.2.4.4.4.4.4.4.4.4.4.",
"4.4.4.4.1.4.4.4.4.4.4.4.4.4.4.<.4.4.4.4.4.4.4.4.4.4.4.4.4.4.4.4.4.4.4.4.4.4.4.4.4.4.4.4.4.4.4.4.4.4.4.4.4.4.4.4.4.4.4.4.4.4.4.4.",
"4.4.4.4.4.4.4.4.4.4.4.4.4.4.4.4.4.4.4.4.4.2.4.4.4.4.4.4.4.4.4.4.4.4.4.4.4.4.4.4.4.4.4.4.4.4.4.4.4.4.4.4.4.4.4.4.4.4.4.4.4.4.4.4.",
"4.4.4.4.4.4.4.4.4.4.4.4.4.4.4.4.4.4.4.4.4.4.4.4.4.2.4.4.4.4.4.4.4.4.4.4.1.4.4.4.4.4.4.4.4.4.4.4.2.4.4.4.4.4.4.4.4.1.4.4.4.<.4.4.",
"4.4.4.4.4.4.4.4.4.1.4.4.4.4.4.4.4.4.4.4.4.4.4.4.4.4.4.4.4.2.4.4.4.4.4.4.4.4.4.4.4.2.4.4.4.4.4.4.4.4.4.4.4.4.4.4.4.4.4.4.4.4.4.4.",
"4.4.4.4.4.4.4.4.4.4.4.4.4.4.4.4.4.4.4.4.4.4.4.4.4.4.4.4.<.4.<.4.=.4.>.4.=.4.<.4.4.4.4.2.4.4.4.4.4.4.4.4.4.4.4.4.4.4.4.4.4.4.4.4.",
"4.4.4.4.4.4.4.4.4.4.4.4.4.4.2.4.4.4.4.4.4.4.4.4.4.4.1.4.4.4.4.<.<.>.%.=.4.4.4.4.4.4.4.4.4.4.4.4.4.4.4.4.4.4.4.4.4.4.4.4.4.4.4.4.",
"1.4.4.4.4.4.4.4.4.4.4.4.4.4.4.4.4.4.4.4.4.1.4.4.4.4.<.4.4.*.4.=.O.4.4.%.4.%.@.4.4.4.4.4.4.<.4.4.4.4.4.4.4.4.4.4.4.4.4.4.4.4.4.4.",
"4.4.4.4.4.4.4.4.4.4.4.4.4.4.4.4.4.4.4.4.4.4.4.4.o.%.>.4.4.=.<.o.<.=.%.=.4.4.4.4.4.4.4.4.4.4.4.4.4.4.4.4.4.4.4.4.4.4.4.4.4.4.4.4.",
"4.4.4.4.4.4.1.4.4.4.4.4.4.4.4.4.4.4.4.4.4.4.4.4.1.4.<.=.%.=.=.4.>.=.4.4.O.%.<.>.4.4.4.4.4.4.4.4.4.4.4.4.4.4.4.4.4.4.4.4.2.4.4.4.",
"4.4.4.4.4.4.4.4.4.4.2.4.4.4.4.4.4.4.4.4.4.4.4.4.| <.' o.4.4.X.=.2.4.4.=.4.=.=.<.4.4.4.4.4.4.4.4.4.4.4.4.4.4.4.2.4.4.4.4.4.4.4.4.",
"4.4.4.4.4.4.4.4.4.4.4.4.4.4.4.4.4.4.4.4.4.4.4.4.2.%.1 O .   O $ +     $ [ 4.=.o.4.4.4.4.4.4.4.4.4.4.4.<.4.4.4.4.4.4.4.4.4.4.4.4.",
"4.4.4.4.4.4.4.4.4.4.4.4.4.4.4.4.4.4.4.4.4.4.4.4.<.<.    = O = O # ; $   4.<. .<.4.4.4.4.4.4.4.4.4.4.4.4.4.4.4.4.4.4.4.2.4.4.4.4.",
"4.4.4.4.4.4.4.4.4.4.4.4.4.4.4.4.4.4.=. .4.4.; 2 + = 6 s v v B v z l 8 8 @ =   @ -.<.4.4.4.4.4.2.4.4.4.4.4.4.4.4.4.1.4.4.4.4.4.4.",
"4.4.4.4.4.4.4.4.4.4.4.4.4.4.1.4.<.=.%.4.4.4.2 < ; > 8 s v v B v v v 8 8 = ; . O 4.@.2.=.4.4.4.%.4.4.4.4.4.4.4.4.4.4.4.4.4.4.4.4.",
"4.4.4.4.4.4.4.4.4.4.1.4.4.4.4.4.4.4.[ O.  @ g s l l v v B v v v v N l v k l r 6 X ; 1.4.=.<.+.4.4.4.4.4.4.4.4.4.4.4.4.4.1.4.4.4.",
"4.4.4.4.4.4.1.4.4.4.4.4.4.4.4.4.=.<.4.4.= O g i S B B B B B S B v N v S v v g 8 @ @ 2.4.4.1.<.%.4.4.4.4.4.4.4.4.4.4.4.4.4.4.4.4.",
"4.4.4.4.4.4.4.4.4.4.4.4.4.4.4.4.=.4.    i 8 l v v c c v b B N B C S v V v B v l r s     4.%.4.=.4.4.4.4.4.2.4.4.4.4.4.2.4.4.4.4.",
"4.4.4.2.4.4.4.4.4.4.4.4.4.2.4.4.<. .    8 s k l B B B B N B N b v v v b v B B Z 6 g     4.[ 4.@.4.4.4.4.4.4.4.4.4.4.4.4.4.4.4.4.",
"4.4.4.4.4.4.4.4.4.4.4.4.4.4.4.<.( 1.    G l g b c v c B v S N B J G J J S Z m v v k     4.-.%. .4.4.4.4.4.4.4.4.4.4.4.4.4.4.4.4.",
"4.4.4.4.4.4.4.4.4.4.4.4.4.4.4.4.=.<.    l B h k B S v B B S b b S B V N S B V B V v     -.O.<.o.4.4.4.4.4.4.4.4.4.4.4.4.4.4.4.4.",
"4.4.4.4.4.4.4.4.4.4.4.4.4.4.4.4.    w 8 v v r i V c V C v S S B N N b v S B s y z v 8 8     <.1.4.4.4.4.4.4.4.4.4.4.4.4.4.1.4.4.",
"4.4.4.4.4.4.4.4.4.4.1.4.4.4.4.4.    i r v c u s v B J S S S v A v G S N J v s s B l r 8     4.4.4.4.4.4.4.4.4.4.4.4.4.4.4.4.4.4.",
"4.4.4.4.4.4.4.4.4.4.4.4.4.4.4.4.    8 8 s s 8 r b B v l S B f s N A b c J b i r a r 8 7     <.<.4.4.4.4.4.4.4.4.4.4.4.4.4.4.4.4.",
"4.4.4.4.4.4.4.<.4.4.4.4.4.4.4.4.    r 8 8 r r s B B B B S B s r B v V V S B g t 8 8 r r     <.4.4.4.2.4.4.4.4.4.4.4.4.4.4.4.4.4.",
"4.4.4.4.4.4.4.4.4.4.4.4.4.4.4.4.    r s t s u s e s B v f i r i i i B B s r y r s y r 8     %.4.4.4.4.4.4.4.4.4.4.4.4.4.4.4.4.4.",
"4.4.4.4.4.4.4.4.4.4.4.4.4.4.4.4.    8 r q i r r r s b v s i f f y e v n i i g y r r 8 8     %.<.4.4.4.4.4.4.4.4.4.4.4.2.4.4.2.4.",
"4.4.4.4.4.4.4.4.4.4.4.4.4.4.4.4.o + w r r u i g i e s s r y e 8 s 8 s s s s s r r 8 r s . O 4.4.4.4.4.4.4.4.4.4.4.4.4.4.4.4.4.4.",
"4.4.4.4.4.4.4.4.4.4.4.4.4.4.4.4.@ $ 8 8 r i e s 0 s a e s s 8 f i s s 8 s s r s r p 7 r % = 4.<.4.4.4.4.4.4.4.4.4.4.4.4.4.4.4.4.",
"4.4.4.4.4.4.4.4.<.| 4.%.<.4.& = U Q 0 5 s i f s 0 e 9 r s s s s r r s s f s s i 7 , 5 y T ! = ; 4.4.4.4.4.4.4.4.4.4.4.4.4.4.4.4.",
"4.4.4.4.4.4.4.4.+.=. .4.4.4.: > E U y 8 6 s g u r r r i s s s s i s s f f f s s 8 5 2 8 ! ^ ; 1 4.4.4.4.4.4.4.<.4.4.4.4.4.4.4.4.",
"4.4.4.4.4.4.4.4.<.%.o.@.<.1.    U Q - , i s k s g s s u s i r r y s s f f s s i q 6 ; % R Q     4.4.4.4.4.4.4.4.4.4.4.4.4.4.4.4.",
"4.4.4.4.4.4.4.1.-.[ 4.1.4.%.    T Y O . i i k g g g s s t i r r u s s s s s i r 8 8     ^ R     4.4.4.4.4.4.4.4.4.4.4.4.4.1.4.4.",
"4.1.4.4.4.4.4.4.4.4. .=.<.1.=.<.    > > 6 h 8 r r 8 r i s g g g s s s s s u y r s 8 = ;     @.=.4.4.4.4.4.4.4.4.4.4.1.4.4.4.4.4.",
"4.4.4.4.4.4.4.4.4.4.<.4.-.] 4.4.    . $ r s 7 r 8 8 8 r s s g g s s f s s i i r r 3 > =     4.<.4.4.4.4.4.4.4.4.4.4.4.4.4.4.4.4.",
"4.4.4.4.4.4.4.4.4.%.4.>.4.4.O.<.1.<.    r i s s r r 0 r r t i t s s s y r r e e i 7     2.4.=. .<.4.4.4.4.4.4.4.4.4.4.4.4.4.4.4.",
"4.4.4.4.4.4.4.4.-.4.%.<.4.<.%.<.4.4.    8 r s 0 r e r 0 r i r r u y i r 0 e 8 6 r 8     <.O.*.+.4.4.4.4.4.4.4.4.4.4.4.4.4.4.4.4.",
"4.4.4.4.4.4.4.4.4.4.4.4.4.4.4.4.O.%.<.4.    Q R w r w r r r 8 6 8 r r 8 r r U T     %.%.2.<.4.4.4.4.4.4.4.4.4.4.4.4.4.4.4.4.4.4.",
"4.4.4.4.4.4.4.1.4.4.4.4.4.4.4.4.4.=. .<.    ^ ! w r d 6 8 5 w p r 8 e r q t T E     4.%.4.1. .4.4.4.4.4.4.<.4.4.4.4.4.4.4.4.4.4.",
"4.4.4.4.4.4.4.4.4.4.4.1.4.4.4.4.-. .4.4.    s r ^ T E ~ 8 r r 3 r 8 R Q T T k u     -.<.4. .4.<.4.4.4.4.4.4.4.4.4.4.4.4.4.4.4.4.",
"4.4.4.4.4.4.4.4.4.4.4.4.4.4.4.4.4.O.4.<.    i i ^ Q Q E 8 8 w 7 3 s Q Q E R s g     4.=.<.%.4.4.4.4.4.4.4.4.4.4.4.4.4.4.4.4.4.4.",
"4.4.4.4.4.4.4.1.4.4.4.4.4.4.4.4.X.4.  2 l S R R k i 2 $ R U R E R R 2 1 s g P R v z > $ 4.4.O.4.4.4.4.4.4.4.4.4.4.4.4.4.4.4.4.4.",
"4.4.4.4.4.4.4.4.4.4.4.4.4.4.4.4.4.O.= > l B Q U k s 2 ; Q Q R T R R 5 2 g g I R V B $ $ ;.4.X.=.4.4.4.4.4.4.4.4.4.4.4.4.4.<.4.4.",
"4.4.4.4.4.4.4.4.4.4.4.4.4.4.4.4.    5 i L P P Y B K I I 1 : - = O 1 L P S V I Q L L i s     4.=.4.4.4.4.4.4.4.4.4.1.4.4.4.4.4.4.",
"4.4.4.4.4.4.4.4.4.4.4.4.4.4.4.4.    3 5 S G P L S K T E 4 < > = 2 1 U Y v v R U I I 4 9     4.%.4.4.4.4.4.4.4.4.4.4.4.4.4.4.4.4.",
"4.4.4.1.4.4.4.4.%.=.%.<.%.4.    _ _ 2 7 5 2 * 2 U / ~ ^ ! I I I L I Y R R T < > = < 1 5  .(     4.4.4.4.4.4.4.4.4.1.4.4.4.4.4.4.",
"4.4.4.4.4.4.4.4.=.=.%.+.@.4.    @.( 8 5 6 3 > 1 R E ^ / ^ Q R U P L Q ^ Q R 1 $ 6 > 5 8 `  .    4.4.4.4.4.4.4.4.4.4.4.4.4.4.4.4.",
"4.4.4.4.4.4.4.4.| <.<.<.O.4.    [ -.'  .* * ; 2 b M / / ^ ^ R Q Q Y Q U v l > = @ + ' o.o.=.    4.4.4.4.4.4.4.4.4.4.4.4.1.4.4.4.",
"4.4.4.4.4.4.4.4.4.<.%.-.=.%.    >.|  . .- : > & z B T U ^ ! R Q Y R R I S g > $ $ $ | %.<.%.    4.4.4.4.4.4.4.4.4.4.4.4.4.4.4.4.",
"4.4.1.4.4.4.4.4.%.<.2.4.=.4. .2.        @ 1 M V r r ; > M J J G V M > ; i s l l ; %         4.4.4.4.4.4.4.<.4.4.4.4.4.1.4.4.4.4.",
"4.4.4.4.4.4.4.4.4.<.<.2.4.%.>.'         = ; B h 8 w @ ; k k k z l v > ; r 7 v v ; 5         4.4.4.4.4.4.4.4.4.4.4.4.4.4.4.4.4.4.",
"4.4.4.4.4.4.4.4.<.4.4.4.4.=.4.o.=.1.Q R     E / k l s k r r 2 2 s j l k B l ^ (     ` _ 4.1.2.*.4.4.4.4.4.4.4.4.4.4.4.4.4.4.4.4.",
"4.4.4.4.4.4.4.4.4.4.4.4.4.4.o.4.<.4.E )     / ^ l h l v 2 5 $ O s 8 V v l x ^ ^     ( ^ 4.4.>.4.4.4.4.4.4.4.4.4.4.4.4.4.4.4.4.4.",
"4.4.4.4.4.4.4.2.4.4.4.4.4.4.4.4.' @.R !     * $ . @                     ; + . %     R R <.-.=.=.4.4.4.4.4.4.4.4.4.4.4.4.4.1.4.4.",
"4.4.4.4.4.4.4.4.4.4.4.4.4.4.4.4.-._ Q ^     ; = $ $                     $ = % O     T Q =.4.1.*.4.4.4.4.4.4.4.4.4.4.4.4.4.4.4.4.",
"4.4.4.4.4.4.4.4.4.2.4.4.4.4.4.4.[ -.=.4./ (         ^ ^ Q Q Q ) Q / / Q         ^ T 4.[ @.o.<.<.4.4.4.4.4.4.4.4.4.4.4.4.4.4.4.4.",
"4.4.4.4.4.4.4.4.4.4.4.4.4.4.4.4.>. .<. .( _         ^ R R W R Q Q Q Q ^         ^ ^ <.4.4.<.2.+.4.4.2.4.4.4.4.4.4.4.4.4.4.4.4.4.",
"4.<.4.4.4.4.4.4.4.4.4.4.2.4.4.4.<.-.%.4.O.>.4.4.4.4.Q ( ^ _ ~ Q ( ^ Q ( <.4.4.<.4.=.=.%.O.O.4.4.4.4.4.4.4.4.4.4.4.4.4.4.4.4.4.4.",
"4.4.4.4.4.4.4.4.4.4.4.4.4.4.4.4.@.4. .%.4.=.:.%.=.4.R ( Q ~ ^ ~ Q ^ ^ Q 4.4.1.4.4.4.4.4.4.4.4.<.4.4.4.4.4.4.4.4.4.4.4.2.4.4.2.4.",
"4.4.4.4.4.4.4.4.4.4.4.4.4.4.4.4.4.X.4.>.*.4.<.4.4.' 4.4.4.4.4.=.4.4.4.4.%.4.4.4.4.<.4.4.4.4.2.4.4.4.4.4.4.4.4.4.4.4.4.4.4.4.4.4.",
"4.4.4.4.2.4.4.4.4.4.4.4.4.4.4.4.4.4.4.4.<.<.4.%.4.4.4.4.4.4.<.4.4.4.4.<.4.4.4.4.4.<.4.<.4.4.4.4.4.4.4.4.4.4.4.4.4.4.4.4.4.4.4.4."
};
