/* XPM */
static char *c9293f523644430ed4304b32f2f9191cHsNNJbtFIOPsXn8L[] = {
/* columns rows colors chars-per-pixel */
"64 64 234 2 ",
"   c #040100",
".  c #0C0201",
"X  c #0B0709",
"o  c #130101",
"O  c #1B0100",
"+  c #190B02",
"@  c #170808",
"#  c #171309",
"$  c #120E13",
"%  c #240200",
"&  c #2B0100",
"*  c #240A06",
"=  c #2B0900",
"-  c #330601",
";  c #261213",
":  c #281818",
">  c #3B281A",
",  c #3C1F23",
"<  c #2E2E27",
"1  c #392A26",
"2  c #3D3629",
"3  c #372C30",
"4  c #3C2E33",
"5  c #3C3333",
"6  c #3D3936",
"7  c #481A0B",
"8  c #571D1B",
"9  c #6E1E1F",
"0  c #482602",
"q  c #532C02",
"w  c #542D0C",
"e  c #593303",
"r  c #472B1B",
"t  c #562817",
"y  c #552A1C",
"u  c #5A2B1D",
"i  c #483519",
"p  c #5E361A",
"a  c #643B07",
"s  c #613A17",
"d  c #631F22",
"f  c #701B21",
"g  c #472A29",
"h  c #532524",
"j  c #562725",
"k  c #5B2C23",
"l  c #552B2C",
"z  c #5C2C2B",
"x  c #483627",
"c  c #4C352B",
"v  c #52342C",
"b  c #5B332B",
"n  c #593C28",
"m  c #462C32",
"M  c #572C34",
"N  c #493234",
"B  c #453B37",
"V  c #4D3D35",
"C  c #43353B",
"Z  c #543433",
"A  c #5C3534",
"S  c #533B33",
"D  c #583A38",
"F  c #652827",
"G  c #642B26",
"H  c #673428",
"J  c #64342C",
"K  c #673A37",
"L  c #753331",
"P  c #7F5502",
"I  c #754C10",
"U  c #4A4228",
"Y  c #574229",
"T  c #4A4239",
"R  c #574337",
"E  c #6F4E29",
"W  c #79492A",
"Q  c #674839",
"!  c #794C3A",
"~  c #6C553A",
"^  c #765438",
"/  c #7C523D",
"(  c #453B41",
")  c #543F45",
"_  c #653941",
"`  c #4D4746",
"'  c #584748",
"]  c #575149",
"[  c #5E4B51",
"{  c #664A46",
"}  c #734C44",
"|  c #65534C",
" . c #775749",
".. c #654E53",
"X. c #675757",
"o. c #755A58",
"O. c #6C605C",
"+. c #786259",
"@. c #715962",
"#. c #716267",
"$. c #874E00",
"%. c #825107",
"&. c #955B01",
"*. c #875C18",
"=. c #946411",
"-. c #A7710D",
";. c #834E2C",
":. c #835527",
">. c #844D38",
",. c #895435",
"<. c #84533C",
"1. c #88543B",
"2. c #A54A3D",
"3. c #854D49",
"4. c #954D49",
"5. c #875747",
"6. c #96564B",
"7. c #8B5C54",
"8. c #8B5658",
"9. c #8C5C5C",
"0. c #935454",
"q. c #995857",
"w. c #A74C49",
"e. c #B74C49",
"r. c #A9554B",
"t. c #B7534A",
"y. c #BB524B",
"u. c #AF4F51",
"i. c #A65856",
"p. c #B45657",
"a. c #8E6E57",
"s. c #896559",
"d. c #9C615D",
"f. c #A9625A",
"g. c #B1605C",
"h. c #975E61",
"j. c #8B6264",
"k. c #9B6364",
"l. c #B6746B",
"z. c #C35558",
"x. c #CF655F",
"c. c #DA6C5C",
"v. c #D5725C",
"b. c #DD755E",
"n. c #E5695B",
"m. c #E46C5D",
"M. c #F3675C",
"N. c #E3735D",
"B. c #EB705B",
"V. c #C86B68",
"C. c #D86C67",
"Z. c #CA746C",
"A. c #DC7364",
"S. c #D67468",
"D. c #D5756D",
"F. c #DB736C",
"G. c #D46C71",
"H. c #C77977",
"J. c #D47572",
"K. c #D77975",
"L. c #E86B67",
"P. c #EB6D64",
"I. c #F46B65",
"U. c #F96A68",
"Y. c #E37363",
"T. c #EB7465",
"R. c #E27964",
"E. c #E3726A",
"W. c #EB776B",
"Q. c #F1756C",
"!. c #E47473",
"~. c #E77774",
"^. c #BA8F0E",
"/. c #B69515",
"(. c #BBA015",
"). c #B18F35",
"_. c #B89737",
"`. c #BFA22B",
"'. c #C69B1A",
"]. c #C2962C",
"[. c #C8A531",
"{. c #9B8158",
"}. c #B88744",
"|. c #BA984B",
" X c #B28C59",
".X c #AB8A67",
"XX c #AE9165",
"oX c #B99463",
"OX c #B08970",
"+X c #BB9A75",
"@X c #BBA076",
"#X c #C39843",
"$X c #C19556",
"%X c #DC9A64",
"&X c #C3857C",
"*X c #BA9A89",
"=X c #AB9A93",
"-X c #BD9B95",
";X c #BCA498",
":X c #BDA7A3",
">X c #D08D8B",
",X c #C6A597",
"<X c #CAAFA7",
"1X c #EBCDBD",
"2X c #E7CAC7",
"3X c #ECCDC3",
"4X c #F2D2C7",
"5X c #F5D5C8",
"6X c #EFD4D2",
"7X c #FBE2DA",
"8X c #EBE1E7",
"9X c #EDECEB",
"0X c #F7E7E9",
"qX c #F3ECED",
"wX c #FDEDEC",
"eX c #EDF2EC",
"rX c #F4F3ED",
"tX c #F9F8EC",
"yX c #EFEBF2",
"uX c #F7EDF5",
"iX c #EBF4F3",
"pX c #EBF7F6",
"aX c #F4F4F4",
"sX c #FCF4F4",
"dX c #F3FBF5",
"fX c #FDFCF4",
"gX c #F5F4FA",
"hX c #FDF6FB",
"jX c #F5FCFC",
"kX c #FEF9FA",
"lX c #FFFAFF",
"zX c #FBFEFE",
"xX c #FBFFFF",
"cX c white",
/* pixels */
"cXcXcXcXcXcXcXcXcXcXcXcXcXcXcXcXcXcXcXcXcXcXcXcXcXcXcXcXcXcXcXcXcXxXcXcXcXcXcXcXxXxXxXxXxXxXxXxXcXcXcXcXcXcXcXcXcXcXcXcXcXcXcXcX",
"cXcXcXcXcXcXcXcXcXcXcXcXcXcXcXcXcXcXcXcXcXcXcXcXcXcXcXcXcXcXcXcXcXcXcXcXcXcXcXcXcXcXcXxXcXxXxXxXcXcXcXcXcXcXcXcXcXcXcXcXcXcXcXcX",
"cXcXcXcXcXcXcXcXcXcXcXcXcXcXcXcXcXcXcXcXcXcXcXcXcXcXcXcXcXcXcXcXcXcXcXcXcXcXcXcXcXcXcXcXcXcXcXcXcXcXcXcXcXcXcXcXcXcXcXcXcXcXcXcX",
"cXcXcXcXcXcXcXcXcXcXcXcXcXcXcXcXcXcXcXcXcXcXcXcXcXcXcXcXcXcXcXcXcXcXcXcXcXcXcXcXcXcXcXcXcXcXcXcXcXcXcXcXcXcXcXcXcXcXcXcXcXcXcXcX",
"cXcXcXcXcXcXcXcXcXcXcXcXcXcXcXcXcXcXcXcXcXcXcXcXcXcXcXcXcXcXcXcXcXcXcXcXcXcXcXcXcXcXcXcXcXcXcXcXcXcXcXcXcXcXcXcXcXcXcXcXcXcXcXcX",
"cXcXcXcXcXcXcXcXcXcXcXcXcXcXcXcXcXcXcXcXcXcXcXcXcXcXcXcXcXcXcXcXxXcXcXcXcXcXcXcXcXcXcXcXcXcXcXcXcXcXcXcXcXcXcXcXcXcXcXcXcXcXcXcX",
"cXcXcXcXcXcXcXcXcXcXcXcXcXcXcXcXcXcXcXcXcXcXcXcXcXcXcXcXcXcXcXcXxXxXxXcXcXcXcXcXcXcXcXcXcXcXcXcXcXcXcXcXcXcXcXcXcXcXcXcXcXcXcXcX",
"cXcXcXcXcXcXcXcXcXcXcXcXcXcXcXcXcXcXcXcXcXcXcXcXcXcXcXcXcXcXcXcXxXxXcXcXcXcXcXcXcXcXcXcXcXcXcXcXcXcXcXcXcXcXcXcXcXcXcXcXcXcXcXcX",
"cXcXcXcXcXcXcXcXcXcXcXcXcXcXcXcXcXcXcXcXcXcXcXcXcXcXxXxXxXcXcXcXcXcXaXcXcXcXcXcXcXcXcXcXcXcXcXcXcXcXcXcXcXcXcXcXcXcXcXcXcXcXcXcX",
"cXcXcXcXcXcXcXcXcXcXcXcXcXcXcXcXcXcXcXcXcXcXcXcXcXcXcXcXcXcXcXcXcXcXcXkXcXkXxXcXcXcXcXcXcXcXcXcXcXcXcXcXcXcXcXcXcXcXcXcXcXcXcXcX",
"cXcXcXcXcXcXcXcXcXcXcXcXcXcXcXcXcXcXcXcXcXcXcXcXcXcXcXcXcXcXcXcXcXkXcXqXcXhXkXcXcXcXcXcXcXcXcXcXcXcXcXcXcXcXcXcXcXcXcXcXcXcXcXcX",
"cXcXcXcXcXcXcXcXcXcXcXcXcXcXcXcXcXcXcXcXcXcXcXcXcXcXcXcXcXcXcXcXkXkXcXlXcXcXkXkXcXcXcXcXcXcXcXcXcXcXcXcXcXcXcXcXcXcXcXcXcXcXcXcX",
"cXcXcXcXcXcXcXcXcXcXcXcXcXcXcXcXcXcXcXcXcXcXcXcXkXkXkXkXkXkXkXkXlXkXqXkXaXkXcXkXcXcXcXcXcXcXxXxXcXcXcXcXcXcXcXcXcXcXcXcXcXcXcXcX",
"cXcXcXcXcXcXcXcXcXcXcXcXcXcXcXcXcXcXcXcXcXcXcXcXcXcXlXlXlXlXlXlXkXlXkXcXsXqXcXaXcXcXcXcXxXxXxXcXcXcXcXcXcXcXcXcXcXcXcXcXcXcXcXcX",
"cXcXcXcXcXcXcXcXcXcXcXcXcXcXcXcXxXxXxXcXcXcXcXcX5 4 4 4 4 4 4 4 C 4 < 3 4 ` qXkXcXcXcXcXxXxXxXxXcXcXcXcXcXcXcXcXcXcXcXcXcXcXcXcX",
"cXcXcXcXcXcXcXcXcXcXcXcXcXcXcXcXcXcXcXcXkXkXkXkXN N l l l l l l l l A M l g sXkXcXcXcXxXxXxXxXcXcXcXcXcXcXcXcXcXcXcXcXcXcXcXcXcX",
"kXkXcXcXcXcXcXcXcXcXcXcXcXcXcXcXuXlXsXcX1 1 v b OXH.H.K.J.J.D.D.F.D.D.Z.H.>X8 l N < xXjXjXxXkXhXcXcXcXcXcXcXcXcXcXcXcXcXcXcXcXcX",
"kXkXkXcXcXcXcXcXcXcXcXcXcXcXcXcXlXhXhXsXS v k u H.J.F.E.E.Y.Y.Y.c.m.Q.W.!.J.9 j g N kXjXcXgXcXcXcXcXcXcXcXcXcXcXcXcXcXcXcXcXcXcX",
"kXkXcXcXcXcXcXcXcXcXcXcXcXcXcXcXhXlXm Z o.7.&XH.J.F.F.E.E.Y.N.N.R.Y.Y.c.F.J.V.H.k.j.N 5 cXhXxXaXcXcXcXcXcXcXcXcXcXcXcXcXcXcXcXcX",
"kXkXcXcXcXcXcXcXcXcXcXcXcXcXcXcXlXhXm l k.f.Z.V.F.F.E.E.Y.Y.b.b.b.b.R.C.E.C.~.K.6.0.l , lXcXgXxXcXcXcXcXcXcXcXcXcXcXcXcXcXcXcXcX",
"cXcXcXcXcXcXcXcXcXcXcXcXcXcXcXcXsXsXg F H.J.!.!.E.E.E.Y.Y.b.b.b.v.v.R.R.W.c.!.C.V.>Xd M hX8XcXiXcXcXcXcXcXcXcXcXcXcXcXcXcXcXcXcX",
"cXcXcXcXcXcXcXcXcXcXcXcXcXcXcXcXlXkXj d >X!.L.P.P.L.Y.Y.Y.N.N.N.R.v.b.c.Y.Y.%X~.~.G.f d wXhXxXjXcXcXcXcXcXcXcXcXcXcXcXcXcXcXcXcX",
"cXcXcXcXcXcXcXcXcXcXcXcXcXcXcXcX1 g 9.i.G.Q.P.U.P.P.Y.Y.Y.N.B.B.Y.m.Y.N.Y.N.m.n.C.~.p.q._ C gXjXcXcXcXcXcXcXcXcXcXcXcXcXcXcXcXcX",
"cXcXcXcXcXcXcXcXcXcXcXcXcXcXcXcXN Z q.w.~.L.P.P.P.Y.Y.Y.Y.B.M.M.P.P.T.m.Y.T.m.T.L.!.u.i.l m cXjXcXcXcXcXcXcXcXcXcXcXcXcXcXcXcXcX",
"cXcXcXcXcXcXcXcXkXkXcXcXcXcXkXkXN l 0.r.C.L.Q.n.Y.W.c.Y.m.I.M.U.I.I.I.n.T.c.N.Y.W.x.p.q.M m cXjXcXcXcXcXcXcXcXcXcXcXcXcXcXcXcXcX",
"cXcXcXcXcXcXcXcXcXcXkXcXkXcXcXkXN z q.g.S.C.W.Y.c.R.A.W.T.I.M.I.U.I.I.m.T.Y.Y.R.A.S.w.q.A N hXxXcXcXcXcXcXcXcXcXcXcXcXcXcXcXcXcX",
"cXcXcXcXcXcXcXcXcXcXaXcXkXcXcXsXg h 0.6.r.t.A.A.A.A.F.C.E.P.U.U.U.I.P.P.m.Y.c.v.2.V.4.q.A m uXcXcXcXcXcXcXcXcXcXcXcXcXcXcXcXcXcX",
"cXcXcXcXcXcXcXcXcXcXkXkXaXfXcXlXZ M k.i.r.w.S.A.F.S.!.C.E.C.!.E.L.E.L.W.c.A.c.S.r.f.>.3.A N lXlXcXcXcXcXcXcXcXcXcXcXcXcXcXcXcXcX",
"cXcXcXcXcXcXcXcXaXkXcXkXcXkXaXsXg j h.q.i.2.t.t.e.t.C.J.K.J.K.Z.K.F.S.S.e.t.e.e.w.i.d.9.D g sXsXcXcXcXcXcXcXcXcXcXcXcXcXcXcXcXcX",
"xXcXcXcXcXcXcXcXcXkXcX9XcXcX9XlXM M 8.0.f.r.t.t.e.y.G.K.H.l.&Xl.l.Z.J.D.y.e.y.e.u.6.7.} v V wXkXcXcXcXcXcXcXcXcXcXcXcXcXcXcXcXcX",
"xXxXcXcXcXcXcXcXkXcXcXcXkX8XB 4 M l K F 4.w.w.e.e.e.p.u.L F n n n H 4.r.w.e.z.u.p.4.J K Z 1 ' : cXcXcXcXcXcXcXcXcXcXcXcXcXcXcXcX",
"cXcXcXcXcXcXcXcXcXcXaXkXcXcX6 5 Z l z j q.i.u.t.e.e.p.i.J b S c n H 6.f.p.u.p.w.w.i.F b c c g 5 cXcXcXcXcXcXcXcXcXcXcXcXcXcXcXcX",
"cXcXcXcXcXcXcXcXcXcXcXcXfXcXX . :X-XA J 0.4.i.i.p.4.L F z A S c v b J F 6.r.w.r.6.4.H y <X;X.   kXcXcXcXcXcXcXcXcXcXcXcXcXcXcXcX",
"cXcXcXcXcXcXcXcXcXcXkXkXkXcX  . <X-XA h q.3.f.q.q.3.L J b A Z v v b b J 0.i.4.i.4.6.F J -X=X+ # cXcXcXcXcXcXcXcXcXcXcXcXcXcXcXcX",
"cXcXcXcXcXcXcXcXaXcXcXcXkXcX  # :X-XK y z H 8 H f.d.0.7.7.s.s.s.j.j.9.9.d.0.F F F F 7 l ;X<X.   cXcXcXcXcXcXcXcXcXcXcXcXcXcXcXcX",
"cXcXcXcXcXcXcXcXcXcXaXkXcXaXX   :X;Xr h h u H u 0.0.7.7.s.s.s.s.9.j.9.k.9.0.k 8 h Q h Z :X=X. X cXcXcXcXcXcXcXcXcXcXcXcXcXcXcXcX",
"cXcXcXcXcXcXcXcXaXkXcXcXkXcX9XkXo o c v  .Q J u u u u u u y y y j j j z j J y z } } g g . @ sXcXcXcXcXcXcXcXcXcXcXcXcXcXcXcXcXcX",
"cXcXcXcXcXcXcXcXcXkXkXcXcXaXcXqX. + g x { { y k y u u u u t u u k u k u t k y b  .Q c 1 o   kXaXcXcXcXcXcXcXcXcXcXcXcXcXcXcXcXcX",
"cXcXcXcXcXcXcXcXcXcXcXcXcXgXcXcXkXfX. ; g c +.} } / / / <.1.1.1.>.W 5./ / ^ ^ ~ > Y . . tXrXtXfXcXcXcXcXcXcXcXcXcXcXcXcXcXcXcXcX",
"cXcXcXcXcXcXcXcXkXcXkXkXcXcXgXcXkXkX@ . B V R o. .} / <.1.>.>.>.,.W <.W ^ ^ ^ ~ i x   + tXtXfXtXcXcXcXcXcXcXcXcXcXcXcXcXcXcXcXcX",
"cXcXcXcXcXcXcXcXcXcXcXcXcXcXcXcXaXcXcXcX  @ > S Q  .Q ! 1.W ,.;.;.,.W ^ ^ ~ i i . . fXfXfXrXkXaXcXcXcXcXcXcXcXcXcXcXcXcXcXcXcXcX",
"cXcXcXcXcXcXcXcXcXcXcXcXcXcXcXcXcXxXaXcX. . V > +.7./ 5.>.6.;.,.,.W ^ 5.^ a.r x + # fXrXcXcX9XcXcXcXcXcXcXcXcXcXcXcXcXcXcXcXcXcX",
"cXcXcXcXcXcXcXcXcXcXcXcXcXcXcXcXxXcXxXaX] 5 + o O O t w W ;.;.;.,.1.t t O O . . 5 ` yXhXcXhXlXcXcXcXcXcXcXcXcXcXcXcXcXcXcXcXcXcX",
"cXcXcXcXcXcXcXcXcXcXcXcXcXcXcXcXjXpXxXcXT 1 : o % % s p W I :.W W 1.t t % O o @ B ( hXhXlXlXhXhXcXcXcXcXcXcXcXcXcXcXcXcXcXcXcXcX",
"cXcXcXcXcXcXcXcXcXcXcXcXcXcXcXcXjXjX  . B ' > x *X.Xq e q a e q a 7 w p .X*Xc 1 ) C X $ yXhXlXcXcXcXcXcXcXcXcXcXcXcXcXcXcXcXcXcX",
"cXcXcXcXcXcXcXcXcXcXcXcXcXcXcXcXxXdX#   2 V > Y a.+Xe a I q e e e e e w OXOXn R V 3 . X sXhXlXgXcXcXcXcXcXcXcXcXcXcXcXcXcXcXcXcX",
"cXcXcXcXcXcXcXcXcXcXcXcXcXcXcXcX    < B x R Y E +XXX% % }.).|.).|.|.% = XX{.E i c x T B .   kXkXcXcXcXcXcXcXcXcXcXcXcXcXcXcXcXcX",
"cXcXcXcXcXcXcXcXcXcXcXcXcXcXcXkX. # 2 2 R r n p .XoX& = _._.)._._.#X= = oX.Xn Q x R r > + . wXfXcXcXcXcXcXcXcXcXcXcXcXcXcXcXcXcX",
"cXcXcXcXcXcXcXxXxXcXkXkXlXsX[ { 1X5X;X,X= % 3.<.- & |.)._.`./././.[._.|.& - ! 7.% % ,X,X3X7XQ | kXcXcXcXcXcXcXcXcXcXcXcXcXcXcXcX",
"cXcXcXcXcXxXxXxXxXcXcXcXwXkX' X.4X1X,X*X- & 3.3.& - $X#X]./.(.^././.).|.% & 7.8.O & ,X<X1X4XQ { kXcXcXcXcXcXcXcXcXcXcXcXcXcXcXcX",
"cXcXcXcXcXxXxXxXcXgXkXcXqXkX' { 4X4X3X7XO % K b p q *.P ].'.'.'./.[.P *.s y A D % % 3X1X5X5XK { kXcXcXcXcXcXcXcXcXcXcXcXcXcXcXcX",
"cXcXcXcXcXxXxXxXaXaXcXcXkXsXX.' 6X2X2X6Xo * D S r w W *._.].^.^./.-.P :.0 y { V o . 7X3X3X3XK { kXcXcXcXcXcXcXcXcXcXcXcXcXcXcXcX",
"lXcXcXcXcXxXxXxXxXcXkXaXkXcXqXlX..{ [ ) C C X.o.c i  X$X$.&.-.&.&.=.}. Xi x X.O.6 B R R { } wXsXkXcXcXcXcXcXcXcXcXcXcXcXcXcXcXcX",
"lXcXcXcXcXxXxXxXaXxXxXcXcXqXcXsX' ..X.X.( C X.X.> Y XXoX%.$.$.&.$.*.oX+Xr 1 O.O.6 ` ] | | D sXwXkXcXcXcXcXcXcXcXcXcXcXcXcXcXcXcX",
"cXcXcXcXcXxXxXxXxXxXaXxXcXkXcXaXlXhXyXyXX $ ( B +.Q O %  X%X}.}.$X X% O  .O.B 6 X   fXtXwXkX0XsXkXcXcXcXcXcXcXcXcXcXcXcXcXcXcXcX",
"cXcXcXcXcXxXxXxXxXxXxXxXaXxXcXcXkXlXhXlXX . ( C X.+.* O +XXX XoXXX@XO O +.| ` (   X rXkXkX0XkXtXkXcXcXcXcXcXcXcXcXcXcXcXcXcXcXcX",
"cXcXcXcXcXcXxXxXxXxXxXxXxXcXcXcXkXkXcXqX@ ; [ @.@.X.R S R i Y i i U x R | o.X.#.@   kXrXkXkXrXxXcXcXcXcXcXcXcXcXcXcXcXcXcXcXcXcX",
"cXcXcXcXcXcXxXxXxXxXxXxXxXxXxXxXeXkXkXkX. . ' @.@...m 4 B B 2 2 U 2 T V | ..@.X.o 1 qXcXxXiXdXjXcXcXcXcXcXcXcXcXcXcXcXcXcXcXcXcX",
"cXcXcXcXcXcXcXcXcXcXxXxXcXcXcXcXkXtXfXsXsXlXo O o o sXlXcXxXdXxXrXfXrXkX. @ o @ kX0XkXcXgXjXjXpXcXcXcXcXcXcXcXcXcXcXcXcXcXcXcXcX",
"cXcXcXcXcXcXcXcXcXcXcXcXcXcXcXcXfXkXkXsXkXsXo @ ; . lXhXiXjXpXpXxXxXkXkX. o o . sXlXqXcXcXjXjXiXcXcXcXcXcXcXcXcXcXcXcXcXcXcXcXcX",
"cXcXcXcXcXcXcXcXcXcXcXcXcXcXcXcXaXfX9XcXsXkXkXsXlXkXkXcXcXxXxXxXpXgXlXkXkXsXkXkXkXlXlXlXgXeXxXxXcXcXcXcXcXcXcXcXcXcXcXcXcXcXcXcX",
"kXcXcXcXcXcXcXcXcXcXcXcXcXcXcXcXcXcXcXaXcXkXaXkXqXcXqXcXcXgXcXcXxXcXlXkXkXfX9XfXfXsXkXaXcXcXaXkXcXcXcXcXcXcXcXcXcXcXcXcXcXcXcXcX",
"kXkXkXkXcXcXcXcXcXcXcXcXcXcXcXcXhXgXaXcXxXdXcXdXkXeXcXfXsXsXlXlXlXuXlXlXfXfXfXfXfXfXcXcXhXlXsXcXcXcXcXcXcXcXcXcXcXcXcXcXcXcXcXcX",
"kXkXkXkXcXcXcXcXcXcXcXcXcXcXcXcXhXlXcXcXxXjXdXdXdXxXrXkXkXkXsXlXlXlXlXcXfXfXtXtXfXxXdXcXaXlXsXlXcXcXcXcXcXcXcXcXcXcXcXcXcXcXcXcX"
};
