/* XPM */
static char *d642e29716bb42e5c8dbaa60ea48fe82TAUd9KLhljMIlSWD[] = {
/* columns rows colors chars-per-pixel */
"64 64 239 2 ",
"   c #040202",
".  c #0C0202",
"X  c #010D04",
"o  c #000D0B",
"O  c #0A0908",
"+  c #130101",
"@  c #1C0201",
"#  c #130B01",
"$  c #190907",
"%  c #051109",
"&  c #151204",
"*  c #170710",
"=  c #0D1512",
"-  c #220201",
";  c #2B0201",
":  c #230A02",
">  c #2B0903",
",  c #330200",
"<  c #3D1E0F",
"1  c #36260D",
"2  c #39291C",
"3  c #2F2C2B",
"4  c #3A3626",
"5  c #3B3B2B",
"6  c #3A3835",
"7  c #481C17",
"8  c #591D17",
"9  c #621A1F",
"0  c #572A06",
"q  c #5A3103",
"w  c #492A1C",
"e  c #5C2613",
"r  c #5A2919",
"t  c #5B2C1C",
"y  c #4F3012",
"u  c #642C04",
"i  c #643306",
"p  c #62261B",
"a  c #673619",
"s  c #4E1F2E",
"d  c #511D26",
"f  c #432423",
"g  c #482927",
"h  c #4D2B2C",
"j  c #5D2521",
"k  c #5B2A24",
"l  c #572829",
"z  c #542B2A",
"x  c #48372B",
"c  c #52332B",
"v  c #5B362A",
"b  c #482D35",
"n  c #522C35",
"m  c #592C35",
"M  c #483837",
"N  c #533335",
"B  c #5B3235",
"V  c #5C3439",
"C  c #543838",
"Z  c #642622",
"A  c #622B29",
"S  c #68322E",
"D  c #6D3132",
"F  c #643638",
"G  c #364336",
"H  c #3A4338",
"J  c #4D411C",
"K  c #7B5505",
"L  c #49442A",
"P  c #464338",
"I  c #564934",
"U  c #6E442F",
"Y  c #794929",
"T  c #7B552E",
"R  c #674337",
"E  c #794C36",
"W  c #7C5434",
"Q  c #7A5439",
"!  c #3D3543",
"~  c #512F42",
"^  c #493944",
"/  c #573A45",
"(  c #663B43",
")  c #773D46",
"_  c #4A4846",
"`  c #594646",
"'  c #5A574A",
"]  c #554F50",
"[  c #5C5856",
"{  c #674947",
"}  c #774A4A",
"|  c #724E4D",
" . c #775547",
".. c #65565B",
"X. c #57654C",
"o. c #536553",
"O. c #68605F",
"+. c #695B62",
"@. c #556E61",
"#. c #706668",
"$. c #854D07",
"%. c #875802",
"&. c #875A14",
"*. c #84522E",
"=. c #824E34",
"-. c #8A4D32",
";. c #994A39",
":. c #825233",
">. c #885637",
",. c #82523B",
"<. c #905430",
"1. c #A5473D",
"2. c #B3493C",
"3. c #874A4A",
"4. c #9D4B4A",
"5. c #85534B",
"6. c #94574E",
"7. c #9C524C",
"8. c #994D50",
"9. c #895556",
"0. c #955657",
"q. c #9C5452",
"w. c #9B545C",
"e. c #9D5E5C",
"r. c #A84C45",
"t. c #B34D44",
"y. c #BC4C43",
"u. c #B54E4A",
"i. c #A4534A",
"p. c #AC524B",
"a. c #B35146",
"s. c #B7534A",
"d. c #A45953",
"f. c #A75858",
"g. c #B45B54",
"h. c #966455",
"j. c #AA6159",
"k. c #8D5860",
"l. c #945962",
"z. c #9A5967",
"x. c #A45D62",
"c. c #97656B",
"v. c #A8626B",
"b. c #BC7B78",
"n. c #C55750",
"m. c #C7675C",
"M. c #DD6958",
"N. c #DF755C",
"B. c #DA7959",
"V. c #E5754E",
"C. c #E16B57",
"Z. c #E36D5B",
"A. c #ED6E5D",
"S. c #E37554",
"D. c #E3735C",
"F. c #E9715E",
"G. c #F1725E",
"H. c #CC6B66",
"J. c #D56D62",
"K. c #DD6D63",
"L. c #CA776B",
"P. c #DC7465",
"I. c #D87569",
"U. c #CA7974",
"Y. c #D57872",
"T. c #E66E65",
"R. c #E96E64",
"E. c #E56E68",
"W. c #E37265",
"Q. c #E97163",
"!. c #E2726A",
"~. c #E9796A",
"^. c #F07A66",
"/. c #E47B74",
"(. c #BA930A",
"). c #BA9917",
"_. c #B68A34",
"`. c #B69332",
"'. c #CA9519",
"]. c #C89525",
"[. c #CE902C",
"{. c #C89434",
"}. c #9F8E58",
"|. c #B2924F",
" X c #A58A5B",
".X c #B89859",
"XX c #949273",
"oX c #A59564",
"OX c #B89569",
"+X c #AA8E76",
"@X c #B39976",
"#X c #C59545",
"$X c #D18650",
"%X c #C59E52",
"&X c #C98373",
"*X c #D48078",
"=X c #EB8476",
"-X c #CAA361",
";X c #C97B80",
":X c #9B9C83",
">X c #B69D8E",
",X c #B9A496",
"<X c #B9A8A5",
"1X c #CC8E89",
"2X c #C9A08F",
"3X c #C6A399",
"4X c #C5AA9D",
"5X c #C39EA3",
"6X c #C7AAAA",
"7X c #CDB0A7",
"8X c #E1B0A1",
"9X c #D2C0AE",
"0X c #EECCC7",
"qX c #F4CCC5",
"wX c #F9CDC4",
"eX c #FAD2C9",
"rX c #F6D9D6",
"tX c #FAEFDF",
"yX c #EAE8E7",
"uX c #F7EAEB",
"iX c #F7F4EA",
"pX c #FFFCED",
"aX c #EAEFF1",
"sX c #F6EEF3",
"dX c #FDEBF6",
"fX c #ECF5F9",
"gX c #F4F4F4",
"hX c #FDF4F5",
"jX c #F5FCF3",
"kX c #FEFCF6",
"lX c #F4F4FB",
"zX c #FEF5FC",
"xX c #F5FEFC",
"cX c #FEFEFA",
"vX c #F9FAFD",
"bX c #FFFBFF",
"nX c #F9FFFE",
"mX c #FEFEFC",
"MX c white",
/* pixels */
"MXMXMXMXMXMXMXMXMXMXMXMXMXMXMXMXMXMXMXMXMXMXMXMXMXMXMXMXMXMXMXMXMXnXnXnXnXnXnXnXMXMXMXMXMXMXMXMXMXMXMXMXMXMXMXMXMXMXMXMXMXMXMXMX",
"MXMXMXMXMXMXMXMXMXMXMXMXMXMXMXMXMXMXMXMXMXMXMXMXMXMXMXMXMXMXMXMXnXnXnXnXnXnXMXMXMXMXMXMXMXMXMXMXMXMXMXMXMXMXMXMXMXMXMXMXMXMXMXMX",
"MXMXMXMXMXMXMXMXMXMXMXMXMXMXMXMXnXnXnXnXnXnXnXMXMXMXMXMXMXMXMXMXMXMXMXMXMXMXMXMXMXMXMXMXMXMXMXMXMXMXMXMXMXMXMXMXMXMXMXMXMXMXMXMX",
"MXMXMXMXMXMXMXMXMXMXMXMXMXMXMXMXxXxXxXxXxXxXxXnXnXnXnXnXnXMXMXMXcXcXMXMXMXMXMXMXMXMXMXMXMXMXMXMXMXMXMXMXMXMXMXMXMXMXMXMXMXMXMXMX",
"MXMXMXMXMXMXMXMXMXMXMXMXMXMXMXMXxXxXxXxXxXxXxXnXnXnXnXnXMXMXMXcXkXkXcXcXMXMXMXMXMXMXMXMXMXMXMXMXMXMXMXMXMXMXMXMXMXMXMXMXMXMXMXMX",
"MXMXMXMXMXMXMXMXMXMXMXMXMXMXMXMXnXxXxXnXnXnXnXnXnXnXMXMXMXMXMXMXkXkXkXcXcXMXMXMXMXMXMXMXMXMXMXMXMXMXMXMXMXMXMXMXMXMXMXMXMXMXMXMX",
"MXMXMXMXMXMXMXMXMXMXMXMXMXMXMXMXMXMXMXMXMXMXMXMXMXMXcXMXMXbXbXMXcXcXcXMXMXMXMXMXMXMXMXMXMXMXMXMXMXMXMXMXMXMXMXMXMXMXMXMXMXMXMXMX",
"MXMXMXMXMXMXMXMXMXMXMXMXMXMXMXMXMXMXMXMXMXMXMXMXbXbXbXbXbXbXbXMXMXMXMXnXnXnXnXnXMXMXMXMXMXMXMXMXMXMXMXMXMXMXMXMXMXMXMXMXMXMXMXMX",
"MXMXMXMXMXMXMXMXMXMXMXMXMXMXMXMXbXzXbXzXzXzXbXbXbXMXMXMXMXMXMXMXgXnXvXnXvXnXfXnXnXvXMXvXMXcXMXMXMXMXMXMXMXMXMXMXMXMXMXMXMXMXMXMX",
"MXMXMXMXMXMXMXMXMXMXMXMXMXMXMXMXbXzXbXbXsXzXbXbXbXvXvXvXvXvXvXvXMXlXlXvXnXfXnXaXnXMXMXvXMXkXkXMXMXMXMXMXMXMXMXMXMXMXMXMXMXMXMXMX",
"MXMXMXMXMXMXMXMXMXMXMXMXMXMXMXMXMXlXaXMXlXMXMXvXMXMXMXMXMXMXMXMXbXzXbXlXvXMXlXMXvXMXlXMXMXMXkXkXMXMXMXMXMXMXMXMXMXMXMXMXMXMXMXMX",
"MXMXMXMXMXMXMXMXMXMXMXMXMXMXMXMXvXMXMXMXlXvXvXMXcXcXkXkXkXkXkXkXzXzXzXzXzXzXzXlXMXMXgXgXjXMXMXMXMXMXMXMXMXMXMXMXMXMXMXMXMXMXMXMX",
"MXMXMXMXMXMXMXMXMXMXMXMXMXMXMXMXvXnXlXlXMXMXhXcXM M x x c c c c B z z z N 2 bXuXzXgXMXMXMXMXMXvXMXMXMXMXMXMXMXMXMXMXMXMXMXMXMXMX",
"MXMXMXMXMXMXMXMXMXMXMXMXMXMXMXMXMXMXvXMXhXcXcXkXh z z k k j j Z 9 Z j j z g uXhXcXyXMXMXgXvXMXMXMXMXMXMXMXMXMXMXMXMXMXMXMXMXMXMX",
"MXMXMXMXMXMXMXMXMXMXMXMXMXMXMXMXgXMXMXuXM f g c >Xb.b.U.U.U.U.U.U.Y.*X1X1X+Xz g x M yXbXMXMXnXvXMXMXMXMXMXMXMXMXMXMXMXMXMXMXMXMX",
"MXMXMXMXMXMXMXMXMXMXMXMXMXMXMXMXMXgXhXcXf B S Z U.U.Y.Y.Y.I.I.I.I.J.Y.L.U.&Xp k z N zXMXlXnXxXnXMXMXMXMXMXMXMXMXMXMXMXMXMXMXMXMX",
"MXMXMXMXMXMXMXMXMXMXMXMXMXMXMXMXvXbX^ N 9.d.L./.I.!.!.!.!.P.P.P.P.P.N.N.B.B.B.L.q.k./ b zXnXxXxXMXMXMXMXMXMXMXMXMXMXMXMXMXMXMXMX",
"MXMXMXMXMXMXMXMXMXMXMXMXMXMXMXMXMXzXb F q.g./.M.R.R.R.E.W.W.W.P.!.W.D.S.V.V.S.P.f.v.( ~ bXMXxXxXMXMXMXMXMXMXMXMXMXMXMXMXMXMXMXMX",
"MXMXMXMXMXMXMXMXMXMXMXMXMXMXMXMXsXbXh A b.H.K.!.R.R.R.E.W.W.W.W.!.W.D.S.S.S.N.P.L.;XA n dXzXgXxXMXMXMXMXMXMXMXMXMXMXMXMXMXMXMXMX",
"MXMXMXMXMXMXMXMXMXMXMXMXMXMXMXMXzXuXF 8 1X/.K.Q.R.R.R.E.W.W.W.W.!.W.W.D.D.D.N.P.H.1X9 F uXhXkXMXMXMXMXMXMXMXMXMXMXMXMXMXMXMXMXMX",
"MXMXMXMXMXMXMXMXMXMXMXMXMXMXMXcXf B 9.q.Y.m.W.Z.R.R.R.E.W.W.W.W.W.W.W.W.W.W.W.P.=XH.f.0.7 N hXjXMXMXMXMXMXMXMXMXMXMXMXMXMXMXMXMX",
"MXMXMXMXMXMXMXMXMXMXMXMXMXMXMXcXN d e.7.I.P.W.Z.A.R.R.E.W.W.W.W.R.R.W.W.W.W.W.W.K.J.p.f.k h cXMXMXMXMXMXMXMXMXMXMXMXMXMXMXMXMXMX",
"MXMXMXMXMXMXMXMXMXMXMXMXMXMXMXbXh A f.7.I.P.M.^.F.F.R.R.R.Q.Q.R.A.A.R.W.!.!.W.W.!.!.t.i.j w MXMXMXMXMXMXMXMXMXMXMXMXMXMXMXMXMXMX",
"MXMXMXMXMXMXMXMXMXMXMXMXMXMXMXbXV m 0.j.m.P.W.M.F.F.F.R.R.Q.F.A.A.A.R.W.!.!.!.W.T.!.t.d.S f MXvXMXMXMXMXMXMXMXMXMXMXMXMXMXMXMXMX",
"MXMXMXMXMXMXMXMXMXMXvXMXvXMXMXzXN s z.d.i.a.P.M.D.Z.F.M.Q.C.F.F.G.G.C.Q.K.~.E.!.y.2.p.q.B g MXMXMXMXMXMXMXMXMXMXMXMXMXMXMXMXMXMX",
"MXMXMXMXMXMXMXMXMXMXvXgXgXgXvXsXN s l.8.7.s.P.W.W.N.~.W.~.D.D.D.M.C.Z.~.K.!.E.!.n.r.g.e.z 3 MXfXMXMXMXMXMXMXMXMXMXMXMXMXMXMXMXMX",
"MXMXMXMXMXMXMXMXgXgXMXMXMXMXMXMXb n c.z.f.p.t.2.y.2.J.J.J.P.P.P.=X~.W.P.y.y.y.y.u.g.q.5.V b zXMXMXMXMXMXMXMXMXMXMXMXMXMXMXMXMXMX",
"MXMXMXMXMXMXMXMXMXMXMXgXvXMXyXzXb n 9.3.d.p.t.s.s.a.Y.*XL.U.U.U.L.L.L.J.s.y.n.s.p.4.8.c.h ` zXvXMXMXMXMXMXMXMXMXMXMXMXMXMXMXMXMX",
"MXMXMXMXMXMXMXMXMXMXMXMXMXgX] M b h F D 4.p.1.a.r.;.f.7.D S A A S D 7.g.a.t.t.r.i.x.z V h g C M MXMXMXMXMXMXMXMXMXMXMXMXMXMXMXMX",
"MXMXMXMXMXMXMXMXMXMXgXMXMXMX6 6 b B 7 p d.g.s.g.g.f.w.9.F B N N N ( 3.7.g.a.t.p.4.0.m n f N 2 x MXMXMXMXMXMXMXMXMXMXMXMXMXMXMXMX",
"MXMXMXMXMXMXMXMXgXMXMXMXvXyXO . <X3XS p i.r.r.r.4.8.D ( n b _ ^ ! ^ V D i.t.t.g.q.l.z h 6X4X> + MXMXMXMXMXMXMXMXMXMXMXMXMXMXMXMX",
"MXMXMXMXMXMXMXMXMXvXMXgXMXgXO . 4X3Xr p j.i.g.d.f.x.z F m n / b ^ / m A d.i.i.f.w.9.V 2 7X4X- @ MXMXMXMXMXMXMXMXMXMXMXMXMXMXMXMX",
"MXMXMXMXMXMXMXMXvXgXMXMXgXMX  . >X8X7 t r r r A 0.l.l.z.z.z.z.z.z.l.e.5.h.6.j l l B g c 3X4X@ + MXMXMXMXMXMXMXMXMXMXMXMXMXMXMXMX",
"MXMXMXMXMXMXMXMXMXvXgXMXMXaX3 . 7X2Xr w k k S z 0.0.0.w.w.w.f.f.w.0.e.6.h.5.z z B g v w >X,X$ $ MXMXMXMXMXMXMXMXMXMXMXMXMXMXMXMX",
"MXMXMXMXMXMXMXMXgXMXvXvXMXvXyXMX. + x w  . .7 v k k k j j j Z Z A Z e e e t k z } } w w $ + iXaXMXMXMXMXMXMXMXMXMXMXMXMXMXMXMXMX",
"MXMXMXMXMXMXMXMXgXMXvXMXMXgXMXcX#   2 x {  .v t t t t t t t t t r r e a e e A z 9.| c 1 &   MXMXMXMXMXMXMXMXMXMXMXMXMXMXMXMXMXMX",
"MXMXMXMXMXMXMXMXMXMXgXvXMXMXMXnXjXaX% . x w  .E Q Q W W W W W W E ,.=.>.=.E 5.} z g @ + pXiXxXfXMXMXMXMXMXMXMXMXMXMXMXMXMXMXMXMX",
"MXMXMXMXMXMXMXMXvXvXMXMXvXcXgXnXxXnX  & 2 g  .E ,.:.:.W T T T W ,.,.W Y Y ,.5.9.g f $ # iXjXnXnXMXMXMXMXMXMXMXMXMXMXMXMXMXMXMXMX",
"MXMXMXMXMXMXMXMXMXgXMXvXMXMXMXnXgXvXsXkX+ @ v r ,.:.:.*.*.*.*.:.E E >.W >.E w g @ : tXiXkXcXlXlXMXMXMXMXMXMXMXMXMXMXMXMXMXMXMXMX",
"MXMXMXMXMXMXMXMXMXvXMXgXMXgXMXMXMXbXzXcX+ @ w y Q :.:.:.*.*.*.=.,.E ,.Y W Q w N . . pXpXiXcXsXbXMXMXMXMXMXMXMXMXMXMXMXMXMXMXMXMX",
"MXMXMXMXMXMXMXMXMXMXMXMXMXMXMXMXbXbXhXhXkXpX@ @ : @ a 0 >.-.-.-.,.,.0 0 - : + + P M P x ' { dXzXbXMXMXMXMXMXMXMXMXMXMXMXMXMXMXMX",
"MXMXMXMXMXMXMXMXMXMXMXMXMXMXMXMXzXuXbXMXyXiX  # + @ < t Y -.;.-.=.Y a 0 - : . . 6 6 5 I C { dXdXzXMXMXMXMXMXMXMXMXMXMXMXMXMXMXMX",
"MXMXMXMXMXMXMXMXMXMXMXMXMXMXMXMXhXMXsXjX= % 5 G :XXXJ v 0 0 i u i i q q OX@XC P 6 _ P P 4X3X) ) zXMXMXMXMXMXMXMXMXMXMXMXMXMXMXMX",
"MXMXMXMXMXMXMXMXMXMXMXMXMXMXMXMXMXiXMXgX  X 3 G XXXX1 y 0 q i q q i q i OXOXv x 6 6 4 x ,X4X) } zXMXMXMXMXMXMXMXMXMXMXMXMXMXMXMX",
"MXMXMXMXMXMXMXMXMXMXMXMXMXMXMXMXyXMX6 ] H H 5 P L x oX@X@ > .X|.`._.#X_.i 0 U F C _ <X,X4X3X} { cXMXMXMXMXMXMXMXMXMXMXMXMXMXMXMX",
"MXMXMXMXMXMXMXMXMXMXMXMXMXMXMXMXMXMX6 M 6 M M M x w @X X- - .X`.`.).].{.u u Y F n / 6X>X9X,X{ { cXMXMXMXMXMXMXMXMXMXMXMXMXMXMXMX",
"MXMXMXMXMXMXMXMXMXMXMXMXMXMXMXMXMXMX  + <X6XN V v U ; ; -X|._.`.).).(.].[.$X;.3.; @ + + I I pXkXMXMXMXMXMXMXMXMXMXMXMXMXMXMXMXMX",
"MXMXMXMXMXMXMXMXMXMXMXMXMXMXMXMXhXhX+ @ 6X5XF F S U , , #X_.{.].(.(.'.].[.$X;.6.; - + # ' P cXuXMXMXMXMXMXMXMXMXMXMXMXMXMXMXMXMX",
"MXMXMXMXMXMXMXMXMXMXMXMXMXMXMXcX| F qXqXqXqX, ; 9.6.e u &.%.].'.'.'.].{.$.<.a S - @ zXcXcXnXnXnXMXMXMXMXMXMXMXMXMXMXMXMXMXMXMXMX",
"MXMXMXMXMXMXMXMXMXMXMXMXMXMXMXcXF 5.wXeXwXeX@ ; } 5.r i $.%.].].].[.[.#X&.Y E R + . sXlXvXnXnXvXMXMXMXMXMXMXMXMXMXMXMXMXMXMXMXMX",
"MXMXMXMXMXMXMXMXMXMXMXMXMXMXMXbX| ( 0X0XqXqX> - { F k e .X%X%.%.%.$.%.&..XOXx 2 P 6 MXMXvXMXbXbXMXMXMXMXMXMXMXMXMXMXMXMXMXMXMXMX",
"MXMXMXMXMXMXMXMXMXMXMXMXMXMXMXbX` ( rXrXrXrX+ + ` N c y  X.XK %.%.K &.&. X+XL P 6 3 nXlXvXbXbXbXMXMXMXMXMXMXMXMXMXMXMXMXMXMXMXMX",
"MXMXMXMXMXMXMXMXMXMXMXMXMXMXMXMXdXzX` ` { ` . $ ....C x + + .X.X.X.X|.}.&   X.o.X o fXvXbXbXzXhXMXMXMXMXMXMXMXMXMXMXMXMXMXMXMXMX",
"MXMXMXMXMXMXMXMXMXMXMXMXMXMXMXMXbXdX] _ ] ] . . O.+._ M . . oXoX XoXoX}.& X o.@.o o xXMXMXzXhXhXMXMXMXMXMXMXMXMXMXMXMXMXMXMXMXMX",
"MXMXMXMXMXMXMXMXMXMXMXMXMXMXMXMXzXzXMXMXMXcXkXjX        5 L L J J J L L ' o.G G X o fXlXhXzXcXcXMXMXMXMXMXMXMXMXMXMXMXMXMXMXMXMX",
"MXMXMXMXMXMXMXMXMXMXMXMXMXMXMXMXbXzXbXvXgXMXgXMX  O     H P 5 x 4 L 4 5 #.[ _ 6 o o vXnXMXcXkXhXMXMXMXMXMXMXMXMXMXMXMXMXMXMXMXMX",
"MXMXMXMXMXMXMXMXMXMXMXMXMXMXMXMXbXbXbXMXMXMXMXMXMXMXMXMXMXMXcXcX. . ..[ [ [   O bXbXMXMXnXnXnXnXMXMXMXMXMXMXMXMXMXMXMXMXMXMXMXMX",
"MXMXMXMXMXMXMXMXMXMXMXMXMXMXMXMXbXbXbXMXMXMXMXMXMXMXMXMXMXMXMXMXO   O.[ ..+.. * zXzXbXMXnXxXxXxXMXMXMXMXMXMXMXMXMXMXMXMXMXMXMXMX",
"MXMXMXMXMXMXMXMXMXMXMXMXMXMXMXMXMXcXMXMXMXMXMXMXMXcXcXMXMXMXMXMX  . ....+...* + zXzXbXMXnXxXxXxXnXMXMXMXMXMXMXMXMXMXMXMXMXMXMXMX",
"MXMXMXMXMXMXMXMXMXMXMXMXMXMXMXMXMXMXMXMXMXMXMXMXMXcXcXMXMXMXMXMX*   #.....#.+ * zXzXbXMXnXxXxXxXMXMXMXMXMXMXMXMXMXMXMXMXMXMXMXMX",
"MXMXMXMXMXMXMXMXMXMXMXMXMXMXMXMXMXMXMXMXMXMXMXMXMXMXMXMXMXMXMXMXgXbX. * * . zXdXzXcXcXMXMXnXnXxXMXMXMXMXMXMXMXMXMXMXMXMXMXMXMXMX",
"MXMXMXMXMXMXMXMXMXMXMXMXMXMXMXMXMXMXMXMXMXMXMXMXMXMXMXMXMXMXMXMXbXcX. . . . cXcXcXcXMXMXMXMXMXMXMXMXMXMXMXMXMXMXMXMXMXMXMXMXMXMX",
"MXMXMXMXMXMXMXMXMXMXMXMXMXMXMXMXMXnXnXnXMXnXMXMXMXMXMXMXMXMXMXMXzXzXMXMXMXMXkXjXkXMXMXMXMXMXbXbXMXMXMXMXMXMXMXMXMXMXMXMXMXMXMXMX",
"MXMXMXMXMXMXMXMXMXMXMXMXMXMXMXMXnXnXnXnXnXnXvXbXMXMXMXMXMXMXMXMXzXcXhXkXkXjXkXjXkXkXMXMXMXbXbXbXMXMXMXMXMXMXMXMXMXMXMXMXMXMXMXMX"
};
