/* XPM */
static char *ed8d795a801341fdb50c7edfeef49e5aUY6n5cw7GoavvCiU[] = {
/* columns rows colors chars-per-pixel */
"64 64 242 2 ",
"   c #030300",
".  c #0C0202",
"X  c #060900",
"o  c #02030C",
"O  c #0C0A0B",
"+  c #140200",
"@  c #1B0100",
"#  c #1A0A01",
"$  c #16060B",
"%  c #021300",
"&  c #131309",
"*  c #040613",
"=  c #1D0D1A",
"-  c #06131B",
";  c #240200",
":  c #2C0200",
">  c #240805",
",  c #25130E",
"<  c #2D2E1A",
"1  c #3D2819",
"2  c #3A341D",
"3  c #121820",
"4  c #3F1C21",
"5  c #2D2D2C",
"6  c #3B2826",
"7  c #383327",
"8  c #393936",
"9  c #481C17",
"0  c #5A1D1C",
"q  c #621A1E",
"w  c #462809",
"e  c #562805",
"r  c #573407",
"t  c #43251B",
"y  c #4C2B1D",
"u  c #5C2E13",
"i  c #5C241D",
"p  c #532A1C",
"a  c #5C2A1D",
"s  c #48351B",
"d  c #563716",
"f  c #672902",
"g  c #6B2A00",
"h  c #653603",
"j  c #64271C",
"k  c #60291B",
"l  c #643816",
"z  c #763B1A",
"x  c #511F27",
"c  c #482927",
"v  c #5E2521",
"b  c #542D23",
"n  c #5B2A23",
"m  c #59262A",
"M  c #532B2B",
"N  c #473729",
"B  c #4C342D",
"V  c #533324",
"C  c #5A3726",
"Z  c #53342C",
"A  c #5A322E",
"S  c #422E33",
"D  c #4E2D33",
"F  c #442A38",
"G  c #572C35",
"H  c #493737",
"J  c #523434",
"K  c #563836",
"L  c #5C3439",
"P  c #642522",
"I  c #652B29",
"U  c #68342B",
"Y  c #682E37",
"T  c #643639",
"R  c #753A34",
"E  c #36432C",
"W  c #3A4539",
"Q  c #52401C",
"!  c #754D0C",
"~  c #7C5604",
"^  c #444328",
"/  c #4F482E",
"(  c #49463A",
")  c #57483C",
"_  c #67432C",
"`  c #6E4631",
"'  c #784D39",
"]  c #7B5436",
"[  c #75533D",
"{  c #7C523C",
"}  c #333842",
"|  c #522E40",
" . c #493943",
".. c #583A42",
"X. c #34464A",
"o. c #4C4442",
"O. c #48484A",
"+. c #5B4946",
"@. c #54584C",
"#. c #5B4C51",
"$. c #585556",
"%. c #654C44",
"&. c #6A5446",
"*. c #7D5342",
"=. c #785544",
"-. c #665758",
";. c #636958",
":. c #695864",
">. c #745D6C",
",. c #586463",
"<. c #70636D",
"1. c #874F0B",
"2. c #924C1C",
"3. c #866206",
"4. c #8E492F",
"5. c #885629",
"6. c #844E35",
"7. c #8A4C35",
"8. c #835135",
"9. c #83523C",
"0. c #925439",
"q. c #AA4B3E",
"w. c #B34A3D",
"e. c #884E4C",
"r. c #9B4C4A",
"t. c #835648",
"y. c #9D534C",
"u. c #9A584E",
"i. c #9A4F52",
"p. c #8B5658",
"a. c #9C5452",
"s. c #975857",
"d. c #A64C46",
"f. c #AC4C43",
"g. c #B84D44",
"h. c #A85349",
"j. c #AC524A",
"k. c #B55246",
"l. c #B85449",
"z. c #A35A53",
"x. c #A85957",
"c. c #B45B55",
"v. c #9D6159",
"b. c #AF625B",
"n. c #8E5D62",
"m. c #945962",
"M. c #9C5E62",
"N. c #A25C61",
"B. c #96666A",
"V. c #B57575",
"C. c #C4574F",
"Z. c #CE6C59",
"A. c #DC6955",
"S. c #DF6F5C",
"D. c #E7744F",
"F. c #E46C5C",
"G. c #EC6F5E",
"H. c #E37456",
"J. c #E2735D",
"K. c #EB725E",
"L. c #CC6B65",
"P. c #DA6C62",
"I. c #CA786A",
"U. c #D47363",
"Y. c #DD7464",
"T. c #DD736A",
"R. c #D87868",
"E. c #CD7672",
"W. c #C87A76",
"Q. c #D67972",
"!. c #E56F66",
"~. c #EA6E64",
"^. c #E86F69",
"/. c #E37264",
"(. c #E97264",
"). c #E2716A",
"_. c #E77B6A",
"`. c #F17967",
"'. c #E47A75",
"]. c #B3950E",
"[. c #B79314",
"{. c #BA9628",
"}. c #AF8A30",
"|. c #BB9634",
" X c #C3931D",
".X c #C5A21B",
"XX c #C7892A",
"oX c #C49928",
"OX c #D3952B",
"+X c #C79836",
"@X c #C7A626",
"#X c #9F905F",
"$X c #B08F50",
"%X c #B28E59",
"&X c #B59557",
"*X c #99946F",
"=X c #A7906B",
"-X c #B08E71",
";X c #B6A16F",
":X c #D18F44",
">X c #CA8274",
",X c #D5827A",
"<X c #E98475",
"1X c #AB9181",
"2X c #BB9A8A",
"3X c #B99D97",
"4X c #B3A68B",
"5X c #BCA6A3",
"6X c #CA908C",
"7X c #C6A797",
"8X c #D0AC93",
"9X c #C9A8A5",
"0X c #D2B2A8",
"qX c #EAC7B9",
"wX c #F6CBBE",
"eX c #FACEC6",
"rX c #EED2CA",
"tX c #F8D5C9",
"yX c #EAE8E8",
"uX c #F8EBE9",
"iX c #EAF5EB",
"pX c #F6F5EA",
"aX c #FBF3EB",
"sX c #FDFCEE",
"dX c #ECECF3",
"fX c #F6EEF3",
"gX c #FAEDF5",
"hX c #EDF6F5",
"jX c #F4F4F4",
"kX c #FCF4F4",
"lX c #F4FBF6",
"zX c #FEFDF5",
"xX c #F5F4FB",
"cX c #FEF5FB",
"vX c #F6FDFB",
"bX c #FEFEFA",
"nX c #F9FAFD",
"mX c #FEF9FE",
"MX c #FFFBFF",
"NX c #FAFFFE",
"BX c #FFFFFD",
"VX c white",
/* pixels */
"VXVXVXVXVXVXVXVXVXVXVXVXVXVXVXVXMXMXMXVXVXVXVXVXVXVXVXVXVXVXVXVXNXvXvXNXNXVXVXVXVXVXVXVXVXVXVXVXVXVXVXVXVXVXVXVXVXVXVXVXVXVXVXVX",
"VXVXVXVXVXVXVXVXVXVXVXVXVXVXVXVXVXVXVXVXVXVXVXVXVXVXVXVXVXVXVXVXNXNXNXNXNXNXVXVXVXVXVXVXVXVXVXVXVXVXVXVXVXVXVXVXVXVXVXVXVXVXVXVX",
"VXVXVXVXVXVXVXVXVXVXVXVXVXVXVXVXNXNXNXNXNXNXNXVXVXVXVXVXVXVXVXVXVXVXVXVXVXVXVXVXVXVXVXVXVXVXVXVXVXVXVXVXVXVXVXVXVXVXVXVXVXVXVXVX",
"VXVXVXVXVXVXVXVXVXVXVXVXVXVXVXVXvXvXvXvXvXvXvXvXvXvXvXvXvXVXVXVXbXbXVXVXVXVXVXVXVXVXVXVXVXVXVXVXVXVXVXVXVXVXVXVXVXVXVXVXVXVXVXVX",
"VXVXVXVXVXVXVXVXVXVXVXVXVXVXVXVXvXvXvXvXvXvXvXvXvXvXvXvXVXVXVXbXzXzXbXbXVXVXVXVXVXVXVXVXVXVXVXVXVXVXVXVXVXVXVXVXVXVXVXVXVXVXVXVX",
"VXVXVXVXVXVXVXVXVXVXVXVXVXVXVXVXNXvXvXvXvXvXNXNXvXvXVXVXVXVXVXVXzXzXzXbXbXVXVXVXVXVXVXVXVXVXVXVXVXVXVXVXVXVXVXVXVXVXVXVXVXVXVXVX",
"VXVXVXVXVXVXVXVXVXVXVXVXVXVXVXVXVXVXVXVXVXVXVXVXVXVXVXVXVXMXMXVXbXbXbXVXVXVXNXVXVXVXVXVXVXVXVXVXVXVXVXVXVXVXVXVXVXVXVXVXVXVXVXVX",
"VXVXVXVXVXVXVXVXVXVXVXVXVXVXVXVXVXVXVXVXVXVXVXVXMXMXMXMXMXMXMXVXVXVXVXNXNXNXNXNXVXVXVXVXVXVXVXVXVXVXVXVXVXVXVXVXVXVXVXVXVXVXVXVX",
"VXVXVXVXVXVXVXVXVXVXVXVXVXVXVXVXMXMXMXcXMXcXMXMXMXVXVXVXVXVXVXVXjXNXnXNXnXNXdXNXNXnXVXnXVXbXVXbXVXVXVXVXVXVXVXVXVXVXVXVXVXVXVXVX",
"VXVXVXVXVXVXVXVXVXVXVXVXVXVXVXVXMXMXMXMXgXMXMXMXMXnXnXnXnXnXnXnXVXxXnXnXNXxXNXdXNXVXVXnXVXzXzXVXVXVXVXVXVXVXVXVXVXVXVXVXVXVXVXVX",
"VXVXVXVXVXVXVXVXVXVXVXVXVXVXVXVXVXxXdXVXxXVXVXnXVXVXVXVXVXVXVXVXMXcXMXxXnXVXxXVXnXVXxXVXVXVXzXzXVXVXVXVXVXVXVXVXVXVXVXVXVXVXVXVX",
"VXVXVXVXVXVXVXVXVXVXVXVXVXVXVXVXnXVXVXVXxXnXnXVXbXbXbXzXzXzXzXzXcXcXMXcXMXcXxXxXVXVXjXjXlXVXVXVXVXVXVXVXVXVXVXVXVXVXVXVXVXVXVXVX",
"VXVXVXVXVXVXVXVXVXVXVXVXVXVXVXVXnXNXxXxXVXVXkXbXH H B B B Z Z Z A m M M J 6 MXuXcXjXVXVXVXVXVXnXVXVXVXVXVXVXVXVXVXVXVXVXVXVXVXVX",
"VXVXVXVXVXVXVXVXVXVXVXVXVXVXVXVXVXVXnXVXkXVXzXzXB M M n n v v P 0 P v v b c uXkXbXyXVXVXjXnXVXVXVXVXVXVXVXVXVXVXVXVXVXVXVXVXVXVX",
"VXVXVXVXVXVXVXVXVXVXVXVXVXVXVXVXjXVXVXuXH c c A 1XV.V.W.W.E.E.E.E.Q.,X6X6X-XM c S H yXMXVXVXVXlXVXVXVXVXVXVXVXVXVXVXVXVXVXVXVXVX",
"VXVXVXVXVXVXVXVXVXVXVXVXVXVXVXVXVXkXkXbXc A U P W.W.E.Q.Q.T.T.T.T.U.Q.U.I.>Xj n M D cXMXnXNXNXNXVXVXVXVXVXVXVXVXVXVXVXVXVXVXVXVX",
"VXVXVXVXVXVXVXVXVXVXVXVXVXVXVXVXnXMX .L p.z.E.'.).).).)./././.Y.T.)./.J.H.H.U.I.a.p...F MXVXvXvXVXVXVXVXVXVXVXVXVXVXVXVXVXVXVXVX",
"VXVXVXVXVXVXVXVXVXVXVXVXVXVXVXVXVXcXF T s.c.'.P.~.~.~.~.(.(.J./.).).J.H.D.D.H.Y.c.N.Y | MXVXlXvXVXVXVXVXVXVXVXVXVXVXVXVXVXVXVXVX",
"VXVXVXVXVXVXVXVXVXVXVXVXVXVXVXVXgXMXD I W.L.P.^.~.~.~.~././././.).).(.J.H.H.J.Y.E.W.I G gXcXjXzXVXVXVXVXVXVXVXVXVXVXVXVXVXVXVXVX",
"VXVXVXVXVXVXVXVXVXVXVXVXVXVXVXMXcXuXY 0 ,X'.P.~.~.~.~.~././././.).)././.J.J.J.Y.L.6Xq Y uXkXzXVXVXVXVXVXVXVXVXVXVXVXVXVXVXVXVXVX",
"VXVXVXVXVXVXVXVXVXVXVXVXVXVXVXMXc L p.a.Q.Z./.F.~.~.~.~.!./././.^.)./././.Y././.<XL.x.a.9 B sXlXVXVXVXVXVXVXVXVXVXVXVXVXVXVXVXVX",
"VXVXVXVXVXVXVXVXVXVXVXVXVXVXVXbXJ 0 s.r.R.Y.(.F.G.~.~.~.!.!./.!.~.~././.Y.Y././.P.P.j.x.n B bXVXVXVXVXVXVXVXVXVXVXVXVXVXVXVXVXVX",
"VXVXVXVXVXVXVXVXVXVXVXVXVXVXVXbXD I x.d.R.Y.A.`.G.~.~.~.~.~.~.~.G.~.(./.T.T././.).T.f.h.n t VXvXVXVXVXVXVXVXVXVXVXVXVXVXVXVXVXVX",
"VXVXVXVXVXVXVXVXVXVXVXVXVXVXVXbXL m i.b.Z.R.J.A.K.K.(.(.~.~.~.~.G.G.(./.).).)./.P.).k.z.U 6 VXnXVXVXVXVXVXVXVXVXVXVXVXVXVXVXVXVX",
"VXVXVXVXVXVXVXVXVXVXnXVXnXVXVXcXJ x M.z.h.k.Y.S.J.F.(.A.(.F.(.K.K.K.F.(.P.'.).).g.w.j.a.A c VXNXVXVXVXVXVXVXVXVXVXVXVXVXVXVXVXVX",
"VXVXVXVXVXVXVXVXVXVXnXjXjXjXnXfXJ c m.i.r.k.Y._./.S._./._./.J.S.A.A.S._.P.).).).C.f.x.s.M 6 VXdXVXVXVXVXVXVXVXVXVXVXVXVXVXVXVXVX",
"VXVXVXVXVXVXVXVXjXjXVXVXVXVXVXVXH D B.s.x.j.w.w.g.w.U.U.U.R.R.U.<X_./.Y.g.g.g.g.k.c.a.e.K S xXMXVXVXVXVXVXVXVXVXVXVXVXVXVXVXVXVX",
"VXVXVXVXVXVXVXVXVXVXVXjXnXVXyXkXH D p.e.z.j.f.l.l.k.Q.,XI.I.I.I.I.I.R.U.g.w.C.l.j.r.i.B.D +.cXnXVXVXVXVXVXVXVXVXVXVXVXVXVXVXVXVX",
"VXVXVXVXVXVXVXVXVXVXVXVXVXjXO.H S D T U r.h.q.j.d.q.x.y.U U I I U R y.c.k.w.g.f.h.N.m L D S H H VXVXVXVXVXVXVXVXVXVXVXVXVXVXVXVX",
"VXVXVXVXVXVXVXVXVXVXjXVXVXVX8 8 S K 9 i z.c.c.c.c.x.s.p.T Z J J J T e.y.c.k.k.j.i.s.G G c J 1 B VXVXVXVXVXVXVXVXVXVXVXVXVXVXVXVX",
"VXVXVXVXVXVXVXVXjXVXVXVXnXyXO . 5X7XU P y.d.d.d.r.i.Y T D S o. .}  .L U h.f.k.c.i.m.m D 9X9X: @ VXVXVXVXVXVXVXVXVXVXVXVXVXVXVXVX",
"VXVXVXVXVXVXVXVXVXNXVXjXVXjXO . 9X7Xp i v.u.x.z.x.N.m T J H ..S  ...G I z.j.d.z.s.p.L 4 0X9X; ; VXVXVXVXVXVXVXVXVXVXVXVXVXVXVXVX",
"VXVXVXVXVXVXVXVXvXjXVXVXjXVX  . 2X0Xt V y b v Y m.m.m.n.n.p.s.s.M.s.N.r.s.a.i a n b t Z 7X9X; + VXVXVXVXVXVXVXVXVXVXVXVXVXVXVXVX",
"VXVXVXVXVXVXVXNXNXlXjXVXVXyX5 . 0X7Xs 1 N B A m m.m.p.p.s.s.u.y.a.a.x.s.v.p.n y C t K c 3X3X; > VXVXVXVXVXVXVXVXVXVXVXVXVXVXVXVX",
"VXVXVXVXVXVXVXVXjXVXlXnXVXnXyXbX+ @ N 7 &.&.9 U P P v n a a k j P v i i n n b V &.&.c 6 # . aXuXVXVXVXVXVXVXVXVXVXVXVXVXVXVXVXVX",
"VXVXVXVXVXVXVXVXjXVXNXVXVXjXVXbX$ + 6 N %.&.U a j j k a a a a a p p b C b p V y =.&.N < &   zXvXVXVXVXVXVXVXVXVXVXVXVXVXVXVXVXVX",
"VXVXVXVXVXVXVXVXVXVXdXnXVXMXVXcXcXgXO . 7 1 *.' 7.7.6.{ { { *.*.[ =.=.=.=.' =.=.y c + . zXiXlXiXNXVXVXVXVXVXVXVXVXVXVXVXVXVXVXVX",
"VXVXVXVXVXVXVXVXlXjXVXVXnXbXjXMXMXMX  & < 2 =.' 6.6.8.] { { { { =.[ [ ' ' *.*.t.y t # X pXlXvXvXNXVXVXVXVXVXVXVXVXVXVXVXVXVXVXVX",
"VXVXVXVXVXVXVXVXVXjXVXnXVXVXMXMXgXcXpXzXX . C p 9.8.] ] ] { 9.9.' ] t.{ t.' p p @ > uXaXVXNXhXiXVXVXVXVXVXVXVXVXVXVXVXVXVXVXVXVX",
"VXVXVXVXVXVXVXVXVXjXVXjXVXkXMXbXkXkXzXzX  X N y *.{ ] ] ] 8.6.7.8.6.9.` 9.*.y C @ + zXzXkXVXdXVXVXVXVXVXVXVXVXVXVXVXVXVXVXVXVXVX",
"VXVXVXVXVXVXVXVXVXlXVXVXVXVXVXzX%.) ( 7 W 5 . + @ ; d d ] 6.0.7.0.6.l e ; > + # sXuXbXzXkXVXMXMXVXVXVXVXVXVXVXVXVXVXVXVXVXVXVXVX",
"VXVXVXVXVXVXVXVXlXVXjXVXMXcXcXkX_ C ) ( 8 8 . # @ + d w 5.5.2.4.4.` e u ; + ,   sXbXzXjXVXfXMXMXVXVXVXVXVXVXVXVXVXVXVXVXVXVXVXVX",
"VXVXVXVXVXVXVXVXVXjXVXMXMXVX$.+.8X8Xs 7 8 O.7 B 1X=Xd r h h f g f l l d =X4X< ( % X lXhXiXVXjXVXVXVXVXVXVXVXVXVXVXVXVXVXVXVXVXVX",
"VXVXVXVXVXVXVXVXnXVXkXVXcXcX#.+.2X8Xs ) H o.B Z -X%Xr h e h f f h r r w *X*X< E % X vXvXNXNXVXnXVXVXVXVXVXVXVXVXVXVXVXVXVXVXVXVX",
"VXVXVXVXVXVXVXVXbXVXkXVXcXcX#.+.7X8X7X5XN K V _ r e $X}.|.+XXX:X: @ ;X4Xs ^ ^ E E W W 8 NXlXlXVXVXVXVXVXVXVXVXVXVXVXVXVXVXVXVXVX",
"VXVXVXVXVXVXVXVXVXjXVXMXMXMX$.+.2X7X7X9XK V U z g f +X{.{.{.oX|.; ; ;X=Xs / 2 ) ( 7 ( O.jXVXVXjXVXVXVXVXVXVXVXVXVXVXVXVXVXVXVXVX",
"VXVXVXVXVXVXVXVXnXVXkXVXMXcXcXkX%.&.. # + ; 7.2.:XOX X.X].].@X{.&X-X@ @ _ _ V B 3X5X$ + MXMXkXVXVXVXVXVXVXVXVXVXVXVXVXVXVXVXVXVX",
"VXVXVXVXVXVXVXVXVXnXVXMXVXVXVXbX+.H + # + : 0.2.:XXXOX]..X].[.{.$X;X; : _ U b A 7X0X+ @ kXkXMXMXVXVXVXVXVXVXVXVXVXVXVXVXVXVXVXVX",
"VXVXVXVXVXVXVXVXVXVXVXVXVXVXVXVXVXVXbXMX+ ; U z 2.1.XX X XoX[.|.1.! l e { t.: : eXeXwXtX%.-.kXMXVXVXVXVXVXVXVXVXVXVXVXVXVXVXVXVX",
"VXVXVXVXVXVXVXVXVXVXVXVXVXVXVXVXvXVXdXfX= , A U 5.1.:X+XoX{.{.|.~ 5.h u t.*.: : wXwXeXwX&.K bXcXVXVXVXVXVXVXVXVXVXVXVXVXVXVXVXVX",
"VXVXVXVXVXVXVXVXVXVXVXVXVXVXVXVXbXVXnXMX .S K V %X&X! ~ 3.~ 3.~ &X%Xl w A T @ : eXtXqXtX%.+.VXnXVXVXVXVXVXVXVXVXVXVXVXVXVXVXVXVX",
"VXVXVXVXVXVXVXVXVXVXVXVXVXVXVXVXaXVXbXMXO.5 o.N =X;X! ~ 3.~ 3.~ %X-Xw y ) ..> @ tXrXtXrXH o.nXVXVXVXVXVXVXVXVXVXVXVXVXVXVXVXVXVX",
"VXVXVXVXVXVXVXVXVXVXVXVXVXVXVXVXbXaXkXhX3 3 $.@.X . ;X&X&X$X$X$X@ > N ) +.-.. $ K +.%.&.bXbXVXVXVXVXVXVXVXVXVXVXVXVXVXVXVXVXVXVX",
"VXVXVXVXVXVXVXVXVXVXVXVXVXVXVXVXbXaXVXvXo - ,.$.    *X#X#X%X%X=X# . N o.$.:.= . -.o.-.-.yXVXlXhXVXVXVXVXVXVXVXVXVXVXVXVXVXVXVXVX",
"VXVXVXVXVXVXVXVXVXVXVXVXVXVXVXVXsXaXlXNXo * X.X.,.;.^ s Q d d d N (   O o o xXMXkXbXbXaXlXVXiXNXVXVXVXVXVXVXVXVXVXVXVXVXVXVXVXVX",
"VXVXVXVXVXVXVXVXVXVXVXVXVXVXVXVXzXzXjXNXo - } } ,.$.( N N s / N H 5 O O o o VXMXVXkXbXzXVXvXvXlXVXVXVXVXVXVXVXVXVXVXVXVXVXVXVXVX",
"VXVXVXVXVXVXVXVXVXVXVXVXVXVXVXVXbXsXbXVXxXvX* * <.:.#.-.+ + aXsXbXVXVXVXVXVXVXVXVXVXbXbXbXbXzXvXVXVXVXVXVXVXVXVXVXVXVXVXVXVXVXVX",
"VXVXVXVXVXVXVXVXVXVXVXVXVXVXVXVXbXzXlXlXlXVXo * :.<.-.#.,   sXbXVXVXVXVXVXVXVXVXVXVXbXbXbXbXbXzXVXVXVXVXVXVXVXVXVXVXVXVXVXVXVXVX",
"VXVXVXVXVXVXVXVXVXVXVXVXVXVXVXVXpXbXVXVXnXVX. = >.>.#.>.. O VXlXVXVXVXVXVXVXVXVXVXbXbXbXbXbXbXbXVXVXVXVXVXVXVXVXVXVXVXVXVXVXVXVX",
"VXVXVXVXVXVXVXVXVXVXVXVXVXVXVXVXVXVXjXlXVXjX$ . >.#.:.:.. O lXjXVXVXVXVXvXvXVXVXVXVXVXbXbXbXbXbXVXVXVXVXVXVXVXVXVXVXVXVXVXVXVXVX",
"VXVXVXVXVXVXVXVXVXVXVXVXVXVXVXVXjXVXVXVXlXVXuXbX. , $ . MXfXVXVXVXVXVXVXvXvXvXVXVXVXbXbXVXVXVXvXVXVXVXVXVXVXVXVXVXVXVXVXVXVXVXVX",
"VXVXVXVXVXVXVXVXVXVXVXVXVXVXVXVXVXMXnXVXzXpXzXuX. . $ + gXcXnXnXVXVXVXvXvXvXvXvXVXVXMXVXVXVXvXvXVXVXVXVXVXVXVXVXVXVXVXVXVXVXVXVX",
"VXVXVXVXVXVXVXVXVXVXVXVXVXVXVXVXMXMXVXVXzXpXsXsXsXkXbXkXMXMXMXMXVXVXVXvXvXvXvXNXVXVXVXVXVXNXNXNXVXVXVXVXVXVXVXVXVXVXVXVXVXVXVXVX",
"VXVXVXVXVXVXVXVXVXVXVXVXVXVXVXVXcXMXMXzXzXsXiXsXzXbXVXVXkXbXMXcXMXVXVXvXvXvXvXNXNXVXVXVXVXNXNXNXVXVXVXVXVXVXVXVXVXVXVXVXVXVXVXVX"
};
